<svg xmlns="http://www.w3.org/2000/svg" xmlns:xlink="http://www.w3.org/1999/xlink" width="1080" zoomAndPan="magnify" viewBox="0 0 810 809.999993" height="1080" preserveAspectRatio="xMidYMid meet" version="1.0"><defs><clipPath id="a09f3314d7"><path d="M 354.902344 355.488281 L 809 355.488281 L 809 809.988281 L 354.902344 809.988281 Z M 354.902344 355.488281 " clip-rule="nonzero"/></clipPath></defs><path fill="#0ec100" d="M 459.5625 229.25 C 459.5625 233.003906 459.46875 236.757812 459.285156 240.507812 C 459.101562 244.257812 458.824219 248 458.457031 251.734375 C 458.089844 255.472656 457.628906 259.195312 457.078125 262.910156 C 456.527344 266.625 455.886719 270.320312 455.15625 274.003906 C 454.425781 277.6875 453.601562 281.347656 452.691406 284.988281 C 451.777344 288.632812 450.777344 292.25 449.6875 295.839844 C 448.601562 299.433594 447.421875 302.996094 446.160156 306.53125 C 444.894531 310.066406 443.546875 313.570312 442.109375 317.039062 C 440.675781 320.507812 439.152344 323.9375 437.550781 327.332031 C 435.945312 330.726562 434.257812 334.078125 432.492188 337.386719 C 430.722656 340.699219 428.875 343.964844 426.945312 347.183594 C 425.015625 350.40625 423.007812 353.578125 420.925781 356.699219 C 418.839844 359.820312 416.679688 362.886719 414.445312 365.902344 C 412.210938 368.917969 409.902344 371.878906 407.523438 374.78125 C 405.140625 377.683594 402.691406 380.523438 400.171875 383.304688 C 397.652344 386.085938 395.066406 388.804688 392.414062 391.460938 C 389.761719 394.113281 387.042969 396.703125 384.265625 399.222656 C 381.484375 401.746094 378.644531 404.195312 375.742188 406.578125 C 372.84375 408.960938 369.886719 411.269531 366.871094 413.507812 C 363.859375 415.742188 360.792969 417.902344 357.671875 419.988281 C 354.554688 422.074219 351.382812 424.082031 348.167969 426.011719 C 344.949219 427.941406 341.683594 429.792969 338.375 431.5625 C 335.066406 433.332031 331.714844 435.019531 328.324219 436.625 C 324.933594 438.230469 321.503906 439.75 318.039062 441.1875 C 314.570312 442.625 311.070312 443.976562 307.539062 445.242188 C 304.007812 446.503906 300.445312 447.683594 296.855469 448.773438 C 293.265625 449.863281 289.648438 450.863281 286.007812 451.773438 C 282.371094 452.6875 278.710938 453.511719 275.03125 454.242188 C 271.351562 454.976562 267.65625 455.617188 263.945312 456.167969 C 260.230469 456.71875 256.507812 457.175781 252.777344 457.546875 C 249.042969 457.914062 245.300781 458.191406 241.554688 458.375 C 237.804688 458.558594 234.058594 458.648438 230.304688 458.648438 C 226.554688 458.648438 222.804688 458.558594 219.054688 458.375 C 215.308594 458.191406 211.566406 457.914062 207.832031 457.546875 C 204.101562 457.175781 200.378906 456.71875 196.664062 456.167969 C 192.953125 455.617188 189.257812 454.976562 185.578125 454.242188 C 181.898438 453.511719 178.238281 452.6875 174.601562 451.777344 C 170.960938 450.863281 167.34375 449.863281 163.753906 448.773438 C 160.164062 447.683594 156.601562 446.503906 153.070312 445.242188 C 149.539062 443.976562 146.039062 442.625 142.570312 441.1875 C 139.105469 439.75 135.675781 438.230469 132.285156 436.625 C 128.894531 435.019531 125.542969 433.332031 122.234375 431.5625 C 118.925781 429.792969 115.660156 427.941406 112.445312 426.011719 C 109.226562 424.082031 106.054688 422.074219 102.9375 419.988281 C 99.816406 417.902344 96.75 415.742188 93.738281 413.507812 C 90.722656 411.269531 87.765625 408.960938 84.867188 406.578125 C 81.964844 404.195312 79.125 401.746094 76.347656 399.222656 C 73.566406 396.703125 70.847656 394.113281 68.195312 391.460938 C 65.542969 388.804688 62.957031 386.085938 60.4375 383.304688 C 57.917969 380.523438 55.46875 377.683594 53.085938 374.78125 C 50.707031 371.878906 48.398438 368.917969 46.164062 365.902344 C 43.929688 362.886719 41.769531 359.820312 39.683594 356.699219 C 37.601562 353.578125 35.59375 350.40625 33.664062 347.183594 C 31.734375 343.964844 29.886719 340.699219 28.117188 337.386719 C 26.351562 334.078125 24.664062 330.726562 23.058594 327.332031 C 21.457031 323.9375 19.933594 320.507812 18.5 317.039062 C 17.0625 313.570312 15.714844 310.066406 14.449219 306.53125 C 13.1875 302.996094 12.007812 299.433594 10.921875 295.839844 C 9.832031 292.25 8.832031 288.632812 7.917969 284.988281 C 7.007812 281.347656 6.1875 277.6875 5.453125 274.003906 C 4.722656 270.320312 4.082031 266.625 3.53125 262.910156 C 2.980469 259.195312 2.519531 255.472656 2.152344 251.734375 C 1.785156 248 1.507812 244.257812 1.324219 240.507812 C 1.140625 236.757812 1.046875 233.003906 1.046875 229.25 C 1.046875 225.496094 1.140625 221.742188 1.324219 217.992188 C 1.507812 214.246094 1.785156 210.5 2.152344 206.765625 C 2.519531 203.027344 2.980469 199.304688 3.53125 195.589844 C 4.082031 191.875 4.722656 188.179688 5.453125 184.496094 C 6.1875 180.8125 7.007812 177.152344 7.917969 173.511719 C 8.832031 169.867188 9.832031 166.25 10.921875 162.660156 C 12.007812 159.066406 13.1875 155.503906 14.449219 151.96875 C 15.714844 148.433594 17.0625 144.929688 18.5 141.460938 C 19.933594 137.992188 21.457031 134.5625 23.058594 131.167969 C 24.664062 127.773438 26.351562 124.421875 28.117188 121.113281 C 29.886719 117.800781 31.734375 114.535156 33.664062 111.316406 C 35.59375 108.09375 37.601562 104.925781 39.683594 101.800781 C 41.769531 98.679688 43.929688 95.613281 46.164062 92.597656 C 48.398438 89.582031 50.707031 86.621094 53.085938 83.71875 C 55.46875 80.816406 57.917969 77.976562 60.4375 75.195312 C 62.957031 72.414062 65.542969 69.695312 68.195312 67.039062 C 70.847656 64.386719 73.566406 61.796875 76.347656 59.277344 C 79.125 56.753906 81.964844 54.304688 84.867188 51.921875 C 87.765625 49.539062 90.722656 47.230469 93.738281 44.996094 C 96.75 42.757812 99.816406 40.597656 102.9375 38.511719 C 106.054688 36.425781 109.226562 34.417969 112.445312 32.488281 C 115.660156 30.558594 118.925781 28.707031 122.234375 26.9375 C 125.542969 25.167969 128.894531 23.480469 132.285156 21.875 C 135.675781 20.269531 139.105469 18.75 142.570312 17.3125 C 146.039062 15.875 149.539062 14.523438 153.070312 13.261719 C 156.601562 11.996094 160.164062 10.816406 163.753906 9.726562 C 167.34375 8.636719 170.960938 7.636719 174.601562 6.726562 C 178.238281 5.8125 181.898438 4.992188 185.578125 4.257812 C 189.257812 3.527344 192.953125 2.882812 196.664062 2.332031 C 200.378906 1.78125 204.101562 1.324219 207.832031 0.953125 C 211.566406 0.585938 215.308594 0.3125 219.054688 0.125 C 222.804688 -0.0585938 226.554688 -0.148438 230.304688 -0.148438 C 234.058594 -0.148438 237.804688 -0.0585938 241.554688 0.125 C 245.300781 0.3125 249.042969 0.585938 252.777344 0.953125 C 256.507812 1.324219 260.230469 1.78125 263.945312 2.332031 C 267.65625 2.882812 271.351562 3.527344 275.03125 4.257812 C 278.710938 4.992188 282.371094 5.8125 286.007812 6.726562 C 289.648438 7.636719 293.265625 8.636719 296.855469 9.726562 C 300.445312 10.816406 304.007812 11.996094 307.539062 13.261719 C 311.070312 14.523438 314.570312 15.875 318.039062 17.3125 C 321.503906 18.75 324.933594 20.269531 328.324219 21.875 C 331.714844 23.480469 335.066406 25.167969 338.375 26.9375 C 341.683594 28.707031 344.949219 30.558594 348.167969 32.488281 C 351.382812 34.417969 354.554688 36.425781 357.671875 38.511719 C 360.792969 40.597656 363.859375 42.757812 366.871094 44.996094 C 369.886719 47.230469 372.84375 49.539062 375.742188 51.921875 C 378.644531 54.304688 381.484375 56.753906 384.265625 59.277344 C 387.042969 61.796875 389.761719 64.386719 392.414062 67.039062 C 395.066406 69.695312 397.652344 72.414062 400.171875 75.195312 C 402.691406 77.976562 405.140625 80.816406 407.523438 83.71875 C 409.902344 86.621094 412.210938 89.582031 414.445312 92.597656 C 416.679688 95.613281 418.839844 98.679688 420.925781 101.800781 C 423.007812 104.925781 425.015625 108.09375 426.945312 111.316406 C 428.875 114.535156 430.722656 117.800781 432.492188 121.113281 C 434.257812 124.421875 435.945312 127.773438 437.550781 131.167969 C 439.152344 134.5625 440.675781 137.992188 442.109375 141.460938 C 443.546875 144.929688 444.894531 148.433594 446.160156 151.96875 C 447.421875 155.503906 448.601562 159.066406 449.6875 162.660156 C 450.777344 166.25 451.777344 169.867188 452.691406 173.511719 C 453.601562 177.152344 454.425781 180.8125 455.15625 184.496094 C 455.886719 188.179688 456.527344 191.875 457.078125 195.589844 C 457.628906 199.304688 458.089844 203.027344 458.457031 206.765625 C 458.824219 210.5 459.101562 214.246094 459.285156 217.992188 C 459.46875 221.742188 459.5625 225.496094 459.5625 229.25 Z M 459.5625 229.25 " fill-opacity="1" fill-rule="nonzero"/><path fill="#ffffff" d="M 194.515625 341.226562 C 186.53125 341.226562 178.542969 338.179688 172.503906 332.089844 L 82.507812 242.035156 C 70.328125 229.847656 70.328125 210.121094 82.507812 197.933594 C 94.6875 185.746094 114.402344 185.746094 126.582031 197.933594 L 194.566406 265.960938 L 334.078125 126.363281 C 346.253906 114.175781 365.972656 114.175781 378.152344 126.363281 C 390.328125 138.550781 390.328125 158.277344 378.152344 170.464844 L 216.628906 332.089844 C 210.539062 338.179688 202.550781 341.226562 194.617188 341.226562 Z M 194.515625 341.226562 " fill-opacity="1" fill-rule="nonzero"/><g clip-path="url(#a09f3314d7)"><path fill="#ff0019" d="M 808.753906 582.492188 C 808.753906 586.210938 808.664062 589.925781 808.480469 593.636719 C 808.296875 597.351562 808.023438 601.058594 807.660156 604.757812 C 807.296875 608.457031 806.839844 612.144531 806.296875 615.824219 C 805.75 619.5 805.117188 623.160156 804.390625 626.808594 C 803.664062 630.453125 802.851562 634.078125 801.949219 637.683594 C 801.042969 641.292969 800.054688 644.875 798.972656 648.429688 C 797.894531 651.988281 796.730469 655.515625 795.476562 659.015625 C 794.226562 662.515625 792.886719 665.984375 791.464844 669.417969 C 790.042969 672.855469 788.539062 676.25 786.949219 679.613281 C 785.359375 682.972656 783.6875 686.292969 781.9375 689.570312 C 780.183594 692.847656 778.351562 696.082031 776.441406 699.269531 C 774.53125 702.460938 772.542969 705.601562 770.476562 708.691406 C 768.414062 711.78125 766.273438 714.820312 764.058594 717.804688 C 761.84375 720.792969 759.558594 723.722656 757.199219 726.59375 C 754.84375 729.46875 752.414062 732.28125 749.917969 735.039062 C 747.421875 737.792969 744.859375 740.484375 742.230469 743.113281 C 739.601562 745.742188 736.910156 748.304688 734.15625 750.800781 C 731.402344 753.296875 728.589844 755.722656 725.714844 758.082031 C 722.84375 760.441406 719.914062 762.726562 716.929688 764.941406 C 713.941406 767.15625 710.90625 769.296875 707.8125 771.363281 C 704.722656 773.425781 701.585938 775.414062 698.394531 777.328125 C 695.207031 779.238281 691.976562 781.070312 688.695312 782.820312 C 685.417969 784.574219 682.097656 786.246094 678.738281 787.835938 C 675.378906 789.425781 671.980469 790.929688 668.546875 792.351562 C 665.113281 793.773438 661.648438 795.113281 658.148438 796.363281 C 654.648438 797.617188 651.117188 798.78125 647.5625 799.863281 C 644.003906 800.941406 640.421875 801.933594 636.816406 802.835938 C 633.210938 803.738281 629.585938 804.554688 625.941406 805.277344 C 622.296875 806.003906 618.632812 806.640625 614.957031 807.183594 C 611.28125 807.730469 607.59375 808.183594 603.894531 808.550781 C 600.195312 808.914062 596.488281 809.1875 592.777344 809.371094 C 589.0625 809.550781 585.347656 809.644531 581.632812 809.644531 C 577.914062 809.644531 574.199219 809.550781 570.488281 809.371094 C 566.773438 809.1875 563.070312 808.914062 559.371094 808.550781 C 555.671875 808.183594 551.984375 807.730469 548.304688 807.183594 C 544.628906 806.640625 540.96875 806.003906 537.320312 805.277344 C 533.675781 804.554688 530.050781 803.738281 526.445312 802.835938 C 522.839844 801.933594 519.257812 800.941406 515.703125 799.863281 C 512.144531 798.785156 508.617188 797.617188 505.117188 796.363281 C 501.617188 795.113281 498.148438 793.773438 494.714844 792.351562 C 491.28125 790.929688 487.882812 789.425781 484.523438 787.835938 C 481.164062 786.246094 477.84375 784.574219 474.566406 782.820312 C 471.289062 781.070312 468.054688 779.238281 464.867188 777.328125 C 461.679688 775.414062 458.539062 773.425781 455.449219 771.363281 C 452.359375 769.296875 449.320312 767.15625 446.335938 764.941406 C 443.347656 762.726562 440.417969 760.441406 437.546875 758.082031 C 434.671875 755.722656 431.859375 753.296875 429.105469 750.800781 C 426.351562 748.304688 423.660156 745.742188 421.03125 743.113281 C 418.402344 740.484375 415.839844 737.792969 413.34375 735.039062 C 410.847656 732.28125 408.421875 729.46875 406.0625 726.59375 C 403.703125 723.722656 401.417969 720.792969 399.203125 717.804688 C 396.992188 714.820312 394.851562 711.78125 392.785156 708.691406 C 390.71875 705.601562 388.734375 702.460938 386.820312 699.269531 C 384.910156 696.082031 383.078125 692.847656 381.328125 689.570312 C 379.574219 686.292969 377.902344 682.972656 376.316406 679.613281 C 374.726562 676.25 373.21875 672.855469 371.796875 669.417969 C 370.375 665.984375 369.039062 662.515625 367.785156 659.015625 C 366.53125 655.515625 365.367188 651.988281 364.289062 648.429688 C 363.210938 644.875 362.21875 641.292969 361.316406 637.683594 C 360.414062 634.078125 359.597656 630.453125 358.871094 626.808594 C 358.148438 623.160156 357.511719 619.5 356.96875 615.824219 C 356.421875 612.144531 355.96875 608.457031 355.601562 604.757812 C 355.238281 601.058594 354.964844 597.351562 354.78125 593.636719 C 354.601562 589.925781 354.507812 586.210938 354.507812 582.492188 C 354.507812 578.773438 354.601562 575.058594 354.78125 571.347656 C 354.964844 567.632812 355.238281 563.925781 355.601562 560.226562 C 355.96875 556.527344 356.421875 552.839844 356.96875 549.164062 C 357.511719 545.484375 358.148438 541.824219 358.871094 538.175781 C 359.597656 534.53125 360.414062 530.90625 361.316406 527.300781 C 362.21875 523.691406 363.210938 520.109375 364.289062 516.554688 C 365.367188 512.996094 366.53125 509.46875 367.785156 505.96875 C 369.039062 502.46875 370.375 499 371.796875 495.566406 C 373.21875 492.128906 374.726562 488.734375 376.316406 485.371094 C 377.902344 482.011719 379.574219 478.691406 381.328125 475.414062 C 383.078125 472.136719 384.910156 468.902344 386.820312 465.714844 C 388.734375 462.523438 390.71875 459.386719 392.785156 456.292969 C 394.851562 453.203125 396.992188 450.164062 399.203125 447.179688 C 401.417969 444.191406 403.703125 441.261719 406.0625 438.390625 C 408.421875 435.515625 410.847656 432.703125 413.34375 429.945312 C 415.839844 427.191406 418.402344 424.5 421.03125 421.871094 C 423.660156 419.242188 426.351562 416.679688 429.105469 414.183594 C 431.859375 411.6875 434.671875 409.261719 437.546875 406.902344 C 440.417969 404.542969 443.347656 402.257812 446.335938 400.042969 C 449.320312 397.828125 452.359375 395.6875 455.449219 393.625 C 458.539062 391.558594 461.679688 389.570312 464.867188 387.660156 C 468.054688 385.746094 471.289062 383.914062 474.566406 382.164062 C 477.84375 380.410156 481.164062 378.738281 484.523438 377.148438 C 487.882812 375.5625 491.28125 374.054688 494.714844 372.632812 C 498.148438 371.210938 501.617188 369.871094 505.117188 368.621094 C 508.617188 367.367188 512.144531 366.203125 515.703125 365.121094 C 519.257812 364.042969 522.839844 363.050781 526.445312 362.148438 C 530.050781 361.246094 533.675781 360.429688 537.320312 359.707031 C 540.96875 358.980469 544.628906 358.34375 548.304688 357.800781 C 551.984375 357.253906 555.671875 356.800781 559.371094 356.433594 C 563.070312 356.070312 566.773438 355.796875 570.488281 355.613281 C 574.199219 355.433594 577.914062 355.339844 581.632812 355.339844 C 585.347656 355.339844 589.0625 355.433594 592.777344 355.613281 C 596.488281 355.796875 600.195312 356.070312 603.894531 356.433594 C 607.59375 356.800781 611.28125 357.253906 614.957031 357.800781 C 618.632812 358.34375 622.296875 358.980469 625.941406 359.707031 C 629.585938 360.429688 633.210938 361.246094 636.816406 362.148438 C 640.421875 363.050781 644.003906 364.042969 647.5625 365.121094 C 651.117188 366.203125 654.648438 367.367188 658.148438 368.621094 C 661.648438 369.871094 665.113281 371.210938 668.546875 372.632812 C 671.980469 374.054688 675.378906 375.5625 678.738281 377.148438 C 682.097656 378.738281 685.417969 380.410156 688.695312 382.164062 C 691.976562 383.914062 695.207031 385.746094 698.394531 387.660156 C 701.585938 389.570312 704.722656 391.558594 707.8125 393.625 C 710.90625 395.6875 713.941406 397.828125 716.929688 400.042969 C 719.914062 402.257812 722.84375 404.542969 725.714844 406.902344 C 728.589844 409.261719 731.402344 411.6875 734.15625 414.183594 C 736.910156 416.679688 739.601562 419.242188 742.230469 421.871094 C 744.859375 424.5 747.421875 427.191406 749.917969 429.945312 C 752.414062 432.703125 754.84375 435.515625 757.199219 438.390625 C 759.558594 441.261719 761.84375 444.191406 764.058594 447.179688 C 766.273438 450.164062 768.414062 453.203125 770.476562 456.292969 C 772.542969 459.386719 774.53125 462.523438 776.441406 465.714844 C 778.351562 468.902344 780.183594 472.136719 781.9375 475.414062 C 783.6875 478.691406 785.359375 482.011719 786.949219 485.371094 C 788.539062 488.734375 790.042969 492.128906 791.464844 495.566406 C 792.886719 499 794.226562 502.46875 795.476562 505.96875 C 796.730469 509.46875 797.894531 512.996094 798.972656 516.554688 C 800.054688 520.109375 801.042969 523.691406 801.949219 527.300781 C 802.851562 530.90625 803.664062 534.53125 804.390625 538.175781 C 805.117188 541.824219 805.75 545.484375 806.296875 549.164062 C 806.839844 552.839844 807.296875 556.527344 807.660156 560.226562 C 808.023438 563.925781 808.296875 567.632812 808.480469 571.347656 C 808.664062 575.058594 808.753906 578.773438 808.753906 582.492188 Z M 808.753906 582.492188 " fill-opacity="1" fill-rule="nonzero"/></g><path fill="#ffffff" d="M 487.527344 707.515625 C 479.617188 707.515625 471.703125 704.5 465.722656 698.464844 C 453.65625 686.398438 453.65625 666.863281 465.722656 654.796875 L 653.976562 466.519531 C 666.042969 454.449219 685.574219 454.449219 697.640625 466.519531 C 709.707031 478.585938 709.707031 498.121094 697.640625 510.1875 L 509.386719 698.464844 C 503.351562 704.5 495.441406 707.515625 487.578125 707.515625 Z M 487.527344 707.515625 " fill-opacity="1" fill-rule="nonzero"/><path fill="#ffffff" d="M 675.785156 707.515625 C 667.871094 707.515625 659.960938 704.5 653.976562 698.464844 L 465.722656 510.1875 C 453.65625 498.121094 453.65625 478.585938 465.722656 466.519531 C 477.785156 454.449219 497.320312 454.449219 509.386719 466.519531 L 697.640625 654.796875 C 709.707031 666.863281 709.707031 686.398438 697.640625 698.464844 C 691.609375 704.5 683.695312 707.515625 675.832031 707.515625 Z M 675.785156 707.515625 " fill-opacity="1" fill-rule="nonzero"/></svg>