<svg xmlns="http://www.w3.org/2000/svg" xmlns:xlink="http://www.w3.org/1999/xlink" width="1080" zoomAndPan="magnify" viewBox="0 0 810 809.999993" height="1080" preserveAspectRatio="xMidYMid meet" version="1.0"><defs><clipPath id="a7efcb4dc3"><path d="M 0 50.625 L 810 50.625 L 810 759.375 L 0 759.375 Z M 0 50.625 " clip-rule="nonzero"/></clipPath></defs><g clip-path="url(#a7efcb4dc3)"><path fill="#d25c7f" d="M 778.367188 759.117188 C 778.234375 759.128906 778.039062 759.128906 777.925781 759.117188 L 32.738281 759.117188 C 21.375 759.117188 10.902344 753.074219 5.21875 743.257812 C -0.429688 733.441406 -0.429688 721.308594 5.21875 711.488281 L 377.785156 66.144531 C 383.480469 56.304688 393.953125 50.273438 405.328125 50.273438 C 416.660156 50.273438 427.152344 56.304688 432.8125 66.144531 L 803.039062 707.390625 C 807.457031 712.832031 810.113281 719.804688 810.113281 727.375 C 810.125 744.90625 795.890625 759.117188 778.367188 759.117188 Z M 104.191406 694.25 C 197.765625 694.25 701.785156 694.25 709.976562 694.25 C 718.992188 694.25 714.371094 685.335938 714.371094 685.335938 L 408.050781 154.78125 C 408.050781 154.78125 404.480469 148.894531 400.921875 154.566406 C 397.65625 159.796875 135.890625 613.554688 94.738281 684.851562 C 91.234375 690.953125 94.601562 694.25 104.191406 694.25 Z M 104.191406 694.25 " fill-opacity="1" fill-rule="nonzero"/></g><path fill="#d25c7f" d="M 404.402344 511.757812 C 387.003906 511.757812 372.894531 497.667969 372.894531 480.261719 L 365.167969 344.796875 C 365.167969 321.640625 386.992188 305.902344 404.390625 305.902344 C 421.808594 305.902344 442.054688 321.648438 442.054688 342.628906 L 435.875 480.261719 C 435.898438 497.667969 421.820312 511.757812 404.402344 511.757812 Z M 404.402344 511.757812 " fill-opacity="1" fill-rule="nonzero"/><path fill="#d25c7f" d="M 405.519531 550.019531 C 381.433594 550.019531 361.9375 569.585938 361.9375 593.671875 C 361.9375 617.769531 381.433594 637.300781 405.519531 637.300781 C 429.660156 637.300781 449.183594 617.769531 449.183594 593.671875 C 449.183594 569.597656 429.660156 550.019531 405.519531 550.019531 Z M 405.519531 550.019531 " fill-opacity="1" fill-rule="nonzero"/></svg>