<svg xmlns="http://www.w3.org/2000/svg" xmlns:xlink="http://www.w3.org/1999/xlink" width="1080" zoomAndPan="magnify" viewBox="0 0 810 809.999993" height="1080" preserveAspectRatio="xMidYMid meet" version="1.0"><defs><clipPath id="568ad12ec1"><path d="M 0 129 L 810 129 L 810 680.863281 L 0 680.863281 Z M 0 129 " clip-rule="nonzero"/></clipPath><clipPath id="7c171e3127"><rect x="0" width="810" y="0" height="552"/></clipPath></defs><g clip-path="url(#568ad12ec1)"><g transform="matrix(1, 0, 0, 1, 0, 129)"><g clip-path="url(#7c171e3127)"><path fill="#475dd7" d="M 59.492188 216.355469 L 606.117188 216.355469 C 606.117188 216.355469 490.960938 102.03125 487.921875 98.121094 C 480.019531 87.992188 475.277344 75.292969 475.277344 61.464844 C 475.277344 46.1875 481.046875 32.304688 490.476562 21.710938 L 495.316406 16.871094 C 505.890625 7.441406 519.792969 1.648438 535.070312 1.648438 C 550.773438 1.648438 565.046875 7.789062 575.714844 17.703125 C 575.714844 17.703125 796.269531 237.910156 797.394531 239.363281 C 805.199219 249.46875 809.882812 262.074219 809.882812 275.84375 C 809.882812 289.574219 805.199219 302.199219 797.414062 312.285156 C 794.257812 316.371094 572.964844 536.714844 572.964844 536.714844 C 562.703125 545.039062 549.632812 550.035156 535.382812 550.035156 C 502.367188 550.035156 475.585938 523.273438 475.585938 490.261719 C 475.585938 475.777344 480.734375 462.492188 489.292969 452.152344 L 606.117188 335.328125 L 59.492188 335.328125 C 26.632812 335.328125 0.0078125 308.683594 0.0078125 275.84375 C 0.0078125 242.984375 26.632812 216.355469 59.492188 216.355469 " fill-opacity="1" fill-rule="nonzero"/></g></g></g></svg>