<svg xmlns="http://www.w3.org/2000/svg" xmlns:xlink="http://www.w3.org/1999/xlink" width="1080" zoomAndPan="magnify" viewBox="0 0 810 809.999993" height="1080" preserveAspectRatio="xMidYMid meet" version="1.0"><path fill="#475dd7" d="M 750.507812 345.355469 L 203.882812 345.355469 C 203.882812 345.355469 319.039062 231.03125 322.078125 227.121094 C 329.980469 216.992188 334.722656 204.292969 334.722656 190.464844 C 334.722656 175.1875 328.953125 161.304688 319.523438 150.710938 L 314.683594 145.871094 C 304.109375 136.441406 290.207031 130.648438 274.929688 130.648438 C 259.226562 130.648438 244.953125 136.789062 234.285156 146.703125 C 234.285156 146.703125 13.730469 366.910156 12.605469 368.363281 C 4.800781 378.46875 0.117188 391.074219 0.117188 404.84375 C 0.117188 418.574219 4.800781 431.199219 12.585938 441.285156 C 15.742188 445.371094 237.035156 665.714844 237.035156 665.714844 C 247.296875 674.039062 260.367188 679.035156 274.617188 679.035156 C 307.632812 679.035156 334.414062 652.273438 334.414062 619.261719 C 334.414062 604.777344 329.265625 591.492188 320.703125 581.152344 L 203.882812 464.328125 L 750.507812 464.328125 C 783.367188 464.328125 809.992188 437.683594 809.992188 404.84375 C 809.992188 371.984375 783.367188 345.355469 750.507812 345.355469 " fill-opacity="1" fill-rule="nonzero"/></svg>