<svg xmlns="http://www.w3.org/2000/svg" xmlns:xlink="http://www.w3.org/1999/xlink" width="1080" zoomAndPan="magnify" viewBox="0 0 810 809.999993" height="1080" preserveAspectRatio="xMidYMid meet" version="1.0"><path fill="#475dd7" d="M 809.914062 404.914062 C 809.914062 411.542969 809.753906 418.167969 809.429688 424.789062 C 809.101562 431.40625 808.613281 438.015625 807.964844 444.613281 C 807.316406 451.207031 806.503906 457.785156 805.53125 464.339844 C 804.558594 470.898438 803.425781 477.425781 802.132812 483.925781 C 800.839844 490.429688 799.386719 496.894531 797.777344 503.324219 C 796.167969 509.753906 794.402344 516.136719 792.476562 522.480469 C 790.550781 528.824219 788.472656 535.117188 786.242188 541.355469 C 784.007812 547.597656 781.625 553.777344 779.085938 559.902344 C 776.550781 566.027344 773.863281 572.082031 771.03125 578.074219 C 768.195312 584.066406 765.21875 589.984375 762.09375 595.832031 C 758.96875 601.675781 755.703125 607.441406 752.296875 613.128906 C 748.886719 618.8125 745.34375 624.410156 741.660156 629.921875 C 737.976562 635.433594 734.164062 640.851562 730.214844 646.171875 C 726.265625 651.496094 722.191406 656.722656 717.984375 661.84375 C 713.78125 666.96875 709.453125 671.984375 705 676.898438 C 700.550781 681.808594 695.980469 686.605469 691.292969 691.292969 C 686.605469 695.980469 681.808594 700.550781 676.898438 705 C 671.984375 709.453125 666.96875 713.78125 661.84375 717.984375 C 656.722656 722.191406 651.496094 726.265625 646.171875 730.214844 C 640.851562 734.164062 635.433594 737.976562 629.921875 741.660156 C 624.410156 745.34375 618.8125 748.886719 613.128906 752.296875 C 607.441406 755.703125 601.675781 758.96875 595.832031 762.09375 C 589.984375 765.21875 584.066406 768.195312 578.074219 771.03125 C 572.082031 773.863281 566.027344 776.550781 559.902344 779.085938 C 553.777344 781.625 547.597656 784.007812 541.355469 786.242188 C 535.117188 788.472656 528.824219 790.550781 522.480469 792.476562 C 516.136719 794.402344 509.753906 796.167969 503.324219 797.777344 C 496.894531 799.390625 490.429688 800.839844 483.925781 802.132812 C 477.425781 803.425781 470.898438 804.558594 464.339844 805.53125 C 457.785156 806.503906 451.207031 807.316406 444.613281 807.964844 C 438.015625 808.613281 431.40625 809.101562 424.789062 809.425781 C 418.167969 809.753906 411.542969 809.914062 404.914062 809.914062 C 398.289062 809.914062 391.664062 809.753906 385.042969 809.429688 C 378.421875 809.101562 371.816406 808.613281 365.21875 807.964844 C 358.621094 807.316406 352.046875 806.503906 345.488281 805.53125 C 338.933594 804.558594 332.40625 803.425781 325.902344 802.132812 C 319.402344 800.839844 312.9375 799.386719 306.507812 797.777344 C 300.078125 796.167969 293.691406 794.402344 287.351562 792.476562 C 281.007812 790.550781 274.714844 788.472656 268.476562 786.242188 C 262.234375 784.007812 256.050781 781.625 249.929688 779.085938 C 243.804688 776.550781 237.746094 773.863281 231.753906 771.03125 C 225.765625 768.195312 219.84375 765.21875 214 762.09375 C 208.15625 758.96875 202.390625 755.703125 196.703125 752.296875 C 191.019531 748.886719 185.421875 745.34375 179.910156 741.660156 C 174.398438 737.976562 168.980469 734.164062 163.65625 730.214844 C 158.332031 726.265625 153.109375 722.191406 147.988281 717.984375 C 142.863281 713.78125 137.84375 709.453125 132.933594 705 C 128.023438 700.550781 123.222656 695.980469 118.539062 691.292969 C 113.851562 686.605469 109.28125 681.808594 104.832031 676.898438 C 100.378906 671.984375 96.050781 666.96875 91.847656 661.84375 C 87.640625 656.722656 83.566406 651.496094 79.617188 646.171875 C 75.667969 640.851562 71.851562 635.433594 68.171875 629.921875 C 64.488281 624.410156 60.941406 618.8125 57.535156 613.128906 C 54.128906 607.441406 50.863281 601.675781 47.738281 595.832031 C 44.613281 589.984375 41.632812 584.066406 38.800781 578.074219 C 35.964844 572.082031 33.28125 566.027344 30.746094 559.902344 C 28.207031 553.777344 25.824219 547.597656 23.589844 541.355469 C 21.355469 535.117188 19.277344 528.824219 17.355469 522.480469 C 15.429688 516.136719 13.664062 509.753906 12.054688 503.324219 C 10.441406 496.894531 8.992188 490.429688 7.699219 483.925781 C 6.40625 477.425781 5.273438 470.898438 4.300781 464.339844 C 3.328125 457.785156 2.515625 451.207031 1.867188 444.613281 C 1.214844 438.015625 0.730469 431.40625 0.402344 424.789062 C 0.078125 418.167969 -0.0859375 411.542969 -0.0859375 404.914062 C -0.0859375 398.289062 0.078125 391.664062 0.402344 385.042969 C 0.730469 378.421875 1.214844 371.816406 1.867188 365.21875 C 2.515625 358.621094 3.328125 352.046875 4.300781 345.488281 C 5.273438 338.933594 6.40625 332.40625 7.699219 325.902344 C 8.992188 319.402344 10.441406 312.9375 12.054688 306.507812 C 13.664062 300.078125 15.429688 293.691406 17.355469 287.351562 C 19.277344 281.007812 21.355469 274.714844 23.589844 268.476562 C 25.824219 262.234375 28.207031 256.050781 30.746094 249.929688 C 33.28125 243.804688 35.964844 237.746094 38.800781 231.753906 C 41.632812 225.765625 44.613281 219.84375 47.738281 214 C 50.863281 208.15625 54.128906 202.390625 57.535156 196.703125 C 60.941406 191.019531 64.488281 185.421875 68.171875 179.910156 C 71.851562 174.398438 75.667969 168.980469 79.617188 163.65625 C 83.566406 158.332031 87.640625 153.109375 91.847656 147.988281 C 96.050781 142.863281 100.378906 137.84375 104.832031 132.933594 C 109.28125 128.023438 113.851562 123.222656 118.539062 118.539062 C 123.222656 113.851562 128.023438 109.28125 132.933594 104.832031 C 137.84375 100.378906 142.863281 96.050781 147.988281 91.847656 C 153.109375 87.640625 158.332031 83.566406 163.65625 79.617188 C 168.980469 75.667969 174.398438 71.851562 179.910156 68.171875 C 185.421875 64.488281 191.019531 60.941406 196.703125 57.535156 C 202.390625 54.128906 208.15625 50.863281 214 47.738281 C 219.84375 44.613281 225.765625 41.632812 231.753906 38.800781 C 237.746094 35.964844 243.804688 33.28125 249.929688 30.746094 C 256.050781 28.207031 262.234375 25.824219 268.476562 23.589844 C 274.714844 21.355469 281.007812 19.277344 287.351562 17.355469 C 293.691406 15.429688 300.078125 13.664062 306.507812 12.054688 C 312.9375 10.441406 319.402344 8.992188 325.902344 7.699219 C 332.40625 6.40625 338.933594 5.273438 345.488281 4.300781 C 352.046875 3.328125 358.621094 2.515625 365.21875 1.867188 C 371.816406 1.214844 378.421875 0.730469 385.042969 0.402344 C 391.664062 0.078125 398.289062 -0.0859375 404.914062 -0.0859375 C 411.542969 -0.0859375 418.167969 0.078125 424.789062 0.402344 C 431.40625 0.730469 438.015625 1.214844 444.613281 1.867188 C 451.207031 2.515625 457.785156 3.328125 464.339844 4.300781 C 470.898438 5.273438 477.425781 6.40625 483.925781 7.699219 C 490.429688 8.992188 496.894531 10.441406 503.324219 12.054688 C 509.753906 13.664062 516.136719 15.429688 522.480469 17.355469 C 528.824219 19.277344 535.117188 21.355469 541.355469 23.589844 C 547.597656 25.824219 553.777344 28.207031 559.902344 30.746094 C 566.027344 33.28125 572.082031 35.964844 578.074219 38.800781 C 584.066406 41.632812 589.984375 44.613281 595.832031 47.738281 C 601.675781 50.863281 607.441406 54.128906 613.128906 57.535156 C 618.8125 60.941406 624.410156 64.488281 629.921875 68.171875 C 635.433594 71.851562 640.851562 75.667969 646.171875 79.617188 C 651.496094 83.566406 656.722656 87.640625 661.84375 91.847656 C 666.96875 96.050781 671.984375 100.378906 676.898438 104.832031 C 681.808594 109.28125 686.605469 113.851562 691.292969 118.539062 C 695.980469 123.222656 700.550781 128.023438 705 132.933594 C 709.453125 137.84375 713.78125 142.863281 717.984375 147.988281 C 722.191406 153.109375 726.265625 158.332031 730.214844 163.65625 C 734.164062 168.980469 737.976562 174.398438 741.660156 179.910156 C 745.34375 185.421875 748.886719 191.019531 752.296875 196.703125 C 755.703125 202.390625 758.96875 208.15625 762.09375 214 C 765.21875 219.84375 768.195312 225.765625 771.03125 231.753906 C 773.863281 237.746094 776.550781 243.804688 779.085938 249.929688 C 781.625 256.050781 784.007812 262.234375 786.242188 268.476562 C 788.472656 274.714844 790.550781 281.007812 792.476562 287.351562 C 794.402344 293.691406 796.167969 300.078125 797.777344 306.507812 C 799.390625 312.9375 800.839844 319.402344 802.132812 325.902344 C 803.425781 332.40625 804.558594 338.933594 805.53125 345.488281 C 806.503906 352.046875 807.316406 358.621094 807.964844 365.21875 C 808.613281 371.816406 809.101562 378.421875 809.429688 385.042969 C 809.753906 391.664062 809.914062 398.289062 809.914062 404.914062 Z M 809.914062 404.914062 " fill-opacity="1" fill-rule="nonzero"/><path fill="#ffffff" d="M 575.71875 613.734375 L 575.71875 159.917969 C 575.71875 152.140625 569.34375 145.769531 561.570312 145.769531 L 208.410156 145.769531 C 200.632812 145.769531 194.261719 152.140625 194.261719 159.917969 L 194.261719 613.839844 C 194.261719 621.617188 200.632812 627.988281 208.410156 627.988281 L 561.570312 627.988281 C 569.34375 627.988281 575.71875 621.617188 575.71875 613.734375 Z M 232.710938 203.332031 C 232.710938 199.445312 235.839844 196.207031 239.835938 196.207031 L 338.765625 196.207031 C 342.652344 196.207031 345.894531 199.335938 345.894531 203.332031 L 345.894531 347.945312 C 345.894531 351.832031 342.761719 355.074219 338.765625 355.074219 L 239.835938 355.074219 C 235.949219 355.074219 232.710938 351.941406 232.710938 347.945312 Z M 379.699219 577.445312 L 239.835938 577.445312 C 235.949219 577.445312 232.710938 574.3125 232.710938 570.316406 C 232.710938 566.429688 235.839844 563.191406 239.835938 563.191406 L 379.699219 563.191406 C 383.585938 563.191406 386.824219 566.320312 386.824219 570.316406 C 386.71875 574.207031 383.585938 577.445312 379.699219 577.445312 Z M 379.699219 516.316406 L 239.835938 516.316406 C 235.949219 516.316406 232.710938 513.1875 232.710938 509.191406 C 232.710938 505.300781 235.839844 502.0625 239.835938 502.0625 L 379.699219 502.0625 C 383.585938 502.0625 386.824219 505.195312 386.824219 509.191406 C 386.71875 513.078125 383.585938 516.316406 379.699219 516.316406 Z M 379.699219 455.082031 L 239.835938 455.082031 C 235.949219 455.082031 232.710938 451.949219 232.710938 447.953125 C 232.710938 443.957031 235.839844 440.824219 239.835938 440.824219 L 379.699219 440.824219 C 383.585938 440.824219 386.824219 443.957031 386.824219 447.953125 C 386.824219 451.949219 383.585938 455.082031 379.699219 455.082031 Z M 537.269531 570.316406 C 537.269531 574.207031 534.136719 577.445312 530.140625 577.445312 L 431.214844 577.445312 C 427.324219 577.445312 424.085938 574.3125 424.085938 570.316406 L 424.085938 425.707031 C 424.085938 421.816406 427.21875 418.578125 431.214844 418.578125 L 530.140625 418.578125 C 534.03125 418.578125 537.269531 421.710938 537.269531 425.707031 Z M 530.140625 393.953125 L 239.835938 393.953125 C 235.949219 393.953125 232.710938 390.820312 232.710938 386.824219 C 232.710938 382.9375 235.839844 379.699219 239.835938 379.699219 L 530.25 379.699219 C 534.136719 379.699219 537.378906 382.828125 537.378906 386.824219 C 537.269531 390.714844 534.136719 393.953125 530.140625 393.953125 Z M 530.140625 332.824219 L 384.449219 332.824219 C 380.5625 332.824219 377.320312 329.695312 377.320312 325.699219 C 377.320312 321.808594 380.453125 318.570312 384.449219 318.570312 L 530.140625 318.570312 C 534.03125 318.570312 537.269531 321.703125 537.269531 325.699219 C 537.269531 329.585938 534.136719 332.824219 530.140625 332.824219 Z M 530.140625 271.589844 L 384.449219 271.589844 C 380.5625 271.589844 377.320312 268.457031 377.320312 264.460938 C 377.320312 260.574219 380.453125 257.332031 384.449219 257.332031 L 530.140625 257.332031 C 534.03125 257.332031 537.269531 260.464844 537.269531 264.460938 C 537.269531 268.457031 534.136719 271.589844 530.140625 271.589844 Z M 530.140625 210.460938 L 384.449219 210.460938 C 380.5625 210.460938 377.320312 207.328125 377.320312 203.332031 C 377.320312 199.445312 380.453125 196.207031 384.449219 196.207031 L 530.140625 196.207031 C 534.03125 196.207031 537.269531 199.335938 537.269531 203.332031 C 537.269531 207.328125 534.136719 210.460938 530.140625 210.460938 Z M 530.140625 210.460938 " fill-opacity="1" fill-rule="nonzero"/><path fill="#ffffff" d="M 246.859375 210.460938 L 331.53125 210.460938 L 331.53125 340.925781 L 246.859375 340.925781 Z M 246.859375 210.460938 " fill-opacity="1" fill-rule="nonzero"/><path fill="#ffffff" d="M 438.339844 432.726562 L 523.011719 432.726562 L 523.011719 563.191406 L 438.339844 563.191406 Z M 438.339844 432.726562 " fill-opacity="1" fill-rule="nonzero"/><path fill="#ffffff" d="M 601.421875 181.839844 L 589.867188 181.839844 L 589.867188 613.734375 C 589.867188 629.394531 577.121094 642.136719 561.460938 642.136719 L 234.113281 642.136719 L 234.113281 649.914062 C 234.113281 657.691406 240.484375 664.0625 248.261719 664.0625 L 601.421875 664.0625 C 609.199219 664.0625 615.570312 657.691406 615.570312 649.914062 L 615.570312 196.097656 C 615.570312 188.214844 609.199219 181.839844 601.421875 181.839844 Z M 601.421875 181.839844 " fill-opacity="1" fill-rule="nonzero"/></svg>