<svg xmlns="http://www.w3.org/2000/svg" xmlns:xlink="http://www.w3.org/1999/xlink" width="1080" zoomAndPan="magnify" viewBox="0 0 810 809.999993" height="1080" preserveAspectRatio="xMidYMid meet" version="1.0"><path fill="#475dd7" d="M 347.707031 58.78125 C 346.066406 58.15625 344.390625 57.65625 342.675781 57.285156 C 340.964844 56.910156 339.230469 56.667969 337.480469 56.554688 C 335.730469 56.441406 333.980469 56.460938 332.234375 56.613281 C 330.488281 56.761719 328.761719 57.042969 327.054688 57.453125 C 325.351562 57.863281 323.683594 58.402344 322.0625 59.0625 C 320.4375 59.722656 318.871094 60.503906 317.363281 61.402344 C 315.855469 62.296875 314.425781 63.304688 313.070312 64.417969 C 311.714844 65.527344 310.449219 66.738281 309.277344 68.039062 L 162.371094 231.191406 L 38.171875 231.191406 C 37.03125 231.191406 35.886719 231.246094 34.75 231.359375 C 33.609375 231.472656 32.480469 231.640625 31.359375 231.863281 C 30.234375 232.085938 29.128906 232.363281 28.03125 232.695312 C 26.9375 233.027344 25.863281 233.414062 24.804688 233.851562 C 23.746094 234.289062 22.714844 234.777344 21.707031 235.316406 C 20.695312 235.855469 19.714844 236.441406 18.765625 237.078125 C 17.8125 237.714844 16.894531 238.394531 16.011719 239.121094 C 15.125 239.847656 14.28125 240.613281 13.46875 241.421875 C 12.660156 242.234375 11.894531 243.078125 11.167969 243.964844 C 10.441406 244.847656 9.761719 245.765625 9.125 246.71875 C 8.488281 247.667969 7.902344 248.648438 7.363281 249.65625 C 6.824219 250.667969 6.335938 251.699219 5.898438 252.757812 C 5.460938 253.816406 5.074219 254.890625 4.742188 255.984375 C 4.410156 257.082031 4.132812 258.1875 3.910156 259.3125 C 3.6875 260.433594 3.519531 261.5625 3.40625 262.703125 C 3.292969 263.839844 3.238281 264.984375 3.238281 266.125 L 3.238281 563.082031 C 3.238281 564.226562 3.292969 565.367188 3.40625 566.503906 C 3.519531 567.644531 3.6875 568.773438 3.910156 569.898438 C 4.132812 571.019531 4.410156 572.128906 4.742188 573.222656 C 5.074219 574.316406 5.460938 575.394531 5.898438 576.449219 C 6.335938 577.507812 6.824219 578.539062 7.363281 579.550781 C 7.902344 580.558594 8.488281 581.539062 9.125 582.492188 C 9.761719 583.441406 10.441406 584.359375 11.167969 585.246094 C 11.894531 586.128906 12.660156 586.976562 13.46875 587.785156 C 14.28125 588.59375 15.125 589.359375 16.011719 590.085938 C 16.894531 590.8125 17.8125 591.492188 18.765625 592.128906 C 19.714844 592.765625 20.695312 593.351562 21.707031 593.890625 C 22.714844 594.429688 23.746094 594.921875 24.804688 595.359375 C 25.863281 595.796875 26.9375 596.179688 28.03125 596.511719 C 29.128906 596.84375 30.234375 597.121094 31.359375 597.347656 C 32.480469 597.570312 33.609375 597.738281 34.75 597.847656 C 35.886719 597.960938 37.03125 598.015625 38.171875 598.015625 L 163.417969 598.015625 L 310.324219 744.921875 C 311.535156 746.144531 312.832031 747.269531 314.210938 748.300781 C 315.589844 749.332031 317.035156 750.257812 318.550781 751.074219 C 320.066406 751.890625 321.636719 752.589844 323.253906 753.175781 C 324.875 753.761719 326.527344 754.226562 328.214844 754.566406 C 329.902344 754.90625 331.605469 755.121094 333.324219 755.210938 C 335.042969 755.296875 336.761719 755.261719 338.472656 755.097656 C 340.1875 754.929688 341.878906 754.640625 343.550781 754.226562 C 345.222656 753.8125 346.851562 753.273438 348.445312 752.617188 C 350.035156 751.964844 351.570312 751.191406 353.046875 750.308594 C 354.527344 749.425781 355.929688 748.441406 357.261719 747.347656 C 358.59375 746.257812 359.839844 745.074219 360.996094 743.800781 C 362.152344 742.527344 363.210938 741.171875 364.167969 739.742188 C 365.125 738.3125 365.972656 736.816406 366.707031 735.261719 C 367.445312 733.707031 368.0625 732.101562 368.5625 730.457031 C 369.0625 728.808594 369.4375 727.132812 369.6875 725.429688 C 369.941406 723.726562 370.066406 722.015625 370.0625 720.292969 L 370.0625 91.449219 C 370.066406 89.691406 369.941406 87.945312 369.679688 86.207031 C 369.417969 84.46875 369.03125 82.761719 368.511719 81.082031 C 367.996094 79.402344 367.355469 77.773438 366.589844 76.191406 C 365.828125 74.609375 364.949219 73.09375 363.957031 71.644531 C 362.964844 70.191406 361.871094 68.824219 360.671875 67.542969 C 359.472656 66.257812 358.183594 65.070312 356.808594 63.980469 C 355.429688 62.890625 353.976562 61.910156 352.453125 61.039062 C 350.925781 60.167969 349.34375 59.414062 347.707031 58.78125 Z M 300.191406 635.921875 L 202.546875 538.277344 C 200.925781 536.667969 199.164062 535.234375 197.257812 533.96875 C 195.355469 532.707031 193.347656 531.640625 191.234375 530.773438 C 189.121094 529.902344 186.945312 529.246094 184.703125 528.804688 C 182.464844 528.363281 180.203125 528.144531 177.917969 528.144531 L 73.109375 528.144531 L 73.109375 301.0625 L 177.917969 301.0625 C 180.371094 301.070312 182.796875 300.820312 185.195312 300.316406 C 187.59375 299.8125 189.917969 299.0625 192.15625 298.070312 C 194.398438 297.078125 196.515625 295.859375 198.5 294.421875 C 200.488281 292.984375 202.300781 291.355469 203.945312 289.535156 L 300.191406 182.457031 L 300.191406 636.621094 Z M 300.191406 635.921875 " fill-opacity="1" fill-rule="nonzero"/><path fill="#475dd7" d="M 571.644531 161.320312 C 570.832031 160.511719 569.980469 159.746094 569.09375 159.019531 C 568.207031 158.296875 567.285156 157.617188 566.332031 156.984375 C 565.378906 156.351562 564.394531 155.765625 563.382812 155.226562 C 562.371094 154.691406 561.335938 154.203125 560.277344 153.769531 C 559.214844 153.332031 558.136719 152.949219 557.042969 152.621094 C 555.945312 152.292969 554.832031 152.015625 553.710938 151.796875 C 552.585938 151.578125 551.453125 151.414062 550.3125 151.304688 C 549.171875 151.195312 548.03125 151.140625 546.882812 151.144531 C 545.738281 151.148438 544.597656 151.210938 543.457031 151.324219 C 542.316406 151.441406 541.183594 151.613281 540.0625 151.839844 C 538.941406 152.066406 537.832031 152.347656 536.734375 152.683594 C 535.640625 153.019531 534.566406 153.410156 533.507812 153.851562 C 532.449219 154.292969 531.417969 154.785156 530.410156 155.328125 C 529.402344 155.871094 528.421875 156.464844 527.472656 157.101562 C 526.523438 157.742188 525.605469 158.429688 524.722656 159.15625 C 523.839844 159.886719 522.996094 160.660156 522.1875 161.472656 C 521.378906 162.285156 520.613281 163.136719 519.890625 164.023438 C 519.167969 164.910156 518.488281 165.832031 517.855469 166.789062 C 517.222656 167.742188 516.640625 168.726562 516.101562 169.738281 C 515.566406 170.75 515.082031 171.785156 514.648438 172.847656 C 514.210938 173.90625 513.832031 174.984375 513.503906 176.082031 C 513.175781 177.179688 512.902344 178.289062 512.679688 179.414062 C 512.460938 180.539062 512.300781 181.671875 512.191406 182.8125 C 512.082031 183.953125 512.03125 185.09375 512.035156 186.242188 C 512.039062 187.386719 512.101562 188.527344 512.21875 189.667969 C 512.335938 190.808594 512.507812 191.9375 512.734375 193.0625 C 512.964844 194.183594 513.246094 195.292969 513.582031 196.386719 C 513.921875 197.480469 514.3125 198.558594 514.753906 199.613281 C 515.195312 200.671875 515.691406 201.703125 516.234375 202.710938 C 516.777344 203.71875 517.371094 204.699219 518.011719 205.648438 C 518.652344 206.597656 519.335938 207.511719 520.066406 208.394531 C 520.796875 209.277344 521.570312 210.121094 522.382812 210.929688 C 525.609375 214.121094 528.75 217.390625 531.8125 220.738281 C 534.871094 224.082031 537.851562 227.503906 540.742188 231 C 543.636719 234.492188 546.4375 238.054688 549.15625 241.6875 C 551.871094 245.320312 554.496094 249.019531 557.03125 252.78125 C 559.566406 256.542969 562.003906 260.367188 564.347656 264.25 C 566.695312 268.132812 568.941406 272.070312 571.09375 276.066406 C 573.242188 280.058594 575.292969 284.105469 577.242188 288.199219 C 579.195312 292.292969 581.042969 296.4375 582.789062 300.621094 C 584.535156 304.808594 586.175781 309.035156 587.714844 313.304688 C 589.25 317.570312 590.683594 321.875 592.007812 326.210938 C 593.332031 330.550781 594.546875 334.917969 595.65625 339.316406 C 596.765625 343.714844 597.765625 348.140625 598.65625 352.585938 C 599.546875 357.035156 600.324219 361.503906 600.996094 365.988281 C 601.664062 370.476562 602.222656 374.976562 602.671875 379.488281 C 603.117188 384.003906 603.453125 388.527344 603.679688 393.054688 C 603.902344 397.585938 604.015625 402.121094 604.015625 406.65625 C 604.015625 411.191406 603.902344 415.726562 603.679688 420.257812 C 603.453125 424.785156 603.117188 429.308594 602.671875 433.824219 C 602.222656 438.335938 601.664062 442.835938 600.996094 447.324219 C 600.324219 451.808594 599.546875 456.277344 598.65625 460.726562 C 597.765625 465.171875 596.765625 469.597656 595.65625 473.996094 C 594.546875 478.394531 593.332031 482.761719 592.007812 487.101562 C 590.683594 491.4375 589.25 495.742188 587.714844 500.007812 C 586.175781 504.277344 584.535156 508.503906 582.789062 512.691406 C 581.042969 516.875 579.195312 521.019531 577.242188 525.113281 C 575.292969 529.207031 573.242188 533.253906 571.09375 537.246094 C 568.941406 541.242188 566.695312 545.179688 564.347656 549.0625 C 562.003906 552.945312 559.566406 556.769531 557.03125 560.53125 C 554.496094 564.292969 551.871094 567.992188 549.15625 571.625 C 546.4375 575.253906 543.636719 578.820312 540.742188 582.3125 C 537.851562 585.808594 534.871094 589.226562 531.8125 592.574219 C 528.75 595.921875 525.609375 599.191406 522.382812 602.382812 C 521.351562 603.125 520.363281 603.921875 519.414062 604.773438 C 518.46875 605.621094 517.574219 606.523438 516.726562 607.46875 C 515.878906 608.417969 515.082031 609.410156 514.34375 610.445312 C 513.605469 611.480469 512.921875 612.550781 512.300781 613.660156 C 511.679688 614.769531 511.117188 615.910156 510.621094 617.078125 C 510.121094 618.25 509.691406 619.445312 509.320312 620.660156 C 508.953125 621.878906 508.652344 623.113281 508.421875 624.363281 C 508.1875 625.613281 508.023438 626.875 507.929688 628.140625 C 507.835938 629.410156 507.808594 630.679688 507.851562 631.953125 C 507.894531 633.222656 508.007812 634.488281 508.1875 635.746094 C 508.371094 637.003906 508.621094 638.25 508.9375 639.480469 C 509.253906 640.714844 509.640625 641.925781 510.089844 643.113281 C 510.539062 644.304688 511.050781 645.464844 511.628906 646.597656 C 512.207031 647.734375 512.84375 648.832031 513.539062 649.894531 C 514.238281 650.960938 514.988281 651.984375 515.796875 652.964844 C 516.605469 653.945312 517.464844 654.882812 518.375 655.769531 C 519.285156 656.65625 520.242188 657.492188 521.246094 658.277344 C 522.246094 659.058594 523.289062 659.789062 524.371094 660.457031 C 525.449219 661.125 526.566406 661.734375 527.714844 662.285156 C 528.859375 662.832031 530.035156 663.316406 531.234375 663.734375 C 532.4375 664.15625 533.65625 664.507812 534.894531 664.796875 C 536.136719 665.082031 537.386719 665.300781 538.648438 665.449219 C 539.910156 665.601562 541.179688 665.679688 542.453125 665.691406 C 543.722656 665.703125 544.992188 665.644531 546.257812 665.519531 C 547.523438 665.390625 548.777344 665.195312 550.023438 664.933594 C 551.265625 664.667969 552.492188 664.335938 553.699219 663.9375 C 554.910156 663.539062 556.089844 663.078125 557.25 662.550781 C 558.40625 662.023438 559.53125 661.433594 560.625 660.785156 C 561.71875 660.132812 562.773438 659.425781 563.789062 658.660156 C 564.804688 657.894531 565.777344 657.078125 566.703125 656.207031 C 567.628906 655.335938 568.503906 654.414062 569.332031 653.449219 C 570.15625 652.480469 570.929688 651.472656 571.644531 650.421875 C 575.652344 646.421875 579.5625 642.328125 583.371094 638.136719 C 587.179688 633.949219 590.882812 629.667969 594.480469 625.292969 C 598.078125 620.921875 601.566406 616.464844 604.945312 611.917969 C 608.324219 607.375 611.589844 602.75 614.738281 598.046875 C 617.890625 593.34375 620.921875 588.5625 623.839844 583.710938 C 626.753906 578.855469 629.550781 573.933594 632.222656 568.941406 C 634.898438 563.949219 637.445312 558.898438 639.871094 553.78125 C 642.296875 548.664062 644.59375 543.488281 646.765625 538.261719 C 648.9375 533.03125 650.976562 527.75 652.886719 522.421875 C 654.800781 517.089844 656.578125 511.714844 658.226562 506.300781 C 659.871094 500.882812 661.382812 495.425781 662.761719 489.933594 C 664.140625 484.441406 665.382812 478.921875 666.488281 473.367188 C 667.597656 467.8125 668.566406 462.238281 669.398438 456.636719 C 670.230469 451.035156 670.925781 445.417969 671.480469 439.78125 C 672.039062 434.148438 672.453125 428.503906 672.734375 422.847656 C 673.011719 417.191406 673.152344 411.53125 673.152344 405.871094 C 673.152344 400.207031 673.011719 394.550781 672.734375 388.894531 C 672.453125 383.238281 672.039062 377.59375 671.480469 371.957031 C 670.925781 366.324219 670.230469 360.703125 669.398438 355.105469 C 668.566406 349.503906 667.597656 343.925781 666.488281 338.375 C 665.382812 332.820312 664.140625 327.296875 662.761719 321.804688 C 661.382812 316.3125 659.871094 310.859375 658.226562 305.441406 C 656.578125 300.023438 654.800781 294.648438 652.886719 289.320312 C 650.976562 283.988281 648.9375 278.710938 646.765625 273.480469 C 644.59375 268.25 642.296875 263.078125 639.871094 257.960938 C 637.445312 252.84375 634.898438 247.789062 632.222656 242.796875 C 629.550781 237.808594 626.753906 232.882812 623.839844 228.03125 C 620.921875 223.175781 617.890625 218.398438 614.738281 213.691406 C 611.589844 208.988281 608.324219 204.363281 604.945312 199.820312 C 601.566406 195.277344 598.078125 190.816406 594.480469 186.445312 C 590.882812 182.074219 587.179688 177.792969 583.371094 173.601562 C 579.5625 169.410156 575.652344 165.316406 571.644531 161.320312 Z M 571.644531 161.320312 " fill-opacity="1" fill-rule="nonzero"/><path fill="#475dd7" d="M 665.621094 67.34375 C 664.828125 66.46875 663.992188 65.636719 663.113281 64.851562 C 662.234375 64.0625 661.320312 63.320312 660.367188 62.625 C 659.414062 61.929688 658.425781 61.28125 657.40625 60.6875 C 656.390625 60.089844 655.34375 59.550781 654.269531 59.058594 C 653.195312 58.570312 652.101562 58.136719 650.980469 57.757812 C 649.863281 57.378906 648.730469 57.058594 647.582031 56.792969 C 646.429688 56.53125 645.269531 56.324219 644.097656 56.179688 C 642.925781 56.03125 641.75 55.945312 640.570312 55.917969 C 639.390625 55.890625 638.214844 55.925781 637.039062 56.019531 C 635.859375 56.109375 634.691406 56.261719 633.53125 56.472656 C 632.371094 56.683594 631.222656 56.953125 630.089844 57.28125 C 628.953125 57.605469 627.839844 57.992188 626.746094 58.429688 C 625.652344 58.871094 624.582031 59.363281 623.535156 59.914062 C 622.492188 60.460938 621.476562 61.0625 620.492188 61.714844 C 619.507812 62.363281 618.558594 63.0625 617.648438 63.8125 C 616.734375 64.558594 615.859375 65.351562 615.027344 66.1875 C 614.195312 67.023438 613.40625 67.898438 612.660156 68.8125 C 611.917969 69.730469 611.222656 70.679688 610.574219 71.667969 C 609.925781 72.652344 609.328125 73.671875 608.785156 74.71875 C 608.238281 75.765625 607.75 76.835938 607.3125 77.933594 C 606.875 79.027344 606.496094 80.144531 606.175781 81.28125 C 605.851562 82.414062 605.585938 83.5625 605.378906 84.726562 C 605.171875 85.886719 605.023438 87.054688 604.9375 88.234375 C 604.847656 89.410156 604.820312 90.585938 604.851562 91.765625 C 604.882812 92.945312 604.972656 94.121094 605.121094 95.292969 C 605.273438 96.464844 605.480469 97.621094 605.75 98.773438 C 606.015625 99.921875 606.34375 101.054688 606.726562 102.171875 C 607.109375 103.289062 607.546875 104.382812 608.039062 105.453125 C 608.53125 106.527344 609.078125 107.570312 609.679688 108.585938 C 610.277344 109.601562 610.925781 110.585938 611.625 111.539062 C 612.324219 112.488281 613.070312 113.402344 613.859375 114.277344 C 614.652344 115.152344 615.484375 115.984375 616.363281 116.777344 C 621.121094 121.488281 625.757812 126.316406 630.277344 131.261719 C 634.796875 136.203125 639.191406 141.253906 643.460938 146.414062 C 647.730469 151.574219 651.871094 156.835938 655.882812 162.203125 C 659.890625 167.566406 663.765625 173.027344 667.507812 178.582031 C 671.246094 184.136719 674.847656 189.78125 678.308594 195.515625 C 681.773438 201.25 685.089844 207.066406 688.265625 212.960938 C 691.4375 218.859375 694.464844 224.832031 697.34375 230.878906 C 700.222656 236.925781 702.953125 243.039062 705.53125 249.222656 C 708.105469 255.402344 710.53125 261.644531 712.800781 267.945312 C 715.070312 274.25 717.179688 280.601562 719.136719 287.007812 C 721.09375 293.414062 722.886719 299.863281 724.523438 306.359375 C 726.160156 312.851562 727.636719 319.382812 728.953125 325.949219 C 730.265625 332.519531 731.417969 339.113281 732.40625 345.738281 C 733.394531 352.363281 734.21875 359.007812 734.878906 365.671875 C 735.539062 372.335938 736.035156 379.011719 736.367188 385.703125 C 736.695312 392.390625 736.859375 399.085938 736.859375 405.78125 C 736.859375 412.480469 736.695312 419.171875 736.367188 425.863281 C 736.035156 432.550781 735.539062 439.230469 734.878906 445.894531 C 734.21875 452.558594 733.394531 459.203125 732.40625 465.828125 C 731.417969 472.453125 730.265625 479.046875 728.953125 485.617188 C 727.636719 492.183594 726.160156 498.714844 724.523438 505.207031 C 722.886719 511.703125 721.09375 518.152344 719.136719 524.558594 C 717.179688 530.964844 715.070312 537.316406 712.800781 543.617188 C 710.53125 549.921875 708.105469 556.160156 705.53125 562.34375 C 702.953125 568.523438 700.222656 574.640625 697.34375 580.6875 C 694.464844 586.734375 691.4375 592.707031 688.265625 598.601562 C 685.089844 604.5 681.773438 610.316406 678.308594 616.050781 C 674.847656 621.785156 671.246094 627.429688 667.507812 632.984375 C 663.765625 638.539062 659.890625 644 655.882812 649.363281 C 651.871094 654.726562 647.730469 659.992188 643.460938 665.152344 C 639.191406 670.308594 634.796875 675.363281 630.277344 680.304688 C 625.757812 685.246094 621.121094 690.074219 616.363281 694.789062 C 615.550781 695.597656 614.777344 696.441406 614.050781 697.324219 C 613.320312 698.207031 612.636719 699.121094 611.996094 700.070312 C 611.355469 701.019531 610.765625 702 610.222656 703.007812 C 609.679688 704.015625 609.1875 705.046875 608.746094 706.101562 C 608.300781 707.160156 607.914062 708.234375 607.578125 709.328125 C 607.242188 710.421875 606.960938 711.53125 606.730469 712.652344 C 606.503906 713.777344 606.332031 714.90625 606.214844 716.042969 C 606.101562 717.183594 606.039062 718.324219 606.035156 719.46875 C 606.03125 720.617188 606.085938 721.757812 606.191406 722.898438 C 606.300781 724.035156 606.464844 725.167969 606.683594 726.292969 C 606.902344 727.414062 607.175781 728.527344 607.503906 729.621094 C 607.835938 730.71875 608.214844 731.796875 608.648438 732.855469 C 609.085938 733.914062 609.570312 734.953125 610.105469 735.960938 C 610.640625 736.972656 611.226562 737.957031 611.859375 738.910156 C 612.492188 739.867188 613.167969 740.785156 613.890625 741.675781 C 614.617188 742.5625 615.378906 743.410156 616.1875 744.222656 C 616.992188 745.035156 617.839844 745.808594 618.722656 746.535156 C 619.601562 747.265625 620.519531 747.949219 621.46875 748.589844 C 622.417969 749.230469 623.398438 749.820312 624.40625 750.363281 C 625.414062 750.90625 626.445312 751.398438 627.5 751.839844 C 628.558594 752.28125 629.632812 752.671875 630.726562 753.007812 C 631.820312 753.34375 632.929688 753.625 634.050781 753.851562 C 635.171875 754.082031 636.304688 754.253906 637.441406 754.367188 C 638.582031 754.484375 639.722656 754.546875 640.867188 754.550781 C 642.011719 754.554688 643.15625 754.5 644.292969 754.394531 C 645.433594 754.285156 646.566406 754.121094 647.691406 753.902344 C 648.8125 753.683594 649.921875 753.410156 651.019531 753.078125 C 652.117188 752.75 653.195312 752.371094 654.253906 751.9375 C 655.3125 751.5 656.347656 751.015625 657.359375 750.480469 C 658.371094 749.945312 659.355469 749.359375 660.308594 748.726562 C 661.261719 748.09375 662.183594 747.417969 663.070312 746.691406 C 663.960938 745.96875 664.808594 745.207031 665.621094 744.398438 C 671.191406 738.875 676.625 733.21875 681.914062 727.425781 C 687.207031 721.636719 692.351562 715.71875 697.351562 709.671875 C 702.351562 703.628906 707.195312 697.464844 711.890625 691.179688 C 716.585938 684.894531 721.125 678.5 725.503906 671.992188 C 729.882812 665.484375 734.097656 658.871094 738.152344 652.152344 C 742.203125 645.4375 746.089844 638.625 749.804688 631.71875 C 753.523438 624.808594 757.066406 617.8125 760.4375 610.730469 C 763.808594 603.648438 767 596.484375 770.019531 589.246094 C 773.035156 582.003906 775.875 574.691406 778.53125 567.3125 C 781.1875 559.929688 783.660156 552.488281 785.949219 544.988281 C 788.238281 537.484375 790.339844 529.929688 792.257812 522.320312 C 794.175781 514.714844 795.902344 507.066406 797.441406 499.375 C 798.980469 491.683594 800.328125 483.957031 801.484375 476.199219 C 802.640625 468.4375 803.605469 460.65625 804.378906 452.851562 C 805.152344 445.042969 805.734375 437.222656 806.121094 429.390625 C 806.507812 421.554688 806.699219 413.714844 806.699219 405.871094 C 806.699219 398.027344 806.507812 390.1875 806.121094 382.351562 C 805.734375 374.515625 805.152344 366.695312 804.378906 358.890625 C 803.605469 351.082031 802.640625 343.300781 801.484375 335.542969 C 800.328125 327.785156 798.980469 320.058594 797.441406 312.367188 C 795.902344 304.675781 794.175781 297.023438 792.257812 289.417969 C 790.339844 281.8125 788.238281 274.257812 785.949219 266.753906 C 783.660156 259.25 781.1875 251.808594 778.53125 244.429688 C 775.875 237.046875 773.035156 229.738281 770.019531 222.496094 C 767 215.253906 763.808594 208.09375 760.4375 201.011719 C 757.066406 193.925781 753.519531 186.929688 749.804688 180.023438 C 746.089844 173.113281 742.203125 166.300781 738.152344 159.585938 C 734.097656 152.871094 729.882812 146.257812 725.503906 139.75 C 721.125 133.242188 716.585938 126.84375 711.890625 120.558594 C 707.195312 114.277344 702.351562 108.113281 697.351562 102.066406 C 692.351562 96.023438 687.207031 90.105469 681.914062 84.3125 C 676.625 78.523438 671.191406 72.863281 665.621094 67.34375 Z M 665.621094 67.34375 " fill-opacity="1" fill-rule="nonzero"/><path fill="#475dd7" d="M 473.125 258.441406 C 472.3125 257.632812 471.460938 256.871094 470.574219 256.144531 C 469.6875 255.421875 468.765625 254.746094 467.8125 254.113281 C 466.859375 253.480469 465.875 252.894531 464.863281 252.359375 C 463.851562 251.824219 462.816406 251.339844 461.757812 250.902344 C 460.699219 250.46875 459.621094 250.089844 458.523438 249.757812 C 457.425781 249.429688 456.316406 249.15625 455.195312 248.9375 C 454.070312 248.71875 452.9375 248.554688 451.796875 248.445312 C 450.660156 248.339844 449.515625 248.285156 448.371094 248.289062 C 447.226562 248.292969 446.085938 248.355469 444.945312 248.46875 C 443.808594 248.585938 442.675781 248.757812 441.554688 248.984375 C 440.433594 249.214844 439.324219 249.496094 438.230469 249.832031 C 437.136719 250.167969 436.058594 250.554688 435.003906 251 C 433.949219 251.441406 432.917969 251.933594 431.910156 252.476562 C 430.902344 253.019531 429.921875 253.609375 428.972656 254.25 C 428.023438 254.890625 427.105469 255.574219 426.222656 256.304688 C 425.339844 257.03125 424.496094 257.804688 423.691406 258.617188 C 422.882812 259.429688 422.117188 260.277344 421.394531 261.164062 C 420.671875 262.054688 419.996094 262.972656 419.363281 263.929688 C 418.730469 264.882812 418.144531 265.863281 417.609375 266.875 C 417.074219 267.886719 416.585938 268.921875 416.152344 269.984375 C 415.71875 271.042969 415.335938 272.121094 415.007812 273.214844 C 414.679688 274.3125 414.40625 275.421875 414.1875 276.546875 C 413.96875 277.671875 413.804688 278.800781 413.695312 279.941406 C 413.589844 281.082031 413.535156 282.222656 413.539062 283.367188 C 413.542969 284.515625 413.605469 285.65625 413.71875 286.792969 C 413.835938 287.933594 414.007812 289.0625 414.234375 290.1875 C 414.460938 291.308594 414.746094 292.417969 415.082031 293.511719 C 415.417969 294.605469 415.804688 295.679688 416.246094 296.734375 C 416.691406 297.792969 417.183594 298.824219 417.726562 299.832031 C 418.269531 300.839844 418.859375 301.820312 419.5 302.769531 C 420.140625 303.71875 420.824219 304.632812 421.550781 305.515625 C 422.28125 306.398438 423.054688 307.242188 423.867188 308.050781 C 425.476562 309.648438 427.046875 311.28125 428.578125 312.957031 C 430.109375 314.632812 431.597656 316.34375 433.046875 318.089844 C 434.492188 319.839844 435.894531 321.621094 437.253906 323.4375 C 438.613281 325.257812 439.925781 327.105469 441.191406 328.988281 C 442.460938 330.871094 443.679688 332.78125 444.851562 334.726562 C 446.023438 336.667969 447.148438 338.636719 448.222656 340.636719 C 449.300781 342.632812 450.324219 344.65625 451.300781 346.703125 C 452.277344 348.753906 453.199219 350.824219 454.074219 352.917969 C 454.945312 355.011719 455.765625 357.128906 456.535156 359.261719 C 457.304688 361.398438 458.019531 363.550781 458.683594 365.71875 C 459.34375 367.890625 459.953125 370.074219 460.507812 372.273438 C 461.0625 374.476562 461.5625 376.6875 462.007812 378.914062 C 462.453125 381.136719 462.84375 383.371094 463.179688 385.617188 C 463.511719 387.859375 463.792969 390.109375 464.015625 392.367188 C 464.238281 394.625 464.40625 396.886719 464.519531 399.15625 C 464.632812 401.421875 464.6875 403.6875 464.6875 405.957031 C 464.6875 408.226562 464.632812 410.492188 464.519531 412.761719 C 464.40625 415.027344 464.238281 417.289062 464.015625 419.546875 C 463.792969 421.804688 463.511719 424.054688 463.179688 426.300781 C 462.84375 428.542969 462.453125 430.777344 462.007812 433.003906 C 461.5625 435.226562 461.0625 437.441406 460.507812 439.640625 C 459.953125 441.839844 459.34375 444.023438 458.683594 446.195312 C 458.019531 448.367188 457.304688 450.519531 456.535156 452.652344 C 455.765625 454.789062 454.945312 456.902344 454.074219 458.996094 C 453.199219 461.089844 452.277344 463.160156 451.300781 465.210938 C 450.324219 467.257812 449.300781 469.28125 448.222656 471.28125 C 447.148438 473.277344 446.023438 475.246094 444.851562 477.191406 C 443.679688 479.132812 442.460938 481.046875 441.191406 482.925781 C 439.925781 484.808594 438.613281 486.660156 437.253906 488.476562 C 435.894531 490.292969 434.492188 492.078125 433.046875 493.824219 C 431.597656 495.574219 430.109375 497.285156 428.578125 498.957031 C 427.046875 500.632812 425.476562 502.269531 423.867188 503.863281 C 423.050781 504.671875 422.28125 505.515625 421.550781 506.398438 C 420.820312 507.28125 420.136719 508.195312 419.496094 509.144531 C 418.855469 510.097656 418.265625 511.074219 417.71875 512.082031 C 417.175781 513.089844 416.683594 514.121094 416.242188 515.179688 C 415.796875 516.234375 415.410156 517.3125 415.070312 518.40625 C 414.734375 519.5 414.453125 520.609375 414.226562 521.730469 C 413.996094 522.851562 413.824219 523.984375 413.710938 525.121094 C 413.59375 526.261719 413.53125 527.40625 413.527344 528.550781 C 413.523438 529.695312 413.574219 530.835938 413.683594 531.976562 C 413.792969 533.117188 413.953125 534.25 414.175781 535.375 C 414.394531 536.496094 414.667969 537.609375 414.996094 538.707031 C 415.324219 539.800781 415.707031 540.878906 416.140625 541.941406 C 416.574219 543 417.058594 544.035156 417.59375 545.046875 C 418.132812 546.058594 418.714844 547.042969 419.347656 547.996094 C 419.980469 548.953125 420.660156 549.871094 421.382812 550.761719 C 422.105469 551.648438 422.871094 552.5 423.679688 553.3125 C 424.484375 554.125 425.332031 554.894531 426.214844 555.625 C 427.09375 556.355469 428.011719 557.039062 428.960938 557.679688 C 429.910156 558.316406 430.890625 558.910156 431.898438 559.453125 C 432.90625 559.996094 433.941406 560.488281 434.996094 560.929688 C 436.050781 561.371094 437.128906 561.761719 438.222656 562.097656 C 439.316406 562.433594 440.425781 562.714844 441.546875 562.941406 C 442.671875 563.167969 443.800781 563.339844 444.941406 563.457031 C 446.082031 563.574219 447.222656 563.632812 448.367188 563.636719 C 449.511719 563.640625 450.65625 563.589844 451.796875 563.480469 C 452.9375 563.371094 454.066406 563.207031 455.191406 562.988281 C 456.316406 562.765625 457.425781 562.492188 458.523438 562.164062 C 459.621094 561.835938 460.699219 561.453125 461.757812 561.019531 C 462.816406 560.582031 463.851562 560.097656 464.863281 559.5625 C 465.875 559.023438 466.859375 558.441406 467.8125 557.804688 C 468.765625 557.171875 469.6875 556.496094 470.574219 555.769531 C 471.460938 555.046875 472.3125 554.28125 473.125 553.472656 C 475.554688 551.066406 477.921875 548.601562 480.226562 546.078125 C 482.53125 543.554688 484.773438 540.976562 486.953125 538.34375 C 489.132812 535.710938 491.246094 533.023438 493.292969 530.285156 C 495.339844 527.546875 497.316406 524.761719 499.222656 521.925781 C 501.132812 519.089844 502.96875 516.207031 504.738281 513.28125 C 506.503906 510.355469 508.195312 507.386719 509.816406 504.375 C 511.4375 501.363281 512.980469 498.316406 514.449219 495.230469 C 515.917969 492.144531 517.3125 489.023438 518.628906 485.867188 C 519.941406 482.710938 521.179688 479.527344 522.335938 476.308594 C 523.496094 473.09375 524.574219 469.851562 525.570312 466.582031 C 526.566406 463.3125 527.484375 460.019531 528.320312 456.703125 C 529.15625 453.390625 529.90625 450.054688 530.578125 446.703125 C 531.25 443.351562 531.835938 439.984375 532.339844 436.605469 C 532.84375 433.222656 533.265625 429.832031 533.601562 426.429688 C 533.941406 423.027344 534.191406 419.621094 534.363281 416.207031 C 534.53125 412.792969 534.613281 409.375 534.613281 405.957031 C 534.613281 402.539062 534.53125 399.121094 534.363281 395.707031 C 534.191406 392.292969 533.941406 388.886719 533.601562 385.484375 C 533.265625 382.082031 532.84375 378.691406 532.339844 375.308594 C 531.835938 371.929688 531.25 368.5625 530.578125 365.210938 C 529.90625 361.859375 529.15625 358.527344 528.320312 355.210938 C 527.484375 351.894531 526.566406 348.605469 525.570312 345.335938 C 524.574219 342.066406 523.496094 338.820312 522.335938 335.605469 C 521.179688 332.390625 519.941406 329.203125 518.628906 326.046875 C 517.3125 322.894531 515.917969 319.773438 514.449219 316.683594 C 512.980469 313.597656 511.4375 310.550781 509.816406 307.539062 C 508.195312 304.53125 506.503906 301.5625 504.738281 298.632812 C 502.96875 295.707031 501.132812 292.828125 499.222656 289.992188 C 497.316406 287.15625 495.339844 284.367188 493.292969 281.628906 C 491.246094 278.890625 489.132812 276.203125 486.953125 273.570312 C 484.773438 270.9375 482.53125 268.359375 480.226562 265.835938 C 477.921875 263.3125 475.554688 260.847656 473.125 258.441406 Z M 473.125 258.441406 " fill-opacity="1" fill-rule="nonzero"/></svg>