<svg xmlns="http://www.w3.org/2000/svg" xmlns:xlink="http://www.w3.org/1999/xlink" width="1080" zoomAndPan="magnify" viewBox="0 0 810 809.999993" height="1080" preserveAspectRatio="xMidYMid meet" version="1.0"><defs><clipPath id="f1ceb6f7f0"><path d="M 0 8.605469 L 793 8.605469 L 793 801.355469 L 0 801.355469 Z M 0 8.605469 " clip-rule="nonzero"/></clipPath></defs><g clip-path="url(#f1ceb6f7f0)"><path fill="#80ac5f" d="M 734.164062 285.28125 C 712.464844 290.292969 698.9375 311.941406 703.941406 333.640625 C 709.316406 356.886719 712.035156 380.898438 712.035156 405 C 712.035156 579.097656 570.394531 720.734375 396.296875 720.734375 C 222.199219 720.734375 80.558594 579.097656 80.558594 405 C 80.558594 230.902344 222.199219 89.261719 396.296875 89.261719 C 438.308594 89.261719 479.082031 97.363281 517.492188 113.347656 C 538.0625 121.882812 561.652344 112.167969 570.214844 91.613281 C 578.765625 71.054688 569.03125 47.449219 548.472656 38.894531 C 500.203125 18.804688 449 8.617188 396.296875 8.617188 C 177.726562 8.617188 -0.0859375 186.429688 -0.0859375 405 C -0.0859375 623.558594 177.726562 801.382812 396.296875 801.382812 C 614.859375 801.382812 792.679688 623.558594 792.679688 405 C 792.679688 374.796875 789.261719 344.691406 782.523438 315.492188 C 777.511719 293.800781 755.871094 280.261719 734.164062 285.28125 " fill-opacity="1" fill-rule="nonzero"/></g><path fill="#80ac5f" d="M 793.597656 72.21875 C 777.601562 56.730469 752.082031 57.117188 736.574219 73.117188 L 321.191406 501.828125 L 219.316406 401.25 C 203.472656 385.601562 177.941406 385.769531 162.296875 401.613281 C 146.648438 417.457031 146.8125 442.996094 162.660156 458.636719 L 293.5 587.800781 C 301.046875 595.265625 311.226562 599.433594 321.828125 599.433594 C 321.976562 599.433594 322.125 599.433594 322.273438 599.425781 C 333.03125 599.308594 343.296875 594.898438 350.785156 587.171875 L 794.496094 129.234375 C 809.996094 113.246094 809.582031 87.71875 793.597656 72.21875 " fill-opacity="1" fill-rule="nonzero"/></svg>