<svg xmlns="http://www.w3.org/2000/svg" xmlns:xlink="http://www.w3.org/1999/xlink" width="1080" zoomAndPan="magnify" viewBox="0 0 810 809.999993" height="1080" preserveAspectRatio="xMidYMid meet" version="1.0"><defs><clipPath id="5744fb4858"><path d="M 70.875 0 L 729 0 L 729 810 L 70.875 810 Z M 70.875 0 " clip-rule="nonzero"/></clipPath></defs><g clip-path="url(#5744fb4858)"><path fill="#475dd7" d="M 721.609375 209.890625 L 519.109375 7.390625 C 514.351562 2.683594 507.921875 0 501.1875 0 L 298.6875 0 C 256.820312 0 222.75 34.070312 222.75 75.9375 L 222.75 202.5 L 146.8125 202.5 C 104.945312 202.5 70.875 236.570312 70.875 278.4375 L 70.875 734.0625 C 70.875 775.929688 104.945312 810 146.8125 810 L 501.1875 810 C 543.054688 810 577.125 775.929688 577.125 734.0625 L 577.125 607.5 L 653.0625 607.5 C 694.929688 607.5 729 573.429688 729 531.5625 L 729 227.8125 C 729 221.078125 726.316406 214.648438 721.609375 209.890625 Z M 526.5 86.417969 L 642.582031 202.5 L 526.5 202.5 Z M 526.5 734.0625 C 526.5 747.984375 515.109375 759.375 501.1875 759.375 L 146.8125 759.375 C 132.839844 759.375 121.5 747.984375 121.5 734.0625 L 121.5 278.4375 C 121.5 264.464844 132.839844 253.125 146.8125 253.125 L 324 253.125 L 324 405 C 324 432.894531 346.730469 455.625 374.625 455.625 L 526.5 455.625 Z M 374.625 405 L 374.625 288.917969 L 490.707031 405 Z M 678.375 531.5625 C 678.375 545.484375 666.984375 556.875 653.0625 556.875 L 577.125 556.875 L 577.125 430.3125 C 577.125 423.578125 574.441406 417.148438 569.734375 412.390625 L 367.234375 209.890625 C 362.476562 205.183594 356.046875 202.5 349.3125 202.5 L 273.375 202.5 L 273.375 75.9375 C 273.375 61.964844 284.714844 50.625 298.6875 50.625 L 475.875 50.625 L 475.875 202.5 C 475.875 230.394531 498.554688 253.125 526.5 253.125 L 678.375 253.125 Z M 678.375 531.5625 " fill-opacity="1" fill-rule="nonzero"/></g></svg>