<svg xmlns="http://www.w3.org/2000/svg" xmlns:xlink="http://www.w3.org/1999/xlink" width="1080" zoomAndPan="magnify" viewBox="0 0 810 809.999993" height="1080" preserveAspectRatio="xMidYMid meet" version="1.0"><path fill="#475dd7" d="M 770.804688 548.710938 L 627.097656 548.710938 L 627.097656 222.097656 C 627.097656 200.457031 609.542969 182.902344 587.902344 182.902344 L 261.289062 182.902344 L 261.289062 39.195312 C 261.289062 17.554688 243.746094 0 222.097656 0 C 200.445312 0 182.902344 17.554688 182.902344 39.195312 L 182.902344 182.902344 L 39.195312 182.902344 C 17.542969 182.902344 0 200.457031 0 222.097656 C 0 243.734375 17.542969 261.289062 39.195312 261.289062 L 182.902344 261.289062 L 182.902344 587.902344 C 182.902344 609.542969 200.445312 627.097656 222.097656 627.097656 L 548.710938 627.097656 L 548.710938 770.804688 C 548.710938 792.445312 566.265625 810 587.902344 810 C 609.542969 810 627.097656 792.445312 627.097656 770.804688 L 627.097656 627.097656 L 770.804688 627.097656 C 792.445312 627.097656 810 609.542969 810 587.902344 C 810 566.265625 792.445312 548.710938 770.804688 548.710938 Z M 261.289062 548.710938 L 261.289062 261.289062 L 548.710938 261.289062 L 548.710938 548.710938 Z M 261.289062 548.710938 " fill-opacity="1" fill-rule="nonzero"/></svg>