<svg xmlns="http://www.w3.org/2000/svg" xmlns:xlink="http://www.w3.org/1999/xlink" width="1080" zoomAndPan="magnify" viewBox="0 0 810 809.999993" height="1080" preserveAspectRatio="xMidYMid meet" version="1.0"><defs><clipPath id="efe213f8d2"><path d="M 94.414062 322.335938 L 715.53125 322.335938 L 715.53125 464.152344 L 94.414062 464.152344 Z M 94.414062 322.335938 " clip-rule="nonzero"/></clipPath><clipPath id="2e4a7b02d5"><path d="M 605.453125 397 L 688.5 397 L 688.5 507.585938 L 605.453125 507.585938 Z M 605.453125 397 " clip-rule="nonzero"/></clipPath></defs><path fill="#6c6cb8" d="M 165.320312 460.207031 C 156.316406 460.207031 147.570312 458.433594 139.308594 454.925781 C 131.34375 451.539062 124.183594 446.703125 118.023438 440.546875 C 111.867188 434.386719 107.03125 427.226562 103.640625 419.253906 C 100.136719 411 98.355469 402.246094 98.355469 393.246094 C 98.355469 384.242188 100.136719 375.488281 103.640625 367.234375 C 107.03125 359.269531 111.867188 352.105469 118.023438 345.949219 C 124.183594 339.789062 131.34375 334.949219 139.308594 331.566406 C 147.570312 328.058594 156.316406 326.28125 165.320312 326.28125 L 644.621094 326.28125 C 653.625 326.28125 662.378906 328.058594 670.636719 331.566406 C 678.601562 334.949219 685.765625 339.789062 691.921875 345.949219 C 698.082031 352.105469 702.917969 359.269531 706.300781 367.234375 C 709.8125 375.488281 711.589844 384.242188 711.589844 393.246094 C 711.589844 402.246094 709.8125 411 706.300781 419.253906 C 702.917969 427.226562 698.082031 434.386719 691.921875 440.546875 C 685.765625 446.703125 678.601562 451.539062 670.636719 454.925781 C 662.378906 458.433594 653.625 460.207031 644.621094 460.207031 L 165.320312 460.207031 " fill-opacity="1" fill-rule="nonzero"/><g clip-path="url(#efe213f8d2)"><path fill="#000000" d="M 644.621094 322.335938 L 165.320312 322.335938 C 155.789062 322.335938 146.515625 324.21875 137.765625 327.9375 C 129.332031 331.519531 121.753906 336.640625 115.234375 343.160156 C 108.71875 349.675781 103.597656 357.257812 100.011719 365.691406 C 96.300781 374.441406 94.414062 383.707031 94.414062 393.246094 C 94.414062 402.78125 96.300781 412.050781 100.011719 420.796875 C 103.597656 429.230469 108.71875 436.8125 115.234375 443.332031 C 121.753906 449.847656 129.332031 454.96875 137.765625 458.550781 C 146.515625 462.269531 155.789062 464.152344 165.320312 464.152344 L 644.621094 464.152344 C 654.15625 464.152344 663.429688 462.269531 672.179688 458.550781 C 680.609375 454.96875 688.195312 449.847656 694.707031 443.332031 C 701.230469 436.8125 706.351562 429.230469 709.933594 420.796875 C 713.644531 412.050781 715.53125 402.78125 715.53125 393.246094 C 715.53125 383.707031 713.644531 374.441406 709.933594 365.691406 C 706.351562 357.257812 701.230469 349.675781 694.707031 343.160156 C 688.195312 336.640625 680.609375 331.519531 672.179688 327.9375 C 663.429688 324.21875 654.15625 322.335938 644.621094 322.335938 Z M 644.621094 330.222656 C 679.285156 330.222656 707.648438 358.578125 707.648438 393.246094 C 707.648438 427.910156 679.285156 456.265625 644.621094 456.265625 L 165.320312 456.265625 C 130.660156 456.265625 102.300781 427.910156 102.300781 393.246094 C 102.300781 358.578125 130.660156 330.222656 165.320312 330.222656 L 644.621094 330.222656 " fill-opacity="1" fill-rule="nonzero"/></g><path fill="#000000" d="M 601.257812 384.90625 C 599.78125 384.90625 598.363281 384.070312 597.6875 382.644531 L 591.730469 370.046875 C 590.800781 368.078125 591.640625 365.726562 593.613281 364.796875 C 595.578125 363.863281 597.929688 364.707031 598.863281 366.675781 L 604.816406 379.277344 C 605.75 381.242188 604.90625 383.59375 602.9375 384.527344 C 602.394531 384.78125 601.820312 384.90625 601.257812 384.90625 " fill-opacity="1" fill-rule="nonzero"/><path fill="#000000" d="M 625.101562 383.738281 C 624.660156 383.738281 624.214844 383.664062 623.773438 383.503906 C 621.722656 382.769531 620.65625 380.511719 621.390625 378.460938 L 626.085938 365.34375 C 626.824219 363.289062 629.074219 362.222656 631.132812 362.960938 C 633.175781 363.691406 634.246094 365.949219 633.511719 368.003906 L 628.816406 381.121094 C 628.238281 382.734375 626.71875 383.738281 625.101562 383.738281 " fill-opacity="1" fill-rule="nonzero"/><path fill="#000000" d="M 642.792969 399.777344 C 641.316406 399.777344 639.898438 398.9375 639.226562 397.515625 C 638.296875 395.546875 639.136719 393.199219 641.109375 392.265625 L 653.703125 386.308594 C 655.675781 385.378906 658.027344 386.21875 658.960938 388.1875 C 659.886719 390.15625 659.042969 392.507812 657.078125 393.4375 L 644.476562 399.398438 C 643.933594 399.652344 643.359375 399.777344 642.792969 399.777344 " fill-opacity="1" fill-rule="nonzero"/><path fill="#000000" d="M 585.210938 402.597656 C 584.773438 402.597656 584.324219 402.523438 583.886719 402.363281 L 570.765625 397.667969 C 568.714844 396.933594 567.644531 394.671875 568.378906 392.625 C 569.113281 390.574219 571.367188 389.507812 573.417969 390.242188 L 586.546875 394.9375 C 588.597656 395.671875 589.660156 397.929688 588.925781 399.980469 C 588.347656 401.589844 586.835938 402.597656 585.210938 402.597656 " fill-opacity="1" fill-rule="nonzero"/><path fill="#000000" d="M 573.785156 432.402344 C 572.308594 432.402344 570.890625 431.566406 570.214844 430.140625 C 569.289062 428.175781 570.128906 425.824219 572.097656 424.894531 L 584.699219 418.9375 C 586.664062 418.003906 589.015625 418.847656 589.945312 420.8125 C 590.875 422.785156 590.039062 425.136719 588.066406 426.0625 L 575.464844 432.023438 C 574.921875 432.28125 574.347656 432.402344 573.785156 432.402344 " fill-opacity="1" fill-rule="nonzero"/><path fill="#ffffff" d="M 656.183594 504.628906 C 655.050781 504.628906 653.953125 504.042969 653.355469 502.988281 L 637.503906 475.195312 L 618.355469 495.921875 C 617.726562 496.605469 616.859375 496.96875 615.964844 496.96875 C 615.589844 496.96875 615.207031 496.90625 614.84375 496.769531 C 613.609375 496.316406 612.769531 495.164062 612.714844 493.847656 L 609.136719 404.152344 C 609.085938 402.867188 609.800781 401.667969 610.960938 401.101562 C 611.414062 400.878906 611.902344 400.769531 612.386719 400.769531 C 613.140625 400.769531 613.890625 401.035156 614.488281 401.542969 L 683.988281 460.394531 C 685.011719 461.261719 685.398438 462.664062 684.960938 463.9375 C 684.527344 465.203125 683.359375 466.074219 682.015625 466.128906 L 656.199219 467.15625 L 670.921875 492.96875 C 671.351562 493.722656 671.460938 494.605469 671.234375 495.4375 C 671.007812 496.269531 670.457031 496.980469 669.707031 497.410156 L 657.792969 504.203125 C 657.28125 504.492188 656.726562 504.628906 656.183594 504.628906 " fill-opacity="1" fill-rule="nonzero"/><g clip-path="url(#2e4a7b02d5)"><path fill="#000000" d="M 612.386719 397.515625 C 611.414062 397.515625 610.441406 397.734375 609.53125 398.175781 C 607.214844 399.308594 605.785156 401.703125 605.890625 404.285156 L 609.46875 493.976562 C 609.570312 496.605469 611.25 498.910156 613.71875 499.820312 C 614.449219 500.09375 615.210938 500.222656 615.964844 500.222656 C 617.746094 500.222656 619.488281 499.488281 620.746094 498.132812 L 636.875 480.664062 L 650.53125 504.601562 C 651.726562 506.707031 653.921875 507.882812 656.183594 507.882812 C 657.277344 507.882812 658.386719 507.609375 659.402344 507.03125 L 671.320312 500.234375 C 672.816406 499.375 673.917969 497.964844 674.371094 496.296875 C 674.828125 494.632812 674.601562 492.859375 673.746094 491.355469 L 661.675781 470.195312 L 682.144531 469.375 C 684.824219 469.273438 687.167969 467.53125 688.039062 464.996094 C 688.90625 462.460938 688.140625 459.644531 686.089844 457.914062 L 616.59375 399.058594 C 615.390625 398.046875 613.894531 397.515625 612.386719 397.515625 Z M 612.386719 404.023438 L 681.886719 462.878906 L 650.71875 464.121094 L 668.097656 494.578125 L 656.179688 501.375 L 638.125 469.726562 L 615.964844 493.714844 L 612.386719 404.023438 " fill-opacity="1" fill-rule="nonzero"/></g><path stroke-linecap="round" transform="matrix(0.75, 0, 0, 0.75, 80.999999, 81.000016)" fill="none" stroke-linejoin="miter" d="M 50.000003 49.999981 L 814.000042 49.999981 " stroke="#6c6cb8" stroke-width="100" stroke-opacity="1" stroke-miterlimit="4"/><path stroke-linecap="round" transform="matrix(0.75, 0, 0, 0.75, 128.330241, 201.587734)" fill="none" stroke-linejoin="miter" d="M 50.002389 49.997607 L 687.783672 49.997607 " stroke="#6c6cb8" stroke-width="100" stroke-opacity="1" stroke-miterlimit="4"/><path stroke-linecap="round" transform="matrix(0.75, 0, 0, 0.75, 128.330241, 518.213898)" fill="none" stroke-linejoin="miter" d="M 50.002389 50.001264 L 687.783672 50.001264 " stroke="#6c6cb8" stroke-width="100" stroke-opacity="1" stroke-miterlimit="4"/><path stroke-linecap="round" transform="matrix(0.75, 0, 0, 0.75, 80.999999, 653.999987)" fill="none" stroke-linejoin="miter" d="M 50.000003 50.00002 L 814.000042 50.00002 " stroke="#6c6cb8" stroke-width="100" stroke-opacity="1" stroke-miterlimit="4"/></svg>