<svg xmlns="http://www.w3.org/2000/svg" xmlns:xlink="http://www.w3.org/1999/xlink" width="1080" zoomAndPan="magnify" viewBox="0 0 810 809.999993" height="1080" preserveAspectRatio="xMidYMid meet" version="1.0"><defs><clipPath id="b09d996ef0"><path d="M 0 34.425781 L 810 34.425781 L 810 775.425781 L 0 775.425781 Z M 0 34.425781 " clip-rule="nonzero"/></clipPath></defs><g clip-path="url(#b09d996ef0)"><path fill="#475dd7" d="M 527.902344 34.347656 L 718.503906 34.347656 C 743.675781 34.347656 766.535156 44.601562 783.089844 61.191406 C 799.640625 77.746094 809.929688 100.640625 809.929688 125.777344 L 809.929688 373.0625 C 809.929688 398.238281 799.679688 421.09375 783.089844 437.648438 C 766.535156 454.203125 743.640625 464.492188 718.503906 464.492188 L 527.902344 464.492188 C 502.730469 464.492188 479.875 454.203125 463.320312 437.648438 C 446.765625 421.09375 436.476562 398.238281 436.476562 373.0625 L 436.476562 125.777344 C 436.476562 100.605469 446.765625 77.746094 463.320312 61.191406 C 479.875 44.636719 502.730469 34.347656 527.902344 34.347656 Z M 91.609375 244.617188 L 282.210938 244.617188 C 296.90625 244.617188 310.269531 238.582031 319.949219 228.898438 C 329.632812 219.179688 335.671875 205.851562 335.671875 191.15625 L 335.671875 125.777344 C 335.671875 111.082031 329.632812 97.71875 319.949219 88.035156 C 310.230469 78.316406 296.867188 72.316406 282.210938 72.316406 L 91.609375 72.316406 C 76.917969 72.316406 63.550781 78.355469 53.871094 88.035156 C 44.148438 97.757812 38.152344 111.082031 38.152344 125.777344 L 38.152344 191.15625 C 38.152344 205.851562 44.1875 219.214844 53.871094 228.898438 C 63.550781 238.582031 76.917969 244.617188 91.609375 244.617188 Z M 282.210938 282.585938 L 91.609375 282.585938 C 66.4375 282.585938 43.578125 272.296875 27.027344 255.742188 C 10.472656 239.1875 0.183594 216.292969 0.183594 191.15625 L 0.183594 125.777344 C 0.183594 100.605469 10.433594 77.746094 27.027344 61.191406 C 43.578125 44.636719 66.476562 34.347656 91.609375 34.347656 L 282.210938 34.347656 C 307.382812 34.347656 330.242188 44.636719 346.792969 61.191406 C 363.347656 77.746094 373.636719 100.640625 373.636719 125.777344 L 373.636719 191.15625 C 373.636719 216.332031 363.347656 239.1875 346.792969 255.742188 C 330.242188 272.296875 307.34375 282.585938 282.210938 282.585938 Z M 91.609375 737.445312 L 282.210938 737.445312 C 296.90625 737.445312 310.269531 731.410156 319.949219 721.726562 C 329.671875 712.042969 335.671875 698.679688 335.671875 683.984375 L 335.671875 436.699219 C 335.671875 422.003906 329.671875 408.640625 319.949219 398.957031 C 310.230469 389.238281 296.90625 383.238281 282.210938 383.238281 L 91.609375 383.238281 C 76.917969 383.238281 63.550781 389.277344 53.871094 398.957031 C 44.148438 408.679688 38.152344 422.003906 38.152344 436.699219 L 38.152344 683.984375 C 38.152344 698.679688 44.1875 712.042969 53.871094 721.726562 C 63.550781 731.445312 76.917969 737.445312 91.609375 737.445312 Z M 282.210938 775.414062 L 91.609375 775.414062 C 66.4375 775.414062 43.578125 765.125 27.027344 748.570312 C 10.472656 732.015625 0.183594 709.121094 0.183594 683.984375 L 0.183594 436.699219 C 0.183594 411.527344 10.433594 388.667969 27.027344 372.113281 C 43.578125 355.5625 66.476562 345.269531 91.609375 345.269531 L 282.210938 345.269531 C 307.382812 345.269531 330.242188 355.5625 346.792969 372.113281 C 363.347656 388.667969 373.636719 411.527344 373.636719 436.699219 L 373.636719 683.984375 C 373.636719 709.160156 363.347656 732.015625 346.792969 748.570312 C 330.242188 765.125 307.382812 775.414062 282.210938 775.414062 Z M 527.941406 527.175781 L 718.542969 527.175781 C 743.714844 527.175781 766.570312 537.464844 783.125 554.019531 C 799.679688 570.574219 809.96875 593.46875 809.96875 618.605469 L 809.96875 683.984375 C 809.96875 709.160156 799.679688 732.015625 783.125 748.570312 C 766.570312 765.125 743.675781 775.414062 718.542969 775.414062 L 527.941406 775.414062 C 502.769531 775.414062 479.910156 765.125 463.355469 748.570312 C 446.804688 731.976562 436.511719 709.121094 436.511719 683.984375 L 436.511719 618.605469 C 436.511719 593.433594 446.804688 570.574219 463.355469 554.019531 C 479.910156 537.464844 502.769531 527.175781 527.941406 527.175781 Z M 718.542969 565.144531 L 527.941406 565.144531 C 513.246094 565.144531 499.882812 571.183594 490.199219 580.863281 C 480.480469 590.585938 474.480469 603.910156 474.480469 618.605469 L 474.480469 683.984375 C 474.480469 698.679688 480.519531 712.042969 490.199219 721.726562 C 499.921875 731.445312 513.246094 737.445312 527.941406 737.445312 L 718.542969 737.445312 C 733.234375 737.445312 746.601562 731.410156 756.28125 721.726562 C 766.003906 712.007812 772 698.679688 772 683.984375 L 772 618.605469 C 772 603.910156 765.964844 590.546875 756.28125 580.863281 C 746.5625 571.183594 733.234375 565.144531 718.542969 565.144531 Z M 718.542969 72.316406 L 527.941406 72.316406 C 513.246094 72.316406 499.882812 78.355469 490.199219 88.035156 C 480.480469 97.71875 474.480469 111.082031 474.480469 125.777344 L 474.480469 373.0625 C 474.480469 387.757812 480.519531 401.121094 490.199219 410.804688 C 499.921875 420.523438 513.246094 426.523438 527.941406 426.523438 L 718.542969 426.523438 C 733.234375 426.523438 746.601562 420.484375 756.28125 410.804688 C 766.003906 401.085938 772 387.757812 772 373.0625 L 772 125.777344 C 772 111.082031 765.964844 97.71875 756.28125 88.035156 C 746.5625 78.316406 733.234375 72.316406 718.542969 72.316406 Z M 718.542969 72.316406 " fill-opacity="1" fill-rule="nonzero"/></g></svg>