<svg xmlns="http://www.w3.org/2000/svg" xmlns:xlink="http://www.w3.org/1999/xlink" width="1080" zoomAndPan="magnify" viewBox="0 0 810 809.999993" height="1080" preserveAspectRatio="xMidYMid meet" version="1.0"><path fill="#d25c7f" d="M 788.363281 122.609375 C 802.589844 108.777344 809.617188 91.949219 809.445312 72.125 C 809.617188 52.296875 802.589844 35.28125 788.363281 21.082031 C 774.53125 7.226562 757.703125 0.199219 737.875 0 C 718.050781 0.199219 701.035156 7.226562 686.835938 21.082031 L 405 303.472656 L 122.609375 21.082031 C 108.777344 7.226562 91.949219 0.199219 72.125 0 C 52.296875 0.199219 35.28125 7.226562 21.082031 21.082031 C 7.226562 35.28125 0.199219 52.296875 0 72.125 C 0.199219 91.949219 7.226562 108.777344 21.082031 122.609375 L 303.472656 405 L 21.082031 686.835938 C 7.226562 701.035156 0.199219 718.050781 0 737.875 C 0.199219 757.703125 7.226562 774.53125 21.082031 788.363281 C 35.28125 802.589844 52.296875 809.617188 72.125 809.445312 C 91.949219 809.617188 108.777344 802.589844 122.609375 788.363281 L 405 506.527344 L 686.835938 788.363281 C 701.035156 802.589844 718.050781 809.617188 737.875 809.445312 C 757.703125 809.617188 774.53125 802.589844 788.363281 788.363281 C 802.589844 774.53125 809.617188 757.703125 809.445312 737.875 C 809.617188 718.050781 802.589844 701.035156 788.363281 686.835938 L 506.527344 405 Z M 788.363281 122.609375 " fill-opacity="1" fill-rule="nonzero"/></svg>