<svg xmlns="http://www.w3.org/2000/svg" xmlns:xlink="http://www.w3.org/1999/xlink" width="1080" zoomAndPan="magnify" viewBox="0 0 810 809.999993" height="1080" preserveAspectRatio="xMidYMid meet" version="1.0"><defs><clipPath id="96710ba28b"><path d="M 338 12.65625 L 810 12.65625 L 810 797.15625 L 338 797.15625 Z M 338 12.65625 " clip-rule="nonzero"/></clipPath><clipPath id="349565bbee"><path d="M 63 12.65625 L 370 12.65625 L 370 319 L 63 319 Z M 63 12.65625 " clip-rule="nonzero"/></clipPath></defs><g clip-path="url(#96710ba28b)"><path fill="#6c6cb8" d="M 810 267.382812 C 810 334.125 771.871094 384.023438 739.125 428.519531 C 713.066406 464.117188 687.960938 496.855469 684.140625 534.675781 C 664.441406 698.671875 596.429688 797.195312 502.027344 797.195312 C 394.289062 797.195312 338.035156 707.886719 338.035156 620.171875 C 338.035156 604.28125 351.0625 591.246094 366.953125 591.246094 C 382.535156 591.246094 395.5625 604.28125 395.5625 620.171875 C 395.5625 678.96875 428.609375 738.082031 500.445312 738.082031 C 572.28125 738.082031 611.996094 629.070312 623.757812 528.320312 C 630.433594 474.609375 660.632812 432.652344 690.816406 393.246094 C 721.015625 352.5625 749.617188 314.421875 749.617188 266.113281 C 749.617188 146.613281 673.660156 71.921875 550.339844 71.921875 C 494.402344 71.921875 443.875 94.167969 407 130.71875 C 403.507812 109.425781 395.882812 89.722656 385.710938 71.605469 C 431.15625 34.734375 489.003906 12.804688 551.613281 12.804688 C 706.398438 12.804688 810 115.144531 810 267.382812 Z M 810 267.382812 " fill-opacity="1" fill-rule="nonzero"/></g><path fill="#6c6cb8" d="M 551.726562 184.71875 C 592.371094 184.71875 634.332031 204.386719 634.332031 246.34375 C 634.332031 262.078125 647.441406 275.191406 663.175781 275.191406 C 678.914062 275.191406 692.023438 262.078125 692.023438 246.34375 C 692.023438 175.539062 633.019531 125.714844 550.414062 125.714844 C 508.457031 125.714844 465.1875 146.691406 433.71875 180.785156 C 406.183594 210.941406 393.070312 247.65625 395.691406 283.058594 C 398.316406 311.90625 415.359375 336.816406 433.71875 364.355469 C 465.1875 411.558594 465.1875 470.5625 448.140625 509.898438 C 420.605469 571.523438 490.097656 605.617188 533.367188 576.769531 C 566.148438 554.480469 551.726562 475.808594 530.746094 419.425781 C 526.8125 406.3125 520.253906 394.511719 515.011719 382.710938 C 513.703125 380.089844 512.390625 377.464844 511.078125 374.84375 C 501.902344 359.109375 492.722656 344.6875 483.542969 332.886719 C 469.121094 311.90625 456.011719 292.238281 454.699219 277.8125 C 453.386719 259.457031 461.253906 238.476562 476.988281 221.433594 C 499.28125 197.832031 526.816406 184.71875 551.730469 184.71875 Z M 551.726562 184.71875 " fill-opacity="1" fill-rule="nonzero"/><path fill="#6c6cb8" d="M 32.488281 612.167969 C 41.667969 610.859375 48.222656 605.613281 52.15625 597.746094 C 66.582031 572.832031 73.136719 543.988281 73.136719 513.828125 C 73.136719 483.667969 66.582031 457.445312 53.46875 431.222656 C 49.535156 423.355469 41.667969 418.109375 33.796875 416.800781 L 28.554688 416.800781 C 21.996094 416.800781 15.441406 419.421875 10.195312 424.667969 L 8.886719 425.976562 C -0.292969 433.84375 -2.914062 449.578125 3.640625 461.378906 C 12.820312 478.425781 18.066406 496.78125 18.066406 516.449219 C 18.066406 534.808594 12.820312 554.476562 3.640625 571.523438 C -2.914062 583.324219 -0.292969 599.054688 8.886719 606.925781 L 10.195312 608.234375 C 15.441406 610.855469 24.621094 613.480469 32.488281 612.167969 Z M 32.488281 612.167969 " fill-opacity="1" fill-rule="nonzero"/><path fill="#6c6cb8" d="M 136.074219 677.730469 C 168.851562 630.527344 187.210938 574.144531 187.210938 515.140625 C 187.210938 456.132812 170.164062 401.066406 136.074219 352.550781 C 130.828125 345.996094 124.273438 340.75 116.402344 340.75 L 113.78125 340.75 C 107.226562 340.75 100.671875 343.371094 95.425781 348.617188 C 83.625 359.105469 82.3125 374.839844 90.179688 386.640625 C 116.402344 424.667969 130.828125 469.246094 130.828125 515.140625 C 130.828125 561.03125 116.402344 605.613281 90.179688 643.636719 C 82.3125 655.4375 83.625 671.171875 94.113281 681.664062 C 100.667969 688.21875 108.535156 690.84375 116.402344 689.53125 C 124.273438 688.222656 132.136719 684.285156 136.074219 677.730469 Z M 136.074219 677.730469 " fill-opacity="1" fill-rule="nonzero"/><path fill="#6c6cb8" d="M 298.625 513.695312 C 298.625 601.734375 270.96875 684.367188 218.53125 753.65625 C 213.449219 759.058594 206.769531 762.871094 199.148438 764.144531 C 191.203125 765.734375 183.261719 762.871094 178.167969 757.785156 C 166.09375 747.300781 164.824219 731.410156 172.769531 718.375 C 217.261719 659.261719 241.097656 588.703125 241.097656 513.695312 C 241.097656 459.347656 228.390625 406.90625 204.234375 359.550781 C 208.359375 360.183594 212.179688 360.183594 216.308594 360.183594 C 233.152344 360.183594 249.679688 357.960938 265.253906 353.828125 C 287.191406 403.730469 298.628906 457.757812 298.628906 513.695312 Z M 298.625 513.695312 " fill-opacity="1" fill-rule="nonzero"/><g clip-path="url(#349565bbee)"><path fill="#64b572" d="M 216.164062 12.949219 C 131.65625 12.949219 63.144531 81.457031 63.144531 165.96875 C 63.144531 250.480469 131.65625 318.984375 216.164062 318.984375 C 300.675781 318.984375 369.1875 250.476562 369.1875 165.96875 C 369.1875 81.457031 300.675781 12.949219 216.164062 12.949219 Z M 294.121094 150.007812 L 216.976562 232.878906 C 212.433594 237.773438 206.058594 240.542969 199.382812 240.542969 C 192.703125 240.542969 186.34375 237.773438 181.789062 232.894531 L 138.210938 186.085938 C 129.164062 176.371094 129.714844 161.160156 139.421875 152.109375 C 149.140625 143.085938 164.339844 143.601562 173.398438 153.320312 L 199.382812 181.230469 L 258.933594 117.265625 C 267.980469 107.535156 283.214844 107.03125 292.898438 116.042969 C 302.617188 125.09375 303.167969 140.304688 294.121094 150.011719 Z M 294.121094 150.007812 " fill-opacity="1" fill-rule="nonzero"/></g></svg>