<svg xmlns="http://www.w3.org/2000/svg" xmlns:xlink="http://www.w3.org/1999/xlink" width="1080" zoomAndPan="magnify" viewBox="0 0 810 809.999993" height="1080" preserveAspectRatio="xMidYMid meet" version="1.0"><path fill="#6c6cb8" d="M 524.8125 809.664062 L 320.625 809.664062 C 311.308594 809.664062 303.75 802.101562 303.75 792.789062 C 303.75 746.28125 341.617188 708.414062 388.125 708.414062 L 414.890625 708.414062 L 285.863281 579.386719 C 275.90625 569.429688 270.40625 556.199219 270.40625 542.125 C 270.40625 528.050781 275.90625 514.824219 285.863281 504.867188 C 305.742188 485.019531 340.4375 484.953125 360.347656 504.867188 L 390.589844 535.105469 C 393.152344 529.335938 396.765625 523.933594 401.488281 519.242188 C 413.203125 507.53125 429.976562 502.03125 446.109375 504.328125 C 448.03125 494.335938 452.824219 484.785156 460.550781 477.054688 C 475.300781 462.308594 496.632812 458.121094 515.125 464.570312 C 517.589844 456.804688 521.910156 449.484375 528.050781 443.304688 C 548.574219 422.785156 582.019531 422.785156 602.539062 443.304688 L 654.851562 495.617188 C 689.613281 530.414062 708.75 576.585938 708.75 625.726562 C 708.75 727.144531 626.230469 809.664062 524.8125 809.664062 Z M 340.367188 775.914062 L 524.8125 775.914062 C 607.636719 775.914062 675 708.546875 675 625.726562 C 675 585.628906 659.375 547.898438 631.023438 519.546875 L 578.710938 467.234375 C 571.320312 459.84375 559.339844 459.84375 551.949219 467.234375 C 544.554688 474.625 544.554688 486.609375 551.949219 494 C 555.253906 497.304688 556.875 501.625 556.875 505.945312 C 556.875 510.265625 555.222656 514.585938 551.949219 517.894531 C 545.367188 524.476562 534.667969 524.476562 528.085938 517.894531 L 511.210938 501.019531 C 503.820312 493.628906 491.839844 493.628906 484.449219 501.019531 C 480.871094 504.597656 478.914062 509.355469 478.914062 514.382812 C 478.914062 519.414062 480.871094 524.203125 484.449219 527.75 L 501.324219 544.625 C 504.597656 547.898438 506.25 552.21875 506.25 556.539062 C 506.25 560.859375 504.597656 565.175781 501.324219 568.484375 C 494.742188 575.066406 484.042969 575.066406 477.460938 568.484375 L 452.148438 543.171875 C 444.992188 536.015625 432.539062 536.015625 425.386719 543.171875 C 421.808594 546.75 419.851562 551.507812 419.851562 556.539062 C 419.851562 561.566406 421.808594 566.359375 425.386719 569.902344 L 467.574219 612.089844 C 470.847656 615.398438 472.5 619.71875 472.5 624.039062 C 472.5 628.359375 470.847656 632.675781 467.574219 635.984375 C 460.992188 642.566406 450.292969 642.566406 443.710938 635.984375 L 336.488281 528.761719 C 329.332031 521.605469 316.878906 521.640625 309.722656 528.761719 C 306.144531 532.339844 304.15625 537.097656 304.15625 542.125 C 304.15625 547.15625 306.144531 551.949219 309.722656 555.492188 L 467.539062 713.304688 C 472.363281 718.132812 473.816406 725.390625 471.183594 731.699219 C 468.585938 738.011719 462.410156 742.128906 455.589844 742.128906 L 388.089844 742.128906 C 366.121094 742.164062 347.355469 756.269531 340.367188 775.914062 Z M 340.367188 775.914062 " fill-opacity="1" fill-rule="nonzero"/><path fill="#6c6cb8" d="M 118.125 691.539062 C 52.988281 691.539062 0 638.550781 0 573.414062 C 0 508.273438 52.988281 455.289062 118.125 455.289062 C 183.261719 455.289062 236.25 508.273438 236.25 573.414062 C 236.25 638.550781 183.261719 691.539062 118.125 691.539062 Z M 118.125 489.039062 C 71.617188 489.039062 33.75 526.90625 33.75 573.414062 C 33.75 619.917969 71.617188 657.789062 118.125 657.789062 C 164.632812 657.789062 202.5 619.921875 202.5 573.414062 C 202.5 526.90625 164.632812 489.039062 118.125 489.039062 Z M 118.125 489.039062 " fill-opacity="1" fill-rule="nonzero"/><path fill="#6c6cb8" d="M 715.734375 233.078125 C 708.140625 233.078125 701.222656 227.914062 699.367188 220.183594 C 697.171875 211.105469 702.742188 201.992188 711.789062 199.800781 C 720.933594 197.574219 729.609375 193.859375 737.503906 188.765625 C 745.367188 183.769531 755.796875 185.960938 760.828125 193.828125 C 765.855469 201.65625 763.628906 212.117188 755.765625 217.148438 C 744.695312 224.269531 732.578125 229.464844 719.753906 232.605469 C 718.402344 232.941406 717.050781 233.078125 715.734375 233.078125 Z M 649.753906 226.765625 C 647.425781 226.765625 645.03125 226.261719 642.734375 225.246094 C 630.789062 219.78125 619.851562 212.390625 610.300781 203.242188 C 603.550781 196.828125 603.316406 186.132812 609.761719 179.382812 C 616.207031 172.632812 626.90625 172.359375 633.621094 178.839844 C 640.441406 185.355469 648.234375 190.652344 656.808594 194.535156 C 665.28125 198.417969 668.992188 208.40625 665.144531 216.910156 C 662.308594 223.121094 656.167969 226.765625 649.753906 226.765625 Z M 787.589844 167.769531 C 785.765625 167.769531 783.910156 167.46875 782.054688 166.859375 C 773.246094 163.824219 768.589844 154.203125 771.625 145.394531 C 774.699219 136.550781 776.25 127.238281 776.25 117.789062 C 776.25 109.6875 775.136719 101.6875 772.875 94.027344 C 770.242188 85.082031 775.371094 75.734375 784.316406 73.070312 C 793.359375 70.539062 802.640625 75.601562 805.273438 84.511719 C 808.414062 95.308594 810 106.515625 810 117.820312 C 810 131.050781 807.839844 144.046875 803.554688 156.429688 C 801.125 163.382812 794.578125 167.769531 787.589844 167.769531 Z M 591.605469 149.039062 C 583.335938 149.039062 576.144531 142.964844 574.898438 134.5625 C 574.121094 129.058594 573.75 123.457031 573.75 117.71875 C 573.75 110.09375 574.457031 102.632812 575.875 95.378906 C 577.632812 86.265625 586.40625 80.292969 595.652344 82.011719 C 604.800781 83.765625 610.773438 92.609375 609.019531 101.789062 C 608.039062 106.988281 607.5 112.320312 607.5 117.789062 C 607.5 121.90625 607.769531 125.886719 608.34375 129.769531 C 609.660156 138.984375 603.28125 147.554688 594.035156 148.871094 C 593.222656 148.972656 592.414062 149.039062 591.605469 149.039062 Z M 625.589844 58.117188 C 620.863281 58.117188 616.171875 56.125 612.832031 52.277344 C 606.722656 45.257812 607.5 34.59375 614.519531 28.519531 C 624.476562 19.878906 635.75 13.027344 647.933594 8.132812 C 656.574219 4.65625 666.394531 8.875 669.871094 17.484375 C 673.347656 26.121094 669.160156 35.976562 660.519531 39.421875 C 651.78125 42.929688 643.746094 47.859375 636.59375 54.035156 C 633.453125 56.765625 629.503906 58.117188 625.589844 58.117188 Z M 750.601562 52.175781 C 747.191406 52.175781 743.78125 51.164062 740.8125 49.039062 C 733.152344 43.570312 724.679688 39.453125 715.667969 36.820312 C 706.726562 34.1875 701.59375 24.839844 704.226562 15.863281 C 706.859375 6.917969 716.277344 1.824219 725.1875 4.421875 C 737.84375 8.132812 749.722656 13.90625 760.453125 21.601562 C 768.046875 27.035156 769.804688 37.5625 764.371094 45.125 C 761.027344 49.714844 755.863281 52.175781 750.601562 52.175781 Z M 750.601562 52.175781 " fill-opacity="1" fill-rule="nonzero"/><path fill="#6c6cb8" d="M 168.75 489.039062 C 167.433594 489.039062 166.117188 488.902344 164.765625 488.566406 C 155.6875 486.40625 150.121094 477.292969 152.3125 468.214844 C 154.945312 457.3125 159.570312 445.5 166.050781 433.046875 C 170.371094 424.777344 180.5625 421.570312 188.832031 425.890625 C 197.101562 430.210938 200.273438 440.402344 195.984375 448.671875 C 190.753906 458.664062 187.109375 467.910156 185.117188 476.109375 C 183.296875 483.839844 176.378906 489.039062 168.75 489.039062 Z M 219.140625 402.03125 C 215.390625 402.03125 211.578125 400.78125 208.472656 398.214844 C 201.25 392.308594 200.203125 381.679688 206.109375 374.457031 C 213.199219 365.816406 220.859375 357.042969 228.992188 348.234375 C 235.339844 341.382812 245.96875 340.976562 252.855469 347.289062 C 259.707031 353.632812 260.109375 364.296875 253.800781 371.148438 C 246.105469 379.453125 238.917969 387.6875 232.234375 395.855469 C 228.859375 399.902344 224.03125 402.03125 219.140625 402.03125 Z M 289.304688 328.925781 C 284.75 328.925781 280.191406 327.105469 276.886719 323.460938 C 270.574219 316.609375 271.046875 305.910156 277.898438 299.597656 C 286.265625 291.902344 294.839844 284.277344 303.613281 276.785156 C 310.703125 270.777344 321.332031 271.519531 327.410156 278.640625 C 333.484375 285.695312 332.640625 296.359375 325.550781 302.433594 C 317.113281 309.722656 308.777344 317.082031 300.746094 324.507812 C 297.472656 327.476562 293.390625 328.925781 289.304688 328.925781 Z M 367.300781 264.128906 C 362.203125 264.128906 357.140625 261.832031 353.835938 257.410156 C 348.199219 249.984375 349.683594 239.390625 357.140625 233.785156 C 366.324219 226.832031 375.570312 220.082031 384.851562 213.503906 C 392.480469 208.101562 402.976562 209.925781 408.375 217.550781 C 413.773438 225.144531 411.953125 235.675781 404.324219 241.078125 C 395.347656 247.421875 386.371094 253.96875 377.460938 260.71875 C 374.421875 263.015625 370.84375 264.128906 367.300781 264.128906 Z M 451.070312 207.089844 C 445.363281 207.089844 439.796875 204.1875 436.625 198.957031 C 431.796875 190.992188 434.363281 180.628906 442.328125 175.769531 C 452.484375 169.59375 462.511719 163.824219 472.332031 158.523438 C 480.53125 154.070312 490.757812 157.140625 495.214844 165.308594 C 499.667969 173.507812 496.632812 183.734375 488.429688 188.191406 C 479.082031 193.253906 469.53125 198.753906 459.808594 204.625 C 457.042969 206.28125 454.039062 207.089844 451.070312 207.089844 Z M 541.6875 161.964844 C 534.769531 161.964844 528.289062 157.679688 525.792969 150.796875 C 522.652344 142.019531 527.207031 132.367188 535.984375 129.195312 C 548.875 124.570312 560.789062 121.332031 571.386719 119.507812 C 580.566406 118.058594 589.273438 124.132812 590.859375 133.347656 C 592.414062 142.527344 586.238281 151.234375 577.023438 152.820312 C 568.382812 154.269531 558.394531 157.039062 547.390625 160.988281 C 545.5 161.664062 543.578125 161.964844 541.6875 161.964844 Z M 541.6875 161.964844 " fill-opacity="1" fill-rule="nonzero"/></svg>