<svg xmlns="http://www.w3.org/2000/svg" xmlns:xlink="http://www.w3.org/1999/xlink" width="1080" zoomAndPan="magnify" viewBox="0 0 810 809.999993" height="1080" preserveAspectRatio="xMidYMid meet" version="1.0"><defs><clipPath id="0c224d8215"><path d="M 89.605469 0 L 720 0 L 720 810 L 89.605469 810 Z M 89.605469 0 " clip-rule="nonzero"/></clipPath><clipPath id="8658e7a018"><rect x="0" width="631" y="0" height="810"/></clipPath></defs><g clip-path="url(#0c224d8215)"><g transform="matrix(1, 0, 0, 1, 89, 0.000000000000039746)"><g clip-path="url(#8658e7a018)"><path fill="#475dd7" d="M 242.359375 558.585938 L 242.359375 73.636719 C 242.359375 32.929688 275.328125 0 316 0 C 356.679688 0 389.636719 32.929688 389.636719 73.636719 L 389.636719 558.585938 L 498.222656 450 C 512.613281 435.617188 531.433594 428.425781 550.277344 428.425781 C 569.125 428.425781 587.96875 435.617188 602.34375 450 C 631.097656 478.746094 631.097656 525.375 602.34375 554.121094 L 368.136719 788.371094 C 364.679688 791.800781 360.910156 794.878906 356.839844 797.589844 C 354.976562 798.847656 352.898438 799.730469 350.929688 800.8125 C 348.703125 802.007812 346.570312 803.386719 344.1875 804.347656 C 341.683594 805.390625 339.046875 806.003906 336.464844 806.761719 C 334.449219 807.335938 332.523438 808.128906 330.433594 808.542969 C 325.664062 809.496094 320.859375 810 316 810 C 311.140625 810 306.324219 809.496094 301.5625 808.53125 C 299.476562 808.117188 297.558594 807.335938 295.542969 806.75 C 292.949219 805.996094 290.320312 805.382812 287.8125 804.339844 C 285.433594 803.375 283.300781 802.007812 281.070312 800.800781 C 279.089844 799.714844 277.046875 798.839844 275.15625 797.578125 C 271.097656 794.871094 267.316406 791.792969 263.890625 788.363281 L 29.65625 554.121094 C 0.882812 525.375 0.882812 478.746094 29.65625 450 C 44.035156 435.617188 62.875 428.425781 81.71875 428.425781 C 100.566406 428.425781 119.421875 435.617188 133.785156 450 Z M 242.359375 558.585938 " fill-opacity="1" fill-rule="nonzero"/></g></g></g></svg>