<svg xmlns="http://www.w3.org/2000/svg" xmlns:xlink="http://www.w3.org/1999/xlink" width="1080" zoomAndPan="magnify" viewBox="0 0 810 809.999993" height="1080" preserveAspectRatio="xMidYMid meet" version="1.0"><path fill="#475dd7" d="M 0 675 L 0 585 C 0 560.128906 20.128906 540 45 540 C 69.871094 540 90 560.128906 90 585 L 90 675 C 90 699.828125 110.171875 720 135 720 L 675 720 C 699.828125 720 720 699.828125 720 675 L 720 585 C 720 560.128906 740.128906 540 765 540 C 789.871094 540 810 560.128906 810 585 L 810 675 C 810 749.445312 749.445312 810 675 810 L 135 810 C 60.554688 810 0 749.445312 0 675 Z M 148.183594 238.183594 C 130.605469 255.761719 130.605469 284.238281 148.183594 301.816406 L 373.183594 526.816406 C 381.972656 535.605469 393.484375 540 405 540 C 416.515625 540 428.027344 535.605469 436.816406 526.816406 L 661.816406 301.816406 C 679.394531 284.238281 679.394531 255.761719 661.816406 238.183594 C 644.238281 220.605469 615.761719 220.605469 598.183594 238.183594 L 450 386.367188 L 450 45 C 450 20.128906 429.871094 0 405 0 C 380.128906 0 360 20.128906 360 45 L 360 386.367188 L 211.816406 238.183594 C 194.238281 220.605469 165.761719 220.605469 148.183594 238.183594 Z M 148.183594 238.183594 " fill-opacity="1" fill-rule="nonzero"/></svg>