<svg xmlns="http://www.w3.org/2000/svg" xmlns:xlink="http://www.w3.org/1999/xlink" width="1080" zoomAndPan="magnify" viewBox="0 0 810 809.999993" height="1080" preserveAspectRatio="xMidYMid meet" version="1.0"><path fill="#475dd7" d="M 368.445312 776 L 41.929688 776 C 18.777344 776 0 757.21875 0 734.066406 L 0 75.929688 C 0 52.777344 18.777344 34 41.929688 34 L 473.820312 34 C 496.976562 34 515.753906 52.777344 515.753906 75.929688 L 515.753906 364.890625 C 515.753906 371.636719 510.285156 377.105469 503.539062 377.105469 C 496.792969 377.105469 491.324219 371.636719 491.324219 364.890625 L 491.324219 75.929688 C 491.324219 66.269531 483.484375 58.609375 474.003906 58.609375 L 42.113281 58.609375 C 32.632812 58.609375 24.792969 66.449219 24.792969 75.929688 L 24.792969 734.066406 C 24.792969 743.730469 32.632812 751.386719 42.113281 751.386719 L 363.523438 751.386719 L 491.324219 619.394531 L 491.324219 463.703125 C 491.324219 456.957031 496.792969 451.488281 503.539062 451.488281 C 510.285156 451.488281 515.753906 456.957031 515.753906 463.703125 L 515.753906 624.316406 C 515.753906 627.417969 514.476562 630.515625 512.289062 632.886719 L 377.378906 772.167969 C 375.011719 774.722656 371.730469 776 368.445312 776 Z M 368.445312 776 " fill-opacity="1" fill-rule="evenodd"/><path fill="#475dd7" d="M 368.445312 776 C 361.703125 776 356.230469 770.527344 356.230469 763.785156 L 356.230469 624.316406 C 356.230469 617.570312 361.703125 612.101562 368.445312 612.101562 L 503.355469 612.101562 C 510.101562 612.101562 515.570312 617.570312 515.570312 624.316406 C 515.570312 631.0625 510.101562 636.53125 503.355469 636.53125 L 380.84375 636.53125 L 380.84375 763.785156 C 380.660156 770.527344 375.191406 776 368.445312 776 Z M 368.445312 776 " fill-opacity="1" fill-rule="evenodd"/><path fill="#475dd7" d="M 487.675781 397.890625 L 471.632812 458.597656 L 538.542969 443.464844 L 775.726562 204.09375 C 782.105469 197.714844 785.386719 189.328125 785.386719 180.394531 C 785.386719 171.460938 781.742188 163.074219 775.359375 156.695312 C 762.417969 143.933594 741.453125 143.933594 728.507812 156.875 Z M 454.679688 487.21875 C 451.398438 487.21875 448.117188 485.945312 445.929688 483.390625 C 443.011719 480.292969 441.734375 475.917969 442.828125 471.722656 L 464.886719 388.226562 C 465.433594 386.222656 466.53125 384.214844 467.988281 382.757812 L 711.1875 139.375 C 733.613281 116.949219 770.074219 116.769531 792.679688 139.007812 C 803.800781 149.949219 809.816406 164.53125 810 180.027344 C 810.183594 195.527344 804.167969 210.109375 793.226562 221.230469 L 553.492188 463.15625 C 551.851562 464.796875 549.664062 466.074219 547.476562 466.4375 L 457.414062 487.039062 C 456.503906 487.21875 455.589844 487.21875 454.679688 487.21875 Z M 454.679688 487.21875 " fill-opacity="1" fill-rule="evenodd"/><path fill="#475dd7" d="M 762.964844 246.570312 C 759.863281 246.570312 756.765625 245.476562 754.394531 243.109375 L 688.765625 179.847656 C 683.84375 175.105469 683.660156 167.449219 688.398438 162.527344 C 693.140625 157.605469 700.796875 157.421875 705.71875 162.164062 L 771.351562 225.605469 C 776.273438 230.347656 776.457031 238.003906 771.714844 242.925781 C 769.34375 245.296875 766.246094 246.570312 762.964844 246.570312 Z M 762.964844 246.570312 " fill-opacity="1" fill-rule="evenodd"/><path fill="#475dd7" d="M 544.738281 466.800781 C 541.824219 466.800781 538.722656 465.707031 536.355469 463.519531 L 468.351562 400.625 C 463.429688 396.066406 463.066406 388.226562 467.625 383.304688 C 472.179688 378.382812 480.019531 378.015625 484.941406 382.574219 L 552.945312 445.652344 C 557.867188 450.210938 558.230469 458.050781 553.671875 462.972656 C 551.304688 465.527344 548.023438 466.800781 544.738281 466.800781 Z M 544.738281 466.800781 " fill-opacity="1" fill-rule="evenodd"/><path fill="#475dd7" d="M 406.550781 159.0625 L 104.464844 159.0625 C 97.71875 159.0625 92.25 153.59375 92.25 146.847656 C 92.25 140.105469 97.71875 134.632812 104.464844 134.632812 L 406.550781 134.632812 C 413.296875 134.632812 418.765625 140.105469 418.765625 146.847656 C 418.765625 153.59375 413.296875 159.0625 406.550781 159.0625 Z M 406.550781 159.0625 " fill-opacity="1" fill-rule="evenodd"/><path fill="#475dd7" d="M 406.550781 249.125 L 104.464844 249.125 C 97.71875 249.125 92.25 243.65625 92.25 236.910156 C 92.25 230.164062 97.71875 224.695312 104.464844 224.695312 L 406.550781 224.695312 C 413.296875 224.695312 418.765625 230.164062 418.765625 236.910156 C 418.765625 243.65625 413.296875 249.125 406.550781 249.125 Z M 406.550781 249.125 " fill-opacity="1" fill-rule="evenodd"/><path fill="#475dd7" d="M 406.550781 335.902344 L 104.464844 335.902344 C 97.71875 335.902344 92.25 330.433594 92.25 323.6875 C 92.25 316.945312 97.71875 311.472656 104.464844 311.472656 L 406.550781 311.472656 C 413.296875 311.472656 418.765625 316.945312 418.765625 323.6875 C 418.765625 330.433594 413.296875 335.902344 406.550781 335.902344 Z M 406.550781 335.902344 " fill-opacity="1" fill-rule="evenodd"/><path fill="#475dd7" d="M 406.550781 425.964844 L 104.464844 425.964844 C 97.71875 425.964844 92.25 420.496094 92.25 413.75 C 92.25 407.003906 97.71875 401.535156 104.464844 401.535156 L 406.550781 401.535156 C 413.296875 401.535156 418.765625 407.003906 418.765625 413.75 C 418.765625 420.496094 413.296875 425.964844 406.550781 425.964844 Z M 406.550781 425.964844 " fill-opacity="1" fill-rule="evenodd"/><path fill="#475dd7" d="M 313.9375 516.023438 L 104.464844 516.023438 C 97.71875 516.023438 92.25 510.554688 92.25 503.808594 C 92.25 497.066406 97.71875 491.597656 104.464844 491.597656 L 313.9375 491.597656 C 320.683594 491.597656 326.152344 497.066406 326.152344 503.808594 C 326.152344 510.554688 320.683594 516.023438 313.9375 516.023438 Z M 313.9375 516.023438 " fill-opacity="1" fill-rule="evenodd"/></svg>