<svg xmlns="http://www.w3.org/2000/svg" xmlns:xlink="http://www.w3.org/1999/xlink" width="1080" zoomAndPan="magnify" viewBox="0 0 810 809.999993" height="1080" preserveAspectRatio="xMidYMid meet" version="1.0"><defs><clipPath id="4ea5e3e9cc"><path d="M 5.0625 1 L 805 1 L 805 808 L 5.0625 808 Z M 5.0625 1 " clip-rule="nonzero"/></clipPath></defs><g clip-path="url(#4ea5e3e9cc)"><path fill="#475dd7" d="M 277.734375 144.59375 L 604.289062 144.59375 L 604.289062 129.917969 C 604.296875 125.207031 603.847656 120.542969 602.933594 115.917969 C 602.023438 111.296875 600.667969 106.808594 598.867188 102.457031 C 597.070312 98.101562 594.863281 93.96875 592.246094 90.050781 C 589.628906 86.132812 586.652344 82.507812 583.320312 79.179688 C 580.003906 75.90625 576.402344 72.976562 572.523438 70.394531 C 568.640625 67.808594 564.550781 65.621094 560.246094 63.824219 C 555.945312 62.027344 551.511719 60.660156 546.945312 59.714844 C 542.378906 58.769531 537.765625 58.269531 533.105469 58.210938 L 147.320312 58.210938 C 144.5 58.25 141.6875 58.425781 138.886719 58.738281 C 136.082031 59.046875 133.300781 59.496094 130.542969 60.078125 C 127.78125 60.65625 125.058594 61.371094 122.367188 62.21875 C 119.675781 63.0625 117.03125 64.039062 114.4375 65.140625 C 111.839844 66.246094 109.304688 67.46875 106.828125 68.820312 C 104.351562 70.167969 101.945312 71.636719 99.613281 73.21875 C 97.277344 74.800781 95.023438 76.492188 92.855469 78.292969 C 90.683594 80.097656 88.609375 82 86.621094 84 C 84.648438 86.011719 82.777344 88.113281 81.003906 90.304688 C 79.230469 92.496094 77.566406 94.765625 76.011719 97.117188 C 74.457031 99.464844 73.015625 101.882812 71.695312 104.371094 C 70.371094 106.859375 69.167969 109.40625 68.089844 112.007812 C 67.007812 114.609375 66.054688 117.257812 65.230469 119.953125 C 64.40625 122.648438 63.710938 125.375 63.144531 128.136719 C 62.578125 130.894531 62.148438 133.679688 61.847656 136.480469 C 61.550781 139.28125 61.386719 142.09375 61.359375 144.910156 L 61.359375 533.839844 C 61.371094 538.539062 61.839844 543.191406 62.761719 547.800781 C 63.6875 552.410156 65.046875 556.882812 66.84375 561.226562 C 68.640625 565.566406 70.84375 569.695312 73.449219 573.605469 C 76.054688 577.519531 79.011719 581.140625 82.324219 584.472656 C 85.625 587.816406 89.222656 590.796875 93.121094 593.421875 C 97.019531 596.042969 101.136719 598.253906 105.472656 600.054688 C 109.8125 601.855469 114.285156 603.207031 118.894531 604.113281 C 123.503906 605.019531 128.15625 605.464844 132.855469 605.441406 L 147.109375 605.441406 L 147.109375 276.160156 C 147.097656 271.859375 147.296875 267.5625 147.710938 263.28125 C 148.121094 258.996094 148.738281 254.746094 149.570312 250.523438 C 150.398438 246.300781 151.429688 242.128906 152.671875 238.007812 C 153.910156 233.886719 155.347656 229.835938 156.984375 225.859375 C 158.621094 221.878906 160.453125 217.988281 162.472656 214.191406 C 164.492188 210.390625 166.691406 206.699219 169.074219 203.117188 C 171.460938 199.53125 174.011719 196.074219 176.734375 192.742188 C 179.457031 189.414062 182.339844 186.222656 185.375 183.171875 C 188.371094 180.121094 191.511719 177.226562 194.796875 174.484375 C 198.085938 171.746094 201.496094 169.175781 205.039062 166.777344 C 208.582031 164.375 212.234375 162.15625 215.996094 160.121094 C 219.757812 158.085938 223.613281 156.242188 227.558594 154.589844 C 231.503906 152.9375 235.523438 151.484375 239.613281 150.234375 C 243.703125 148.980469 247.847656 147.9375 252.042969 147.097656 C 256.238281 146.257812 260.460938 145.628906 264.71875 145.210938 C 268.976562 144.792969 273.246094 144.589844 277.523438 144.59375 Z M 618.859375 447.246094 C 619.808594 447.246094 620.753906 447.292969 621.695312 447.386719 C 622.636719 447.480469 623.574219 447.617188 624.503906 447.804688 C 625.433594 447.988281 626.351562 448.21875 627.257812 448.492188 C 628.164062 448.769531 629.054688 449.085938 629.929688 449.449219 C 630.808594 449.8125 631.664062 450.21875 632.5 450.664062 C 633.335938 451.109375 634.144531 451.597656 634.933594 452.125 C 635.722656 452.648438 636.480469 453.214844 637.214844 453.816406 C 637.945312 454.417969 638.648438 455.050781 639.316406 455.722656 C 639.988281 456.390625 640.625 457.09375 641.226562 457.824219 C 641.828125 458.558594 642.390625 459.320312 642.917969 460.105469 C 643.441406 460.894531 643.929688 461.707031 644.375 462.542969 C 644.824219 463.378906 645.226562 464.234375 645.589844 465.109375 C 645.953125 465.984375 646.273438 466.875 646.546875 467.78125 C 646.820312 468.6875 647.050781 469.609375 647.238281 470.535156 C 647.421875 471.464844 647.5625 472.402344 647.652344 473.34375 C 647.746094 474.289062 647.792969 475.234375 647.792969 476.179688 C 647.792969 477.128906 647.746094 478.074219 647.652344 479.019531 C 647.5625 479.960938 647.421875 480.898438 647.238281 481.828125 C 647.050781 482.753906 646.820312 483.675781 646.546875 484.582031 C 646.273438 485.488281 645.953125 486.378906 645.589844 487.253906 C 645.226562 488.128906 644.824219 488.984375 644.375 489.820312 C 643.929688 490.65625 643.441406 491.46875 642.917969 492.257812 C 642.390625 493.042969 641.828125 493.804688 641.226562 494.535156 C 640.625 495.269531 639.988281 495.972656 639.316406 496.640625 C 638.648438 497.3125 637.945312 497.945312 637.214844 498.546875 C 636.480469 499.148438 635.722656 499.710938 634.933594 500.238281 C 634.144531 500.765625 633.332031 501.253906 632.5 501.699219 C 631.664062 502.144531 630.808594 502.550781 629.929688 502.914062 C 629.054688 503.277344 628.164062 503.59375 627.257812 503.871094 C 626.351562 504.144531 625.433594 504.375 624.503906 504.558594 C 623.574219 504.746094 622.636719 504.882812 621.695312 504.976562 C 620.753906 505.070312 619.808594 505.117188 618.859375 505.117188 L 504.488281 505.117188 L 504.488281 620.429688 C 504.488281 621.367188 504.441406 622.296875 504.347656 623.226562 C 504.257812 624.15625 504.121094 625.078125 503.9375 625.996094 C 503.757812 626.910156 503.53125 627.816406 503.257812 628.707031 C 502.988281 629.601562 502.671875 630.480469 502.316406 631.34375 C 501.957031 632.207031 501.558594 633.050781 501.121094 633.875 C 500.679688 634.695312 500.199219 635.496094 499.679688 636.273438 C 499.160156 637.050781 498.605469 637.800781 498.015625 638.519531 C 497.421875 639.242188 496.796875 639.933594 496.132812 640.59375 C 495.472656 641.253906 494.785156 641.882812 494.0625 642.472656 C 493.339844 643.066406 492.589844 643.621094 491.8125 644.140625 C 491.039062 644.660156 490.238281 645.140625 489.414062 645.578125 C 488.589844 646.019531 487.746094 646.417969 486.882812 646.777344 C 486.019531 647.132812 485.144531 647.445312 484.25 647.71875 C 483.355469 647.988281 482.449219 648.214844 481.535156 648.398438 C 480.617188 648.582031 479.695312 648.71875 478.765625 648.808594 C 477.835938 648.902344 476.90625 648.945312 475.972656 648.945312 C 475.039062 648.945312 474.105469 648.902344 473.175781 648.808594 C 472.246094 648.71875 471.324219 648.582031 470.410156 648.398438 C 469.492188 648.214844 468.589844 647.988281 467.695312 647.71875 C 466.800781 647.445312 465.921875 647.132812 465.058594 646.777344 C 464.195312 646.417969 463.355469 646.019531 462.53125 645.578125 C 461.707031 645.140625 460.90625 644.660156 460.128906 644.140625 C 459.351562 643.621094 458.605469 643.066406 457.882812 642.472656 C 457.160156 641.882812 456.46875 641.253906 455.808594 640.59375 C 455.148438 639.933594 454.523438 639.242188 453.929688 638.519531 C 453.335938 637.800781 452.78125 637.050781 452.261719 636.273438 C 451.742188 635.496094 451.265625 634.695312 450.824219 633.875 C 450.382812 633.050781 449.984375 632.207031 449.628906 631.34375 C 449.269531 630.480469 448.957031 629.601562 448.683594 628.707031 C 448.414062 627.816406 448.1875 626.910156 448.003906 625.996094 C 447.824219 625.078125 447.6875 624.15625 447.59375 623.226562 C 447.503906 622.296875 447.457031 621.367188 447.457031 620.429688 L 447.457031 505.117188 L 332.980469 505.117188 C 332.03125 505.117188 331.085938 505.070312 330.144531 504.976562 C 329.199219 504.882812 328.265625 504.746094 327.335938 504.558594 C 326.40625 504.375 325.488281 504.144531 324.582031 503.871094 C 323.675781 503.59375 322.78125 503.277344 321.90625 502.914062 C 321.03125 502.550781 320.175781 502.144531 319.339844 501.699219 C 318.503906 501.253906 317.691406 500.765625 316.90625 500.238281 C 316.117188 499.710938 315.355469 499.148438 314.625 498.546875 C 313.890625 497.945312 313.191406 497.3125 312.519531 496.640625 C 311.851562 495.972656 311.214844 495.269531 310.613281 494.535156 C 310.011719 493.804688 309.449219 493.042969 308.921875 492.257812 C 308.394531 491.46875 307.910156 490.65625 307.460938 489.820312 C 307.015625 488.984375 306.609375 488.128906 306.25 487.253906 C 305.886719 486.378906 305.566406 485.488281 305.292969 484.582031 C 305.015625 483.675781 304.785156 482.753906 304.601562 481.828125 C 304.417969 480.898438 304.277344 479.960938 304.183594 479.019531 C 304.09375 478.074219 304.046875 477.128906 304.046875 476.179688 C 304.046875 475.234375 304.09375 474.289062 304.183594 473.34375 C 304.277344 472.402344 304.417969 471.464844 304.601562 470.535156 C 304.785156 469.609375 305.015625 468.6875 305.292969 467.78125 C 305.566406 466.875 305.886719 465.984375 306.25 465.109375 C 306.609375 464.234375 307.015625 463.378906 307.460938 462.542969 C 307.910156 461.707031 308.394531 460.894531 308.921875 460.105469 C 309.449219 459.320312 310.011719 458.558594 310.613281 457.824219 C 311.214844 457.09375 311.851562 456.390625 312.519531 455.722656 C 313.191406 455.050781 313.890625 454.417969 314.625 453.816406 C 315.355469 453.214844 316.117188 452.648438 316.90625 452.125 C 317.691406 451.597656 318.503906 451.109375 319.339844 450.664062 C 320.175781 450.21875 321.03125 449.8125 321.90625 449.449219 C 322.78125 449.085938 323.675781 448.769531 324.582031 448.492188 C 325.488281 448.21875 326.40625 447.988281 327.335938 447.804688 C 328.265625 447.617188 329.199219 447.480469 330.144531 447.386719 C 331.085938 447.292969 332.03125 447.246094 332.980469 447.246094 L 447.457031 447.246094 L 447.457031 331.929688 C 447.457031 330.996094 447.5 330.0625 447.589844 329.132812 C 447.679688 328.203125 447.816406 327.28125 448 326.363281 C 448.179688 325.445312 448.40625 324.539062 448.675781 323.644531 C 448.945312 322.75 449.261719 321.871094 449.617188 321.007812 C 449.972656 320.144531 450.371094 319.300781 450.8125 318.472656 C 451.25 317.648438 451.730469 316.847656 452.25 316.070312 C 452.769531 315.292969 453.324219 314.542969 453.914062 313.820312 C 454.507812 313.097656 455.132812 312.40625 455.796875 311.742188 C 456.457031 311.082031 457.148438 310.453125 457.871094 309.859375 C 458.589844 309.269531 459.339844 308.710938 460.117188 308.191406 C 460.894531 307.671875 461.695312 307.191406 462.519531 306.75 C 463.34375 306.308594 464.1875 305.910156 465.050781 305.550781 C 465.914062 305.195312 466.792969 304.878906 467.6875 304.609375 C 468.582031 304.335938 469.488281 304.109375 470.402344 303.925781 C 471.320312 303.742188 472.246094 303.605469 473.175781 303.515625 C 474.105469 303.421875 475.039062 303.378906 475.972656 303.378906 C 476.90625 303.378906 477.839844 303.421875 478.769531 303.515625 C 479.699219 303.605469 480.621094 303.742188 481.539062 303.925781 C 482.457031 304.109375 483.363281 304.335938 484.257812 304.609375 C 485.152344 304.878906 486.03125 305.195312 486.894531 305.550781 C 487.757812 305.910156 488.601562 306.308594 489.425781 306.75 C 490.25 307.191406 491.050781 307.671875 491.824219 308.191406 C 492.601562 308.710938 493.351562 309.269531 494.074219 309.859375 C 494.796875 310.453125 495.488281 311.082031 496.148438 311.742188 C 496.808594 312.40625 497.4375 313.097656 498.027344 313.820312 C 498.621094 314.542969 499.175781 315.292969 499.695312 316.070312 C 500.214844 316.847656 500.691406 317.648438 501.132812 318.472656 C 501.570312 319.300781 501.96875 320.144531 502.328125 321.007812 C 502.683594 321.871094 502.996094 322.75 503.269531 323.644531 C 503.539062 324.539062 503.765625 325.445312 503.945312 326.363281 C 504.125 327.28125 504.261719 328.203125 504.351562 329.132812 C 504.441406 330.0625 504.488281 330.996094 504.488281 331.929688 L 504.488281 447.246094 Z M 661.421875 144.59375 L 674.105469 144.59375 C 678.394531 144.589844 682.675781 144.792969 686.945312 145.210938 C 691.214844 145.628906 695.453125 146.257812 699.660156 147.097656 C 703.867188 147.933594 708.019531 148.980469 712.125 150.230469 C 716.226562 151.484375 720.257812 152.933594 724.21875 154.585938 C 728.175781 156.238281 732.042969 158.082031 735.820312 160.117188 C 739.59375 162.152344 743.261719 164.371094 746.816406 166.773438 C 750.371094 169.171875 753.800781 171.742188 757.097656 174.480469 C 760.398438 177.222656 763.554688 180.121094 766.570312 183.171875 C 769.589844 186.230469 772.453125 189.429688 775.160156 192.769531 C 777.867188 196.105469 780.40625 199.566406 782.777344 203.152344 C 785.144531 206.742188 787.335938 210.433594 789.34375 214.234375 C 791.351562 218.035156 793.167969 221.921875 794.796875 225.902344 C 796.425781 229.878906 797.855469 233.925781 799.089844 238.046875 C 800.320312 242.164062 801.347656 246.332031 802.171875 250.550781 C 803 254.769531 803.613281 259.015625 804.023438 263.296875 C 804.433594 267.574219 804.632812 271.863281 804.621094 276.160156 L 804.621094 676.515625 C 804.628906 680.8125 804.425781 685.09375 804.011719 689.367188 C 803.597656 693.640625 802.980469 697.886719 802.152344 702.097656 C 801.324219 706.3125 800.296875 710.476562 799.0625 714.589844 C 797.828125 718.699219 796.398438 722.742188 794.769531 726.71875 C 793.140625 730.691406 791.324219 734.574219 789.316406 738.371094 C 787.3125 742.167969 785.125 745.855469 782.757812 749.4375 C 780.390625 753.019531 777.855469 756.480469 775.148438 759.8125 C 772.445312 763.148438 769.585938 766.34375 766.570312 769.398438 C 763.546875 772.4375 760.382812 775.316406 757.074219 778.042969 C 753.769531 780.769531 750.335938 783.324219 746.777344 785.710938 C 743.21875 788.097656 739.550781 790.300781 735.773438 792.324219 C 731.996094 794.347656 728.128906 796.183594 724.171875 797.824219 C 720.214844 799.46875 716.1875 800.910156 712.085938 802.15625 C 707.984375 803.398438 703.832031 804.4375 699.632812 805.273438 C 695.429688 806.109375 691.195312 806.734375 686.929688 807.152344 C 682.664062 807.566406 678.390625 807.773438 674.105469 807.769531 L 277.734375 807.769531 C 273.460938 807.773438 269.195312 807.566406 264.945312 807.148438 C 260.691406 806.734375 256.46875 806.105469 252.277344 805.273438 C 248.089844 804.4375 243.949219 803.398438 239.859375 802.152344 C 235.773438 800.90625 231.757812 799.464844 227.8125 797.820312 C 223.867188 796.179688 220.011719 794.34375 216.25 792.320312 C 212.488281 790.296875 208.832031 788.089844 205.289062 785.707031 C 201.742188 783.320312 198.324219 780.765625 195.03125 778.039062 C 191.742188 775.316406 188.589844 772.433594 185.585938 769.398438 C 182.550781 766.351562 179.675781 763.164062 176.957031 759.835938 C 174.238281 756.507812 171.6875 753.054688 169.304688 749.476562 C 166.925781 745.894531 164.726562 742.210938 162.707031 738.414062 C 160.6875 734.621094 158.859375 730.734375 157.222656 726.761719 C 155.585938 722.785156 154.148438 718.742188 152.90625 714.625 C 151.667969 710.511719 150.632812 706.34375 149.800781 702.125 C 148.96875 697.910156 148.347656 693.660156 147.933594 689.382812 C 147.515625 685.105469 147.3125 680.816406 147.320312 676.515625 L 147.320312 663.308594 L 133.0625 663.308594 C 128.839844 663.308594 124.628906 663.101562 120.425781 662.6875 C 116.222656 662.269531 112.050781 661.648438 107.910156 660.816406 C 103.769531 659.988281 99.683594 658.953125 95.644531 657.71875 C 91.605469 656.484375 87.640625 655.050781 83.742188 653.421875 C 79.847656 651.792969 76.042969 649.972656 72.328125 647.96875 C 68.609375 645.960938 65.003906 643.773438 61.503906 641.410156 C 58.007812 639.046875 54.632812 636.511719 51.386719 633.8125 C 48.136719 631.113281 45.03125 628.261719 42.070312 625.253906 C 39.097656 622.25 36.277344 619.105469 33.613281 615.828125 C 30.949219 612.546875 28.453125 609.144531 26.121094 605.617188 C 23.789062 602.09375 21.636719 598.460938 19.660156 594.726562 C 17.683594 590.992188 15.894531 587.167969 14.296875 583.257812 C 12.695312 579.34375 11.289062 575.363281 10.074219 571.316406 C 8.863281 567.269531 7.855469 563.167969 7.042969 559.023438 C 6.234375 554.875 5.628906 550.695312 5.226562 546.488281 C 4.824219 542.28125 4.632812 538.066406 4.644531 533.839844 L 4.644531 144.59375 C 4.636719 139.890625 4.859375 135.199219 5.316406 130.519531 C 5.769531 125.839844 6.453125 121.191406 7.363281 116.578125 C 8.277344 111.964844 9.410156 107.40625 10.769531 102.90625 C 12.128906 98.402344 13.707031 93.976562 15.5 89.628906 C 17.296875 85.285156 19.300781 81.035156 21.511719 76.886719 C 23.722656 72.734375 26.132812 68.703125 28.742188 64.789062 C 31.351562 60.878906 34.144531 57.101562 37.125 53.460938 C 40.101562 49.824219 43.253906 46.339844 46.578125 43.011719 C 49.875 39.683594 53.328125 36.527344 56.9375 33.542969 C 60.550781 30.558594 64.296875 27.761719 68.1875 25.148438 C 72.074219 22.535156 76.082031 20.121094 80.210938 17.90625 C 84.339844 15.691406 88.566406 13.6875 92.894531 11.890625 C 97.21875 10.097656 101.625 8.519531 106.109375 7.164062 C 110.589844 5.804688 115.128906 4.671875 119.726562 3.761719 C 124.320312 2.855469 128.953125 2.175781 133.613281 1.730469 C 138.277344 1.28125 142.949219 1.0625 147.636719 1.078125 L 533.316406 1.078125 C 537.519531 1.078125 541.710938 1.28125 545.894531 1.695312 C 550.074219 2.109375 554.226562 2.730469 558.347656 3.554688 C 562.46875 4.378906 566.539062 5.40625 570.558594 6.636719 C 574.574219 7.863281 578.523438 9.289062 582.402344 10.910156 C 586.28125 12.527344 590.066406 14.335938 593.765625 16.332031 C 597.464844 18.328125 601.054688 20.503906 604.539062 22.855469 C 608.023438 25.207031 611.378906 27.722656 614.613281 30.410156 C 617.847656 33.09375 620.9375 35.933594 623.890625 38.921875 C 626.855469 41.90625 629.667969 45.023438 632.328125 48.28125 C 634.992188 51.535156 637.488281 54.910156 639.820312 58.410156 C 642.152344 61.90625 644.3125 65.511719 646.296875 69.21875 C 648.277344 72.925781 650.078125 76.722656 651.691406 80.605469 C 653.304688 84.488281 654.726562 88.4375 655.957031 92.460938 C 657.1875 96.480469 658.21875 100.550781 659.050781 104.671875 C 659.886719 108.792969 660.519531 112.945312 660.949219 117.128906 C 661.378906 121.308594 661.609375 125.503906 661.632812 129.707031 L 661.632812 131.175781 Z M 674.105469 202.359375 L 277.734375 202.359375 C 272.941406 202.351562 268.195312 202.820312 263.496094 203.761719 C 258.796875 204.707031 254.234375 206.105469 249.816406 207.957031 C 245.394531 209.8125 241.203125 212.085938 237.238281 214.777344 C 233.273438 217.472656 229.613281 220.53125 226.261719 223.953125 C 224.5625 225.675781 222.953125 227.476562 221.433594 229.355469 C 219.914062 231.238281 218.492188 233.1875 217.167969 235.210938 C 215.84375 237.234375 214.625 239.316406 213.507812 241.460938 C 212.390625 243.605469 211.382812 245.800781 210.484375 248.046875 C 209.585938 250.289062 208.804688 252.574219 208.132812 254.898438 C 207.464844 257.21875 206.910156 259.570312 206.472656 261.949219 C 206.039062 264.328125 205.722656 266.71875 205.523438 269.128906 C 205.328125 271.539062 205.25 273.953125 205.292969 276.371094 L 205.292969 676.515625 C 205.292969 677.71875 205.324219 678.917969 205.382812 680.117188 C 205.441406 681.316406 205.527344 682.515625 205.648438 683.710938 C 205.765625 684.90625 205.910156 686.097656 206.085938 687.285156 C 206.265625 688.472656 206.46875 689.65625 206.703125 690.832031 C 206.9375 692.011719 207.199219 693.183594 207.492188 694.347656 C 207.785156 695.511719 208.105469 696.667969 208.453125 697.820312 C 208.800781 698.96875 209.179688 700.109375 209.582031 701.238281 C 209.988281 702.371094 210.417969 703.488281 210.878906 704.601562 C 211.339844 705.710938 211.824219 706.808594 212.339844 707.890625 C 212.851562 708.976562 213.390625 710.050781 213.957031 711.109375 C 214.523438 712.167969 215.117188 713.214844 215.734375 714.242188 C 216.351562 715.273438 216.992188 716.289062 217.660156 717.285156 C 218.328125 718.285156 219.019531 719.265625 219.734375 720.230469 C 220.449219 721.195312 221.1875 722.140625 221.949219 723.070312 C 222.710938 724 223.496094 724.910156 224.304688 725.796875 C 225.109375 726.6875 225.9375 727.558594 226.785156 728.40625 C 227.636719 729.257812 228.503906 730.082031 229.394531 730.890625 C 230.285156 731.695312 231.195312 732.480469 232.121094 733.242188 C 233.050781 734.003906 233.996094 734.742188 234.960938 735.457031 C 235.925781 736.175781 236.910156 736.867188 237.90625 737.53125 C 238.90625 738.199219 239.917969 738.84375 240.949219 739.460938 C 241.980469 740.078125 243.023438 740.667969 244.082031 741.234375 C 245.144531 741.800781 246.214844 742.339844 247.300781 742.855469 C 248.386719 743.367188 249.484375 743.855469 250.59375 744.3125 C 251.703125 744.773438 252.824219 745.207031 253.953125 745.609375 C 255.085938 746.015625 256.226562 746.390625 257.375 746.742188 C 258.523438 747.089844 259.679688 747.410156 260.847656 747.699219 C 262.011719 747.992188 263.183594 748.253906 264.359375 748.488281 C 265.539062 748.722656 266.722656 748.929688 267.910156 749.105469 C 269.097656 749.28125 270.289062 749.429688 271.484375 749.546875 C 272.679688 749.664062 273.875 749.753906 275.074219 749.8125 C 276.273438 749.871094 277.476562 749.898438 278.675781 749.898438 L 674.105469 749.898438 C 678.96875 749.90625 683.785156 749.4375 688.554688 748.496094 C 693.328125 747.554688 697.960938 746.15625 702.457031 744.304688 C 706.953125 742.453125 711.226562 740.179688 715.277344 737.488281 C 719.324219 734.792969 723.074219 731.734375 726.523438 728.304688 C 729.875 724.816406 732.863281 721.039062 735.484375 716.976562 C 738.105469 712.910156 740.316406 708.632812 742.113281 704.140625 C 743.910156 699.648438 745.261719 695.027344 746.164062 690.273438 C 747.070312 685.519531 747.511719 680.726562 747.488281 675.886719 L 747.488281 276.160156 C 747.527344 271.320312 747.097656 266.523438 746.203125 261.765625 C 745.304688 257.007812 743.957031 252.382812 742.160156 247.890625 C 740.363281 243.394531 738.148438 239.117188 735.515625 235.054688 C 732.886719 230.992188 729.886719 227.222656 726.523438 223.742188 C 723.089844 220.296875 719.347656 217.21875 715.300781 214.515625 C 711.257812 211.8125 706.984375 209.535156 702.484375 207.679688 C 697.984375 205.828125 693.347656 204.433594 688.570312 203.503906 C 683.792969 202.570312 678.972656 202.121094 674.105469 202.148438 Z M 674.105469 202.359375 " fill-opacity="1" fill-rule="nonzero"/></g></svg>