<svg xmlns="http://www.w3.org/2000/svg" xmlns:xlink="http://www.w3.org/1999/xlink" width="1080" zoomAndPan="magnify" viewBox="0 0 810 809.999993" height="1080" preserveAspectRatio="xMidYMid meet" version="1.0"><path fill="#6c6cb8" d="M 250.246094 709.152344 L 193.265625 709.152344 C 180.894531 709.152344 170.867188 699.128906 170.867188 686.757812 L 170.867188 552.671875 C 170.867188 540.300781 180.894531 530.273438 193.265625 530.273438 L 267.179688 530.273438 L 267.179688 575.066406 L 215.660156 575.066406 L 215.660156 664.359375 L 250.246094 664.359375 Z M 250.246094 709.152344 " fill-opacity="1" fill-rule="nonzero"/><path fill="#6c6cb8" d="M 285.035156 686.980469 C 279.238281 686.980469 273.625 684.730469 269.414062 680.632812 C 264.46875 675.820312 262.019531 668.996094 262.773438 662.136719 L 270.507812 591.8125 C 271.0625 586.746094 273.328125 582.023438 276.929688 578.421875 L 548.730469 306.621094 C 552.929688 302.421875 558.628906 300.0625 564.570312 300.0625 C 570.511719 300.0625 576.203125 302.421875 580.40625 306.621094 L 641.3125 367.523438 C 650.054688 376.269531 650.054688 390.449219 641.3125 399.195312 L 369.507812 670.996094 C 366.054688 674.453125 361.558594 676.6875 356.71875 677.351562 L 288.078125 686.769531 C 287.066406 686.90625 286.046875 686.976562 285.035156 686.976562 Z M 314.171875 604.53125 L 310.4375 638.492188 L 343.167969 634.003906 L 593.804688 383.363281 L 564.574219 354.132812 L 314.175781 604.53125 Z M 314.171875 604.53125 " fill-opacity="1" fill-rule="nonzero"/><path fill="#6c6cb8" d="M 325.375 277.722656 L 193.261719 277.722656 C 180.890625 277.722656 170.863281 267.695312 170.863281 255.324219 L 170.863281 123.214844 C 170.863281 110.84375 180.890625 100.816406 193.261719 100.816406 L 283.109375 100.816406 L 283.109375 145.609375 L 215.65625 145.609375 L 215.65625 232.929688 L 302.976562 232.929688 L 302.976562 208.761719 L 347.769531 208.761719 L 347.769531 255.324219 C 347.769531 267.695312 337.742188 277.722656 325.375 277.722656 Z M 325.375 277.722656 " fill-opacity="1" fill-rule="nonzero"/><path fill="#6c6cb8" d="M 274.75 224.996094 C 268.636719 224.996094 262.789062 222.5 258.566406 218.082031 L 220.792969 178.589844 L 253.164062 147.628906 L 274.726562 170.179688 L 332.265625 109.863281 L 364.675781 140.785156 L 290.953125 218.0625 C 286.734375 222.488281 280.878906 224.992188 274.761719 224.996094 L 274.746094 224.996094 Z M 274.75 224.996094 " fill-opacity="1" fill-rule="nonzero"/><path fill="#6c6cb8" d="M 325.375 491.910156 L 193.261719 491.910156 C 180.890625 491.910156 170.863281 481.882812 170.863281 469.511719 L 170.863281 337.402344 C 170.863281 325.03125 180.890625 315.003906 193.261719 315.003906 L 283.109375 315.003906 L 283.109375 359.796875 L 215.65625 359.796875 L 215.65625 447.117188 L 302.976562 447.117188 L 302.976562 422.949219 L 347.769531 422.949219 L 347.769531 469.511719 C 347.769531 481.882812 337.742188 491.910156 325.375 491.910156 Z M 325.375 491.910156 " fill-opacity="1" fill-rule="nonzero"/><path fill="#6c6cb8" d="M 274.75 439.183594 C 268.636719 439.183594 262.789062 436.6875 258.566406 432.265625 L 220.792969 392.773438 L 253.164062 361.816406 L 274.726562 384.367188 L 332.265625 324.054688 L 364.675781 354.972656 L 290.953125 432.25 C 286.734375 436.675781 280.878906 439.179688 274.761719 439.183594 L 274.746094 439.183594 Z M 274.75 439.183594 " fill-opacity="1" fill-rule="nonzero"/><path fill="#6c6cb8" d="M 703.617188 809.988281 L 106.382812 809.988281 C 94.011719 809.988281 83.984375 799.960938 83.984375 787.59375 L 83.984375 22.386719 C 83.984375 10.015625 94.011719 -0.0117188 106.382812 -0.0117188 L 703.617188 -0.0117188 C 715.988281 -0.0117188 726.015625 10.015625 726.015625 22.386719 L 726.015625 787.59375 C 726.015625 799.960938 715.988281 809.988281 703.617188 809.988281 Z M 128.777344 765.195312 L 681.222656 765.195312 L 681.222656 44.78125 L 128.777344 44.78125 Z M 128.777344 765.195312 " fill-opacity="1" fill-rule="nonzero"/></svg>