<svg xmlns="http://www.w3.org/2000/svg" xmlns:xlink="http://www.w3.org/1999/xlink" width="1080" zoomAndPan="magnify" viewBox="0 0 810 809.999993" height="1080" preserveAspectRatio="xMidYMid meet" version="1.0"><path fill="#d15b7e" d="M 810 405 C 810 628.671875 628.671875 810 405 810 C 181.351562 810 0 628.671875 0 405 C 0 181.351562 181.351562 0 405 0 C 628.671875 0 810 181.351562 810 405 " fill-opacity="1" fill-rule="nonzero"/><path fill="#292f33" d="M 573.414062 672.277344 C 572.398438 668.25 547.132812 573.75 405 573.75 C 262.84375 573.75 237.601562 668.25 236.585938 672.277344 C 235.351562 677.160156 237.554688 682.222656 241.921875 684.742188 C 246.308594 687.195312 251.796875 686.519531 255.421875 683.011719 C 255.847656 682.582031 299.386719 641.25 405 641.25 C 510.613281 641.25 554.175781 682.582031 554.578125 682.988281 C 556.738281 685.125 559.621094 686.25 562.5 686.25 C 564.390625 686.25 566.300781 685.777344 568.035156 684.808594 C 572.445312 682.289062 574.648438 677.183594 573.414062 672.277344 Z M 353.40625 344.09375 C 280.171875 270.855469 162.472656 270 157.5 270 C 145.078125 270 135.023438 280.058594 135.023438 292.453125 C 135 304.875 145.058594 314.953125 157.476562 315 C 158.128906 315 200.789062 315.515625 247.09375 331.582031 C 233.753906 345.984375 225 368.347656 225 393.75 C 225 437.265625 250.175781 472.5 281.25 472.5 C 312.324219 472.5 337.5 437.265625 337.5 393.75 C 337.5 389.835938 337.074219 386.101562 336.667969 382.34375 C 336.960938 382.34375 337.230469 382.5 337.5 382.5 C 343.261719 382.5 349.019531 380.296875 353.40625 375.90625 C 362.203125 367.109375 362.203125 352.890625 353.40625 344.09375 Z M 652.5 270 C 647.527344 270 529.851562 270.855469 456.59375 344.09375 C 447.796875 352.890625 447.796875 367.109375 456.59375 375.90625 C 460.980469 380.296875 466.738281 382.5 472.5 382.5 C 472.792969 382.5 473.039062 382.34375 473.308594 382.34375 C 472.949219 386.101562 472.5 389.835938 472.5 393.75 C 472.5 437.265625 497.675781 472.5 528.75 472.5 C 559.824219 472.5 585 437.265625 585 393.75 C 585 368.347656 576.246094 345.984375 562.90625 331.582031 C 609.210938 315.515625 651.871094 315 652.546875 315 C 664.941406 314.953125 675 304.875 674.976562 292.453125 C 674.953125 280.058594 664.921875 270 652.5 270 Z M 652.5 270 " fill-opacity="1" fill-rule="nonzero"/><path fill="#292f33" d="M 669.128906 742.5 L 140.871094 742.5 C 112.882812 742.5 90 719.617188 90 691.628906 L 90 562.5 C 90 534.511719 112.882812 511.628906 140.871094 511.628906 L 669.128906 511.628906 C 697.117188 511.628906 720 534.511719 720 562.5 L 720 691.628906 C 720 719.617188 697.117188 742.5 669.128906 742.5 Z M 669.128906 742.5 " fill-opacity="1" fill-rule="nonzero"/><path fill="#ffffff" d="M 176.421875 612.652344 L 158.015625 612.652344 C 150.953125 612.652344 147.734375 607.5 147.734375 602.371094 C 147.734375 597.238281 150.953125 592.109375 158.015625 592.109375 L 179.390625 592.109375 L 184.09375 557.683594 C 185.152344 549.988281 188.371094 547.425781 194.78125 547.425781 C 199.914062 547.425781 204.636719 550.824219 204.636719 555.976562 C 204.636719 559.191406 204.636719 557.683594 204.210938 561.128906 L 199.933594 592.132812 L 220.476562 592.132812 L 225.179688 557.707031 C 226.238281 550.011719 229.453125 547.449219 235.867188 547.449219 C 240.996094 547.449219 245.722656 550.84375 245.722656 555.996094 C 245.722656 559.214844 245.722656 557.707031 245.296875 561.148438 L 240.996094 592.15625 L 259.402344 592.15625 C 266.46875 592.15625 269.664062 597.308594 269.664062 602.414062 C 269.664062 607.546875 266.445312 612.699219 259.402344 612.699219 L 238.003906 612.699219 L 234.585938 637.066406 L 252.988281 637.066406 C 260.054688 637.066406 263.25 642.21875 263.25 647.347656 C 263.25 652.476562 260.03125 657.609375 252.988281 657.609375 L 231.59375 657.609375 L 226.890625 692.03125 C 225.808594 699.75 222.59375 702.292969 216.179688 702.292969 C 211.050781 702.292969 206.324219 698.894531 206.324219 693.742188 C 206.324219 690.523438 206.324219 692.03125 206.753906 688.589844 L 211.050781 657.585938 L 190.53125 657.585938 L 185.828125 692.011719 C 184.746094 699.726562 181.550781 702.269531 175.117188 702.269531 C 169.988281 702.269531 165.261719 698.871094 165.261719 693.71875 C 165.261719 690.503906 165.261719 692.011719 165.691406 688.566406 L 169.964844 657.5625 L 151.605469 657.5625 C 144.5625 657.5625 141.34375 652.410156 141.34375 647.300781 C 141.34375 642.148438 144.5625 637.019531 151.605469 637.019531 L 173.003906 637.019531 Z M 193.746094 637.019531 L 214.066406 637.019531 L 217.484375 612.652344 L 197.167969 612.652344 Z M 297.609375 580.769531 C 297.609375 562.164062 311.511719 546.121094 330.546875 546.121094 C 349.582031 546.121094 363.488281 562.164062 363.488281 580.769531 C 363.488281 599.378906 349.582031 615.21875 330.546875 615.21875 C 311.488281 615.238281 297.609375 599.398438 297.609375 580.769531 Z M 341.664062 580.769531 C 341.664062 573.929688 337.589844 567.945312 330.546875 567.945312 C 323.484375 567.945312 319.410156 573.953125 319.410156 580.769531 C 319.410156 587.632812 323.484375 593.414062 330.546875 593.414062 C 337.589844 593.414062 341.664062 587.632812 341.664062 580.769531 Z M 393.636719 551.699219 C 396.425781 546.367188 398.566406 544.859375 403.492188 544.859375 C 410.128906 544.859375 416.113281 550.191406 416.113281 556.828125 C 416.113281 558.539062 416.113281 560.046875 414.40625 563.242188 L 342.539062 697.769531 C 339.324219 702.246094 338.039062 704.8125 332.910156 704.8125 C 327.351562 704.8125 320.714844 699.480469 320.714844 693.066406 C 320.714844 689.851562 321.996094 686.878906 322.851562 685.148438 Z M 372.890625 669.128906 C 372.890625 650.519531 386.796875 634.476562 405.832031 634.476562 C 424.867188 634.476562 438.773438 650.519531 438.773438 669.128906 C 438.773438 687.710938 424.867188 703.550781 405.832031 703.550781 C 386.773438 703.574219 372.890625 687.710938 372.890625 669.128906 Z M 416.949219 669.128906 C 416.949219 662.265625 412.875 656.300781 405.808594 656.300781 C 398.746094 656.300781 394.671875 662.289062 394.671875 669.128906 C 394.671875 675.96875 398.746094 681.75 405.808594 681.75 C 412.875 681.75 416.949219 675.96875 416.949219 669.128906 Z M 472.882812 686.878906 C 472.882812 677.675781 480.375 670.183594 489.554688 670.183594 C 498.757812 670.183594 506.25 677.675781 506.25 686.878906 C 506.25 696.058594 498.757812 703.550781 489.554688 703.550781 C 480.375 703.574219 472.882812 696.082031 472.882812 686.878906 Z M 474.164062 560.675781 C 474.164062 551.699219 480.78125 546.140625 489.554688 546.140625 C 498.128906 546.140625 504.96875 551.925781 504.96875 560.675781 L 504.96875 643.027344 C 504.96875 651.800781 498.128906 657.5625 489.554688 657.5625 C 480.78125 657.5625 474.164062 652.003906 474.164062 643.027344 Z M 655.921875 704.835938 C 651.710938 704.835938 649.078125 703.640625 646.222656 700.425781 L 629.933594 682.648438 L 628.3125 684.136719 C 612.515625 698.648438 598.882812 704.8125 582.773438 704.8125 C 557.820312 704.8125 532.621094 690.59375 532.621094 658.824219 C 532.621094 633.914062 552.128906 619.019531 563.761719 612.359375 L 566.390625 610.851562 L 564.253906 608.648438 C 554.691406 598.636719 550.777344 590.355469 550.777344 580.09375 C 550.777344 555.863281 572.894531 544.835938 593.4375 544.835938 C 610.628906 544.835938 634.835938 555.03125 634.835938 577.640625 C 634.835938 599.039062 614.96875 611.414062 608.894531 614.699219 L 606.308594 616.09375 L 632.429688 646.265625 L 642.421875 634.207031 C 647.976562 627.523438 651.21875 624.710938 656.953125 624.710938 C 661.566406 624.710938 666.496094 628.851562 666.496094 636.480469 C 666.496094 642.195312 660.824219 649.640625 655.265625 656.167969 L 648.585938 663.703125 L 664.46875 682.558594 C 667.417969 686.070312 668.632812 687.9375 668.632812 692.191406 C 668.65625 698.828125 662.578125 704.835938 655.921875 704.835938 Z M 578.363281 626.667969 C 568.734375 633.128906 558.921875 641.632812 558.921875 655.71875 C 558.921875 670.476562 568.53125 679.996094 583.425781 679.996094 C 595.84375 679.996094 603.878906 674.550781 612.113281 666.359375 L 613.710938 664.808594 L 579.960938 625.589844 Z M 593.460938 565.671875 C 587.160156 565.671875 578.386719 570.824219 578.386719 579.21875 C 578.386719 587.046875 582.234375 591.816406 590.398438 600.121094 L 591.546875 601.289062 L 592.964844 600.546875 C 604.148438 594.699219 609.816406 588.105469 609.816406 580.996094 C 609.839844 570.464844 601.359375 565.671875 593.460938 565.671875 Z M 593.460938 565.671875 " fill-opacity="1" fill-rule="nonzero"/></svg>