<svg xmlns="http://www.w3.org/2000/svg" xmlns:xlink="http://www.w3.org/1999/xlink" width="1080" zoomAndPan="magnify" viewBox="0 0 810 809.999993" height="1080" preserveAspectRatio="xMidYMid meet" version="1.0"><defs><clipPath id="a4c7c583c3"><path d="M 83 35 L 788.269531 35 L 788.269531 302 L 83 302 Z M 83 35 " clip-rule="nonzero"/></clipPath></defs><path fill="#80ac5f" d="M 749.980469 399.957031 C 729.082031 396.972656 709.722656 411.738281 706.734375 432.632812 C 698.34375 493.789062 670.753906 549.214844 626.863281 592.863281 C 538.359375 681.285156 404.996094 698.632812 299.0625 644.335938 L 246.621094 703.472656 C 302.371094 735.746094 364.898438 751.960938 427.585938 751.960938 C 519.398438 751.960938 611.128906 717.109375 681.078125 647.160156 C 736.667969 591.570312 771.761719 521.058594 782.574219 443.28125 C 785.558594 422.386719 771.039062 402.941406 749.980469 399.957031 Z M 749.980469 399.957031 " fill-opacity="1" fill-rule="nonzero"/><g clip-path="url(#a4c7c583c3)"><path fill="#80ac5f" d="M 749.738281 77.644531 C 728.679688 77.644531 711.496094 94.828125 711.496094 116.046875 L 711.496094 170.34375 L 681.078125 139.929688 C 541.183594 0.191406 313.746094 0.191406 173.847656 139.929688 C 130.203125 183.574219 100.1875 235.773438 83.8125 291.203125 C 98.574219 280.792969 116.246094 274.984375 134.882812 274.984375 L 171.832031 274.984375 C 185.226562 245.699219 204.105469 218.269531 228.144531 194.226562 C 338.03125 84.339844 516.976562 84.339844 626.78125 194.226562 L 657.199219 224.640625 L 602.902344 224.640625 C 581.601562 224.640625 564.5 241.824219 564.5 262.882812 C 564.5 284.183594 581.683594 301.285156 602.902344 301.285156 L 749.738281 301.285156 C 771.039062 301.285156 788.140625 284.101562 788.140625 262.882812 L 788.140625 116.046875 C 788.222656 94.746094 771.039062 77.644531 749.738281 77.644531 Z M 749.738281 77.644531 " fill-opacity="1" fill-rule="nonzero"/></g><path fill="#80ac5f" d="M 425.972656 194.304688 C 404.832031 194.304688 387.648438 211.492188 387.648438 232.628906 L 387.648438 393.503906 C 387.648438 410.6875 399.105469 425.773438 415.644531 430.453125 L 533.679688 463.53125 C 537.148438 464.5 540.617188 464.984375 544.003906 464.984375 C 560.785156 464.984375 576.195312 453.851562 580.875 436.910156 C 586.605469 416.496094 574.664062 395.359375 554.25 389.628906 L 464.214844 364.378906 L 464.214844 232.628906 C 464.292969 211.410156 447.109375 194.304688 425.972656 194.304688 Z M 425.972656 194.304688 " fill-opacity="1" fill-rule="nonzero"/><path fill="#80ac5f" d="M 271.792969 518.636719 L 207.25 518.636719 L 287.6875 375.109375 C 295.511719 361.152344 285.429688 343.964844 269.453125 343.964844 L 134.960938 343.964844 C 126.25 343.964844 118.421875 349.371094 115.355469 357.601562 L 26.851562 594.554688 C 21.769531 608.269531 31.855469 622.792969 46.457031 622.792969 L 93.574219 622.792969 L 42.746094 778.34375 C 36.773438 796.496094 60.011719 809.808594 72.675781 795.527344 L 287.527344 553.488281 C 299.464844 539.9375 289.867188 518.636719 271.792969 518.636719 Z M 271.792969 518.636719 " fill-opacity="1" fill-rule="nonzero"/></svg>