<svg xmlns="http://www.w3.org/2000/svg" xmlns:xlink="http://www.w3.org/1999/xlink" width="1080" zoomAndPan="magnify" viewBox="0 0 810 809.999993" height="1080" preserveAspectRatio="xMidYMid meet" version="1.0"><defs><clipPath id="5a8a31d3f7"><path d="M 53.753906 0 L 756 0 L 756 810 L 53.753906 810 Z M 53.753906 0 " clip-rule="nonzero"/></clipPath></defs><g clip-path="url(#5a8a31d3f7)"><path fill="#475dd7" d="M 641.40625 198.316406 L 484.320312 15.066406 C 483.050781 12.472656 481.351562 10.070312 479.246094 7.964844 C 474.195312 2.863281 467.285156 0 460.101562 0 L 80.996094 0 C 66.089844 0 53.996094 12.097656 53.996094 27 L 53.996094 783 C 53.996094 797.902344 66.089844 810 80.996094 810 L 350.996094 810 C 365.898438 810 377.996094 797.902344 377.996094 783 C 377.996094 768.097656 365.898438 756 350.996094 756 L 107.996094 756 C 107.996094 756 107.996094 54 107.996094 54 C 107.996094 54 432.941406 54 432.941406 54 C 432.941406 54 431.996094 215.839844 431.996094 215.839844 C 431.941406 223.019531 434.777344 229.933594 439.851562 235.035156 C 444.929688 240.136719 451.8125 243 458.996094 243 L 593.996094 243 C 593.996094 243 593.996094 324 593.996094 324 C 593.996094 338.902344 606.089844 351 620.996094 351 C 635.898438 351 647.996094 338.902344 647.996094 324 L 647.996094 216 C 647.996094 209.25 645.511719 203.066406 641.40625 198.316406 Z M 539.996094 378 C 420.789062 378 323.996094 474.796875 323.996094 594 C 323.996094 713.203125 420.789062 810 539.996094 810 C 659.199219 810 755.996094 713.203125 755.996094 594 C 755.996094 474.796875 659.199219 378 539.996094 378 Z M 539.996094 432 C 629.390625 432 701.996094 504.601562 701.996094 594 C 701.996094 683.398438 629.390625 756 539.996094 756 C 450.597656 756 377.996094 683.398438 377.996094 594 C 377.996094 504.601562 450.597656 432 539.996094 432 Z M 512.996094 567 L 458.996094 567 C 444.089844 567 431.996094 579.097656 431.996094 594 C 431.996094 608.902344 444.089844 621 458.996094 621 L 512.996094 621 L 512.996094 675 C 512.996094 689.902344 525.089844 702 539.996094 702 C 554.898438 702 566.996094 689.902344 566.996094 675 L 566.996094 621 L 620.996094 621 C 635.898438 621 647.996094 608.902344 647.996094 594 C 647.996094 579.097656 635.898438 567 620.996094 567 L 566.996094 567 L 566.996094 513 C 566.996094 498.097656 554.898438 486 539.996094 486 C 525.089844 486 512.996094 498.097656 512.996094 513 Z M 161.996094 513 L 269.996094 513 C 284.898438 513 296.996094 500.902344 296.996094 486 C 296.996094 471.097656 284.898438 459 269.996094 459 L 161.996094 459 C 147.089844 459 134.996094 471.097656 134.996094 486 C 134.996094 500.902344 147.089844 513 161.996094 513 Z M 161.996094 405 L 377.996094 405 C 392.898438 405 404.996094 392.902344 404.996094 378 C 404.996094 363.097656 392.898438 351 377.996094 351 L 161.996094 351 C 147.089844 351 134.996094 363.097656 134.996094 378 C 134.996094 392.902344 147.089844 405 161.996094 405 Z M 161.996094 297 L 323.996094 297 C 338.898438 297 350.996094 284.902344 350.996094 270 C 350.996094 255.097656 338.898438 243 323.996094 243 L 161.996094 243 C 147.089844 243 134.996094 255.097656 134.996094 270 C 134.996094 284.902344 147.089844 297 161.996094 297 Z M 486.15625 189 L 562.296875 189 L 486.667969 100.789062 Z M 486.15625 189 " fill-opacity="1" fill-rule="evenodd"/></g></svg>