<svg xmlns="http://www.w3.org/2000/svg" xmlns:xlink="http://www.w3.org/1999/xlink" width="1080" zoomAndPan="magnify" viewBox="0 0 810 809.999993" height="1080" preserveAspectRatio="xMidYMid meet" version="1.0"><defs><clipPath id="c8dd82197d"><path d="M 81 0 L 729 0 L 729 810 L 81 810 Z M 81 0 " clip-rule="nonzero"/></clipPath></defs><g clip-path="url(#c8dd82197d)"><path fill="#475dd7" d="M 529.113281 0.734375 L 189.667969 0.734375 C 129.675781 0.734375 80.867188 49.546875 80.867188 109.539062 L 80.867188 700.460938 C 80.867188 760.453125 129.675781 809.265625 189.667969 809.265625 L 620.351562 809.265625 C 680.332031 809.265625 729.144531 760.464844 729.144531 700.460938 L 729.144531 224.304688 Z M 544.96875 104.464844 L 636.347656 206.59375 L 544.96875 206.59375 Z M 620.339844 751.917969 L 189.667969 751.917969 C 161.292969 751.917969 138.210938 728.835938 138.210938 700.460938 L 138.210938 109.539062 C 138.210938 81.164062 161.292969 58.082031 189.667969 58.082031 L 487.625 58.082031 L 487.625 263.929688 L 671.796875 263.929688 L 671.796875 700.460938 C 671.789062 728.835938 648.707031 751.917969 620.339844 751.917969 Z M 620.339844 751.917969 " fill-opacity="1" fill-rule="nonzero"/></g><path fill="#475dd7" d="M 199.761719 580.390625 L 610.230469 580.390625 L 610.230469 637.734375 L 199.761719 637.734375 Z M 199.761719 580.390625 " fill-opacity="1" fill-rule="nonzero"/><path fill="#475dd7" d="M 199.761719 455.777344 L 610.230469 455.777344 L 610.230469 513.125 L 199.761719 513.125 Z M 199.761719 455.777344 " fill-opacity="1" fill-rule="nonzero"/><path fill="#475dd7" d="M 199.761719 331.1875 L 610.230469 331.1875 L 610.230469 388.53125 L 199.761719 388.53125 Z M 199.761719 331.1875 " fill-opacity="1" fill-rule="nonzero"/></svg>