<svg xmlns="http://www.w3.org/2000/svg" xmlns:xlink="http://www.w3.org/1999/xlink" width="1080" zoomAndPan="magnify" viewBox="0 0 810 809.999993" height="1080" preserveAspectRatio="xMidYMid meet" version="1.0"><defs><clipPath id="6579543688"><path d="M 122.1875 135.308594 L 687.6875 135.308594 L 687.6875 729 L 122.1875 729 Z M 122.1875 135.308594 " clip-rule="nonzero"/></clipPath><clipPath id="7233433cca"><path d="M 165.855469 57.375 L 748.605469 57.375 L 748.605469 640.125 L 165.855469 640.125 Z M 165.855469 57.375 " clip-rule="nonzero"/></clipPath><clipPath id="76d126205b"><rect x="0" width="584" y="0" height="584"/></clipPath></defs><g clip-path="url(#6579543688)"><path fill="#475dd7" d="M 122.289062 163.582031 C 122.289062 147.96875 134.949219 135.308594 150.5625 135.308594 L 659.433594 135.308594 C 675.046875 135.308594 687.703125 147.96875 687.703125 163.582031 L 687.703125 248.394531 C 687.703125 256.644531 684.09375 264.484375 677.832031 269.859375 L 489.808594 431.019531 L 489.808594 644.183594 C 489.808594 654.890625 483.757812 664.679688 474.179688 669.46875 L 361.097656 726.007812 C 352.40625 730.355469 342.089844 729.933594 333.78125 724.886719 C 325.472656 719.84375 320.339844 710.882812 320.1875 701.164062 L 315.964844 431.003906 L 131.921875 269.652344 C 125.800781 264.28125 122.289062 256.535156 122.289062 248.394531 Z M 178.832031 191.851562 L 178.832031 235.582031 L 362.675781 396.761719 C 368.683594 402.023438 372.179688 409.585938 372.304688 417.574219 L 376.019531 655.332031 L 433.265625 626.710938 L 433.265625 418.015625 C 433.265625 409.765625 436.875 401.921875 443.140625 396.550781 L 631.160156 235.390625 L 631.160156 191.851562 Z M 178.832031 191.851562 " fill-opacity="1" fill-rule="evenodd"/></g><g clip-path="url(#7233433cca)"><g transform="matrix(1, 0, 0, 1, 165, 57)"><g clip-path="url(#76d126205b)"><path fill="#d25c7f" d="M 27.828125 1.34375 C 29.378906 1.390625 30.910156 1.585938 32.421875 1.925781 C 33.9375 2.269531 35.402344 2.75 36.820312 3.375 C 38.242188 4 39.585938 4.757812 40.859375 5.640625 C 42.132812 6.527344 43.3125 7.527344 44.390625 8.636719 L 574.421875 538.667969 C 574.996094 539.21875 575.546875 539.800781 576.0625 540.410156 C 576.582031 541.015625 577.070312 541.648438 577.527344 542.304688 C 577.980469 542.960938 578.402344 543.640625 578.792969 544.339844 C 579.179688 545.039062 579.535156 545.753906 579.851562 546.488281 C 580.167969 547.222656 580.449219 547.96875 580.691406 548.730469 C 580.933594 549.492188 581.136719 550.265625 581.304688 551.046875 C 581.46875 551.828125 581.597656 552.617188 581.683594 553.410156 C 581.769531 554.207031 581.820312 555.003906 581.828125 555.800781 C 581.835938 556.601562 581.804688 557.398438 581.730469 558.195312 C 581.660156 558.992188 581.550781 559.78125 581.398438 560.566406 C 581.25 561.351562 581.0625 562.128906 580.835938 562.894531 C 580.605469 563.660156 580.34375 564.414062 580.039062 565.152344 C 579.738281 565.894531 579.398438 566.617188 579.027344 567.324219 C 578.652344 568.03125 578.242188 568.714844 577.800781 569.382812 C 577.359375 570.046875 576.882812 570.691406 576.378906 571.308594 C 575.871094 571.925781 575.335938 572.519531 574.769531 573.085938 C 574.207031 573.648438 573.613281 574.183594 572.996094 574.691406 C 572.375 575.199219 571.734375 575.671875 571.070312 576.113281 C 570.402344 576.558594 569.714844 576.964844 569.011719 577.339844 C 568.304688 577.714844 567.582031 578.050781 566.839844 578.355469 C 566.101562 578.65625 565.347656 578.921875 564.582031 579.148438 C 563.816406 579.375 563.039062 579.5625 562.253906 579.714844 C 561.46875 579.863281 560.679688 579.972656 559.882812 580.046875 C 559.085938 580.117188 558.289062 580.148438 557.488281 580.140625 C 556.6875 580.132812 555.890625 580.085938 555.097656 579.996094 C 554.304688 579.910156 553.515625 579.78125 552.734375 579.617188 C 551.949219 579.449219 551.179688 579.246094 550.417969 579.003906 C 549.65625 578.761719 548.90625 578.480469 548.175781 578.164062 C 547.441406 577.847656 546.722656 577.492188 546.027344 577.105469 C 545.328125 576.71875 544.648438 576.296875 543.992188 575.839844 C 543.335938 575.382812 542.703125 574.894531 542.09375 574.378906 C 541.488281 573.859375 540.90625 573.3125 540.351562 572.734375 L 10.324219 42.707031 C 9.460938 41.863281 8.660156 40.964844 7.929688 40.003906 C 7.203125 39.042969 6.546875 38.03125 5.96875 36.972656 C 5.390625 35.910156 4.894531 34.816406 4.480469 33.679688 C 4.066406 32.546875 3.742188 31.390625 3.503906 30.207031 C 3.261719 29.023438 3.113281 27.828125 3.054688 26.625 C 2.992188 25.417969 3.023438 24.214844 3.144531 23.015625 C 3.265625 21.8125 3.476562 20.628906 3.777344 19.457031 C 4.074219 18.289062 4.460938 17.148438 4.929688 16.039062 C 5.398438 14.925781 5.949219 13.855469 6.582031 12.828125 C 7.214844 11.796875 7.917969 10.824219 8.695312 9.898438 C 9.472656 8.976562 10.316406 8.117188 11.222656 7.320312 C 12.128906 6.523438 13.089844 5.800781 14.105469 5.148438 C 15.121094 4.496094 16.179688 3.925781 17.28125 3.433594 C 18.386719 2.941406 19.515625 2.53125 20.679688 2.210938 C 21.84375 1.886719 23.023438 1.652344 24.222656 1.507812 C 25.421875 1.363281 26.621094 1.308594 27.828125 1.34375 Z M 27.828125 1.34375 " fill-opacity="1" fill-rule="nonzero"/></g></g></g></svg>