<svg xmlns="http://www.w3.org/2000/svg" xmlns:xlink="http://www.w3.org/1999/xlink" width="1080" zoomAndPan="magnify" viewBox="0 0 810 809.999993" height="1080" preserveAspectRatio="xMidYMid meet" version="1.0"><defs><clipPath id="b6b81e0584"><path d="M 19.144531 0 L 790.894531 0 L 790.894531 810 L 19.144531 810 Z M 19.144531 0 " clip-rule="nonzero"/></clipPath></defs><g clip-path="url(#b6b81e0584)"><path fill="#475dd7" d="M 19.28125 38.570312 C 19.28125 17.269531 36.550781 0 57.855469 0 L 752.140625 0 C 773.441406 0 790.710938 17.269531 790.710938 38.570312 L 790.710938 154.285156 C 790.710938 165.546875 785.789062 176.242188 777.242188 183.570312 L 520.710938 403.453125 L 520.710938 694.285156 C 520.710938 708.894531 512.457031 722.25 499.390625 728.785156 L 345.101562 805.925781 C 333.242188 811.859375 319.167969 811.28125 307.832031 804.394531 C 296.5 797.515625 289.496094 785.292969 289.289062 772.03125 L 283.527344 403.433594 L 32.425781 183.289062 C 24.074219 175.964844 19.28125 165.394531 19.28125 154.285156 Z M 96.425781 77.144531 L 96.425781 136.804688 L 347.253906 356.710938 C 355.453125 363.894531 360.222656 374.210938 360.394531 385.113281 L 365.460938 709.5 L 443.570312 670.449219 L 443.570312 385.714844 C 443.570312 374.457031 448.488281 363.753906 457.039062 356.425781 L 713.570312 136.546875 L 713.570312 77.144531 Z M 96.425781 77.144531 " fill-opacity="1" fill-rule="evenodd"/></g></svg>