<svg xmlns="http://www.w3.org/2000/svg" xmlns:xlink="http://www.w3.org/1999/xlink" width="1080" zoomAndPan="magnify" viewBox="0 0 810 809.999993" height="1080" preserveAspectRatio="xMidYMid meet" version="1.0"><defs><clipPath id="7a0aa70e80"><path d="M 0 81 L 808 81 L 808 726.75 L 0 726.75 Z M 0 81 " clip-rule="nonzero"/></clipPath></defs><g clip-path="url(#7a0aa70e80)"><path fill="#475dd7" d="M 799.011719 290.660156 C 790.386719 279.035156 777.035156 272.316406 762.507812 272.316406 L 690.316406 272.316406 L 690.316406 217.832031 C 690.316406 187.773438 665.890625 163.347656 635.832031 163.347656 L 308.019531 163.347656 L 240.730469 87.703125 C 237.371094 83.800781 232.375 81.621094 227.199219 81.621094 L 54.664062 81.621094 C 24.609375 81.621094 0.183594 106.046875 0.183594 136.105469 L 0.183594 671.867188 C 0.183594 701.925781 24.609375 726.351562 54.664062 726.351562 L 651.996094 726.351562 C 672.0625 726.351562 689.589844 713.457031 695.402344 694.207031 L 805.914062 330.976562 C 810.183594 316.992188 807.640625 302.375 799.011719 290.660156 Z M 36.503906 136.105469 C 36.503906 126.117188 44.675781 117.945312 54.664062 117.945312 L 219.027344 117.945312 L 286.316406 193.585938 C 289.675781 197.492188 294.667969 199.671875 299.84375 199.671875 L 635.832031 199.671875 C 645.820312 199.671875 653.992188 207.84375 653.992188 217.832031 L 653.992188 272.316406 L 165.632812 272.316406 C 145.5625 272.316406 128.039062 285.210938 122.226562 304.460938 L 36.503906 586.144531 Z M 771.226562 320.351562 L 660.621094 683.582031 C 659.441406 687.394531 655.992188 690.027344 651.996094 690.027344 L 55.121094 690.027344 C 51.125 690.027344 48.855469 687.757812 47.855469 686.398438 C 46.765625 684.945312 45.222656 682.128906 46.402344 678.316406 L 157.003906 315.085938 C 158.1875 311.179688 161.636719 308.640625 165.632812 308.640625 L 762.507812 308.640625 C 766.503906 308.640625 768.773438 310.910156 769.773438 312.269531 C 770.863281 313.722656 772.40625 316.539062 771.226562 320.351562 Z M 771.226562 320.351562 " fill-opacity="1" fill-rule="nonzero"/></g></svg>