<svg xmlns="http://www.w3.org/2000/svg" xmlns:xlink="http://www.w3.org/1999/xlink" width="1080" zoomAndPan="magnify" viewBox="0 0 810 809.999993" height="1080" preserveAspectRatio="xMidYMid meet" version="1.0"><defs><clipPath id="b3756e1203"><path d="M 75 0 L 735 0 C 776.421875 0 810 33.578125 810 75 L 810 735 C 810 776.421875 776.421875 810 735 810 L 75 810 C 33.578125 810 0 776.421875 0 735 L 0 75 C 0 33.578125 33.578125 0 75 0 Z M 75 0 " clip-rule="nonzero"/></clipPath></defs><g clip-path="url(#b3756e1203)"><path stroke-linecap="butt" transform="matrix(0.75, 0, 0, 0.75, 0.0000035, 0.00002)" fill="none" stroke-linejoin="miter" d="M 100 -0.0000266667 L 980.000045 -0.0000266667 C 1035.229214 -0.0000266667 1080.00005 44.770809 1080.00005 99.999978 L 1080.00005 980.000023 C 1080.00005 1035.229192 1035.229214 1080.000028 980.000045 1080.000028 L 100 1080.000028 C 44.770831 1080.000028 -0.00000466667 1035.229192 -0.00000466667 980.000023 L -0.00000466667 99.999978 C -0.00000466667 44.770809 44.770831 -0.0000266667 100 -0.0000266667 Z M 100 -0.0000266667 " stroke="#475dd7" stroke-width="150" stroke-opacity="1" stroke-miterlimit="4"/></g></svg>