<svg xmlns="http://www.w3.org/2000/svg" xmlns:xlink="http://www.w3.org/1999/xlink" width="1080" zoomAndPan="magnify" viewBox="0 0 810 809.999993" height="1080" preserveAspectRatio="xMidYMid meet" version="1.0"><path fill="#475dd7" d="M 405.648438 0 L 404.351562 0 C 181.117188 0.351562 0 181.710938 0 405 C 0 628.53125 181.46875 810 405 810 C 628.53125 810 810 628.53125 810 405 C 810 181.710938 628.882812 0.351562 405.648438 0 Z M 499.660156 567 C 490.535156 619.082031 477.0625 664.066406 460.429688 698.191406 C 450.953125 717.6875 440.613281 733.347656 429.246094 743.984375 C 421.46875 751.195312 413.613281 756 405 756 C 396.386719 756 388.53125 751.195312 380.753906 743.984375 C 369.386719 733.347656 359.046875 717.6875 349.570312 698.191406 C 332.9375 664.066406 319.464844 619.082031 310.339844 567 Z M 716.417969 567 L 554.175781 567 C 541.945312 640.65625 521.773438 702.324219 497.152344 743.769531 C 592.40625 717.875 671.625 652.832031 716.417969 567 Z M 255.824219 567 L 93.582031 567 C 138.375 652.832031 217.59375 717.875 312.847656 743.769531 C 288.226562 702.324219 268.054688 640.65625 255.824219 567 Z M 248.5625 297 L 70.957031 297 C 59.941406 331.019531 54 367.308594 54 405 C 54 442.691406 59.941406 478.980469 70.957031 513 L 248.5625 513 C 244.945312 478.683594 243 442.449219 243 405 C 243 367.550781 244.945312 331.316406 248.5625 297 Z M 507.304688 297 C 511.003906 331.128906 513 367.414062 513 405 C 513 442.585938 511.003906 478.871094 507.304688 513 L 302.695312 513 C 298.996094 478.871094 297 442.585938 297 405 C 297 367.414062 298.996094 331.128906 302.695312 297 Z M 739.042969 297 L 561.4375 297 C 565.054688 331.316406 567 367.550781 567 405 C 567 442.449219 565.054688 478.683594 561.4375 513 L 739.042969 513 C 750.058594 478.980469 756 442.691406 756 405 C 756 367.308594 750.058594 331.019531 739.042969 297 Z M 312.847656 66.230469 C 217.59375 92.125 138.375 157.167969 93.582031 243 L 255.824219 243 C 268.054688 169.34375 288.226562 107.675781 312.847656 66.230469 Z M 499.660156 243 L 310.339844 243 C 319.464844 190.917969 332.9375 145.933594 349.570312 111.808594 C 359.046875 92.3125 369.386719 76.652344 380.753906 66.015625 C 388.53125 58.804688 396.386719 54 405 54 C 413.613281 54 421.46875 58.804688 429.246094 66.015625 C 440.613281 76.652344 450.953125 92.3125 460.429688 111.808594 C 477.0625 145.933594 490.535156 190.917969 499.660156 243 Z M 497.152344 66.230469 C 521.773438 107.675781 541.945312 169.34375 554.175781 243 L 716.417969 243 C 671.625 157.167969 592.40625 92.125 497.152344 66.230469 Z M 497.152344 66.230469 " fill-opacity="1" fill-rule="evenodd"/></svg>