<svg xmlns="http://www.w3.org/2000/svg" xmlns:xlink="http://www.w3.org/1999/xlink" width="1080" zoomAndPan="magnify" viewBox="0 0 810 809.999993" height="1080" preserveAspectRatio="xMidYMid meet" version="1.0"><path fill="#475dd7" d="M 809.914062 404.914062 C 809.914062 411.542969 809.753906 418.167969 809.429688 424.789062 C 809.101562 431.40625 808.613281 438.015625 807.964844 444.613281 C 807.316406 451.207031 806.503906 457.785156 805.53125 464.339844 C 804.558594 470.898438 803.425781 477.425781 802.132812 483.925781 C 800.839844 490.429688 799.386719 496.894531 797.777344 503.324219 C 796.167969 509.753906 794.402344 516.136719 792.476562 522.480469 C 790.550781 528.824219 788.472656 535.117188 786.242188 541.355469 C 784.007812 547.597656 781.625 553.777344 779.085938 559.902344 C 776.550781 566.027344 773.863281 572.082031 771.03125 578.074219 C 768.195312 584.066406 765.21875 589.984375 762.09375 595.832031 C 758.96875 601.675781 755.703125 607.441406 752.296875 613.128906 C 748.886719 618.8125 745.34375 624.410156 741.660156 629.921875 C 737.976562 635.433594 734.164062 640.851562 730.214844 646.171875 C 726.265625 651.496094 722.191406 656.722656 717.984375 661.84375 C 713.78125 666.96875 709.453125 671.984375 705 676.898438 C 700.550781 681.808594 695.980469 686.605469 691.292969 691.292969 C 686.605469 695.980469 681.808594 700.550781 676.898438 705 C 671.984375 709.453125 666.96875 713.78125 661.84375 717.984375 C 656.722656 722.191406 651.496094 726.265625 646.171875 730.214844 C 640.851562 734.164062 635.433594 737.976562 629.921875 741.660156 C 624.410156 745.34375 618.8125 748.886719 613.128906 752.296875 C 607.441406 755.703125 601.675781 758.96875 595.832031 762.09375 C 589.984375 765.21875 584.066406 768.195312 578.074219 771.03125 C 572.082031 773.863281 566.027344 776.550781 559.902344 779.085938 C 553.777344 781.625 547.597656 784.007812 541.355469 786.242188 C 535.117188 788.472656 528.824219 790.550781 522.480469 792.476562 C 516.136719 794.402344 509.753906 796.167969 503.324219 797.777344 C 496.894531 799.390625 490.429688 800.839844 483.925781 802.132812 C 477.425781 803.425781 470.898438 804.558594 464.339844 805.53125 C 457.785156 806.503906 451.207031 807.316406 444.613281 807.964844 C 438.015625 808.613281 431.40625 809.101562 424.789062 809.425781 C 418.167969 809.753906 411.542969 809.914062 404.914062 809.914062 C 398.289062 809.914062 391.664062 809.753906 385.042969 809.429688 C 378.421875 809.101562 371.816406 808.613281 365.21875 807.964844 C 358.621094 807.316406 352.046875 806.503906 345.488281 805.53125 C 338.933594 804.558594 332.40625 803.425781 325.902344 802.132812 C 319.402344 800.839844 312.9375 799.386719 306.507812 797.777344 C 300.078125 796.167969 293.691406 794.402344 287.351562 792.476562 C 281.007812 790.550781 274.714844 788.472656 268.476562 786.242188 C 262.234375 784.007812 256.050781 781.625 249.929688 779.085938 C 243.804688 776.550781 237.746094 773.863281 231.753906 771.03125 C 225.765625 768.195312 219.84375 765.21875 214 762.09375 C 208.15625 758.96875 202.390625 755.703125 196.703125 752.296875 C 191.019531 748.886719 185.421875 745.34375 179.910156 741.660156 C 174.398438 737.976562 168.980469 734.164062 163.65625 730.214844 C 158.332031 726.265625 153.109375 722.191406 147.988281 717.984375 C 142.863281 713.78125 137.84375 709.453125 132.933594 705 C 128.023438 700.550781 123.222656 695.980469 118.539062 691.292969 C 113.851562 686.605469 109.28125 681.808594 104.832031 676.898438 C 100.378906 671.984375 96.050781 666.96875 91.847656 661.84375 C 87.640625 656.722656 83.566406 651.496094 79.617188 646.171875 C 75.667969 640.851562 71.851562 635.433594 68.171875 629.921875 C 64.488281 624.410156 60.941406 618.8125 57.535156 613.128906 C 54.128906 607.441406 50.863281 601.675781 47.738281 595.832031 C 44.613281 589.984375 41.632812 584.066406 38.800781 578.074219 C 35.964844 572.082031 33.28125 566.027344 30.746094 559.902344 C 28.207031 553.777344 25.824219 547.597656 23.589844 541.355469 C 21.355469 535.117188 19.277344 528.824219 17.355469 522.480469 C 15.429688 516.136719 13.664062 509.753906 12.054688 503.324219 C 10.441406 496.894531 8.992188 490.429688 7.699219 483.925781 C 6.40625 477.425781 5.273438 470.898438 4.300781 464.339844 C 3.328125 457.785156 2.515625 451.207031 1.867188 444.613281 C 1.214844 438.015625 0.730469 431.40625 0.402344 424.789062 C 0.078125 418.167969 -0.0859375 411.542969 -0.0859375 404.914062 C -0.0859375 398.289062 0.078125 391.664062 0.402344 385.042969 C 0.730469 378.421875 1.214844 371.816406 1.867188 365.21875 C 2.515625 358.621094 3.328125 352.046875 4.300781 345.488281 C 5.273438 338.933594 6.40625 332.40625 7.699219 325.902344 C 8.992188 319.402344 10.441406 312.9375 12.054688 306.507812 C 13.664062 300.078125 15.429688 293.691406 17.355469 287.351562 C 19.277344 281.007812 21.355469 274.714844 23.589844 268.476562 C 25.824219 262.234375 28.207031 256.050781 30.746094 249.929688 C 33.28125 243.804688 35.964844 237.746094 38.800781 231.753906 C 41.632812 225.765625 44.613281 219.84375 47.738281 214 C 50.863281 208.15625 54.128906 202.390625 57.535156 196.703125 C 60.941406 191.019531 64.488281 185.421875 68.171875 179.910156 C 71.851562 174.398438 75.667969 168.980469 79.617188 163.65625 C 83.566406 158.332031 87.640625 153.109375 91.847656 147.988281 C 96.050781 142.863281 100.378906 137.84375 104.832031 132.933594 C 109.28125 128.023438 113.851562 123.222656 118.539062 118.539062 C 123.222656 113.851562 128.023438 109.28125 132.933594 104.832031 C 137.84375 100.378906 142.863281 96.050781 147.988281 91.847656 C 153.109375 87.640625 158.332031 83.566406 163.65625 79.617188 C 168.980469 75.667969 174.398438 71.851562 179.910156 68.171875 C 185.421875 64.488281 191.019531 60.941406 196.703125 57.535156 C 202.390625 54.128906 208.15625 50.863281 214 47.738281 C 219.84375 44.613281 225.765625 41.632812 231.753906 38.800781 C 237.746094 35.964844 243.804688 33.28125 249.929688 30.746094 C 256.050781 28.207031 262.234375 25.824219 268.476562 23.589844 C 274.714844 21.355469 281.007812 19.277344 287.351562 17.355469 C 293.691406 15.429688 300.078125 13.664062 306.507812 12.054688 C 312.9375 10.441406 319.402344 8.992188 325.902344 7.699219 C 332.40625 6.40625 338.933594 5.273438 345.488281 4.300781 C 352.046875 3.328125 358.621094 2.515625 365.21875 1.867188 C 371.816406 1.214844 378.421875 0.730469 385.042969 0.402344 C 391.664062 0.078125 398.289062 -0.0859375 404.914062 -0.0859375 C 411.542969 -0.0859375 418.167969 0.078125 424.789062 0.402344 C 431.40625 0.730469 438.015625 1.214844 444.613281 1.867188 C 451.207031 2.515625 457.785156 3.328125 464.339844 4.300781 C 470.898438 5.273438 477.425781 6.40625 483.925781 7.699219 C 490.429688 8.992188 496.894531 10.441406 503.324219 12.054688 C 509.753906 13.664062 516.136719 15.429688 522.480469 17.355469 C 528.824219 19.277344 535.117188 21.355469 541.355469 23.589844 C 547.597656 25.824219 553.777344 28.207031 559.902344 30.746094 C 566.027344 33.28125 572.082031 35.964844 578.074219 38.800781 C 584.066406 41.632812 589.984375 44.613281 595.832031 47.738281 C 601.675781 50.863281 607.441406 54.128906 613.128906 57.535156 C 618.8125 60.941406 624.410156 64.488281 629.921875 68.171875 C 635.433594 71.851562 640.851562 75.667969 646.171875 79.617188 C 651.496094 83.566406 656.722656 87.640625 661.84375 91.847656 C 666.96875 96.050781 671.984375 100.378906 676.898438 104.832031 C 681.808594 109.28125 686.605469 113.851562 691.292969 118.539062 C 695.980469 123.222656 700.550781 128.023438 705 132.933594 C 709.453125 137.84375 713.78125 142.863281 717.984375 147.988281 C 722.191406 153.109375 726.265625 158.332031 730.214844 163.65625 C 734.164062 168.980469 737.976562 174.398438 741.660156 179.910156 C 745.34375 185.421875 748.886719 191.019531 752.296875 196.703125 C 755.703125 202.390625 758.96875 208.15625 762.09375 214 C 765.21875 219.84375 768.195312 225.765625 771.03125 231.753906 C 773.863281 237.746094 776.550781 243.804688 779.085938 249.929688 C 781.625 256.050781 784.007812 262.234375 786.242188 268.476562 C 788.472656 274.714844 790.550781 281.007812 792.476562 287.351562 C 794.402344 293.691406 796.167969 300.078125 797.777344 306.507812 C 799.390625 312.9375 800.839844 319.402344 802.132812 325.902344 C 803.425781 332.40625 804.558594 338.933594 805.53125 345.488281 C 806.503906 352.046875 807.316406 358.621094 807.964844 365.21875 C 808.613281 371.816406 809.101562 378.421875 809.429688 385.042969 C 809.753906 391.664062 809.914062 398.289062 809.914062 404.914062 Z M 809.914062 404.914062 " fill-opacity="1" fill-rule="nonzero"/><path fill="#ffffff" d="M 584.898438 546.265625 L 270.726562 546.265625 C 267.160156 546.265625 264.246094 543.347656 264.246094 539.785156 L 264.246094 171.71875 C 264.246094 168.15625 267.160156 165.238281 270.726562 165.238281 L 584.789062 165.238281 C 588.355469 165.238281 591.269531 168.15625 591.269531 171.71875 L 591.269531 539.890625 C 591.378906 543.347656 588.460938 546.265625 584.898438 546.265625 Z M 277.207031 533.304688 L 578.308594 533.304688 L 578.308594 178.199219 L 277.207031 178.199219 Z M 277.207031 533.304688 " fill-opacity="1" fill-rule="nonzero"/><path fill="#ffffff" d="M 584.898438 243.433594 C 584.789062 243.433594 584.679688 243.433594 584.574219 243.433594 C 562 242.242188 541.050781 235.546875 525.390625 224.316406 C 508.972656 212.542969 499.902344 196.992188 499.902344 180.46875 C 499.902344 177.011719 500.332031 173.664062 501.089844 170.316406 C 501.738281 167.398438 504.4375 165.347656 507.355469 165.347656 L 584.898438 165.347656 C 588.460938 165.347656 591.378906 168.265625 591.378906 171.828125 L 591.378906 237.058594 C 591.378906 238.789062 590.621094 240.515625 589.324219 241.703125 C 588.136719 242.785156 586.519531 243.433594 584.898438 243.433594 Z M 512.96875 178.199219 C 512.96875 178.957031 512.863281 179.710938 512.863281 180.46875 C 512.863281 204.984375 541.15625 225.9375 578.417969 230.039062 L 578.417969 178.199219 Z M 512.96875 178.199219 " fill-opacity="1" fill-rule="nonzero"/><path fill="#ffffff" d="M 584.898438 644.761719 L 274.179688 644.761719 C 243.507812 644.761719 218.453125 619.8125 218.453125 589.03125 C 218.453125 558.359375 243.402344 533.304688 274.179688 533.304688 L 584.789062 533.304688 C 588.355469 533.304688 591.269531 536.21875 591.269531 539.785156 L 591.269531 638.171875 C 591.378906 641.84375 588.460938 644.761719 584.898438 644.761719 Z M 274.179688 546.265625 C 250.636719 546.265625 231.414062 565.488281 231.414062 589.03125 C 231.414062 612.574219 250.636719 631.800781 274.179688 631.800781 L 578.308594 631.800781 L 578.308594 546.371094 L 274.179688 546.371094 Z M 274.179688 546.265625 " fill-opacity="1" fill-rule="nonzero"/><path fill="#ffffff" d="M 584.898438 618.839844 L 274.179688 618.839844 C 257.765625 618.839844 244.375 605.449219 244.375 589.03125 C 244.375 572.617188 257.765625 559.222656 274.179688 559.222656 L 584.789062 559.222656 C 588.355469 559.222656 591.269531 562.140625 591.269531 565.703125 L 591.269531 612.25 C 591.378906 615.925781 588.460938 618.839844 584.898438 618.839844 Z M 274.179688 572.183594 C 265.109375 572.183594 257.332031 579.851562 257.332031 589.03125 C 257.332031 598.105469 265 605.878906 274.179688 605.878906 L 578.308594 605.878906 L 578.308594 572.292969 L 274.179688 572.292969 Z M 274.179688 572.183594 " fill-opacity="1" fill-rule="nonzero"/><path fill="#ffffff" d="M 224.933594 595.511719 C 221.371094 595.511719 218.453125 592.597656 218.453125 589.03125 L 218.453125 217.511719 C 218.453125 188.675781 241.890625 165.238281 270.726562 165.238281 C 274.289062 165.238281 277.207031 168.15625 277.207031 171.71875 L 277.207031 540 C 277.207031 543.457031 274.613281 546.265625 271.15625 546.480469 C 248.910156 547.992188 231.414062 566.785156 231.414062 589.140625 C 231.414062 592.597656 228.605469 595.511719 224.933594 595.511719 Z M 264.246094 178.738281 C 256.253906 180.035156 248.910156 183.925781 242.96875 189.757812 C 235.519531 197.207031 231.414062 207.035156 231.414062 217.511719 L 231.414062 553.5 C 239.621094 543.671875 251.070312 536.652344 264.246094 534.277344 C 264.246094 534.277344 264.246094 178.738281 264.246094 178.738281 Z M 264.246094 178.738281 " fill-opacity="1" fill-rule="nonzero"/><path fill="#ffffff" d="M 406.914062 357.480469 C 404.320312 357.480469 401.835938 355.859375 400.867188 353.269531 L 361.230469 246.347656 L 321.59375 353.269531 C 320.296875 356.617188 316.625 358.34375 313.277344 357.046875 C 309.929688 355.753906 308.203125 352.078125 309.496094 348.730469 L 355.179688 225.394531 C 356.152344 222.804688 358.53125 221.183594 361.230469 221.183594 C 363.929688 221.183594 366.414062 222.910156 367.277344 225.394531 L 412.960938 348.730469 C 414.257812 352.078125 412.53125 355.859375 409.179688 357.046875 C 408.425781 357.371094 407.667969 357.480469 406.914062 357.480469 Z M 406.914062 357.480469 " fill-opacity="1" fill-rule="nonzero"/><path fill="#ffffff" d="M 386.609375 302.722656 L 335.847656 302.722656 C 332.285156 302.722656 329.371094 299.808594 329.371094 296.242188 C 329.371094 292.679688 332.285156 289.765625 335.847656 289.765625 L 386.609375 289.765625 C 390.171875 289.765625 393.089844 292.679688 393.089844 296.242188 C 393.089844 299.808594 390.171875 302.722656 386.609375 302.722656 Z M 386.609375 302.722656 " fill-opacity="1" fill-rule="nonzero"/><path fill="#ffffff" d="M 540.078125 490.320312 L 464.152344 490.320312 C 461.777344 490.320312 459.617188 489.023438 458.539062 486.972656 C 457.347656 484.921875 457.457031 482.4375 458.644531 480.382812 L 528.523438 367.09375 L 464.152344 367.09375 C 460.589844 367.09375 457.671875 364.175781 457.671875 360.613281 C 457.671875 357.046875 460.589844 354.132812 464.152344 354.132812 L 540.078125 354.132812 C 542.453125 354.132812 544.613281 355.429688 545.695312 357.480469 C 546.882812 359.53125 546.773438 362.015625 545.585938 364.066406 L 475.710938 477.359375 L 540.078125 477.359375 C 543.640625 477.359375 546.558594 480.277344 546.558594 483.839844 C 546.558594 487.402344 543.640625 490.320312 540.078125 490.320312 Z M 540.078125 490.320312 " fill-opacity="1" fill-rule="nonzero"/><path fill="#ffffff" d="M 394.386719 413.53125 L 327.964844 413.53125 C 324.402344 413.53125 321.484375 410.617188 321.484375 407.050781 C 321.484375 403.488281 324.402344 400.570312 327.964844 400.570312 L 394.386719 400.570312 C 397.949219 400.570312 400.867188 403.488281 400.867188 407.050781 C 400.867188 410.617188 397.949219 413.53125 394.386719 413.53125 Z M 394.386719 413.53125 " fill-opacity="1" fill-rule="nonzero"/><path fill="#ffffff" d="M 535.324219 301.429688 L 468.90625 301.429688 C 465.339844 301.429688 462.425781 298.511719 462.425781 294.949219 C 462.425781 291.382812 465.339844 288.46875 468.90625 288.46875 L 535.324219 288.46875 C 538.890625 288.46875 541.804688 291.382812 541.804688 294.949219 C 541.804688 298.511719 538.890625 301.429688 535.324219 301.429688 Z M 535.324219 301.429688 " fill-opacity="1" fill-rule="nonzero"/></svg>