<svg xmlns="http://www.w3.org/2000/svg" xmlns:xlink="http://www.w3.org/1999/xlink" width="1080" zoomAndPan="magnify" viewBox="0 0 810 809.999993" height="1080" preserveAspectRatio="xMidYMid meet" version="1.0"><path fill="#475dd7" d="M 0 36.816406 C 0 16.484375 16.484375 0 36.816406 0 L 220.910156 0 C 241.242188 0 257.726562 16.484375 257.726562 36.816406 L 257.726562 220.910156 C 257.726562 241.242188 241.242188 257.726562 220.910156 257.726562 L 36.816406 257.726562 C 16.484375 257.726562 0 241.242188 0 220.910156 Z M 73.636719 73.636719 L 73.636719 184.089844 L 184.089844 184.089844 L 184.089844 73.636719 Z M 73.636719 73.636719 " fill-opacity="1" fill-rule="evenodd"/><path fill="#475dd7" d="M 0 312.953125 C 0 292.621094 16.484375 276.136719 36.816406 276.136719 L 220.910156 276.136719 C 241.242188 276.136719 257.726562 292.621094 257.726562 312.953125 L 257.726562 497.046875 C 257.726562 517.378906 241.242188 533.863281 220.910156 533.863281 L 36.816406 533.863281 C 16.484375 533.863281 0 517.378906 0 497.046875 Z M 73.636719 349.773438 L 73.636719 460.226562 L 184.089844 460.226562 L 184.089844 349.773438 Z M 73.636719 349.773438 " fill-opacity="1" fill-rule="evenodd"/><path fill="#475dd7" d="M 0 589.089844 C 0 568.757812 16.484375 552.273438 36.816406 552.273438 L 220.910156 552.273438 C 241.242188 552.273438 257.726562 568.757812 257.726562 589.089844 L 257.726562 773.183594 C 257.726562 793.515625 241.242188 810 220.910156 810 L 36.816406 810 C 16.484375 810 0 793.515625 0 773.183594 Z M 73.636719 625.910156 L 73.636719 736.363281 L 184.089844 736.363281 L 184.089844 625.910156 Z M 73.636719 625.910156 " fill-opacity="1" fill-rule="evenodd"/><path fill="#475dd7" d="M 276.136719 36.816406 C 276.136719 16.484375 292.621094 0 312.953125 0 L 497.046875 0 C 517.378906 0 533.863281 16.484375 533.863281 36.816406 L 533.863281 220.910156 C 533.863281 241.242188 517.378906 257.726562 497.046875 257.726562 L 312.953125 257.726562 C 292.621094 257.726562 276.136719 241.242188 276.136719 220.910156 Z M 349.773438 73.636719 L 349.773438 184.089844 L 460.226562 184.089844 L 460.226562 73.636719 Z M 349.773438 73.636719 " fill-opacity="1" fill-rule="evenodd"/><path fill="#475dd7" d="M 276.136719 312.953125 C 276.136719 292.621094 292.621094 276.136719 312.953125 276.136719 L 497.046875 276.136719 C 517.378906 276.136719 533.863281 292.621094 533.863281 312.953125 L 533.863281 497.046875 C 533.863281 517.378906 517.378906 533.863281 497.046875 533.863281 L 312.953125 533.863281 C 292.621094 533.863281 276.136719 517.378906 276.136719 497.046875 Z M 349.773438 349.773438 L 349.773438 460.226562 L 460.226562 460.226562 L 460.226562 349.773438 Z M 349.773438 349.773438 " fill-opacity="1" fill-rule="evenodd"/><path fill="#475dd7" d="M 276.136719 589.089844 C 276.136719 568.757812 292.621094 552.273438 312.953125 552.273438 L 497.046875 552.273438 C 517.378906 552.273438 533.863281 568.757812 533.863281 589.089844 L 533.863281 773.183594 C 533.863281 793.515625 517.378906 810 497.046875 810 L 312.953125 810 C 292.621094 810 276.136719 793.515625 276.136719 773.183594 Z M 349.773438 625.910156 L 349.773438 736.363281 L 460.226562 736.363281 L 460.226562 625.910156 Z M 349.773438 625.910156 " fill-opacity="1" fill-rule="evenodd"/><path fill="#475dd7" d="M 552.273438 36.816406 C 552.273438 16.484375 568.757812 0 589.089844 0 L 773.183594 0 C 793.515625 0 810 16.484375 810 36.816406 L 810 220.910156 C 810 241.242188 793.515625 257.726562 773.183594 257.726562 L 589.089844 257.726562 C 568.757812 257.726562 552.273438 241.242188 552.273438 220.910156 Z M 625.910156 73.636719 L 625.910156 184.089844 L 736.363281 184.089844 L 736.363281 73.636719 Z M 625.910156 73.636719 " fill-opacity="1" fill-rule="evenodd"/><path fill="#475dd7" d="M 552.273438 312.953125 C 552.273438 292.621094 568.757812 276.136719 589.089844 276.136719 L 773.183594 276.136719 C 793.515625 276.136719 810 292.621094 810 312.953125 L 810 497.046875 C 810 517.378906 793.515625 533.863281 773.183594 533.863281 L 589.089844 533.863281 C 568.757812 533.863281 552.273438 517.378906 552.273438 497.046875 Z M 625.910156 349.773438 L 625.910156 460.226562 L 736.363281 460.226562 L 736.363281 349.773438 Z M 625.910156 349.773438 " fill-opacity="1" fill-rule="evenodd"/><path fill="#475dd7" d="M 552.273438 589.089844 C 552.273438 568.757812 568.757812 552.273438 589.089844 552.273438 L 773.183594 552.273438 C 793.515625 552.273438 810 568.757812 810 589.089844 L 810 773.183594 C 810 793.515625 793.515625 810 773.183594 810 L 589.089844 810 C 568.757812 810 552.273438 793.515625 552.273438 773.183594 Z M 625.910156 625.910156 L 625.910156 736.363281 L 736.363281 736.363281 L 736.363281 625.910156 Z M 625.910156 625.910156 " fill-opacity="1" fill-rule="evenodd"/></svg>