<svg xmlns="http://www.w3.org/2000/svg" xmlns:xlink="http://www.w3.org/1999/xlink" width="1080" zoomAndPan="magnify" viewBox="0 0 810 809.999993" height="1080" preserveAspectRatio="xMidYMid meet" version="1.0"><defs><clipPath id="4420229200"><path d="M 9.617188 364 L 146 364 L 146 399 L 9.617188 399 Z M 9.617188 364 " clip-rule="nonzero"/></clipPath><clipPath id="24f7c2e8ea"><path d="M 664.144531 364 L 799.890625 364 L 799.890625 399 L 664.144531 399 Z M 664.144531 364 " clip-rule="nonzero"/></clipPath></defs><g clip-path="url(#4420229200)"><path fill="#fada09" d="M 128.96875 398.976562 L 26.136719 398.976562 C 17.199219 398.976562 9.878906 391.660156 9.878906 382.710938 L 9.878906 380.667969 C 9.878906 371.726562 17.199219 364.40625 26.136719 364.40625 L 128.96875 364.40625 C 137.914062 364.40625 145.226562 371.726562 145.226562 380.667969 L 145.226562 382.710938 C 145.226562 391.660156 137.914062 398.976562 128.96875 398.976562 " fill-opacity="1" fill-rule="nonzero"/></g><g clip-path="url(#24f7c2e8ea)"><path fill="#fada09" d="M 783.632812 398.976562 L 680.800781 398.976562 C 671.859375 398.976562 664.542969 391.660156 664.542969 382.710938 L 664.542969 380.667969 C 664.542969 371.726562 671.859375 364.40625 680.800781 364.40625 L 783.632812 364.40625 C 792.578125 364.40625 799.890625 371.726562 799.890625 380.667969 L 799.890625 382.710938 C 799.890625 391.660156 792.578125 398.976562 783.632812 398.976562 " fill-opacity="1" fill-rule="nonzero"/></g><path fill="#fada09" d="M 612.925781 565.355469 L 684.199219 636.648438 C 690.917969 643.375 690.917969 654.371094 684.199219 661.09375 C 677.476562 667.8125 666.480469 667.8125 659.761719 661.09375 L 588.492188 589.800781 C 581.773438 583.078125 581.773438 572.082031 588.492188 565.355469 C 595.210938 558.632812 606.207031 558.632812 612.925781 565.355469 " fill-opacity="1" fill-rule="nonzero"/><path fill="#fada09" d="M 150.007812 102.289062 L 221.277344 173.582031 C 228.003906 180.308594 228.003906 191.304688 221.277344 198.027344 C 214.558594 204.746094 203.566406 204.746094 196.847656 198.027344 L 125.578125 126.734375 C 118.851562 120.007812 118.851562 109.007812 125.578125 102.289062 C 132.296875 95.566406 143.289062 95.566406 150.007812 102.289062 " fill-opacity="1" fill-rule="nonzero"/><path fill="#fada09" d="M 221.277344 589.800781 L 150.007812 661.09375 C 143.289062 667.8125 132.296875 667.8125 125.578125 661.09375 C 118.851562 654.371094 118.851562 643.375 125.578125 636.648438 L 196.847656 565.355469 C 203.566406 558.632812 214.558594 558.632812 221.277344 565.355469 C 228.003906 572.082031 228.003906 583.078125 221.277344 589.800781 " fill-opacity="1" fill-rule="nonzero"/><path fill="#fada09" d="M 684.199219 126.734375 L 612.925781 198.027344 C 606.207031 204.746094 595.210938 204.746094 588.492188 198.027344 C 581.773438 191.304688 581.773438 180.308594 588.492188 173.582031 L 659.761719 102.289062 C 666.480469 95.566406 677.476562 95.566406 684.199219 102.289062 C 690.917969 109.007812 690.917969 120.007812 684.199219 126.734375 " fill-opacity="1" fill-rule="nonzero"/><path fill="#fada09" d="M 422.160156 17.289062 L 422.160156 118.109375 C 422.160156 127.613281 414.386719 135.390625 404.886719 135.390625 C 395.382812 135.390625 387.609375 127.613281 387.609375 118.109375 L 387.609375 17.289062 C 387.609375 7.777344 395.382812 0 404.886719 0 C 414.386719 0 422.160156 7.777344 422.160156 17.289062 " fill-opacity="1" fill-rule="nonzero"/><path fill="#fada09" d="M 607.636719 394.679688 C 607.636719 282.03125 515.839844 190.835938 402.992188 191.867188 C 291.523438 192.886719 201.371094 284.601562 202.140625 396.109375 C 202.484375 446.089844 220.90625 491.777344 251.195312 526.949219 C 281.917969 562.640625 301.0625 606.539062 307.160156 652.835938 C 309.601562 671.375 325.390625 685.234375 344.085938 685.234375 L 465.683594 685.234375 C 484.378906 685.234375 500.167969 671.375 502.609375 652.835938 C 508.714844 606.539062 527.851562 562.640625 558.578125 526.949219 C 589.152344 491.441406 607.636719 445.222656 607.636719 394.679688 " fill-opacity="1" fill-rule="nonzero"/><path fill="#a8a38e" d="M 470.707031 789.324219 C 474.195312 789.324219 476.496094 791.738281 474.925781 793.78125 C 467.847656 803.058594 439.160156 810 404.867188 810 C 370.566406 810 341.910156 803.050781 334.835938 793.78125 C 333.28125 791.738281 335.578125 789.324219 339.070312 789.324219 L 470.707031 789.324219 " fill-opacity="1" fill-rule="nonzero"/><path fill="#a8a38e" d="M 481.875 718.730469 L 327.890625 718.730469 C 323.847656 718.730469 320.535156 715.414062 320.535156 711.371094 L 320.535156 708.078125 C 320.535156 704.027344 323.847656 700.71875 327.890625 700.71875 L 481.875 700.71875 C 485.921875 700.71875 489.230469 704.027344 489.230469 708.078125 L 489.230469 711.371094 C 489.230469 715.414062 485.921875 718.730469 481.875 718.730469 " fill-opacity="1" fill-rule="nonzero"/><path fill="#a8a38e" d="M 483.1875 748.128906 L 326.585938 748.128906 C 322.539062 748.128906 319.230469 744.8125 319.230469 740.769531 L 319.230469 737.480469 C 319.230469 733.429688 322.539062 730.121094 326.585938 730.121094 L 483.1875 730.121094 C 487.230469 730.121094 490.546875 733.429688 490.546875 737.480469 L 490.546875 740.769531 C 490.546875 744.8125 487.230469 748.128906 483.1875 748.128906 " fill-opacity="1" fill-rule="nonzero"/><path fill="#a8a38e" d="M 477.394531 777.53125 L 332.375 777.53125 C 328.328125 777.53125 325.019531 774.214844 325.019531 770.171875 L 325.019531 766.878906 C 325.019531 762.832031 328.328125 759.519531 332.375 759.519531 L 477.394531 759.519531 C 481.441406 759.519531 484.75 762.832031 484.75 766.878906 L 484.75 770.171875 C 484.75 774.214844 481.441406 777.53125 477.394531 777.53125 " fill-opacity="1" fill-rule="nonzero"/><path fill="#c79127" d="M 403.96875 293.238281 C 416.386719 293.238281 430.144531 296.003906 430.59375 308.875 C 430.59375 313.457031 430.144531 319.894531 429.246094 326.796875 C 426.203125 360.285156 417.796875 436.203125 413.796875 490.589844 C 413.425781 495.632812 409.230469 499.53125 404.175781 499.53125 C 399.148438 499.53125 394.964844 495.667969 394.5625 490.652344 C 390.242188 436.476562 382.648438 362.5 379.175781 327.246094 C 378.726562 321.277344 377.789062 313.007812 377.789062 308.40625 C 377.789062 296.453125 391.105469 293.238281 403.96875 293.238281 Z M 404.417969 604.746094 C 387.066406 604.746094 375.277344 591.570312 376.492188 572.695312 C 377.460938 557.683594 389.757812 545.761719 404.796875 545.941406 C 421.175781 546.128906 433.363281 558.933594 433.363281 575.339844 C 433.363281 592.792969 420.984375 604.746094 404.417969 604.746094 " fill-opacity="1" fill-rule="nonzero"/></svg>