<svg xmlns="http://www.w3.org/2000/svg" xmlns:xlink="http://www.w3.org/1999/xlink" width="1080" zoomAndPan="magnify" viewBox="0 0 810 809.999993" height="1080" preserveAspectRatio="xMidYMid meet" version="1.0"><path fill="#475dd7" d="M 423.769531 173.953125 C 413.558594 163.742188 396.441406 163.742188 386.230469 173.953125 L 206.3125 353.871094 C 190.132812 370.050781 201.207031 399.03125 225.078125 399.03125 L 247.226562 399.03125 L 247.226562 577.226562 C 247.226562 588.300781 256.648438 597.71875 267.722656 597.71875 L 349.558594 597.71875 C 355.527344 597.71875 359.839844 593.40625 359.839844 587.4375 L 359.839844 491.941406 C 359.839844 486.042969 364.082031 481.726562 370.050781 481.726562 L 439.949219 481.726562 C 445.917969 481.726562 450.230469 486.042969 450.230469 491.941406 L 450.230469 587.4375 C 450.230469 593.40625 454.472656 597.71875 460.441406 597.71875 L 542.277344 597.71875 C 553.351562 597.71875 562.773438 588.300781 562.773438 577.226562 L 562.773438 399.03125 L 584.921875 399.03125 C 607.929688 399.03125 619.867188 370.914062 603.617188 353.871094 L 423.769531 173.953125 " fill-opacity="1" fill-rule="nonzero"/><path fill="#475dd7" d="M 405 748.589844 C 215.730469 748.589844 61.410156 594.269531 61.410156 405 C 61.410156 215.730469 215.730469 61.410156 405 61.410156 C 594.269531 61.410156 748.589844 215.730469 748.589844 405 C 748.589844 594.269531 594.269531 748.589844 405 748.589844 Z M 405 0 C 181.574219 0 0 181.574219 0 405 C 0 628.425781 181.574219 810 405 810 C 628.425781 810 810 628.425781 810 405 C 810 181.574219 628.425781 0 405 0 " fill-opacity="1" fill-rule="nonzero"/></svg>