<svg xmlns="http://www.w3.org/2000/svg" xmlns:xlink="http://www.w3.org/1999/xlink" width="1080" zoomAndPan="magnify" viewBox="0 0 810 809.999993" height="1080" preserveAspectRatio="xMidYMid meet" version="1.0"><defs><clipPath id="77ea75796c"><path d="M 13 47 L 802 47 L 802 772.765625 L 13 772.765625 Z M 13 47 " clip-rule="nonzero"/></clipPath></defs><g clip-path="url(#77ea75796c)"><path fill="#475dd7" d="M 772.710938 302.636719 L 488.25 75.601562 C 486.839844 74.464844 485.402344 73.359375 483.945312 72.28125 C 482.484375 71.207031 481.003906 70.160156 479.5 69.148438 C 477.996094 68.132812 476.46875 67.152344 474.925781 66.203125 C 473.378906 65.253906 471.816406 64.339844 470.230469 63.457031 C 468.648438 62.574219 467.046875 61.726562 465.425781 60.910156 C 463.804688 60.097656 462.167969 59.316406 460.515625 58.570312 C 458.863281 57.824219 457.195312 57.117188 455.511719 56.441406 C 453.828125 55.765625 452.132812 55.128906 450.421875 54.523438 C 448.710938 53.921875 446.988281 53.355469 445.253906 52.824219 C 443.519531 52.296875 441.777344 51.804688 440.019531 51.347656 C 438.265625 50.890625 436.5 50.472656 434.730469 50.089844 C 432.957031 49.710938 431.175781 49.367188 429.390625 49.0625 C 427.601562 48.753906 425.808594 48.488281 424.011719 48.257812 C 422.210938 48.027344 420.410156 47.835938 418.601562 47.683594 C 416.792969 47.53125 414.984375 47.414062 413.171875 47.335938 C 411.363281 47.261719 409.550781 47.222656 407.734375 47.222656 C 405.921875 47.222656 404.109375 47.261719 402.296875 47.335938 C 400.488281 47.414062 398.679688 47.53125 396.871094 47.683594 C 395.0625 47.835938 393.261719 48.027344 391.460938 48.257812 C 389.664062 48.488281 387.871094 48.753906 386.082031 49.0625 C 384.296875 49.367188 382.515625 49.710938 380.742188 50.089844 C 378.96875 50.472656 377.207031 50.890625 375.453125 51.347656 C 373.695312 51.804688 371.953125 52.296875 370.21875 52.824219 C 368.484375 53.355469 366.761719 53.921875 365.050781 54.523438 C 363.339844 55.128906 361.644531 55.765625 359.960938 56.441406 C 358.277344 57.117188 356.609375 57.824219 354.957031 58.570312 C 353.304688 59.316406 351.667969 60.097656 350.046875 60.910156 C 348.425781 61.726562 346.824219 62.574219 345.242188 63.457031 C 343.65625 64.339844 342.09375 65.253906 340.546875 66.203125 C 339 67.152344 337.476562 68.132812 335.972656 69.148438 C 334.46875 70.160156 332.988281 71.207031 331.527344 72.28125 C 330.070312 73.359375 328.632812 74.464844 327.222656 75.601562 L 42.761719 302.636719 C 41.78125 303.425781 40.820312 304.238281 39.878906 305.074219 C 38.9375 305.910156 38.015625 306.769531 37.117188 307.652344 C 36.214844 308.53125 35.339844 309.433594 34.480469 310.359375 C 33.625 311.28125 32.792969 312.226562 31.980469 313.1875 C 31.171875 314.152344 30.382812 315.136719 29.621094 316.136719 C 28.859375 317.140625 28.117188 318.160156 27.40625 319.195312 C 26.691406 320.234375 26.003906 321.289062 25.339844 322.359375 C 24.675781 323.429688 24.039062 324.515625 23.429688 325.617188 C 22.820312 326.71875 22.238281 327.835938 21.679688 328.964844 C 21.125 330.09375 20.597656 331.238281 20.09375 332.394531 C 19.59375 333.546875 19.121094 334.714844 18.675781 335.894531 C 18.230469 337.070312 17.816406 338.261719 17.429688 339.457031 C 17.042969 340.65625 16.683594 341.863281 16.355469 343.078125 C 16.027344 344.296875 15.726562 345.519531 15.457031 346.75 C 15.1875 347.980469 14.949219 349.214844 14.738281 350.457031 C 14.527344 351.699219 14.351562 352.945312 14.199219 354.195312 C 14.050781 355.445312 13.929688 356.699219 13.84375 357.957031 C 13.753906 359.210938 13.695312 360.46875 13.667969 361.726562 C 13.640625 362.988281 13.640625 364.246094 13.675781 365.503906 C 13.707031 366.765625 13.769531 368.023438 13.863281 369.277344 C 13.957031 370.535156 14.082031 371.785156 14.238281 373.035156 C 14.390625 374.285156 14.574219 375.53125 14.789062 376.773438 C 15.003906 378.011719 15.25 379.25 15.523438 380.476562 C 15.796875 381.707031 16.101562 382.929688 16.433594 384.144531 C 16.769531 385.359375 17.132812 386.5625 17.523438 387.761719 C 17.914062 388.957031 18.335938 390.144531 18.785156 391.320312 C 19.234375 392.496094 19.710938 393.660156 20.214844 394.816406 C 20.722656 395.96875 21.253906 397.109375 21.816406 398.238281 C 22.375 399.363281 22.964844 400.476562 23.578125 401.578125 C 24.191406 402.675781 24.832031 403.761719 25.5 404.828125 C 26.167969 405.898438 26.859375 406.949219 27.578125 407.984375 C 28.296875 409.019531 29.039062 410.035156 29.804688 411.035156 C 31.632812 413.328125 33.578125 415.515625 35.648438 417.597656 C 37.71875 419.675781 39.894531 421.636719 42.183594 423.472656 C 44.46875 425.3125 46.847656 427.019531 49.324219 428.59375 C 51.796875 430.167969 54.351562 431.601562 56.988281 432.894531 C 59.621094 434.1875 62.316406 435.332031 65.078125 436.324219 C 67.839844 437.316406 70.644531 438.15625 73.496094 438.839844 C 76.351562 439.523438 79.234375 440.046875 82.144531 440.410156 C 85.054688 440.773438 87.976562 440.976562 90.910156 441.015625 C 96.402344 440.980469 101.828125 440.355469 107.1875 439.140625 C 112.542969 437.925781 117.710938 436.148438 122.679688 433.8125 L 122.679688 695.234375 C 122.679688 696.507812 122.710938 697.777344 122.773438 699.050781 C 122.835938 700.320312 122.929688 701.589844 123.054688 702.855469 C 123.179688 704.121094 123.335938 705.382812 123.523438 706.640625 C 123.710938 707.898438 123.925781 709.152344 124.175781 710.402344 C 124.421875 711.648438 124.703125 712.890625 125.011719 714.125 C 125.320312 715.359375 125.660156 716.585938 126.027344 717.800781 C 126.398438 719.019531 126.796875 720.226562 127.226562 721.425781 C 127.652344 722.621094 128.113281 723.808594 128.597656 724.984375 C 129.085938 726.160156 129.601562 727.324219 130.144531 728.472656 C 130.6875 729.625 131.261719 730.757812 131.859375 731.882812 C 132.460938 733.003906 133.085938 734.109375 133.742188 735.203125 C 134.394531 736.292969 135.074219 737.367188 135.78125 738.425781 C 136.488281 739.484375 137.222656 740.523438 137.980469 741.546875 C 138.738281 742.566406 139.519531 743.570312 140.328125 744.554688 C 141.136719 745.535156 141.964844 746.5 142.820312 747.441406 C 143.675781 748.386719 144.550781 749.308594 145.453125 750.207031 C 146.351562 751.105469 147.273438 751.984375 148.214844 752.835938 C 149.15625 753.691406 150.121094 754.523438 151.105469 755.328125 C 152.085938 756.136719 153.089844 756.917969 154.113281 757.675781 C 155.132812 758.433594 156.175781 759.167969 157.230469 759.875 C 158.289062 760.582031 159.363281 761.261719 160.457031 761.917969 C 161.546875 762.570312 162.652344 763.195312 163.777344 763.796875 C 164.898438 764.398438 166.035156 764.96875 167.183594 765.511719 C 168.335938 766.054688 169.496094 766.570312 170.671875 767.058594 C 171.847656 767.546875 173.035156 768.003906 174.234375 768.433594 C 175.429688 768.859375 176.636719 769.257812 177.855469 769.628906 C 179.074219 770 180.300781 770.335938 181.535156 770.648438 C 182.769531 770.957031 184.007812 771.234375 185.257812 771.484375 C 186.503906 771.730469 187.757812 771.949219 189.015625 772.136719 C 190.273438 772.320312 191.535156 772.476562 192.804688 772.601562 C 194.070312 772.726562 195.339844 772.820312 196.609375 772.882812 C 197.878906 772.945312 199.152344 772.976562 200.421875 772.976562 L 615.050781 772.976562 C 616.320312 772.976562 617.59375 772.945312 618.863281 772.882812 C 620.132812 772.820312 621.402344 772.726562 622.667969 772.601562 C 623.933594 772.476562 625.199219 772.320312 626.457031 772.136719 C 627.714844 771.949219 628.96875 771.730469 630.214844 771.484375 C 631.464844 771.234375 632.703125 770.957031 633.9375 770.648438 C 635.171875 770.335938 636.398438 770 637.617188 769.628906 C 638.835938 769.257812 640.042969 768.859375 641.238281 768.433594 C 642.4375 768.003906 643.625 767.546875 644.800781 767.058594 C 645.976562 766.570312 647.136719 766.054688 648.289062 765.511719 C 649.4375 764.96875 650.574219 764.398438 651.695312 763.796875 C 652.820312 763.195312 653.925781 762.570312 655.015625 761.917969 C 656.109375 761.261719 657.183594 760.582031 658.242188 759.875 C 659.296875 759.167969 660.339844 758.433594 661.359375 757.675781 C 662.382812 756.917969 663.386719 756.136719 664.367188 755.328125 C 665.351562 754.523438 666.316406 753.691406 667.257812 752.835938 C 668.199219 751.984375 669.121094 751.105469 670.019531 750.207031 C 670.921875 749.308594 671.796875 748.386719 672.652344 747.441406 C 673.507812 746.5 674.335938 745.535156 675.144531 744.554688 C 675.953125 743.570312 676.734375 742.566406 677.492188 741.546875 C 678.25 740.523438 678.984375 739.484375 679.691406 738.425781 C 680.394531 737.367188 681.078125 736.292969 681.730469 735.203125 C 682.386719 734.109375 683.011719 733.003906 683.613281 731.882812 C 684.210938 730.757812 684.785156 729.625 685.328125 728.472656 C 685.871094 727.324219 686.386719 726.160156 686.875 724.984375 C 687.359375 723.808594 687.816406 722.621094 688.246094 721.425781 C 688.675781 720.226562 689.074219 719.019531 689.445312 717.800781 C 689.8125 716.585938 690.152344 715.359375 690.460938 714.125 C 690.769531 712.890625 691.050781 711.648438 691.296875 710.402344 C 691.546875 709.152344 691.761719 707.898438 691.949219 706.640625 C 692.136719 705.382812 692.292969 704.121094 692.417969 702.855469 C 692.542969 701.589844 692.636719 700.320312 692.699219 699.050781 C 692.761719 697.777344 692.792969 696.507812 692.792969 695.234375 L 692.792969 433.8125 C 699.191406 436.820312 705.882812 438.886719 712.863281 440.015625 C 719.84375 441.144531 726.84375 441.285156 733.867188 440.445312 C 736.402344 440.152344 738.914062 439.730469 741.410156 439.183594 C 743.902344 438.636719 746.363281 437.96875 748.789062 437.171875 C 751.214844 436.378906 753.597656 435.46875 755.929688 434.4375 C 758.265625 433.40625 760.542969 432.257812 762.761719 431 C 764.984375 429.738281 767.136719 428.371094 769.21875 426.894531 C 771.300781 425.421875 773.304688 423.84375 775.230469 422.167969 C 777.15625 420.492188 778.992188 418.722656 780.742188 416.863281 C 782.488281 415.003906 784.140625 413.058594 785.695312 411.035156 C 786.460938 410.035156 787.203125 409.019531 787.921875 407.984375 C 788.640625 406.949219 789.332031 405.898438 790 404.828125 C 790.667969 403.761719 791.308594 402.675781 791.921875 401.578125 C 792.535156 400.476562 793.125 399.363281 793.683594 398.234375 C 794.246094 397.109375 794.777344 395.96875 795.285156 394.8125 C 795.789062 393.660156 796.269531 392.496094 796.71875 391.320312 C 797.167969 390.140625 797.585938 388.953125 797.976562 387.757812 C 798.371094 386.5625 798.734375 385.355469 799.066406 384.140625 C 799.398438 382.925781 799.703125 381.703125 799.976562 380.472656 C 800.25 379.246094 800.496094 378.011719 800.710938 376.769531 C 800.925781 375.527344 801.109375 374.28125 801.261719 373.03125 C 801.417969 371.78125 801.542969 370.527344 801.636719 369.273438 C 801.730469 368.015625 801.792969 366.757812 801.824219 365.5 C 801.855469 364.242188 801.859375 362.980469 801.832031 361.722656 C 801.804688 360.464844 801.742188 359.207031 801.65625 357.949219 C 801.566406 356.691406 801.445312 355.4375 801.296875 354.1875 C 801.148438 352.9375 800.96875 351.691406 800.757812 350.449219 C 800.546875 349.207031 800.308594 347.972656 800.035156 346.742188 C 799.765625 345.511719 799.46875 344.289062 799.136719 343.074219 C 798.808594 341.855469 798.449219 340.648438 798.0625 339.449219 C 797.675781 338.253906 797.257812 337.0625 796.816406 335.886719 C 796.371094 334.707031 795.894531 333.539062 795.394531 332.386719 C 794.894531 331.230469 794.363281 330.085938 793.808594 328.957031 C 793.25 327.828125 792.667969 326.710938 792.054688 325.609375 C 791.445312 324.507812 790.808594 323.421875 790.144531 322.351562 C 789.480469 321.28125 788.792969 320.226562 788.078125 319.191406 C 787.363281 318.152344 786.625 317.132812 785.859375 316.132812 C 785.097656 315.128906 784.308594 314.148438 783.5 313.183594 C 782.6875 312.21875 781.851562 311.277344 780.996094 310.355469 C 780.140625 309.429688 779.261719 308.527344 778.359375 307.648438 C 777.460938 306.769531 776.539062 305.910156 775.597656 305.074219 C 774.652344 304.238281 773.691406 303.425781 772.710938 302.636719 Z M 485.480469 721.148438 L 329.992188 721.148438 L 329.992188 539.75 C 329.992188 538.902344 330.035156 538.054688 330.117188 537.210938 C 330.203125 536.363281 330.328125 535.527344 330.492188 534.695312 C 330.65625 533.863281 330.863281 533.039062 331.109375 532.226562 C 331.355469 531.414062 331.640625 530.617188 331.964844 529.832031 C 332.292969 529.046875 332.652344 528.28125 333.054688 527.535156 C 333.453125 526.785156 333.890625 526.058594 334.359375 525.351562 C 334.832031 524.648438 335.335938 523.964844 335.875 523.308594 C 336.414062 522.652344 336.984375 522.027344 337.585938 521.425781 C 338.183594 520.824219 338.8125 520.257812 339.46875 519.71875 C 340.125 519.179688 340.804688 518.675781 341.511719 518.203125 C 342.214844 517.730469 342.945312 517.296875 343.691406 516.894531 C 344.441406 516.496094 345.207031 516.132812 345.992188 515.808594 C 346.773438 515.484375 347.574219 515.199219 348.386719 514.953125 C 349.199219 514.703125 350.019531 514.5 350.851562 514.332031 C 351.683594 514.167969 352.523438 514.042969 353.367188 513.960938 C 354.210938 513.878906 355.058594 513.835938 355.90625 513.835938 L 459.566406 513.835938 C 460.414062 513.835938 461.261719 513.878906 462.105469 513.960938 C 462.949219 514.042969 463.789062 514.167969 464.621094 514.332031 C 465.453125 514.5 466.273438 514.703125 467.085938 514.953125 C 467.898438 515.199219 468.699219 515.484375 469.480469 515.808594 C 470.265625 516.132812 471.03125 516.496094 471.78125 516.894531 C 472.527344 517.296875 473.257812 517.730469 473.960938 518.203125 C 474.667969 518.675781 475.347656 519.179688 476.003906 519.71875 C 476.660156 520.257812 477.289062 520.824219 477.886719 521.425781 C 478.488281 522.027344 479.058594 522.652344 479.597656 523.308594 C 480.136719 523.964844 480.640625 524.648438 481.109375 525.351562 C 481.582031 526.058594 482.019531 526.785156 482.417969 527.535156 C 482.820312 528.28125 483.179688 529.046875 483.507812 529.832031 C 483.832031 530.617188 484.117188 531.414062 484.363281 532.226562 C 484.609375 533.039062 484.816406 533.863281 484.980469 534.695312 C 485.144531 535.527344 485.269531 536.363281 485.355469 537.210938 C 485.4375 538.054688 485.480469 538.902344 485.480469 539.75 Z M 640.964844 695.234375 C 640.964844 696.082031 640.921875 696.929688 640.839844 697.773438 C 640.753906 698.617188 640.632812 699.457031 640.464844 700.289062 C 640.300781 701.121094 640.09375 701.945312 639.847656 702.757812 C 639.601562 703.570312 639.316406 704.367188 638.992188 705.152344 C 638.664062 705.933594 638.304688 706.703125 637.902344 707.449219 C 637.503906 708.199219 637.066406 708.925781 636.597656 709.632812 C 636.125 710.335938 635.621094 711.019531 635.082031 711.675781 C 634.542969 712.328125 633.972656 712.957031 633.375 713.558594 C 632.773438 714.160156 632.144531 714.726562 631.488281 715.265625 C 630.832031 715.804688 630.152344 716.308594 629.445312 716.78125 C 628.742188 717.253906 628.011719 717.6875 627.265625 718.089844 C 626.515625 718.488281 625.75 718.851562 624.964844 719.175781 C 624.183594 719.5 623.382812 719.785156 622.570312 720.03125 C 621.757812 720.277344 620.9375 720.484375 620.105469 720.648438 C 619.273438 720.816406 618.433594 720.941406 617.589844 721.023438 C 616.746094 721.105469 615.898438 721.148438 615.050781 721.148438 L 537.308594 721.148438 L 537.308594 539.75 C 537.308594 538.476562 537.277344 537.207031 537.214844 535.933594 C 537.152344 534.664062 537.058594 533.394531 536.933594 532.128906 C 536.808594 530.863281 536.652344 529.601562 536.464844 528.34375 C 536.277344 527.082031 536.0625 525.832031 535.8125 524.582031 C 535.566406 523.335938 535.285156 522.09375 534.976562 520.859375 C 534.667969 519.625 534.328125 518.398438 533.960938 517.183594 C 533.589844 515.964844 533.191406 514.757812 532.761719 513.558594 C 532.332031 512.359375 531.875 511.175781 531.390625 510 C 530.902344 508.824219 530.386719 507.660156 529.84375 506.511719 C 529.296875 505.359375 528.726562 504.222656 528.128906 503.101562 C 527.527344 501.980469 526.898438 500.875 526.246094 499.78125 C 525.59375 498.691406 524.910156 497.617188 524.203125 496.558594 C 523.496094 495.5 522.765625 494.460938 522.007812 493.4375 C 521.25 492.417969 520.46875 491.414062 519.660156 490.429688 C 518.851562 489.445312 518.023438 488.484375 517.167969 487.539062 C 516.3125 486.597656 515.4375 485.675781 514.535156 484.777344 C 513.636719 483.878906 512.714844 483 511.773438 482.144531 C 510.832031 481.292969 509.867188 480.460938 508.882812 479.652344 C 507.898438 478.847656 506.898438 478.0625 505.875 477.304688 C 504.855469 476.546875 503.8125 475.816406 502.753906 475.109375 C 501.699219 474.402344 500.625 473.722656 499.53125 473.066406 C 498.441406 472.414062 497.335938 471.785156 496.210938 471.1875 C 495.089844 470.585938 493.953125 470.015625 492.804688 469.472656 C 491.652344 468.925781 490.492188 468.410156 489.316406 467.925781 C 488.140625 467.4375 486.953125 466.980469 485.753906 466.550781 C 484.558594 466.125 483.347656 465.722656 482.132812 465.355469 C 480.914062 464.984375 479.6875 464.644531 478.453125 464.335938 C 477.21875 464.027344 475.980469 463.75 474.730469 463.5 C 473.484375 463.253906 472.230469 463.035156 470.972656 462.847656 C 469.714844 462.660156 468.449219 462.507812 467.183594 462.382812 C 465.917969 462.257812 464.648438 462.164062 463.378906 462.101562 C 462.109375 462.039062 460.835938 462.007812 459.566406 462.007812 L 355.90625 462.007812 C 354.636719 462.007812 353.363281 462.039062 352.09375 462.101562 C 350.824219 462.164062 349.554688 462.257812 348.289062 462.382812 C 347.023438 462.507812 345.757812 462.660156 344.5 462.847656 C 343.242188 463.035156 341.988281 463.253906 340.742188 463.5 C 339.492188 463.75 338.253906 464.027344 337.019531 464.335938 C 335.785156 464.644531 334.558594 464.984375 333.339844 465.355469 C 332.125 465.722656 330.914062 466.125 329.71875 466.550781 C 328.519531 466.980469 327.332031 467.4375 326.15625 467.925781 C 324.980469 468.410156 323.820312 468.925781 322.667969 469.472656 C 321.519531 470.015625 320.382812 470.585938 319.261719 471.1875 C 318.136719 471.785156 317.03125 472.414062 315.941406 473.066406 C 314.847656 473.722656 313.773438 474.402344 312.714844 475.109375 C 311.660156 475.816406 310.617188 476.546875 309.597656 477.304688 C 308.574219 478.0625 307.574219 478.847656 306.589844 479.652344 C 305.605469 480.460938 304.640625 481.292969 303.699219 482.144531 C 302.757812 483 301.835938 483.878906 300.9375 484.777344 C 300.035156 485.675781 299.160156 486.597656 298.304688 487.539062 C 297.449219 488.484375 296.621094 489.445312 295.8125 490.429688 C 295.003906 491.414062 294.222656 492.417969 293.464844 493.4375 C 292.707031 494.460938 291.972656 495.5 291.269531 496.558594 C 290.5625 497.617188 289.878906 498.691406 289.226562 499.78125 C 288.570312 500.875 287.945312 501.980469 287.34375 503.101562 C 286.746094 504.222656 286.175781 505.359375 285.628906 506.511719 C 285.085938 507.660156 284.570312 508.824219 284.082031 510 C 283.597656 511.175781 283.140625 512.359375 282.710938 513.558594 C 282.28125 514.757812 281.882812 515.964844 281.511719 517.183594 C 281.144531 518.398438 280.804688 519.625 280.496094 520.859375 C 280.1875 522.09375 279.90625 523.335938 279.660156 524.582031 C 279.410156 525.832031 279.195312 527.082031 279.007812 528.34375 C 278.820312 529.601562 278.664062 530.863281 278.539062 532.128906 C 278.414062 533.394531 278.320312 534.664062 278.257812 535.933594 C 278.195312 537.207031 278.164062 538.476562 278.164062 539.75 L 278.164062 721.148438 L 200.421875 721.148438 C 199.574219 721.148438 198.726562 721.105469 197.882812 721.023438 C 197.039062 720.941406 196.199219 720.816406 195.367188 720.648438 C 194.535156 720.484375 193.714844 720.277344 192.902344 720.03125 C 192.089844 719.785156 191.289062 719.5 190.507812 719.175781 C 189.722656 718.851562 188.957031 718.488281 188.207031 718.089844 C 187.460938 717.6875 186.730469 717.253906 186.027344 716.78125 C 185.320312 716.308594 184.640625 715.804688 183.984375 715.265625 C 183.328125 714.726562 182.699219 714.160156 182.097656 713.558594 C 181.5 712.957031 180.929688 712.328125 180.390625 711.675781 C 179.851562 711.019531 179.347656 710.335938 178.875 709.632812 C 178.40625 708.925781 177.96875 708.199219 177.570312 707.449219 C 177.167969 706.703125 176.804688 705.933594 176.480469 705.152344 C 176.15625 704.367188 175.871094 703.570312 175.625 702.757812 C 175.378906 701.945312 175.171875 701.121094 175.007812 700.289062 C 174.839844 699.457031 174.71875 698.617188 174.632812 697.773438 C 174.550781 696.929688 174.507812 696.082031 174.507812 695.234375 L 174.507812 395.640625 L 407.734375 209.421875 L 640.964844 395.667969 Z M 744.621094 379.339844 C 743.601562 380.667969 742.457031 381.882812 741.195312 382.984375 C 739.933594 384.085938 738.574219 385.050781 737.121094 385.882812 C 735.664062 386.710938 734.140625 387.390625 732.550781 387.914062 C 730.960938 388.441406 729.335938 388.804688 727.671875 389.007812 C 726.015625 389.210938 724.359375 389.246094 722.699219 389.117188 C 721.035156 388.988281 719.402344 388.691406 717.800781 388.234375 C 716.199219 387.777344 714.65625 387.164062 713.175781 386.394531 C 711.699219 385.625 710.308594 384.714844 709.015625 383.667969 L 439.972656 168.917969 C 438.839844 168.007812 437.671875 167.148438 436.464844 166.335938 C 435.261719 165.527344 434.023438 164.765625 432.753906 164.0625 C 431.484375 163.355469 430.1875 162.703125 428.859375 162.105469 C 427.535156 161.511719 426.1875 160.972656 424.816406 160.488281 C 423.449219 160.007812 422.058594 159.582031 420.652344 159.21875 C 419.246094 158.851562 417.828125 158.546875 416.394531 158.304688 C 414.960938 158.058594 413.523438 157.875 412.074219 157.753906 C 410.625 157.628906 409.175781 157.566406 407.722656 157.566406 C 406.269531 157.566406 404.820312 157.628906 403.371094 157.753906 C 401.925781 157.875 400.484375 158.058594 399.050781 158.304688 C 397.621094 158.546875 396.199219 158.851562 394.792969 159.21875 C 393.386719 159.582031 392 160.007812 390.628906 160.488281 C 389.257812 160.972656 387.910156 161.511719 386.585938 162.105469 C 385.261719 162.703125 383.964844 163.355469 382.695312 164.0625 C 381.421875 164.765625 380.1875 165.527344 378.980469 166.335938 C 377.773438 167.148438 376.605469 168.007812 375.472656 168.917969 L 106.433594 383.667969 C 105.78125 384.179688 105.101562 384.660156 104.402344 385.105469 C 103.703125 385.550781 102.980469 385.960938 102.238281 386.332031 C 101.5 386.707031 100.742188 387.046875 99.96875 387.34375 C 99.195312 387.644531 98.40625 387.90625 97.605469 388.128906 C 96.808594 388.351562 96 388.535156 95.179688 388.679688 C 94.363281 388.820312 93.542969 388.925781 92.714844 388.988281 C 91.886719 389.050781 91.058594 389.070312 90.226562 389.054688 C 89.398438 389.035156 88.570312 388.972656 87.746094 388.875 C 86.921875 388.773438 86.105469 388.632812 85.296875 388.453125 C 84.484375 388.273438 83.6875 388.050781 82.898438 387.792969 C 82.109375 387.535156 81.335938 387.238281 80.574219 386.902344 C 79.816406 386.566406 79.074219 386.195312 78.351562 385.789062 C 77.628906 385.378906 76.925781 384.9375 76.246094 384.460938 C 75.570312 383.984375 74.914062 383.476562 74.285156 382.933594 C 73.65625 382.394531 73.054688 381.820312 72.480469 381.222656 C 71.90625 380.621094 71.363281 379.996094 70.851562 379.339844 C 70.332031 378.675781 69.84375 377.988281 69.390625 377.273438 C 68.933594 376.5625 68.515625 375.828125 68.136719 375.074219 C 67.753906 374.320312 67.40625 373.550781 67.101562 372.761719 C 66.792969 371.972656 66.527344 371.171875 66.296875 370.359375 C 66.070312 369.546875 65.882812 368.722656 65.734375 367.890625 C 65.585938 367.058594 65.476562 366.222656 65.410156 365.378906 C 65.347656 364.535156 65.320312 363.691406 65.335938 362.847656 C 65.355469 362 65.410156 361.160156 65.511719 360.320312 C 65.609375 359.480469 65.75 358.648438 65.929688 357.820312 C 66.109375 356.996094 66.332031 356.179688 66.589844 355.375 C 66.851562 354.574219 67.148438 353.78125 67.488281 353.007812 C 67.824219 352.234375 68.199219 351.476562 68.609375 350.738281 C 69.023438 350 69.46875 349.28125 69.949219 348.589844 C 70.429688 347.894531 70.945312 347.222656 71.492188 346.578125 C 72.039062 345.9375 72.617188 345.320312 73.226562 344.730469 C 73.832031 344.144531 74.464844 343.585938 75.128906 343.0625 L 359.5625 116.132812 C 361.253906 114.769531 363 113.480469 364.796875 112.269531 C 366.597656 111.054688 368.445312 109.917969 370.34375 108.863281 C 372.238281 107.804688 374.175781 106.832031 376.15625 105.9375 C 378.136719 105.046875 380.148438 104.238281 382.195312 103.515625 C 384.242188 102.796875 386.316406 102.160156 388.417969 101.613281 C 390.519531 101.070312 392.640625 100.613281 394.78125 100.246094 C 396.921875 99.878906 399.070312 99.605469 401.234375 99.421875 C 403.398438 99.238281 405.566406 99.144531 407.734375 99.144531 C 409.90625 99.144531 412.074219 99.238281 414.238281 99.421875 C 416.402344 99.605469 418.550781 99.878906 420.691406 100.246094 C 422.832031 100.613281 424.953125 101.070312 427.054688 101.613281 C 429.15625 102.160156 431.230469 102.796875 433.277344 103.515625 C 435.324219 104.238281 437.335938 105.046875 439.316406 105.9375 C 441.296875 106.832031 443.234375 107.804688 445.128906 108.863281 C 447.027344 109.917969 448.875 111.054688 450.675781 112.269531 C 452.472656 113.480469 454.21875 114.769531 455.910156 116.132812 L 740.371094 343.164062 C 741.027344 343.691406 741.660156 344.246094 742.261719 344.835938 C 742.863281 345.421875 743.4375 346.039062 743.980469 346.679688 C 744.527344 347.324219 745.035156 347.992188 745.515625 348.6875 C 745.992188 349.378906 746.4375 350.09375 746.84375 350.832031 C 747.253906 351.566406 747.625 352.320312 747.960938 353.09375 C 748.296875 353.867188 748.59375 354.652344 748.851562 355.453125 C 749.109375 356.257812 749.328125 357.070312 749.507812 357.890625 C 749.6875 358.714844 749.824219 359.542969 749.921875 360.378906 C 750.019531 361.21875 750.078125 362.054688 750.09375 362.898438 C 750.113281 363.738281 750.085938 364.582031 750.019531 365.421875 C 749.957031 366.261719 749.851562 367.09375 749.703125 367.921875 C 749.554688 368.753906 749.367188 369.574219 749.140625 370.382812 C 748.914062 371.195312 748.648438 371.992188 748.34375 372.777344 C 748.039062 373.5625 747.699219 374.332031 747.320312 375.082031 C 746.9375 375.835938 746.523438 376.566406 746.074219 377.277344 C 745.621094 377.988281 745.136719 378.675781 744.621094 379.339844 Z M 744.621094 379.339844 " fill-opacity="1" fill-rule="nonzero"/></g></svg>