<svg xmlns="http://www.w3.org/2000/svg" xmlns:xlink="http://www.w3.org/1999/xlink" width="1080" zoomAndPan="magnify" viewBox="0 0 810 809.999993" height="1080" preserveAspectRatio="xMidYMid meet" version="1.0"><path fill="#475dd7" d="M 19.285156 632.957031 C 18.019531 632.972656 16.769531 632.855469 15.527344 632.609375 C 14.289062 632.363281 13.085938 631.992188 11.921875 631.492188 C 10.761719 630.996094 9.664062 630.382812 8.628906 629.652344 C 7.59375 628.925781 6.648438 628.097656 5.785156 627.171875 C 5.335938 626.722656 4.90625 626.257812 4.503906 625.765625 C 4.097656 625.277344 3.71875 624.769531 3.363281 624.242188 C 3.011719 623.714844 2.683594 623.171875 2.382812 622.613281 C 2.082031 622.054688 1.808594 621.480469 1.5625 620.894531 C 1.320312 620.308594 1.105469 619.710938 0.921875 619.105469 C 0.734375 618.496094 0.578125 617.882812 0.457031 617.261719 C 0.332031 616.636719 0.238281 616.011719 0.175781 615.378906 C 0.113281 614.746094 0.0820312 614.113281 0.0820312 613.480469 C 0.0820312 612.84375 0.113281 612.210938 0.175781 611.578125 C 0.238281 610.945312 0.332031 610.320312 0.457031 609.695312 C 0.578125 609.074219 0.734375 608.460938 0.921875 607.851562 C 1.105469 607.246094 1.320312 606.648438 1.5625 606.0625 C 1.808594 605.476562 2.082031 604.902344 2.382812 604.34375 C 2.683594 603.785156 3.011719 603.242188 3.363281 602.714844 C 3.71875 602.1875 4.097656 601.679688 4.503906 601.191406 C 4.90625 600.699219 5.335938 600.234375 5.785156 599.785156 L 243 368.355469 C 243.445312 367.921875 243.910156 367.507812 244.394531 367.117188 C 244.882812 366.722656 245.386719 366.355469 245.90625 366.015625 C 246.425781 365.671875 246.964844 365.355469 247.515625 365.066406 C 248.066406 364.773438 248.632812 364.511719 249.207031 364.277344 C 249.785156 364.039062 250.375 363.832031 250.972656 363.652344 C 251.566406 363.476562 252.171875 363.324219 252.785156 363.207031 C 253.398438 363.085938 254.011719 362.996094 254.632812 362.933594 C 255.253906 362.875 255.875 362.84375 256.5 362.84375 C 257.125 362.84375 257.746094 362.875 258.367188 362.933594 C 258.988281 362.996094 259.601562 363.085938 260.214844 363.207031 C 260.828125 363.324219 261.433594 363.476562 262.027344 363.652344 C 262.625 363.832031 263.214844 364.039062 263.792969 364.277344 C 264.367188 364.511719 264.933594 364.773438 265.484375 365.066406 C 266.035156 365.355469 266.574219 365.671875 267.09375 366.015625 C 267.613281 366.355469 268.117188 366.722656 268.605469 367.117188 C 269.089844 367.507812 269.554688 367.921875 270 368.355469 L 361.414062 458.230469 L 587.058594 250.714844 C 587.949219 249.914062 588.910156 249.203125 589.933594 248.578125 C 590.960938 247.953125 592.03125 247.429688 593.152344 247 C 594.273438 246.570312 595.421875 246.25 596.601562 246.03125 C 597.78125 245.8125 598.972656 245.707031 600.171875 245.707031 C 601.371094 245.707031 602.5625 245.8125 603.742188 246.03125 C 604.917969 246.25 606.070312 246.570312 607.191406 247 C 608.3125 247.429688 609.382812 247.953125 610.40625 248.578125 C 611.433594 249.203125 612.390625 249.914062 613.285156 250.714844 L 801.515625 425.441406 C 802.339844 426.328125 803.078125 427.28125 803.726562 428.304688 C 804.375 429.324219 804.921875 430.402344 805.367188 431.527344 C 805.8125 432.652344 806.148438 433.808594 806.375 435 C 806.601562 436.1875 806.714844 437.386719 806.71875 438.597656 C 806.71875 439.808594 806.609375 441.007812 806.382812 442.199219 C 806.160156 443.386719 805.824219 444.546875 805.382812 445.671875 C 804.9375 446.800781 804.394531 447.875 803.75 448.898438 C 803.105469 449.925781 802.371094 450.878906 801.542969 451.765625 C 800.71875 452.652344 799.816406 453.453125 798.84375 454.167969 C 797.867188 454.886719 796.832031 455.503906 795.738281 456.023438 C 794.648438 456.546875 793.515625 456.960938 792.34375 457.269531 C 791.171875 457.578125 789.984375 457.773438 788.777344 457.859375 C 787.570312 457.945312 786.363281 457.914062 785.160156 457.773438 C 783.960938 457.628906 782.78125 457.375 781.625 457.011719 C 780.472656 456.648438 779.363281 456.179688 778.296875 455.605469 C 777.230469 455.03125 776.226562 454.363281 775.285156 453.601562 L 601.328125 291.214844 L 375.300781 499.113281 C 374.398438 499.941406 373.433594 500.675781 372.394531 501.324219 C 371.359375 501.96875 370.273438 502.511719 369.132812 502.957031 C 367.996094 503.398438 366.824219 503.734375 365.625 503.960938 C 364.425781 504.183594 363.214844 504.296875 361.992188 504.296875 C 360.769531 504.296875 359.558594 504.183594 358.359375 503.960938 C 357.160156 503.734375 355.992188 503.398438 354.851562 502.957031 C 353.714844 502.511719 352.625 501.96875 351.589844 501.324219 C 350.554688 500.675781 349.585938 499.941406 348.6875 499.113281 L 257.65625 406.929688 L 33.941406 626.015625 C 33.046875 627.089844 32.046875 628.058594 30.9375 628.914062 C 29.832031 629.773438 28.644531 630.5 27.378906 631.101562 C 26.113281 631.699219 24.796875 632.15625 23.433594 632.46875 C 22.070312 632.78125 20.6875 632.945312 19.285156 632.957031 Z M 19.285156 632.957031 " fill-opacity="1" fill-rule="nonzero"/><path fill="#475dd7" d="M 212.144531 283.113281 C 210.769531 283.121094 209.398438 283.09375 208.027344 283.03125 C 206.65625 282.972656 205.289062 282.875 203.921875 282.746094 C 202.554688 282.617188 201.191406 282.457031 199.832031 282.261719 C 198.476562 282.066406 197.121094 281.835938 195.773438 281.574219 C 194.429688 281.3125 193.085938 281.019531 191.753906 280.691406 C 190.421875 280.363281 189.097656 280 187.785156 279.609375 C 186.46875 279.214844 185.164062 278.789062 183.871094 278.332031 C 182.574219 277.875 181.292969 277.386719 180.023438 276.867188 C 178.753906 276.34375 177.496094 275.792969 176.253906 275.210938 C 175.011719 274.628906 173.785156 274.019531 172.570312 273.375 C 171.359375 272.734375 170.160156 272.058594 168.980469 271.359375 C 167.800781 270.65625 166.640625 269.925781 165.496094 269.167969 C 164.351562 268.410156 163.230469 267.625 162.125 266.808594 C 161.019531 265.996094 159.933594 265.15625 158.871094 264.289062 C 157.804688 263.421875 156.765625 262.527344 155.746094 261.609375 C 154.726562 260.691406 153.726562 259.75 152.753906 258.78125 C 151.78125 257.8125 150.832031 256.824219 149.90625 255.808594 C 148.984375 254.792969 148.082031 253.757812 147.210938 252.699219 C 146.335938 251.640625 145.488281 250.5625 144.667969 249.460938 C 143.847656 248.363281 143.054688 247.242188 142.289062 246.101562 C 141.523438 244.964844 140.785156 243.804688 140.078125 242.632812 C 139.367188 241.457031 138.691406 240.261719 138.039062 239.054688 C 137.390625 237.847656 136.769531 236.621094 136.179688 235.382812 C 135.589844 234.144531 135.03125 232.890625 134.503906 231.625 C 133.976562 230.355469 133.476562 229.078125 133.011719 227.785156 C 132.546875 226.496094 132.113281 225.191406 131.714844 223.878906 C 131.3125 222.566406 130.945312 221.246094 130.609375 219.914062 C 130.269531 218.585938 129.96875 217.246094 129.699219 215.902344 C 129.425781 214.554688 129.191406 213.203125 128.988281 211.847656 C 128.78125 210.488281 128.613281 209.128906 128.476562 207.761719 C 128.339844 206.398438 128.234375 205.027344 128.164062 203.660156 C 128.097656 202.289062 128.058594 200.914062 128.058594 199.542969 C 128.054688 198.171875 128.085938 196.800781 128.152344 195.429688 C 128.21875 194.058594 128.316406 192.6875 128.449219 191.324219 C 128.582031 189.957031 128.75 188.59375 128.949219 187.238281 C 129.148438 185.878906 129.382812 184.527344 129.648438 183.179688 C 129.914062 181.835938 130.210938 180.496094 130.542969 179.164062 C 130.878906 177.832031 131.242188 176.507812 131.640625 175.195312 C 132.035156 173.882812 132.464844 172.578125 132.925781 171.285156 C 133.386719 169.992188 133.878906 168.710938 134.40625 167.445312 C 134.929688 166.175781 135.484375 164.921875 136.070312 163.679688 C 136.65625 162.4375 137.273438 161.210938 137.917969 160 C 138.566406 158.789062 139.242188 157.597656 139.945312 156.417969 C 140.652344 155.242188 141.382812 154.082031 142.144531 152.941406 C 142.910156 151.800781 143.699219 150.675781 144.515625 149.574219 C 145.332031 148.472656 146.175781 147.390625 147.046875 146.328125 C 147.917969 145.269531 148.8125 144.230469 149.734375 143.210938 C 150.65625 142.195312 151.601562 141.199219 152.574219 140.230469 C 153.542969 139.261719 154.539062 138.3125 155.554688 137.390625 C 156.570312 136.46875 157.609375 135.574219 158.671875 134.703125 C 159.734375 133.832031 160.816406 132.988281 161.917969 132.171875 C 163.019531 131.355469 164.140625 130.566406 165.285156 129.804688 C 166.425781 129.042969 167.585938 128.308594 168.761719 127.601562 C 169.941406 126.898438 171.132812 126.222656 172.34375 125.574219 C 173.554688 124.929688 174.78125 124.3125 176.023438 123.726562 C 177.261719 123.140625 178.519531 122.585938 179.785156 122.0625 C 181.054688 121.539062 182.335938 121.042969 183.628906 120.582031 C 184.921875 120.121094 186.222656 119.691406 187.539062 119.296875 C 188.851562 118.898438 190.175781 118.535156 191.507812 118.203125 C 192.835938 117.871094 194.175781 117.570312 195.523438 117.304688 C 196.871094 117.039062 198.222656 116.804688 199.578125 116.605469 C 200.9375 116.40625 202.300781 116.238281 203.664062 116.105469 C 205.03125 115.976562 206.398438 115.875 207.769531 115.808594 C 209.140625 115.746094 210.515625 115.714844 211.886719 115.714844 C 213.257812 115.71875 214.628906 115.753906 216 115.824219 C 217.371094 115.890625 218.738281 115.996094 220.105469 116.132812 C 221.472656 116.269531 222.832031 116.441406 224.191406 116.644531 C 225.546875 116.847656 226.898438 117.085938 228.246094 117.355469 C 229.589844 117.625 230.929688 117.929688 232.257812 118.265625 C 233.589844 118.601562 234.910156 118.96875 236.222656 119.371094 C 237.535156 119.773438 238.839844 120.207031 240.128906 120.671875 C 241.421875 121.136719 242.699219 121.632812 243.964844 122.160156 C 245.234375 122.6875 246.484375 123.246094 247.726562 123.835938 C 248.964844 124.425781 250.1875 125.046875 251.398438 125.695312 C 252.605469 126.347656 253.796875 127.027344 254.972656 127.734375 C 256.148438 128.445312 257.304688 129.179688 258.445312 129.945312 C 259.585938 130.710938 260.703125 131.503906 261.804688 132.324219 C 262.90625 133.144531 263.984375 133.992188 265.042969 134.867188 C 266.101562 135.742188 267.136719 136.640625 268.152344 137.566406 C 269.164062 138.488281 270.15625 139.4375 271.125 140.410156 C 272.089844 141.386719 273.035156 142.382812 273.953125 143.402344 C 274.871094 144.421875 275.765625 145.464844 276.632812 146.527344 C 277.5 147.589844 278.339844 148.675781 279.152344 149.78125 C 279.96875 150.886719 280.753906 152.011719 281.511719 153.152344 C 282.269531 154.296875 283 155.460938 283.703125 156.640625 C 284.402344 157.820312 285.074219 159.015625 285.71875 160.226562 C 286.359375 161.441406 286.972656 162.667969 287.554688 163.910156 C 288.136719 165.15625 288.6875 166.410156 289.207031 167.679688 C 289.730469 168.949219 290.21875 170.234375 290.675781 171.527344 C 291.132812 172.820312 291.558594 174.125 291.949219 175.441406 C 292.34375 176.753906 292.703125 178.078125 293.03125 179.414062 C 293.359375 180.746094 293.65625 182.085938 293.917969 183.433594 C 294.179688 184.78125 294.410156 186.132812 294.605469 187.492188 C 294.800781 188.847656 294.960938 190.210938 295.089844 191.578125 C 295.21875 192.945312 295.3125 194.3125 295.375 195.683594 C 295.4375 197.054688 295.464844 198.425781 295.457031 199.800781 C 295.449219 201.160156 295.410156 202.523438 295.339844 203.882812 C 295.265625 205.242188 295.160156 206.597656 295.019531 207.953125 C 294.882812 209.308594 294.710938 210.660156 294.503906 212.003906 C 294.300781 213.351562 294.0625 214.691406 293.792969 216.027344 C 293.523438 217.363281 293.21875 218.6875 292.886719 220.007812 C 292.550781 221.328125 292.183594 222.640625 291.785156 223.941406 C 291.382812 225.242188 290.953125 226.535156 290.492188 227.816406 C 290.03125 229.097656 289.535156 230.367188 289.011719 231.625 C 288.488281 232.878906 287.933594 234.125 287.351562 235.355469 C 286.765625 236.582031 286.152344 237.796875 285.507812 239 C 284.863281 240.199219 284.191406 241.382812 283.488281 242.546875 C 282.785156 243.714844 282.054688 244.863281 281.296875 245.996094 C 280.539062 247.128906 279.753906 248.238281 278.945312 249.332031 C 278.132812 250.425781 277.292969 251.5 276.429688 252.550781 C 275.5625 253.601562 274.675781 254.632812 273.757812 255.640625 C 272.84375 256.652344 271.90625 257.636719 270.941406 258.601562 C 269.980469 259.5625 268.992188 260.5 267.984375 261.417969 C 266.976562 262.332031 265.945312 263.222656 264.894531 264.085938 C 263.839844 264.949219 262.769531 265.789062 261.675781 266.601562 C 260.582031 267.414062 259.46875 268.199219 258.339844 268.957031 C 257.207031 269.714844 256.058594 270.445312 254.890625 271.144531 C 253.722656 271.847656 252.539062 272.519531 251.339844 273.164062 C 250.140625 273.808594 248.925781 274.421875 247.695312 275.007812 C 246.464844 275.589844 245.222656 276.144531 243.964844 276.671875 C 242.710938 277.195312 241.441406 277.6875 240.160156 278.148438 C 238.878906 278.609375 237.585938 279.042969 236.285156 279.441406 C 234.984375 279.839844 233.671875 280.207031 232.351562 280.542969 C 231.03125 280.878906 229.703125 281.179688 228.371094 281.449219 C 227.035156 281.71875 225.695312 281.957031 224.347656 282.164062 C 223.003906 282.367188 221.652344 282.539062 220.296875 282.679688 C 218.941406 282.816406 217.585938 282.921875 216.226562 282.996094 C 214.867188 283.070312 213.503906 283.109375 212.144531 283.113281 Z M 212.144531 154.671875 C 210.664062 154.660156 209.183594 154.71875 207.710938 154.851562 C 206.234375 154.984375 204.769531 155.1875 203.316406 155.464844 C 201.859375 155.742188 200.425781 156.089844 199.003906 156.507812 C 197.582031 156.929688 196.1875 157.414062 194.816406 157.972656 C 193.441406 158.527344 192.101562 159.148438 190.789062 159.835938 C 189.476562 160.523438 188.203125 161.277344 186.964844 162.089844 C 185.730469 162.902344 184.535156 163.773438 183.382812 164.707031 C 182.230469 165.636719 181.128906 166.621094 180.074219 167.660156 C 179.019531 168.699219 178.019531 169.789062 177.070312 170.925781 C 176.125 172.066406 175.234375 173.246094 174.40625 174.472656 C 173.574219 175.699219 172.804688 176.960938 172.097656 178.261719 C 171.390625 179.5625 170.75 180.898438 170.175781 182.261719 C 169.601562 183.625 169.09375 185.015625 168.65625 186.429688 C 168.214844 187.84375 167.847656 189.277344 167.550781 190.726562 C 167.253906 192.175781 167.027344 193.636719 166.871094 195.109375 C 166.71875 196.582031 166.636719 198.058594 166.628906 199.539062 C 166.621094 201.019531 166.683594 202.5 166.820312 203.972656 C 166.960938 205.449219 167.167969 206.910156 167.449219 208.367188 C 167.730469 209.820312 168.082031 211.253906 168.503906 212.675781 C 168.925781 214.09375 169.417969 215.488281 169.976562 216.859375 C 170.539062 218.230469 171.164062 219.570312 171.855469 220.878906 C 172.546875 222.1875 173.300781 223.460938 174.117188 224.695312 C 174.933594 225.929688 175.808594 227.121094 176.746094 228.269531 C 177.679688 229.421875 178.667969 230.519531 179.710938 231.570312 C 180.753906 232.625 181.84375 233.621094 182.984375 234.566406 C 184.125 235.507812 185.308594 236.394531 186.539062 237.222656 C 187.765625 238.050781 189.03125 238.816406 190.335938 239.519531 C 191.636719 240.222656 192.972656 240.859375 194.339844 241.429688 C 195.703125 242 197.09375 242.503906 198.511719 242.9375 C 199.925781 243.375 201.359375 243.738281 202.808594 244.03125 C 204.261719 244.324219 205.722656 244.546875 207.195312 244.695312 C 208.667969 244.84375 210.148438 244.921875 211.628906 244.925781 C 213.109375 244.929688 214.585938 244.863281 216.058594 244.722656 C 217.535156 244.582031 218.996094 244.367188 220.449219 244.082031 C 221.902344 243.796875 223.339844 243.441406 224.757812 243.015625 C 226.175781 242.585938 227.566406 242.09375 228.9375 241.527344 C 230.304688 240.964844 231.644531 240.335938 232.953125 239.640625 C 234.257812 238.945312 235.527344 238.1875 236.761719 237.367188 C 237.992188 236.546875 239.183594 235.667969 240.328125 234.730469 C 241.476562 233.792969 242.574219 232.800781 243.621094 231.753906 C 244.667969 230.710938 245.664062 229.617188 246.605469 228.472656 C 247.546875 227.328125 248.429688 226.140625 249.253906 224.910156 C 250.078125 223.679688 250.839844 222.414062 251.539062 221.109375 C 252.238281 219.804688 252.871094 218.46875 253.4375 217.097656 C 254.003906 215.730469 254.503906 214.339844 254.933594 212.921875 C 255.367188 211.507812 255.726562 210.070312 256.015625 208.621094 C 256.304688 207.167969 256.523438 205.703125 256.667969 204.230469 C 256.8125 202.757812 256.886719 201.28125 256.886719 199.800781 C 256.886719 198.328125 256.8125 196.863281 256.671875 195.402344 C 256.527344 193.9375 256.3125 192.484375 256.027344 191.042969 C 255.742188 189.601562 255.386719 188.175781 254.964844 186.769531 C 254.539062 185.359375 254.046875 183.976562 253.488281 182.617188 C 252.929688 181.257812 252.304688 179.929688 251.613281 178.632812 C 250.925781 177.332031 250.171875 176.074219 249.359375 174.847656 C 248.546875 173.621094 247.675781 172.441406 246.75 171.300781 C 245.820312 170.160156 244.839844 169.070312 243.804688 168.023438 C 242.769531 166.980469 241.6875 165.988281 240.554688 165.050781 C 239.421875 164.113281 238.246094 163.234375 237.03125 162.410156 C 235.8125 161.585938 234.558594 160.824219 233.265625 160.125 C 231.972656 159.421875 230.648438 158.789062 229.292969 158.214844 C 227.941406 157.644531 226.5625 157.140625 225.15625 156.703125 C 223.753906 156.269531 222.332031 155.902344 220.890625 155.605469 C 219.453125 155.304688 218.003906 155.078125 216.539062 154.925781 C 215.078125 154.769531 213.613281 154.683594 212.144531 154.671875 Z M 212.144531 154.671875 " fill-opacity="1" fill-rule="nonzero"/><path fill="#475dd7" d="M 675 810.769531 L 135 810.769531 C 132.816406 810.753906 130.632812 810.679688 128.449219 810.554688 C 126.265625 810.429688 124.089844 810.253906 121.917969 810.023438 C 119.742188 809.792969 117.578125 809.511719 115.417969 809.175781 C 113.257812 808.839844 111.109375 808.449219 108.96875 808.011719 C 106.828125 807.570312 104.699219 807.078125 102.582031 806.535156 C 100.464844 805.992188 98.363281 805.398438 96.273438 804.753906 C 94.1875 804.105469 92.117188 803.410156 90.0625 802.664062 C 88.007812 801.917969 85.972656 801.125 83.957031 800.277344 C 81.941406 799.433594 79.949219 798.539062 77.976562 797.597656 C 76.003906 796.65625 74.058594 795.667969 72.132812 794.632812 C 70.207031 793.59375 68.3125 792.511719 66.441406 791.382812 C 64.566406 790.253906 62.726562 789.082031 60.910156 787.863281 C 59.097656 786.644531 57.3125 785.386719 55.558594 784.082031 C 53.804688 782.777344 52.085938 781.429688 50.398438 780.042969 C 48.710938 778.652344 47.058594 777.226562 45.4375 775.757812 C 43.820312 774.289062 42.238281 772.78125 40.691406 771.234375 C 39.148438 769.691406 37.640625 768.109375 36.171875 766.488281 C 34.703125 764.871094 33.273438 763.21875 31.886719 761.53125 C 30.5 759.84375 29.152344 758.121094 27.847656 756.371094 C 26.542969 754.617188 25.28125 752.832031 24.0625 751.019531 C 22.847656 749.203125 21.671875 747.359375 20.542969 745.488281 C 19.414062 743.617188 18.332031 741.71875 17.296875 739.796875 C 16.261719 737.871094 15.273438 735.921875 14.328125 733.953125 C 13.386719 731.980469 12.496094 729.984375 11.648438 727.96875 C 10.804688 725.953125 10.007812 723.921875 9.261719 721.867188 C 8.515625 719.8125 7.820312 717.742188 7.175781 715.652344 C 6.53125 713.566406 5.9375 711.464844 5.394531 709.347656 C 4.847656 707.230469 4.359375 705.101562 3.917969 702.960938 C 3.476562 700.820312 3.089844 698.667969 2.753906 696.511719 C 2.417969 694.351562 2.136719 692.183594 1.90625 690.011719 C 1.675781 687.839844 1.496094 685.660156 1.371094 683.480469 C 1.246094 681.296875 1.175781 679.113281 1.15625 676.929688 L 1.15625 136.929688 C 1.175781 134.742188 1.246094 132.558594 1.371094 130.378906 C 1.496094 128.195312 1.675781 126.019531 1.90625 123.84375 C 2.136719 121.671875 2.417969 119.507812 2.753906 117.347656 C 3.089844 115.1875 3.476562 113.039062 3.917969 110.898438 C 4.359375 108.757812 4.847656 106.628906 5.394531 104.511719 C 5.9375 102.394531 6.53125 100.292969 7.175781 98.203125 C 7.820312 96.117188 8.515625 94.046875 9.261719 91.992188 C 10.007812 89.9375 10.804688 87.902344 11.648438 85.886719 C 12.496094 83.871094 13.386719 81.878906 14.328125 79.90625 C 15.273438 77.933594 16.261719 75.984375 17.296875 74.0625 C 18.332031 72.136719 19.414062 70.238281 20.542969 68.367188 C 21.671875 66.496094 22.847656 64.652344 24.0625 62.839844 C 25.28125 61.023438 26.542969 59.242188 27.847656 57.488281 C 29.152344 55.734375 30.5 54.015625 31.886719 52.328125 C 33.277344 50.636719 34.703125 48.984375 36.171875 47.367188 C 37.640625 45.75 39.148438 44.167969 40.691406 42.621094 C 42.238281 41.074219 43.820312 39.570312 45.4375 38.101562 C 47.058594 36.632812 48.710938 35.203125 50.398438 33.816406 C 52.085938 32.425781 53.804688 31.082031 55.558594 29.777344 C 57.3125 28.472656 59.097656 27.210938 60.910156 25.992188 C 62.726562 24.773438 64.566406 23.601562 66.441406 22.472656 C 68.3125 21.34375 70.207031 20.261719 72.132812 19.226562 C 74.058594 18.1875 76.003906 17.199219 77.976562 16.257812 C 79.949219 15.316406 81.941406 14.421875 83.957031 13.578125 C 85.972656 12.734375 88.007812 11.9375 90.0625 11.191406 C 92.117188 10.445312 94.1875 9.75 96.273438 9.105469 C 98.363281 8.460938 100.464844 7.863281 102.582031 7.320312 C 104.699219 6.777344 106.828125 6.285156 108.96875 5.847656 C 111.109375 5.40625 113.257812 5.019531 115.417969 4.683594 C 117.578125 4.347656 119.742188 4.0625 121.917969 3.832031 C 124.089844 3.601562 126.265625 3.425781 128.449219 3.300781 C 130.632812 3.175781 132.816406 3.105469 135 3.085938 L 675 3.085938 C 677.210938 3.085938 679.417969 3.140625 681.625 3.25 C 683.832031 3.355469 686.035156 3.519531 688.230469 3.734375 C 690.429688 3.953125 692.621094 4.222656 694.808594 4.546875 C 696.992188 4.871094 699.171875 5.25 701.335938 5.679688 C 703.503906 6.109375 705.660156 6.59375 707.800781 7.132812 C 709.945312 7.667969 712.074219 8.257812 714.1875 8.898438 C 716.300781 9.539062 718.398438 10.234375 720.480469 10.976562 C 722.558594 11.722656 724.621094 12.515625 726.660156 13.363281 C 728.703125 14.207031 730.722656 15.101562 732.71875 16.046875 C 734.71875 16.992188 736.691406 17.984375 738.636719 19.027344 C 740.585938 20.066406 742.507812 21.15625 744.402344 22.292969 C 746.296875 23.429688 748.164062 24.609375 750 25.835938 C 751.839844 27.066406 753.644531 28.335938 755.417969 29.652344 C 757.195312 30.96875 758.933594 32.328125 760.644531 33.730469 C 762.351562 35.132812 764.023438 36.574219 765.660156 38.058594 C 767.296875 39.542969 768.898438 41.0625 770.460938 42.625 C 772.023438 44.1875 773.542969 45.789062 775.027344 47.425781 C 776.511719 49.0625 777.953125 50.734375 779.355469 52.441406 C 780.757812 54.152344 782.117188 55.890625 783.433594 57.667969 C 784.75 59.441406 786.019531 61.246094 787.25 63.082031 C 788.476562 64.921875 789.65625 66.785156 790.792969 68.683594 C 791.929688 70.578125 793.019531 72.5 794.058594 74.445312 C 795.101562 76.394531 796.09375 78.367188 797.039062 80.367188 C 797.984375 82.363281 798.878906 84.382812 799.722656 86.421875 C 800.570312 88.464844 801.363281 90.523438 802.109375 92.605469 C 802.851562 94.6875 803.546875 96.78125 804.1875 98.898438 C 804.828125 101.011719 805.417969 103.140625 805.953125 105.285156 C 806.492188 107.425781 806.976562 109.582031 807.40625 111.75 C 807.835938 113.914062 808.214844 116.089844 808.539062 118.277344 C 808.863281 120.460938 809.132812 122.65625 809.351562 124.851562 C 809.566406 127.050781 809.730469 129.253906 809.835938 131.460938 C 809.945312 133.667969 810 135.875 810 138.085938 L 810 676.929688 C 809.980469 679.125 809.910156 681.320312 809.78125 683.515625 C 809.65625 685.707031 809.476562 687.898438 809.242188 690.082031 C 809.011719 692.269531 808.726562 694.445312 808.386719 696.617188 C 808.046875 698.789062 807.652344 700.949219 807.210938 703.101562 C 806.765625 705.253906 806.265625 707.394531 805.71875 709.519531 C 805.167969 711.648438 804.566406 713.761719 803.914062 715.859375 C 803.261719 717.957031 802.558594 720.039062 801.804688 722.101562 C 801.050781 724.167969 800.246094 726.210938 799.394531 728.234375 C 798.539062 730.261719 797.636719 732.261719 796.683594 734.242188 C 795.734375 736.222656 794.734375 738.179688 793.6875 740.113281 C 792.640625 742.042969 791.546875 743.949219 790.40625 745.828125 C 789.265625 747.707031 788.078125 749.554688 786.847656 751.375 C 785.617188 753.195312 784.34375 754.984375 783.027344 756.742188 C 781.707031 758.5 780.347656 760.226562 778.945312 761.917969 C 777.542969 763.609375 776.101562 765.265625 774.617188 766.886719 C 773.132812 768.507812 771.613281 770.09375 770.050781 771.640625 C 768.492188 773.1875 766.894531 774.695312 765.261719 776.164062 C 763.625 777.632812 761.957031 779.0625 760.253906 780.449219 C 758.550781 781.835938 756.8125 783.183594 755.042969 784.484375 C 753.273438 785.789062 751.472656 787.046875 749.644531 788.261719 C 747.8125 789.476562 745.953125 790.644531 744.0625 791.769531 C 742.175781 792.894531 740.261719 793.972656 738.320312 795.003906 C 736.378906 796.03125 734.414062 797.015625 732.425781 797.949219 C 730.4375 798.886719 728.429688 799.769531 726.394531 800.605469 C 724.363281 801.445312 722.3125 802.230469 720.242188 802.964844 C 718.171875 803.703125 716.085938 804.386719 713.980469 805.023438 C 711.878906 805.65625 709.761719 806.238281 707.628906 806.769531 C 705.496094 807.300781 703.351562 807.78125 701.195312 808.207031 C 699.039062 808.632812 696.875 809.007812 694.703125 809.328125 C 692.527344 809.648438 690.347656 809.914062 688.160156 810.128906 C 685.972656 810.34375 683.78125 810.503906 681.589844 810.609375 C 679.394531 810.71875 677.195312 810.769531 675 810.769531 Z M 135 41.65625 C 133.421875 41.65625 131.84375 41.695312 130.269531 41.773438 C 128.691406 41.851562 127.117188 41.96875 125.546875 42.121094 C 123.976562 42.277344 122.410156 42.46875 120.851562 42.699219 C 119.289062 42.933594 117.734375 43.203125 116.1875 43.511719 C 114.640625 43.816406 113.101562 44.164062 111.570312 44.546875 C 110.039062 44.929688 108.519531 45.351562 107.007812 45.808594 C 105.5 46.265625 104 46.761719 102.515625 47.292969 C 101.027344 47.824219 99.554688 48.394531 98.097656 48.996094 C 96.640625 49.601562 95.199219 50.242188 93.773438 50.914062 C 92.34375 51.589844 90.9375 52.300781 89.542969 53.042969 C 88.152344 53.789062 86.78125 54.566406 85.425781 55.375 C 84.070312 56.1875 82.738281 57.03125 81.425781 57.910156 C 80.113281 58.785156 78.824219 59.695312 77.558594 60.632812 C 76.289062 61.574219 75.046875 62.542969 73.828125 63.546875 C 72.605469 64.546875 71.410156 65.578125 70.242188 66.636719 C 69.074219 67.695312 67.929688 68.785156 66.816406 69.902344 C 65.699219 71.015625 64.609375 72.160156 63.550781 73.328125 C 62.492188 74.496094 61.460938 75.691406 60.460938 76.910156 C 59.457031 78.132812 58.488281 79.375 57.546875 80.644531 C 56.609375 81.910156 55.699219 83.199219 54.824219 84.511719 C 53.945312 85.824219 53.101562 87.15625 52.289062 88.511719 C 51.480469 89.863281 50.703125 91.238281 49.957031 92.628906 C 49.214844 94.019531 48.503906 95.429688 47.828125 96.855469 C 47.15625 98.285156 46.515625 99.726562 45.910156 101.183594 C 45.308594 102.640625 44.738281 104.113281 44.207031 105.601562 C 43.675781 107.085938 43.183594 108.582031 42.722656 110.09375 C 42.265625 111.605469 41.84375 113.125 41.460938 114.65625 C 41.078125 116.1875 40.730469 117.726562 40.425781 119.273438 C 40.117188 120.820312 39.847656 122.375 39.613281 123.9375 C 39.382812 125.496094 39.191406 127.0625 39.035156 128.632812 C 38.882812 130.203125 38.765625 131.777344 38.6875 133.355469 C 38.609375 134.929688 38.570312 136.507812 38.570312 138.085938 L 38.570312 676.929688 C 38.570312 678.507812 38.609375 680.082031 38.6875 681.660156 C 38.765625 683.234375 38.882812 684.808594 39.035156 686.378906 C 39.191406 687.949219 39.382812 689.515625 39.613281 691.078125 C 39.847656 692.636719 40.117188 694.191406 40.425781 695.742188 C 40.730469 697.289062 41.078125 698.828125 41.460938 700.359375 C 41.84375 701.890625 42.265625 703.410156 42.722656 704.921875 C 43.183594 706.429688 43.675781 707.929688 44.207031 709.414062 C 44.738281 710.898438 45.308594 712.371094 45.910156 713.828125 C 46.515625 715.289062 47.15625 716.730469 47.828125 718.15625 C 48.503906 719.582031 49.214844 720.992188 49.957031 722.382812 C 50.703125 723.777344 51.480469 725.148438 52.289062 726.503906 C 53.101562 727.855469 53.945312 729.1875 54.824219 730.5 C 55.699219 731.8125 56.609375 733.101562 57.546875 734.371094 C 58.488281 735.636719 59.457031 736.882812 60.460938 738.101562 C 61.460938 739.320312 62.492188 740.515625 63.550781 741.6875 C 64.609375 742.855469 65.699219 743.996094 66.816406 745.113281 C 67.929688 746.230469 69.074219 747.316406 70.242188 748.378906 C 71.410156 749.4375 72.605469 750.46875 73.828125 751.46875 C 75.046875 752.46875 76.289062 753.441406 77.558594 754.378906 C 78.824219 755.320312 80.113281 756.230469 81.425781 757.105469 C 82.738281 757.984375 84.070312 758.828125 85.425781 759.636719 C 86.78125 760.449219 88.152344 761.226562 89.542969 761.972656 C 90.9375 762.714844 92.34375 763.425781 93.769531 764.097656 C 95.199219 764.773438 96.640625 765.414062 98.097656 766.015625 C 99.554688 766.621094 101.027344 767.1875 102.515625 767.71875 C 104 768.25 105.496094 768.746094 107.007812 769.203125 C 108.519531 769.664062 110.039062 770.082031 111.570312 770.46875 C 113.101562 770.851562 114.640625 771.195312 116.1875 771.503906 C 117.734375 771.8125 119.289062 772.082031 120.851562 772.3125 C 122.410156 772.546875 123.976562 772.738281 125.546875 772.894531 C 127.117188 773.046875 128.691406 773.164062 130.269531 773.242188 C 131.84375 773.320312 133.421875 773.355469 135 773.355469 L 675 773.355469 C 676.578125 773.355469 678.15625 773.320312 679.730469 773.242188 C 681.308594 773.164062 682.882812 773.046875 684.453125 772.894531 C 686.023438 772.738281 687.585938 772.546875 689.148438 772.3125 C 690.710938 772.082031 692.265625 771.8125 693.8125 771.503906 C 695.359375 771.195312 696.898438 770.851562 698.429688 770.46875 C 699.960938 770.082031 701.480469 769.664062 702.992188 769.203125 C 704.5 768.746094 706 768.25 707.484375 767.71875 C 708.972656 767.1875 710.445312 766.621094 711.902344 766.015625 C 713.359375 765.414062 714.800781 764.773438 716.226562 764.097656 C 717.65625 763.425781 719.0625 762.714844 720.457031 761.972656 C 721.847656 761.226562 723.21875 760.449219 724.574219 759.636719 C 725.925781 758.828125 727.261719 757.984375 728.574219 757.105469 C 729.886719 756.230469 731.175781 755.320312 732.441406 754.378906 C 733.710938 753.441406 734.953125 752.46875 736.171875 751.46875 C 737.394531 750.46875 738.589844 749.4375 739.757812 748.378906 C 740.925781 747.316406 742.070312 746.230469 743.183594 745.113281 C 744.300781 743.996094 745.390625 742.855469 746.449219 741.6875 C 747.507812 740.515625 748.539062 739.320312 749.539062 738.101562 C 750.542969 736.882812 751.511719 735.636719 752.453125 734.371094 C 753.390625 733.101562 754.300781 731.8125 755.175781 730.5 C 756.054688 729.1875 756.898438 727.855469 757.710938 726.503906 C 758.519531 725.148438 759.296875 723.777344 760.042969 722.382812 C 760.785156 720.992188 761.496094 719.582031 762.171875 718.15625 C 762.84375 716.730469 763.484375 715.289062 764.089844 713.828125 C 764.691406 712.371094 765.261719 710.898438 765.792969 709.414062 C 766.324219 707.929688 766.816406 706.429688 767.277344 704.921875 C 767.734375 703.410156 768.15625 701.890625 768.539062 700.359375 C 768.921875 698.828125 769.269531 697.289062 769.574219 695.742188 C 769.882812 694.191406 770.152344 692.636719 770.382812 691.078125 C 770.617188 689.515625 770.808594 687.949219 770.964844 686.378906 C 771.117188 684.808594 771.234375 683.234375 771.3125 681.660156 C 771.390625 680.082031 771.429688 678.507812 771.429688 676.929688 L 771.429688 136.929688 C 771.429688 135.351562 771.390625 133.773438 771.3125 132.195312 C 771.234375 130.621094 771.117188 129.046875 770.964844 127.476562 C 770.808594 125.90625 770.617188 124.339844 770.382812 122.78125 C 770.152344 121.21875 769.882812 119.664062 769.574219 118.117188 C 769.269531 116.570312 768.921875 115.027344 768.539062 113.5 C 768.15625 111.96875 767.734375 110.445312 767.277344 108.9375 C 766.816406 107.425781 766.324219 105.929688 765.792969 104.441406 C 765.261719 102.957031 764.691406 101.484375 764.089844 100.027344 C 763.484375 98.570312 762.84375 97.125 762.171875 95.699219 C 761.496094 94.273438 760.785156 92.863281 760.042969 91.472656 C 759.296875 90.082031 758.519531 88.707031 757.710938 87.355469 C 756.898438 86 756.054688 84.667969 755.175781 83.355469 C 754.300781 82.042969 753.390625 80.753906 752.453125 79.484375 C 751.511719 78.21875 750.542969 76.976562 749.539062 75.753906 C 748.539062 74.535156 747.507812 73.339844 746.449219 72.171875 C 745.390625 71 744.300781 69.859375 743.183594 68.742188 C 742.070312 67.628906 740.925781 66.539062 739.757812 65.480469 C 738.589844 64.417969 737.394531 63.390625 736.171875 62.386719 C 734.953125 61.386719 733.710938 60.417969 732.441406 59.476562 C 731.175781 58.535156 729.886719 57.628906 728.574219 56.75 C 727.261719 55.875 725.925781 55.03125 724.574219 54.21875 C 723.21875 53.40625 721.847656 52.628906 720.457031 51.886719 C 719.0625 51.140625 717.65625 50.433594 716.226562 49.757812 C 714.800781 49.082031 713.359375 48.445312 711.902344 47.839844 C 710.445312 47.234375 708.972656 46.667969 707.484375 46.136719 C 706 45.605469 704.5 45.109375 702.992188 44.652344 C 701.480469 44.195312 699.960938 43.773438 698.429688 43.390625 C 696.898438 43.007812 695.359375 42.660156 693.8125 42.351562 C 692.265625 42.046875 690.710938 41.773438 689.148438 41.542969 C 687.585938 41.3125 686.023438 41.117188 684.453125 40.964844 C 682.882812 40.808594 681.308594 40.695312 679.730469 40.617188 C 678.15625 40.539062 676.578125 40.5 675 40.5 Z M 135 41.65625 " fill-opacity="1" fill-rule="nonzero"/></svg>