<svg xmlns="http://www.w3.org/2000/svg" xmlns:xlink="http://www.w3.org/1999/xlink" width="1080" zoomAndPan="magnify" viewBox="0 0 810 809.999993" height="1080" preserveAspectRatio="xMidYMid meet" version="1.0"><path fill="#475dd7" d="M 404.882812 0.195312 C 628.601562 0.195312 809.960938 181.554688 809.960938 405.269531 C 809.960938 628.988281 628.601562 810.347656 404.882812 810.347656 C 181.164062 810.347656 -0.195312 628.988281 -0.195312 405.269531 C -0.195312 181.554688 181.164062 0.195312 404.882812 0.195312 Z M 404.882812 159.832031 C 435.589844 159.832031 460.523438 184.726562 460.523438 215.472656 C 460.523438 246.214844 435.625 271.109375 404.882812 271.109375 C 374.179688 271.109375 349.246094 246.214844 349.246094 215.472656 C 349.246094 184.765625 374.140625 159.832031 404.882812 159.832031 Z M 354.316406 312.734375 L 455.488281 312.734375 L 455.488281 570.058594 L 495.949219 570.058594 L 495.949219 650.671875 L 313.894531 650.671875 L 313.894531 570.058594 L 354.316406 570.058594 L 354.316406 354.976562 L 313.894531 354.976562 L 313.894531 312.734375 Z M 404.882812 39.261719 C 202.769531 39.261719 38.914062 203.082031 38.914062 405.230469 C 38.914062 607.382812 202.730469 771.203125 404.882812 771.203125 C 607.035156 771.203125 770.855469 607.34375 770.855469 405.230469 C 770.855469 203.082031 607.035156 39.261719 404.882812 39.261719 Z M 404.882812 39.261719 " fill-opacity="1" fill-rule="nonzero"/></svg>