<svg xmlns="http://www.w3.org/2000/svg" xmlns:xlink="http://www.w3.org/1999/xlink" width="1080" zoomAndPan="magnify" viewBox="0 0 810 809.999993" height="1080" preserveAspectRatio="xMidYMid meet" version="1.0"><defs><clipPath id="dd810ab659"><path d="M 463 0 L 711 0 L 711 810 L 463 810 Z M 463 0 " clip-rule="nonzero"/></clipPath></defs><g clip-path="url(#dd810ab659)"><path fill="#475dd7" d="M 486.15625 90 L 463.65625 90 L 463.65625 0 L 486.15625 0 C 560.71875 0 621.15625 60.441406 621.15625 135 L 621.15625 292.5 C 621.15625 306.664062 627.828125 320 639.15625 328.5 L 693.15625 369 C 703.960938 377.105469 710.558594 389.636719 711.117188 403.132812 C 711.679688 416.628906 706.148438 429.664062 696.050781 438.636719 L 636.265625 491.765625 C 626.65625 500.304688 621.15625 512.550781 621.15625 525.402344 L 621.15625 675 C 621.15625 749.558594 560.71875 810 486.15625 810 L 463.65625 810 L 463.65625 720 L 486.15625 720 C 511.011719 720 531.15625 699.851562 531.15625 675 L 531.15625 525.402344 C 531.15625 486.835938 547.652344 450.113281 576.480469 424.492188 L 595.09375 407.953125 L 585.160156 400.5 C 551.164062 375.003906 531.15625 334.992188 531.15625 292.5 L 531.15625 135 C 531.15625 110.148438 511.011719 90 486.15625 90 Z M 486.15625 90 " fill-opacity="1" fill-rule="evenodd"/></g><path fill="#475dd7" d="M 306.15625 90 L 328.65625 90 L 328.65625 0 L 306.15625 0 C 231.601562 0 171.15625 60.441406 171.15625 135 L 171.15625 292.5 C 171.15625 306.664062 164.488281 320 153.15625 328.5 L 99.160156 369 C 88.351562 377.105469 81.757812 389.636719 81.195312 403.132812 C 80.636719 416.628906 86.167969 429.664062 96.265625 438.636719 L 156.050781 491.765625 C 165.660156 500.304688 171.15625 512.550781 171.15625 525.402344 L 171.15625 675 C 171.15625 749.558594 231.601562 810 306.15625 810 L 328.65625 810 L 328.65625 720 L 306.15625 720 C 281.304688 720 261.15625 699.851562 261.15625 675 L 261.15625 525.402344 C 261.15625 486.835938 244.664062 450.113281 215.835938 424.492188 L 197.222656 407.953125 L 207.160156 400.5 C 241.152344 375.003906 261.15625 334.992188 261.15625 292.5 L 261.15625 135 C 261.15625 110.148438 281.304688 90 306.15625 90 Z M 306.15625 90 " fill-opacity="1" fill-rule="evenodd"/></svg>