<svg xmlns="http://www.w3.org/2000/svg" xmlns:xlink="http://www.w3.org/1999/xlink" width="1080" zoomAndPan="magnify" viewBox="0 0 810 809.999993" height="1080" preserveAspectRatio="xMidYMid meet" version="1.0"><path fill="#6c6cb8" d="M 66.34375 650.652344 L 405.492188 795.789062 L 405.492188 304.09375 L 66.34375 158.960938 Z M 66.34375 650.652344 " fill-opacity="1" fill-rule="nonzero"/><path fill="#80ac5f" d="M 744.640625 650.652344 L 405.492188 795.789062 L 405.492188 304.09375 L 744.640625 158.960938 Z M 744.640625 650.652344 " fill-opacity="1" fill-rule="nonzero"/><path fill="#475dd7" d="M 405.492188 13.824219 L 66.34375 158.960938 L 405.492188 304.09375 L 744.640625 158.960938 Z M 405.492188 13.824219 " fill-opacity="1" fill-rule="nonzero"/><path fill="#000000" d="M 405.492188 809.585938 C 403.640625 809.585938 401.789062 809.226562 400.046875 808.453125 L 60.898438 663.316406 C 55.8125 661.160156 52.519531 656.183594 52.519531 650.625 L 52.519531 158.960938 C 52.519531 154.316406 54.84375 149.972656 58.742188 147.429688 C 62.613281 144.859375 67.53125 144.390625 71.789062 146.242188 L 410.9375 291.378906 C 416.027344 293.5625 419.316406 298.539062 419.316406 304.066406 L 419.316406 795.761719 C 419.316406 800.40625 416.992188 804.746094 413.09375 807.289062 C 410.800781 808.839844 408.175781 809.585938 405.492188 809.585938 Z M 80.164062 641.503906 L 391.671875 774.808594 L 391.671875 313.21875 L 80.164062 179.914062 Z M 80.164062 641.503906 " fill-opacity="1" fill-rule="nonzero"/><path fill="#000000" d="M 405.492188 809.585938 C 402.8125 809.585938 400.183594 808.8125 397.890625 807.289062 C 394.019531 804.71875 391.671875 800.378906 391.671875 795.761719 L 391.671875 304.09375 C 391.671875 298.566406 394.960938 293.5625 400.046875 291.40625 L 739.195312 146.269531 C 743.453125 144.417969 748.375 144.886719 752.246094 147.429688 C 756.113281 150.003906 758.464844 154.34375 758.464844 158.960938 L 758.464844 650.652344 C 758.464844 656.183594 755.175781 661.1875 750.089844 663.34375 L 410.9375 808.480469 C 409.199219 809.226562 407.34375 809.585938 405.492188 809.585938 Z M 419.316406 313.21875 L 419.316406 774.835938 L 730.820312 641.53125 L 730.820312 179.914062 Z M 744.640625 650.625 L 744.917969 650.625 Z M 744.640625 650.625 " fill-opacity="1" fill-rule="nonzero"/><path fill="#000000" d="M 405.492188 317.917969 C 403.640625 317.917969 401.789062 317.53125 400.046875 316.785156 L 60.898438 171.648438 C 55.8125 169.492188 52.519531 164.488281 52.519531 158.960938 C 52.519531 153.429688 55.8125 148.425781 60.898438 146.242188 L 400.046875 1.105469 C 403.53125 -0.386719 407.457031 -0.386719 410.9375 1.105469 L 750.089844 146.242188 C 755.175781 148.425781 758.464844 153.402344 758.464844 158.929688 C 758.464844 164.460938 755.175781 169.464844 750.089844 171.621094 L 410.9375 316.757812 C 409.199219 317.53125 407.34375 317.917969 405.492188 317.917969 Z M 101.480469 158.960938 L 405.492188 289.058594 L 709.503906 158.960938 L 405.492188 28.863281 Z M 101.480469 158.960938 " fill-opacity="1" fill-rule="nonzero"/></svg>