<svg xmlns="http://www.w3.org/2000/svg" xmlns:xlink="http://www.w3.org/1999/xlink" width="1080" zoomAndPan="magnify" viewBox="0 0 810 809.999993" height="1080" preserveAspectRatio="xMidYMid meet" version="1.0"><defs><clipPath id="b6415a6801"><path d="M 50.625 67 L 759.375 67 L 759.375 590 L 50.625 590 Z M 50.625 67 " clip-rule="nonzero"/></clipPath><clipPath id="21be0cb6e9"><path d="M 708 449 L 759.375 449 L 759.375 479 L 708 479 Z M 708 449 " clip-rule="nonzero"/></clipPath><clipPath id="7752d46678"><path d="M 50.625 449 L 130 449 L 130 479 L 50.625 479 Z M 50.625 449 " clip-rule="nonzero"/></clipPath></defs><g clip-path="url(#b6415a6801)"><path fill="#6c6cb8" d="M 689.796875 589.824219 L 120.203125 589.824219 C 82.027344 589.824219 50.914062 558.707031 50.914062 520.675781 L 50.914062 136.625 C 50.914062 100.324219 78.140625 70.648438 114.296875 67.765625 C 122.363281 67.046875 129.136719 73.097656 129.855469 81.019531 C 130.429688 88.945312 124.667969 95.859375 116.601562 96.578125 C 95.570312 98.308594 79.578125 115.59375 79.578125 136.769531 L 79.578125 520.675781 C 79.578125 543.003906 97.730469 561.011719 120.058594 561.011719 L 689.796875 561.011719 C 712.125 561.011719 730.417969 542.859375 730.417969 520.675781 L 730.417969 136.625 C 730.417969 115.59375 714.71875 98.453125 693.828125 96.433594 C 685.90625 95.714844 680.144531 88.65625 680.863281 80.734375 C 681.585938 72.808594 688.355469 67.046875 696.566406 67.765625 C 732.292969 71.082031 759.230469 100.757812 759.230469 136.625 L 759.230469 520.53125 C 759.230469 558.707031 728.113281 589.679688 689.796875 589.679688 Z M 689.796875 589.824219 " fill-opacity="1" fill-rule="nonzero"/></g><path fill="#6c6cb8" d="M 591.117188 809.074219 L 219.023438 809.074219 C 182.578125 809.074219 153.046875 779.398438 153.046875 743.097656 C 153.046875 706.796875 182.722656 677.121094 219.023438 677.121094 L 591.117188 677.121094 C 627.566406 677.121094 657.097656 706.796875 657.097656 743.097656 C 657.097656 779.398438 627.421875 809.074219 591.117188 809.074219 Z M 218.882812 705.929688 C 198.425781 705.929688 181.714844 722.640625 181.714844 743.097656 C 181.714844 763.550781 198.425781 780.261719 218.882812 780.261719 L 590.976562 780.261719 C 611.429688 780.261719 628.140625 763.550781 628.140625 743.097656 C 628.140625 722.640625 611.429688 705.929688 590.976562 705.929688 Z M 218.882812 705.929688 " fill-opacity="1" fill-rule="nonzero"/><g clip-path="url(#21be0cb6e9)"><path fill="#6c6cb8" d="M 744.824219 478.46875 L 722.640625 478.46875 C 714.71875 478.46875 708.234375 471.984375 708.234375 464.0625 C 708.234375 456.140625 714.71875 449.65625 722.640625 449.65625 L 744.824219 449.65625 C 752.75 449.65625 759.230469 456.140625 759.230469 464.0625 C 759.230469 471.984375 752.75 478.46875 744.824219 478.46875 Z M 744.824219 478.46875 " fill-opacity="1" fill-rule="nonzero"/></g><g clip-path="url(#7752d46678)"><path fill="#6c6cb8" d="M 115.449219 478.46875 L 65.320312 478.46875 C 57.394531 478.46875 50.914062 471.984375 50.914062 464.0625 C 50.914062 456.140625 57.394531 449.65625 65.320312 449.65625 L 115.449219 449.65625 C 123.371094 449.65625 129.855469 456.140625 129.855469 464.0625 C 129.855469 471.984375 123.371094 478.46875 115.449219 478.46875 Z M 115.449219 478.46875 " fill-opacity="1" fill-rule="nonzero"/></g><path fill="#6c6cb8" d="M 460.171875 478.46875 L 166.734375 478.46875 C 158.808594 478.46875 152.328125 471.984375 152.328125 464.0625 C 152.328125 456.140625 158.808594 449.65625 166.734375 449.65625 L 460.316406 449.65625 C 468.238281 449.65625 474.722656 456.140625 474.722656 464.0625 C 474.722656 471.984375 468.238281 478.46875 460.316406 478.46875 Z M 460.171875 478.46875 " fill-opacity="1" fill-rule="nonzero"/><path fill="#6c6cb8" d="M 195.113281 533.929688 L 149.300781 533.929688 C 141.378906 533.929688 134.898438 527.445312 134.898438 519.523438 C 134.898438 511.601562 141.378906 505.117188 149.300781 505.117188 L 195.113281 505.117188 C 203.035156 505.117188 209.515625 511.601562 209.515625 519.523438 C 209.515625 527.445312 203.035156 533.929688 195.113281 533.929688 Z M 195.113281 533.929688 " fill-opacity="1" fill-rule="nonzero"/><path fill="#6c6cb8" d="M 218.882812 705.929688 C 216.289062 705.929688 213.550781 705.210938 211.246094 703.769531 C 204.476562 699.449219 202.457031 690.660156 206.78125 683.890625 C 230.835938 645.859375 242.792969 611.285156 244.378906 574.984375 C 244.667969 567.0625 251.582031 561.011719 259.359375 561.300781 C 267.285156 561.585938 273.476562 568.359375 273.046875 576.28125 C 271.171875 617.914062 257.921875 656.953125 230.980469 699.304688 C 228.246094 703.625 223.636719 706.074219 218.738281 706.074219 Z M 218.882812 705.929688 " fill-opacity="1" fill-rule="nonzero"/><path fill="#6c6cb8" d="M 591.117188 705.929688 C 586.363281 705.929688 581.609375 703.625 578.875 699.160156 C 552.078125 656.808594 538.683594 617.625 536.808594 576.136719 C 536.523438 568.214844 542.574219 561.445312 550.640625 561.15625 C 557.984375 561.15625 565.332031 566.917969 565.621094 574.839844 C 567.207031 611.140625 579.164062 645.859375 603.21875 683.746094 C 607.542969 690.515625 605.523438 699.304688 598.753906 703.625 C 596.304688 705.066406 593.710938 705.785156 591.117188 705.785156 Z M 591.117188 705.929688 " fill-opacity="1" fill-rule="nonzero"/><path fill="#6c6cb8" d="M 177.824219 38.523438 C 175.089844 35.355469 171.054688 33.484375 166.878906 33.484375 L 149.734375 33.484375 C 123.085938 33.484375 101.1875 55.234375 101.042969 82.027344 L 101.042969 463.917969 C 101.042969 471.839844 107.527344 478.324219 115.449219 478.324219 L 166.734375 478.324219 C 174.65625 478.324219 181.140625 471.839844 181.140625 463.917969 L 181.140625 49.90625 C 181.714844 45.871094 180.417969 41.695312 177.824219 38.523438 Z M 177.824219 38.523438 " fill-opacity="1" fill-rule="nonzero"/><path fill="#6c6cb8" d="M 643.988281 280.535156 C 636.0625 280.535156 629.582031 274.054688 629.582031 266.132812 L 629.582031 51.203125 C 629.582031 45.582031 627.277344 40.398438 623.242188 36.507812 C 619.355469 32.761719 614.167969 31.035156 608.980469 31.175781 C 494.457031 38.09375 434.675781 76.84375 414.363281 93.121094 C 409.035156 97.296875 401.542969 97.296875 396.355469 93.121094 C 376.046875 76.84375 316.550781 38.234375 201.882812 31.175781 C 191.367188 30.601562 182.433594 38.523438 181.28125 49.328125 C 180.5625 57.25 173.359375 62.871094 165.582031 62.292969 C 157.65625 61.574219 151.894531 54.515625 152.617188 46.589844 C 155.066406 20.230469 177.394531 0.78125 203.609375 2.367188 C 312.949219 8.992188 376.765625 43.566406 405.433594 63.734375 C 434.097656 43.566406 498.058594 8.992188 607.253906 2.367188 C 620.507812 1.644531 633.328125 6.257812 643.121094 15.476562 C 652.917969 24.695312 658.535156 37.660156 658.535156 51.058594 L 658.535156 265.988281 C 658.535156 273.910156 652.054688 280.390625 644.132812 280.390625 Z M 643.988281 280.535156 " fill-opacity="1" fill-rule="nonzero"/><path fill="#6c6cb8" d="M 695.125 316.839844 C 687.203125 316.839844 680.722656 310.355469 680.722656 302.433594 L 680.722656 82.316406 C 680.722656 71.082031 671.933594 62.4375 660.839844 62.4375 L 643.988281 62.4375 C 636.0625 62.4375 629.582031 55.953125 629.582031 48.03125 C 629.582031 40.109375 636.0625 33.625 643.988281 33.625 L 660.839844 33.625 C 687.78125 33.625 709.53125 55.523438 709.53125 82.316406 L 709.53125 302.433594 C 709.53125 310.355469 703.050781 316.839844 695.125 316.839844 Z M 695.125 316.839844 " fill-opacity="1" fill-rule="nonzero"/><path fill="#6c6cb8" d="M 405.289062 478.46875 C 397.363281 478.46875 390.882812 471.984375 390.882812 464.0625 L 390.882812 81.886719 C 390.882812 73.960938 397.363281 67.480469 405.289062 67.480469 C 413.210938 67.480469 419.695312 73.960938 419.695312 81.886719 L 419.695312 464.0625 C 419.695312 471.984375 413.210938 478.46875 405.289062 478.46875 Z M 405.289062 478.46875 " fill-opacity="1" fill-rule="nonzero"/><path fill="#6c6cb8" d="M 356.164062 156.074219 C 353.859375 156.074219 351.699219 155.496094 349.539062 154.488281 C 313.667969 135.761719 271.171875 123.660156 223.203125 118.476562 C 215.28125 117.609375 209.515625 110.550781 210.382812 102.628906 C 211.246094 94.707031 218.304688 88.945312 226.226562 89.808594 C 277.800781 95.425781 323.609375 108.535156 362.648438 128.847656 C 369.707031 132.449219 372.445312 141.234375 368.699219 148.292969 C 366.105469 153.191406 361.0625 156.074219 355.878906 156.074219 Z M 356.164062 156.074219 " fill-opacity="1" fill-rule="nonzero"/><path fill="#6c6cb8" d="M 356.164062 229.253906 C 353.859375 229.253906 351.554688 228.675781 349.539062 227.667969 C 313.8125 208.941406 271.316406 196.839844 223.347656 191.796875 C 215.421875 190.933594 209.660156 183.875 210.527344 175.953125 C 211.390625 168.03125 218.304688 162.410156 226.371094 163.132812 C 278.085938 168.605469 323.898438 181.714844 362.9375 202.171875 C 369.996094 205.917969 372.730469 214.558594 368.984375 221.617188 C 366.394531 226.515625 361.351562 229.253906 356.164062 229.253906 Z M 356.164062 229.253906 " fill-opacity="1" fill-rule="nonzero"/><path fill="#6c6cb8" d="M 356.164062 302.433594 C 353.859375 302.433594 351.554688 301.855469 349.539062 300.847656 C 313.8125 282.121094 271.460938 270.019531 223.347656 264.835938 C 215.421875 263.96875 209.660156 256.910156 210.527344 248.988281 C 211.390625 241.066406 218.449219 235.304688 226.371094 236.167969 C 278.085938 241.785156 324.042969 254.894531 362.9375 275.351562 C 369.996094 279.097656 372.730469 287.738281 368.984375 294.796875 C 366.394531 299.695312 361.351562 302.433594 356.164062 302.433594 Z M 356.164062 302.433594 " fill-opacity="1" fill-rule="nonzero"/><path fill="#6c6cb8" d="M 356.164062 375.46875 C 353.859375 375.46875 351.554688 374.890625 349.539062 373.882812 C 314.101562 355.300781 271.605469 343.199219 223.347656 338.015625 C 215.421875 337.148438 209.660156 330.089844 210.527344 322.167969 C 211.390625 314.246094 218.449219 308.628906 226.371094 309.347656 C 278.375 314.964844 324.183594 328.074219 362.9375 348.386719 C 369.996094 352.132812 372.730469 360.773438 368.984375 367.832031 C 366.394531 372.730469 361.351562 375.46875 356.164062 375.46875 Z M 356.164062 375.46875 " fill-opacity="1" fill-rule="nonzero"/><path fill="#6c6cb8" d="M 697.289062 357.03125 L 481.636719 203.46875 C 476.882812 200.011719 470.546875 199.867188 465.503906 203.035156 C 460.605469 206.203125 458.011719 211.964844 459.019531 217.730469 L 506.847656 478.035156 C 507.710938 482.789062 510.878906 486.679688 515.203125 488.695312 C 519.523438 490.570312 524.710938 490.28125 528.742188 487.6875 L 566.054688 463.917969 C 576.136719 457.4375 589.679688 460.460938 596.015625 470.546875 L 629.292969 522.835938 C 634.046875 530.328125 641.539062 535.65625 650.324219 537.53125 C 652.773438 538.105469 655.222656 538.394531 657.671875 538.394531 C 664.011719 538.394531 670.203125 536.667969 675.535156 533.207031 C 691.09375 523.269531 695.703125 502.523438 685.761719 486.96875 L 652.484375 434.675781 C 646.003906 424.589844 649.027344 411.050781 659.113281 404.710938 L 696.421875 380.941406 C 700.457031 378.351562 702.90625 373.882812 703.050781 369.128906 C 703.050781 364.375 700.886719 359.765625 697 357.03125 Z M 697.289062 357.03125 " fill-opacity="1" fill-rule="nonzero"/></svg>