<svg xmlns="http://www.w3.org/2000/svg" xmlns:xlink="http://www.w3.org/1999/xlink" width="1080" zoomAndPan="magnify" viewBox="0 0 810 809.999993" height="1080" preserveAspectRatio="xMidYMid meet" version="1.0"><path fill="#475dd7" d="M 729.480469 82.6875 C 647.308594 0.542969 513.582031 0.542969 431.40625 82.6875 L 312.917969 201.207031 C 363.808594 191.839844 416.894531 198.105469 464.769531 219.664062 L 516.5625 167.902344 C 551.792969 132.671875 609.097656 132.671875 644.296875 167.902344 C 679.527344 203.070312 679.527344 260.40625 644.296875 295.636719 L 592.535156 347.398438 L 557.875 382.085938 L 516.5625 423.367188 C 498.164062 441.765625 473.714844 450.316406 449.535156 449.476562 C 431.859375 448.902344 414.453125 443 399.519531 432.128906 C 395.847656 429.421875 392.140625 426.710938 388.800781 423.367188 C 385.457031 420.027344 382.746094 416.382812 380.039062 412.679688 C 363.054688 403.976562 341.765625 406.503906 327.582031 420.71875 L 275.21875 473.082031 C 283.257812 485.667969 292.652344 497.59375 303.613281 508.554688 C 314.574219 519.542969 326.53125 528.910156 339.117188 536.949219 C 352.757812 545.710938 367.179688 552.605469 382.117188 557.816406 C 435.984375 576.9375 495.996094 573.5625 547.609375 547.578125 C 567.121094 537.761719 585.457031 524.8125 601.71875 508.523438 L 611.023438 499.21875 L 729.511719 380.761719 C 811.65625 298.644531 811.65625 164.921875 729.480469 82.6875 Z M 729.480469 82.6875 " fill-opacity="1" fill-rule="nonzero"/><path fill="#475dd7" d="M 347.425781 592.535156 L 295.636719 644.296875 C 260.40625 679.527344 203.101562 679.527344 167.871094 644.296875 C 132.671875 609.066406 132.671875 551.792969 167.871094 516.5625 L 219.664062 464.742188 L 254.320312 430.113281 L 295.636719 388.832031 C 314.03125 370.433594 338.484375 361.851562 362.664062 362.722656 C 380.339844 363.296875 397.742188 369.136719 412.679688 380.066406 C 416.351562 382.777344 420.054688 385.488281 423.367188 388.832031 C 426.710938 392.113281 429.421875 395.816406 432.128906 399.550781 C 449.082031 408.253906 470.402344 405.664062 484.585938 391.480469 L 536.917969 339.144531 C 528.878906 326.558594 519.515625 314.636719 508.523438 303.675781 C 497.59375 292.683594 485.636719 283.257812 473.050781 275.28125 C 459.441406 266.515625 444.988281 259.621094 430.054688 254.351562 C 376.183594 235.292969 316.171875 238.632812 264.558594 264.648438 C 245.109375 274.4375 226.738281 287.355469 210.480469 303.644531 L 201.207031 312.890625 L 82.714844 431.40625 C 0.542969 513.582031 0.542969 647.308594 82.714844 729.480469 C 164.890625 811.6875 298.617188 811.6875 380.789062 729.480469 L 499.25 611.023438 C 448.390625 620.359375 395.304688 614.0625 347.425781 592.535156 Z M 347.425781 592.535156 " fill-opacity="1" fill-rule="nonzero"/></svg>