<svg xmlns="http://www.w3.org/2000/svg" xmlns:xlink="http://www.w3.org/1999/xlink" width="1080" zoomAndPan="magnify" viewBox="0 0 810 809.999993" height="1080" preserveAspectRatio="xMidYMid meet" version="1.0"><defs><clipPath id="026b7b4678"><path d="M 0 577 L 127 577 L 127 701.558594 L 0 701.558594 Z M 0 577 " clip-rule="nonzero"/></clipPath></defs><path fill="#475dd7" d="M 810 640.757812 C 810 615.148438 789.238281 594.386719 763.628906 594.386719 L 234.964844 594.386719 C 209.351562 594.386719 188.585938 615.148438 188.585938 640.757812 C 188.585938 666.375 209.351562 687.136719 234.964844 687.136719 L 763.628906 687.136719 C 789.238281 687.136719 810 666.375 810 640.757812 " fill-opacity="1" fill-rule="nonzero"/><g clip-path="url(#026b7b4678)"><path fill="#475dd7" d="M 61.832031 701.558594 L 64.925781 701.558594 C 99.074219 701.558594 126.753906 673.875 126.753906 639.726562 C 126.753906 605.582031 99.074219 577.894531 64.925781 577.894531 L 61.832031 577.894531 C 27.6875 577.894531 0 605.582031 0 639.726562 C 0 673.875 27.6875 701.558594 61.832031 701.558594 " fill-opacity="1" fill-rule="nonzero"/></g><path fill="#475dd7" d="M 763.628906 345.511719 L 234.964844 345.511719 C 209.351562 345.511719 188.585938 366.269531 188.585938 391.886719 C 188.585938 417.503906 209.351562 438.265625 234.964844 438.265625 L 763.628906 438.265625 C 789.238281 438.265625 810 417.503906 810 391.886719 C 810 366.269531 789.238281 345.511719 763.628906 345.511719 " fill-opacity="1" fill-rule="nonzero"/><path fill="#475dd7" d="M 64.925781 330.054688 L 61.832031 330.054688 C 27.6875 330.054688 0 357.738281 0 391.886719 C 0 426.03125 27.6875 453.71875 61.832031 453.71875 L 64.925781 453.71875 C 99.074219 453.71875 126.753906 426.03125 126.753906 391.886719 C 126.753906 357.738281 99.074219 330.054688 64.925781 330.054688 " fill-opacity="1" fill-rule="nonzero"/><path fill="#475dd7" d="M 188.585938 143.011719 C 188.585938 168.628906 209.351562 189.386719 234.964844 189.386719 L 763.628906 189.386719 C 789.238281 189.386719 810 168.628906 810 143.011719 C 810 117.398438 789.238281 96.640625 763.628906 96.640625 L 234.964844 96.640625 C 209.351562 96.640625 188.585938 117.398438 188.585938 143.011719 " fill-opacity="1" fill-rule="nonzero"/><path fill="#475dd7" d="M 64.925781 81.179688 L 61.832031 81.179688 C 27.6875 81.179688 0 108.867188 0 143.011719 C 0 177.160156 27.6875 204.84375 61.832031 204.84375 L 64.925781 204.84375 C 99.074219 204.84375 126.753906 177.160156 126.753906 143.011719 C 126.753906 108.867188 99.074219 81.179688 64.925781 81.179688 " fill-opacity="1" fill-rule="nonzero"/></svg>