<svg xmlns="http://www.w3.org/2000/svg" xmlns:xlink="http://www.w3.org/1999/xlink" width="1080" zoomAndPan="magnify" viewBox="0 0 810 809.999993" height="1080" preserveAspectRatio="xMidYMid meet" version="1.0"><defs><clipPath id="9f4288ae7b"><path d="M 91.125 0 L 718.875 0 L 718.875 810 L 91.125 810 Z M 91.125 0 " clip-rule="nonzero"/></clipPath></defs><g clip-path="url(#9f4288ae7b)"><path fill="#d25c7f" d="M 651.582031 313.019531 L 651.582031 246.566406 C 651.582031 110.636719 540.949219 0 405.023438 0 C 269.09375 0 158.414062 110.609375 158.414062 246.566406 L 158.414062 313.019531 C 121.1875 314.027344 91.277344 344.355469 91.277344 381.824219 L 91.277344 741 C 91.277344 742.128906 91.304688 743.257812 91.359375 744.386719 C 91.417969 745.511719 91.5 746.636719 91.609375 747.761719 C 91.71875 748.886719 91.859375 750.007812 92.023438 751.125 C 92.191406 752.238281 92.382812 753.351562 92.601562 754.460938 C 92.824219 755.566406 93.070312 756.667969 93.34375 757.765625 C 93.617188 758.859375 93.917969 759.949219 94.246094 761.027344 C 94.574219 762.109375 94.929688 763.179688 95.308594 764.242188 C 95.691406 765.304688 96.097656 766.359375 96.527344 767.402344 C 96.960938 768.445312 97.417969 769.476562 97.898438 770.5 C 98.382812 771.519531 98.890625 772.527344 99.421875 773.523438 C 99.953125 774.519531 100.511719 775.503906 101.089844 776.472656 C 101.671875 777.4375 102.277344 778.394531 102.902344 779.332031 C 103.53125 780.269531 104.179688 781.195312 104.851562 782.101562 C 105.523438 783.007812 106.21875 783.898438 106.9375 784.769531 C 107.652344 785.644531 108.390625 786.5 109.148438 787.335938 C 109.90625 788.171875 110.683594 788.988281 111.480469 789.789062 C 112.28125 790.585938 113.097656 791.363281 113.933594 792.125 C 114.769531 792.882812 115.625 793.617188 116.5 794.335938 C 117.371094 795.050781 118.261719 795.746094 119.167969 796.417969 C 120.074219 797.089844 121 797.742188 121.9375 798.367188 C 122.875 798.996094 123.828125 799.601562 124.796875 800.179688 C 125.765625 800.761719 126.75 801.316406 127.746094 801.851562 C 128.738281 802.382812 129.75 802.890625 130.769531 803.375 C 131.789062 803.855469 132.820312 804.3125 133.863281 804.746094 C 134.90625 805.179688 135.960938 805.585938 137.023438 805.964844 C 138.085938 806.34375 139.160156 806.699219 140.238281 807.027344 C 141.320312 807.355469 142.40625 807.65625 143.503906 807.929688 C 144.597656 808.207031 145.699219 808.453125 146.808594 808.671875 C 147.914062 808.894531 149.027344 809.085938 150.144531 809.253906 C 151.261719 809.417969 152.382812 809.554688 153.503906 809.667969 C 154.628906 809.777344 155.753906 809.859375 156.882812 809.917969 C 158.011719 809.972656 159.136719 810 160.265625 810 L 649.738281 810 C 650.867188 810 651.996094 809.972656 653.125 809.917969 C 654.25 809.863281 655.378906 809.777344 656.5 809.667969 C 657.625 809.558594 658.746094 809.417969 659.863281 809.253906 C 660.980469 809.085938 662.089844 808.894531 663.199219 808.675781 C 664.304688 808.453125 665.40625 808.207031 666.503906 807.933594 C 667.597656 807.65625 668.6875 807.355469 669.765625 807.027344 C 670.847656 806.703125 671.917969 806.347656 672.984375 805.96875 C 674.046875 805.585938 675.097656 805.179688 676.140625 804.75 C 677.183594 804.316406 678.21875 803.859375 679.238281 803.375 C 680.257812 802.894531 681.265625 802.386719 682.261719 801.851562 C 683.257812 801.320312 684.242188 800.765625 685.210938 800.183594 C 686.179688 799.605469 687.132812 799 688.070312 798.371094 C 689.011719 797.746094 689.933594 797.09375 690.839844 796.421875 C 691.746094 795.75 692.636719 795.054688 693.507812 794.339844 C 694.382812 793.621094 695.238281 792.886719 696.074219 792.128906 C 696.910156 791.367188 697.726562 790.589844 698.527344 789.792969 C 699.324219 788.992188 700.105469 788.175781 700.863281 787.339844 C 701.621094 786.503906 702.359375 785.648438 703.074219 784.777344 C 703.789062 783.902344 704.484375 783.011719 705.15625 782.105469 C 705.832031 781.199219 706.480469 780.277344 707.109375 779.335938 C 707.734375 778.398438 708.339844 777.445312 708.921875 776.476562 C 709.5 775.507812 710.058594 774.527344 710.589844 773.53125 C 711.121094 772.535156 711.628906 771.527344 712.113281 770.503906 C 712.59375 769.484375 713.050781 768.453125 713.484375 767.410156 C 713.917969 766.367188 714.324219 765.3125 714.703125 764.25 C 715.085938 763.1875 715.4375 762.113281 715.765625 761.035156 C 716.09375 759.953125 716.394531 758.867188 716.667969 757.769531 C 716.945312 756.675781 717.191406 755.574219 717.410156 754.464844 C 717.632812 753.359375 717.824219 752.246094 717.992188 751.128906 C 718.15625 750.011719 718.296875 748.890625 718.40625 747.769531 C 718.515625 746.644531 718.597656 745.519531 718.65625 744.390625 C 718.710938 743.261719 718.738281 742.132812 718.738281 741.003906 L 718.738281 381.824219 C 718.738281 344.351562 688.8125 314.015625 651.582031 313.019531 Z M 461.445312 511.777344 C 461.136719 513.914062 459.941406 518.796875 459.828125 519.167969 C 455.617188 533.765625 445.550781 545.746094 432.476562 553.039062 L 454.625 647.464844 C 454.785156 647.949219 454.917969 648.445312 455.019531 648.945312 C 455.121094 649.445312 455.195312 649.949219 455.238281 650.460938 C 455.28125 650.96875 455.292969 651.480469 455.277344 651.988281 C 455.261719 652.5 455.214844 653.007812 455.140625 653.515625 C 455.066406 654.019531 454.960938 654.519531 454.828125 655.011719 C 454.691406 655.503906 454.53125 655.988281 454.339844 656.464844 C 454.148438 656.9375 453.933594 657.398438 453.6875 657.847656 C 453.445312 658.296875 453.175781 658.730469 452.878906 659.148438 C 452.585938 659.566406 452.265625 659.964844 451.925781 660.34375 C 451.582031 660.726562 451.222656 661.085938 450.839844 661.421875 C 450.453125 661.761719 450.054688 662.074219 449.632812 662.367188 C 449.210938 662.65625 448.777344 662.921875 448.324219 663.164062 C 447.875 663.402344 447.410156 663.617188 446.933594 663.804688 C 446.460938 663.988281 445.972656 664.148438 445.480469 664.277344 C 444.984375 664.40625 444.484375 664.507812 443.976562 664.578125 C 443.472656 664.648438 442.964844 664.691406 442.453125 664.703125 L 369.0625 664.703125 C 368.550781 664.691406 368.042969 664.648438 367.535156 664.578125 C 367.03125 664.507812 366.53125 664.40625 366.035156 664.277344 C 365.542969 664.148438 365.054688 663.988281 364.582031 663.804688 C 364.105469 663.617188 363.640625 663.40625 363.191406 663.164062 C 362.738281 662.925781 362.304688 662.660156 361.882812 662.367188 C 361.460938 662.074219 361.0625 661.761719 360.675781 661.421875 C 360.292969 661.085938 359.933594 660.726562 359.589844 660.34375 C 359.25 659.964844 358.929688 659.566406 358.636719 659.148438 C 358.339844 658.730469 358.070312 658.296875 357.828125 657.847656 C 357.585938 657.398438 357.367188 656.9375 357.175781 656.464844 C 356.988281 655.988281 356.824219 655.503906 356.691406 655.011719 C 356.558594 654.519531 356.453125 654.019531 356.378906 653.515625 C 356.300781 653.007812 356.257812 652.5 356.242188 651.988281 C 356.222656 651.476562 356.238281 650.96875 356.28125 650.460938 C 356.324219 649.949219 356.398438 649.445312 356.5 648.945312 C 356.605469 648.445312 356.734375 647.949219 356.894531 647.464844 L 377.542969 553.039062 C 364.460938 545.746094 354.394531 533.765625 350.1875 519.167969 C 350.078125 518.796875 348.875 513.914062 348.566406 511.777344 C 348.179688 509.140625 347.984375 506.492188 347.984375 503.828125 C 347.980469 501.957031 348.074219 500.09375 348.253906 498.234375 C 348.4375 496.375 348.710938 494.53125 349.074219 492.699219 C 349.4375 490.867188 349.890625 489.054688 350.433594 487.269531 C 350.972656 485.480469 351.601562 483.722656 352.316406 481.996094 C 353.03125 480.273438 353.828125 478.585938 354.707031 476.9375 C 355.589844 475.289062 356.546875 473.6875 357.585938 472.136719 C 358.621094 470.582031 359.734375 469.082031 360.917969 467.640625 C 362.101562 466.195312 363.355469 464.8125 364.675781 463.492188 C 365.996094 462.167969 367.378906 460.917969 368.824219 459.730469 C 370.265625 458.546875 371.765625 457.433594 373.316406 456.394531 C 374.871094 455.359375 376.472656 454.398438 378.117188 453.519531 C 379.765625 452.636719 381.453125 451.839844 383.179688 451.125 C 384.90625 450.410156 386.660156 449.78125 388.449219 449.238281 C 390.234375 448.695312 392.046875 448.242188 393.878906 447.878906 C 395.710938 447.511719 397.554688 447.238281 399.414062 447.054688 C 401.273438 446.871094 403.136719 446.78125 405.003906 446.78125 C 406.875 446.78125 408.738281 446.871094 410.597656 447.054688 C 412.457031 447.238281 414.300781 447.511719 416.132812 447.878906 C 417.964844 448.242188 419.773438 448.695312 421.5625 449.238281 C 423.351562 449.78125 425.105469 450.410156 426.832031 451.125 C 428.558594 451.839844 430.246094 452.636719 431.890625 453.519531 C 433.539062 454.398438 435.140625 455.359375 436.691406 456.394531 C 438.246094 457.433594 439.746094 458.546875 441.1875 459.730469 C 442.632812 460.917969 444.015625 462.167969 445.335938 463.492188 C 446.65625 464.8125 447.910156 466.195312 449.09375 467.640625 C 450.277344 469.082031 451.390625 470.582031 452.425781 472.136719 C 453.464844 473.6875 454.421875 475.289062 455.300781 476.9375 C 456.183594 478.585938 456.980469 480.273438 457.695312 482 C 458.410156 483.722656 459.035156 485.480469 459.578125 487.269531 C 460.121094 489.054688 460.574219 490.867188 460.9375 492.699219 C 461.300781 494.53125 461.574219 496.375 461.757812 498.234375 C 461.9375 500.09375 462.03125 501.957031 462.027344 503.828125 C 462.027344 506.492188 461.832031 509.140625 461.445312 511.777344 Z M 567.390625 312.832031 L 242.609375 312.832031 L 242.609375 246.566406 C 242.609375 157.003906 315.4375 84.152344 405.023438 84.152344 C 494.605469 84.152344 567.390625 157.003906 567.390625 246.566406 Z M 567.390625 312.832031 " fill-opacity="1" fill-rule="nonzero"/></g></svg>