<svg xmlns="http://www.w3.org/2000/svg" xmlns:xlink="http://www.w3.org/1999/xlink" width="1080" zoomAndPan="magnify" viewBox="0 0 810 809.999993" height="1080" preserveAspectRatio="xMidYMid meet" version="1.0"><defs><clipPath id="56f5b7a303"><path d="M 120 40.5 L 810 40.5 L 810 769.5 L 120 769.5 Z M 120 40.5 " clip-rule="nonzero"/></clipPath></defs><path fill="#475dd7" d="M 0 364.5 L 486 364.5 L 486 445.5 L 0 445.5 Z M 0 364.5 " fill-opacity="1" fill-rule="evenodd"/><path fill="#475dd7" d="M 372.890625 234.613281 L 514.640625 376.363281 C 530.457031 392.175781 530.457031 417.824219 514.640625 433.636719 L 372.890625 575.386719 L 315.617188 518.113281 L 428.730469 405 L 315.617188 291.886719 Z M 372.890625 234.613281 " fill-opacity="1" fill-rule="evenodd"/><g clip-path="url(#56f5b7a303)"><path fill="#475dd7" d="M 445.496094 121.5 C 335.4375 121.5 239.949219 184.210938 192.953125 276.035156 L 120.847656 239.128906 C 181.15625 121.296875 303.855469 40.5 445.496094 40.5 C 646.804688 40.5 809.996094 203.691406 809.996094 405 C 809.996094 606.308594 646.804688 769.5 445.496094 769.5 C 303.855469 769.5 181.15625 688.703125 120.847656 570.871094 L 192.953125 533.964844 C 239.949219 625.789062 335.4375 688.5 445.496094 688.5 C 602.070312 688.5 728.996094 561.574219 728.996094 405 C 728.996094 248.425781 602.070312 121.5 445.496094 121.5 Z M 445.496094 121.5 " fill-opacity="1" fill-rule="evenodd"/></g></svg>