<svg xmlns="http://www.w3.org/2000/svg" xmlns:xlink="http://www.w3.org/1999/xlink" width="1080" zoomAndPan="magnify" viewBox="0 0 810 809.999993" height="1080" preserveAspectRatio="xMidYMid meet" version="1.0"><defs><clipPath id="2a200cf0cb"><path d="M 0.0390625 59.738281 L 809.992188 59.738281 L 809.992188 194 L 0.0390625 194 Z M 0.0390625 59.738281 " clip-rule="nonzero"/></clipPath><clipPath id="1bb9789408"><path d="M 0.0390625 327 L 809.992188 327 L 809.992188 462 L 0.0390625 462 Z M 0.0390625 327 " clip-rule="nonzero"/></clipPath><clipPath id="0287733156"><path d="M 0.0390625 595 L 809.992188 595 L 809.992188 728.738281 L 0.0390625 728.738281 Z M 0.0390625 595 " clip-rule="nonzero"/></clipPath></defs><g clip-path="url(#2a200cf0cb)"><path fill="#475dd7" d="M 743.039062 193.613281 L 66.976562 193.613281 C 30.003906 193.613281 0.0390625 163.648438 0.0390625 126.675781 C 0.0390625 89.714844 30.003906 59.75 66.976562 59.75 L 743.039062 59.75 C 780.015625 59.75 809.980469 89.714844 809.980469 126.675781 C 809.980469 163.648438 780.015625 193.613281 743.039062 193.613281 " fill-opacity="1" fill-rule="nonzero"/></g><g clip-path="url(#1bb9789408)"><path fill="#475dd7" d="M 743.039062 461.367188 L 66.976562 461.367188 C 30.003906 461.367188 0.0390625 431.402344 0.0390625 394.429688 C 0.0390625 357.457031 30.003906 327.492188 66.976562 327.492188 L 743.039062 327.492188 C 780.015625 327.492188 809.980469 357.457031 809.980469 394.429688 C 809.980469 431.402344 780.015625 461.367188 743.039062 461.367188 " fill-opacity="1" fill-rule="nonzero"/></g><g clip-path="url(#0287733156)"><path fill="#475dd7" d="M 743.039062 729.121094 L 66.976562 729.121094 C 30.003906 729.121094 0.0390625 699.15625 0.0390625 662.183594 C 0.0390625 625.210938 30.003906 595.246094 66.976562 595.246094 L 743.039062 595.246094 C 780.015625 595.246094 809.980469 625.210938 809.980469 662.183594 C 809.980469 699.15625 780.015625 729.121094 743.039062 729.121094 " fill-opacity="1" fill-rule="nonzero"/></g></svg>