<svg xmlns="http://www.w3.org/2000/svg" xmlns:xlink="http://www.w3.org/1999/xlink" width="1080" zoomAndPan="magnify" viewBox="0 0 810 809.999993" height="1080" preserveAspectRatio="xMidYMid meet" version="1.0"><defs><clipPath id="8ff82e3e4f"><path d="M 0 87.628906 L 665 87.628906 L 665 722.128906 L 0 722.128906 Z M 0 87.628906 " clip-rule="nonzero"/></clipPath></defs><g clip-path="url(#8ff82e3e4f)"><path fill="#475dd7" d="M 482.917969 87.628906 C 392.746094 87.628906 317.933594 153.25 303.578125 239.332031 L 281.28125 243.574219 C 255.0625 199.28125 206.816406 169.566406 151.597656 169.566406 C 68.394531 169.566406 0.984375 236.980469 0.984375 320.179688 C 0.984375 390.925781 49.734375 450.230469 115.484375 466.414062 L 115.484375 483.238281 L 84.976562 483.238281 L 84.839844 481.871094 L 48.726562 468.464844 L 23.417969 468.464844 L 63.363281 551.636719 L 78.136719 547.671875 L 86.34375 534.265625 L 115.484375 534.265625 L 115.484375 722.359375 L 638.984375 722.359375 L 638.984375 409.640625 L 598.765625 409.640625 C 639.113281 376.285156 664.839844 325.867188 664.839844 269.425781 C 664.839844 168.980469 583.34375 87.625 482.90625 87.625 Z M 324.917969 359.441406 C 335.847656 378.609375 350.136719 395.660156 367.050781 409.648438 L 272.800781 409.648438 C 282.667969 396.300781 290.324219 381.261719 295.371094 365.050781 Z M 586.472656 659.164062 C 595.539062 659.164062 602.886719 666.511719 602.886719 675.578125 C 602.886719 684.644531 595.539062 691.996094 586.472656 691.996094 C 577.40625 691.996094 570.058594 684.644531 570.058594 675.578125 C 570.058594 666.511719 577.40625 659.164062 586.472656 659.164062 Z M 586.472656 659.164062 " fill-opacity="1" fill-rule="nonzero"/></g><path fill="#ffffff" d="M 480.292969 173.292969 C 429.523438 173.292969 388.367188 214.453125 388.367188 265.222656 C 388.367188 315.992188 429.523438 357.148438 480.292969 357.148438 C 531.0625 357.148438 572.21875 315.992188 572.21875 265.222656 C 572.21875 214.453125 531.0625 173.292969 480.292969 173.292969 Z M 471.515625 200.425781 C 479.742188 200.425781 486.4375 207.042969 486.4375 215.269531 C 486.4375 223.496094 479.742188 230.191406 471.515625 230.191406 C 463.289062 230.191406 456.59375 223.496094 456.59375 215.269531 C 456.59375 207.042969 463.289062 200.425781 471.515625 200.425781 Z M 517.558594 228.355469 C 525.785156 228.355469 532.480469 235.050781 532.480469 243.277344 C 532.480469 251.503906 525.785156 258.199219 517.558594 258.199219 C 509.328125 258.199219 502.636719 251.503906 502.636719 243.277344 C 502.636719 235.050781 509.328125 228.355469 517.558594 228.355469 Z M 436.324219 240.085938 C 444.550781 240.085938 451.167969 246.78125 451.167969 255.007812 C 451.167969 263.234375 444.550781 269.929688 436.324219 269.929688 C 428.097656 269.929688 421.402344 263.234375 421.402344 255.007812 C 421.402344 246.78125 428.097656 240.085938 436.324219 240.085938 Z M 512.132812 280.78125 C 520.359375 280.78125 527.054688 287.398438 527.054688 295.625 C 527.054688 303.851562 520.359375 310.546875 512.132812 310.546875 C 503.90625 310.546875 497.210938 303.851562 497.210938 295.625 C 497.210938 287.398438 503.90625 280.78125 512.132812 280.78125 Z M 457.074219 289.800781 C 465.300781 289.800781 471.996094 296.414062 471.996094 304.640625 C 471.996094 312.867188 465.300781 319.5625 457.074219 319.5625 C 448.847656 319.5625 442.152344 312.867188 442.152344 304.640625 C 442.152344 296.414062 448.847656 289.800781 457.074219 289.800781 Z M 457.074219 289.800781 " fill-opacity="1" fill-rule="nonzero"/><path fill="#ffffff" d="M 151.980469 238.957031 C 110.882812 238.957031 77.566406 272.273438 77.566406 313.375 C 77.566406 354.472656 110.882812 387.792969 151.980469 387.792969 C 193.082031 387.792969 226.398438 354.472656 226.398438 313.375 C 226.398438 272.273438 193.082031 238.957031 151.980469 238.957031 Z M 144.875 260.921875 C 151.535156 260.921875 156.957031 266.277344 156.957031 272.9375 C 156.957031 279.59375 151.535156 285.015625 144.875 285.015625 C 138.214844 285.015625 132.796875 279.597656 132.796875 272.9375 C 132.796875 266.273438 138.214844 260.921875 144.875 260.921875 Z M 182.148438 283.53125 C 188.808594 283.53125 194.230469 288.949219 194.230469 295.609375 C 194.230469 302.269531 188.808594 307.691406 182.148438 307.691406 C 175.488281 307.691406 170.070312 302.269531 170.070312 295.609375 C 170.070312 288.949219 175.488281 283.53125 182.148438 283.53125 Z M 116.386719 293.027344 C 123.046875 293.027344 128.402344 298.445312 128.402344 305.105469 C 128.402344 311.765625 123.046875 317.1875 116.386719 317.1875 C 109.726562 317.1875 104.304688 311.765625 104.304688 305.105469 C 104.304688 298.445312 109.726562 293.027344 116.386719 293.027344 Z M 177.753906 325.96875 C 184.414062 325.96875 189.835938 331.324219 189.835938 337.984375 C 189.835938 344.644531 184.414062 350.066406 177.753906 350.066406 C 171.09375 350.066406 165.675781 344.644531 165.675781 337.984375 C 165.675781 331.324219 171.09375 325.96875 177.753906 325.96875 Z M 133.183594 333.269531 C 139.84375 333.269531 145.261719 338.625 145.261719 345.285156 C 145.261719 351.945312 139.84375 357.367188 133.183594 357.367188 C 126.523438 357.367188 121.101562 351.945312 121.101562 345.285156 C 121.101562 338.625 126.523438 333.269531 133.183594 333.269531 Z M 133.183594 333.269531 " fill-opacity="1" fill-rule="nonzero"/><path fill="#475dd7" d="M 808.996094 390.375 L 716.660156 446.324219 L 644.429688 446.324219 L 644.429688 585.71875 L 716.660156 585.71875 L 808.996094 641.667969 Z M 808.996094 390.375 " fill-opacity="1" fill-rule="nonzero"/></svg>