<svg xmlns="http://www.w3.org/2000/svg" xmlns:xlink="http://www.w3.org/1999/xlink" width="1080" zoomAndPan="magnify" viewBox="0 0 810 809.999993" height="1080" preserveAspectRatio="xMidYMid meet" version="1.0"><path fill="#475dd7" d="M 728.964844 324 L 485.660156 324 L 485.660156 81.023438 C 485.660156 36.324219 449.371094 0.0234375 404.660156 0.0234375 C 359.960938 0.0234375 323.660156 36.324219 323.660156 81.023438 L 323.660156 324.011719 L 81.023438 324 C 36.3125 324 0.0234375 360.289062 0.0234375 404.988281 C 0.0234375 449.699219 36.3125 485.988281 81.023438 485.988281 L 323.683594 485.988281 L 323.683594 728.976562 C 323.683594 773.6875 359.972656 809.976562 404.683594 809.976562 C 449.382812 809.976562 485.671875 773.6875 485.671875 728.976562 L 485.671875 485.988281 L 728.964844 485.988281 C 773.675781 485.988281 809.964844 449.699219 809.964844 404.988281 C 809.964844 360.289062 773.675781 324 728.964844 324 Z M 728.964844 324 " fill-opacity="1" fill-rule="evenodd"/></svg>