<svg xmlns="http://www.w3.org/2000/svg" xmlns:xlink="http://www.w3.org/1999/xlink" width="1080" zoomAndPan="magnify" viewBox="0 0 810 809.999993" height="1080" preserveAspectRatio="xMidYMid meet" version="1.0"><path fill="#475dd7" d="M 405 0 C 398.371094 0 391.746094 0.164062 385.128906 0.488281 C 378.507812 0.8125 371.898438 1.300781 365.304688 1.949219 C 358.707031 2.601562 352.128906 3.410156 345.574219 4.382812 C 339.019531 5.355469 332.488281 6.488281 325.988281 7.78125 C 319.488281 9.074219 313.023438 10.527344 306.59375 12.136719 C 300.164062 13.746094 293.777344 15.515625 287.433594 17.4375 C 281.09375 19.363281 274.800781 21.441406 268.558594 23.675781 C 262.320312 25.90625 256.136719 28.292969 250.011719 30.828125 C 243.890625 33.367188 237.832031 36.050781 231.839844 38.882812 C 225.847656 41.71875 219.929688 44.699219 214.085938 47.820312 C 208.238281 50.945312 202.472656 54.210938 196.789062 57.621094 C 191.101562 61.027344 185.503906 64.574219 179.992188 68.253906 C 174.484375 71.9375 169.066406 75.753906 163.742188 79.699219 C 158.417969 83.648438 153.195312 87.726562 148.070312 91.929688 C 142.945312 96.136719 137.929688 100.464844 133.019531 104.914062 C 128.109375 109.367188 123.308594 113.933594 118.621094 118.621094 C 113.933594 123.308594 109.367188 128.109375 104.914062 133.019531 C 100.464844 137.929688 96.136719 142.945312 91.929688 148.070312 C 87.726562 153.195312 83.648438 158.417969 79.699219 163.742188 C 75.753906 169.066406 71.9375 174.484375 68.253906 179.992188 C 64.574219 185.503906 61.027344 191.101562 57.621094 196.789062 C 54.210938 202.472656 50.945312 208.238281 47.820312 214.085938 C 44.699219 219.929688 41.71875 225.847656 38.882812 231.839844 C 36.050781 237.832031 33.367188 243.890625 30.828125 250.011719 C 28.292969 256.136719 25.90625 262.320312 23.675781 268.558594 C 21.441406 274.800781 19.363281 281.09375 17.4375 287.433594 C 15.515625 293.777344 13.746094 300.164062 12.136719 306.59375 C 10.527344 313.023438 9.074219 319.488281 7.78125 325.988281 C 6.488281 332.488281 5.355469 339.019531 4.382812 345.574219 C 3.410156 352.128906 2.601562 358.707031 1.949219 365.304688 C 1.300781 371.898438 0.8125 378.507812 0.488281 385.128906 C 0.164062 391.746094 0 398.371094 0 405 C 0 411.628906 0.164062 418.253906 0.488281 424.871094 C 0.8125 431.492188 1.300781 438.101562 1.949219 444.695312 C 2.601562 451.292969 3.410156 457.871094 4.382812 464.425781 C 5.355469 470.980469 6.488281 477.511719 7.78125 484.011719 C 9.074219 490.511719 10.527344 496.976562 12.136719 503.40625 C 13.746094 509.835938 15.515625 516.222656 17.4375 522.566406 C 19.363281 528.90625 21.441406 535.199219 23.675781 541.441406 C 25.90625 547.679688 28.292969 553.863281 30.828125 559.988281 C 33.367188 566.109375 36.050781 572.167969 38.882812 578.160156 C 41.71875 584.152344 44.699219 590.070312 47.820312 595.914062 C 50.945312 601.761719 54.210938 607.527344 57.621094 613.210938 C 61.027344 618.898438 64.574219 624.496094 68.253906 630.007812 C 71.9375 635.515625 75.753906 640.933594 79.699219 646.257812 C 83.648438 651.582031 87.726562 656.804688 91.929688 661.929688 C 96.136719 667.054688 100.464844 672.070312 104.914062 676.980469 C 109.367188 681.890625 113.933594 686.691406 118.621094 691.378906 C 123.308594 696.066406 128.109375 700.632812 133.019531 705.085938 C 137.929688 709.535156 142.945312 713.863281 148.070312 718.070312 C 153.195312 722.273438 158.417969 726.351562 163.742188 730.300781 C 169.066406 734.246094 174.484375 738.0625 179.992188 741.746094 C 185.503906 745.425781 191.101562 748.972656 196.789062 752.378906 C 202.472656 755.789062 208.238281 759.054688 214.085938 762.179688 C 219.929688 765.300781 225.847656 768.28125 231.839844 771.117188 C 237.832031 773.949219 243.890625 776.632812 250.011719 779.171875 C 256.136719 781.707031 262.320312 784.09375 268.558594 786.324219 C 274.800781 788.558594 281.09375 790.636719 287.433594 792.5625 C 293.777344 794.484375 300.164062 796.253906 306.59375 797.863281 C 313.023438 799.472656 319.488281 800.925781 325.988281 802.21875 C 332.488281 803.511719 339.019531 804.644531 345.574219 805.617188 C 352.128906 806.589844 358.707031 807.398438 365.304688 808.050781 C 371.898438 808.699219 378.507812 809.1875 385.128906 809.511719 C 391.746094 809.835938 398.371094 810 405 810 C 411.628906 810 418.253906 809.835938 424.871094 809.511719 C 431.492188 809.1875 438.101562 808.699219 444.695312 808.050781 C 451.292969 807.398438 457.871094 806.589844 464.425781 805.617188 C 470.980469 804.644531 477.511719 803.511719 484.011719 802.21875 C 490.511719 800.925781 496.976562 799.472656 503.40625 797.863281 C 509.835938 796.253906 516.222656 794.484375 522.566406 792.5625 C 528.90625 790.636719 535.199219 788.558594 541.441406 786.324219 C 547.679688 784.09375 553.863281 781.707031 559.988281 779.171875 C 566.109375 776.632812 572.167969 773.949219 578.160156 771.117188 C 584.152344 768.28125 590.070312 765.300781 595.914062 762.179688 C 601.761719 759.054688 607.527344 755.789062 613.210938 752.378906 C 618.898438 748.972656 624.496094 745.425781 630.007812 741.746094 C 635.515625 738.0625 640.933594 734.246094 646.257812 730.300781 C 651.582031 726.351562 656.804688 722.273438 661.929688 718.070312 C 667.054688 713.863281 672.070312 709.535156 676.980469 705.085938 C 681.890625 700.632812 686.691406 696.066406 691.378906 691.378906 C 696.066406 686.691406 700.632812 681.890625 705.085938 676.980469 C 709.535156 672.070312 713.863281 667.054688 718.070312 661.929688 C 722.273438 656.804688 726.351562 651.582031 730.300781 646.257812 C 734.246094 640.933594 738.0625 635.515625 741.746094 630.007812 C 745.425781 624.496094 748.972656 618.898438 752.378906 613.210938 C 755.789062 607.527344 759.054688 601.761719 762.179688 595.914062 C 765.300781 590.070312 768.28125 584.152344 771.117188 578.160156 C 773.949219 572.167969 776.632812 566.109375 779.171875 559.988281 C 781.707031 553.863281 784.09375 547.679688 786.324219 541.441406 C 788.558594 535.199219 790.636719 528.90625 792.5625 522.566406 C 794.484375 516.222656 796.253906 509.835938 797.863281 503.40625 C 799.472656 496.976562 800.925781 490.511719 802.21875 484.011719 C 803.511719 477.511719 804.644531 470.980469 805.617188 464.425781 C 806.589844 457.871094 807.398438 451.292969 808.050781 444.695312 C 808.699219 438.101562 809.1875 431.492188 809.511719 424.871094 C 809.835938 418.253906 810 411.628906 810 405 C 809.992188 398.375 809.824219 391.75 809.492188 385.132812 C 809.164062 378.515625 808.671875 371.910156 808.015625 365.316406 C 807.359375 358.722656 806.542969 352.148438 805.566406 345.59375 C 804.589844 339.039062 803.453125 332.511719 802.15625 326.015625 C 800.855469 319.515625 799.402344 313.054688 797.785156 306.628906 C 796.171875 300.199219 794.402344 293.816406 792.472656 287.476562 C 790.546875 281.136719 788.464844 274.847656 786.230469 268.609375 C 783.996094 262.375 781.605469 256.195312 779.066406 250.074219 C 776.53125 243.953125 773.84375 237.898438 771.007812 231.910156 C 768.171875 225.917969 765.191406 220.003906 762.066406 214.160156 C 758.9375 208.316406 755.671875 202.554688 752.261719 196.871094 C 748.855469 191.191406 745.308594 185.59375 741.625 180.085938 C 737.945312 174.578125 734.128906 169.160156 730.179688 163.839844 C 726.230469 158.519531 722.15625 153.296875 717.953125 148.175781 C 713.746094 143.050781 709.417969 138.035156 704.96875 133.128906 C 700.519531 128.21875 695.949219 123.421875 691.265625 118.734375 C 686.578125 114.050781 681.78125 109.480469 676.871094 105.03125 C 671.964844 100.582031 666.949219 96.253906 661.824219 92.046875 C 656.703125 87.84375 651.480469 83.769531 646.160156 79.820312 C 640.839844 75.871094 635.421875 72.054688 629.914062 68.375 C 624.40625 64.691406 618.808594 61.144531 613.128906 57.738281 C 607.445312 54.328125 601.683594 51.0625 595.839844 47.933594 C 589.996094 44.808594 584.082031 41.828125 578.089844 38.992188 C 572.101562 36.15625 566.046875 33.46875 559.925781 30.933594 C 553.804688 28.394531 547.625 26.003906 541.390625 23.769531 C 535.152344 21.535156 528.863281 19.453125 522.523438 17.527344 C 516.183594 15.597656 509.800781 13.828125 503.371094 12.214844 C 496.945312 10.597656 490.484375 9.144531 483.984375 7.847656 C 477.488281 6.546875 470.960938 5.410156 464.40625 4.433594 C 457.851562 3.457031 451.277344 2.640625 444.683594 1.984375 C 438.089844 1.332031 431.484375 0.835938 424.867188 0.507812 C 418.25 0.175781 411.625 0.0078125 405 0 Z M 192.855469 462.855469 C 190.960938 462.855469 189.070312 462.765625 187.1875 462.578125 C 185.300781 462.394531 183.429688 462.113281 181.570312 461.746094 C 179.710938 461.375 177.875 460.914062 176.0625 460.367188 C 174.25 459.816406 172.464844 459.179688 170.714844 458.453125 C 168.964844 457.726562 167.253906 456.917969 165.582031 456.027344 C 163.914062 455.132812 162.289062 454.160156 160.714844 453.105469 C 159.136719 452.054688 157.617188 450.925781 156.152344 449.722656 C 154.6875 448.523438 153.285156 447.25 151.945312 445.910156 C 150.605469 444.570312 149.335938 443.167969 148.132812 441.703125 C 146.929688 440.238281 145.804688 438.71875 144.75 437.144531 C 143.699219 435.566406 142.726562 433.945312 141.832031 432.273438 C 140.9375 430.601562 140.128906 428.890625 139.402344 427.140625 C 138.679688 425.390625 138.042969 423.609375 137.492188 421.796875 C 136.941406 419.980469 136.480469 418.144531 136.113281 416.289062 C 135.742188 414.429688 135.464844 412.558594 135.277344 410.671875 C 135.09375 408.785156 135 406.894531 135 405 C 135 403.105469 135.09375 401.214844 135.277344 399.328125 C 135.464844 397.441406 135.742188 395.570312 136.113281 393.710938 C 136.480469 391.855469 136.941406 390.019531 137.492188 388.203125 C 138.042969 386.390625 138.679688 384.609375 139.402344 382.859375 C 140.128906 381.109375 140.9375 379.398438 141.832031 377.726562 C 142.726562 376.054688 143.699219 374.433594 144.75 372.855469 C 145.804688 371.28125 146.929688 369.761719 148.132812 368.296875 C 149.335938 366.832031 150.605469 365.429688 151.945312 364.089844 C 153.285156 362.75 154.6875 361.476562 156.152344 360.277344 C 157.617188 359.074219 159.136719 357.945312 160.714844 356.894531 C 162.289062 355.839844 163.914062 354.867188 165.582031 353.972656 C 167.253906 353.082031 168.964844 352.273438 170.714844 351.546875 C 172.464844 350.820312 174.25 350.183594 176.0625 349.632812 C 177.875 349.085938 179.710938 348.625 181.570312 348.253906 C 183.429688 347.886719 185.300781 347.605469 187.1875 347.421875 C 189.070312 347.234375 190.960938 347.144531 192.855469 347.144531 C 194.753906 347.144531 196.640625 347.234375 198.527344 347.421875 C 200.414062 347.605469 202.285156 347.886719 204.144531 348.253906 C 206.003906 348.625 207.839844 349.085938 209.652344 349.632812 C 211.464844 350.183594 213.246094 350.820312 215 351.546875 C 216.75 352.273438 218.460938 353.082031 220.128906 353.972656 C 221.800781 354.867188 223.425781 355.839844 225 356.894531 C 226.578125 357.945312 228.097656 359.074219 229.5625 360.277344 C 231.027344 361.476562 232.429688 362.75 233.769531 364.089844 C 235.109375 365.429688 236.378906 366.832031 237.582031 368.296875 C 238.785156 369.761719 239.910156 371.28125 240.964844 372.855469 C 242.015625 374.433594 242.988281 376.054688 243.882812 377.726562 C 244.777344 379.398438 245.585938 381.109375 246.308594 382.859375 C 247.035156 384.609375 247.671875 386.390625 248.222656 388.203125 C 248.773438 390.019531 249.234375 391.855469 249.601562 393.710938 C 249.972656 395.570312 250.25 397.441406 250.4375 399.328125 C 250.621094 401.214844 250.714844 403.105469 250.714844 405 C 250.714844 406.894531 250.621094 408.785156 250.4375 410.671875 C 250.25 412.558594 249.972656 414.429688 249.601562 416.289062 C 249.234375 418.144531 248.773438 419.980469 248.222656 421.796875 C 247.671875 423.609375 247.035156 425.390625 246.308594 427.140625 C 245.585938 428.890625 244.777344 430.601562 243.882812 432.273438 C 242.988281 433.945312 242.015625 435.566406 240.964844 437.144531 C 239.910156 438.71875 238.785156 440.238281 237.582031 441.703125 C 236.378906 443.167969 235.109375 444.570312 233.769531 445.910156 C 232.429688 447.25 231.027344 448.523438 229.5625 449.722656 C 228.097656 450.925781 226.578125 452.054688 225 453.105469 C 223.425781 454.160156 221.800781 455.132812 220.128906 456.027344 C 218.460938 456.917969 216.75 457.726562 215 458.453125 C 213.246094 459.179688 211.464844 459.816406 209.652344 460.367188 C 207.839844 460.914062 206.003906 461.375 204.144531 461.746094 C 202.285156 462.113281 200.414062 462.394531 198.527344 462.578125 C 196.640625 462.765625 194.753906 462.855469 192.855469 462.855469 Z M 405 462.855469 C 403.105469 462.855469 401.214844 462.765625 399.328125 462.578125 C 397.441406 462.394531 395.570312 462.113281 393.710938 461.746094 C 391.855469 461.375 390.019531 460.914062 388.203125 460.367188 C 386.390625 459.816406 384.609375 459.179688 382.859375 458.453125 C 381.109375 457.726562 379.398438 456.917969 377.726562 456.027344 C 376.054688 455.132812 374.433594 454.160156 372.855469 453.105469 C 371.28125 452.054688 369.761719 450.925781 368.296875 449.722656 C 366.832031 448.523438 365.429688 447.25 364.089844 445.910156 C 362.75 444.570312 361.476562 443.167969 360.277344 441.703125 C 359.074219 440.238281 357.945312 438.71875 356.894531 437.144531 C 355.839844 435.566406 354.867188 433.945312 353.972656 432.273438 C 353.082031 430.601562 352.273438 428.890625 351.546875 427.140625 C 350.820312 425.390625 350.183594 423.609375 349.632812 421.796875 C 349.085938 419.980469 348.625 418.144531 348.253906 416.289062 C 347.886719 414.429688 347.605469 412.558594 347.421875 410.671875 C 347.234375 408.785156 347.144531 406.894531 347.144531 405 C 347.144531 403.105469 347.234375 401.214844 347.421875 399.328125 C 347.605469 397.441406 347.886719 395.570312 348.253906 393.710938 C 348.625 391.855469 349.085938 390.019531 349.632812 388.203125 C 350.183594 386.390625 350.820312 384.609375 351.546875 382.859375 C 352.273438 381.109375 353.082031 379.398438 353.972656 377.726562 C 354.867188 376.054688 355.839844 374.433594 356.894531 372.855469 C 357.945312 371.28125 359.074219 369.761719 360.277344 368.296875 C 361.476562 366.832031 362.75 365.429688 364.089844 364.089844 C 365.429688 362.75 366.832031 361.476562 368.296875 360.277344 C 369.761719 359.074219 371.28125 357.945312 372.855469 356.894531 C 374.433594 355.839844 376.054688 354.867188 377.726562 353.972656 C 379.398438 353.082031 381.109375 352.273438 382.859375 351.546875 C 384.609375 350.820312 386.390625 350.183594 388.203125 349.632812 C 390.019531 349.085938 391.855469 348.625 393.710938 348.253906 C 395.570312 347.886719 397.441406 347.605469 399.328125 347.421875 C 401.214844 347.234375 403.105469 347.144531 405 347.144531 C 406.894531 347.144531 408.785156 347.234375 410.671875 347.421875 C 412.558594 347.605469 414.429688 347.886719 416.289062 348.253906 C 418.144531 348.625 419.980469 349.085938 421.796875 349.632812 C 423.609375 350.183594 425.390625 350.820312 427.140625 351.546875 C 428.890625 352.273438 430.601562 353.082031 432.273438 353.972656 C 433.945312 354.867188 435.566406 355.839844 437.144531 356.894531 C 438.71875 357.945312 440.238281 359.074219 441.703125 360.277344 C 443.167969 361.476562 444.570312 362.75 445.910156 364.089844 C 447.25 365.429688 448.523438 366.832031 449.722656 368.296875 C 450.925781 369.761719 452.054688 371.28125 453.105469 372.855469 C 454.160156 374.433594 455.132812 376.054688 456.027344 377.726562 C 456.917969 379.398438 457.726562 381.109375 458.453125 382.859375 C 459.179688 384.609375 459.816406 386.390625 460.367188 388.203125 C 460.914062 390.019531 461.375 391.855469 461.746094 393.710938 C 462.113281 395.570312 462.394531 397.441406 462.578125 399.328125 C 462.765625 401.214844 462.855469 403.105469 462.855469 405 C 462.855469 406.894531 462.765625 408.785156 462.578125 410.671875 C 462.394531 412.558594 462.113281 414.429688 461.746094 416.289062 C 461.375 418.144531 460.914062 419.980469 460.367188 421.796875 C 459.816406 423.609375 459.179688 425.390625 458.453125 427.140625 C 457.726562 428.890625 456.917969 430.601562 456.027344 432.273438 C 455.132812 433.945312 454.160156 435.566406 453.105469 437.144531 C 452.054688 438.71875 450.925781 440.238281 449.722656 441.703125 C 448.523438 443.167969 447.25 444.570312 445.910156 445.910156 C 444.570312 447.25 443.167969 448.523438 441.703125 449.722656 C 440.238281 450.925781 438.71875 452.054688 437.144531 453.105469 C 435.566406 454.160156 433.945312 455.132812 432.273438 456.027344 C 430.601562 456.917969 428.890625 457.726562 427.140625 458.453125 C 425.390625 459.179688 423.609375 459.816406 421.796875 460.367188 C 419.980469 460.914062 418.144531 461.375 416.289062 461.746094 C 414.429688 462.113281 412.558594 462.394531 410.671875 462.578125 C 408.785156 462.765625 406.894531 462.855469 405 462.855469 Z M 617.144531 462.855469 C 615.246094 462.855469 613.359375 462.765625 611.472656 462.578125 C 609.585938 462.394531 607.714844 462.113281 605.855469 461.746094 C 603.996094 461.375 602.160156 460.914062 600.347656 460.367188 C 598.535156 459.816406 596.753906 459.179688 595 458.453125 C 593.25 457.726562 591.539062 456.917969 589.867188 456.027344 C 588.199219 455.132812 586.574219 454.160156 585 453.105469 C 583.421875 452.054688 581.902344 450.925781 580.4375 449.722656 C 578.972656 448.523438 577.570312 447.25 576.230469 445.910156 C 574.890625 444.570312 573.621094 443.167969 572.417969 441.703125 C 571.214844 440.238281 570.089844 438.71875 569.035156 437.144531 C 567.984375 435.566406 567.011719 433.945312 566.117188 432.273438 C 565.222656 430.601562 564.414062 428.890625 563.691406 427.140625 C 562.964844 425.390625 562.328125 423.609375 561.777344 421.796875 C 561.226562 419.980469 560.765625 418.144531 560.398438 416.289062 C 560.027344 414.429688 559.75 412.558594 559.5625 410.671875 C 559.378906 408.785156 559.285156 406.894531 559.285156 405 C 559.285156 403.105469 559.378906 401.214844 559.5625 399.328125 C 559.75 397.441406 560.027344 395.570312 560.398438 393.710938 C 560.765625 391.855469 561.226562 390.019531 561.777344 388.203125 C 562.328125 386.390625 562.964844 384.609375 563.691406 382.859375 C 564.414062 381.109375 565.222656 379.398438 566.117188 377.726562 C 567.011719 376.054688 567.984375 374.433594 569.035156 372.855469 C 570.089844 371.28125 571.214844 369.761719 572.417969 368.296875 C 573.621094 366.832031 574.890625 365.429688 576.230469 364.089844 C 577.570312 362.75 578.972656 361.476562 580.4375 360.277344 C 581.902344 359.074219 583.421875 357.945312 585 356.894531 C 586.574219 355.839844 588.199219 354.867188 589.867188 353.972656 C 591.539062 353.082031 593.25 352.273438 595 351.546875 C 596.753906 350.820312 598.535156 350.183594 600.347656 349.632812 C 602.160156 349.085938 603.996094 348.625 605.855469 348.253906 C 607.714844 347.886719 609.585938 347.605469 611.472656 347.421875 C 613.359375 347.234375 615.246094 347.144531 617.144531 347.144531 C 619.039062 347.144531 620.929688 347.234375 622.8125 347.421875 C 624.699219 347.605469 626.570312 347.886719 628.429688 348.253906 C 630.289062 348.625 632.125 349.085938 633.9375 349.632812 C 635.75 350.183594 637.53125 350.820312 639.285156 351.546875 C 641.035156 352.273438 642.746094 353.082031 644.417969 353.972656 C 646.085938 354.867188 647.710938 355.839844 649.285156 356.894531 C 650.863281 357.945312 652.382812 359.074219 653.847656 360.277344 C 655.3125 361.476562 656.714844 362.75 658.054688 364.089844 C 659.394531 365.429688 660.664062 366.832031 661.867188 368.296875 C 663.070312 369.761719 664.195312 371.28125 665.25 372.855469 C 666.300781 374.433594 667.273438 376.054688 668.167969 377.726562 C 669.0625 379.398438 669.871094 381.109375 670.597656 382.859375 C 671.320312 384.609375 671.957031 386.390625 672.507812 388.203125 C 673.058594 390.019531 673.519531 391.855469 673.886719 393.710938 C 674.257812 395.570312 674.535156 397.441406 674.722656 399.328125 C 674.90625 401.214844 675 403.105469 675 405 C 675 406.894531 674.90625 408.785156 674.722656 410.671875 C 674.535156 412.558594 674.257812 414.429688 673.886719 416.289062 C 673.519531 418.144531 673.058594 419.980469 672.507812 421.796875 C 671.957031 423.609375 671.320312 425.390625 670.597656 427.140625 C 669.871094 428.890625 669.0625 430.601562 668.167969 432.273438 C 667.273438 433.945312 666.300781 435.566406 665.25 437.144531 C 664.195312 438.71875 663.070312 440.238281 661.867188 441.703125 C 660.664062 443.167969 659.394531 444.570312 658.054688 445.910156 C 656.714844 447.25 655.3125 448.523438 653.847656 449.722656 C 652.382812 450.925781 650.863281 452.054688 649.285156 453.105469 C 647.710938 454.160156 646.085938 455.132812 644.417969 456.027344 C 642.746094 456.917969 641.035156 457.726562 639.285156 458.453125 C 637.53125 459.179688 635.75 459.816406 633.9375 460.367188 C 632.125 460.914062 630.289062 461.375 628.429688 461.746094 C 626.570312 462.113281 624.699219 462.394531 622.8125 462.578125 C 620.929688 462.765625 619.039062 462.855469 617.144531 462.855469 Z M 617.144531 462.855469 " fill-opacity="1" fill-rule="nonzero"/></svg>