<svg xmlns="http://www.w3.org/2000/svg" xmlns:xlink="http://www.w3.org/1999/xlink" width="1080" zoomAndPan="magnify" viewBox="0 0 810 809.999993" height="1080" preserveAspectRatio="xMidYMid meet" version="1.0"><defs><clipPath id="d08a02821b"><path d="M 1.167969 36.957031 L 808.261719 36.957031 L 808.261719 772.707031 L 1.167969 772.707031 Z M 1.167969 36.957031 " clip-rule="nonzero"/></clipPath></defs><g clip-path="url(#d08a02821b)"><path fill="#475dd7" d="M 311.640625 687.378906 L 737.417969 261.601562 C 779.722656 218.9375 779.507812 150.105469 736.84375 107.726562 C 694.394531 65.636719 625.988281 65.636719 583.542969 107.726562 L 220.078125 471.261719 C 200.214844 491.125 200.214844 523.390625 220.078125 543.253906 C 239.9375 563.117188 272.207031 563.117188 292.066406 543.253906 L 569.414062 265.90625 L 596.878906 293.367188 L 318.382812 571.863281 C 283.105469 606.710938 226.242188 606.351562 191.394531 571.003906 C 156.976562 536.082031 156.976562 479.867188 191.46875 444.949219 L 556.222656 80.191406 C 613.871094 22.542969 707.375 22.542969 765.023438 80.191406 C 822.671875 137.84375 822.671875 231.273438 765.023438 288.992188 L 337.597656 716.34375 C 260.160156 793.140625 135.179688 792.566406 58.386719 715.199219 C -17.90625 638.1875 -17.90625 514.070312 58.386719 437.132812 L 399.550781 95.96875 L 427.011719 123.429688 L 87.355469 463.089844 C 25.761719 525.398438 26.261719 625.785156 88.5 687.378906 C 150.308594 748.539062 249.832031 748.539062 311.640625 687.378906 " fill-opacity="1" fill-rule="nonzero"/></g></svg>