<svg xmlns="http://www.w3.org/2000/svg" xmlns:xlink="http://www.w3.org/1999/xlink" width="1080" zoomAndPan="magnify" viewBox="0 0 810 809.999993" height="1080" preserveAspectRatio="xMidYMid meet" version="1.0"><path fill="#475dd7" d="M 405 0 C 181.214844 0 0 182.433594 0 405 C 0 628.785156 182.433594 810 405 810 C 628.785156 810 810 627.566406 810 405 C 810 181.214844 628.785156 0 405 0 Z M 405 773.511719 C 201.890625 773.511719 36.488281 608.109375 36.488281 405 C 36.488281 201.890625 201.890625 36.488281 405 36.488281 C 608.109375 36.488281 773.511719 201.890625 773.511719 405 C 773.511719 608.109375 608.109375 773.511719 405 773.511719 Z M 405 773.511719 " fill-opacity="1" fill-rule="nonzero"/><path fill="#475dd7" d="M 355.136719 207.972656 L 300.40625 207.972656 C 287.027344 207.972656 276.082031 218.917969 276.082031 232.296875 L 276.082031 576.488281 C 276.082031 589.863281 287.027344 600.8125 300.40625 600.8125 L 355.136719 600.8125 C 368.511719 600.8125 379.460938 589.863281 379.460938 576.488281 L 379.460938 232.296875 C 379.460938 218.917969 368.511719 207.972656 355.136719 207.972656 Z M 355.136719 207.972656 " fill-opacity="1" fill-rule="nonzero"/><path fill="#475dd7" d="M 509.59375 207.972656 L 454.863281 207.972656 C 441.488281 207.972656 430.539062 218.917969 430.539062 232.296875 L 430.539062 576.488281 C 430.539062 589.863281 441.488281 600.8125 454.863281 600.8125 L 509.59375 600.8125 C 522.972656 600.8125 533.917969 589.863281 533.917969 576.488281 L 533.917969 232.296875 C 533.917969 218.917969 522.972656 207.972656 509.59375 207.972656 Z M 509.59375 207.972656 " fill-opacity="1" fill-rule="nonzero"/></svg>