<svg xmlns="http://www.w3.org/2000/svg" xmlns:xlink="http://www.w3.org/1999/xlink" width="1080" zoomAndPan="magnify" viewBox="0 0 810 809.999993" height="1080" preserveAspectRatio="xMidYMid meet" version="1.0"><path fill="#475dd7" d="M 622.753906 405 L 471.804688 492.152344 L 320.851562 579.300781 L 320.851562 230.699219 L 471.804688 317.847656 Z M 622.753906 405 " fill-opacity="1" fill-rule="evenodd"/><path fill="#475dd7" d="M 764.367188 405 C 764.367188 603.472656 603.472656 764.367188 405 764.367188 C 206.527344 764.367188 45.632812 603.472656 45.632812 405 C 45.632812 206.527344 206.527344 45.632812 405 45.632812 C 603.472656 45.632812 764.367188 206.527344 764.367188 405 Z M 810 405 C 810 181.328125 628.671875 0 405 0 C 181.328125 0 0 181.328125 0 405 C 0 628.671875 181.328125 810 405 810 C 628.671875 810 810 628.671875 810 405 Z M 810 405 " fill-opacity="1" fill-rule="evenodd"/></svg>