<svg xmlns="http://www.w3.org/2000/svg" xmlns:xlink="http://www.w3.org/1999/xlink" width="1080" zoomAndPan="magnify" viewBox="0 0 810 809.999993" height="1080" preserveAspectRatio="xMidYMid meet" version="1.0"><defs><clipPath id="82aa049648"><path d="M 0 81 L 805 81 L 805 751.5 L 0 751.5 Z M 0 81 " clip-rule="nonzero"/></clipPath></defs><path fill="#ffffff" d="M 400.460938 196.148438 L 681.925781 668.296875 L 124.296875 670.105469 Z M 400.460938 196.148438 " fill-opacity="1" fill-rule="nonzero"/><g clip-path="url(#82aa049648)"><path fill="#d25c7f" d="M 402.140625 81.898438 C 388.382812 81.007812 374.316406 87.503906 365.503906 99.175781 L 2.773438 708.589844 C 0.324219 717.800781 0.230469 723.664062 2.414062 732.335938 C 4.5 740.625 12.660156 749.175781 20.460938 751.238281 L 775.882812 751.464844 C 780.605469 750.609375 787.117188 748.386719 790.308594 746.535156 C 801.945312 739.789062 809.816406 721.828125 801.570312 708.179688 L 434.355469 100.300781 C 428.988281 91.421875 418.175781 85.023438 408.03125 82.753906 C 406.09375 82.320312 404.117188 82.019531 402.148438 81.894531 Z M 400.46875 196.148438 L 681.929688 668.296875 L 124.300781 670.105469 Z M 400.46875 196.148438 " fill-opacity="1" fill-rule="nonzero"/></g><path fill="#475dd7" d="M 390.433594 637.558594 C 377.695312 631.457031 367.996094 616.785156 367.996094 603.625 C 367.996094 579.113281 393.601562 560.648438 417.824219 567.691406 C 434.164062 572.441406 445.269531 587.195312 445.132812 603.96875 C 445.019531 618.21875 438.851562 628.714844 426.269531 636.089844 C 416.636719 641.734375 400.519531 642.394531 390.433594 637.5625 Z M 393.328125 540.777344 C 391.734375 539.902344 387.984375 536.855469 384.996094 534.003906 C 374.546875 524.050781 374.558594 524.136719 367.75 417.617188 C 361.695312 322.929688 361.644531 321.457031 364.242188 314.65625 C 370.085938 299.355469 383.109375 292.652344 404.789062 293.792969 C 418.574219 294.515625 429.1875 299.355469 436.085938 308.066406 C 441.980469 315.507812 443.261719 319.714844 443.253906 331.601562 C 443.25 344.519531 435 502.921875 433.828125 512.632812 C 432.292969 525.347656 424.875 535.664062 413.996094 540.207031 C 407.78125 542.804688 397.527344 543.085938 393.328125 540.777344 Z M 393.328125 540.777344 " fill-opacity="1" fill-rule="nonzero"/></svg>