<svg xmlns="http://www.w3.org/2000/svg" xmlns:xlink="http://www.w3.org/1999/xlink" width="1080" zoomAndPan="magnify" viewBox="0 0 810 809.999993" height="1080" preserveAspectRatio="xMidYMid meet" version="1.0"><defs><clipPath id="cfd9c629e9"><path d="M 0 186.300781 L 810 186.300781 L 810 623.550781 L 0 623.550781 Z M 0 186.300781 " clip-rule="nonzero"/></clipPath></defs><g clip-path="url(#cfd9c629e9)"><path fill="#475dd7" d="M 409.914062 623.601562 C 274.085938 623.601562 140.441406 555.839844 12.703125 422.203125 L 0 408.910156 L 11.449219 394.535156 C 18.21875 386.035156 179.875 186.390625 411.007812 186.390625 C 547.1875 186.390625 677.582031 256.15625 798.585938 393.746094 L 810 406.726562 L 799.492188 420.445312 C 793.144531 428.75 641.289062 623.601562 409.914062 623.601562 Z M 56.527344 406.835938 C 171.835938 522.753906 290.648438 581.496094 409.914062 581.496094 C 587.242188 581.496094 717.230469 450.75 754.898438 408.109375 C 645.773438 288.914062 530.144531 228.496094 411.007812 228.496094 C 233.847656 228.496094 96.859375 362.621094 56.527344 406.835938 Z M 56.527344 406.835938 " fill-opacity="1" fill-rule="nonzero"/></g><path fill="#475dd7" d="M 405.347656 270.5625 C 331.101562 270.5625 270.917969 330.75 270.917969 404.992188 C 270.917969 479.238281 331.101562 539.425781 405.347656 539.425781 C 479.59375 539.425781 539.777344 479.238281 539.777344 404.992188 C 539.777344 330.753906 479.59375 270.5625 405.347656 270.5625 Z M 405.347656 461.417969 C 374.1875 461.417969 348.925781 436.160156 348.925781 404.996094 C 348.925781 373.835938 374.1875 348.578125 405.347656 348.578125 C 436.507812 348.578125 461.761719 373.835938 461.761719 404.996094 C 461.761719 436.160156 436.507812 461.417969 405.347656 461.417969 Z M 405.347656 461.417969 " fill-opacity="1" fill-rule="nonzero"/></svg>