<svg xmlns="http://www.w3.org/2000/svg" xmlns:xlink="http://www.w3.org/1999/xlink" width="1080" zoomAndPan="magnify" viewBox="0 0 810 809.999993" height="1080" preserveAspectRatio="xMidYMid meet" version="1.0"><defs><clipPath id="799d40aac8"><path d="M 61.117188 0 L 748.867188 0 L 748.867188 810 L 61.117188 810 Z M 61.117188 0 " clip-rule="nonzero"/></clipPath></defs><g clip-path="url(#799d40aac8)"><path fill="#ff751f" d="M 746.710938 516.9375 C 746.726562 517.089844 746.761719 517.246094 746.761719 517.414062 C 746.761719 503.929688 741.652344 491.65625 733.34375 482.339844 L 729.054688 478.046875 C 719.71875 469.722656 707.464844 464.628906 693.976562 464.628906 C 680.097656 464.628906 667.515625 470.015625 658.078125 478.785156 L 655.34375 481.519531 C 651.054688 486.152344 647.566406 491.535156 645.140625 497.46875 C 642.609375 503.605469 641.191406 510.339844 641.191406 517.414062 C 641.191406 517.773438 641.242188 518.152344 641.242188 518.507812 C 616.59375 625.210938 520.867188 705.019531 406.800781 705.019531 C 274.085938 705.019531 166.121094 597.054688 166.121094 464.339844 C 166.121094 354.800781 239.878906 262.359375 369.722656 233.332031 L 369.722656 243.949219 L 373.46875 243.949219 L 373.46875 374.324219 L 634.234375 191.4375 L 373.46875 -0.0820312 L 373.46875 125.710938 C 180.34375 157.695312 61.097656 297.28125 61.097656 464.339844 C 61.097656 654.953125 216.171875 810.042969 406.800781 810.042969 C 579.5 810.042969 722.917969 682.695312 748.367188 516.988281 C 747.820312 516.972656 747.257812 516.953125 746.710938 516.9375 " fill-opacity="1" fill-rule="nonzero"/></g></svg>