<svg xmlns="http://www.w3.org/2000/svg" xmlns:xlink="http://www.w3.org/1999/xlink" width="1080" zoomAndPan="magnify" viewBox="0 0 810 809.999993" height="1080" preserveAspectRatio="xMidYMid meet" version="1.0"><path fill="#475dd7" d="M 45 0 L 675 0 L 796.816406 121.816406 C 798.90625 123.902344 800.769531 126.175781 802.410156 128.632812 C 804.054688 131.089844 805.441406 133.683594 806.570312 136.410156 C 807.703125 139.140625 808.554688 141.953125 809.132812 144.851562 C 809.710938 147.75 810 150.675781 810 153.628906 L 810 765 C 810 766.472656 809.929688 767.945312 809.785156 769.410156 C 809.640625 770.878906 809.421875 772.332031 809.136719 773.777344 C 808.847656 775.222656 808.488281 776.652344 808.0625 778.0625 C 807.632812 779.472656 807.136719 780.859375 806.574219 782.222656 C 806.011719 783.582031 805.382812 784.914062 804.6875 786.210938 C 803.992188 787.511719 803.234375 788.773438 802.414062 790 C 801.597656 791.226562 800.71875 792.410156 799.785156 793.546875 C 798.851562 794.6875 797.863281 795.777344 796.820312 796.820312 C 795.777344 797.863281 794.6875 798.851562 793.546875 799.785156 C 792.410156 800.71875 791.226562 801.597656 790 802.414062 C 788.773438 803.234375 787.511719 803.992188 786.210938 804.6875 C 784.914062 805.382812 783.582031 806.011719 782.21875 806.574219 C 780.859375 807.136719 779.472656 807.632812 778.0625 808.0625 C 776.652344 808.488281 775.222656 808.847656 773.777344 809.136719 C 772.332031 809.421875 770.878906 809.640625 769.410156 809.785156 C 767.945312 809.925781 766.472656 810 765 810 L 45 810 C 43.527344 810 42.054688 809.925781 40.589844 809.785156 C 39.121094 809.640625 37.667969 809.421875 36.222656 809.136719 C 34.777344 808.847656 33.347656 808.488281 31.9375 808.0625 C 30.527344 807.632812 29.140625 807.136719 27.777344 806.574219 C 26.417969 806.011719 25.085938 805.382812 23.789062 804.6875 C 22.488281 803.992188 21.226562 803.234375 20 802.414062 C 18.773438 801.597656 17.589844 800.71875 16.453125 799.785156 C 15.3125 798.851562 14.222656 797.863281 13.179688 796.820312 C 12.136719 795.777344 11.148438 794.6875 10.214844 793.546875 C 9.28125 792.410156 8.402344 791.226562 7.582031 790 C 6.765625 788.773438 6.007812 787.511719 5.3125 786.210938 C 4.617188 784.914062 3.988281 783.582031 3.425781 782.222656 C 2.863281 780.859375 2.367188 779.472656 1.9375 778.0625 C 1.511719 776.652344 1.152344 775.222656 0.863281 773.777344 C 0.578125 772.332031 0.359375 770.878906 0.214844 769.410156 C 0.0703125 767.945312 0 766.472656 0 765 L 0 45 C 0 43.527344 0.0703125 42.054688 0.214844 40.589844 C 0.359375 39.121094 0.578125 37.667969 0.863281 36.222656 C 1.152344 34.777344 1.511719 33.347656 1.9375 31.9375 C 2.367188 30.527344 2.863281 29.140625 3.425781 27.777344 C 3.988281 26.417969 4.617188 25.085938 5.3125 23.789062 C 6.007812 22.488281 6.765625 21.226562 7.582031 20 C 8.402344 18.773438 9.28125 17.589844 10.214844 16.453125 C 11.148438 15.3125 12.136719 14.222656 13.179688 13.179688 C 14.222656 12.136719 15.3125 11.148438 16.453125 10.214844 C 17.589844 9.28125 18.773438 8.402344 20 7.582031 C 21.226562 6.765625 22.488281 6.007812 23.789062 5.3125 C 25.085938 4.617188 26.417969 3.988281 27.777344 3.425781 C 29.140625 2.863281 30.527344 2.367188 31.9375 1.9375 C 33.347656 1.511719 34.777344 1.152344 36.222656 0.863281 C 37.667969 0.578125 39.121094 0.359375 40.589844 0.214844 C 42.054688 0.0703125 43.527344 0 45 0 Z M 180 45 L 180 270 L 585 270 L 585 45 Z M 135 405 L 135 720 L 675 720 L 675 405 Z M 450 90 L 540 90 L 540 225 L 450 225 Z M 450 90 " fill-opacity="1" fill-rule="nonzero"/></svg>