<svg xmlns="http://www.w3.org/2000/svg" xmlns:xlink="http://www.w3.org/1999/xlink" width="1080" zoomAndPan="magnify" viewBox="0 0 810 809.999993" height="1080" preserveAspectRatio="xMidYMid meet" version="1.0"><path fill="#475dd7" d="M 521.632812 247.59375 C 520.496094 248.722656 519.195312 249.726562 517.734375 250.554688 C 508.972656 255.539062 497.828125 252.46875 492.847656 243.707031 C 484.78125 229.503906 474.769531 216.382812 463.09375 204.714844 C 455.964844 197.585938 455.964844 186.03125 463.09375 178.902344 C 470.222656 171.773438 481.777344 171.773438 488.902344 178.902344 C 502.890625 192.886719 514.898438 208.617188 524.582031 225.667969 C 528.730469 232.972656 527.296875 241.929688 521.632812 247.59375 " fill-opacity="1" fill-rule="nonzero"/><path fill="#475dd7" d="M 430.371094 163.984375 C 425.132812 169.222656 417 170.9375 409.871094 167.679688 C 367.289062 148.226562 317.484375 145.980469 273.222656 161.519531 C 263.714844 164.855469 253.296875 159.855469 249.957031 150.34375 C 246.621094 140.832031 251.625 130.414062 261.132812 127.078125 C 314.992188 108.164062 373.199219 110.792969 425.042969 134.476562 C 434.207031 138.667969 438.246094 149.496094 434.058594 158.664062 C 433.125 160.703125 431.863281 162.492188 430.371094 163.984375 " fill-opacity="1" fill-rule="nonzero"/><path fill="#475dd7" d="M 333.90625 577.246094 C 268.902344 577.246094 207.789062 551.9375 161.832031 505.972656 C 115.867188 460.007812 90.558594 398.902344 90.558594 333.90625 C 90.558594 268.902344 115.867188 207.789062 161.832031 161.832031 C 207.789062 115.867188 268.902344 90.558594 333.90625 90.558594 C 398.902344 90.558594 460.015625 115.867188 505.972656 161.832031 C 551.9375 207.789062 577.246094 268.902344 577.246094 333.90625 C 577.246094 398.902344 551.9375 460.007812 505.972656 505.972656 C 460.015625 551.9375 398.902344 577.246094 333.90625 577.246094 Z M 784.835938 705.183594 L 575.808594 518.351562 C 666.96875 399.097656 658.039062 227.859375 548.992188 118.8125 C 430.199219 0.0195312 237.605469 0.0195312 118.8125 118.8125 C 0.0195312 237.605469 0.0195312 430.199219 118.8125 548.992188 C 227.859375 658.039062 399.097656 666.96875 518.351562 575.808594 L 705.183594 784.835938 C 726.773438 808.988281 764.226562 810.039062 787.136719 787.128906 C 810.039062 764.226562 808.992188 726.773438 784.835938 705.183594 " fill-opacity="1" fill-rule="nonzero"/></svg>