<svg xmlns="http://www.w3.org/2000/svg" xmlns:xlink="http://www.w3.org/1999/xlink" width="1080" zoomAndPan="magnify" viewBox="0 0 810 809.999993" height="1080" preserveAspectRatio="xMidYMid meet" version="1.0"><path fill="#475dd7" d="M 412.390625 635.988281 L 402.113281 345.1875 L 689.683594 163.210938 Z M 121.066406 96.46875 L 672.652344 102.300781 L 371.628906 292.820312 Z M 804.167969 58.597656 C 798.683594 49.300781 788.636719 43.472656 777.785156 43.355469 L 766.351562 43.238281 L 766.238281 43.066406 L 765.949219 43.238281 L 32.90625 35.503906 C 19.859375 35.386719 8.3125 43.355469 4.042969 55.421875 C -0.230469 67.429688 3.753906 80.941406 13.972656 88.90625 L 341.089844 345.1875 L 355.058594 742.796875 C 355.523438 756.191406 364.992188 767.738281 378.269531 771.085938 C 378.269531 771.085938 378.328125 771.085938 378.328125 771.144531 C 391.546875 774.433594 405.289062 768.777344 412.101562 757.230469 L 804.226562 88.5625 C 809.652344 79.324219 809.652344 67.890625 804.167969 58.597656 " fill-opacity="1" fill-rule="nonzero"/></svg>