<svg xmlns="http://www.w3.org/2000/svg" xmlns:xlink="http://www.w3.org/1999/xlink" width="1080" zoomAndPan="magnify" viewBox="0 0 810 809.999993" height="1080" preserveAspectRatio="xMidYMid meet" version="1.0"><defs><clipPath id="edaf3249ac"><path d="M 0 54.277344 L 810 54.277344 L 810 729.277344 L 0 729.277344 Z M 0 54.277344 " clip-rule="nonzero"/></clipPath></defs><g clip-path="url(#edaf3249ac)"><path fill="#475dd7" d="M 538.15625 54.320312 C 533.171875 54.292969 527.328125 56.851562 522.542969 61.640625 L 361.574219 222.609375 L 256.097656 117.136719 C 250.878906 111.914062 242.472656 111.914062 237.253906 117.136719 C 232.035156 122.355469 232.035156 130.761719 237.253906 135.980469 L 336.203125 234.929688 L 56.46875 234.929688 C 25.234375 234.929688 0.0859375 260.078125 0.0859375 291.3125 L 0.0859375 672.644531 C 0.0859375 703.878906 25.234375 729.027344 56.46875 729.027344 L 753.519531 729.027344 C 784.753906 729.027344 809.902344 703.878906 809.902344 672.644531 L 809.902344 291.3125 C 809.902344 260.078125 784.753906 234.929688 753.519531 234.929688 L 386.929688 234.929688 L 541.375 80.484375 C 549.03125 72.828125 550.992188 62.460938 545.769531 57.238281 C 543.8125 55.28125 541.132812 54.335938 538.140625 54.320312 Z M 119.527344 291.019531 L 559.277344 291.019531 C 594.78125 291.019531 623.359375 319.597656 623.359375 355.101562 L 623.359375 608.855469 C 623.359375 644.355469 594.78125 672.9375 559.277344 672.9375 L 119.527344 672.9375 C 84.023438 672.9375 55.445312 644.359375 55.445312 608.855469 L 55.445312 355.101562 C 55.445312 319.597656 84.023438 291.019531 119.527344 291.019531 Z M 709.464844 399.160156 C 710.675781 399.160156 711.882812 399.21875 713.082031 399.335938 C 714.285156 399.457031 715.480469 399.632812 716.667969 399.867188 C 717.851562 400.105469 719.023438 400.398438 720.179688 400.75 C 721.335938 401.101562 722.472656 401.507812 723.589844 401.96875 C 724.707031 402.429688 725.796875 402.949219 726.863281 403.515625 C 727.929688 404.085938 728.964844 404.707031 729.96875 405.378906 C 730.972656 406.050781 731.945312 406.769531 732.878906 407.535156 C 733.8125 408.304688 734.707031 409.113281 735.5625 409.96875 C 736.417969 410.824219 737.226562 411.71875 737.992188 412.652344 C 738.761719 413.585938 739.480469 414.554688 740.152344 415.5625 C 740.820312 416.566406 741.441406 417.601562 742.011719 418.667969 C 742.582031 419.734375 743.097656 420.824219 743.5625 421.941406 C 744.023438 423.058594 744.429688 424.195312 744.78125 425.351562 C 745.132812 426.507812 745.425781 427.679688 745.660156 428.863281 C 745.898438 430.050781 746.074219 431.242188 746.191406 432.445312 C 746.3125 433.648438 746.371094 434.855469 746.371094 436.0625 C 746.371094 437.273438 746.3125 438.476562 746.191406 439.679688 C 746.074219 440.882812 745.898438 442.078125 745.660156 443.261719 C 745.425781 444.449219 745.132812 445.617188 744.78125 446.777344 C 744.429688 447.933594 744.023438 449.070312 743.5625 450.183594 C 743.097656 451.300781 742.582031 452.394531 742.011719 453.460938 C 741.441406 454.523438 740.820312 455.558594 740.148438 456.566406 C 739.480469 457.570312 738.761719 458.539062 737.992188 459.472656 C 737.226562 460.410156 736.414062 461.304688 735.5625 462.15625 C 734.707031 463.011719 733.8125 463.824219 732.878906 464.589844 C 731.945312 465.355469 730.972656 466.074219 729.96875 466.746094 C 728.964844 467.417969 727.929688 468.039062 726.863281 468.609375 C 725.796875 469.179688 724.707031 469.695312 723.589844 470.15625 C 722.472656 470.621094 721.335938 471.027344 720.179688 471.378906 C 719.023438 471.726562 717.851562 472.019531 716.667969 472.257812 C 715.480469 472.492188 714.285156 472.671875 713.082031 472.789062 C 711.882812 472.90625 710.675781 472.964844 709.464844 472.964844 C 708.257812 472.964844 707.050781 472.90625 705.847656 472.789062 C 704.648438 472.671875 703.453125 472.492188 702.265625 472.257812 C 701.082031 472.019531 699.910156 471.726562 698.753906 471.378906 C 697.597656 471.027344 696.460938 470.621094 695.34375 470.15625 C 694.226562 469.695312 693.136719 469.179688 692.070312 468.609375 C 691.003906 468.039062 689.96875 467.417969 688.964844 466.746094 C 687.957031 466.074219 686.988281 465.355469 686.054688 464.589844 C 685.121094 463.824219 684.226562 463.011719 683.371094 462.15625 C 682.515625 461.304688 681.707031 460.410156 680.9375 459.472656 C 680.171875 458.539062 679.453125 457.570312 678.78125 456.566406 C 678.109375 455.558594 677.488281 454.523438 676.921875 453.460938 C 676.351562 452.394531 675.835938 451.300781 675.371094 450.183594 C 674.910156 449.070312 674.503906 447.933594 674.152344 446.777344 C 673.800781 445.617188 673.507812 444.449219 673.273438 443.261719 C 673.035156 442.078125 672.859375 440.882812 672.738281 439.679688 C 672.621094 438.476562 672.5625 437.273438 672.5625 436.0625 C 672.5625 434.855469 672.621094 433.648438 672.738281 432.445312 C 672.859375 431.242188 673.035156 430.050781 673.273438 428.863281 C 673.507812 427.679688 673.800781 426.507812 674.152344 425.351562 C 674.503906 424.195312 674.910156 423.058594 675.371094 421.941406 C 675.835938 420.824219 676.351562 419.734375 676.921875 418.667969 C 677.488281 417.601562 678.109375 416.566406 678.78125 415.5625 C 679.453125 414.554688 680.171875 413.585938 680.9375 412.652344 C 681.707031 411.71875 682.515625 410.824219 683.371094 409.96875 C 684.226562 409.113281 685.121094 408.304688 686.054688 407.535156 C 686.988281 406.769531 687.957031 406.050781 688.964844 405.378906 C 689.96875 404.707031 691.003906 404.085938 692.070312 403.515625 C 693.136719 402.949219 694.226562 402.429688 695.34375 401.96875 C 696.460938 401.507812 697.597656 401.097656 698.753906 400.75 C 699.910156 400.398438 701.082031 400.105469 702.265625 399.867188 C 703.453125 399.632812 704.648438 399.457031 705.847656 399.335938 C 707.050781 399.21875 708.257812 399.160156 709.464844 399.160156 Z M 709.464844 490.992188 C 710.675781 490.992188 711.882812 491.050781 713.082031 491.171875 C 714.285156 491.289062 715.480469 491.464844 716.667969 491.703125 C 717.851562 491.9375 719.023438 492.230469 720.179688 492.582031 C 721.335938 492.933594 722.472656 493.339844 723.589844 493.800781 C 724.707031 494.265625 725.796875 494.78125 726.863281 495.351562 C 727.929688 495.917969 728.964844 496.539062 729.96875 497.210938 C 730.972656 497.882812 731.945312 498.601562 732.878906 499.367188 C 733.8125 500.136719 734.707031 500.945312 735.5625 501.800781 C 736.417969 502.65625 737.226562 503.550781 737.992188 504.484375 C 738.761719 505.417969 739.480469 506.386719 740.152344 507.394531 C 740.820312 508.398438 741.441406 509.433594 742.011719 510.5 C 742.582031 511.566406 743.097656 512.65625 743.5625 513.773438 C 744.023438 514.890625 744.429688 516.027344 744.78125 517.183594 C 745.132812 518.339844 745.425781 519.511719 745.660156 520.695312 C 745.898438 521.882812 746.074219 523.074219 746.191406 524.277344 C 746.3125 525.480469 746.371094 526.6875 746.371094 527.894531 C 746.371094 529.105469 746.3125 530.308594 746.191406 531.511719 C 746.074219 532.714844 745.898438 533.910156 745.660156 535.09375 C 745.425781 536.28125 745.132812 537.453125 744.78125 538.609375 C 744.429688 539.765625 744.023438 540.902344 743.5625 542.019531 C 743.097656 543.132812 742.582031 544.226562 742.011719 545.292969 C 741.441406 546.359375 740.820312 547.394531 740.148438 548.398438 C 739.480469 549.402344 738.757812 550.371094 737.992188 551.308594 C 737.226562 552.242188 736.414062 553.136719 735.5625 553.988281 C 734.707031 554.84375 733.8125 555.65625 732.878906 556.421875 C 731.945312 557.1875 730.972656 557.90625 729.96875 558.578125 C 728.964844 559.25 727.929688 559.871094 726.863281 560.441406 C 725.796875 561.011719 724.707031 561.527344 723.589844 561.988281 C 722.472656 562.453125 721.335938 562.859375 720.179688 563.210938 C 719.023438 563.5625 717.851562 563.855469 716.667969 564.089844 C 715.480469 564.324219 714.285156 564.503906 713.082031 564.621094 C 711.882812 564.738281 710.675781 564.796875 709.464844 564.796875 C 708.257812 564.796875 707.050781 564.738281 705.847656 564.621094 C 704.648438 564.503906 703.453125 564.324219 702.265625 564.089844 C 701.082031 563.855469 699.910156 563.5625 698.753906 563.210938 C 697.597656 562.859375 696.460938 562.453125 695.34375 561.988281 C 694.226562 561.527344 693.136719 561.011719 692.070312 560.441406 C 691.003906 559.871094 689.96875 559.25 688.964844 558.578125 C 687.957031 557.90625 686.988281 557.1875 686.054688 556.421875 C 685.121094 555.65625 684.226562 554.84375 683.371094 553.988281 C 682.515625 553.136719 681.707031 552.242188 680.9375 551.308594 C 680.171875 550.371094 679.453125 549.402344 678.78125 548.398438 C 678.109375 547.394531 677.488281 546.359375 676.921875 545.292969 C 676.351562 544.226562 675.835938 543.132812 675.371094 542.019531 C 674.910156 540.902344 674.503906 539.765625 674.152344 538.609375 C 673.800781 537.453125 673.507812 536.28125 673.273438 535.09375 C 673.035156 533.910156 672.859375 532.714844 672.738281 531.511719 C 672.621094 530.308594 672.5625 529.105469 672.5625 527.894531 C 672.5625 526.6875 672.621094 525.480469 672.738281 524.277344 C 672.859375 523.074219 673.035156 521.882812 673.273438 520.695312 C 673.507812 519.511719 673.800781 518.339844 674.152344 517.183594 C 674.503906 516.027344 674.910156 514.890625 675.371094 513.773438 C 675.835938 512.65625 676.351562 511.566406 676.921875 510.5 C 677.488281 509.433594 678.109375 508.398438 678.78125 507.394531 C 679.453125 506.386719 680.171875 505.417969 680.9375 504.484375 C 681.707031 503.550781 682.515625 502.65625 683.371094 501.800781 C 684.226562 500.945312 685.121094 500.136719 686.054688 499.367188 C 686.988281 498.601562 687.957031 497.882812 688.964844 497.210938 C 689.96875 496.539062 691.003906 495.917969 692.070312 495.351562 C 693.136719 494.78125 694.226562 494.265625 695.34375 493.800781 C 696.460938 493.339844 697.597656 492.933594 698.753906 492.582031 C 699.910156 492.230469 701.082031 491.9375 702.265625 491.703125 C 703.453125 491.464844 704.648438 491.289062 705.847656 491.167969 C 707.050781 491.050781 708.257812 490.992188 709.464844 490.992188 Z M 709.464844 490.992188 " fill-opacity="1" fill-rule="nonzero"/></g></svg>