<svg xmlns="http://www.w3.org/2000/svg" xmlns:xlink="http://www.w3.org/1999/xlink" width="1080" zoomAndPan="magnify" viewBox="0 0 810 809.999993" height="1080" preserveAspectRatio="xMidYMid meet" version="1.0"><defs><clipPath id="011da38667"><path d="M 67 0 L 728.925781 0 L 728.925781 810 L 67 810 Z M 67 0 " clip-rule="nonzero"/></clipPath><clipPath id="2ed9c55f88"><path d="M 66.675781 0 L 728.925781 0 L 728.925781 810 L 66.675781 810 Z M 66.675781 0 " clip-rule="nonzero"/></clipPath></defs><g clip-path="url(#011da38667)"><path fill="#475dd7" d="M 398.058594 0.445312 L 400.949219 0.445312 L 413.40625 6.894531 C 421.707031 11.195312 427.195312 14.011719 429.863281 15.347656 C 432.53125 16.683594 441.613281 21.019531 457.109375 28.359375 C 472.601562 35.699219 480.609375 39.402344 481.128906 39.476562 C 481.648438 39.550781 485.761719 41.292969 493.472656 44.703125 C 501.179688 48.113281 507.113281 50.636719 511.261719 52.265625 C 515.414062 53.898438 521.421875 56.121094 529.277344 58.9375 C 537.136719 61.757812 542.105469 63.535156 544.179688 64.277344 C 546.253906 65.019531 548.851562 65.90625 551.964844 66.945312 C 555.078125 67.984375 559.082031 69.242188 563.972656 70.726562 C 568.867188 72.207031 575.09375 73.988281 582.65625 76.0625 C 590.21875 78.140625 597.554688 79.992188 604.671875 81.625 C 611.789062 83.253906 616.386719 84.292969 618.460938 84.738281 C 620.539062 85.183594 627.136719 86.441406 638.257812 88.519531 C 649.375 90.59375 656.34375 91.855469 659.164062 92.300781 C 661.980469 92.746094 668.875 93.855469 679.847656 95.636719 C 690.816406 97.414062 696.378906 98.304688 696.527344 98.304688 C 696.675781 98.304688 702.011719 99.34375 712.539062 101.417969 C 723.066406 103.492188 728.367188 104.570312 728.441406 104.644531 L 728.550781 104.753906 L 727.886719 137.890625 C 727.441406 159.984375 726.328125 188.527344 724.550781 223.519531 C 722.769531 258.507812 721.363281 282.972656 720.324219 296.910156 C 719.285156 310.847656 718.097656 322.785156 716.765625 332.71875 C 715.429688 342.652344 713.875 352.066406 712.09375 360.964844 C 710.316406 369.859375 708.386719 378.832031 706.3125 387.875 C 704.238281 396.917969 702.382812 404.851562 700.753906 411.671875 C 699.121094 418.492188 697.195312 425.832031 694.96875 433.691406 C 692.746094 441.546875 691.410156 446.292969 690.964844 447.925781 C 690.519531 449.554688 689.855469 451.628906 688.964844 454.152344 C 688.074219 456.671875 687.035156 459.785156 685.851562 463.492188 C 684.664062 467.199219 682.8125 472.535156 680.289062 479.503906 C 677.769531 486.472656 675.695312 492.035156 674.0625 496.1875 C 672.433594 500.335938 670.429688 505.304688 668.058594 511.085938 C 665.6875 516.871094 662.648438 523.839844 658.941406 531.992188 C 655.234375 540.148438 653.007812 544.890625 652.269531 546.226562 C 651.527344 547.5625 648.820312 552.417969 644.148438 560.792969 C 639.480469 569.171875 636.664062 574.136719 635.699219 575.695312 C 634.734375 577.253906 632.4375 581.179688 628.804688 587.484375 C 625.171875 593.785156 622.800781 597.789062 621.6875 599.492188 C 620.574219 601.199219 618.871094 603.867188 616.570312 607.5 C 614.273438 611.132812 612.421875 613.949219 611.011719 615.949219 C 609.601562 617.953125 607.972656 620.324219 606.117188 623.066406 C 604.265625 625.808594 602.488281 628.332031 600.78125 630.628906 C 599.074219 632.925781 597.742188 634.855469 596.777344 636.410156 C 595.8125 637.96875 594.40625 639.96875 592.550781 642.417969 C 590.699219 644.863281 588.917969 647.308594 587.214844 649.757812 C 585.507812 652.203125 583.65625 654.722656 581.65625 657.316406 C 579.652344 659.914062 577.949219 662.136719 576.539062 663.988281 C 575.128906 665.84375 572.128906 669.363281 567.53125 674.554688 C 562.933594 679.742188 557.523438 685.675781 551.296875 692.347656 C 545.070312 699.019531 539.582031 704.726562 534.839844 709.472656 C 530.09375 714.214844 526.941406 717.21875 525.386719 718.480469 C 523.828125 719.738281 520.195312 722.925781 514.488281 728.042969 C 508.78125 733.15625 505.296875 736.269531 504.035156 737.382812 C 502.773438 738.496094 499.660156 741.238281 494.695312 745.613281 C 489.726562 749.988281 486.464844 752.804688 484.910156 754.0625 C 483.351562 755.324219 481.574219 756.808594 479.570312 758.511719 C 477.570312 760.21875 474.789062 762.550781 471.230469 765.515625 C 467.671875 768.484375 464.964844 770.671875 463.113281 772.078125 C 461.257812 773.488281 459.480469 774.746094 457.773438 775.859375 C 456.070312 776.972656 452.957031 778.898438 448.433594 781.640625 C 443.910156 784.386719 440.945312 786.238281 439.539062 787.203125 C 438.128906 788.164062 436.535156 789.167969 434.757812 790.203125 C 432.976562 791.242188 431.125 792.429688 429.195312 793.761719 C 427.269531 795.097656 425.859375 796.0625 424.96875 796.652344 C 424.082031 797.246094 422.152344 798.285156 419.1875 799.769531 C 416.222656 801.25 412.664062 802.957031 408.511719 804.882812 C 404.359375 806.8125 401.46875 808.070312 399.839844 808.664062 L 397.390625 809.554688 L 394.722656 808.886719 C 392.945312 808.441406 391.015625 807.699219 388.941406 806.664062 C 386.867188 805.625 383.382812 803.84375 378.488281 801.324219 C 373.59375 798.804688 370.777344 797.246094 370.035156 796.652344 C 369.296875 796.0625 367.40625 794.765625 364.367188 792.761719 C 361.324219 790.761719 359.027344 789.277344 357.472656 788.3125 C 355.914062 787.351562 352.875 785.496094 348.351562 782.753906 C 343.828125 780.011719 340.714844 778.082031 339.011719 776.972656 C 337.304688 775.859375 335.527344 774.597656 333.671875 773.191406 C 331.820312 771.78125 329.707031 770.113281 327.335938 768.1875 C 324.960938 766.257812 321.8125 763.628906 317.882812 760.292969 C 313.953125 756.953125 310.542969 754.0625 307.652344 751.617188 C 304.761719 749.171875 300.535156 745.464844 294.976562 740.496094 C 289.414062 735.53125 285.855469 732.417969 284.300781 731.15625 C 282.742188 729.894531 279.332031 726.929688 274.070312 722.261719 C 268.804688 717.589844 265.878906 714.957031 265.285156 714.363281 C 264.691406 713.769531 262.058594 711.140625 257.390625 706.46875 C 252.71875 701.796875 249.457031 698.460938 247.601562 696.460938 C 245.75 694.460938 241.671875 690.011719 235.371094 683.117188 C 229.070312 676.222656 225.289062 671.996094 224.027344 670.441406 C 222.769531 668.882812 220.914062 666.585938 218.46875 663.546875 C 216.023438 660.503906 214.09375 658.058594 212.6875 656.207031 C 211.277344 654.351562 209.867188 652.425781 208.460938 650.421875 C 207.050781 648.421875 205.570312 646.347656 204.011719 644.195312 C 202.453125 642.046875 201.046875 640.117188 199.785156 638.414062 C 198.527344 636.707031 197.449219 635.1875 196.5625 633.855469 C 195.671875 632.519531 194.449219 630.777344 192.890625 628.628906 C 191.335938 626.476562 190 624.550781 188.886719 622.84375 C 187.777344 621.140625 186.292969 618.914062 184.441406 616.171875 C 182.585938 613.429688 181.179688 611.28125 180.214844 609.722656 C 179.25 608.167969 177.695312 605.71875 175.542969 602.382812 C 173.394531 599.046875 171.984375 596.75 171.320312 595.488281 C 170.652344 594.230469 168.796875 591.042969 165.757812 585.925781 C 162.71875 580.8125 160.71875 577.476562 159.753906 575.917969 C 158.789062 574.359375 156.378906 570.097656 152.523438 563.128906 C 148.671875 556.160156 145.777344 550.898438 143.851562 547.339844 C 141.925781 543.78125 140.21875 540.445312 138.734375 537.332031 C 137.253906 534.21875 135.175781 529.546875 132.507812 523.320312 C 129.839844 517.09375 128.503906 513.902344 128.503906 513.753906 C 128.503906 513.609375 127.171875 510.199219 124.503906 503.523438 C 121.832031 496.851562 119.757812 491.589844 118.273438 487.734375 C 116.792969 483.878906 114.714844 478.023438 112.046875 470.164062 C 109.378906 462.304688 106.710938 453.929688 104.042969 445.03125 C 101.371094 436.136719 98.40625 425.3125 95.144531 412.5625 C 91.882812 399.8125 89.585938 390.320312 88.25 384.09375 C 86.914062 377.867188 85.0625 368.820312 82.691406 356.960938 C 80.316406 345.097656 78.910156 337.316406 78.464844 333.609375 C 78.019531 329.902344 77.054688 318.558594 75.574219 299.582031 C 74.089844 280.601562 73.125 266.292969 72.683594 256.65625 C 72.238281 247.019531 71.71875 236.789062 71.125 225.964844 C 70.53125 215.140625 69.714844 197.421875 68.679688 172.808594 C 67.640625 148.195312 67.121094 130.773438 67.121094 120.542969 L 67.121094 105.199219 L 68.566406 104.421875 C 69.53125 103.902344 72.164062 103.269531 76.464844 102.53125 C 80.761719 101.789062 86.695312 100.824219 94.253906 99.640625 C 101.816406 98.453125 113.308594 96.523438 128.726562 93.855469 C 144.148438 91.1875 155.195312 89.261719 161.867188 88.074219 C 168.539062 86.886719 177.359375 85.035156 188.332031 82.511719 C 199.304688 79.992188 208.792969 77.621094 216.800781 75.398438 C 224.804688 73.171875 231.699219 71.097656 237.484375 69.167969 C 243.265625 67.242188 247.789062 65.757812 251.050781 64.722656 C 254.3125 63.683594 257.425781 62.644531 260.390625 61.609375 C 263.355469 60.570312 269.289062 58.34375 278.183594 54.933594 C 287.078125 51.523438 295.421875 48.078125 303.203125 44.59375 C 310.988281 41.109375 315.140625 39.332031 315.660156 39.257812 C 316.179688 39.183594 319.921875 37.515625 326.890625 34.25 C 333.859375 30.988281 340.160156 28.023438 345.792969 25.355469 C 351.429688 22.6875 356.988281 20.019531 362.476562 17.347656 C 367.960938 14.679688 374.78125 11.195312 382.9375 6.894531 L 395.167969 0.445312 Z M 398.058594 0.445312 " fill-opacity="1" fill-rule="evenodd"/></g><g clip-path="url(#2ed9c55f88)"><path stroke-linecap="butt" transform="matrix(0.444809, 0, 0, 0.444809, 66.454695, -0.220802)" fill="none" stroke-linejoin="miter" d="M 745.497612 1.497531 L 751.99619 1.497531 L 780.001552 15.996387 C 798.663011 25.665218 811.001528 31.996942 816.999541 35.000339 C 822.997553 38.003736 843.415385 47.751604 878.253036 64.252725 C 913.081905 80.753845 931.084724 89.079052 932.252712 89.245907 C 933.4207 89.412762 942.668002 93.329473 960.0034 100.99604 C 977.330015 108.662606 990.669665 114.33569 999.996004 117.997727 C 1009.331125 121.668546 1022.83763 126.665426 1040.497957 132.997149 C 1058.167065 139.337654 1069.337595 143.333402 1074.000764 145.001956 C 1078.663934 146.67051 1084.503873 148.663993 1091.503018 150.999968 C 1098.502162 153.335944 1107.503572 156.163704 1118.498465 159.500812 C 1129.502139 162.829138 1143.500429 166.833668 1160.502116 171.496837 C 1177.503803 176.168788 1193.996142 180.331391 1209.996696 184.00221 C 1225.997251 187.664247 1236.333504 190.000222 1240.996673 191.001355 C 1245.668624 192.002487 1260.501191 194.830247 1285.503155 199.502198 C 1310.496338 204.165368 1326.163181 207.001909 1332.503686 208.003042 C 1338.83541 209.004174 1354.335398 211.498223 1379.003652 215.502753 C 1403.663123 219.498501 1416.168496 221.500765 1416.502207 221.500765 C 1416.835918 221.500765 1428.831943 223.836741 1452.499064 228.49991 C 1476.166185 233.16308 1488.083173 235.586874 1488.250029 235.753729 L 1488.495921 235.999621 L 1487.003004 310.496166 C 1486.001872 360.166384 1483.499041 424.335457 1479.503293 503.003387 C 1475.498763 581.662535 1472.337293 636.663343 1470.001317 667.997031 C 1467.665341 699.330718 1464.995655 726.168092 1462.00104 748.50037 C 1458.997643 770.832648 1455.502461 791.996938 1451.497931 812.002022 C 1447.502184 831.998324 1443.163943 852.170264 1438.500774 872.500277 C 1433.837605 892.83029 1429.66622 910.666254 1426.004183 925.999387 C 1422.333364 941.33252 1418.003906 957.83364 1412.998244 975.502749 C 1408.001364 993.163076 1404.997966 1003.833039 1403.996834 1007.503858 C 1402.995702 1011.165895 1401.502785 1015.829064 1399.50052 1021.502148 C 1397.498255 1027.16645 1395.16228 1034.165594 1392.501375 1042.499582 C 1389.831689 1050.833571 1385.669086 1062.829596 1379.996002 1078.496439 C 1374.3317 1094.163283 1369.668531 1106.668656 1365.997712 1116.003777 C 1362.335675 1125.330115 1357.83058 1136.500645 1352.499989 1149.497802 C 1347.169398 1162.503742 1340.337108 1178.170585 1332.00312 1196.498334 C 1323.669132 1214.834864 1318.66347 1225.496046 1317.003698 1228.499443 C 1315.335144 1231.50284 1309.249313 1242.418696 1298.746205 1261.24701 C 1288.251878 1280.084107 1281.920155 1291.245855 1279.751035 1294.749818 C 1277.581915 1298.253781 1272.418179 1307.079554 1264.251046 1321.253481 C 1256.083914 1335.418626 1250.753323 1344.420036 1248.250492 1348.248928 C 1245.747661 1352.086602 1241.918769 1358.084615 1236.746251 1366.251747 C 1231.582516 1374.41888 1227.419913 1380.750603 1224.24966 1385.246917 C 1221.079408 1389.752013 1217.417371 1395.082604 1213.245986 1401.247472 C 1209.083383 1407.41234 1205.087635 1413.085423 1201.249961 1418.249159 C 1197.412286 1423.412894 1194.417671 1427.751135 1192.248551 1431.246316 C 1190.079431 1434.75028 1186.91796 1439.246593 1182.746575 1444.752822 C 1178.583972 1450.250268 1174.579442 1455.747714 1170.75055 1461.253942 C 1166.912876 1466.751389 1162.750273 1472.41569 1158.253959 1478.246847 C 1153.748863 1484.086786 1149.919971 1489.083667 1146.749718 1493.24627 C 1143.579466 1497.417655 1136.834995 1505.330113 1126.498742 1517.001209 C 1116.162489 1528.663524 1103.999609 1542.003174 1090.001319 1557.002596 C 1076.003029 1572.002018 1063.664512 1584.83232 1053.00333 1595.502284 C 1042.333366 1606.163465 1035.246403 1612.916718 1031.751221 1615.75326 C 1028.247258 1618.58102 1020.080125 1625.74702 1007.249823 1637.251261 C 994.419521 1648.74672 986.586099 1655.745864 983.749557 1658.248695 C 980.913016 1660.751526 973.913871 1666.916394 962.752123 1676.752081 C 951.581593 1686.587768 944.248737 1692.919491 940.753556 1695.747251 C 937.249592 1698.583793 933.253845 1701.920901 928.748749 1705.749793 C 924.252435 1709.587467 917.999748 1714.830239 909.999471 1721.495673 C 901.999194 1728.169889 895.913363 1733.087733 891.75076 1736.249203 C 887.579375 1739.419456 883.583627 1742.247216 879.745953 1744.750047 C 875.91706 1747.252878 868.917915 1751.582336 858.748518 1757.747204 C 848.579121 1763.920854 841.913686 1768.083457 838.752216 1770.252577 C 835.581963 1772.412916 831.998963 1774.669854 828.003215 1776.997048 C 823.998686 1779.333024 819.836083 1782.00271 815.497842 1784.997325 C 811.168384 1788.000723 807.998131 1790.169843 805.995866 1791.495904 C 804.002383 1792.830747 799.664143 1795.166723 792.998709 1798.503831 C 786.333275 1801.832157 778.332998 1805.669831 768.997877 1809.99929 C 759.662757 1814.33753 753.164178 1817.16529 749.502141 1818.500133 L 743.995913 1820.502398 L 737.9979 1819.000699 C 734.002153 1817.999567 729.663912 1816.331013 725.000743 1814.003819 C 720.337574 1811.667844 712.504152 1807.663314 701.500477 1801.999012 C 690.496803 1796.334711 684.16508 1792.830747 682.496526 1791.495904 C 680.836754 1790.169843 676.586332 1787.254264 669.754042 1782.749168 C 662.912971 1778.252855 657.749235 1774.915747 654.254054 1772.746626 C 650.750091 1770.586288 643.917801 1766.414903 633.748404 1760.250035 C 623.579006 1754.085167 616.579861 1749.746927 612.750969 1747.252878 C 608.913295 1744.750047 604.917547 1741.913505 600.746162 1738.752034 C 596.583559 1735.581782 591.832571 1731.831926 586.50198 1727.502468 C 581.162607 1723.164227 574.084426 1717.254034 565.249871 1709.754322 C 556.415317 1702.245829 548.748751 1695.747251 542.250172 1690.249804 C 535.751593 1684.752358 526.249617 1676.41837 513.753026 1665.24784 C 501.247653 1654.086092 493.247376 1647.086947 489.752194 1644.250406 C 486.248231 1641.413864 478.581665 1634.74843 466.752495 1624.254103 C 454.914544 1613.750995 448.336928 1607.832019 447.002085 1606.497176 C 445.667242 1605.162333 439.748266 1599.252139 429.25394 1588.749031 C 418.750831 1578.245923 411.417976 1570.746211 407.246591 1566.249898 C 403.083988 1561.753584 393.915722 1551.751042 379.750577 1536.251053 C 365.585432 1520.751065 357.084589 1511.249089 354.248047 1507.753907 C 351.420287 1504.249944 347.248902 1499.086209 341.751456 1492.253919 C 336.254009 1485.412848 331.915769 1479.915401 328.754298 1475.752798 C 325.584046 1471.581413 322.413793 1467.251955 319.252322 1462.746859 C 316.08207 1458.250545 312.753744 1453.587376 309.24978 1448.748569 C 305.745817 1443.918545 302.584346 1439.580304 299.747804 1435.751412 C 296.920045 1431.913738 294.49625 1428.497593 292.502767 1425.502978 C 290.500503 1422.499581 287.751779 1418.58287 284.247816 1413.752845 C 280.752635 1408.914038 277.749237 1404.58458 275.246406 1400.746906 C 272.752357 1396.918013 269.415249 1391.912351 265.252646 1385.747483 C 261.081261 1379.582616 257.919791 1374.752591 255.75067 1371.248628 C 253.58155 1367.753446 250.086369 1362.247218 245.247562 1354.747507 C 240.417537 1347.247796 237.247285 1342.08406 235.754368 1339.247518 C 234.252669 1336.419758 230.081285 1329.253758 223.248995 1317.749518 C 216.416706 1306.254059 211.920392 1298.754348 209.751271 1295.250384 C 207.582151 1291.746421 202.163742 1282.165408 193.496043 1266.498565 C 184.837126 1250.831721 178.329765 1239.002551 174.000307 1231.002274 C 169.670848 1223.001997 165.833174 1215.502285 162.496066 1208.503141 C 159.16774 1201.503996 154.495789 1191.000887 148.497776 1177.002598 C 142.499764 1163.004308 139.496367 1155.829526 139.496367 1155.495815 C 139.496367 1155.170886 136.501751 1147.50432 130.503739 1132.496116 C 124.496945 1117.496693 119.833775 1105.667524 116.496667 1096.999825 C 113.168341 1088.332126 108.49639 1075.168113 102.498377 1057.499005 C 96.500365 1039.829896 90.502352 1021.001582 84.50434 1000.996498 C 78.497546 981.000195 71.832112 956.665653 64.499256 928.001651 C 57.1664 899.33765 52.002665 877.997723 48.999267 863.999433 C 45.99587 850.001143 41.833267 829.662348 36.502676 803.000612 C 31.163304 776.330094 28.001833 758.836623 27.0007 750.502635 C 25.999568 742.168646 23.830448 716.666116 20.502122 674.003825 C 17.165014 631.332752 14.995894 599.164788 14.003543 577.499932 C 13.002411 555.835075 11.834423 532.835376 10.49958 508.500833 C 9.164736 484.166291 7.329327 444.33176 5.002133 388.99724 C 2.666158 333.662721 1.49817 294.495611 1.49817 271.495912 L 1.49817 237.000754 L 4.747459 235.253163 C 6.91658 234.085175 12.835555 232.662513 22.504387 231.002741 C 32.164436 229.334187 45.504086 227.165067 62.496991 224.504163 C 79.498678 221.834476 105.334919 217.496236 139.996933 211.498223 C 174.667728 205.500211 199.502837 201.170752 214.502259 198.501066 C 229.501682 195.831379 249.331128 191.668776 273.999382 185.995693 C 298.667635 180.331391 319.998781 175.0008 338.0016 170.00392 C 355.995638 164.998258 371.495626 160.335089 384.501565 155.996848 C 397.498723 151.66739 407.66812 148.330282 415.000976 146.003088 C 422.333831 143.667113 429.332976 141.331137 435.99841 139.003943 C 442.663844 136.667968 456.003495 131.662306 475.999797 123.995739 C 495.996099 116.329173 514.754159 108.58357 532.24763 100.750148 C 549.749883 92.916726 559.085004 88.920978 560.252991 88.754123 C 561.420979 88.587267 569.834004 84.837412 585.500848 77.495774 C 601.167692 70.162919 615.332837 63.497484 627.996283 57.499472 C 640.668512 51.501459 653.165103 45.503447 665.503621 39.496653 C 677.833356 33.49864 693.166489 25.665218 711.503019 15.996387 L 738.999033 1.497531 Z M 745.497612 1.497531 " stroke="#000000" stroke-width="2" stroke-opacity="1" stroke-miterlimit="4"/></g></svg>