<svg xmlns="http://www.w3.org/2000/svg" xmlns:xlink="http://www.w3.org/1999/xlink" width="1080" zoomAndPan="magnify" viewBox="0 0 810 809.999993" height="1080" preserveAspectRatio="xMidYMid meet" version="1.0"><defs><clipPath id="21f5e36a06"><path d="M 38 26.324219 L 288 26.324219 L 288 351 L 38 351 Z M 38 26.324219 " clip-rule="nonzero"/></clipPath></defs><path fill="#d15b7e" d="M 175.9375 695.015625 L 131.097656 739.855469 C 72.53125 675.917969 39.371094 594.589844 35.363281 507.980469 L 98.277344 507.980469 C 107.824219 507.980469 115.75 500.308594 115.75 490.503906 C 115.75 480.957031 107.738281 473.28125 98.277344 473.28125 L 35.363281 473.28125 C 38.089844 416.167969 53.433594 362.800781 79.265625 315.488281 L 54.371094 288.207031 C 20.019531 347.796875 0.0703125 416.847656 0.0703125 490.503906 C 0.0703125 598.855469 42.097656 700.46875 118.90625 776.9375 C 125.640625 783.671875 136.382812 783.671875 143.203125 776.9375 L 200.316406 719.566406 C 207.054688 712.832031 207.054688 701.75 200.316406 695.015625 C 193.5 688.195312 182.757812 688.195312 175.9375 695.015625 Z M 175.9375 695.015625 " fill-opacity="1" fill-rule="nonzero"/><path fill="#d15b7e" d="M 405 85.574219 C 352.488281 85.574219 302.445312 95.71875 256.410156 113.789062 L 256.410156 151.894531 C 296.648438 134.078125 340.808594 123.335938 387.523438 121.207031 L 387.523438 184.121094 C 387.523438 193.667969 395.195312 201.339844 404.746094 201.339844 C 414.546875 201.339844 422.21875 193.667969 422.21875 184.121094 L 422.21875 121.207031 C 511.21875 125.214844 591.949219 160.847656 653.667969 217.28125 L 609.425781 261.78125 C 602.351562 268.515625 602.351562 279.257812 609.425781 285.992188 C 612.835938 289.402344 617.097656 291.191406 621.359375 291.191406 C 625.964844 291.191406 630.226562 289.316406 633.636719 285.992188 L 678.136719 241.492188 C 734.65625 303.46875 770.203125 384.285156 774.210938 473.28125 L 711.296875 473.28125 C 701.75 473.28125 693.820312 480.957031 693.820312 490.503906 C 693.820312 500.308594 701.835938 507.980469 711.296875 507.980469 L 774.550781 507.980469 C 770.546875 594.589844 737.128906 675.917969 678.476562 739.769531 L 633.636719 694.929688 C 626.902344 688.195312 616.160156 688.195312 609.339844 694.929688 C 602.605469 702.003906 602.605469 712.746094 609.339844 719.480469 L 666.457031 776.851562 C 669.867188 780.261719 674.46875 781.796875 678.734375 781.796875 C 682.996094 781.796875 687.597656 780.261719 691.007812 776.851562 C 767.476562 700.386719 809.84375 598.769531 809.84375 490.417969 C 809.929688 267.324219 628.179688 85.574219 405 85.574219 Z M 405 85.574219 " fill-opacity="1" fill-rule="nonzero"/><path fill="#d15b7e" d="M 405.253906 407.554688 C 394.683594 407.554688 383.945312 409.601562 373.714844 413.863281 C 341.574219 427.164062 193.582031 543.699219 164.257812 566.886719 L 135.019531 590.074219 C 125.640625 597.488281 131.863281 612.578125 143.796875 611.214844 L 180.882812 606.867188 C 218.050781 602.519531 405.085938 580.269531 437.222656 566.972656 C 479.421875 549.496094 499.539062 500.902344 482.066406 458.707031 C 468.765625 426.824219 437.820312 407.554688 405.253906 407.554688 Z M 417.703125 521.535156 C 400.566406 528.609375 380.960938 520.511719 373.882812 503.375 C 366.808594 486.242188 374.90625 466.632812 392.042969 459.558594 C 409.175781 452.480469 428.699219 460.582031 435.859375 477.714844 C 442.9375 494.851562 434.835938 514.457031 417.703125 521.535156 Z M 417.703125 521.535156 " fill-opacity="1" fill-rule="nonzero"/><g clip-path="url(#21f5e36a06)"><path fill="#d15b7e" d="M 154.113281 346.605469 C 158.800781 351.804688 166.902344 351.804688 171.589844 346.605469 L 284.457031 221.714844 C 291.277344 214.128906 285.90625 202.023438 275.679688 202.023438 L 221.714844 202.023438 L 221.714844 38.089844 C 221.714844 31.609375 216.429688 26.324219 209.953125 26.324219 L 115.75 26.324219 C 109.273438 26.324219 103.988281 31.609375 103.988281 38.089844 L 103.988281 202.023438 L 49.855469 202.023438 C 39.625 202.023438 34.253906 214.128906 41.074219 221.714844 Z M 154.113281 346.605469 " fill-opacity="1" fill-rule="nonzero"/></g></svg>