<svg xmlns="http://www.w3.org/2000/svg" xmlns:xlink="http://www.w3.org/1999/xlink" width="1080" zoomAndPan="magnify" viewBox="0 0 810 809.999993" height="1080" preserveAspectRatio="xMidYMid meet" version="1.0"><defs><clipPath id="0fb36c6a5b"><path d="M 0 15.1875 L 810 15.1875 L 810 795 L 0 795 Z M 0 15.1875 " clip-rule="nonzero"/></clipPath></defs><g clip-path="url(#0fb36c6a5b)"><path fill="#475dd7" d="M 409.824219 715.203125 C 396.296875 715.203125 385.269531 726.210938 385.269531 739.753906 C 385.269531 753.300781 396.277344 764.308594 409.824219 764.308594 C 423.367188 764.308594 434.375 753.300781 434.375 739.753906 C 434.375 726.210938 423.367188 715.203125 409.824219 715.203125 Z M 409.824219 744.140625 C 407.402344 744.140625 405.4375 742.175781 405.4375 739.753906 C 405.4375 737.335938 407.402344 735.371094 409.824219 735.371094 C 412.242188 735.371094 414.210938 737.335938 414.210938 739.753906 C 414.210938 742.175781 412.242188 744.140625 409.824219 744.140625 Z M 325.023438 726.363281 C 325.023438 731.925781 320.503906 736.445312 314.941406 736.445312 L 278.121094 736.445312 C 272.558594 736.445312 268.039062 731.925781 268.039062 726.363281 C 268.039062 720.800781 272.558594 716.277344 278.121094 716.277344 L 314.941406 716.277344 C 320.503906 716.277344 325.023438 720.800781 325.023438 726.363281 Z M 325.023438 753.148438 C 325.023438 758.710938 320.503906 763.230469 314.941406 763.230469 L 278.121094 763.230469 C 272.558594 763.230469 268.039062 758.710938 268.039062 753.148438 C 268.039062 747.585938 272.558594 743.066406 278.121094 743.066406 L 314.941406 743.066406 C 320.503906 743.066406 325.023438 747.585938 325.023438 753.148438 Z M 550.261719 759.738281 C 548.398438 762.964844 545.003906 764.777344 541.523438 764.777344 C 539.808594 764.777344 538.078125 764.339844 536.5 763.433594 L 510.621094 748.492188 C 507.492188 746.695312 505.578125 743.367188 505.578125 739.753906 C 505.578125 736.140625 507.492188 732.832031 510.621094 731.015625 L 536.5 716.078125 C 541.320312 713.304688 547.488281 714.949219 550.277344 719.773438 C 553.070312 724.597656 551.40625 730.765625 546.582031 733.554688 L 535.828125 739.753906 L 546.582031 745.972656 C 551.40625 748.761719 553.050781 754.929688 550.277344 759.753906 Z M 757.183594 152 L 604.710938 152 L 604.710938 147.160156 C 604.710938 127.433594 588.660156 111.382812 568.933594 111.382812 L 372.769531 111.382812 L 372.769531 67.960938 C 372.769531 38.835938 349.074219 15.140625 319.949219 15.140625 L 95.890625 15.140625 C 66.765625 15.140625 43.070312 38.835938 43.070312 67.960938 L 43.070312 210.9375 C 43.070312 240.058594 66.765625 263.753906 95.890625 263.753906 L 214.953125 263.753906 L 214.953125 383.945312 L 190.636719 407.890625 L 52.816406 407.890625 C 23.695312 407.890625 0 431.585938 0 460.707031 L 0 603.683594 C 0 632.808594 23.695312 656.519531 52.816406 656.519531 L 214.953125 656.519531 L 214.953125 758.945312 C 214.953125 778.675781 231 794.722656 250.730469 794.722656 L 568.914062 794.722656 C 588.644531 794.722656 604.695312 778.675781 604.695312 758.945312 L 604.695312 642.789062 C 622.609375 639.699219 636.269531 624.070312 636.269531 605.28125 L 636.269531 511.660156 C 636.269531 492.890625 622.609375 477.246094 604.695312 474.152344 L 604.695312 415.066406 L 619.347656 400.628906 L 757.164062 400.628906 C 786.289062 400.628906 809.984375 376.9375 809.984375 347.8125 L 809.984375 204.835938 C 809.984375 175.710938 786.289062 152.019531 757.164062 152.019531 Z M 472.136719 131.53125 L 466.003906 154.421875 C 465.785156 155.277344 465.160156 155.75 464.289062 155.75 L 372.769531 155.75 L 372.769531 131.53125 L 472.152344 131.53125 Z M 63.238281 210.917969 L 63.238281 67.960938 C 63.238281 49.945312 77.890625 35.308594 95.890625 35.308594 L 319.917969 35.308594 C 337.929688 35.308594 352.570312 49.960938 352.570312 67.960938 L 352.570312 210.9375 C 352.570312 228.949219 337.914062 243.589844 319.917969 243.589844 L 305.179688 243.589844 C 299.617188 243.589844 295.09375 248.109375 295.09375 253.671875 L 295.09375 295.917969 L 244.914062 246.496094 C 243.035156 244.628906 240.496094 243.589844 237.839844 243.589844 L 95.890625 243.589844 C 77.875 243.589844 63.238281 228.933594 63.238281 210.9375 Z M 20.164062 603.667969 L 20.164062 460.691406 C 20.164062 442.675781 34.820312 428.039062 52.816406 428.039062 L 194.769531 428.039062 C 197.425781 428.039062 199.960938 426.996094 201.84375 425.132812 L 232.160156 395.269531 L 252.023438 375.707031 L 252.023438 417.957031 C 252.023438 423.519531 256.542969 428.039062 262.105469 428.039062 L 276.84375 428.039062 C 294.859375 428.039062 309.496094 442.695312 309.496094 460.691406 L 309.496094 603.667969 C 309.496094 621.683594 294.84375 636.335938 276.84375 636.335938 L 52.816406 636.335938 C 34.804688 636.335938 20.164062 621.683594 20.164062 603.667969 Z M 568.914062 774.542969 L 250.730469 774.542969 C 242.125 774.542969 235.117188 767.535156 235.117188 758.929688 L 235.117188 704.984375 L 584.542969 704.984375 L 584.542969 758.929688 C 584.542969 767.535156 577.535156 774.542969 568.933594 774.542969 Z M 616.121094 511.644531 L 616.121094 605.265625 C 616.121094 615.128906 608.089844 623.164062 598.222656 623.164062 L 451.53125 623.164062 C 441.667969 623.164062 433.636719 615.128906 433.636719 605.265625 L 433.636719 511.644531 C 433.636719 501.761719 441.667969 493.746094 451.53125 493.746094 L 461.179688 493.746094 C 466.742188 493.746094 471.261719 489.226562 471.261719 483.664062 L 471.261719 464.320312 L 498.199219 490.855469 C 500.082031 492.722656 502.621094 493.765625 505.273438 493.765625 L 598.222656 493.765625 C 608.089844 493.765625 616.121094 501.796875 616.121094 511.660156 Z M 584.542969 473.582031 L 509.410156 473.582031 L 468.253906 433.046875 C 465.363281 430.191406 461.027344 429.367188 457.28125 430.929688 C 453.53125 432.492188 451.097656 436.171875 451.097656 440.222656 L 451.097656 473.5625 C 430.308594 473.800781 413.453125 490.789062 413.453125 511.628906 L 413.453125 605.25 C 413.453125 626.238281 430.527344 643.3125 451.515625 643.3125 L 584.527344 643.3125 L 584.527344 684.804688 L 235.101562 684.804688 L 235.101562 656.488281 L 276.84375 656.488281 C 305.96875 656.488281 329.664062 632.792969 329.664062 603.652344 L 329.664062 460.675781 C 329.664062 431.550781 305.96875 407.855469 276.84375 407.855469 L 272.191406 407.855469 L 272.191406 351.609375 C 272.191406 347.542969 269.753906 343.878906 266.007812 342.316406 C 262.257812 340.753906 257.941406 341.578125 255.03125 344.433594 L 235.101562 364.0625 L 235.101562 265.117188 L 298.105469 327.160156 C 300.019531 329.058594 302.589844 330.066406 305.179688 330.066406 C 306.488281 330.066406 307.816406 329.816406 309.078125 329.277344 C 312.824219 327.714844 315.261719 324.035156 315.261719 319.984375 L 315.261719 263.738281 L 319.917969 263.738281 C 349.039062 263.738281 372.734375 240.042969 372.734375 210.917969 L 372.734375 175.914062 L 464.253906 175.914062 C 474.320312 175.914062 482.839844 169.378906 485.445312 159.648438 L 492.972656 131.53125 L 568.882812 131.53125 C 577.488281 131.53125 584.492188 138.539062 584.492188 147.144531 L 584.492188 151.984375 L 533.105469 151.984375 C 503.980469 151.984375 480.285156 175.679688 480.285156 204.800781 L 480.285156 347.777344 C 480.285156 376.902344 503.980469 400.597656 533.105469 400.597656 L 537.757812 400.597656 L 537.757812 456.84375 C 537.757812 460.910156 540.195312 464.574219 543.945312 466.136719 C 545.203125 466.65625 546.53125 466.925781 547.84375 466.925781 C 550.445312 466.925781 553 465.917969 554.917969 464.019531 L 584.492188 434.878906 L 584.492188 473.546875 Z M 789.835938 347.796875 C 789.835938 365.8125 775.179688 380.449219 757.183594 380.449219 L 615.230469 380.449219 C 612.574219 380.449219 610.039062 381.488281 608.15625 383.355469 L 557.976562 432.777344 L 557.976562 390.53125 C 557.976562 384.96875 553.457031 380.449219 547.894531 380.449219 L 533.15625 380.449219 C 515.140625 380.449219 500.503906 365.792969 500.503906 347.796875 L 500.503906 204.820312 C 500.503906 186.804688 515.15625 172.167969 533.15625 172.167969 L 757.183594 172.167969 C 775.195312 172.167969 789.835938 186.820312 789.835938 204.820312 Z M 700.53125 243.6875 L 685.492188 244.058594 L 685.492188 220.984375 C 685.492188 198.804688 667.441406 180.753906 645.261719 180.753906 C 637.582031 180.753906 633.3125 184.066406 631.078125 186.855469 C 625.28125 194.046875 627.363281 203.523438 629.566406 213.558594 C 631.480469 222.28125 633.648438 232.175781 629.800781 236.949219 C 627.429688 239.890625 622.152344 241.839844 614.609375 242.664062 C 612.828125 239.808594 609.667969 237.890625 606.054688 237.890625 L 564.511719 237.890625 C 558.949219 237.890625 554.429688 242.410156 554.429688 247.972656 L 554.429688 337.175781 C 554.429688 342.738281 558.949219 347.257812 564.511719 347.257812 L 606.054688 347.257812 C 609.28125 347.257812 612.15625 345.730469 614.003906 343.359375 C 630.574219 348.886719 648.839844 353.242188 668.601562 353.242188 C 680.902344 353.242188 693.792969 351.558594 707.203125 347.410156 C 726.042969 341.59375 735.890625 321.460938 735.890625 304.574219 L 735.890625 278.191406 C 735.890625 268.679688 732.292969 260.125 725.488281 253.488281 C 718.683594 246.847656 710.09375 243.4375 700.53125 243.6875 Z M 595.972656 327.09375 L 574.597656 327.09375 L 574.597656 258.058594 L 595.972656 258.058594 Z M 715.722656 304.589844 C 715.722656 313.96875 710.3125 325.34375 701.238281 328.152344 C 669.761719 337.882812 641.765625 331.8125 616.136719 322.773438 L 616.136719 262.761719 C 629.851562 261.402344 639.496094 257.050781 645.511719 249.570312 C 655.410156 237.269531 651.847656 221.050781 649.261719 209.222656 C 648.722656 206.769531 648 203.507812 647.664062 201.054688 C 657.597656 202.246094 665.308594 210.71875 665.308594 220.96875 L 665.308594 254.378906 C 665.308594 257.097656 666.402344 259.703125 668.351562 261.585938 C 670.300781 263.484375 672.871094 264.542969 675.644531 264.441406 L 701.019531 263.820312 C 705.136719 263.738281 708.449219 265.015625 711.386719 267.90625 C 714.328125 270.796875 715.722656 274.054688 715.722656 278.171875 Z M 561.757812 534.769531 L 514.0625 507.242188 C 505.898438 502.519531 496.132812 502.519531 487.984375 507.226562 C 479.832031 511.929688 474.960938 520.382812 474.960938 529.828125 L 474.960938 584.878906 C 474.960938 594.324219 479.832031 602.761719 487.984375 607.484375 C 492.050781 609.835938 496.519531 611.011719 500.988281 611.011719 C 505.460938 611.011719 509.964844 609.835938 514.0625 607.464844 L 561.757812 579.941406 C 569.90625 575.234375 574.765625 566.796875 574.765625 557.371094 C 574.765625 547.941406 569.90625 539.507812 561.757812 534.800781 Z M 551.675781 562.445312 L 503.980469 589.972656 C 501.292969 591.519531 498.957031 590.511719 498.066406 589.988281 C 497.175781 589.484375 495.125 587.957031 495.125 584.863281 L 495.125 529.8125 C 495.125 526.703125 497.175781 525.1875 498.066406 524.683594 C 498.605469 524.382812 499.664062 523.878906 501.023438 523.878906 C 501.914062 523.878906 502.921875 524.097656 503.980469 524.703125 L 551.675781 552.226562 C 554.3125 553.757812 554.597656 556.3125 554.597656 557.335938 C 554.597656 558.363281 554.3125 560.917969 551.675781 562.445312 Z M 273.367188 597.601562 L 273.367188 474.40625 C 273.367188 462.675781 263.820312 453.128906 252.089844 453.128906 L 77.589844 453.128906 C 65.859375 453.128906 56.3125 462.675781 56.3125 474.40625 L 56.3125 597.601562 C 56.3125 609.332031 65.859375 618.878906 77.589844 618.878906 L 252.109375 618.878906 C 263.839844 618.878906 273.382812 609.332031 273.382812 597.601562 Z M 193.84375 534.414062 L 253.199219 482.941406 L 253.199219 585.871094 L 193.84375 534.398438 Z M 164.839844 532.886719 L 96.109375 473.277344 L 233.554688 473.277344 L 164.824219 532.886719 Z M 135.835938 534.414062 L 76.480469 585.890625 L 76.480469 482.957031 Z M 151.226562 547.773438 L 158.234375 553.859375 C 160.132812 555.503906 162.488281 556.328125 164.839844 556.328125 C 167.191406 556.328125 169.546875 555.503906 171.445312 553.859375 L 178.453125 547.773438 L 237.183594 598.695312 L 92.496094 598.695312 Z M 312.335938 103.988281 C 312.335938 89.605469 306.773438 76.109375 296.660156 66.011719 C 286.542969 55.910156 273.0625 50.332031 258.679688 50.332031 C 244.292969 50.332031 230.800781 55.894531 220.699219 66.011719 L 207.910156 78.78125 L 195.121094 66.011719 C 174.183594 45.070312 140.101562 45.070312 119.148438 66.011719 C 109.03125 76.125 103.46875 89.605469 103.46875 103.988281 C 103.46875 118.375 109.03125 131.851562 119.148438 141.96875 L 200.769531 223.589844 C 202.734375 225.554688 205.324219 226.546875 207.894531 226.546875 C 210.464844 226.546875 213.054688 225.554688 215.019531 223.589844 L 296.640625 141.96875 C 306.757812 131.851562 312.320312 118.375 312.320312 103.988281 Z M 282.40625 127.699219 L 207.910156 202.199219 L 133.414062 127.699219 C 127.113281 121.398438 123.632812 112.980469 123.632812 103.972656 C 123.632812 94.964844 127.113281 86.546875 133.414062 80.242188 C 139.953125 73.707031 148.554688 70.429688 157.144531 70.429688 C 165.730469 70.429688 174.335938 73.707031 180.871094 80.242188 L 200.785156 100.15625 C 204.71875 104.089844 211.105469 104.089844 215.035156 100.15625 L 234.949219 80.242188 C 241.253906 73.941406 249.6875 70.464844 258.679688 70.464844 C 267.667969 70.464844 276.105469 73.941406 282.40625 80.242188 C 288.710938 86.546875 292.1875 94.964844 292.1875 103.972656 C 292.1875 112.980469 288.710938 121.398438 282.40625 127.699219 Z M 282.40625 127.699219 " fill-opacity="1" fill-rule="nonzero"/></g></svg>