<svg xmlns="http://www.w3.org/2000/svg" xmlns:xlink="http://www.w3.org/1999/xlink" width="1080" zoomAndPan="magnify" viewBox="0 0 810 809.999993" height="1080" preserveAspectRatio="xMidYMid meet" version="1.0"><path fill="#475dd7" d="M 754.097656 570.574219 L 754.097656 0 L 261.324219 77.796875 L 261.324219 614.183594 C 234.804688 607.871094 203.023438 608.761719 170.746094 619.050781 C 101.570312 641.132812 57.34375 696.632812 72.160156 742.953125 C 87.003906 789.335938 155.101562 808.953125 224.335938 786.902344 C 293.507812 764.789062 322.921875 705.960938 322.921875 663 L 322.921875 191.472656 L 692.503906 134.3125 L 692.503906 521.820312 C 665.984375 515.503906 634.199219 516.398438 601.925781 526.683594 C 532.75 548.765625 488.523438 604.265625 503.339844 650.585938 C 518.183594 696.96875 586.277344 716.589844 655.511719 694.535156 C 724.6875 672.390625 754.097656 613.566406 754.097656 570.574219 Z M 754.097656 570.574219 " fill-opacity="1" fill-rule="nonzero"/></svg>