<svg xmlns="http://www.w3.org/2000/svg" xmlns:xlink="http://www.w3.org/1999/xlink" width="1080" zoomAndPan="magnify" viewBox="0 0 810 809.999993" height="1080" preserveAspectRatio="xMidYMid meet" version="1.0"><defs><clipPath id="c73a58074c"><path d="M 0 43.03125 L 810 43.03125 L 810 766.78125 L 0 766.78125 Z M 0 43.03125 " clip-rule="nonzero"/></clipPath><clipPath id="1a6227b943"><path d="M 3 0.21875 L 805 0.21875 L 805 723.78125 L 3 723.78125 Z M 3 0.21875 " clip-rule="nonzero"/></clipPath><clipPath id="129013f280"><rect x="0" width="810" y="0" height="724"/></clipPath></defs><g clip-path="url(#c73a58074c)"><g transform="matrix(1, 0, 0, 1, 0, 43)"><g clip-path="url(#129013f280)"><g clip-path="url(#1a6227b943)"><path fill="#475dd7" d="M 54.496094 723.773438 C 52.820312 723.796875 51.148438 723.738281 49.480469 723.597656 C 47.8125 723.453125 46.15625 723.230469 44.507812 722.925781 C 42.863281 722.617188 41.234375 722.230469 39.625 721.761719 C 38.015625 721.292969 36.4375 720.75 34.882812 720.125 C 33.328125 719.5 31.808594 718.800781 30.324219 718.023438 C 28.839844 717.25 27.394531 716.402344 25.996094 715.484375 C 24.59375 714.566406 23.242188 713.582031 21.9375 712.527344 C 20.636719 711.476562 19.386719 710.363281 18.195312 709.1875 C 17.003906 708.011719 15.871094 706.777344 14.800781 705.492188 C 13.730469 704.203125 12.726562 702.863281 11.789062 701.476562 C 10.851562 700.089844 9.984375 698.660156 9.1875 697.183594 C 8.390625 695.710938 7.667969 694.203125 7.023438 692.65625 C 6.375 691.113281 5.808594 689.539062 5.316406 687.9375 C 4.828125 686.335938 4.417969 684.714844 4.085938 683.070312 C 3.757812 681.429688 3.511719 679.773438 3.34375 678.109375 C 3.179688 676.441406 3.097656 674.769531 3.097656 673.09375 C 3.097656 671.421875 3.179688 669.75 3.34375 668.082031 C 3.511719 666.417969 3.757812 664.761719 4.085938 663.121094 C 4.417969 661.476562 4.828125 659.855469 5.316406 658.253906 C 5.808594 656.652344 6.375 655.078125 7.023438 653.535156 C 7.667969 651.988281 8.390625 650.480469 9.1875 649.003906 C 9.984375 647.53125 10.851562 646.101562 11.789062 644.714844 C 12.726562 643.324219 13.730469 641.988281 14.800781 640.699219 C 15.871094 639.410156 17.003906 638.179688 18.195312 637.003906 C 19.386719 635.828125 20.636719 634.714844 21.9375 633.660156 C 23.242188 632.609375 24.59375 631.625 25.996094 630.707031 C 27.394531 629.789062 28.839844 628.941406 30.324219 628.164062 C 31.808594 627.390625 33.328125 626.691406 34.882812 626.066406 C 36.4375 625.441406 38.015625 624.894531 39.625 624.429688 C 41.234375 623.960938 42.863281 623.574219 44.507812 623.265625 C 46.15625 622.960938 47.8125 622.734375 49.480469 622.59375 C 51.148438 622.453125 52.820312 622.394531 54.496094 622.417969 L 520.742188 622.417969 C 522.417969 622.394531 524.089844 622.453125 525.757812 622.59375 C 527.425781 622.734375 529.085938 622.960938 530.730469 623.265625 C 532.378906 623.574219 534.003906 623.960938 535.613281 624.429688 C 537.222656 624.894531 538.804688 625.441406 540.355469 626.066406 C 541.910156 626.691406 543.429688 627.390625 544.914062 628.164062 C 546.402344 628.941406 547.84375 629.789062 549.242188 630.707031 C 550.644531 631.625 551.996094 632.609375 553.300781 633.660156 C 554.601562 634.714844 555.851562 635.828125 557.042969 637.003906 C 558.238281 638.179688 559.367188 639.410156 560.4375 640.699219 C 561.507812 641.988281 562.511719 643.324219 563.453125 644.714844 C 564.390625 646.101562 565.257812 647.53125 566.050781 649.003906 C 566.847656 650.480469 567.570312 651.988281 568.214844 653.535156 C 568.863281 655.078125 569.429688 656.652344 569.921875 658.253906 C 570.410156 659.855469 570.820312 661.476562 571.152344 663.121094 C 571.480469 664.761719 571.730469 666.417969 571.894531 668.082031 C 572.058594 669.75 572.144531 671.421875 572.144531 673.09375 C 572.144531 674.769531 572.058594 676.441406 571.894531 678.109375 C 571.730469 679.773438 571.480469 681.429688 571.152344 683.070312 C 570.820312 684.714844 570.410156 686.335938 569.921875 687.9375 C 569.429688 689.539062 568.863281 691.113281 568.214844 692.65625 C 567.570312 694.203125 566.847656 695.710938 566.050781 697.183594 C 565.257812 698.660156 564.390625 700.089844 563.453125 701.476562 C 562.511719 702.863281 561.507812 704.203125 560.4375 705.492188 C 559.367188 706.777344 558.238281 708.011719 557.042969 709.1875 C 555.851562 710.363281 554.601562 711.476562 553.300781 712.527344 C 551.996094 713.582031 550.644531 714.566406 549.242188 715.484375 C 547.84375 716.402344 546.402344 717.25 544.914062 718.023438 C 543.429688 718.800781 541.910156 719.5 540.355469 720.125 C 538.804688 720.75 537.222656 721.292969 535.613281 721.761719 C 534.003906 722.230469 532.378906 722.617188 530.730469 722.925781 C 529.085938 723.230469 527.425781 723.453125 525.757812 723.597656 C 524.089844 723.738281 522.417969 723.796875 520.742188 723.773438 Z M 631.445312 521.769531 C 629.785156 521.746094 628.132812 521.636719 626.484375 521.449219 C 624.835938 521.261719 623.203125 520.992188 621.582031 520.644531 C 619.960938 520.296875 618.359375 519.871094 616.78125 519.363281 C 615.203125 518.859375 613.652344 518.277344 612.128906 517.617188 C 610.605469 516.960938 609.121094 516.230469 607.667969 515.425781 C 606.21875 514.621094 604.8125 513.75 603.445312 512.808594 C 602.082031 511.867188 600.765625 510.859375 599.5 509.789062 C 598.234375 508.714844 597.023438 507.585938 595.867188 506.394531 C 594.714844 505.207031 593.621094 503.960938 592.585938 502.664062 C 591.554688 501.367188 590.585938 500.023438 589.683594 498.632812 C 588.785156 497.238281 587.953125 495.804688 587.195312 494.332031 C 586.433594 492.859375 585.746094 491.351562 585.132812 489.808594 C 584.523438 488.269531 583.988281 486.703125 583.527344 485.109375 C 583.070312 483.515625 582.691406 481.902344 582.390625 480.269531 C 582.089844 478.640625 581.871094 477 581.730469 475.347656 C 581.589844 473.691406 581.535156 472.039062 581.558594 470.378906 L 581.558594 200.988281 L 527.550781 220.152344 C 526.210938 220.632812 524.847656 221.054688 523.46875 221.417969 C 522.089844 221.78125 520.699219 222.085938 519.292969 222.332031 C 517.890625 222.578125 516.476562 222.765625 515.054688 222.894531 C 513.636719 223.019531 512.210938 223.085938 510.785156 223.09375 C 509.359375 223.101562 507.933594 223.046875 506.515625 222.933594 C 505.09375 222.820312 503.679688 222.648438 502.269531 222.417969 C 500.863281 222.183594 499.46875 221.894531 498.085938 221.542969 C 496.703125 221.191406 495.339844 220.785156 493.992188 220.320312 C 492.640625 219.851562 491.316406 219.332031 490.011719 218.753906 C 488.707031 218.175781 487.429688 217.546875 486.179688 216.859375 C 484.929688 216.175781 483.710938 215.4375 482.519531 214.648438 C 481.332031 213.863281 480.179688 213.023438 479.0625 212.140625 C 477.945312 211.253906 476.863281 210.320312 475.824219 209.34375 C 474.785156 208.367188 473.789062 207.351562 472.835938 206.289062 C 471.882812 205.230469 470.976562 204.128906 470.117188 202.992188 C 469.257812 201.855469 468.445312 200.683594 467.683594 199.476562 C 466.921875 198.273438 466.210938 197.035156 465.554688 195.769531 C 464.898438 194.503906 464.292969 193.214844 463.746094 191.898438 C 463.199219 190.582031 462.707031 189.242188 462.269531 187.886719 C 461.835938 186.527344 461.457031 185.152344 461.136719 183.761719 C 460.820312 182.371094 460.558594 180.972656 460.359375 179.558594 C 460.15625 178.148438 460.015625 176.730469 459.933594 175.304688 C 459.851562 173.882812 459.832031 172.457031 459.871094 171.03125 C 459.910156 169.605469 460.007812 168.183594 460.167969 166.769531 C 460.324219 165.351562 460.542969 163.941406 460.820312 162.542969 C 461.097656 161.144531 461.433594 159.761719 461.828125 158.390625 C 462.222656 157.019531 462.675781 155.667969 463.183594 154.335938 C 463.691406 153.003906 464.257812 151.695312 464.875 150.410156 C 465.496094 149.125 466.167969 147.867188 466.890625 146.640625 C 467.617188 145.410156 468.394531 144.214844 469.21875 143.054688 C 470.042969 141.890625 470.917969 140.765625 471.839844 139.675781 C 472.761719 138.589844 473.726562 137.539062 474.734375 136.53125 L 596.363281 14.902344 C 597.539062 13.726562 598.769531 12.613281 600.050781 11.554688 C 601.335938 10.5 602.667969 9.511719 604.050781 8.585938 C 605.429688 7.664062 606.851562 6.808594 608.320312 6.023438 C 609.785156 5.238281 611.285156 4.53125 612.820312 3.894531 C 614.355469 3.257812 615.917969 2.695312 617.507812 2.214844 C 619.097656 1.730469 620.707031 1.328125 622.335938 1.003906 C 623.964844 0.679688 625.609375 0.433594 627.261719 0.269531 C 628.917969 0.109375 630.574219 0.0273438 632.234375 0.0273438 C 633.898438 0.0273438 635.554688 0.109375 637.210938 0.269531 C 638.863281 0.433594 640.503906 0.679688 642.136719 1.003906 C 643.765625 1.328125 645.375 1.730469 646.964844 2.214844 C 648.554688 2.695312 650.117188 3.257812 651.652344 3.894531 C 653.1875 4.53125 654.6875 5.238281 656.152344 6.023438 C 657.617188 6.808594 659.042969 7.664062 660.421875 8.585938 C 661.804688 9.511719 663.136719 10.5 664.421875 11.554688 C 665.703125 12.613281 666.933594 13.726562 668.105469 14.902344 L 789.738281 136.53125 C 790.746094 137.539062 791.710938 138.589844 792.632812 139.675781 C 793.554688 140.765625 794.425781 141.890625 795.253906 143.054688 C 796.078125 144.21875 796.855469 145.410156 797.582031 146.640625 C 798.304688 147.867188 798.976562 149.125 799.597656 150.410156 C 800.214844 151.695312 800.78125 153.003906 801.289062 154.335938 C 801.796875 155.667969 802.25 157.019531 802.644531 158.390625 C 803.039062 159.761719 803.375 161.144531 803.652344 162.542969 C 803.929688 163.941406 804.148438 165.351562 804.304688 166.769531 C 804.464844 168.183594 804.5625 169.605469 804.601562 171.03125 C 804.640625 172.457031 804.621094 173.882812 804.539062 175.304688 C 804.457031 176.730469 804.316406 178.148438 804.113281 179.558594 C 803.914062 180.972656 803.652344 182.375 803.332031 183.761719 C 803.015625 185.152344 802.636719 186.527344 802.199219 187.886719 C 801.765625 189.242188 801.273438 190.582031 800.726562 191.898438 C 800.175781 193.214844 799.574219 194.503906 798.917969 195.769531 C 798.261719 197.035156 797.550781 198.273438 796.789062 199.476562 C 796.027344 200.683594 795.214844 201.855469 794.355469 202.992188 C 793.496094 204.128906 792.589844 205.230469 791.636719 206.289062 C 790.683594 207.351562 789.683594 208.367188 788.644531 209.34375 C 787.605469 210.320312 786.527344 211.253906 785.410156 212.140625 C 784.292969 213.023438 783.140625 213.863281 781.949219 214.648438 C 780.761719 215.4375 779.542969 216.175781 778.292969 216.859375 C 777.039062 217.546875 775.761719 218.175781 774.460938 218.753906 C 773.15625 219.332031 771.828125 219.851562 770.480469 220.320312 C 769.132812 220.785156 767.769531 221.191406 766.386719 221.542969 C 765.003906 221.894531 763.609375 222.183594 762.203125 222.417969 C 760.792969 222.648438 759.378906 222.820312 757.957031 222.933594 C 756.535156 223.046875 755.113281 223.101562 753.6875 223.09375 C 752.261719 223.085938 750.835938 223.019531 749.417969 222.894531 C 747.996094 222.765625 746.582031 222.578125 745.179688 222.332031 C 743.773438 222.085938 742.382812 221.78125 741.003906 221.417969 C 739.625 221.054688 738.261719 220.632812 736.917969 220.152344 L 682.914062 200.988281 L 682.914062 470.378906 C 682.9375 472.070312 682.878906 473.757812 682.734375 475.445312 C 682.585938 477.128906 682.359375 478.804688 682.046875 480.464844 C 681.734375 482.128906 681.339844 483.769531 680.859375 485.394531 C 680.382812 487.015625 679.828125 488.609375 679.191406 490.175781 C 678.554688 491.746094 677.839844 493.277344 677.050781 494.769531 C 676.257812 496.265625 675.394531 497.71875 674.460938 499.128906 C 673.523438 500.535156 672.523438 501.894531 671.449219 503.203125 C 670.378906 504.511719 669.242188 505.765625 668.046875 506.960938 C 666.851562 508.15625 665.597656 509.289062 664.285156 510.355469 C 662.976562 511.425781 661.617188 512.429688 660.207031 513.363281 C 658.792969 514.292969 657.339844 515.15625 655.84375 515.941406 C 654.347656 516.730469 652.816406 517.441406 651.246094 518.078125 C 649.679688 518.710938 648.082031 519.265625 646.460938 519.742188 C 644.835938 520.214844 643.195312 520.609375 641.53125 520.917969 C 639.867188 521.226562 638.195312 521.453125 636.507812 521.597656 C 634.824219 521.738281 633.136719 521.796875 631.445312 521.769531 Z M 54.496094 521.058594 C 52.820312 521.082031 51.148438 521.023438 49.480469 520.882812 C 47.8125 520.738281 46.15625 520.515625 44.507812 520.207031 C 42.863281 519.902344 41.234375 519.515625 39.625 519.046875 C 38.015625 518.578125 36.4375 518.03125 34.882812 517.410156 C 33.328125 516.785156 31.808594 516.085938 30.324219 515.308594 C 28.839844 514.535156 27.394531 513.6875 25.996094 512.769531 C 24.59375 511.851562 23.242188 510.867188 21.941406 509.8125 C 20.636719 508.761719 19.386719 507.648438 18.195312 506.472656 C 17.003906 505.296875 15.871094 504.0625 14.800781 502.773438 C 13.730469 501.488281 12.726562 500.148438 11.789062 498.761719 C 10.851562 497.375 9.984375 495.941406 9.1875 494.46875 C 8.390625 492.996094 7.667969 491.484375 7.023438 489.941406 C 6.378906 488.394531 5.808594 486.824219 5.316406 485.222656 C 4.828125 483.621094 4.417969 481.996094 4.089844 480.355469 C 3.757812 478.714844 3.511719 477.058594 3.34375 475.390625 C 3.179688 473.726562 3.097656 472.054688 3.097656 470.378906 C 3.097656 468.703125 3.179688 467.035156 3.34375 465.367188 C 3.511719 463.699219 3.757812 462.046875 4.089844 460.402344 C 4.417969 458.761719 4.828125 457.140625 5.316406 455.539062 C 5.808594 453.9375 6.378906 452.363281 7.023438 450.820312 C 7.667969 449.273438 8.390625 447.765625 9.1875 446.289062 C 9.984375 444.816406 10.851562 443.386719 11.789062 442 C 12.726562 440.609375 13.730469 439.273438 14.800781 437.984375 C 15.871094 436.695312 17.003906 435.464844 18.195312 434.289062 C 19.386719 433.113281 20.636719 432 21.941406 430.945312 C 23.242188 429.894531 24.59375 428.910156 25.996094 427.992188 C 27.394531 427.074219 28.839844 426.226562 30.324219 425.449219 C 31.808594 424.675781 33.328125 423.976562 34.882812 423.351562 C 36.4375 422.726562 38.015625 422.179688 39.625 421.710938 C 41.234375 421.246094 42.863281 420.859375 44.507812 420.550781 C 46.15625 420.246094 47.8125 420.019531 49.480469 419.878906 C 51.148438 419.738281 52.820312 419.675781 54.496094 419.699219 L 399.113281 419.699219 C 400.789062 419.675781 402.460938 419.738281 404.128906 419.878906 C 405.796875 420.019531 407.457031 420.246094 409.101562 420.550781 C 410.75 420.859375 412.375 421.246094 413.984375 421.710938 C 415.59375 422.179688 417.171875 422.726562 418.726562 423.351562 C 420.28125 423.976562 421.800781 424.675781 423.285156 425.449219 C 424.769531 426.226562 426.214844 427.074219 427.613281 427.992188 C 429.015625 428.910156 430.367188 429.894531 431.671875 430.945312 C 432.972656 432 434.222656 433.113281 435.414062 434.289062 C 436.605469 435.464844 437.738281 436.695312 438.808594 437.984375 C 439.878906 439.273438 440.882812 440.609375 441.820312 442 C 442.757812 443.386719 443.625 444.816406 444.421875 446.289062 C 445.21875 447.765625 445.941406 449.273438 446.585938 450.820312 C 447.234375 452.363281 447.800781 453.9375 448.292969 455.539062 C 448.78125 457.140625 449.191406 458.761719 449.523438 460.402344 C 449.851562 462.046875 450.097656 463.699219 450.265625 465.367188 C 450.429688 467.035156 450.511719 468.703125 450.511719 470.378906 C 450.511719 472.054688 450.429688 473.726562 450.265625 475.390625 C 450.097656 477.058594 449.851562 478.714844 449.523438 480.355469 C 449.191406 481.996094 448.78125 483.621094 448.292969 485.222656 C 447.800781 486.824219 447.234375 488.394531 446.585938 489.941406 C 445.941406 491.484375 445.21875 492.996094 444.421875 494.46875 C 443.625 495.941406 442.757812 497.375 441.820312 498.761719 C 440.882812 500.148438 439.878906 501.488281 438.808594 502.773438 C 437.738281 504.0625 436.605469 505.296875 435.414062 506.472656 C 434.222656 507.648438 432.972656 508.761719 431.671875 509.8125 C 430.367188 510.867188 429.015625 511.851562 427.613281 512.769531 C 426.214844 513.6875 424.769531 514.535156 423.285156 515.308594 C 421.800781 516.085938 420.28125 516.785156 418.726562 517.410156 C 417.171875 518.03125 415.59375 518.578125 413.984375 519.046875 C 412.375 519.515625 410.75 519.902344 409.101562 520.207031 C 407.457031 520.515625 405.796875 520.738281 404.128906 520.882812 C 402.460938 521.023438 400.789062 521.082031 399.113281 521.058594 Z M 54.496094 318.34375 C 52.820312 318.367188 51.148438 318.308594 49.480469 318.164062 C 47.8125 318.023438 46.15625 317.800781 44.507812 317.492188 C 42.863281 317.1875 41.234375 316.800781 39.625 316.332031 C 38.019531 315.863281 36.4375 315.316406 34.882812 314.691406 C 33.328125 314.070312 31.808594 313.367188 30.324219 312.59375 C 28.839844 311.816406 27.398438 310.972656 25.996094 310.054688 C 24.59375 309.136719 23.242188 308.148438 21.941406 307.097656 C 20.636719 306.046875 19.390625 304.929688 18.195312 303.753906 C 17.003906 302.578125 15.871094 301.347656 14.800781 300.058594 C 13.730469 298.769531 12.726562 297.433594 11.789062 296.046875 C 10.851562 294.65625 9.984375 293.226562 9.1875 291.753906 C 8.390625 290.28125 7.671875 288.769531 7.023438 287.226562 C 6.378906 285.679688 5.808594 284.105469 5.320312 282.503906 C 4.828125 280.902344 4.417969 279.28125 4.089844 277.640625 C 3.757812 275.996094 3.511719 274.34375 3.347656 272.675781 C 3.179688 271.011719 3.097656 269.339844 3.097656 267.664062 C 3.097656 265.988281 3.179688 264.320312 3.347656 262.652344 C 3.511719 260.984375 3.757812 259.332031 4.089844 257.6875 C 4.417969 256.046875 4.828125 254.425781 5.320312 252.824219 C 5.808594 251.222656 6.378906 249.648438 7.023438 248.101562 C 7.671875 246.558594 8.390625 245.046875 9.1875 243.574219 C 9.984375 242.101562 10.851562 240.671875 11.789062 239.28125 C 12.726562 237.894531 13.730469 236.558594 14.800781 235.269531 C 15.871094 233.980469 17.003906 232.75 18.195312 231.574219 C 19.390625 230.398438 20.636719 229.285156 21.941406 228.230469 C 23.242188 227.179688 24.59375 226.195312 25.996094 225.273438 C 27.398438 224.355469 28.839844 223.511719 30.324219 222.734375 C 31.808594 221.960938 33.328125 221.261719 34.882812 220.636719 C 36.4375 220.011719 38.019531 219.464844 39.625 218.996094 C 41.234375 218.53125 42.863281 218.140625 44.507812 217.835938 C 46.15625 217.53125 47.8125 217.304688 49.480469 217.164062 C 51.148438 217.019531 52.820312 216.960938 54.496094 216.984375 L 277.484375 216.984375 C 279.160156 216.960938 280.832031 217.019531 282.5 217.164062 C 284.167969 217.304688 285.824219 217.53125 287.472656 217.835938 C 289.117188 218.140625 290.746094 218.53125 292.355469 218.996094 C 293.964844 219.464844 295.542969 220.011719 297.097656 220.636719 C 298.652344 221.261719 300.171875 221.960938 301.65625 222.734375 C 303.140625 223.511719 304.585938 224.355469 305.984375 225.273438 C 307.386719 226.195312 308.738281 227.179688 310.039062 228.230469 C 311.34375 229.285156 312.589844 230.398438 313.785156 231.574219 C 314.976562 232.75 316.109375 233.980469 317.179688 235.269531 C 318.25 236.558594 319.253906 237.894531 320.191406 239.28125 C 321.128906 240.671875 321.996094 242.101562 322.792969 243.574219 C 323.589844 245.046875 324.308594 246.558594 324.957031 248.101562 C 325.601562 249.648438 326.171875 251.222656 326.660156 252.824219 C 327.152344 254.425781 327.5625 256.046875 327.890625 257.6875 C 328.222656 259.332031 328.46875 260.984375 328.636719 262.652344 C 328.800781 264.320312 328.882812 265.988281 328.882812 267.664062 C 328.882812 269.339844 328.800781 271.011719 328.636719 272.675781 C 328.46875 274.34375 328.222656 275.996094 327.890625 277.640625 C 327.5625 279.28125 327.152344 280.902344 326.660156 282.503906 C 326.171875 284.105469 325.601562 285.679688 324.957031 287.226562 C 324.308594 288.769531 323.589844 290.28125 322.792969 291.753906 C 321.996094 293.226562 321.128906 294.65625 320.191406 296.046875 C 319.253906 297.433594 318.25 298.769531 317.179688 300.058594 C 316.109375 301.347656 314.976562 302.578125 313.785156 303.753906 C 312.589844 304.929688 311.34375 306.046875 310.039062 307.097656 C 308.738281 308.148438 307.386719 309.136719 305.984375 310.054688 C 304.585938 310.972656 303.140625 311.816406 301.65625 312.59375 C 300.171875 313.367188 298.652344 314.066406 297.097656 314.691406 C 295.542969 315.316406 293.964844 315.863281 292.355469 316.332031 C 290.746094 316.800781 289.117188 317.1875 287.472656 317.492188 C 285.824219 317.800781 284.167969 318.023438 282.5 318.164062 C 280.832031 318.308594 279.160156 318.367188 277.484375 318.34375 Z M 54.496094 115.628906 C 52.820312 115.652344 51.148438 115.59375 49.480469 115.449219 C 47.8125 115.308594 46.15625 115.082031 44.507812 114.777344 C 42.863281 114.472656 41.234375 114.082031 39.625 113.617188 C 38.019531 113.148438 36.4375 112.601562 34.882812 111.976562 C 33.328125 111.351562 31.808594 110.652344 30.324219 109.878906 C 28.839844 109.101562 27.398438 108.257812 25.996094 107.339844 C 24.59375 106.417969 23.242188 105.433594 21.941406 104.382812 C 20.636719 103.328125 19.390625 102.214844 18.195312 101.039062 C 17.003906 99.863281 15.871094 98.632812 14.800781 97.34375 C 13.730469 96.054688 12.726562 94.71875 11.789062 93.332031 C 10.851562 91.941406 9.984375 90.511719 9.1875 89.039062 C 8.390625 87.5625 7.671875 86.054688 7.023438 84.511719 C 6.378906 82.964844 5.808594 81.390625 5.320312 79.789062 C 4.828125 78.1875 4.417969 76.566406 4.089844 74.925781 C 3.757812 73.28125 3.511719 71.628906 3.347656 69.960938 C 3.179688 68.292969 3.097656 66.625 3.097656 64.949219 C 3.097656 63.273438 3.179688 61.601562 3.347656 59.9375 C 3.511719 58.269531 3.757812 56.617188 4.089844 54.972656 C 4.417969 53.332031 4.828125 51.710938 5.320312 50.109375 C 5.808594 48.507812 6.378906 46.933594 7.023438 45.386719 C 7.671875 43.84375 8.390625 42.332031 9.1875 40.859375 C 9.984375 39.386719 10.851562 37.957031 11.789062 36.566406 C 12.726562 35.179688 13.730469 33.84375 14.800781 32.554688 C 15.871094 31.265625 17.003906 30.035156 18.195312 28.859375 C 19.390625 27.683594 20.636719 26.566406 21.941406 25.515625 C 23.242188 24.464844 24.59375 23.476562 25.996094 22.558594 C 27.398438 21.640625 28.839844 20.796875 30.324219 20.019531 C 31.808594 19.246094 33.328125 18.542969 34.882812 17.921875 C 36.4375 17.296875 38.019531 16.75 39.625 16.28125 C 41.234375 15.8125 42.863281 15.425781 44.507812 15.121094 C 46.15625 14.8125 47.8125 14.589844 49.480469 14.449219 C 51.148438 14.304688 52.820312 14.246094 54.496094 14.269531 L 155.855469 14.269531 C 157.53125 14.246094 159.199219 14.304688 160.871094 14.449219 C 162.539062 14.589844 164.195312 14.8125 165.84375 15.121094 C 167.488281 15.425781 169.117188 15.8125 170.726562 16.28125 C 172.332031 16.75 173.914062 17.296875 175.46875 17.921875 C 177.023438 18.542969 178.542969 19.246094 180.027344 20.019531 C 181.511719 20.796875 182.953125 21.640625 184.355469 22.558594 C 185.757812 23.476562 187.109375 24.464844 188.410156 25.515625 C 189.714844 26.566406 190.960938 27.683594 192.15625 28.859375 C 193.347656 30.035156 194.480469 31.265625 195.550781 32.554688 C 196.621094 33.84375 197.625 35.179688 198.5625 36.566406 C 199.5 37.957031 200.367188 39.386719 201.164062 40.859375 C 201.960938 42.332031 202.679688 43.84375 203.328125 45.386719 C 203.972656 46.933594 204.542969 48.507812 205.03125 50.109375 C 205.523438 51.710938 205.933594 53.332031 206.261719 54.972656 C 206.59375 56.617188 206.839844 58.269531 207.003906 59.9375 C 207.171875 61.601562 207.253906 63.273438 207.253906 64.949219 C 207.253906 66.625 207.171875 68.292969 207.003906 69.960938 C 206.839844 71.628906 206.59375 73.28125 206.261719 74.925781 C 205.933594 76.566406 205.523438 78.1875 205.03125 79.789062 C 204.542969 81.390625 203.972656 82.964844 203.328125 84.511719 C 202.679688 86.054688 201.960938 87.5625 201.164062 89.039062 C 200.367188 90.511719 199.5 91.941406 198.5625 93.332031 C 197.625 94.71875 196.621094 96.054688 195.550781 97.34375 C 194.480469 98.632812 193.347656 99.863281 192.15625 101.039062 C 190.960938 102.214844 189.714844 103.328125 188.410156 104.382812 C 187.109375 105.433594 185.757812 106.417969 184.355469 107.335938 C 182.953125 108.257812 181.511719 109.101562 180.027344 109.878906 C 178.542969 110.652344 177.023438 111.351562 175.46875 111.976562 C 173.914062 112.601562 172.332031 113.148438 170.726562 113.617188 C 169.117188 114.082031 167.488281 114.472656 165.84375 114.777344 C 164.195312 115.082031 162.539062 115.308594 160.871094 115.449219 C 159.199219 115.59375 157.53125 115.652344 155.855469 115.628906 Z M 54.496094 115.628906 " fill-opacity="1" fill-rule="nonzero"/></g></g></g></g></svg>