<svg xmlns="http://www.w3.org/2000/svg" xmlns:xlink="http://www.w3.org/1999/xlink" width="1080" zoomAndPan="magnify" viewBox="0 0 810 809.999993" height="1080" preserveAspectRatio="xMidYMid meet" version="1.0"><defs><clipPath id="a4198beb38"><path d="M 3 43.03125 L 805 43.03125 L 805 766.78125 L 3 766.78125 Z M 3 43.03125 " clip-rule="nonzero"/></clipPath></defs><g clip-path="url(#a4198beb38)"><path fill="#475dd7" d="M 54.496094 43.226562 C 52.820312 43.203125 51.148438 43.261719 49.480469 43.402344 C 47.8125 43.546875 46.15625 43.769531 44.507812 44.074219 C 42.863281 44.382812 41.234375 44.769531 39.625 45.238281 C 38.015625 45.707031 36.4375 46.25 34.882812 46.875 C 33.328125 47.5 31.808594 48.199219 30.324219 48.976562 C 28.839844 49.75 27.394531 50.597656 25.996094 51.515625 C 24.59375 52.433594 23.242188 53.417969 21.9375 54.472656 C 20.636719 55.523438 19.386719 56.636719 18.195312 57.8125 C 17.003906 58.988281 15.871094 60.222656 14.800781 61.507812 C 13.730469 62.796875 12.726562 64.136719 11.789062 65.523438 C 10.851562 66.910156 9.984375 68.339844 9.1875 69.816406 C 8.390625 71.289062 7.667969 72.796875 7.023438 74.34375 C 6.375 75.886719 5.808594 77.460938 5.316406 79.0625 C 4.828125 80.664062 4.417969 82.285156 4.085938 83.929688 C 3.757812 85.570312 3.511719 87.226562 3.34375 88.890625 C 3.179688 90.558594 3.097656 92.230469 3.097656 93.90625 C 3.097656 95.578125 3.179688 97.25 3.34375 98.917969 C 3.511719 100.582031 3.757812 102.238281 4.085938 103.878906 C 4.417969 105.523438 4.828125 107.144531 5.316406 108.746094 C 5.808594 110.347656 6.375 111.921875 7.023438 113.464844 C 7.667969 115.011719 8.390625 116.519531 9.1875 117.996094 C 9.984375 119.46875 10.851562 120.898438 11.789062 122.285156 C 12.726562 123.675781 13.730469 125.011719 14.800781 126.300781 C 15.871094 127.589844 17.003906 128.820312 18.195312 129.996094 C 19.386719 131.171875 20.636719 132.285156 21.9375 133.339844 C 23.242188 134.390625 24.59375 135.375 25.996094 136.292969 C 27.394531 137.210938 28.839844 138.058594 30.324219 138.835938 C 31.808594 139.609375 33.328125 140.308594 34.882812 140.933594 C 36.4375 141.558594 38.015625 142.105469 39.625 142.570312 C 41.234375 143.039062 42.863281 143.425781 44.507812 143.734375 C 46.15625 144.039062 47.8125 144.265625 49.480469 144.40625 C 51.148438 144.546875 52.820312 144.605469 54.496094 144.582031 L 520.742188 144.582031 C 522.417969 144.605469 524.089844 144.546875 525.757812 144.40625 C 527.425781 144.265625 529.085938 144.039062 530.730469 143.734375 C 532.378906 143.425781 534.003906 143.039062 535.613281 142.570312 C 537.222656 142.105469 538.804688 141.558594 540.355469 140.933594 C 541.910156 140.308594 543.429688 139.609375 544.914062 138.835938 C 546.402344 138.058594 547.84375 137.210938 549.242188 136.292969 C 550.644531 135.375 551.996094 134.390625 553.300781 133.339844 C 554.601562 132.285156 555.851562 131.171875 557.042969 129.996094 C 558.238281 128.820312 559.367188 127.589844 560.4375 126.300781 C 561.507812 125.011719 562.511719 123.675781 563.453125 122.285156 C 564.390625 120.898438 565.257812 119.46875 566.050781 117.996094 C 566.847656 116.519531 567.570312 115.011719 568.214844 113.464844 C 568.863281 111.921875 569.429688 110.347656 569.921875 108.746094 C 570.410156 107.144531 570.820312 105.523438 571.152344 103.878906 C 571.480469 102.238281 571.730469 100.582031 571.894531 98.917969 C 572.058594 97.25 572.144531 95.578125 572.144531 93.90625 C 572.144531 92.230469 572.058594 90.558594 571.894531 88.890625 C 571.730469 87.226562 571.480469 85.570312 571.152344 83.929688 C 570.820312 82.285156 570.410156 80.664062 569.921875 79.0625 C 569.429688 77.460938 568.863281 75.886719 568.214844 74.34375 C 567.570312 72.796875 566.847656 71.289062 566.050781 69.816406 C 565.257812 68.339844 564.390625 66.910156 563.453125 65.523438 C 562.511719 64.136719 561.507812 62.796875 560.4375 61.507812 C 559.367188 60.222656 558.238281 58.988281 557.042969 57.8125 C 555.851562 56.636719 554.601562 55.523438 553.300781 54.472656 C 551.996094 53.417969 550.644531 52.433594 549.242188 51.515625 C 547.84375 50.597656 546.402344 49.75 544.914062 48.976562 C 543.429688 48.199219 541.910156 47.5 540.355469 46.875 C 538.804688 46.25 537.222656 45.707031 535.613281 45.238281 C 534.003906 44.769531 532.378906 44.382812 530.730469 44.074219 C 529.085938 43.769531 527.425781 43.546875 525.757812 43.402344 C 524.089844 43.261719 522.417969 43.203125 520.742188 43.226562 Z M 631.445312 245.230469 C 629.785156 245.253906 628.132812 245.363281 626.484375 245.550781 C 624.835938 245.738281 623.203125 246.007812 621.582031 246.355469 C 619.960938 246.703125 618.359375 247.128906 616.78125 247.636719 C 615.203125 248.140625 613.652344 248.722656 612.128906 249.382812 C 610.605469 250.039062 609.121094 250.769531 607.667969 251.574219 C 606.21875 252.378906 604.8125 253.25 603.445312 254.191406 C 602.082031 255.132812 600.765625 256.140625 599.5 257.210938 C 598.234375 258.285156 597.023438 259.414062 595.867188 260.605469 C 594.714844 261.792969 593.621094 263.039062 592.585938 264.335938 C 591.554688 265.632812 590.585938 266.976562 589.683594 268.367188 C 588.785156 269.761719 587.953125 271.195312 587.195312 272.667969 C 586.433594 274.140625 585.746094 275.648438 585.132812 277.191406 C 584.523438 278.730469 583.988281 280.296875 583.527344 281.890625 C 583.070312 283.484375 582.691406 285.097656 582.390625 286.730469 C 582.089844 288.359375 581.871094 290 581.730469 291.652344 C 581.589844 293.308594 581.535156 294.960938 581.558594 296.621094 L 581.558594 566.011719 L 527.550781 546.847656 C 526.210938 546.367188 524.847656 545.945312 523.46875 545.582031 C 522.089844 545.21875 520.699219 544.914062 519.292969 544.667969 C 517.890625 544.421875 516.476562 544.234375 515.054688 544.105469 C 513.636719 543.980469 512.210938 543.914062 510.785156 543.90625 C 509.359375 543.898438 507.933594 543.953125 506.515625 544.066406 C 505.09375 544.179688 503.679688 544.351562 502.269531 544.582031 C 500.863281 544.816406 499.46875 545.105469 498.085938 545.457031 C 496.703125 545.808594 495.339844 546.214844 493.992188 546.679688 C 492.640625 547.148438 491.316406 547.667969 490.011719 548.246094 C 488.707031 548.824219 487.429688 549.453125 486.179688 550.140625 C 484.929688 550.824219 483.710938 551.5625 482.519531 552.351562 C 481.332031 553.136719 480.179688 553.976562 479.0625 554.859375 C 477.945312 555.746094 476.863281 556.679688 475.824219 557.65625 C 474.785156 558.632812 473.789062 559.648438 472.835938 560.710938 C 471.882812 561.769531 470.976562 562.871094 470.117188 564.007812 C 469.257812 565.144531 468.445312 566.316406 467.683594 567.523438 C 466.921875 568.726562 466.210938 569.964844 465.554688 571.230469 C 464.898438 572.496094 464.292969 573.785156 463.746094 575.101562 C 463.199219 576.417969 462.707031 577.757812 462.269531 579.113281 C 461.835938 580.472656 461.457031 581.847656 461.136719 583.238281 C 460.820312 584.628906 460.558594 586.027344 460.359375 587.441406 C 460.15625 588.851562 460.015625 590.269531 459.933594 591.695312 C 459.851562 593.117188 459.832031 594.542969 459.871094 595.96875 C 459.910156 597.394531 460.007812 598.816406 460.167969 600.230469 C 460.324219 601.648438 460.542969 603.058594 460.820312 604.457031 C 461.097656 605.855469 461.433594 607.238281 461.828125 608.609375 C 462.222656 609.980469 462.675781 611.332031 463.183594 612.664062 C 463.691406 613.996094 464.257812 615.304688 464.875 616.589844 C 465.496094 617.875 466.167969 619.132812 466.890625 620.359375 C 467.617188 621.589844 468.394531 622.785156 469.21875 623.945312 C 470.042969 625.109375 470.917969 626.234375 471.839844 627.324219 C 472.761719 628.410156 473.726562 629.460938 474.734375 630.46875 L 596.363281 752.097656 C 597.539062 753.273438 598.769531 754.386719 600.050781 755.445312 C 601.335938 756.5 602.667969 757.488281 604.050781 758.414062 C 605.429688 759.335938 606.851562 760.191406 608.320312 760.976562 C 609.785156 761.761719 611.285156 762.46875 612.820312 763.105469 C 614.355469 763.742188 615.917969 764.304688 617.507812 764.785156 C 619.097656 765.269531 620.707031 765.671875 622.335938 765.996094 C 623.964844 766.320312 625.609375 766.566406 627.261719 766.730469 C 628.917969 766.890625 630.574219 766.972656 632.234375 766.972656 C 633.898438 766.972656 635.554688 766.890625 637.210938 766.730469 C 638.863281 766.566406 640.503906 766.320312 642.136719 765.996094 C 643.765625 765.671875 645.375 765.269531 646.964844 764.785156 C 648.554688 764.304688 650.117188 763.742188 651.652344 763.105469 C 653.1875 762.46875 654.6875 761.761719 656.152344 760.976562 C 657.617188 760.191406 659.042969 759.335938 660.421875 758.414062 C 661.804688 757.488281 663.136719 756.5 664.421875 755.445312 C 665.703125 754.386719 666.933594 753.273438 668.105469 752.097656 L 789.738281 630.46875 C 790.746094 629.460938 791.710938 628.410156 792.632812 627.324219 C 793.554688 626.234375 794.425781 625.109375 795.253906 623.945312 C 796.078125 622.78125 796.855469 621.585938 797.582031 620.359375 C 798.304688 619.132812 798.976562 617.875 799.597656 616.589844 C 800.214844 615.304688 800.78125 613.996094 801.289062 612.664062 C 801.796875 611.332031 802.25 609.980469 802.644531 608.609375 C 803.039062 607.238281 803.375 605.855469 803.652344 604.457031 C 803.929688 603.058594 804.148438 601.648438 804.304688 600.230469 C 804.464844 598.816406 804.5625 597.394531 804.601562 595.96875 C 804.640625 594.542969 804.621094 593.117188 804.539062 591.695312 C 804.457031 590.269531 804.316406 588.851562 804.113281 587.441406 C 803.914062 586.027344 803.652344 584.625 803.332031 583.238281 C 803.015625 581.847656 802.636719 580.472656 802.199219 579.113281 C 801.765625 577.757812 801.273438 576.417969 800.726562 575.101562 C 800.175781 573.785156 799.574219 572.496094 798.917969 571.230469 C 798.261719 569.964844 797.550781 568.726562 796.789062 567.523438 C 796.027344 566.316406 795.214844 565.144531 794.355469 564.007812 C 793.496094 562.871094 792.589844 561.769531 791.636719 560.710938 C 790.683594 559.648438 789.683594 558.632812 788.644531 557.65625 C 787.605469 556.675781 786.527344 555.746094 785.410156 554.859375 C 784.292969 553.976562 783.140625 553.136719 781.949219 552.351562 C 780.761719 551.5625 779.542969 550.824219 778.292969 550.140625 C 777.039062 549.453125 775.761719 548.824219 774.460938 548.246094 C 773.15625 547.667969 771.828125 547.148438 770.480469 546.679688 C 769.132812 546.214844 767.769531 545.808594 766.386719 545.457031 C 765.003906 545.105469 763.609375 544.816406 762.203125 544.582031 C 760.792969 544.351562 759.378906 544.179688 757.957031 544.066406 C 756.535156 543.953125 755.113281 543.898438 753.6875 543.90625 C 752.261719 543.914062 750.835938 543.980469 749.417969 544.105469 C 747.996094 544.234375 746.582031 544.421875 745.179688 544.667969 C 743.773438 544.914062 742.382812 545.21875 741.003906 545.582031 C 739.625 545.945312 738.261719 546.367188 736.917969 546.847656 L 682.914062 566.011719 L 682.914062 296.621094 C 682.9375 294.929688 682.878906 293.242188 682.734375 291.554688 C 682.585938 289.871094 682.359375 288.195312 682.046875 286.535156 C 681.734375 284.871094 681.339844 283.230469 680.859375 281.605469 C 680.382812 279.984375 679.828125 278.390625 679.191406 276.824219 C 678.554688 275.253906 677.839844 273.722656 677.050781 272.230469 C 676.257812 270.734375 675.394531 269.28125 674.460938 267.871094 C 673.523438 266.464844 672.523438 265.105469 671.449219 263.796875 C 670.378906 262.488281 669.242188 261.234375 668.046875 260.039062 C 666.851562 258.84375 665.597656 257.710938 664.285156 256.644531 C 662.976562 255.574219 661.617188 254.570312 660.207031 253.636719 C 658.792969 252.707031 657.339844 251.84375 655.84375 251.058594 C 654.347656 250.269531 652.816406 249.558594 651.246094 248.921875 C 649.679688 248.289062 648.082031 247.734375 646.460938 247.257812 C 644.835938 246.785156 643.195312 246.390625 641.53125 246.082031 C 639.867188 245.773438 638.195312 245.546875 636.507812 245.402344 C 634.824219 245.261719 633.136719 245.203125 631.445312 245.230469 Z M 54.496094 245.941406 C 52.820312 245.917969 51.148438 245.976562 49.480469 246.117188 C 47.8125 246.261719 46.15625 246.484375 44.507812 246.792969 C 42.863281 247.097656 41.234375 247.484375 39.625 247.953125 C 38.015625 248.421875 36.4375 248.96875 34.882812 249.589844 C 33.328125 250.214844 31.808594 250.914062 30.324219 251.691406 C 28.839844 252.464844 27.394531 253.3125 25.996094 254.230469 C 24.59375 255.148438 23.242188 256.132812 21.941406 257.1875 C 20.636719 258.238281 19.386719 259.351562 18.195312 260.527344 C 17.003906 261.703125 15.871094 262.9375 14.800781 264.226562 C 13.730469 265.511719 12.726562 266.851562 11.789062 268.238281 C 10.851562 269.625 9.984375 271.058594 9.1875 272.53125 C 8.390625 274.003906 7.667969 275.515625 7.023438 277.058594 C 6.378906 278.605469 5.808594 280.175781 5.316406 281.777344 C 4.828125 283.378906 4.417969 285.003906 4.089844 286.644531 C 3.757812 288.285156 3.511719 289.941406 3.34375 291.609375 C 3.179688 293.273438 3.097656 294.945312 3.097656 296.621094 C 3.097656 298.296875 3.179688 299.964844 3.34375 301.632812 C 3.511719 303.300781 3.757812 304.953125 4.089844 306.597656 C 4.417969 308.238281 4.828125 309.859375 5.316406 311.460938 C 5.808594 313.0625 6.378906 314.636719 7.023438 316.179688 C 7.667969 317.726562 8.390625 319.234375 9.1875 320.710938 C 9.984375 322.183594 10.851562 323.613281 11.789062 325 C 12.726562 326.390625 13.730469 327.726562 14.800781 329.015625 C 15.871094 330.304688 17.003906 331.535156 18.195312 332.710938 C 19.386719 333.886719 20.636719 335 21.941406 336.054688 C 23.242188 337.105469 24.59375 338.089844 25.996094 339.007812 C 27.394531 339.925781 28.839844 340.773438 30.324219 341.550781 C 31.808594 342.324219 33.328125 343.023438 34.882812 343.648438 C 36.4375 344.273438 38.015625 344.820312 39.625 345.289062 C 41.234375 345.753906 42.863281 346.140625 44.507812 346.449219 C 46.15625 346.753906 47.8125 346.980469 49.480469 347.121094 C 51.148438 347.261719 52.820312 347.324219 54.496094 347.300781 L 399.113281 347.300781 C 400.789062 347.324219 402.460938 347.261719 404.128906 347.121094 C 405.796875 346.980469 407.457031 346.753906 409.101562 346.449219 C 410.75 346.140625 412.375 345.753906 413.984375 345.289062 C 415.59375 344.820312 417.171875 344.273438 418.726562 343.648438 C 420.28125 343.023438 421.800781 342.324219 423.285156 341.550781 C 424.769531 340.773438 426.214844 339.925781 427.613281 339.007812 C 429.015625 338.089844 430.367188 337.105469 431.671875 336.054688 C 432.972656 335 434.222656 333.886719 435.414062 332.710938 C 436.605469 331.535156 437.738281 330.304688 438.808594 329.015625 C 439.878906 327.726562 440.882812 326.390625 441.820312 325 C 442.757812 323.613281 443.625 322.183594 444.421875 320.710938 C 445.21875 319.234375 445.941406 317.726562 446.585938 316.179688 C 447.234375 314.636719 447.800781 313.0625 448.292969 311.460938 C 448.78125 309.859375 449.191406 308.238281 449.523438 306.597656 C 449.851562 304.953125 450.097656 303.300781 450.265625 301.632812 C 450.429688 299.964844 450.511719 298.296875 450.511719 296.621094 C 450.511719 294.945312 450.429688 293.273438 450.265625 291.609375 C 450.097656 289.941406 449.851562 288.285156 449.523438 286.644531 C 449.191406 285.003906 448.78125 283.378906 448.292969 281.777344 C 447.800781 280.175781 447.234375 278.605469 446.585938 277.058594 C 445.941406 275.515625 445.21875 274.003906 444.421875 272.53125 C 443.625 271.058594 442.757812 269.625 441.820312 268.238281 C 440.882812 266.851562 439.878906 265.511719 438.808594 264.226562 C 437.738281 262.9375 436.605469 261.703125 435.414062 260.527344 C 434.222656 259.351562 432.972656 258.238281 431.671875 257.1875 C 430.367188 256.132812 429.015625 255.148438 427.613281 254.230469 C 426.214844 253.3125 424.769531 252.464844 423.285156 251.691406 C 421.800781 250.914062 420.28125 250.214844 418.726562 249.589844 C 417.171875 248.96875 415.59375 248.421875 413.984375 247.953125 C 412.375 247.484375 410.75 247.097656 409.101562 246.792969 C 407.457031 246.484375 405.796875 246.261719 404.128906 246.117188 C 402.460938 245.976562 400.789062 245.917969 399.113281 245.941406 Z M 54.496094 448.65625 C 52.820312 448.632812 51.148438 448.691406 49.480469 448.835938 C 47.8125 448.976562 46.15625 449.199219 44.507812 449.507812 C 42.863281 449.8125 41.234375 450.199219 39.625 450.667969 C 38.019531 451.136719 36.4375 451.683594 34.882812 452.308594 C 33.328125 452.929688 31.808594 453.632812 30.324219 454.40625 C 28.839844 455.183594 27.398438 456.027344 25.996094 456.945312 C 24.59375 457.863281 23.242188 458.851562 21.941406 459.902344 C 20.636719 460.953125 19.390625 462.070312 18.195312 463.246094 C 17.003906 464.421875 15.871094 465.652344 14.800781 466.941406 C 13.730469 468.230469 12.726562 469.566406 11.789062 470.953125 C 10.851562 472.34375 9.984375 473.773438 9.1875 475.246094 C 8.390625 476.71875 7.671875 478.230469 7.023438 479.773438 C 6.378906 481.320312 5.808594 482.894531 5.320312 484.496094 C 4.828125 486.097656 4.417969 487.71875 4.089844 489.359375 C 3.757812 491.003906 3.511719 492.65625 3.347656 494.324219 C 3.179688 495.988281 3.097656 497.660156 3.097656 499.335938 C 3.097656 501.011719 3.179688 502.679688 3.347656 504.347656 C 3.511719 506.015625 3.757812 507.667969 4.089844 509.3125 C 4.417969 510.953125 4.828125 512.574219 5.320312 514.175781 C 5.808594 515.777344 6.378906 517.351562 7.023438 518.898438 C 7.671875 520.441406 8.390625 521.953125 9.1875 523.425781 C 9.984375 524.898438 10.851562 526.328125 11.789062 527.71875 C 12.726562 529.105469 13.730469 530.441406 14.800781 531.730469 C 15.871094 533.019531 17.003906 534.25 18.195312 535.425781 C 19.390625 536.601562 20.636719 537.714844 21.941406 538.769531 C 23.242188 539.820312 24.59375 540.804688 25.996094 541.726562 C 27.398438 542.644531 28.839844 543.488281 30.324219 544.265625 C 31.808594 545.039062 33.328125 545.738281 34.882812 546.363281 C 36.4375 546.988281 38.019531 547.535156 39.625 548.003906 C 41.234375 548.46875 42.863281 548.859375 44.507812 549.164062 C 46.15625 549.46875 47.8125 549.695312 49.480469 549.835938 C 51.148438 549.980469 52.820312 550.039062 54.496094 550.015625 L 277.484375 550.015625 C 279.160156 550.039062 280.832031 549.980469 282.5 549.835938 C 284.167969 549.695312 285.824219 549.46875 287.472656 549.164062 C 289.117188 548.859375 290.746094 548.46875 292.355469 548.003906 C 293.964844 547.535156 295.542969 546.988281 297.097656 546.363281 C 298.652344 545.738281 300.171875 545.039062 301.65625 544.265625 C 303.140625 543.488281 304.585938 542.644531 305.984375 541.726562 C 307.386719 540.804688 308.738281 539.820312 310.039062 538.769531 C 311.34375 537.714844 312.589844 536.601562 313.785156 535.425781 C 314.976562 534.25 316.109375 533.019531 317.179688 531.730469 C 318.25 530.441406 319.253906 529.105469 320.191406 527.71875 C 321.128906 526.328125 321.996094 524.898438 322.792969 523.425781 C 323.589844 521.953125 324.308594 520.441406 324.957031 518.898438 C 325.601562 517.351562 326.171875 515.777344 326.660156 514.175781 C 327.152344 512.574219 327.5625 510.953125 327.890625 509.3125 C 328.222656 507.667969 328.46875 506.015625 328.636719 504.347656 C 328.800781 502.679688 328.882812 501.011719 328.882812 499.335938 C 328.882812 497.660156 328.800781 495.988281 328.636719 494.324219 C 328.46875 492.65625 328.222656 491.003906 327.890625 489.359375 C 327.5625 487.71875 327.152344 486.097656 326.660156 484.496094 C 326.171875 482.894531 325.601562 481.320312 324.957031 479.773438 C 324.308594 478.230469 323.589844 476.71875 322.792969 475.246094 C 321.996094 473.773438 321.128906 472.34375 320.191406 470.953125 C 319.253906 469.566406 318.25 468.230469 317.179688 466.941406 C 316.109375 465.652344 314.976562 464.421875 313.785156 463.246094 C 312.589844 462.070312 311.34375 460.953125 310.039062 459.902344 C 308.738281 458.851562 307.386719 457.863281 305.984375 456.945312 C 304.585938 456.027344 303.140625 455.183594 301.65625 454.40625 C 300.171875 453.632812 298.652344 452.933594 297.097656 452.308594 C 295.542969 451.683594 293.964844 451.136719 292.355469 450.667969 C 290.746094 450.199219 289.117188 449.8125 287.472656 449.507812 C 285.824219 449.199219 284.167969 448.976562 282.5 448.835938 C 280.832031 448.691406 279.160156 448.632812 277.484375 448.65625 Z M 54.496094 651.371094 C 52.820312 651.347656 51.148438 651.40625 49.480469 651.550781 C 47.8125 651.691406 46.15625 651.917969 44.507812 652.222656 C 42.863281 652.527344 41.234375 652.917969 39.625 653.382812 C 38.019531 653.851562 36.4375 654.398438 34.882812 655.023438 C 33.328125 655.648438 31.808594 656.347656 30.324219 657.121094 C 28.839844 657.898438 27.398438 658.742188 25.996094 659.660156 C 24.59375 660.582031 23.242188 661.566406 21.941406 662.617188 C 20.636719 663.671875 19.390625 664.785156 18.195312 665.960938 C 17.003906 667.136719 15.871094 668.367188 14.800781 669.65625 C 13.730469 670.945312 12.726562 672.28125 11.789062 673.667969 C 10.851562 675.058594 9.984375 676.488281 9.1875 677.960938 C 8.390625 679.4375 7.671875 680.945312 7.023438 682.488281 C 6.378906 684.035156 5.808594 685.609375 5.320312 687.210938 C 4.828125 688.8125 4.417969 690.433594 4.089844 692.074219 C 3.757812 693.71875 3.511719 695.371094 3.347656 697.039062 C 3.179688 698.707031 3.097656 700.375 3.097656 702.050781 C 3.097656 703.726562 3.179688 705.398438 3.347656 707.0625 C 3.511719 708.730469 3.757812 710.382812 4.089844 712.027344 C 4.417969 713.667969 4.828125 715.289062 5.320312 716.890625 C 5.808594 718.492188 6.378906 720.066406 7.023438 721.613281 C 7.671875 723.15625 8.390625 724.667969 9.1875 726.140625 C 9.984375 727.613281 10.851562 729.042969 11.789062 730.433594 C 12.726562 731.820312 13.730469 733.15625 14.800781 734.445312 C 15.871094 735.734375 17.003906 736.964844 18.195312 738.140625 C 19.390625 739.316406 20.636719 740.433594 21.941406 741.484375 C 23.242188 742.535156 24.59375 743.523438 25.996094 744.441406 C 27.398438 745.359375 28.839844 746.203125 30.324219 746.980469 C 31.808594 747.753906 33.328125 748.457031 34.882812 749.078125 C 36.4375 749.703125 38.019531 750.25 39.625 750.71875 C 41.234375 751.1875 42.863281 751.574219 44.507812 751.878906 C 46.15625 752.1875 47.8125 752.410156 49.480469 752.550781 C 51.148438 752.695312 52.820312 752.753906 54.496094 752.730469 L 155.855469 752.730469 C 157.53125 752.753906 159.199219 752.695312 160.871094 752.550781 C 162.539062 752.410156 164.195312 752.1875 165.84375 751.878906 C 167.488281 751.574219 169.117188 751.1875 170.726562 750.71875 C 172.332031 750.25 173.914062 749.703125 175.46875 749.078125 C 177.023438 748.457031 178.542969 747.753906 180.027344 746.980469 C 181.511719 746.203125 182.953125 745.359375 184.355469 744.441406 C 185.757812 743.523438 187.109375 742.535156 188.410156 741.484375 C 189.714844 740.433594 190.960938 739.316406 192.15625 738.140625 C 193.347656 736.964844 194.480469 735.734375 195.550781 734.445312 C 196.621094 733.15625 197.625 731.820312 198.5625 730.433594 C 199.5 729.042969 200.367188 727.613281 201.164062 726.140625 C 201.960938 724.667969 202.679688 723.15625 203.328125 721.613281 C 203.972656 720.066406 204.542969 718.492188 205.03125 716.890625 C 205.523438 715.289062 205.933594 713.667969 206.261719 712.027344 C 206.59375 710.382812 206.839844 708.730469 207.003906 707.0625 C 207.171875 705.398438 207.253906 703.726562 207.253906 702.050781 C 207.253906 700.375 207.171875 698.707031 207.003906 697.039062 C 206.839844 695.371094 206.59375 693.71875 206.261719 692.074219 C 205.933594 690.433594 205.523438 688.8125 205.03125 687.210938 C 204.542969 685.609375 203.972656 684.035156 203.328125 682.488281 C 202.679688 680.945312 201.960938 679.4375 201.164062 677.960938 C 200.367188 676.488281 199.5 675.058594 198.5625 673.667969 C 197.625 672.28125 196.621094 670.945312 195.550781 669.65625 C 194.480469 668.367188 193.347656 667.136719 192.15625 665.960938 C 190.960938 664.785156 189.714844 663.671875 188.410156 662.617188 C 187.109375 661.566406 185.757812 660.582031 184.355469 659.664062 C 182.953125 658.742188 181.511719 657.898438 180.027344 657.121094 C 178.542969 656.347656 177.023438 655.648438 175.46875 655.023438 C 173.914062 654.398438 172.332031 653.851562 170.726562 653.382812 C 169.117188 652.917969 167.488281 652.527344 165.84375 652.222656 C 164.195312 651.917969 162.539062 651.691406 160.871094 651.550781 C 159.199219 651.40625 157.53125 651.347656 155.855469 651.371094 Z M 54.496094 651.371094 " fill-opacity="1" fill-rule="nonzero"/></g></svg>