<svg xmlns="http://www.w3.org/2000/svg" xmlns:xlink="http://www.w3.org/1999/xlink" width="1080" zoomAndPan="magnify" viewBox="0 0 810 809.999993" height="1080" preserveAspectRatio="xMidYMid meet" version="1.0"><defs><clipPath id="fb85c9e975"><path d="M 12.519531 0 L 797.769531 0 L 797.769531 810 L 12.519531 810 Z M 12.519531 0 " clip-rule="nonzero"/></clipPath></defs><g clip-path="url(#fb85c9e975)"><path fill="#475dd7" d="M 616.339844 723.699219 L 616.339844 759.230469 C 616.339844 787.152344 639.007812 809.820312 666.929688 809.820312 C 694.847656 809.820312 717.515625 787.152344 717.515625 759.230469 L 717.515625 612.695312 C 717.515625 612.523438 717.515625 612.347656 717.503906 612.183594 C 717.351562 597.9375 711.226562 583.839844 699.480469 573.96875 C 690.132812 566.113281 678.761719 562.214844 667.421875 562.113281 C 667.257812 562.105469 667.09375 562.105469 666.929688 562.105469 L 520.390625 562.105469 C 492.472656 562.105469 469.800781 584.773438 469.800781 612.695312 C 469.800781 638.625 489.34375 660.015625 514.488281 662.941406 C 480.699219 676.664062 443.777344 684.222656 405.101562 684.222656 C 244.308594 684.222656 113.765625 553.679688 113.765625 392.890625 C 113.765625 364.96875 91.097656 342.300781 63.179688 342.300781 C 35.257812 342.300781 12.585938 364.96875 12.585938 392.890625 C 12.585938 609.519531 188.46875 785.398438 405.101562 785.398438 C 482.847656 785.398438 555.347656 762.753906 616.339844 723.699219 Z M 92.6875 198.019531 C 92.839844 212.261719 98.964844 226.359375 110.714844 236.230469 C 120.0625 244.09375 131.433594 247.984375 142.773438 248.085938 C 142.9375 248.09375 143.101562 248.101562 143.265625 248.101562 L 289.804688 248.101562 C 317.722656 248.101562 340.398438 225.429688 340.398438 197.503906 C 340.398438 171.582031 320.847656 150.183594 295.703125 147.257812 C 329.492188 133.539062 366.421875 125.984375 405.101562 125.984375 C 565.886719 125.984375 696.425781 256.527344 696.425781 417.3125 C 696.425781 445.230469 719.09375 467.898438 747.019531 467.898438 C 774.941406 467.898438 797.609375 445.230469 797.609375 417.3125 C 797.609375 200.679688 621.730469 24.804688 405.101562 24.804688 C 327.351562 24.804688 254.847656 47.453125 193.859375 86.5 L 193.859375 50.96875 C 193.859375 23.046875 171.191406 0.378906 143.265625 0.378906 C 115.34375 0.378906 92.675781 23.046875 92.675781 50.96875 L 92.675781 197.503906 C 92.675781 197.679688 92.683594 197.851562 92.6875 198.019531 Z M 92.6875 198.019531 " fill-opacity="1" fill-rule="evenodd"/></g></svg>