<svg xmlns="http://www.w3.org/2000/svg" xmlns:xlink="http://www.w3.org/1999/xlink" width="1080" zoomAndPan="magnify" viewBox="0 0 810 809.999993" height="1080" preserveAspectRatio="xMidYMid meet" version="1.0"><defs><clipPath id="768a8d64b9"><path d="M 7 5 L 809 5 L 809 806.792969 L 7 806.792969 Z M 7 5 " clip-rule="nonzero"/></clipPath></defs><g clip-path="url(#768a8d64b9)"><path fill="#475dd7" d="M 347.378906 806.363281 C 342.609375 806.371094 337.882812 805.914062 333.203125 804.988281 C 328.523438 804.0625 323.980469 802.691406 319.570312 800.867188 C 315.164062 799.042969 310.976562 796.808594 307.011719 794.15625 C 303.042969 791.507812 299.375 788.492188 296.003906 785.117188 L 28.332031 517.445312 C 27.492188 516.601562 26.671875 515.742188 25.875 514.859375 C 25.078125 513.976562 24.304688 513.078125 23.550781 512.15625 C 22.796875 511.238281 22.066406 510.300781 21.359375 509.34375 C 20.652344 508.390625 19.96875 507.417969 19.308594 506.429688 C 18.648438 505.441406 18.015625 504.4375 17.40625 503.414062 C 16.792969 502.394531 16.210938 501.363281 15.648438 500.3125 C 15.089844 499.265625 14.558594 498.203125 14.050781 497.128906 C 13.542969 496.054688 13.0625 494.964844 12.605469 493.867188 C 12.152344 492.769531 11.726562 491.660156 11.324219 490.542969 C 10.925781 489.421875 10.554688 488.292969 10.207031 487.15625 C 9.863281 486.019531 9.546875 484.871094 9.257812 483.71875 C 8.972656 482.566406 8.710938 481.40625 8.480469 480.242188 C 8.246094 479.074219 8.042969 477.90625 7.871094 476.730469 C 7.695312 475.554688 7.550781 474.375 7.433594 473.191406 C 7.320312 472.007812 7.230469 470.824219 7.171875 469.636719 C 7.113281 468.449219 7.085938 467.261719 7.085938 466.070312 C 7.085938 464.882812 7.113281 463.695312 7.171875 462.507812 C 7.230469 461.320312 7.320312 460.136719 7.433594 458.953125 C 7.550781 457.769531 7.695312 456.589844 7.871094 455.414062 C 8.042969 454.238281 8.246094 453.066406 8.480469 451.902344 C 8.710938 450.734375 8.972656 449.578125 9.257812 448.421875 C 9.546875 447.269531 9.863281 446.125 10.207031 444.988281 C 10.554688 443.851562 10.925781 442.722656 11.324219 441.601562 C 11.726562 440.480469 12.152344 439.375 12.605469 438.273438 C 13.0625 437.175781 13.542969 436.089844 14.050781 435.015625 C 14.558594 433.941406 15.089844 432.878906 15.648438 431.828125 C 16.210938 430.78125 16.792969 429.746094 17.40625 428.726562 C 18.015625 427.707031 18.648438 426.703125 19.308594 425.714844 C 19.96875 424.722656 20.652344 423.753906 21.359375 422.796875 C 22.066406 421.839844 22.796875 420.902344 23.550781 419.984375 C 24.304688 419.066406 25.078125 418.164062 25.875 417.28125 C 26.671875 416.402344 27.492188 415.539062 28.332031 414.699219 L 416.132812 26.898438 C 418.054688 24.964844 420.078125 23.148438 422.207031 21.445312 C 424.335938 19.742188 426.550781 18.164062 428.859375 16.714844 C 431.164062 15.261719 433.546875 13.945312 436.003906 12.761719 C 438.457031 11.578125 440.972656 10.539062 443.546875 9.640625 C 446.117188 8.742188 448.734375 7.992188 451.390625 7.386719 C 454.050781 6.785156 456.734375 6.335938 459.445312 6.035156 C 462.152344 5.738281 464.871094 5.59375 467.597656 5.601562 C 470.320312 5.609375 473.039062 5.773438 475.746094 6.089844 L 743.445312 36.65625 C 761.78125 38.753906 777.09375 54.15625 779.066406 72.5 L 807.582031 338.019531 C 807.875 340.710938 808.019531 343.40625 808.011719 346.113281 C 808.003906 348.816406 807.84375 351.515625 807.535156 354.199219 C 807.222656 356.886719 806.761719 359.550781 806.152344 362.183594 C 805.546875 364.820312 804.789062 367.414062 803.890625 369.964844 C 802.992188 372.515625 801.949219 375.007812 800.769531 377.445312 C 799.589844 379.878906 798.277344 382.238281 796.832031 384.523438 C 795.390625 386.8125 793.820312 389.011719 792.128906 391.121094 C 790.4375 393.234375 788.632812 395.242188 786.71875 397.152344 L 398.746094 785.117188 C 395.378906 788.492188 391.707031 791.507812 387.742188 794.15625 C 383.777344 796.804688 379.589844 799.042969 375.183594 800.867188 C 370.773438 802.6875 366.230469 804.0625 361.550781 804.988281 C 356.871094 805.914062 352.148438 806.371094 347.378906 806.363281 Z M 467.433594 36.679688 C 464.707031 36.679688 462.007812 36.945312 459.332031 37.476562 C 456.660156 38.007812 454.066406 38.796875 451.546875 39.84375 C 449.03125 40.886719 446.640625 42.171875 444.375 43.6875 C 442.113281 45.207031 440.019531 46.933594 438.097656 48.863281 L 50.296875 436.667969 C 49.335938 437.628906 48.421875 438.636719 47.558594 439.691406 C 46.695312 440.742188 45.882812 441.835938 45.125 442.96875 C 44.371094 444.101562 43.671875 445.265625 43.027344 446.46875 C 42.386719 447.667969 41.804688 448.898438 41.285156 450.15625 C 40.761719 451.417969 40.304688 452.695312 39.910156 454 C 39.511719 455.304688 39.183594 456.625 38.917969 457.960938 C 38.652344 459.296875 38.453125 460.640625 38.316406 461.996094 C 38.183594 463.351562 38.117188 464.710938 38.117188 466.070312 C 38.117188 467.433594 38.183594 468.792969 38.316406 470.148438 C 38.453125 471.503906 38.652344 472.847656 38.917969 474.183594 C 39.183594 475.519531 39.511719 476.839844 39.910156 478.144531 C 40.304688 479.449219 40.761719 480.726562 41.285156 481.988281 C 41.804688 483.246094 42.386719 484.472656 43.027344 485.675781 C 43.671875 486.875 44.371094 488.042969 45.125 489.175781 C 45.882812 490.308594 46.695312 491.402344 47.558594 492.453125 C 48.421875 493.507812 49.335938 494.515625 50.296875 495.476562 L 317.976562 763.152344 C 318.9375 764.113281 319.945312 765.027344 321 765.890625 C 322.050781 766.757812 323.144531 767.566406 324.277344 768.324219 C 325.410156 769.078125 326.578125 769.78125 327.777344 770.421875 C 328.980469 771.0625 330.207031 771.644531 331.464844 772.167969 C 332.726562 772.6875 334.003906 773.144531 335.308594 773.542969 C 336.613281 773.9375 337.933594 774.265625 339.269531 774.53125 C 340.605469 774.796875 341.949219 775 343.304688 775.132812 C 344.660156 775.265625 346.019531 775.332031 347.378906 775.332031 C 348.742188 775.332031 350.101562 775.265625 351.457031 775.132812 C 352.8125 775 354.15625 774.796875 355.492188 774.53125 C 356.828125 774.265625 358.148438 773.9375 359.453125 773.542969 C 360.757812 773.144531 362.035156 772.6875 363.296875 772.167969 C 364.554688 771.644531 365.78125 771.0625 366.984375 770.421875 C 368.183594 769.78125 369.351562 769.078125 370.484375 768.324219 C 371.617188 767.566406 372.710938 766.757812 373.761719 765.890625 C 374.816406 765.027344 375.824219 764.113281 376.785156 763.152344 L 764.753906 375.183594 C 766.953125 372.992188 768.882812 370.582031 770.542969 367.957031 C 772.203125 365.332031 773.546875 362.554688 774.582031 359.625 C 775.617188 356.695312 776.308594 353.6875 776.667969 350.601562 C 777.023438 347.515625 777.03125 344.425781 776.695312 341.339844 L 748.175781 75.816406 C 747.753906 71.851562 743.894531 67.972656 739.921875 67.523438 L 472.21875 36.953125 C 470.628906 36.773438 469.03125 36.679688 467.433594 36.679688 Z M 467.433594 36.679688 " fill-opacity="1" fill-rule="nonzero"/></g><path fill="#475dd7" d="M 658.339844 211.71875 C 657.257812 211.71875 656.179688 211.6875 655.101562 211.625 C 654.019531 211.5625 652.945312 211.46875 651.871094 211.347656 C 650.796875 211.222656 649.726562 211.070312 648.660156 210.882812 C 647.597656 210.699219 646.539062 210.484375 645.484375 210.238281 C 644.433594 209.992188 643.386719 209.71875 642.351562 209.414062 C 641.3125 209.109375 640.285156 208.773438 639.269531 208.410156 C 638.25 208.042969 637.246094 207.652344 636.25 207.230469 C 635.253906 206.808594 634.273438 206.359375 633.300781 205.878906 C 632.332031 205.402344 631.378906 204.898438 630.4375 204.363281 C 629.496094 203.832031 628.570312 203.273438 627.664062 202.6875 C 626.753906 202.101562 625.863281 201.488281 624.992188 200.851562 C 624.117188 200.214844 623.261719 199.554688 622.425781 198.867188 C 621.589844 198.183594 620.777344 197.472656 619.980469 196.742188 C 619.1875 196.007812 618.414062 195.253906 617.660156 194.476562 C 616.910156 193.699219 616.179688 192.902344 615.476562 192.085938 C 614.769531 191.265625 614.085938 190.429688 613.429688 189.570312 C 612.769531 188.710938 612.136719 187.835938 611.53125 186.941406 C 610.921875 186.050781 610.339844 185.140625 609.785156 184.210938 C 609.230469 183.285156 608.699219 182.34375 608.199219 181.386719 C 607.695312 180.425781 607.222656 179.457031 606.777344 178.472656 C 606.332031 177.488281 605.914062 176.492188 605.523438 175.480469 C 605.136719 174.472656 604.773438 173.453125 604.445312 172.425781 C 604.113281 171.398438 603.8125 170.359375 603.542969 169.3125 C 603.269531 168.265625 603.027344 167.214844 602.820312 166.152344 C 602.609375 165.09375 602.425781 164.027344 602.277344 162.957031 C 602.128906 161.886719 602.007812 160.8125 601.921875 159.734375 C 601.832031 158.65625 601.773438 157.578125 601.746094 156.5 C 601.722656 155.417969 601.726562 154.335938 601.761719 153.257812 C 601.796875 152.175781 601.863281 151.097656 601.960938 150.019531 C 602.058594 148.945312 602.183594 147.871094 602.34375 146.800781 C 602.503906 145.734375 602.691406 144.667969 602.910156 143.609375 C 603.128906 142.550781 603.378906 141.5 603.660156 140.457031 C 603.9375 139.414062 604.25 138.378906 604.585938 137.351562 C 604.925781 136.324219 605.292969 135.308594 605.691406 134.304688 C 606.089844 133.296875 606.515625 132.304688 606.96875 131.324219 C 607.421875 130.34375 607.90625 129.375 608.414062 128.421875 C 608.925781 127.46875 609.460938 126.53125 610.023438 125.609375 C 610.585938 124.6875 611.175781 123.78125 611.792969 122.890625 C 612.40625 122.003906 613.046875 121.132812 613.710938 120.28125 C 614.378906 119.429688 615.066406 118.597656 615.777344 117.785156 C 616.492188 116.972656 617.226562 116.179688 617.984375 115.410156 C 618.742188 114.636719 619.523438 113.890625 620.324219 113.164062 C 621.125 112.4375 621.945312 111.734375 622.785156 111.058594 C 623.628906 110.378906 624.488281 109.722656 625.367188 109.09375 C 626.246094 108.464844 627.140625 107.859375 628.054688 107.28125 C 628.96875 106.703125 629.894531 106.152344 630.839844 105.628906 C 631.785156 105.101562 632.746094 104.605469 633.71875 104.132812 C 634.691406 103.664062 635.679688 103.222656 636.675781 102.808594 C 637.675781 102.394531 638.683594 102.011719 639.707031 101.65625 C 640.726562 101.296875 641.757812 100.972656 642.796875 100.675781 C 643.835938 100.378906 644.882812 100.113281 645.9375 99.875 C 646.992188 99.636719 648.050781 99.433594 649.117188 99.253906 C 650.183594 99.078125 651.253906 98.933594 652.332031 98.820312 C 653.40625 98.703125 654.484375 98.621094 655.5625 98.566406 C 656.640625 98.515625 657.722656 98.492188 658.804688 98.5 C 659.882812 98.511719 660.964844 98.550781 662.042969 98.621094 C 663.121094 98.691406 664.195312 98.792969 665.269531 98.925781 C 666.34375 99.058594 667.410156 99.21875 668.472656 99.414062 C 669.539062 99.609375 670.59375 99.832031 671.644531 100.085938 C 672.695312 100.339844 673.738281 100.625 674.773438 100.9375 C 675.808594 101.25 676.832031 101.59375 677.847656 101.964844 C 678.859375 102.339844 679.863281 102.742188 680.855469 103.171875 C 681.847656 103.601562 682.828125 104.058594 683.792969 104.542969 C 684.757812 105.03125 685.707031 105.542969 686.644531 106.082031 C 687.582031 106.625 688.5 107.191406 689.402344 107.785156 C 690.308594 108.378906 691.195312 108.996094 692.0625 109.640625 C 692.929688 110.285156 693.777344 110.953125 694.609375 111.644531 C 695.4375 112.335938 696.25 113.054688 697.039062 113.792969 C 697.828125 114.53125 698.59375 115.292969 699.339844 116.074219 C 700.085938 116.859375 700.804688 117.660156 701.503906 118.484375 C 702.207031 119.308594 702.878906 120.152344 703.53125 121.015625 C 704.183594 121.878906 704.808594 122.761719 705.410156 123.660156 C 706.007812 124.558594 706.582031 125.472656 707.132812 126.40625 C 707.679688 127.335938 708.199219 128.28125 708.695312 129.246094 C 709.1875 130.207031 709.652344 131.179688 710.09375 132.167969 C 710.53125 133.15625 710.941406 134.15625 711.320312 135.167969 C 711.703125 136.179688 712.050781 137.203125 712.375 138.234375 C 712.695312 139.265625 712.988281 140.304688 713.253906 141.355469 C 713.515625 142.402344 713.746094 143.457031 713.949219 144.519531 C 714.152344 145.582031 714.324219 146.648438 714.464844 147.71875 C 714.605469 148.792969 714.714844 149.867188 714.796875 150.945312 C 714.875 152.023438 714.921875 153.101562 714.941406 154.183594 C 714.957031 155.265625 714.945312 156.34375 714.902344 157.425781 C 714.855469 158.503906 714.78125 159.582031 714.675781 160.65625 C 714.570312 161.734375 714.433594 162.804688 714.265625 163.875 C 714.097656 164.941406 713.902344 166.003906 713.671875 167.058594 C 713.445312 168.117188 713.1875 169.164062 712.898438 170.207031 C 712.609375 171.25 712.292969 172.28125 711.945312 173.304688 C 711.597656 174.328125 711.21875 175.34375 710.816406 176.34375 C 710.410156 177.347656 709.976562 178.335938 709.511719 179.3125 C 709.050781 180.289062 708.5625 181.253906 708.042969 182.203125 C 707.527344 183.152344 706.984375 184.085938 706.414062 185.003906 C 705.839844 185.921875 705.246094 186.820312 704.621094 187.703125 C 704 188.589844 703.351562 189.453125 702.679688 190.300781 C 702.007812 191.148438 701.3125 191.972656 700.59375 192.78125 C 699.875 193.585938 699.132812 194.375 698.367188 195.136719 C 695.746094 197.773438 692.890625 200.128906 689.800781 202.199219 C 686.710938 204.269531 683.449219 206.015625 680.015625 207.4375 C 676.578125 208.859375 673.039062 209.933594 669.390625 210.652344 C 665.742188 211.371094 662.058594 211.726562 658.339844 211.71875 Z M 658.339844 129.566406 C 657.816406 129.566406 657.296875 129.582031 656.773438 129.613281 C 656.253906 129.648438 655.730469 129.695312 655.214844 129.757812 C 654.695312 129.824219 654.179688 129.902344 653.664062 130 C 653.152344 130.09375 652.640625 130.207031 652.132812 130.332031 C 651.625 130.460938 651.125 130.601562 650.625 130.757812 C 650.128906 130.917969 649.636719 131.089844 649.148438 131.277344 C 648.660156 131.464844 648.179688 131.667969 647.703125 131.886719 C 647.226562 132.105469 646.761719 132.335938 646.300781 132.582031 C 645.839844 132.828125 645.386719 133.089844 644.941406 133.363281 C 644.496094 133.636719 644.058594 133.925781 643.632812 134.226562 C 643.207031 134.527344 642.789062 134.839844 642.378906 135.167969 C 641.972656 135.492188 641.574219 135.832031 641.1875 136.183594 C 640.800781 136.535156 640.421875 136.898438 640.058594 137.269531 C 639.695312 137.644531 639.339844 138.03125 639 138.425781 C 638.65625 138.820312 638.328125 139.226562 638.011719 139.644531 C 637.695312 140.058594 637.390625 140.484375 637.101562 140.917969 C 636.8125 141.351562 636.535156 141.796875 636.273438 142.246094 C 636.007812 142.699219 635.761719 143.160156 635.523438 143.625 C 635.289062 144.09375 635.070312 144.566406 634.863281 145.046875 C 634.65625 145.527344 634.464844 146.011719 634.289062 146.503906 C 634.113281 146.996094 633.953125 147.492188 633.808594 147.996094 C 633.664062 148.496094 633.53125 149.003906 633.417969 149.511719 C 633.304688 150.023438 633.203125 150.535156 633.121094 151.050781 C 633.039062 151.566406 632.972656 152.085938 632.921875 152.605469 C 632.867188 153.125 632.832031 153.648438 632.816406 154.167969 C 632.796875 154.691406 632.792969 155.214844 632.804688 155.734375 C 632.816406 156.257812 632.847656 156.78125 632.890625 157.300781 C 632.9375 157.820312 632.996094 158.339844 633.074219 158.855469 C 633.152344 159.375 633.242188 159.886719 633.351562 160.398438 C 633.460938 160.910156 633.582031 161.417969 633.722656 161.921875 C 633.863281 162.425781 634.015625 162.925781 634.1875 163.417969 C 634.355469 163.914062 634.542969 164.402344 634.742188 164.882812 C 634.941406 165.367188 635.15625 165.84375 635.386719 166.3125 C 635.613281 166.78125 635.859375 167.246094 636.117188 167.699219 C 636.375 168.152344 636.644531 168.601562 636.929688 169.039062 C 637.214844 169.476562 637.511719 169.90625 637.824219 170.324219 C 638.136719 170.746094 638.457031 171.15625 638.796875 171.554688 C 639.132812 171.953125 639.480469 172.34375 639.839844 172.722656 C 640.199219 173.101562 640.574219 173.46875 640.957031 173.824219 C 641.339844 174.179688 641.730469 174.523438 642.136719 174.855469 C 642.539062 175.183594 642.953125 175.503906 643.375 175.808594 C 643.800781 176.117188 644.234375 176.410156 644.675781 176.6875 C 645.117188 176.96875 645.566406 177.234375 646.023438 177.488281 C 646.480469 177.738281 646.945312 177.976562 647.417969 178.199219 C 647.890625 178.421875 648.371094 178.632812 648.855469 178.824219 C 649.339844 179.019531 649.832031 179.199219 650.328125 179.363281 C 650.824219 179.527344 651.324219 179.675781 651.828125 179.808594 C 652.335938 179.941406 652.84375 180.058594 653.355469 180.160156 C 653.867188 180.261719 654.382812 180.347656 654.902344 180.417969 C 655.421875 180.488281 655.941406 180.542969 656.460938 180.582031 C 656.980469 180.621094 657.503906 180.644531 658.027344 180.648438 C 658.546875 180.65625 659.070312 180.648438 659.59375 180.621094 C 660.113281 180.597656 660.636719 180.554688 661.15625 180.496094 C 661.675781 180.4375 662.191406 180.367188 662.707031 180.277344 C 663.222656 180.1875 663.734375 180.082031 664.242188 179.960938 C 664.75 179.839844 665.253906 179.703125 665.753906 179.550781 C 666.253906 179.402344 666.75 179.234375 667.238281 179.050781 C 667.730469 178.871094 668.210938 178.671875 668.691406 178.460938 C 669.167969 178.25 669.640625 178.023438 670.101562 177.78125 C 670.566406 177.542969 671.023438 177.289062 671.472656 177.019531 C 671.917969 176.75 672.359375 176.46875 672.789062 176.171875 C 673.222656 175.875 673.640625 175.566406 674.054688 175.246094 C 674.464844 174.925781 674.867188 174.589844 675.257812 174.246094 C 675.652344 173.898438 676.03125 173.542969 676.402344 173.171875 C 677.289062 172.285156 678.109375 171.335938 678.855469 170.324219 C 679.605469 169.316406 680.273438 168.257812 680.867188 167.152344 C 681.457031 166.042969 681.964844 164.898438 682.390625 163.714844 C 682.8125 162.53125 683.144531 161.324219 683.390625 160.09375 C 683.636719 158.859375 683.789062 157.617188 683.851562 156.363281 C 683.914062 155.109375 683.882812 153.855469 683.757812 152.605469 C 683.636719 151.355469 683.421875 150.121094 683.117188 148.902344 C 682.8125 147.683594 682.417969 146.496094 681.9375 145.335938 C 681.457031 144.175781 680.894531 143.054688 680.246094 141.976562 C 679.601562 140.902344 678.882812 139.875 678.085938 138.90625 C 677.289062 137.933594 676.421875 137.027344 675.492188 136.183594 C 674.5625 135.339844 673.574219 134.570312 672.53125 133.871094 C 671.484375 133.175781 670.394531 132.558594 669.261719 132.019531 C 668.125 131.484375 666.957031 131.03125 665.753906 130.667969 C 664.550781 130.300781 663.328125 130.027344 662.085938 129.84375 C 660.84375 129.660156 659.59375 129.566406 658.339844 129.566406 Z M 658.339844 129.566406 " fill-opacity="1" fill-rule="nonzero"/></svg>