<svg xmlns="http://www.w3.org/2000/svg" xmlns:xlink="http://www.w3.org/1999/xlink" width="1080" zoomAndPan="magnify" viewBox="0 0 810 809.999993" height="1080" preserveAspectRatio="xMidYMid meet" version="1.0"><defs><clipPath id="be6b8cd66c"><path d="M 27.335938 5 L 600 5 L 600 810 L 27.335938 810 Z M 27.335938 5 " clip-rule="nonzero"/></clipPath></defs><g clip-path="url(#be6b8cd66c)"><path fill="#80ac5f" d="M 498.726562 341.523438 L 225.171875 341.523438 L 179.730469 221.230469 C 166.808594 186.484375 184.636719 147.28125 219.386719 133.910156 L 277.753906 112.082031 C 294.675781 105.847656 312.9375 106.296875 329.429688 113.867188 C 346.351562 121.4375 358.828125 134.804688 365.070312 151.734375 L 372.195312 170 C 381.996094 196.730469 411.40625 210.09375 438.132812 199.847656 C 464.421875 190.046875 477.777344 160.648438 467.976562 133.910156 L 461.296875 115.648438 C 445.253906 73.324219 413.625 39.46875 371.75 20.75 C 330.320312 1.59375 283.984375 0.257812 241.664062 16.300781 L 183.296875 38.128906 C 140.976562 54.164062 107.117188 85.796875 88.410156 127.234375 C 69.6875 168.664062 67.90625 215 83.949219 257.320312 L 116.023438 342.859375 C 66.132812 349.097656 27.367188 391.421875 27.367188 442.65625 L 27.367188 708.628906 C 27.367188 764.316406 72.8125 809.761719 128.945312 809.761719 L 498.726562 809.761719 C 554.414062 809.761719 599.859375 764.316406 599.859375 708.628906 L 599.859375 442.65625 C 599.859375 386.964844 554.414062 341.523438 498.726562 341.523438 Z M 363.734375 673.882812 C 365.964844 682.34375 359.71875 690.359375 351.257812 690.359375 L 276.402344 690.359375 C 267.496094 690.359375 261.261719 682.34375 263.492188 673.882812 L 288.433594 576.308594 C 267.496094 566.949219 253.234375 546.011719 253.234375 521.507812 C 253.234375 488.09375 280.417969 460.921875 313.832031 460.921875 C 347.246094 460.921875 374.425781 488.09375 374.425781 521.507812 C 374.425781 546.011719 359.71875 567.398438 338.78125 576.757812 Z M 363.734375 673.882812 " fill-opacity="1" fill-rule="nonzero"/></g><path fill="#80ac5f" d="M 646.269531 250.96875 C 652.273438 250.96875 658.257812 249.707031 663.890625 247.160156 L 728.5 218.078125 C 750.089844 208.351562 759.746094 182.859375 750.023438 161.234375 C 740.269531 139.632812 714.738281 130.019531 693.214844 139.71875 L 628.605469 168.804688 C 607.003906 178.550781 597.347656 204.023438 607.070312 225.625 C 611.789062 236.089844 620.296875 244.09375 631.03125 248.160156 C 635.980469 250.03125 641.125 250.96875 646.269531 250.96875 Z M 646.269531 250.96875 " fill-opacity="1" fill-rule="nonzero"/><path fill="#80ac5f" d="M 648.847656 44.527344 C 647.007812 33.191406 640.851562 23.25 631.519531 16.550781 C 612.289062 2.757812 585.402344 7.109375 571.558594 26.316406 L 530.136719 83.8125 L 530.128906 83.8125 C 521.199219 96.257812 519.566406 112.636719 525.839844 126.601562 C 528.898438 133.390625 533.75 139.351562 539.90625 143.789062 C 547.488281 149.25 556.253906 151.878906 564.953125 151.878906 C 578.3125 151.878906 591.496094 145.679688 599.890625 134.042969 L 641.308594 76.546875 C 648 67.214844 650.6875 55.835938 648.847656 44.527344 Z M 648.847656 44.527344 " fill-opacity="1" fill-rule="nonzero"/><path fill="#80ac5f" d="M 741.84375 298.738281 L 671.375 291.648438 C 659.921875 290.40625 648.761719 293.84375 639.875 301.109375 C 630.976562 308.375 625.453125 318.664062 624.308594 330.085938 C 623.546875 337.613281 624.777344 345.183594 627.84375 351.992188 C 634.132812 365.957031 647.5 375.59375 662.738281 377.140625 L 733.242188 384.253906 C 734.675781 384.40625 736.113281 384.46875 737.527344 384.46875 C 759.324219 384.46875 778.066406 367.914062 780.292969 345.792969 C 782.65625 322.210938 765.414062 301.109375 741.84375 298.738281 Z M 741.84375 298.738281 " fill-opacity="1" fill-rule="nonzero"/></svg>