<svg xmlns="http://www.w3.org/2000/svg" xmlns:xlink="http://www.w3.org/1999/xlink" width="1080" zoomAndPan="magnify" viewBox="0 0 810 809.999993" height="1080" preserveAspectRatio="xMidYMid meet" version="1.0"><path fill="#475dd7" d="M 331.359375 251.414062 L 331.359375 736.363281 C 331.359375 777.070312 364.328125 810 405 810 C 445.679688 810 478.636719 777.070312 478.636719 736.363281 L 478.636719 251.414062 L 587.222656 360 C 601.613281 374.382812 620.433594 381.574219 639.277344 381.574219 C 658.125 381.574219 676.96875 374.382812 691.34375 360 C 720.097656 331.253906 720.097656 284.625 691.34375 255.878906 L 457.136719 21.628906 C 453.679688 18.199219 449.910156 15.121094 445.839844 12.410156 C 443.976562 11.152344 441.898438 10.269531 439.929688 9.1875 C 437.703125 7.992188 435.570312 6.613281 433.1875 5.652344 C 430.683594 4.609375 428.046875 3.996094 425.464844 3.238281 C 423.449219 2.664062 421.523438 1.871094 419.433594 1.457031 C 414.664062 0.503906 409.859375 0 405 0 C 400.140625 0 395.324219 0.503906 390.5625 1.46875 C 388.476562 1.882812 386.558594 2.664062 384.542969 3.25 C 381.949219 4.003906 379.320312 4.617188 376.8125 5.660156 C 374.433594 6.625 372.300781 7.992188 370.070312 9.199219 C 368.089844 10.285156 366.046875 11.160156 364.15625 12.421875 C 360.097656 15.128906 356.316406 18.207031 352.890625 21.636719 L 118.65625 255.878906 C 89.882812 284.625 89.882812 331.253906 118.65625 360 C 133.035156 374.382812 151.875 381.574219 170.71875 381.574219 C 189.566406 381.574219 208.421875 374.382812 222.785156 360 Z M 331.359375 251.414062 " fill-opacity="1" fill-rule="nonzero"/></svg>