<svg xmlns="http://www.w3.org/2000/svg" xmlns:xlink="http://www.w3.org/1999/xlink" width="1080" zoomAndPan="magnify" viewBox="0 0 810 809.999993" height="1080" preserveAspectRatio="xMidYMid meet" version="1.0"><defs><clipPath id="a47b659ec4"><path d="M 0 77.960938 L 810 77.960938 L 810 728.960938 L 0 728.960938 Z M 0 77.960938 " clip-rule="nonzero"/></clipPath></defs><g clip-path="url(#a47b659ec4)"><path fill="#475dd7" d="M 405 77.964844 C 342.027344 77.964844 278.707031 101.980469 230.695312 149.996094 C 194.988281 185.703125 173.339844 229.996094 164.160156 276.1875 C 70.984375 294.261719 0.300781 375.636719 0.300781 473.863281 C 0.300781 585.304688 91.210938 676.210938 202.652344 676.210938 L 299.425781 676.210938 C 300.300781 676.226562 301.171875 676.195312 302.039062 676.121094 C 302.910156 676.046875 303.773438 675.933594 304.628906 675.773438 C 305.488281 675.613281 306.335938 675.414062 307.175781 675.167969 C 308.011719 674.925781 308.835938 674.640625 309.644531 674.316406 C 310.457031 673.992188 311.246094 673.625 312.019531 673.222656 C 312.792969 672.820312 313.546875 672.378906 314.277344 671.898438 C 315.007812 671.421875 315.710938 670.910156 316.390625 670.359375 C 317.070312 669.8125 317.71875 669.230469 318.339844 668.621094 C 318.960938 668.007812 319.550781 667.367188 320.109375 666.695312 C 320.667969 666.023438 321.191406 665.324219 321.679688 664.601562 C 322.167969 663.882812 322.621094 663.136719 323.035156 662.371094 C 323.449219 661.601562 323.824219 660.816406 324.160156 660.011719 C 324.5 659.207031 324.796875 658.386719 325.050781 657.550781 C 325.304688 656.71875 325.519531 655.871094 325.691406 655.015625 C 325.863281 654.160156 325.992188 653.300781 326.078125 652.429688 C 326.164062 651.5625 326.207031 650.691406 326.207031 649.820312 C 326.207031 648.949219 326.164062 648.078125 326.078125 647.210938 C 325.992188 646.339844 325.863281 645.480469 325.691406 644.625 C 325.519531 643.769531 325.304688 642.921875 325.050781 642.089844 C 324.796875 641.253906 324.5 640.4375 324.160156 639.628906 C 323.824219 638.824219 323.449219 638.039062 323.035156 637.269531 C 322.621094 636.503906 322.167969 635.757812 321.679688 635.035156 C 321.191406 634.3125 320.667969 633.617188 320.109375 632.945312 C 319.550781 632.273438 318.960938 631.632812 318.339844 631.019531 C 317.71875 630.40625 317.070312 629.828125 316.390625 629.277344 C 315.710938 628.730469 315.007812 628.21875 314.277344 627.738281 C 313.546875 627.261719 312.792969 626.820312 312.019531 626.417969 C 311.246094 626.011719 310.457031 625.648438 309.644531 625.324219 C 308.835938 625 308.011719 624.714844 307.175781 624.472656 C 306.335938 624.226562 305.488281 624.027344 304.628906 623.867188 C 303.773438 623.707031 302.910156 623.589844 302.039062 623.515625 C 301.171875 623.441406 300.300781 623.414062 299.425781 623.425781 L 202.652344 623.425781 C 119.738281 623.425781 53.089844 556.777344 53.089844 473.863281 C 53.089844 395.566406 112.636719 331.773438 188.90625 324.851562 C 190.390625 324.707031 191.851562 324.4375 193.289062 324.046875 C 194.730469 323.652344 196.125 323.140625 197.476562 322.511719 C 198.828125 321.882812 200.121094 321.144531 201.347656 320.296875 C 202.574219 319.449219 203.722656 318.503906 204.789062 317.464844 C 205.855469 316.421875 206.828125 315.296875 207.703125 314.089844 C 208.582031 312.882812 209.347656 311.609375 210.007812 310.273438 C 210.671875 308.9375 211.214844 307.550781 211.640625 306.125 C 212.066406 304.691406 212.371094 303.238281 212.546875 301.757812 C 217.40625 259.921875 235.917969 219.277344 268.085938 187.109375 C 305.964844 149.230469 355.394531 130.75 405 130.75 C 454.605469 130.75 503.722656 149.191406 541.640625 187.109375 C 585.457031 230.925781 603.996094 290.457031 597.175781 347.394531 C 597.058594 348.320312 596.992188 349.25 596.976562 350.183594 C 596.957031 351.113281 596.988281 352.042969 597.070312 352.972656 C 597.148438 353.902344 597.277344 354.824219 597.457031 355.738281 C 597.632812 356.652344 597.859375 357.554688 598.132812 358.445312 C 598.40625 359.335938 598.726562 360.210938 599.09375 361.066406 C 599.460938 361.925781 599.871094 362.761719 600.324219 363.574219 C 600.78125 364.386719 601.277344 365.175781 601.816406 365.933594 C 602.355469 366.695312 602.929688 367.425781 603.546875 368.125 C 604.160156 368.824219 604.8125 369.492188 605.5 370.121094 C 606.183594 370.753906 606.902344 371.347656 607.652344 371.902344 C 608.398438 372.457031 609.175781 372.96875 609.980469 373.441406 C 610.78125 373.914062 611.609375 374.34375 612.457031 374.730469 C 613.304688 375.113281 614.171875 375.453125 615.058594 375.75 C 615.941406 376.042969 616.839844 376.285156 617.75 376.484375 C 618.660156 376.683594 619.582031 376.832031 620.507812 376.933594 C 621.433594 377.035156 622.363281 377.085938 623.292969 377.089844 L 633.742188 377.089844 C 702.433594 377.089844 756.910156 431.566406 756.910156 500.257812 C 756.910156 568.949219 702.433594 623.425781 633.742188 623.425781 L 510.574219 623.425781 C 509.699219 623.414062 508.828125 623.441406 507.960938 623.515625 C 507.089844 623.589844 506.226562 623.707031 505.371094 623.867188 C 504.511719 624.027344 503.664062 624.226562 502.824219 624.472656 C 501.988281 624.714844 501.164062 625 500.355469 625.324219 C 499.542969 625.648438 498.753906 626.011719 497.980469 626.417969 C 497.207031 626.820312 496.453125 627.261719 495.722656 627.738281 C 494.992188 628.21875 494.289062 628.730469 493.609375 629.277344 C 492.929688 629.828125 492.28125 630.40625 491.660156 631.019531 C 491.039062 631.632812 490.449219 632.273438 489.890625 632.945312 C 489.332031 633.617188 488.808594 634.3125 488.320312 635.035156 C 487.832031 635.757812 487.378906 636.503906 486.964844 637.269531 C 486.550781 638.039062 486.175781 638.824219 485.835938 639.628906 C 485.5 640.433594 485.203125 641.253906 484.949219 642.089844 C 484.695312 642.921875 484.480469 643.765625 484.308594 644.621094 C 484.136719 645.476562 484.007812 646.339844 483.921875 647.207031 C 483.835938 648.078125 483.792969 648.945312 483.792969 649.820312 C 483.792969 650.691406 483.835938 651.5625 483.921875 652.429688 C 484.007812 653.300781 484.136719 654.160156 484.308594 655.015625 C 484.480469 655.875 484.695312 656.71875 484.949219 657.550781 C 485.203125 658.386719 485.5 659.207031 485.835938 660.011719 C 486.175781 660.816406 486.550781 661.601562 486.964844 662.371094 C 487.378906 663.136719 487.832031 663.882812 488.320312 664.605469 C 488.808594 665.328125 489.332031 666.023438 489.890625 666.695312 C 490.449219 667.367188 491.039062 668.007812 491.660156 668.621094 C 492.28125 669.234375 492.929688 669.8125 493.609375 670.359375 C 494.289062 670.910156 494.992188 671.421875 495.722656 671.898438 C 496.453125 672.378906 497.207031 672.820312 497.980469 673.222656 C 498.753906 673.625 499.542969 673.992188 500.355469 674.316406 C 501.164062 674.640625 501.988281 674.925781 502.824219 675.167969 C 503.664062 675.410156 504.511719 675.613281 505.371094 675.769531 C 506.226562 675.929688 507.089844 676.046875 507.960938 676.121094 C 508.828125 676.195312 509.699219 676.226562 510.574219 676.210938 L 633.742188 676.210938 C 730.765625 676.210938 809.699219 597.28125 809.699219 500.257812 C 809.699219 408.6875 739.15625 334.144531 649.6875 325.953125 C 650.101562 262.261719 627.480469 198.445312 579.03125 149.996094 C 531.058594 102.019531 467.972656 77.964844 405 77.964844 Z M 405 359.492188 C 396.199219 359.492188 391.546875 362.324219 387.128906 366.363281 L 290.355469 454.34375 C 279.179688 464.714844 279.375 481.542969 288.703125 491.734375 C 298.03125 501.921875 315.859375 502.660156 326.09375 493.382812 L 378.605469 445.546875 L 378.605469 702.605469 C 378.605469 717.179688 390.421875 729 405 729 C 419.578125 729 431.394531 717.179688 431.394531 702.605469 L 431.394531 445.542969 L 483.90625 493.382812 C 494.140625 502.660156 511.429688 501.402344 521.296875 491.734375 C 531.695312 481.542969 529.789062 463.71875 519.644531 454.34375 L 422.871094 366.363281 C 417.640625 361.578125 413.800781 359.492188 405 359.492188 Z M 405 359.492188 " fill-opacity="1" fill-rule="nonzero"/></g></svg>