<svg xmlns="http://www.w3.org/2000/svg" xmlns:xlink="http://www.w3.org/1999/xlink" width="1080" zoomAndPan="magnify" viewBox="0 0 810 809.999993" height="1080" preserveAspectRatio="xMidYMid meet" version="1.0"><defs><clipPath id="1e732611cf"><path d="M 52.28125 500 L 758.03125 500 L 758.03125 807 L 52.28125 807 Z M 52.28125 500 " clip-rule="nonzero"/></clipPath></defs><path fill="#475dd7" d="M 405.023438 599.273438 C 405.046875 599.273438 405.074219 599.273438 405.074219 599.273438 C 429.429688 599.273438 454.34375 582.40625 454.90625 550.144531 L 454.90625 178.523438 L 521.449219 245.066406 C 544.636719 267.546875 574.230469 261.773438 591.5 244.542969 C 608.742188 227.308594 614.464844 197.714844 591.863281 174.371094 L 440.316406 22.832031 C 436.347656 18.828125 431.5 15.566406 425.433594 12.835938 C 406.582031 4.480469 384.222656 8.476562 369.730469 22.785156 L 218.449219 174.066406 C 203.8125 187.691406 199.574219 209.066406 207.636719 228.515625 C 215.527344 247.539062 232.894531 259.582031 251.820312 259.582031 C 265.09375 259.59375 278.902344 254.734375 288.695312 244.933594 L 355.089844 178.523438 L 355.089844 550.121094 C 355.578125 582.355469 380.59375 599.25 405.023438 599.273438 Z M 405.023438 599.273438 " fill-opacity="1" fill-rule="nonzero"/><g clip-path="url(#1e732611cf)"><path fill="#475dd7" d="M 51.921875 549.925781 L 51.921875 605.144531 C 51.921875 716.246094 142.3125 806.632812 253.402344 806.632812 L 556.59375 806.632812 C 667.6875 806.632812 758.074219 716.246094 758.074219 605.144531 L 758.074219 549.925781 C 758.074219 522.414062 735.6875 500.03125 708.191406 500.03125 C 680.667969 500.03125 658.285156 522.414062 658.285156 549.925781 L 658.285156 605.144531 C 658.285156 661.210938 612.664062 706.832031 556.59375 706.832031 L 253.402344 706.832031 C 197.332031 706.832031 151.714844 661.210938 151.714844 605.144531 L 151.714844 549.925781 C 151.714844 522.414062 129.332031 500.03125 101.804688 500.03125 C 74.308594 500.03125 51.921875 522.414062 51.921875 549.925781 Z M 51.921875 549.925781 " fill-opacity="1" fill-rule="nonzero"/></g></svg>