<svg xmlns="http://www.w3.org/2000/svg" xmlns:xlink="http://www.w3.org/1999/xlink" width="1080" zoomAndPan="magnify" viewBox="0 0 810 809.999993" height="1080" preserveAspectRatio="xMidYMid meet" version="1.0"><path fill="#6c6cb8" d="M 405 166.589844 C 328.589844 166.589844 266.21875 228.6875 266.21875 305.097656 C 266.21875 381.78125 328.589844 443.878906 405 443.878906 C 481.410156 443.878906 543.78125 381.78125 543.78125 305.097656 C 543.78125 228.6875 481.410156 166.589844 405 166.589844 Z M 405 166.589844 " fill-opacity="1" fill-rule="nonzero"/><path fill="#6c6cb8" d="M 404.730469 0.269531 C 181.710938 0.269531 0 181.710938 0 405 C 0 529.199219 56.429688 640.4375 144.71875 714.6875 C 144.71875 714.6875 144.71875 714.6875 144.71875 714.960938 C 215.191406 774.089844 305.910156 809.730469 404.730469 809.730469 C 545.671875 809.730469 674.191406 738.449219 748.710938 618.839844 C 788.941406 554.578125 810 480.871094 810 405 C 810 329.128906 788.941406 255.148438 748.710938 191.160156 C 674.191406 71.550781 545.671875 0.269531 404.730469 0.269531 Z M 703.082031 590.21875 C 690.121094 611.011719 675 629.371094 658.53125 646.648438 C 617.488281 562.410156 530.28125 506.25 433.890625 506.25 L 376.109375 506.25 C 309.152344 506.25 246.238281 532.4375 198.988281 579.6875 C 179.28125 599.128906 163.621094 622.078125 151.46875 646.917969 C 91.261719 584.011719 54 498.960938 54 405 C 54 211.679688 211.410156 54.269531 404.730469 54.269531 C 527.039062 54.269531 638.28125 116.101562 703.082031 219.78125 C 737.640625 275.398438 756 339.390625 756 405 C 756 470.609375 737.640625 534.601562 703.082031 590.21875 Z M 703.082031 590.21875 " fill-opacity="1" fill-rule="nonzero"/></svg>