<svg xmlns="http://www.w3.org/2000/svg" xmlns:xlink="http://www.w3.org/1999/xlink" width="1080" zoomAndPan="magnify" viewBox="0 0 810 809.999993" height="1080" preserveAspectRatio="xMidYMid meet" version="1.0"><path fill="#6c6cb8" d="M 808.347656 520.632812 C 804.265625 485.222656 798.59375 453.25 791.515625 425.714844 C 786.773438 406.585938 775.140625 389.59375 758.78125 377.867188 C 721.113281 350.734375 681.917969 332.773438 655.9375 322.550781 C 683.488281 292.796875 701.222656 250.039062 701.222656 203.265625 C 701.222656 120.414062 642.210938 55.503906 566.878906 55.503906 C 494.773438 55.503906 437.761719 115.027344 433.007812 192.777344 C 424.207031 190.855469 415.0625 189.835938 405.671875 189.835938 C 396.28125 189.835938 387.148438 190.839844 378.335938 192.777344 C 373.566406 115.027344 316.570312 55.503906 244.464844 55.503906 C 169.132812 55.503906 110.121094 120.414062 110.121094 203.265625 C 110.121094 250.039062 127.855469 292.796875 155.40625 322.550781 C 129.425781 332.773438 90.242188 350.734375 52.589844 377.851562 C 36.203125 389.582031 24.570312 406.585938 19.855469 425.59375 C 12.746094 453.265625 7.078125 485.222656 2.996094 520.644531 C 0.417969 543.386719 14.199219 565.242188 35.867188 572.644531 C 65.40625 582.503906 111.949219 588.75 173.980469 591.382812 C 170.609375 608.359375 167.105469 629.4375 164.175781 654.972656 C 161.582031 677.753906 175.417969 699.609375 197.085938 706.957031 C 236.78125 720.351562 306.953125 727.148438 405.644531 727.148438 C 504.335938 727.148438 574.507812 720.351562 614.230469 706.957031 C 635.871094 699.609375 649.71875 677.753906 647.113281 654.960938 C 644.183594 629.421875 640.679688 608.335938 637.320312 591.382812 C 699.355469 588.75 745.898438 582.503906 775.53125 572.617188 C 797.105469 565.242188 810.898438 543.386719 808.308594 520.632812 Z M 566.878906 82.371094 C 628.160156 82.371094 674.355469 134.34375 674.355469 203.265625 C 674.355469 274.824219 624.128906 337.59375 566.878906 337.59375 C 557.796875 337.59375 548.730469 336.023438 539.796875 332.960938 C 538.1875 273.347656 506.054688 223.644531 459.46875 201.800781 C 460.128906 133.617188 506.054688 82.371094 566.878906 82.371094 Z M 513.132812 337.59375 C 513.132812 409.152344 462.921875 471.921875 405.671875 471.921875 C 348.421875 471.921875 298.207031 409.152344 298.207031 337.59375 C 298.207031 268.671875 344.40625 216.699219 405.671875 216.699219 C 466.9375 216.699219 513.132812 268.671875 513.132812 337.59375 Z M 244.464844 82.371094 C 305.300781 82.371094 351.226562 133.617188 351.875 201.800781 C 305.289062 223.644531 273.15625 273.347656 271.542969 332.960938 C 262.613281 336.023438 253.53125 337.59375 244.464844 337.59375 C 187.214844 337.59375 136.988281 274.824219 136.988281 203.265625 C 136.988281 134.34375 183.183594 82.371094 244.464844 82.371094 Z M 44.460938 547.203125 C 34.722656 543.882812 28.503906 533.996094 29.671875 523.707031 C 33.621094 489.519531 39.0625 458.773438 45.898438 432.175781 C 49.097656 419.253906 57.023438 407.726562 68.238281 399.683594 C 110.957031 368.921875 155.644531 350.734375 178.292969 342.671875 C 197.972656 356.429688 220.566406 364.472656 244.449219 364.472656 C 254.015625 364.472656 263.523438 363.050781 272.914062 360.511719 C 277.617188 398.21875 293.628906 432.082031 316.613281 456.890625 C 290.632812 467.128906 251.421875 485.101562 213.796875 512.195312 C 197.449219 523.921875 185.84375 540.929688 181.15625 559.855469 C 180.753906 561.359375 180.335938 563.09375 179.90625 564.769531 C 103.015625 561.789062 63.777344 553.648438 44.449219 547.203125 Z M 605.644531 681.515625 C 580.257812 690.085938 524.957031 700.28125 405.660156 700.28125 C 286.359375 700.28125 231.058594 690.074219 205.695312 681.515625 C 195.929688 678.210938 189.699219 668.324219 190.867188 658.035156 C 195.851562 614.699219 202.460938 584.4375 207.1875 566.503906 C 210.386719 553.566406 218.296875 542.042969 229.472656 534.011719 C 272.148438 503.289062 316.839844 485.085938 339.515625 477 C 359.195312 490.742188 381.789062 498.800781 405.660156 498.800781 C 429.527344 498.800781 452.136719 490.757812 471.800781 477 C 494.476562 485.085938 539.179688 503.289062 581.855469 534.023438 C 593.019531 542.042969 600.929688 553.570312 604.183594 566.707031 C 608.855469 584.449219 615.464844 614.714844 620.449219 658.035156 C 621.617188 668.339844 615.371094 678.226562 605.632812 681.53125 Z M 766.960938 547.175781 C 747.539062 553.648438 708.3125 561.789062 631.410156 564.769531 C 631.007812 563.160156 630.589844 561.492188 630.214844 560.042969 C 625.472656 540.914062 613.867188 523.921875 597.53125 512.195312 C 559.894531 485.101562 520.683594 467.113281 494.703125 456.890625 C 517.675781 432.082031 533.6875 398.21875 538.402344 360.511719 C 547.792969 363.035156 557.300781 364.472656 566.867188 364.472656 C 590.75 364.472656 613.34375 356.429688 633.023438 342.671875 C 655.671875 350.746094 700.375 368.933594 743.105469 399.695312 C 754.292969 407.726562 762.21875 419.253906 765.441406 432.296875 C 772.253906 458.785156 777.695312 489.535156 781.644531 523.707031 C 782.8125 534.011719 776.59375 543.898438 766.949219 547.1875 Z M 766.960938 547.175781 " fill-opacity="1" fill-rule="nonzero"/></svg>