<svg xmlns="http://www.w3.org/2000/svg" xmlns:xlink="http://www.w3.org/1999/xlink" width="1080" zoomAndPan="magnify" viewBox="0 0 810 809.999993" height="1080" preserveAspectRatio="xMidYMid meet" version="1.0"><path fill="#6c6cb8" d="M 351.347656 140.265625 C 293.605469 140.265625 246.320312 178.6875 246.320312 245.75 C 246.320312 265.757812 250.636719 286.214844 258.367188 304.632812 C 275.644531 348.28125 310.882812 382.835938 351.347656 382.835938 C 392.269531 382.835938 427.507812 348.28125 444.785156 304.632812 C 452.511719 286.214844 456.378906 265.757812 456.378906 245.75 C 456.378906 178.6875 409.546875 140.265625 351.347656 140.265625 Z M 351.347656 140.265625 " fill-opacity="1" fill-rule="nonzero"/><path fill="#6c6cb8" d="M 788.972656 384.199219 C 761.007812 356.234375 715.769531 356.234375 687.804688 384.199219 L 634.15625 437.851562 L 735.320312 539.015625 L 788.972656 485.363281 C 816.933594 457.628906 816.933594 412.160156 788.972656 384.199219 Z M 788.972656 384.199219 " fill-opacity="1" fill-rule="nonzero"/><path fill="#6c6cb8" d="M 420.003906 652 L 364.308594 791.132812 C 362.261719 796.359375 363.398438 802.042969 367.261719 805.90625 C 369.988281 808.636719 373.398438 810 376.808594 810 C 378.402344 810 380.21875 809.773438 382.039062 809.089844 L 520.03125 754.300781 L 706.449219 568.339844 L 605.054688 466.949219 Z M 421.59375 751.574219 L 446.828125 684.738281 C 447.964844 687.921875 449.558594 690.648438 451.832031 692.921875 C 454.785156 695.878906 458.425781 697.695312 462.515625 698.605469 C 462.515625 698.605469 466.835938 699.515625 468.652344 699.742188 L 470.246094 700.195312 C 471.15625 700.195312 471.609375 700.878906 472.0625 701.105469 C 472.746094 701.789062 472.972656 702.242188 473.199219 703.152344 L 473.429688 704.289062 C 473.882812 706.335938 474.792969 710.652344 474.792969 710.652344 C 475.703125 714.746094 477.519531 718.382812 480.476562 721.339844 C 482.75 723.613281 485.476562 725.203125 488.660156 726.339844 Z M 421.59375 751.574219 " fill-opacity="1" fill-rule="nonzero"/><path fill="#6c6cb8" d="M 357.257812 703.152344 L 386.585938 629.722656 L 550.722656 465.8125 C 545.722656 447.851562 536.402344 431.03125 523.441406 418.070312 C 512.757812 407.839844 500.027344 400.566406 486.160156 395.566406 L 466.152344 389.882812 C 434.097656 422.617188 394.085938 441.488281 351.347656 441.488281 C 309.0625 441.488281 269.050781 422.617188 237 389.425781 L 216.539062 395.566406 C 203.125 400.566406 190.394531 407.839844 179.710938 418.070312 C 163.796875 433.984375 152.65625 455.808594 149.929688 478.316406 L 140.378906 536.96875 C 96.957031 487.410156 70.132812 422.617188 70.132812 351.691406 C 70.132812 196.417969 196.53125 70.019531 351.804688 70.019531 C 507.074219 70.019531 633.472656 196.417969 633.472656 351.691406 C 633.472656 363.285156 632.5625 374.421875 631.199219 385.5625 L 660.296875 356.464844 C 672.574219 343.960938 687.351562 335.320312 702.8125 330.09375 C 691.445312 146.175781 538.445312 0 351.804688 0 C 157.886719 0 0.113281 157.773438 0.113281 351.691406 C 0.113281 545.609375 157.886719 703.378906 351.804688 703.378906 C 353.621094 703.378906 355.441406 703.152344 357.257812 703.152344 Z M 357.257812 703.152344 " fill-opacity="1" fill-rule="nonzero"/></svg>