<svg xmlns="http://www.w3.org/2000/svg" xmlns:xlink="http://www.w3.org/1999/xlink" width="1080" zoomAndPan="magnify" viewBox="0 0 810 809.999993" height="1080" preserveAspectRatio="xMidYMid meet" version="1.0"><defs><clipPath id="52a56feb24"><path d="M 2.945312 0 L 806.945312 0 L 806.945312 810 L 2.945312 810 Z M 2.945312 0 " clip-rule="nonzero"/></clipPath></defs><g clip-path="url(#52a56feb24)"><path fill="#475dd7" d="M 234.363281 0.3125 L 575.894531 0.3125 C 639.445312 0.3125 697.269531 26.390625 739.21875 68.277344 C 781.234375 110.226562 807.3125 168.113281 807.3125 231.730469 L 807.3125 578.203125 C 807.3125 641.6875 781.234375 699.507812 739.351562 741.460938 L 739.21875 741.589844 C 697.203125 783.542969 639.378906 809.554688 575.960938 809.554688 L 234.363281 809.554688 C 170.746094 809.554688 112.859375 783.476562 70.910156 741.589844 L 69.328125 739.8125 C 28.367188 698.058594 2.945312 640.898438 2.945312 578.136719 L 2.945312 231.730469 C 2.945312 168.050781 28.957031 110.226562 70.910156 68.277344 C 112.859375 26.328125 170.679688 0.3125 234.363281 0.3125 Z M 605.597656 204.597656 L 606.058594 205.324219 L 748.308594 205.324219 C 742.578125 167.917969 724.730469 134.332031 699.046875 108.582031 C 667.4375 76.96875 623.839844 57.34375 575.894531 57.34375 L 517.480469 57.34375 Z M 539.804688 205.324219 L 451.230469 57.34375 L 256.953125 57.34375 L 346.582031 205.324219 Z M 280.265625 205.324219 L 193.597656 62.152344 C 161.921875 69.792969 133.539062 86.191406 111.214844 108.582031 C 85.527344 134.265625 67.75 167.917969 61.953125 205.324219 Z M 750.28125 262.355469 L 59.976562 262.355469 L 59.976562 578.203125 C 59.976562 625.421875 79.007812 668.425781 109.765625 699.90625 L 111.214844 701.289062 C 142.824219 732.898438 186.488281 752.589844 234.363281 752.589844 L 575.894531 752.589844 C 623.839844 752.589844 667.4375 732.964844 698.980469 701.417969 L 699.113281 701.289062 C 730.65625 669.742188 750.28125 626.144531 750.28125 578.203125 Z M 338.484375 362.195312 L 515.175781 477.113281 C 518.007812 478.957031 520.574219 481.328125 522.617188 484.226562 C 530.652344 495.882812 527.6875 511.886719 516.03125 519.917969 L 340.0625 623.773438 C 335.652344 627.398438 329.988281 629.570312 323.730469 629.570312 C 309.507812 629.570312 297.980469 618.046875 297.980469 603.820312 L 297.980469 383.265625 L 298.113281 383.265625 C 298.113281 378.195312 299.628906 373.058594 302.722656 368.582031 C 310.890625 356.925781 326.894531 354.09375 338.484375 362.195312 Z M 338.484375 362.195312 " fill-opacity="1" fill-rule="nonzero"/></g></svg>