<svg xmlns="http://www.w3.org/2000/svg" xmlns:xlink="http://www.w3.org/1999/xlink" width="1080" zoomAndPan="magnify" viewBox="0 0 810 809.999993" height="1080" preserveAspectRatio="xMidYMid meet" version="1.0"><defs><clipPath id="9d103d94d5"><path d="M 0 96.445312 L 708.75 96.445312 L 708.75 809.695312 L 0 809.695312 Z M 0 96.445312 " clip-rule="nonzero"/></clipPath><clipPath id="6fc9f24601"><path d="M 75 96.445312 L 633.75 96.445312 C 675.171875 96.445312 708.75 130.023438 708.75 171.445312 L 708.75 735 C 708.75 776.421875 675.171875 810 633.75 810 L 75 810 C 33.578125 810 0 776.421875 0 735 L 0 171.445312 C 0 130.023438 33.578125 96.445312 75 96.445312 Z M 75 96.445312 " clip-rule="nonzero"/></clipPath></defs><g clip-path="url(#9d103d94d5)"><g clip-path="url(#6fc9f24601)"><path stroke-linecap="butt" transform="matrix(0.75, 0, 0, 0.75, 0.000194543, 96.444925)" fill="none" stroke-linejoin="miter" d="M 99.999746 0.000517003 L 844.999783 0.000517003 C 900.228953 0.000517003 944.999788 44.771353 944.999788 100.000522 L 944.999788 851.40681 C 944.999788 906.635979 900.228953 951.406815 844.999783 951.406815 L 99.999746 951.406815 C 44.770576 951.406815 -0.000259391 906.635979 -0.000259391 851.40681 L -0.000259391 100.000522 C -0.000259391 44.771353 44.770576 0.000517003 99.999746 0.000517003 Z M 99.999746 0.000517003 " stroke="#475dd7" stroke-width="150" stroke-opacity="1" stroke-miterlimit="4"/></g></g><path stroke-linecap="round" transform="matrix(0.75, -0.000000000000000093, 0.000000000000000093, 0.75, 296.51785, 0.00002)" fill="none" stroke-linejoin="miter" d="M 50.002244 49.999976 L 499.642892 49.999976 " stroke="#475dd7" stroke-width="100" stroke-opacity="1" stroke-miterlimit="4"/><path stroke-linecap="round" transform="matrix(0, -0.75, 0.75, 0, 734.999151, 508.67625)" fill="none" stroke-linejoin="miter" d="M 50.000628 50.001135 L 499.641276 50.001135 " stroke="#475dd7" stroke-width="100" stroke-opacity="1" stroke-miterlimit="4"/></svg>