<svg xmlns="http://www.w3.org/2000/svg" xmlns:xlink="http://www.w3.org/1999/xlink" width="1000" zoomAndPan="magnify" viewBox="0 0 750 549.12" height="722" preserveAspectRatio="xMidYMid meet" version="1.0"><defs><clipPath id="ef0b8e5d77"><path d="M 0.601562 0 L 749.398438 0 L 749.398438 540.632812 L 0.601562 540.632812 Z M 0.601562 0 " clip-rule="nonzero"/></clipPath><clipPath id="3b41b562e9"><path d="M 0.601562 166 L 749.398438 166 L 749.398438 375 L 0.601562 375 Z M 0.601562 166 " clip-rule="nonzero"/></clipPath></defs><g clip-path="url(#ef0b8e5d77)"><path fill="#ffffff" d="M 0.601562 0 L 749.398438 0 L 749.398438 540.632812 L 0.601562 540.632812 Z M 0.601562 0 " fill-opacity="1" fill-rule="nonzero"/><path fill="#ffffff" d="M 0.601562 0 L 749.398438 0 L 749.398438 540.632812 L 0.601562 540.632812 Z M 0.601562 0 " fill-opacity="1" fill-rule="nonzero"/><path fill="#75aadb" d="M 749.191406 457.460938 C 749.191406 503.390625 711.960938 540.632812 666.039062 540.632812 L 83.960938 540.632812 C 38.039062 540.632812 0.808594 503.390625 0.808594 457.460938 L 0.808594 83.175781 C 0.808594 37.242188 38.039062 0 83.960938 0 L 666.039062 0 C 711.960938 0 749.191406 37.242188 749.191406 83.175781 Z M 749.191406 457.460938 " fill-opacity="1" fill-rule="nonzero"/></g><g clip-path="url(#3b41b562e9)"><path fill="#eeeeee" d="M 0.808594 166.347656 L 749.191406 166.347656 L 749.191406 374.285156 L 0.808594 374.285156 Z M 0.808594 166.347656 " fill-opacity="1" fill-rule="nonzero"/></g><path fill="#fcbf49" d="M 375 166.347656 L 385.144531 219.332031 L 414.789062 174.269531 L 403.875 227.085938 L 448.488281 196.789062 L 418.199219 241.433594 L 471.023438 230.539062 L 425.972656 260.167969 L 478.941406 270.316406 L 425.972656 280.464844 L 471.023438 310.117188 L 418.199219 299.199219 L 448.488281 343.820312 L 403.875 313.527344 L 414.789062 366.363281 L 385.144531 321.300781 L 375 374.285156 L 364.855469 321.300781 L 335.230469 366.363281 L 346.125 313.527344 L 301.492188 343.820312 L 331.78125 299.199219 L 278.976562 310.117188 L 324.027344 280.464844 L 271.058594 270.316406 L 324.027344 260.167969 L 278.976562 230.539062 L 331.78125 241.433594 L 301.492188 196.789062 L 346.125 227.085938 L 335.230469 174.269531 L 364.855469 219.332031 Z M 375 166.347656 " fill-opacity="1" fill-rule="nonzero"/><path fill="#843511" d="M 375 194.003906 L 380.03125 220.308594 L 382.441406 232.886719 L 389.488281 222.199219 L 404.207031 199.828125 L 398.78125 226.046875 L 396.183594 238.605469 L 406.785156 231.410156 L 428.945312 216.378906 L 413.914062 238.542969 L 406.722656 249.148438 L 419.257812 246.550781 L 445.492188 241.144531 L 423.125 255.863281 L 412.417969 262.871094 L 424.996094 265.285156 L 451.292969 270.316406 L 424.996094 275.347656 L 412.417969 277.761719 L 423.105469 284.808594 L 445.472656 299.53125 L 419.238281 294.105469 L 406.679688 291.503906 L 413.875 302.109375 L 428.90625 324.253906 L 406.765625 309.222656 L 396.164062 302.027344 L 398.761719 314.585938 L 404.1875 340.828125 L 389.46875 318.453125 L 382.441406 307.746094 L 380.03125 320.324219 L 375 346.628906 L 369.96875 320.324219 L 367.558594 307.746094 L 360.511719 318.453125 L 345.792969 340.828125 L 351.195312 314.585938 L 353.796875 302.046875 L 343.195312 309.242188 L 321.035156 324.277344 L 336.0625 302.109375 L 343.257812 291.503906 L 330.699219 294.105469 L 304.484375 299.53125 L 326.855469 284.808594 L 337.539062 277.761719 L 324.960938 275.347656 L 298.707031 270.316406 L 325.003906 265.285156 L 337.582031 262.871094 L 326.875 255.824219 L 304.507812 241.101562 L 330.71875 246.507812 L 343.257812 249.105469 L 336.0625 238.503906 L 321.011719 216.335938 L 343.171875 231.390625 L 353.773438 238.585938 L 351.175781 226.046875 L 345.769531 199.828125 L 360.488281 222.199219 L 367.535156 232.910156 L 369.949219 220.328125 L 375 194.003906 M 375 166.347656 L 364.855469 219.332031 L 335.230469 174.269531 L 346.125 227.109375 L 301.492188 196.8125 L 331.78125 241.457031 L 278.976562 230.558594 L 324.027344 260.191406 L 271.058594 270.316406 L 324.027344 280.464844 L 278.976562 310.117188 L 331.78125 299.199219 L 301.492188 343.820312 L 346.125 313.527344 L 335.230469 366.363281 L 364.855469 321.300781 L 375 374.285156 L 385.144531 321.300781 L 414.789062 366.363281 L 403.875 313.527344 L 448.488281 343.820312 L 418.199219 299.199219 L 471.023438 310.117188 L 425.972656 280.464844 L 478.941406 270.316406 L 425.972656 260.167969 L 471.023438 230.539062 L 418.199219 241.433594 L 448.488281 196.789062 L 403.875 227.085938 L 414.789062 174.25 L 385.144531 219.308594 Z M 414.789062 174.269531 L 414.894531 174.269531 Z M 448.488281 196.789062 L 448.589844 196.789062 Z M 471.023438 230.539062 L 471.125 230.539062 Z M 471.023438 230.539062 " fill-opacity="1" fill-rule="nonzero"/><path fill="#fcbf49" d="M 416.578125 270.316406 C 416.578125 271.679688 416.511719 273.039062 416.375 274.394531 C 416.242188 275.75 416.042969 277.09375 415.777344 278.429688 C 415.511719 279.765625 415.183594 281.085938 414.785156 282.390625 C 414.390625 283.691406 413.933594 284.972656 413.410156 286.230469 C 412.890625 287.488281 412.308594 288.71875 411.667969 289.921875 C 411.027344 291.121094 410.328125 292.289062 409.570312 293.421875 C 408.8125 294.554688 408.003906 295.648438 407.140625 296.699219 C 406.277344 297.753906 405.363281 298.761719 404.398438 299.722656 C 403.4375 300.6875 402.429688 301.601562 401.375 302.464844 C 400.324219 303.328125 399.230469 304.136719 398.097656 304.894531 C 396.964844 305.652344 395.800781 306.351562 394.597656 306.992188 C 393.398438 307.636719 392.167969 308.21875 390.910156 308.738281 C 389.652344 309.257812 388.371094 309.71875 387.070312 310.113281 C 385.765625 310.507812 384.445312 310.839844 383.109375 311.105469 C 381.777344 311.371094 380.429688 311.570312 379.074219 311.703125 C 377.71875 311.835938 376.363281 311.902344 375 311.902344 C 373.636719 311.902344 372.28125 311.835938 370.925781 311.703125 C 369.570312 311.570312 368.222656 311.371094 366.890625 311.105469 C 365.554688 310.839844 364.234375 310.507812 362.929688 310.113281 C 361.628906 309.71875 360.347656 309.257812 359.089844 308.738281 C 357.832031 308.21875 356.601562 307.636719 355.402344 306.992188 C 354.199219 306.351562 353.035156 305.652344 351.902344 304.894531 C 350.769531 304.136719 349.675781 303.328125 348.625 302.464844 C 347.570312 301.601562 346.5625 300.6875 345.601562 299.722656 C 344.636719 298.761719 343.722656 297.753906 342.859375 296.699219 C 341.996094 295.648438 341.1875 294.554688 340.429688 293.421875 C 339.671875 292.289062 338.972656 291.121094 338.332031 289.921875 C 337.691406 288.71875 337.109375 287.488281 336.589844 286.230469 C 336.066406 284.972656 335.609375 283.691406 335.214844 282.390625 C 334.816406 281.085938 334.488281 279.765625 334.222656 278.429688 C 333.957031 277.09375 333.757812 275.75 333.625 274.394531 C 333.488281 273.039062 333.421875 271.679688 333.421875 270.316406 C 333.421875 268.953125 333.488281 267.597656 333.625 266.242188 C 333.757812 264.886719 333.957031 263.539062 334.222656 262.203125 C 334.488281 260.867188 334.816406 259.546875 335.214844 258.246094 C 335.609375 256.941406 336.066406 255.660156 336.589844 254.402344 C 337.109375 253.144531 337.691406 251.914062 338.332031 250.710938 C 338.972656 249.511719 339.671875 248.34375 340.429688 247.210938 C 341.1875 246.078125 341.996094 244.988281 342.859375 243.933594 C 343.722656 242.882812 344.636719 241.875 345.601562 240.910156 C 346.5625 239.945312 347.570312 239.035156 348.625 238.167969 C 349.675781 237.304688 350.769531 236.496094 351.902344 235.738281 C 353.035156 234.980469 354.199219 234.28125 355.402344 233.640625 C 356.601562 233 357.832031 232.417969 359.089844 231.894531 C 360.347656 231.375 361.628906 230.914062 362.929688 230.519531 C 364.234375 230.125 365.554688 229.792969 366.890625 229.527344 C 368.222656 229.261719 369.570312 229.0625 370.925781 228.929688 C 372.28125 228.796875 373.636719 228.730469 375 228.730469 C 376.363281 228.730469 377.71875 228.796875 379.074219 228.929688 C 380.429688 229.0625 381.777344 229.261719 383.109375 229.527344 C 384.445312 229.792969 385.765625 230.125 387.070312 230.519531 C 388.371094 230.914062 389.652344 231.375 390.910156 231.894531 C 392.167969 232.417969 393.398438 233 394.597656 233.640625 C 395.800781 234.28125 396.964844 234.980469 398.097656 235.738281 C 399.230469 236.496094 400.324219 237.304688 401.375 238.167969 C 402.429688 239.035156 403.4375 239.945312 404.398438 240.910156 C 405.363281 241.875 406.277344 242.882812 407.140625 243.933594 C 408.003906 244.988281 408.8125 246.078125 409.570312 247.210938 C 410.328125 248.34375 411.027344 249.511719 411.667969 250.710938 C 412.308594 251.914062 412.890625 253.144531 413.410156 254.402344 C 413.933594 255.660156 414.390625 256.941406 414.785156 258.246094 C 415.183594 259.546875 415.511719 260.867188 415.777344 262.203125 C 416.042969 263.539062 416.242188 264.886719 416.375 266.242188 C 416.511719 267.597656 416.578125 268.953125 416.578125 270.316406 Z M 416.578125 270.316406 " fill-opacity="1" fill-rule="nonzero"/><path fill="#843511" d="M 375 314.503906 C 350.636719 314.503906 330.824219 294.6875 330.824219 270.316406 C 330.824219 245.945312 350.636719 226.128906 375 226.128906 C 399.363281 226.128906 419.175781 245.945312 419.175781 270.316406 C 419.175781 294.6875 399.363281 314.503906 375 314.503906 Z M 375 231.328125 C 353.503906 231.328125 336.023438 248.816406 336.023438 270.316406 C 336.023438 291.816406 353.503906 309.304688 375 309.304688 C 396.496094 309.304688 413.976562 291.816406 413.976562 270.316406 C 413.976562 248.816406 396.496094 231.328125 375 231.328125 Z M 375 231.328125 " fill-opacity="1" fill-rule="nonzero"/><path fill="#c16540" d="M 370.863281 265.617188 C 370.863281 268.839844 365.4375 271.441406 358.742188 271.441406 C 352.027344 271.441406 346.601562 268.839844 346.601562 265.617188 C 346.601562 262.394531 352.027344 259.796875 358.742188 259.796875 C 365.4375 259.796875 370.863281 262.394531 370.863281 265.617188 Z M 403.148438 265.117188 C 403.148438 261.769531 397.617188 259.046875 390.800781 259.046875 C 383.980469 259.046875 378.449219 261.75 378.449219 265.117188 C 378.449219 268.488281 383.980469 271.191406 390.800781 271.191406 C 397.636719 271.191406 403.148438 268.464844 403.148438 265.117188 Z M 403.148438 265.117188 " fill-opacity="1" fill-rule="nonzero"/><path fill="#ed8662" d="M 363.835938 288.492188 C 363.835938 285.871094 368.949219 283.730469 375.230469 283.730469 C 381.527344 283.730469 386.621094 285.847656 386.621094 288.492188 C 386.621094 291.109375 381.507812 293.253906 375.230469 293.253906 C 368.929688 293.253906 363.835938 291.109375 363.835938 288.492188 Z M 363.835938 288.492188 " fill-opacity="1" fill-rule="nonzero"/></svg>