<svg xmlns="http://www.w3.org/2000/svg" xmlns:xlink="http://www.w3.org/1999/xlink" width="1000" zoomAndPan="magnify" viewBox="0 0 750 549.12" height="722" preserveAspectRatio="xMidYMid meet" version="1.0"><defs><clipPath id="6e29145369"><path d="M 0.601562 0 L 749.398438 0 L 749.398438 540.632812 L 0.601562 540.632812 Z M 0.601562 0 " clip-rule="nonzero"/></clipPath><clipPath id="c5c21b9335"><path d="M 0.601562 166 L 749.398438 166 L 749.398438 375 L 0.601562 375 Z M 0.601562 166 " clip-rule="nonzero"/></clipPath><clipPath id="d4aaa397f8"><path d="M 0.601562 0 L 749.398438 0 L 749.398438 167 L 0.601562 167 Z M 0.601562 0 " clip-rule="nonzero"/></clipPath></defs><g clip-path="url(#6e29145369)"><path fill="#ffffff" d="M 0.601562 0 L 749.398438 0 L 749.398438 540.632812 L 0.601562 540.632812 Z M 0.601562 0 " fill-opacity="1" fill-rule="nonzero"/><path fill="#ffffff" d="M 0.601562 0 L 749.398438 0 L 749.398438 540.632812 L 0.601562 540.632812 Z M 0.601562 0 " fill-opacity="1" fill-rule="nonzero"/><path fill="#007934" d="M 749.191406 457.460938 C 749.191406 503.390625 711.960938 540.632812 666.039062 540.632812 L 83.960938 540.632812 C 38.039062 540.632812 0.808594 503.390625 0.808594 457.460938 L 0.808594 83.175781 C 0.808594 37.242188 38.039062 0 83.960938 0 L 666.039062 0 C 711.960938 0 749.191406 37.242188 749.191406 83.175781 Z M 749.191406 457.460938 " fill-opacity="1" fill-rule="nonzero"/></g><g clip-path="url(#c5c21b9335)"><path fill="#ffe000" d="M 0.808594 166.347656 L 749.191406 166.347656 L 749.191406 374.285156 L 0.808594 374.285156 Z M 0.808594 166.347656 " fill-opacity="1" fill-rule="nonzero"/></g><g clip-path="url(#d4aaa397f8)"><path fill="#d52b1e" d="M 666.039062 0 L 83.960938 0 C 38.039062 0 0.808594 37.242188 0.808594 83.175781 L 0.808594 166.347656 L 749.191406 166.347656 L 749.191406 83.175781 C 749.191406 37.242188 711.960938 0 666.039062 0 Z M 666.039062 0 " fill-opacity="1" fill-rule="nonzero"/></g><path fill="#ffffff" d="M 268.855469 235.695312 C 269.707031 236.984375 276.773438 247.132812 276.773438 247.132812 L 286.941406 247.132812 L 282.78125 241.414062 Z M 284.09375 225.546875 C 284.945312 226.816406 292.011719 236.984375 292.011719 236.984375 L 302.179688 236.984375 L 298.019531 231.265625 Z M 298.269531 212.78125 C 298.664062 214.257812 302.117188 226.152344 302.117188 226.152344 L 311.71875 229.414062 L 309.640625 222.679688 Z M 298.269531 212.78125 " fill-opacity="1" fill-rule="nonzero"/><path fill="#a05a2d" d="M 290.871094 343.054688 C 290.039062 343.488281 289.019531 343.15625 288.601562 342.304688 C 288.167969 341.472656 288.519531 340.433594 289.332031 340.039062 L 340.617188 313.835938 C 341.449219 313.402344 342.464844 313.734375 342.882812 314.542969 C 343.320312 315.398438 342.964844 316.417969 342.15625 316.832031 Z M 301.140625 352.535156 C 300.347656 353.035156 299.308594 352.804688 298.789062 352.035156 C 298.289062 351.285156 298.476562 350.207031 299.269531 349.6875 L 347.289062 317.933594 C 348.078125 317.414062 349.117188 317.601562 349.636719 318.390625 C 350.15625 319.183594 349.949219 320.199219 349.160156 320.71875 Z M 301.140625 352.535156 " fill-opacity="1" fill-rule="nonzero"/><path fill="#a05a2d" d="M 311.53125 361.332031 C 310.910156 362.015625 309.828125 362.101562 309.140625 361.496094 C 308.433594 360.871094 308.375 359.792969 308.996094 359.085938 L 347.058594 315.875 C 347.683594 315.167969 348.746094 315.128906 349.449219 315.730469 C 350.15625 316.332031 350.21875 317.394531 349.597656 318.101562 Z M 311.53125 361.332031 " fill-opacity="1" fill-rule="nonzero"/><path fill="#a05a2d" d="M 361.445312 326.769531 L 349.597656 351.328125 L 347.476562 349.167969 L 342.859375 355.550781 L 330.324219 348.730469 L 345.894531 318.289062 Z M 361.445312 326.769531 " fill-opacity="1" fill-rule="nonzero"/><path fill="#d52b1e" d="M 366.539062 364.40625 L 375 324.214844 L 374.125 289.050781 L 313.195312 230.828125 L 308.957031 244.179688 L 300.496094 237.402344 L 297.957031 251.375 C 297.957031 251.375 287.355469 243.761719 286.941406 245.03125 C 286.523438 246.300781 283.96875 277.21875 283.117188 294.582031 C 282.285156 311.925781 281.578125 337.75 300.472656 341.160156 C 333.484375 347.085938 358.035156 322.53125 358.035156 322.53125 C 358.035156 322.53125 366.082031 330.160156 366.496094 331.429688 C 366.914062 332.699219 363.523438 347.503906 362.257812 353.449219 C 361.03125 359.335938 366.539062 364.40625 366.539062 364.40625 Z M 366.539062 364.40625 " fill-opacity="1" fill-rule="nonzero"/><path fill="#ffe000" d="M 324.171875 242.121094 L 320.804688 251.789062 L 315.296875 248.816406 C 315.296875 248.816406 301.261719 319.535156 324.152344 325.046875 C 347.039062 330.554688 349.597656 321.21875 349.597656 321.21875 L 338.578125 306.414062 L 330.324219 310.21875 C 330.324219 310.21875 326.3125 299.28125 326.3125 284.4375 C 326.3125 271.191406 328.433594 258.132812 328.433594 258.132812 L 332.632812 261.085938 L 333.507812 251.351562 Z M 324.171875 242.121094 " fill-opacity="1" fill-rule="nonzero"/><path fill="#007934" d="M 347.476562 263.226562 L 333.507812 251.351562 L 332.632812 261.085938 L 327.164062 257.277344 C 327.164062 257.277344 324.128906 267.449219 324.171875 280.566406 C 324.214844 293.6875 325.898438 306.414062 325.898438 306.414062 C 325.898438 306.414062 335.625 309.78125 340.699219 306.414062 C 345.792969 303.023438 347.476562 263.226562 347.476562 263.226562 Z M 347.476562 263.226562 " fill-opacity="1" fill-rule="nonzero"/><path fill="#e8a30f" d="M 342.859375 303.023438 C 331.863281 307.746094 309.371094 316.230469 315.296875 326.769531 C 321.242188 337.335938 338.578125 333.113281 349.597656 321.21875 C 360.613281 309.367188 342.859375 303.023438 342.859375 303.023438 Z M 342.859375 303.023438 " fill-opacity="1" fill-rule="nonzero"/><path fill="#ffffff" d="M 481.125 235.695312 C 480.292969 236.984375 473.203125 247.132812 473.203125 247.132812 L 463.039062 247.132812 L 467.175781 241.414062 Z M 465.886719 225.546875 C 465.054688 226.816406 457.988281 236.984375 457.988281 236.984375 L 447.820312 236.984375 L 451.957031 231.265625 Z M 451.730469 212.78125 L 447.882812 226.152344 L 438.257812 229.414062 L 440.359375 222.679688 Z M 451.730469 212.78125 " fill-opacity="1" fill-rule="nonzero"/><path fill="#a05a2d" d="M 459.128906 343.054688 C 459.960938 343.488281 461 343.15625 461.398438 342.304688 C 461.832031 341.472656 461.5 340.433594 460.667969 340.039062 L 409.40625 313.835938 C 408.550781 313.402344 407.554688 313.734375 407.117188 314.542969 C 406.679688 315.398438 407.015625 316.417969 407.867188 316.832031 Z M 448.859375 352.535156 C 449.652344 353.035156 450.710938 352.804688 451.210938 352.035156 C 451.730469 351.285156 451.523438 350.207031 450.730469 349.6875 L 402.730469 317.933594 C 401.960938 317.414062 400.902344 317.601562 400.402344 318.390625 C 399.882812 319.183594 400.089844 320.199219 400.859375 320.71875 Z M 448.859375 352.535156 " fill-opacity="1" fill-rule="nonzero"/><path fill="#a05a2d" d="M 438.488281 361.332031 C 439.089844 362.015625 440.171875 362.101562 440.859375 361.496094 C 441.566406 360.871094 441.625 359.792969 441.023438 359.085938 L 402.960938 315.875 C 402.378906 315.167969 401.296875 315.128906 400.589844 315.730469 C 399.882812 316.332031 399.820312 317.394531 400.425781 318.101562 Z M 438.488281 361.332031 " fill-opacity="1" fill-rule="nonzero"/><path fill="#a05a2d" d="M 388.554688 326.769531 L 400.402344 351.328125 L 402.523438 349.167969 L 407.140625 355.550781 L 419.675781 348.730469 L 404.105469 318.289062 Z M 388.554688 326.769531 " fill-opacity="1" fill-rule="nonzero"/><path fill="#d52b1e" d="M 383.460938 364.40625 L 375 324.214844 L 375.875 289.050781 L 436.804688 230.828125 L 441.066406 244.179688 L 449.527344 237.402344 L 452.0625 251.375 C 452.0625 251.375 462.625 243.761719 463.039062 245.03125 C 463.476562 246.300781 466.03125 277.21875 466.863281 294.582031 C 467.714844 311.925781 468.421875 337.75 449.527344 341.160156 C 416.492188 347.085938 391.941406 322.53125 391.941406 322.53125 C 391.941406 322.53125 383.898438 330.160156 383.480469 331.429688 C 383.066406 332.699219 386.453125 347.503906 387.722656 353.449219 C 388.96875 359.335938 383.460938 364.40625 383.460938 364.40625 Z M 383.460938 364.40625 " fill-opacity="1" fill-rule="nonzero"/><path fill="#ffe000" d="M 425.828125 242.121094 L 429.175781 251.789062 L 434.683594 248.816406 C 434.683594 248.816406 448.738281 319.535156 425.828125 325.046875 C 402.941406 330.554688 400.382812 321.21875 400.382812 321.21875 L 411.378906 306.414062 L 419.652344 310.21875 C 419.652344 310.21875 423.644531 299.28125 423.644531 284.4375 C 423.644531 271.191406 421.523438 258.132812 421.523438 258.132812 L 417.324219 261.085938 L 416.453125 251.351562 Z M 425.828125 242.121094 " fill-opacity="1" fill-rule="nonzero"/><path fill="#007934" d="M 402.523438 263.226562 L 416.492188 251.351562 L 417.367188 261.085938 L 422.835938 257.277344 C 422.835938 257.277344 425.871094 267.449219 425.828125 280.566406 C 425.785156 293.6875 424.101562 306.414062 424.101562 306.414062 C 424.101562 306.414062 414.351562 309.78125 409.28125 306.414062 C 404.1875 303.023438 402.523438 263.226562 402.523438 263.226562 Z M 402.523438 263.226562 " fill-opacity="1" fill-rule="nonzero"/><path fill="#e8a30f" d="M 407.140625 303.023438 C 418.136719 307.746094 440.609375 316.230469 434.683594 326.769531 C 428.757812 337.335938 411.402344 333.113281 400.402344 321.21875 C 389.386719 309.367188 407.140625 303.023438 407.140625 303.023438 Z M 407.140625 303.023438 " fill-opacity="1" fill-rule="nonzero"/><path fill="#d52b1e" d="M 340.304688 225.089844 C 343.859375 229.292969 343.691406 235.257812 339.929688 238.441406 C 336.1875 241.621094 330.285156 240.789062 326.730469 236.589844 C 323.195312 232.390625 323.339844 226.421875 327.082031 223.238281 C 330.824219 220.058594 336.75 220.890625 340.304688 225.089844 Z M 340.304688 225.089844 " fill-opacity="1" fill-rule="nonzero"/><path fill="#e7e7e7" d="M 411.378906 225.089844 C 407.84375 229.292969 408.011719 235.257812 411.773438 238.441406 C 415.539062 241.621094 421.421875 240.789062 424.996094 236.589844 C 428.550781 232.390625 428.382812 226.421875 424.621094 223.238281 C 420.859375 220.058594 414.957031 220.890625 411.378906 225.089844 Z M 411.378906 225.089844 " fill-opacity="1" fill-rule="nonzero"/><path fill="#007934" d="M 397.867188 176.414062 C 394.894531 178.535156 403.375 192.070312 401.691406 206.894531 C 399.96875 221.722656 375 233.574219 375 233.574219 C 375 233.574219 350.011719 221.722656 348.328125 206.894531 C 346.625 192.089844 355.105469 178.535156 352.132812 176.414062 C 349.160156 174.292969 333.507812 187.847656 332.675781 202.238281 C 331.824219 216.628906 346.394531 238.316406 355.957031 242.472656 C 365.519531 246.632812 375.019531 248.816406 375.019531 248.816406 C 375.019531 248.816406 384.5 246.613281 394.082031 242.472656 C 403.667969 238.316406 418.238281 216.628906 417.367188 202.238281 C 416.492188 187.847656 400.820312 174.292969 397.867188 176.414062 Z M 397.867188 176.414062 " fill-opacity="1" fill-rule="nonzero"/><path fill="#ffffff" d="M 375 233.160156 C 375 233.160156 377.535156 224.257812 394.0625 219.183594 C 410.570312 214.089844 426.222656 210.285156 432.167969 209.871094 C 438.113281 209.433594 408.675781 198.015625 401.691406 197.164062 C 394.707031 196.332031 386.039062 198.015625 384.75 203.113281 C 383.480469 208.183594 381.359375 206.5 375.019531 207.355469 C 368.660156 208.183594 364.4375 202.257812 361.464844 198.039062 C 358.515625 193.796875 347.269531 195.917969 341.78125 196.355469 C 336.269531 196.769531 315.316406 209.890625 315.316406 209.890625 C 315.316406 209.890625 351.738281 215.816406 359.347656 219.621094 C 366.953125 223.449219 359.761719 236.984375 357.664062 240.8125 C 355.519531 244.59375 370.238281 239.625 375 233.160156 Z M 375 233.160156 " fill-opacity="1" fill-rule="nonzero"/><path fill="#000000" d="M 375 233.160156 C 375 233.160156 377.535156 224.257812 394.0625 219.183594 C 410.570312 214.089844 426.222656 210.285156 432.167969 209.871094 C 438.113281 209.433594 410.589844 200.96875 403.585938 200.117188 C 396.597656 199.285156 391.109375 199.285156 389.84375 204.359375 C 388.574219 209.433594 381.382812 206.480469 375.019531 207.332031 C 368.660156 208.164062 361.464844 206.066406 358.515625 201.824219 C 355.542969 197.582031 350.46875 199.285156 344.960938 199.703125 C 339.472656 200.117188 315.335938 209.871094 315.335938 209.871094 C 315.335938 209.871094 351.757812 215.796875 359.367188 219.601562 C 366.976562 223.425781 359.78125 236.964844 357.683594 240.789062 C 355.519531 244.59375 370.238281 239.625 375 233.160156 Z M 375 233.160156 " fill-opacity="1" fill-rule="nonzero"/><path fill="#00a6de" d="M 329.703125 283.957031 C 329.703125 256.59375 349.992188 234.425781 375 234.425781 C 400.027344 234.425781 420.296875 256.613281 420.296875 283.957031 C 420.296875 311.320312 400.027344 333.507812 375 333.507812 C 349.992188 333.507812 329.703125 311.34375 329.703125 283.957031 Z M 329.703125 283.957031 " fill-opacity="1" fill-rule="nonzero"/><path fill="#e8a30f" d="M 341.757812 283.957031 C 341.757812 262.457031 356.644531 245.011719 375 245.011719 C 393.355469 245.011719 408.242188 262.457031 408.242188 283.957031 C 408.242188 305.5 393.355469 322.925781 375 322.925781 C 356.644531 322.925781 341.757812 305.5 341.757812 283.957031 Z M 341.757812 283.957031 " fill-opacity="1" fill-rule="nonzero"/><path fill="#d52b1e" d="M 360.613281 267.03125 C 360.613281 259.089844 367.058594 252.640625 375 252.640625 C 382.941406 252.640625 389.386719 259.109375 389.386719 267.03125 C 389.386719 274.996094 382.941406 281.441406 375 281.441406 C 367.058594 281.441406 360.613281 274.996094 360.613281 267.03125 Z M 360.613281 267.03125 " fill-opacity="1" fill-rule="nonzero"/><path fill="#007934" d="M 375 322.925781 C 392.648438 322.925781 407.097656 306.808594 408.179688 286.433594 C 397.347656 282.417969 379.449219 267.03125 375 267.03125 C 370.34375 267.03125 364.417969 272.125 356.808594 278.882812 C 352.902344 282.378906 346.832031 285.183594 341.882812 287.097656 C 343.234375 307.140625 357.539062 322.925781 375 322.925781 Z M 375 322.925781 " fill-opacity="1" fill-rule="nonzero"/><path fill="#e8a30f" d="M 379.242188 210.703125 C 379.242188 212.824219 374.875 214.527344 369.511719 214.527344 C 364.128906 214.527344 359.761719 212.824219 359.761719 210.703125 C 359.761719 208.601562 364.128906 206.894531 369.511719 206.894531 C 374.875 206.894531 379.242188 208.621094 379.242188 210.703125 Z M 379.242188 210.703125 " fill-opacity="1" fill-rule="nonzero"/><path fill="#ffffff" d="M 358.058594 303.023438 L 368.222656 303.023438 L 371.175781 294.5625 L 375 299.199219 L 370.757812 311.488281 L 361.445312 311.488281 Z M 358.058594 303.023438 " fill-opacity="1" fill-rule="nonzero"/><path fill="#b37d0a" d="M 383.875 310.21875 C 383.875 314.191406 381.902344 317.433594 379.449219 317.433594 C 376.996094 317.433594 375 314.210938 375 310.21875 C 375 306.25 376.996094 303.023438 379.449219 303.023438 C 381.902344 303.023438 383.875 306.25 383.875 310.21875 Z M 390.238281 317.433594 C 390.238281 317.933594 389.84375 318.289062 389.386719 318.289062 C 388.929688 318.289062 388.535156 317.933594 388.535156 317.433594 L 388.535156 295.414062 C 388.535156 294.957031 388.90625 294.5625 389.386719 294.5625 C 389.84375 294.5625 390.238281 294.957031 390.238281 295.414062 Z M 390.238281 317.433594 " fill-opacity="1" fill-rule="nonzero"/><path fill="#32b266" d="M 396.578125 293.273438 C 396.578125 297.015625 393.273438 300.050781 389.175781 300.050781 C 385.082031 300.050781 381.777344 297.015625 381.777344 293.273438 C 381.777344 289.53125 385.101562 286.496094 389.175781 286.496094 C 393.273438 286.515625 396.578125 289.53125 396.578125 293.273438 Z M 396.578125 293.273438 " fill-opacity="1" fill-rule="nonzero"/></svg>