<svg xmlns="http://www.w3.org/2000/svg" xmlns:xlink="http://www.w3.org/1999/xlink" width="1000" zoomAndPan="magnify" viewBox="0 0 750 549.12" height="722" preserveAspectRatio="xMidYMid meet" version="1.0"><defs><clipPath id="4d082f731c"><path d="M 0.601562 0 L 749.398438 0 L 749.398438 540.632812 L 0.601562 540.632812 Z M 0.601562 0 " clip-rule="nonzero"/></clipPath><clipPath id="09b55171fa"><path d="M 0.601562 0 L 272 0 L 272 271 L 0.601562 271 Z M 0.601562 0 " clip-rule="nonzero"/></clipPath><clipPath id="d11bc93dce"><path d="M 271 0 L 749.398438 0 L 749.398438 271 L 271 271 Z M 271 0 " clip-rule="nonzero"/></clipPath><clipPath id="27b76e5799"><path d="M 0.601562 270 L 749.398438 270 L 749.398438 540.632812 L 0.601562 540.632812 Z M 0.601562 270 " clip-rule="nonzero"/></clipPath></defs><g clip-path="url(#4d082f731c)"><path fill="#ffffff" d="M 0.601562 0 L 749.398438 0 L 749.398438 540.632812 L 0.601562 540.632812 Z M 0.601562 0 " fill-opacity="1" fill-rule="nonzero"/><path fill="#ffffff" d="M 0.601562 0 L 749.398438 0 L 749.398438 540.632812 L 0.601562 540.632812 Z M 0.601562 0 " fill-opacity="1" fill-rule="nonzero"/></g><g clip-path="url(#09b55171fa)"><path fill="#1f429b" d="M 271.058594 0 L 83.960938 0 C 38.039062 0 0.808594 37.242188 0.808594 83.175781 L 0.808594 270.316406 L 271.058594 270.316406 Z M 174.121094 193.214844 L 134.996094 164.789062 L 95.875 193.214844 L 110.820312 147.21875 L 71.695312 118.773438 L 120.050781 118.773438 L 134.996094 72.777344 L 149.945312 118.773438 L 198.296875 118.773438 L 159.175781 147.21875 Z M 174.121094 193.214844 " fill-opacity="1" fill-rule="nonzero"/></g><g clip-path="url(#d11bc93dce)"><path fill="#eeeeee" d="M 666.039062 0 L 271.058594 0 L 271.058594 270.316406 L 749.191406 270.316406 L 749.191406 83.175781 C 749.191406 37.242188 711.960938 0 666.039062 0 Z M 666.039062 0 " fill-opacity="1" fill-rule="nonzero"/></g><g clip-path="url(#27b76e5799)"><path fill="#d42d27" d="M 0.808594 270.316406 L 0.808594 457.460938 C 0.808594 503.390625 38.039062 540.632812 83.960938 540.632812 L 666.039062 540.632812 C 711.960938 540.632812 749.191406 503.390625 749.191406 457.460938 L 749.191406 270.316406 Z M 0.808594 270.316406 " fill-opacity="1" fill-rule="nonzero"/></g><path fill="#ffffff" d="M 149.945312 118.773438 L 134.996094 72.777344 L 120.050781 118.773438 L 71.695312 118.773438 L 110.820312 147.21875 L 95.875 193.214844 L 134.996094 164.789062 L 174.121094 193.214844 L 159.175781 147.21875 L 198.296875 118.773438 Z M 149.945312 118.773438 " fill-opacity="1" fill-rule="nonzero"/></svg>