<svg xmlns="http://www.w3.org/2000/svg" xmlns:xlink="http://www.w3.org/1999/xlink" width="1000" zoomAndPan="magnify" viewBox="0 0 750 549.12" height="722" preserveAspectRatio="xMidYMid meet" version="1.0"><defs><clipPath id="1eee93afd6"><path d="M 0.601562 0 L 749.398438 0 L 749.398438 540.632812 L 0.601562 540.632812 Z M 0.601562 0 " clip-rule="nonzero"/></clipPath><clipPath id="ff9f700223"><path d="M 0.601562 0 L 749.398438 0 L 749.398438 271 L 0.601562 271 Z M 0.601562 0 " clip-rule="nonzero"/></clipPath><clipPath id="cede4e0372"><path d="M 0.601562 270 L 749.398438 270 L 749.398438 416 L 0.601562 416 Z M 0.601562 270 " clip-rule="nonzero"/></clipPath><clipPath id="e31c252778"><path d="M 0.601562 415 L 749.398438 415 L 749.398438 540.632812 L 0.601562 540.632812 Z M 0.601562 415 " clip-rule="nonzero"/></clipPath></defs><g clip-path="url(#1eee93afd6)"><path fill="#ffffff" d="M 0.601562 0 L 749.398438 0 L 749.398438 540.632812 L 0.601562 540.632812 Z M 0.601562 0 " fill-opacity="1" fill-rule="nonzero"/><path fill="#ffffff" d="M 0.601562 0 L 749.398438 0 L 749.398438 540.632812 L 0.601562 540.632812 Z M 0.601562 0 " fill-opacity="1" fill-rule="nonzero"/></g><g clip-path="url(#ff9f700223)"><path fill="#fbd116" d="M 666.039062 0 L 83.960938 0 C 38.039062 0 0.808594 37.242188 0.808594 83.175781 L 0.808594 270.316406 L 749.191406 270.316406 L 749.191406 83.175781 C 749.191406 37.242188 711.960938 0 666.039062 0 Z M 666.039062 0 " fill-opacity="1" fill-rule="nonzero"/></g><g clip-path="url(#cede4e0372)"><path fill="#22408c" d="M 0.808594 270.316406 L 749.191406 270.316406 L 749.191406 415.871094 L 0.808594 415.871094 Z M 0.808594 270.316406 " fill-opacity="1" fill-rule="nonzero"/></g><g clip-path="url(#e31c252778)"><path fill="#ce2028" d="M 0.808594 457.460938 C 0.808594 503.390625 38.039062 540.632812 83.960938 540.632812 L 666.039062 540.632812 C 711.960938 540.632812 749.191406 503.390625 749.191406 457.460938 L 749.191406 415.871094 L 0.808594 415.871094 Z M 0.808594 457.460938 " fill-opacity="1" fill-rule="nonzero"/></g></svg>