<svg xmlns="http://www.w3.org/2000/svg" xmlns:xlink="http://www.w3.org/1999/xlink" width="1000" zoomAndPan="magnify" viewBox="0 0 750 549.12" height="722" preserveAspectRatio="xMidYMid meet" version="1.0"><defs><clipPath id="721ebb06fd"><path d="M 0.601562 0 L 749.398438 0 L 749.398438 540.632812 L 0.601562 540.632812 Z M 0.601562 0 " clip-rule="nonzero"/></clipPath><clipPath id="dc36d3ecba"><path d="M 0.601562 83 L 749.398438 83 L 749.398438 458 L 0.601562 458 Z M 0.601562 83 " clip-rule="nonzero"/></clipPath><clipPath id="303c7952b9"><path d="M 0.601562 166 L 749.398438 166 L 749.398438 375 L 0.601562 375 Z M 0.601562 166 " clip-rule="nonzero"/></clipPath></defs><g clip-path="url(#721ebb06fd)"><path fill="#ffffff" d="M 0.601562 0 L 749.398438 0 L 749.398438 540.632812 L 0.601562 540.632812 Z M 0.601562 0 " fill-opacity="1" fill-rule="nonzero"/><path fill="#ffffff" d="M 0.601562 0 L 749.398438 0 L 749.398438 540.632812 L 0.601562 540.632812 Z M 0.601562 0 " fill-opacity="1" fill-rule="nonzero"/><path fill="#002b7f" d="M 749.1875 457.460938 C 749.1875 503.390625 711.957031 540.632812 666.035156 540.632812 L 83.964844 540.632812 C 38.042969 540.632812 0.8125 503.390625 0.8125 457.460938 L 0.8125 83.175781 C 0.8125 37.242188 38.042969 0 83.964844 0 L 666.035156 0 C 711.957031 0 749.1875 37.242188 749.1875 83.175781 Z M 749.1875 457.460938 " fill-opacity="1" fill-rule="nonzero"/></g><g clip-path="url(#dc36d3ecba)"><path fill="#eeeeee" d="M 0.8125 83.175781 L 749.1875 83.175781 L 749.1875 457.460938 L 0.8125 457.460938 Z M 0.8125 83.175781 " fill-opacity="1" fill-rule="nonzero"/></g><g clip-path="url(#303c7952b9)"><path fill="#ce1225" d="M 0.8125 166.347656 L 749.1875 166.347656 L 749.1875 374.285156 L 0.8125 374.285156 Z M 0.8125 166.347656 " fill-opacity="1" fill-rule="nonzero"/></g><path fill="#eeeeee" d="M 250.269531 270.316406 C 250.269531 271.679688 250.242188 273.039062 250.183594 274.398438 C 250.125 275.757812 250.039062 277.113281 249.921875 278.46875 C 249.804688 279.824219 249.65625 281.175781 249.484375 282.519531 C 249.308594 283.867188 249.105469 285.207031 248.871094 286.542969 C 248.640625 287.878906 248.378906 289.207031 248.089844 290.527344 C 247.800781 291.847656 247.484375 293.160156 247.136719 294.460938 C 246.792969 295.761719 246.417969 297.054688 246.015625 298.335938 C 245.617188 299.617188 245.1875 300.886719 244.730469 302.144531 C 244.277344 303.402344 243.792969 304.648438 243.285156 305.878906 C 242.777344 307.109375 242.242188 308.324219 241.679688 309.523438 C 241.117188 310.726562 240.53125 311.910156 239.917969 313.078125 C 239.308594 314.246094 238.671875 315.394531 238.007812 316.527344 C 237.347656 317.65625 236.660156 318.769531 235.953125 319.863281 C 235.242188 320.957031 234.511719 322.03125 233.753906 323.082031 C 233 324.132812 232.222656 325.164062 231.421875 326.171875 C 230.621094 327.183594 229.800781 328.167969 228.960938 329.128906 C 228.117188 330.09375 227.257812 331.03125 226.375 331.945312 C 225.492188 332.859375 224.589844 333.746094 223.667969 334.613281 C 222.75 335.476562 221.8125 336.3125 220.855469 337.125 C 219.898438 337.933594 218.925781 338.71875 217.933594 339.472656 C 216.945312 340.230469 215.9375 340.957031 214.917969 341.65625 C 213.894531 342.359375 212.859375 343.027344 211.808594 343.671875 C 210.761719 344.3125 209.695312 344.921875 208.621094 345.503906 C 207.542969 346.085938 206.457031 346.640625 205.355469 347.160156 C 204.253906 347.679688 203.144531 348.171875 202.023438 348.628906 C 200.902344 349.085938 199.773438 349.515625 198.632812 349.910156 C 197.492188 350.304688 196.347656 350.667969 195.191406 351 C 194.035156 351.328125 192.875 351.628906 191.707031 351.894531 C 190.539062 352.160156 189.367188 352.390625 188.1875 352.589844 C 187.011719 352.789062 185.828125 352.957031 184.644531 353.089844 C 183.457031 353.222656 182.273438 353.324219 181.082031 353.390625 C 179.894531 353.457031 178.703125 353.492188 177.511719 353.492188 C 176.320312 353.492188 175.132812 353.457031 173.941406 353.390625 C 172.753906 353.324219 171.566406 353.222656 170.378906 353.089844 C 169.195312 352.957031 168.015625 352.789062 166.835938 352.589844 C 165.660156 352.390625 164.484375 352.160156 163.316406 351.894531 C 162.148438 351.628906 160.988281 351.328125 159.832031 351 C 158.679688 350.667969 157.53125 350.304688 156.390625 349.910156 C 155.25 349.515625 154.121094 349.085938 153 348.628906 C 151.878906 348.171875 150.769531 347.679688 149.667969 347.160156 C 148.570312 346.640625 147.480469 346.085938 146.402344 345.503906 C 145.328125 344.921875 144.265625 344.3125 143.214844 343.671875 C 142.164062 343.027344 141.128906 342.359375 140.105469 341.65625 C 139.085938 340.957031 138.078125 340.230469 137.089844 339.472656 C 136.097656 338.71875 135.125 337.933594 134.167969 337.125 C 133.214844 336.3125 132.273438 335.476562 131.355469 334.613281 C 130.433594 333.746094 129.53125 332.859375 128.648438 331.945312 C 127.769531 331.03125 126.90625 330.09375 126.0625 329.128906 C 125.222656 328.167969 124.402344 327.183594 123.601562 326.171875 C 122.800781 325.164062 122.023438 324.132812 121.269531 323.082031 C 120.511719 322.03125 119.78125 320.957031 119.070312 319.863281 C 118.363281 318.769531 117.675781 317.65625 117.015625 316.527344 C 116.355469 315.394531 115.71875 314.246094 115.105469 313.078125 C 114.492188 311.910156 113.90625 310.726562 113.34375 309.523438 C 112.785156 308.324219 112.25 307.109375 111.738281 305.878906 C 111.230469 304.648438 110.746094 303.402344 110.292969 302.144531 C 109.835938 300.886719 109.40625 299.617188 109.007812 298.335938 C 108.605469 297.054688 108.230469 295.761719 107.886719 294.460938 C 107.539062 293.160156 107.222656 291.847656 106.933594 290.527344 C 106.644531 289.207031 106.382812 287.878906 106.152344 286.542969 C 105.917969 285.207031 105.714844 283.867188 105.539062 282.519531 C 105.367188 281.175781 105.21875 279.824219 105.105469 278.46875 C 104.988281 277.113281 104.898438 275.757812 104.839844 274.398438 C 104.78125 273.039062 104.753906 271.679688 104.753906 270.316406 C 104.753906 268.957031 104.78125 267.59375 104.839844 266.234375 C 104.898438 264.875 104.988281 263.519531 105.105469 262.164062 C 105.21875 260.808594 105.367188 259.460938 105.539062 258.113281 C 105.714844 256.765625 105.917969 255.425781 106.152344 254.089844 C 106.382812 252.753906 106.644531 251.425781 106.933594 250.105469 C 107.222656 248.785156 107.539062 247.476562 107.886719 246.171875 C 108.230469 244.871094 108.605469 243.578125 109.007812 242.296875 C 109.40625 241.015625 109.835938 239.746094 110.292969 238.488281 C 110.746094 237.230469 111.230469 235.984375 111.738281 234.753906 C 112.25 233.523438 112.785156 232.308594 113.34375 231.109375 C 113.90625 229.90625 114.492188 228.722656 115.105469 227.554688 C 115.71875 226.390625 116.355469 225.238281 117.015625 224.109375 C 117.675781 222.976562 118.363281 221.863281 119.070312 220.769531 C 119.78125 219.675781 120.511719 218.605469 121.269531 217.550781 C 122.023438 216.5 122.800781 215.46875 123.601562 214.460938 C 124.402344 213.453125 125.222656 212.464844 126.0625 211.503906 C 126.90625 210.542969 127.769531 209.601562 128.648438 208.6875 C 129.53125 207.773438 130.433594 206.886719 131.355469 206.023438 C 132.273438 205.160156 133.214844 204.320312 134.167969 203.511719 C 135.125 202.699219 136.097656 201.914062 137.089844 201.160156 C 138.078125 200.402344 139.085938 199.675781 140.105469 198.976562 C 141.128906 198.277344 142.164062 197.605469 143.214844 196.964844 C 144.265625 196.320312 145.328125 195.710938 146.402344 195.128906 C 147.480469 194.546875 148.570312 193.996094 149.667969 193.472656 C 150.769531 192.953125 151.878906 192.464844 153 192.003906 C 154.121094 191.546875 155.25 191.117188 156.390625 190.722656 C 157.53125 190.328125 158.679688 189.964844 159.832031 189.636719 C 160.988281 189.304688 162.148438 189.007812 163.316406 188.742188 C 164.484375 188.476562 165.660156 188.242188 166.835938 188.042969 C 168.015625 187.84375 169.195312 187.675781 170.378906 187.542969 C 171.566406 187.410156 172.753906 187.308594 173.941406 187.242188 C 175.132812 187.175781 176.320312 187.140625 177.511719 187.140625 C 178.703125 187.140625 179.894531 187.175781 181.082031 187.242188 C 182.273438 187.308594 183.457031 187.410156 184.644531 187.542969 C 185.828125 187.675781 187.011719 187.84375 188.1875 188.042969 C 189.367188 188.242188 190.539062 188.476562 191.707031 188.742188 C 192.875 189.007812 194.035156 189.304688 195.191406 189.636719 C 196.347656 189.964844 197.492188 190.328125 198.632812 190.722656 C 199.773438 191.117188 200.902344 191.546875 202.023438 192.003906 C 203.144531 192.464844 204.253906 192.953125 205.355469 193.472656 C 206.457031 193.996094 207.542969 194.546875 208.621094 195.128906 C 209.695312 195.710938 210.761719 196.320312 211.808594 196.964844 C 212.859375 197.605469 213.894531 198.277344 214.917969 198.976562 C 215.9375 199.675781 216.945312 200.402344 217.933594 201.160156 C 218.925781 201.914062 219.898438 202.699219 220.855469 203.511719 C 221.8125 204.320312 222.75 205.160156 223.667969 206.023438 C 224.589844 206.886719 225.492188 207.773438 226.375 208.6875 C 227.257812 209.601562 228.117188 210.542969 228.960938 211.503906 C 229.800781 212.464844 230.621094 213.453125 231.421875 214.460938 C 232.222656 215.46875 233 216.5 233.753906 217.550781 C 234.511719 218.605469 235.242188 219.675781 235.953125 220.769531 C 236.660156 221.863281 237.347656 222.976562 238.007812 224.109375 C 238.671875 225.238281 239.308594 226.390625 239.917969 227.554688 C 240.53125 228.722656 241.117188 229.90625 241.679688 231.109375 C 242.242188 232.308594 242.777344 233.523438 243.285156 234.753906 C 243.792969 235.984375 244.277344 237.230469 244.730469 238.488281 C 245.1875 239.746094 245.617188 241.015625 246.015625 242.296875 C 246.417969 243.578125 246.792969 244.871094 247.136719 246.171875 C 247.484375 247.476562 247.800781 248.785156 248.089844 250.105469 C 248.378906 251.425781 248.640625 252.753906 248.871094 254.089844 C 249.105469 255.425781 249.308594 256.765625 249.484375 258.113281 C 249.65625 259.460938 249.804688 260.808594 249.921875 262.164062 C 250.039062 263.519531 250.125 264.875 250.183594 266.234375 C 250.242188 267.59375 250.269531 268.957031 250.269531 270.316406 Z M 250.269531 270.316406 " fill-opacity="1" fill-rule="nonzero"/><path fill="#f4cb58" d="M 214.285156 301.507812 C 214.285156 318.722656 197.820312 344.738281 177.511719 344.738281 C 157.203125 344.738281 140.738281 318.722656 140.738281 301.507812 C 140.738281 284.269531 157.203125 270.316406 177.511719 270.316406 C 197.820312 270.316406 214.285156 284.269531 214.285156 301.507812 Z M 214.285156 301.507812 " fill-opacity="1" fill-rule="nonzero"/><path fill="#dca841" d="M 229.484375 301.507812 C 229.484375 302.527344 229.398438 303.546875 229.230469 304.5625 C 229.066406 305.582031 228.816406 306.589844 228.484375 307.59375 C 228.152344 308.59375 227.738281 309.582031 227.246094 310.5625 C 226.75 311.539062 226.179688 312.5 225.527344 313.441406 C 224.875 314.386719 224.148438 315.308594 223.347656 316.210938 C 222.542969 317.109375 221.667969 317.984375 220.722656 318.835938 C 219.777344 319.683594 218.765625 320.503906 217.6875 321.292969 C 216.605469 322.082031 215.464844 322.839844 214.261719 323.5625 C 213.058594 324.285156 211.796875 324.96875 210.480469 325.617188 C 209.167969 326.265625 207.800781 326.875 206.386719 327.441406 C 204.96875 328.007812 203.511719 328.53125 202.011719 329.015625 C 200.507812 329.496094 198.972656 329.933594 197.398438 330.324219 C 195.828125 330.714844 194.226562 331.058594 192.597656 331.355469 C 190.96875 331.652344 189.320312 331.898438 187.652344 332.097656 C 185.980469 332.296875 184.300781 332.449219 182.605469 332.546875 C 180.914062 332.648438 179.214844 332.699219 177.511719 332.699219 C 175.808594 332.699219 174.113281 332.648438 172.417969 332.546875 C 170.722656 332.449219 169.042969 332.296875 167.375 332.097656 C 165.703125 331.898438 164.054688 331.652344 162.425781 331.355469 C 160.796875 331.058594 159.195312 330.714844 157.625 330.324219 C 156.050781 329.933594 154.515625 329.496094 153.011719 329.015625 C 151.511719 328.53125 150.054688 328.007812 148.640625 327.441406 C 147.222656 326.875 145.859375 326.265625 144.542969 325.617188 C 143.226562 324.96875 141.96875 324.285156 140.761719 323.5625 C 139.558594 322.839844 138.417969 322.082031 137.339844 321.292969 C 136.257812 320.503906 135.246094 319.683594 134.300781 318.835938 C 133.355469 317.984375 132.480469 317.109375 131.679688 316.210938 C 130.875 315.308594 130.148438 314.386719 129.496094 313.441406 C 128.847656 312.5 128.273438 311.539062 127.78125 310.5625 C 127.285156 309.582031 126.871094 308.59375 126.539062 307.59375 C 126.207031 306.589844 125.957031 305.582031 125.792969 304.5625 C 125.625 303.546875 125.542969 302.527344 125.542969 301.507812 C 125.542969 300.484375 125.625 299.464844 125.792969 298.449219 C 125.957031 297.433594 126.207031 296.425781 126.539062 295.421875 C 126.871094 294.421875 127.285156 293.429688 127.78125 292.453125 C 128.273438 291.476562 128.847656 290.515625 129.496094 289.570312 C 130.148438 288.628906 130.875 287.703125 131.679688 286.804688 C 132.480469 285.902344 133.355469 285.027344 134.300781 284.179688 C 135.246094 283.328125 136.257812 282.511719 137.339844 281.71875 C 138.417969 280.929688 139.558594 280.175781 140.761719 279.453125 C 141.96875 278.730469 143.226562 278.042969 144.542969 277.398438 C 145.859375 276.75 147.222656 276.140625 148.640625 275.574219 C 150.054688 275.003906 151.511719 274.480469 153.011719 274 C 154.515625 273.519531 156.050781 273.082031 157.625 272.691406 C 159.195312 272.300781 160.796875 271.957031 162.425781 271.660156 C 164.054688 271.363281 165.703125 271.117188 167.375 270.917969 C 169.042969 270.71875 170.722656 270.566406 172.417969 270.46875 C 174.113281 270.367188 175.808594 270.316406 177.511719 270.316406 C 179.214844 270.316406 180.914062 270.367188 182.605469 270.46875 C 184.300781 270.566406 185.980469 270.71875 187.652344 270.917969 C 189.320312 271.117188 190.96875 271.363281 192.597656 271.660156 C 194.226562 271.957031 195.828125 272.300781 197.398438 272.691406 C 198.972656 273.082031 200.507812 273.519531 202.011719 274 C 203.511719 274.480469 204.96875 275.003906 206.386719 275.574219 C 207.800781 276.140625 209.167969 276.75 210.480469 277.398438 C 211.796875 278.042969 213.058594 278.730469 214.261719 279.453125 C 215.464844 280.175781 216.605469 280.929688 217.6875 281.71875 C 218.765625 282.511719 219.777344 283.328125 220.722656 284.179688 C 221.667969 285.027344 222.542969 285.902344 223.347656 286.804688 C 224.148438 287.703125 224.875 288.628906 225.527344 289.570312 C 226.179688 290.515625 226.75 291.476562 227.246094 292.453125 C 227.738281 293.429688 228.152344 294.421875 228.484375 295.421875 C 228.816406 296.425781 229.066406 297.433594 229.230469 298.449219 C 229.398438 299.464844 229.484375 300.484375 229.484375 301.507812 Z M 229.484375 301.507812 " fill-opacity="1" fill-rule="nonzero"/><path fill="#89c5e4" d="M 208.695312 228.730469 C 208.695312 229.410156 208.644531 230.089844 208.542969 230.769531 C 208.445312 231.445312 208.292969 232.117188 208.09375 232.785156 C 207.894531 233.453125 207.648438 234.113281 207.351562 234.765625 C 207.054688 235.417969 206.710938 236.058594 206.320312 236.6875 C 205.929688 237.316406 205.492188 237.929688 205.011719 238.53125 C 204.53125 239.132812 204.007812 239.714844 203.4375 240.28125 C 202.871094 240.847656 202.265625 241.394531 201.617188 241.921875 C 200.96875 242.449219 200.285156 242.953125 199.5625 243.433594 C 198.839844 243.914062 198.082031 244.371094 197.292969 244.804688 C 196.503906 245.234375 195.683594 245.640625 194.835938 246.019531 C 193.988281 246.398438 193.113281 246.746094 192.210938 247.066406 C 191.3125 247.390625 190.386719 247.679688 189.445312 247.941406 C 188.5 248.199219 187.542969 248.429688 186.5625 248.628906 C 185.585938 248.824219 184.597656 248.992188 183.59375 249.125 C 182.59375 249.257812 181.585938 249.355469 180.570312 249.421875 C 179.550781 249.488281 178.535156 249.523438 177.511719 249.523438 C 176.492188 249.523438 175.472656 249.488281 174.457031 249.421875 C 173.4375 249.355469 172.429688 249.257812 171.429688 249.125 C 170.425781 248.992188 169.4375 248.824219 168.460938 248.628906 C 167.484375 248.429688 166.523438 248.199219 165.578125 247.941406 C 164.636719 247.679688 163.714844 247.390625 162.8125 247.066406 C 161.914062 246.746094 161.039062 246.398438 160.1875 246.019531 C 159.339844 245.640625 158.519531 245.234375 157.730469 244.804688 C 156.941406 244.371094 156.183594 243.914062 155.460938 243.433594 C 154.742188 242.953125 154.054688 242.449219 153.40625 241.921875 C 152.761719 241.394531 152.152344 240.847656 151.585938 240.28125 C 151.015625 239.714844 150.492188 239.132812 150.011719 238.53125 C 149.53125 237.929688 149.09375 237.316406 148.703125 236.6875 C 148.3125 236.058594 147.96875 235.417969 147.671875 234.765625 C 147.375 234.113281 147.128906 233.453125 146.929688 232.785156 C 146.730469 232.117188 146.578125 231.445312 146.480469 230.769531 C 146.378906 230.089844 146.328125 229.410156 146.328125 228.730469 C 146.328125 228.046875 146.378906 227.371094 146.480469 226.691406 C 146.578125 226.015625 146.730469 225.339844 146.929688 224.671875 C 147.128906 224.003906 147.375 223.34375 147.671875 222.695312 C 147.96875 222.042969 148.3125 221.402344 148.703125 220.773438 C 149.09375 220.144531 149.53125 219.527344 150.011719 218.925781 C 150.492188 218.328125 151.015625 217.742188 151.585938 217.175781 C 152.152344 216.609375 152.761719 216.066406 153.40625 215.539062 C 154.054688 215.011719 154.742188 214.507812 155.460938 214.027344 C 156.183594 213.542969 156.941406 213.089844 157.730469 212.65625 C 158.519531 212.222656 159.339844 211.820312 160.1875 211.441406 C 161.039062 211.0625 161.914062 210.710938 162.8125 210.390625 C 163.714844 210.070312 164.636719 209.78125 165.578125 209.519531 C 166.523438 209.257812 167.484375 209.027344 168.460938 208.832031 C 169.4375 208.632812 170.425781 208.46875 171.429688 208.335938 C 172.429688 208.203125 173.4375 208.101562 174.457031 208.035156 C 175.472656 207.96875 176.492188 207.9375 177.511719 207.9375 C 178.535156 207.9375 179.550781 207.96875 180.570312 208.035156 C 181.585938 208.101562 182.59375 208.203125 183.59375 208.335938 C 184.597656 208.46875 185.585938 208.632812 186.5625 208.832031 C 187.542969 209.027344 188.5 209.257812 189.445312 209.519531 C 190.386719 209.78125 191.3125 210.070312 192.210938 210.390625 C 193.113281 210.710938 193.988281 211.0625 194.835938 211.441406 C 195.683594 211.820312 196.503906 212.222656 197.292969 212.65625 C 198.082031 213.089844 198.839844 213.542969 199.5625 214.027344 C 200.285156 214.507812 200.96875 215.011719 201.617188 215.539062 C 202.265625 216.066406 202.871094 216.609375 203.4375 217.175781 C 204.007812 217.742188 204.53125 218.328125 205.011719 218.925781 C 205.492188 219.527344 205.929688 220.144531 206.320312 220.773438 C 206.710938 221.402344 207.054688 222.042969 207.351562 222.695312 C 207.648438 223.34375 207.894531 224.003906 208.09375 224.671875 C 208.292969 225.339844 208.445312 226.015625 208.542969 226.691406 C 208.644531 227.371094 208.695312 228.046875 208.695312 228.730469 Z M 208.695312 228.730469 " fill-opacity="1" fill-rule="nonzero"/><path fill="#088930" d="M 208.695312 280.714844 C 208.695312 282.417969 208.644531 284.113281 208.542969 285.808594 C 208.445312 287.503906 208.292969 289.183594 208.09375 290.855469 C 207.894531 292.523438 207.648438 294.175781 207.351562 295.804688 C 207.054688 297.433594 206.710938 299.035156 206.320312 300.605469 C 205.929688 302.179688 205.492188 303.71875 205.011719 305.21875 C 204.53125 306.71875 204.007812 308.179688 203.4375 309.59375 C 202.871094 311.011719 202.265625 312.375 201.617188 313.691406 C 200.96875 315.007812 200.285156 316.269531 199.5625 317.472656 C 198.839844 318.675781 198.082031 319.816406 197.292969 320.898438 C 196.503906 321.976562 195.683594 322.992188 194.835938 323.9375 C 193.988281 324.882812 193.113281 325.757812 192.210938 326.558594 C 191.3125 327.363281 190.386719 328.089844 189.445312 328.742188 C 188.5 329.390625 187.542969 329.964844 186.5625 330.460938 C 185.585938 330.953125 184.597656 331.367188 183.59375 331.699219 C 182.59375 332.03125 181.585938 332.28125 180.570312 332.449219 C 179.550781 332.613281 178.535156 332.699219 177.511719 332.699219 C 176.492188 332.699219 175.472656 332.613281 174.457031 332.449219 C 173.4375 332.28125 172.429688 332.03125 171.429688 331.699219 C 170.425781 331.367188 169.4375 330.953125 168.460938 330.460938 C 167.484375 329.964844 166.523438 329.390625 165.578125 328.742188 C 164.636719 328.089844 163.714844 327.363281 162.8125 326.558594 C 161.914062 325.757812 161.039062 324.882812 160.1875 323.9375 C 159.339844 322.992188 158.519531 321.976562 157.730469 320.898438 C 156.941406 319.816406 156.183594 318.675781 155.460938 317.472656 C 154.742188 316.269531 154.054688 315.007812 153.40625 313.691406 C 152.761719 312.375 152.152344 311.011719 151.585938 309.59375 C 151.015625 308.179688 150.492188 306.71875 150.011719 305.21875 C 149.53125 303.71875 149.09375 302.179688 148.703125 300.605469 C 148.3125 299.035156 147.96875 297.433594 147.671875 295.804688 C 147.375 294.175781 147.128906 292.523438 146.929688 290.855469 C 146.730469 289.183594 146.578125 287.503906 146.480469 285.808594 C 146.378906 284.113281 146.328125 282.417969 146.328125 280.714844 C 146.328125 279.011719 146.378906 277.3125 146.480469 275.617188 C 146.578125 273.925781 146.730469 272.242188 146.929688 270.570312 C 147.128906 268.902344 147.375 267.253906 147.671875 265.625 C 147.96875 263.996094 148.3125 262.394531 148.703125 260.820312 C 149.09375 259.246094 149.53125 257.710938 150.011719 256.207031 C 150.492188 254.707031 151.015625 253.25 151.585938 251.832031 C 152.152344 250.417969 152.761719 249.050781 153.40625 247.734375 C 154.054688 246.417969 154.742188 245.160156 155.460938 243.957031 C 156.183594 242.75 156.941406 241.609375 157.730469 240.53125 C 158.519531 239.449219 159.339844 238.4375 160.1875 237.492188 C 161.039062 236.542969 161.914062 235.671875 162.8125 234.867188 C 163.714844 234.066406 164.636719 233.339844 165.578125 232.6875 C 166.523438 232.035156 167.484375 231.460938 168.460938 230.96875 C 169.4375 230.472656 170.425781 230.0625 171.429688 229.726562 C 172.429688 229.394531 173.4375 229.148438 174.457031 228.980469 C 175.472656 228.8125 176.492188 228.730469 177.511719 228.730469 C 178.535156 228.730469 179.550781 228.8125 180.570312 228.980469 C 181.585938 229.148438 182.59375 229.394531 183.59375 229.726562 C 184.597656 230.0625 185.585938 230.472656 186.5625 230.96875 C 187.542969 231.460938 188.5 232.035156 189.445312 232.6875 C 190.386719 233.339844 191.3125 234.066406 192.210938 234.867188 C 193.113281 235.671875 193.988281 236.542969 194.835938 237.492188 C 195.683594 238.4375 196.503906 239.449219 197.292969 240.53125 C 198.082031 241.609375 198.839844 242.75 199.5625 243.957031 C 200.285156 245.160156 200.96875 246.417969 201.617188 247.734375 C 202.265625 249.050781 202.871094 250.417969 203.4375 251.832031 C 204.007812 253.25 204.53125 254.707031 205.011719 256.207031 C 205.492188 257.710938 205.929688 259.246094 206.320312 260.820312 C 206.710938 262.394531 207.054688 263.996094 207.351562 265.625 C 207.648438 267.253906 207.894531 268.902344 208.09375 270.570312 C 208.292969 272.242188 208.445312 273.925781 208.542969 275.617188 C 208.644531 277.3125 208.695312 279.011719 208.695312 280.714844 Z M 208.695312 280.714844 " fill-opacity="1" fill-rule="nonzero"/><path fill="#dca841" d="M 208.695312 239.125 C 208.695312 239.46875 208.644531 239.804688 208.542969 240.144531 C 208.445312 240.484375 208.292969 240.820312 208.09375 241.15625 C 207.894531 241.488281 207.648438 241.820312 207.351562 242.144531 C 207.054688 242.46875 206.710938 242.789062 206.320312 243.105469 C 205.929688 243.417969 205.492188 243.726562 205.011719 244.027344 C 204.53125 244.328125 204.007812 244.621094 203.4375 244.902344 C 202.871094 245.1875 202.265625 245.457031 201.617188 245.722656 C 200.96875 245.984375 200.285156 246.238281 199.5625 246.476562 C 198.839844 246.71875 198.082031 246.945312 197.292969 247.164062 C 196.503906 247.378906 195.683594 247.582031 194.835938 247.769531 C 193.988281 247.960938 193.113281 248.136719 192.210938 248.296875 C 191.3125 248.457031 190.386719 248.601562 189.445312 248.730469 C 188.5 248.863281 187.542969 248.976562 186.5625 249.074219 C 185.585938 249.175781 184.597656 249.257812 183.59375 249.324219 C 182.59375 249.390625 181.585938 249.441406 180.570312 249.472656 C 179.550781 249.507812 178.535156 249.523438 177.511719 249.523438 C 176.492188 249.523438 175.472656 249.507812 174.457031 249.472656 C 173.4375 249.441406 172.429688 249.390625 171.429688 249.324219 C 170.425781 249.257812 169.4375 249.175781 168.460938 249.074219 C 167.484375 248.976562 166.523438 248.863281 165.578125 248.730469 C 164.636719 248.601562 163.714844 248.457031 162.8125 248.296875 C 161.914062 248.136719 161.039062 247.960938 160.1875 247.769531 C 159.339844 247.582031 158.519531 247.378906 157.730469 247.164062 C 156.941406 246.945312 156.183594 246.71875 155.460938 246.476562 C 154.742188 246.238281 154.054688 245.984375 153.40625 245.722656 C 152.761719 245.457031 152.152344 245.1875 151.585938 244.902344 C 151.015625 244.621094 150.492188 244.328125 150.011719 244.027344 C 149.53125 243.726562 149.09375 243.417969 148.703125 243.105469 C 148.3125 242.789062 147.96875 242.46875 147.671875 242.144531 C 147.375 241.820312 147.128906 241.488281 146.929688 241.15625 C 146.730469 240.820312 146.578125 240.484375 146.480469 240.144531 C 146.378906 239.804688 146.328125 239.46875 146.328125 239.125 C 146.328125 238.785156 146.378906 238.445312 146.480469 238.105469 C 146.578125 237.769531 146.730469 237.433594 146.929688 237.097656 C 147.128906 236.765625 147.375 236.433594 147.671875 236.109375 C 147.96875 235.78125 148.3125 235.460938 148.703125 235.148438 C 149.09375 234.832031 149.53125 234.527344 150.011719 234.226562 C 150.492188 233.925781 151.015625 233.632812 151.585938 233.351562 C 152.152344 233.066406 152.761719 232.792969 153.40625 232.53125 C 154.054688 232.265625 154.742188 232.015625 155.460938 231.773438 C 156.183594 231.535156 156.941406 231.304688 157.730469 231.089844 C 158.519531 230.875 159.339844 230.671875 160.1875 230.480469 C 161.039062 230.292969 161.914062 230.117188 162.8125 229.957031 C 163.714844 229.796875 164.636719 229.652344 165.578125 229.519531 C 166.523438 229.390625 167.484375 229.277344 168.460938 229.175781 C 169.4375 229.078125 170.425781 228.996094 171.429688 228.929688 C 172.429688 228.863281 173.4375 228.8125 174.457031 228.78125 C 175.472656 228.746094 176.492188 228.730469 177.511719 228.730469 C 178.535156 228.730469 179.550781 228.746094 180.570312 228.78125 C 181.585938 228.8125 182.59375 228.863281 183.59375 228.929688 C 184.597656 228.996094 185.585938 229.078125 186.5625 229.175781 C 187.542969 229.277344 188.5 229.390625 189.445312 229.519531 C 190.386719 229.652344 191.3125 229.796875 192.210938 229.957031 C 193.113281 230.117188 193.988281 230.292969 194.835938 230.480469 C 195.683594 230.671875 196.503906 230.875 197.292969 231.089844 C 198.082031 231.304688 198.839844 231.535156 199.5625 231.773438 C 200.285156 232.015625 200.96875 232.265625 201.617188 232.53125 C 202.265625 232.792969 202.871094 233.066406 203.4375 233.351562 C 204.007812 233.632812 204.53125 233.925781 205.011719 234.226562 C 205.492188 234.527344 205.929688 234.832031 206.320312 235.148438 C 206.710938 235.460938 207.054688 235.78125 207.351562 236.109375 C 207.648438 236.433594 207.894531 236.765625 208.09375 237.097656 C 208.292969 237.433594 208.445312 237.769531 208.542969 238.105469 C 208.644531 238.445312 208.695312 238.785156 208.695312 239.125 Z M 208.695312 239.125 " fill-opacity="1" fill-rule="nonzero"/><path fill="#89c5e4" d="M 208.695312 270.316406 C 208.695312 293.273438 194.746094 311.902344 177.511719 311.902344 C 160.277344 311.902344 146.328125 293.273438 146.328125 270.316406 C 146.328125 247.359375 160.277344 239.167969 177.511719 239.167969 C 194.746094 239.167969 208.695312 247.359375 208.695312 270.316406 Z M 208.695312 270.316406 " fill-opacity="1" fill-rule="nonzero"/><path fill="#dca841" d="M 208.695312 280.714844 C 208.695312 281.054688 208.644531 281.394531 208.542969 281.734375 C 208.445312 282.070312 208.292969 282.40625 208.09375 282.742188 C 207.894531 283.074219 207.648438 283.40625 207.351562 283.730469 C 207.054688 284.058594 206.710938 284.378906 206.320312 284.691406 C 205.929688 285.007812 205.492188 285.3125 205.011719 285.613281 C 204.53125 285.914062 204.007812 286.207031 203.4375 286.488281 C 202.871094 286.773438 202.265625 287.046875 201.617188 287.308594 C 200.96875 287.574219 200.285156 287.824219 199.5625 288.066406 C 198.839844 288.304688 198.082031 288.535156 197.292969 288.75 C 196.503906 288.964844 195.683594 289.167969 194.835938 289.359375 C 193.988281 289.546875 193.113281 289.722656 192.210938 289.882812 C 191.3125 290.042969 190.386719 290.1875 189.445312 290.320312 C 188.5 290.449219 187.542969 290.5625 186.5625 290.664062 C 185.585938 290.761719 184.597656 290.84375 183.59375 290.910156 C 182.59375 290.976562 181.585938 291.027344 180.570312 291.058594 C 179.550781 291.09375 178.535156 291.109375 177.511719 291.109375 C 176.492188 291.109375 175.472656 291.09375 174.457031 291.058594 C 173.4375 291.027344 172.429688 290.976562 171.429688 290.910156 C 170.425781 290.84375 169.4375 290.761719 168.460938 290.664062 C 167.484375 290.5625 166.523438 290.449219 165.578125 290.320312 C 164.636719 290.1875 163.714844 290.042969 162.8125 289.882812 C 161.914062 289.722656 161.039062 289.546875 160.1875 289.359375 C 159.339844 289.167969 158.519531 288.964844 157.730469 288.75 C 156.941406 288.535156 156.183594 288.304688 155.460938 288.066406 C 154.742188 287.824219 154.054688 287.574219 153.40625 287.308594 C 152.761719 287.046875 152.152344 286.773438 151.585938 286.488281 C 151.015625 286.207031 150.492188 285.914062 150.011719 285.613281 C 149.53125 285.3125 149.09375 285.007812 148.703125 284.691406 C 148.3125 284.378906 147.96875 284.058594 147.671875 283.730469 C 147.375 283.40625 147.128906 283.074219 146.929688 282.742188 C 146.730469 282.40625 146.578125 282.070312 146.480469 281.734375 C 146.378906 281.394531 146.328125 281.054688 146.328125 280.714844 C 146.328125 280.375 146.378906 280.035156 146.480469 279.695312 C 146.578125 279.355469 146.730469 279.019531 146.929688 278.683594 C 147.128906 278.351562 147.375 278.019531 147.671875 277.695312 C 147.96875 277.371094 148.3125 277.050781 148.703125 276.734375 C 149.09375 276.421875 149.53125 276.113281 150.011719 275.8125 C 150.492188 275.511719 151.015625 275.21875 151.585938 274.9375 C 152.152344 274.652344 152.761719 274.382812 153.40625 274.117188 C 154.054688 273.855469 154.742188 273.601562 155.460938 273.363281 C 156.183594 273.121094 156.941406 272.894531 157.730469 272.675781 C 158.519531 272.460938 159.339844 272.257812 160.1875 272.070312 C 161.039062 271.878906 161.914062 271.703125 162.8125 271.542969 C 163.714844 271.382812 164.636719 271.238281 165.578125 271.109375 C 166.523438 270.976562 167.484375 270.863281 168.460938 270.765625 C 169.4375 270.664062 170.425781 270.582031 171.429688 270.515625 C 172.429688 270.449219 173.4375 270.398438 174.457031 270.367188 C 175.472656 270.332031 176.492188 270.316406 177.511719 270.316406 C 178.535156 270.316406 179.550781 270.332031 180.570312 270.367188 C 181.585938 270.398438 182.59375 270.449219 183.59375 270.515625 C 184.597656 270.582031 185.585938 270.664062 186.5625 270.765625 C 187.542969 270.863281 188.5 270.976562 189.445312 271.109375 C 190.386719 271.238281 191.3125 271.382812 192.210938 271.542969 C 193.113281 271.703125 193.988281 271.878906 194.835938 272.070312 C 195.683594 272.257812 196.503906 272.460938 197.292969 272.675781 C 198.082031 272.894531 198.839844 273.121094 199.5625 273.363281 C 200.285156 273.601562 200.96875 273.855469 201.617188 274.117188 C 202.265625 274.382812 202.871094 274.652344 203.4375 274.9375 C 204.007812 275.21875 204.53125 275.511719 205.011719 275.8125 C 205.492188 276.113281 205.929688 276.421875 206.320312 276.734375 C 206.710938 277.050781 207.054688 277.371094 207.351562 277.695312 C 207.648438 278.019531 207.894531 278.351562 208.09375 278.683594 C 208.292969 279.019531 208.445312 279.355469 208.542969 279.695312 C 208.644531 280.035156 208.695312 280.375 208.695312 280.714844 Z M 208.695312 280.714844 " fill-opacity="1" fill-rule="nonzero"/></svg>