<svg xmlns="http://www.w3.org/2000/svg" xmlns:xlink="http://www.w3.org/1999/xlink" width="1000" zoomAndPan="magnify" viewBox="0 0 750 549.12" height="722" preserveAspectRatio="xMidYMid meet" version="1.0"><defs><clipPath id="965b5ac575"><path d="M 0.601562 0 L 749.398438 0 L 749.398438 540.632812 L 0.601562 540.632812 Z M 0.601562 0 " clip-rule="nonzero"/></clipPath><clipPath id="50d985f950"><path d="M 144 103 L 749.398438 103 L 749.398438 437 L 144 437 Z M 144 103 " clip-rule="nonzero"/></clipPath><clipPath id="e979f37454"><path d="M 0.601562 20 L 375 20 L 375 520 L 0.601562 520 Z M 0.601562 20 " clip-rule="nonzero"/></clipPath></defs><g clip-path="url(#965b5ac575)"><path fill="#ffffff" d="M 0.601562 0 L 749.398438 0 L 749.398438 540.632812 L 0.601562 540.632812 Z M 0.601562 0 " fill-opacity="1" fill-rule="nonzero"/><path fill="#ffffff" d="M 0.601562 0 L 749.398438 0 L 749.398438 540.632812 L 0.601562 540.632812 Z M 0.601562 0 " fill-opacity="1" fill-rule="nonzero"/><path fill="#002a8f" d="M 666.035156 0 L 83.964844 0 C 38.042969 0 0.8125 37.242188 0.8125 83.175781 L 0.8125 457.460938 C 0.8125 503.390625 38.042969 540.632812 83.964844 540.632812 L 666.035156 540.632812 C 711.957031 540.632812 749.1875 503.390625 749.1875 457.460938 L 749.1875 83.175781 C 749.1875 37.242188 711.957031 0 666.035156 0 Z M 666.035156 0 " fill-opacity="1" fill-rule="nonzero"/></g><g clip-path="url(#50d985f950)"><path fill="#eeeeee" d="M 288.644531 207.9375 L 749.1875 207.9375 L 749.1875 103.96875 L 144.730469 103.96875 Z M 144.730469 436.664062 L 749.1875 436.664062 L 749.1875 332.699219 L 288.644531 332.699219 Z M 144.730469 436.664062 " fill-opacity="1" fill-rule="nonzero"/></g><g clip-path="url(#e979f37454)"><path fill="#cf142b" d="M 288.644531 207.9375 L 144.730469 103.96875 L 29.542969 20.753906 C 12.078125 35.992188 0.8125 58.160156 0.8125 83.175781 L 0.8125 457.460938 C 0.8125 482.472656 12.078125 504.640625 29.542969 519.882812 L 144.730469 436.664062 L 288.644531 332.699219 L 375 270.316406 Z M 288.644531 207.9375 " fill-opacity="1" fill-rule="nonzero"/></g><path fill="#ffffff" d="M 156.621094 282.835938 L 198.300781 252.621094 L 146.789062 252.621094 L 130.800781 203.507812 L 114.753906 252.621094 L 63.175781 252.621094 L 104.878906 282.855469 L 88.851562 331.929688 L 130.738281 301.589844 L 172.625 331.929688 Z M 156.621094 282.835938 " fill-opacity="1" fill-rule="nonzero"/></svg>