<svg xmlns="http://www.w3.org/2000/svg" xmlns:xlink="http://www.w3.org/1999/xlink" width="1000" zoomAndPan="magnify" viewBox="0 0 750 549.12" height="722" preserveAspectRatio="xMidYMid meet" version="1.0"><defs><clipPath id="9edcb4ef5d"><path d="M 0.601562 0 L 749.398438 0 L 749.398438 540.632812 L 0.601562 540.632812 Z M 0.601562 0 " clip-rule="nonzero"/></clipPath><clipPath id="9fa276d0bf"><path d="M 416 0 L 749.398438 0 L 749.398438 229 L 416 229 Z M 416 0 " clip-rule="nonzero"/></clipPath><clipPath id="e3e39c493e"><path d="M 0.601562 311 L 334 311 L 334 540.632812 L 0.601562 540.632812 Z M 0.601562 311 " clip-rule="nonzero"/></clipPath><clipPath id="92723720df"><path d="M 0.601562 0 L 749.398438 0 L 749.398438 540.632812 L 0.601562 540.632812 Z M 0.601562 0 " clip-rule="nonzero"/></clipPath></defs><g clip-path="url(#9edcb4ef5d)"><path fill="#ffffff" d="M 0.601562 0 L 749.398438 0 L 749.398438 540.632812 L 0.601562 540.632812 Z M 0.601562 0 " fill-opacity="1" fill-rule="nonzero"/><path fill="#ffffff" d="M 0.601562 0 L 749.398438 0 L 749.398438 540.632812 L 0.601562 540.632812 Z M 0.601562 0 " fill-opacity="1" fill-rule="nonzero"/><path fill="#002d62" d="M 749.191406 457.460938 C 749.191406 503.390625 711.960938 540.632812 666.039062 540.632812 L 83.960938 540.632812 C 38.039062 540.632812 0.808594 503.390625 0.808594 457.460938 L 0.808594 83.175781 C 0.808594 37.242188 38.039062 0 83.960938 0 L 666.039062 0 C 711.960938 0 749.191406 37.242188 749.191406 83.175781 Z M 749.191406 457.460938 " fill-opacity="1" fill-rule="nonzero"/></g><g clip-path="url(#9fa276d0bf)"><path fill="#dd2e44" d="M 666.039062 0 L 416.578125 0 L 416.578125 228.730469 L 749.191406 228.730469 L 749.191406 83.175781 C 749.191406 37.242188 711.960938 0 666.039062 0 Z M 666.039062 0 " fill-opacity="1" fill-rule="nonzero"/></g><g clip-path="url(#e3e39c493e)"><path fill="#ce1225" d="M 83.960938 540.632812 L 333.421875 540.632812 L 333.421875 311.902344 L 0.808594 311.902344 L 0.808594 457.460938 C 0.808594 503.390625 38.039062 540.632812 83.960938 540.632812 Z M 83.960938 540.632812 " fill-opacity="1" fill-rule="nonzero"/></g><g clip-path="url(#92723720df)"><path fill="#eeeeee" d="M 749.191406 207.9375 L 437.363281 207.9375 L 437.363281 0 L 312.636719 0 L 312.636719 207.9375 L 0.808594 207.9375 L 0.808594 332.699219 L 312.636719 332.699219 L 312.636719 540.632812 L 437.363281 540.632812 L 437.363281 332.699219 L 749.191406 332.699219 Z M 749.191406 207.9375 " fill-opacity="1" fill-rule="nonzero"/></g><path fill="#002d62" d="M 375.457031 227.585938 L 335.605469 227.585938 L 342.570312 234.300781 L 342.570312 268.714844 L 375.457031 268.714844 Z M 375.457031 309.429688 C 380.757812 303.648438 384.375 303.878906 399.363281 303.878906 C 407.367188 303.878906 408.304688 298.429688 408.304688 287.847656 L 408.304688 268.714844 L 375.457031 268.714844 Z M 375.457031 309.429688 " fill-opacity="1" fill-rule="nonzero"/><path fill="#ce1225" d="M 375.457031 309.429688 C 370.15625 303.648438 366.539062 303.878906 351.53125 303.878906 C 343.503906 303.878906 342.570312 298.429688 342.570312 287.847656 L 342.570312 268.714844 L 375.457031 268.714844 Z M 375.457031 227.585938 L 415.265625 227.585938 L 408.304688 234.300781 L 408.304688 268.714844 L 375.457031 268.714844 Z M 375.457031 227.585938 " fill-opacity="1" fill-rule="nonzero"/><path fill="#ffffff" d="M 381.132812 305.1875 L 381.132812 227.585938 L 369.761719 227.585938 L 369.761719 305.25 C 371.695312 305.914062 373.753906 307.476562 375.457031 309.429688 C 376.914062 307.664062 379.324219 305.851562 381.132812 305.1875 Z M 381.132812 305.1875 " fill-opacity="1" fill-rule="nonzero"/><path fill="#ffffff" d="M 342.570312 262.914062 L 408.28125 262.914062 L 408.28125 274.289062 L 342.570312 274.289062 Z M 342.570312 262.914062 " fill-opacity="1" fill-rule="nonzero"/><path fill="#002d62" d="M 375.457031 261.085938 L 397.035156 238.046875 L 397.035156 245.011719 L 401.027344 241.664062 L 401.027344 280.152344 C 401.027344 294.4375 378.535156 293.023438 375.4375 286.433594 C 372.339844 293.023438 349.824219 294.4375 349.824219 280.152344 L 349.824219 241.664062 L 353.835938 245.011719 L 353.835938 238.046875 Z M 375.457031 261.085938 " fill-opacity="1" fill-rule="nonzero"/><path fill="#ffffff" d="M 375.457031 285.765625 C 365.105469 291.316406 358.390625 286.953125 358.390625 281.648438 L 358.390625 275.035156 C 354.378906 275.035156 349.847656 272.976562 349.847656 271.667969 L 349.847656 265.992188 C 349.847656 267.675781 356.582031 269.214844 358.390625 269.214844 L 358.390625 249.292969 L 362.132812 252.269531 L 362.132812 247.089844 L 367.828125 252.914062 L 367.828125 256.988281 L 364.066406 253.804688 L 364.066406 270.648438 C 367.953125 270.648438 370.988281 272.957031 375.457031 272.957031 C 379.90625 272.957031 382.941406 270.648438 386.828125 270.648438 L 386.828125 253.804688 L 383.085938 256.988281 L 383.085938 252.914062 L 388.761719 247.089844 L 388.761719 252.269531 L 392.523438 249.292969 L 392.523438 269.214844 C 394.332031 269.214844 401.046875 267.65625 401.046875 265.992188 L 401.046875 271.667969 C 401.046875 272.976562 396.515625 275.035156 392.523438 275.035156 L 392.523438 281.648438 C 392.523438 286.953125 385.789062 291.339844 375.457031 285.765625 L 375.457031 279.964844 C 381.007812 283.1875 386.828125 283.976562 386.828125 280.484375 L 386.828125 276.347656 C 382.941406 276.347656 379.90625 278.675781 375.457031 278.675781 C 370.988281 278.675781 367.953125 276.347656 364.066406 276.347656 L 364.066406 280.484375 C 364.066406 283.976562 369.90625 283.1875 375.457031 279.964844 Z M 375.457031 285.765625 " fill-opacity="1" fill-rule="nonzero"/><path fill="#ce1225" d="M 383.085938 252.933594 L 383.085938 257.007812 L 386.828125 253.828125 L 386.828125 270.671875 C 382.941406 270.671875 379.90625 272.976562 375.457031 272.976562 C 370.988281 272.976562 367.953125 270.671875 364.066406 270.671875 L 364.066406 253.828125 L 367.828125 257.007812 L 367.828125 252.933594 L 375.457031 261.105469 Z M 383.085938 252.933594 " fill-opacity="1" fill-rule="nonzero"/><path fill="#ce1225" d="M 349.847656 271.6875 L 349.847656 280.152344 C 349.847656 294.4375 372.359375 293.023438 375.457031 286.433594 C 378.535156 293.023438 401.046875 294.4375 401.046875 280.152344 L 401.046875 271.6875 C 401.046875 272.957031 396.515625 275.035156 392.523438 275.035156 L 392.523438 281.648438 C 392.523438 286.929688 385.789062 291.316406 375.457031 285.765625 C 365.105469 291.316406 358.390625 286.953125 358.390625 281.648438 L 358.390625 275.035156 C 354.378906 275.035156 349.847656 272.976562 349.847656 271.6875 Z M 349.847656 271.6875 " fill-opacity="1" fill-rule="nonzero"/><path fill="#002d62" d="M 384.105469 213.800781 C 384.5 212.761719 384.894531 211.261719 385.269531 209.890625 C 382.316406 209.515625 378.761719 209.265625 375.457031 209.265625 C 372.132812 209.265625 368.578125 209.515625 365.625 209.890625 C 366 211.261719 366.394531 212.761719 366.789062 213.800781 C 367.039062 214.589844 365.5 216.523438 359.949219 216.191406 C 355.1875 215.921875 348.246094 216.378906 342.195312 217.417969 C 343.214844 218.976562 343.589844 219.289062 343.484375 220.496094 C 343.339844 221.847656 340.160156 223.117188 334.609375 223.90625 C 329.058594 224.675781 326.917969 230.433594 325.003906 238.691406 C 322.820312 237.773438 319.371094 236.902344 317.207031 236.589844 C 318.457031 231.226562 322.757812 219.039062 328.144531 217.8125 C 326.832031 214.902344 327.144531 213.445312 332.15625 211.097656 C 337.582031 208.558594 346.769531 207.019531 356.894531 206.648438 C 356.25 204.191406 356.894531 203.214844 360.074219 201.84375 C 362.796875 200.65625 367.121094 199.765625 375.476562 199.765625 C 383.792969 199.765625 388.136719 200.65625 390.839844 201.84375 C 394.042969 203.195312 394.664062 204.191406 394.042969 206.648438 C 404.144531 207.019531 413.355469 208.558594 418.757812 211.097656 C 423.769531 213.425781 424.082031 214.902344 422.773438 217.8125 C 428.136719 219.039062 432.460938 231.226562 433.6875 236.589844 C 431.585938 236.902344 428.074219 237.796875 425.929688 238.691406 C 424.019531 230.433594 421.855469 224.675781 416.285156 223.90625 C 410.734375 223.117188 407.535156 221.847656 407.410156 220.496094 C 407.261719 219.289062 407.679688 218.976562 408.675781 217.417969 C 402.648438 216.378906 395.664062 215.921875 390.945312 216.191406 C 385.414062 216.523438 383.875 214.570312 384.105469 213.800781 Z M 384.105469 213.800781 " fill-opacity="1" fill-rule="nonzero"/><path fill="#996b38" d="M 375.457031 263.039062 L 401.921875 240.375 L 402.503906 241.058594 L 375.457031 264.203125 Z M 375.457031 260.503906 L 397.804688 236.234375 L 398.449219 236.878906 L 375.457031 261.832031 Z M 375.457031 257.175781 L 393.210938 232.660156 L 393.917969 233.179688 L 375.457031 258.714844 Z M 375.457031 263.039062 L 348.992188 240.375 L 348.410156 241.058594 L 375.457031 264.203125 Z M 375.457031 263.039062 " fill-opacity="1" fill-rule="nonzero"/><path fill="#996b38" d="M 375.457031 260.503906 L 353.109375 236.234375 L 352.464844 236.878906 L 375.457031 261.832031 Z M 375.457031 257.175781 L 357.683594 232.660156 L 356.957031 233.179688 L 375.457031 258.714844 Z M 375.457031 257.175781 " fill-opacity="1" fill-rule="nonzero"/><path fill="#ffce46" d="M 401.484375 240.042969 L 405.289062 238.046875 L 402.753906 241.519531 C 402.542969 241.703125 401.316406 240.207031 401.484375 240.042969 Z M 397.328125 235.988281 L 400.902344 233.554688 L 398.78125 237.296875 C 398.574219 237.484375 397.160156 236.152344 397.328125 235.988281 Z M 392.734375 232.410156 L 395.996094 229.5625 L 394.292969 233.53125 C 394.125 233.78125 392.585938 232.617188 392.734375 232.410156 Z M 349.410156 240.042969 L 345.585938 238.046875 L 348.140625 241.519531 C 348.347656 241.703125 349.574219 240.207031 349.410156 240.042969 Z M 353.546875 235.988281 L 350.011719 233.554688 L 352.152344 237.296875 C 352.320312 237.484375 353.734375 236.152344 353.546875 235.988281 Z M 358.160156 232.410156 L 354.917969 229.5625 L 356.582031 233.53125 C 356.769531 233.78125 358.308594 232.617188 358.160156 232.410156 Z M 358.160156 232.410156 " fill-opacity="1" fill-rule="nonzero"/><path fill="#ffffff" d="M 369.035156 257.257812 C 370.074219 256.40625 373.003906 254.992188 374.730469 255.90625 C 376.058594 254.367188 379.21875 253.039062 380.945312 253.929688 L 384.605469 265.222656 C 383.585938 265.949219 381.527344 265.574219 380.238281 266.367188 C 379.886719 266.574219 378.886719 267.136719 378.722656 267.550781 C 378.097656 267.28125 376.683594 267.425781 375.6875 267.757812 C 374.769531 268.03125 374.125 268.984375 373.046875 269.132812 L 369.035156 257.257812 " fill-opacity="1" fill-rule="nonzero"/><path fill="#000000" d="M 373.085938 269.234375 L 368.992188 257.277344 L 369.011719 257.21875 C 370.136719 256.300781 373.046875 254.992188 374.769531 255.863281 C 375.976562 254.410156 379.242188 252.976562 380.988281 253.890625 L 384.6875 265.222656 C 384.148438 265.660156 383.378906 265.761719 382.566406 265.867188 C 381.757812 265.949219 380.925781 266.074219 380.300781 266.449219 C 379.84375 266.71875 378.949219 267.21875 378.804688 267.613281 C 378.140625 267.363281 376.664062 267.570312 375.75 267.84375 C 375.351562 267.96875 375.019531 268.214844 374.667969 268.464844 C 374.1875 268.800781 373.710938 269.132812 373.085938 269.234375 Z M 369.117188 257.277344 L 373.128906 269.132812 C 373.648438 269.007812 374.105469 268.675781 374.5625 268.339844 C 374.9375 268.070312 375.269531 267.84375 375.6875 267.695312 C 376.621094 267.386719 378.054688 267.199219 378.761719 267.507812 C 378.824219 267.113281 379.71875 266.617188 380.136719 266.367188 C 380.863281 265.929688 381.714844 265.824219 382.546875 265.722656 C 383.335938 265.636719 384.085938 265.535156 384.5625 265.179688 L 380.863281 253.953125 C 379.304688 253.140625 376.164062 254.367188 374.769531 255.949219 C 373.085938 255.074219 370.238281 256.40625 369.117188 257.277344 Z M 369.117188 257.277344 " fill-opacity="1" fill-rule="nonzero"/><path fill="#549334" d="M 410.484375 317.726562 C 413.875 317.707031 418.363281 318.621094 419.777344 319.140625 C 418.34375 317.976562 416.183594 316.894531 413.855469 316.042969 C 416.949219 316.539062 417.742188 317.0625 419.820312 317.582031 C 421.253906 317.996094 421.484375 318.140625 421.546875 320.222656 C 421.566406 321.613281 421.566406 323.421875 422.417969 320.511719 C 423.207031 317.894531 423.5 317.519531 422.105469 316.644531 C 420.628906 315.625 418.738281 314.667969 416.679688 313.835938 C 420.671875 314.878906 423.914062 316.167969 425.847656 317.433594 C 424.871094 315.9375 423.3125 314.109375 420.941406 312.671875 C 423.269531 313.214844 426.390625 314.480469 428.570312 315.667969 C 427.53125 314.273438 425.703125 311.945312 423.5 310.90625 C 427.035156 311.65625 430.796875 312.820312 432.832031 313.960938 C 430.859375 311.363281 428.613281 309.074219 425.660156 308.183594 C 429.589844 308.660156 433.3125 309.84375 434.996094 310.863281 C 432.707031 308.679688 430.316406 306.371094 427.96875 305.582031 C 431.191406 306.019531 434.183594 306.851562 435.929688 307.640625 C 433.75 305.457031 430.070312 303.605469 426.597656 303.066406 C 429.027344 303.109375 432.148438 303.335938 434.789062 303.878906 C 432.582031 302.464844 428.800781 301.507812 427.136719 301.632812 C 431.148438 300.71875 435.660156 300.839844 440.585938 302.464844 C 438.507812 301.175781 434.890625 299.699219 431.378906 298.90625 C 433.332031 298.804688 436.179688 298.347656 438.007812 298.597656 C 436.035156 297.929688 431.171875 296.953125 428.988281 297.078125 C 432.9375 295.914062 436.867188 295.164062 439.234375 294.726562 C 435.097656 294.457031 430.441406 294.726562 426.304688 295.394531 C 430.878906 291.503906 434.207031 291.503906 437.179688 291.007812 C 440.128906 290.488281 442.355469 289.84375 439.277344 289.53125 C 437.28125 289.34375 435.660156 289.175781 434.269531 289.15625 C 437.488281 288.179688 441.566406 286.121094 442.914062 285.390625 C 444.265625 284.683594 447.574219 282.292969 444.015625 283.894531 C 440.460938 285.515625 435.371094 285.765625 430.753906 286.285156 C 428.78125 286.515625 427.34375 286.890625 425.992188 287.617188 C 428.488281 286.183594 431.296875 284.664062 434.226562 283.25 C 437.15625 281.835938 436.511719 281.359375 439.070312 284.269531 C 440.296875 285.703125 440.214844 284.269531 438.613281 280.566406 C 437.324219 277.699219 436.222656 279.03125 433.414062 280.132812 C 432.375 280.546875 431.046875 281.128906 429.507812 281.960938 C 431.128906 280.027344 436.742188 273.539062 437.65625 272.4375 C 438.652344 271.335938 440.128906 272.625 442.042969 273.851562 C 443.871094 275.097656 443.25 273.914062 441.503906 271.898438 C 439.734375 269.902344 438.902344 269.589844 437.738281 270.566406 C 436.597656 271.542969 430.984375 275.097656 427.84375 278.074219 C 433.582031 272.644531 440.234375 266.511719 441.75 264.785156 C 438.46875 266.554688 435.515625 268.527344 432.875 270.566406 C 433.789062 269.277344 435.453125 266.863281 436.324219 265.847656 C 434.996094 266.742188 433.167969 267.695312 432.125 268.675781 C 433.664062 265.929688 435.285156 263.414062 435.515625 262.976562 C 435.867188 262.269531 436.242188 262.101562 436.785156 262.0625 L 439.695312 261.8125 C 441.355469 261.6875 440.710938 261.335938 439.984375 261.148438 C 435.371094 259.941406 435.558594 260.460938 434.515625 261.457031 C 433.769531 262.226562 432.75 263.414062 431.691406 264.785156 C 432.855469 261.1875 436.347656 257.839844 436.90625 256.820312 C 433.289062 258.816406 431.378906 260.378906 430.089844 262.019531 C 431.730469 259.359375 436.90625 255.28125 438.46875 253.660156 C 436.867188 254.304688 433.5 255.988281 432.605469 257.03125 C 433.457031 255.511719 434.269531 253.929688 435.015625 252.308594 C 432.1875 254.097656 430.152344 256.488281 428.53125 259.253906 C 428.695312 258.589844 428.964844 257.589844 429.238281 256.757812 C 430.152344 254.992188 432.644531 252.558594 433.933594 251.125 C 435.246094 249.710938 435.535156 249.316406 439.214844 251.644531 C 438.675781 250.042969 437.949219 248.921875 437.324219 248.027344 C 436.261719 246.425781 435.765625 247.109375 434.308594 248.316406 C 433.5 248.960938 432.75 249.875 431.296875 251.144531 C 432.875 247.070312 434.726562 242.703125 435.703125 239.875 C 433.0625 242.453125 431.003906 245.988281 429.339844 249.960938 C 429.464844 247.109375 431.023438 241.289062 430.753906 238.316406 C 429.507812 239.875 428.175781 242.535156 427.554688 245.636719 C 427.46875 242.496094 427.429688 238.605469 426.660156 236.382812 C 426.886719 238.316406 424.890625 242.746094 424.371094 245.84375 C 423.125 242.890625 421.753906 240.042969 420.964844 238.066406 C 421.027344 239.605469 421.460938 243.160156 422.128906 247.359375 C 421.089844 244.136719 417.324219 240.769531 417.199219 238.191406 C 417.097656 241.933594 419.800781 248.277344 420.089844 250.085938 C 420.132812 250.667969 420.359375 251.539062 420.566406 252.539062 C 419.28125 250.457031 416.203125 246.714844 415.390625 244.261719 C 415.390625 245.800781 415.972656 248.503906 416.265625 250.1875 C 414.644531 248.691406 413.5 249.566406 410.757812 254.742188 C 411.648438 254.472656 412.691406 253.328125 413.457031 252.808594 C 414.226562 252.289062 414.957031 251.726562 415.785156 253.058594 C 416.828125 254.761719 419.632812 258.671875 421.148438 263.664062 C 420.714844 262.226562 418.117188 258.859375 417.199219 257.382812 C 417.410156 258.089844 417.867188 260.417969 418.175781 261.769531 C 416.929688 258.382812 415.640625 255.96875 414.707031 254.597656 C 414.621094 256.28125 415.871094 261.023438 416.058594 263.019531 C 415.328125 261.292969 414.519531 259.773438 413.875 258.484375 C 414.351562 259.816406 415.058594 264.558594 414.976562 266.988281 C 413.914062 265.078125 412.835938 263.515625 412.023438 262.351562 C 412.691406 264.308594 413.25 268.175781 413.355469 270.398438 C 412.980469 269.652344 412.667969 269.089844 412.417969 268.695312 C 411.128906 266.617188 410.277344 270.378906 409.507812 272.3125 C 408.71875 274.246094 409.132812 273.976562 410.027344 272.644531 C 411.378906 270.585938 411.214844 270.859375 412.003906 273.101562 C 412.503906 274.433594 413.894531 277.617188 415.039062 281.773438 C 413.914062 279.945312 412.355469 277.511719 411.523438 275.703125 C 410.671875 273.894531 410.609375 273.996094 411.523438 277.59375 C 412.105469 279.945312 413.582031 284.3125 412.980469 288.96875 C 412.148438 286.015625 411.066406 282.480469 409.882812 279.300781 C 410.050781 281.316406 410.296875 285.144531 410.296875 286.765625 C 409.800781 285.828125 409.21875 285.058594 408.574219 284.476562 C 409.425781 287.203125 409.632812 291.921875 409.632812 294.875 C 409.175781 293.003906 408.53125 291.234375 407.886719 290.113281 C 407.824219 292.253906 408.429688 297.285156 408.949219 299.59375 C 408.511719 297.804688 407.824219 296.058594 407.078125 294.667969 C 407.511719 297.078125 407.660156 301.050781 406.953125 303.628906 C 406.828125 302.296875 406.433594 301.089844 405.953125 299.699219 C 405.746094 300.902344 405.457031 304.417969 404.601562 305.9375 C 405.082031 303.710938 405.121094 301.632812 404.933594 300.363281 C 404.289062 302.796875 403.4375 305.042969 402.460938 306.914062 C 402.773438 305.769531 403.210938 303.585938 403.335938 301.425781 C 403.042969 302.777344 402.128906 303.878906 401.628906 305.042969 C 401.878906 303.128906 401.941406 301.527344 401.859375 300.78125 C 400.882812 304.023438 399.488281 306.351562 397.617188 308.910156 C 398.617188 306.289062 398.886719 303.503906 398.886719 301.820312 C 397.222656 304.75 397.078125 306 394.4375 309.492188 C 395.828125 306.582031 395.582031 304.128906 395.289062 302.753906 C 395.082031 303.503906 394.167969 305.664062 392.835938 307.996094 C 392.566406 306.351562 392.941406 302.214844 393.460938 301.050781 C 392.316406 301.820312 390.757812 304.042969 390.757812 305.707031 C 390.34375 304.023438 389.675781 302.527344 388.679688 301.445312 C 389.574219 307.226562 389.238281 312.257812 385.769531 314.566406 C 378.035156 319.640625 371.488281 330.886719 362.027344 335.066406 C 362.695312 335.441406 364.230469 336.753906 365.023438 337.667969 C 374.066406 333.675781 380.15625 324.671875 387.160156 319.640625 C 390.488281 317.851562 398.117188 321.863281 406.535156 319.679688 C 409.777344 318.847656 416.097656 320.71875 418.925781 321.886719 C 417.59375 320.074219 415.039062 318.621094 410.484375 317.726562 Z M 410.484375 317.726562 " fill-opacity="1" fill-rule="nonzero"/><path fill="#549334" d="M 345.375 311.882812 C 346.9375 311.613281 351.199219 311.65625 354.585938 312.214844 C 352.339844 311.363281 353.773438 306.019531 351.050781 304.023438 C 353.835938 305.3125 355.023438 304.855469 356.5 305.105469 L 357.019531 305.25 C 356.894531 304.5625 357.082031 303.003906 357.664062 302.171875 C 358.035156 303.585938 359.597656 303.898438 360.945312 304.9375 C 361.15625 305.082031 361.382812 305.292969 361.632812 305.519531 C 361.695312 303.835938 364.128906 301.632812 364.398438 300.53125 C 364.917969 302.027344 366.289062 303.085938 366.789062 305.207031 C 368.078125 310.65625 363.816406 311.800781 365.375 315.6875 C 373.109375 320.761719 379.988281 330.886719 389.425781 335.089844 C 388.761719 335.464844 387.222656 336.773438 386.453125 337.6875 C 373.917969 332.136719 365.832031 316.0625 354.355469 315.273438 L 353.484375 315.625 C 350.636719 317 347.976562 318.039062 345.460938 317.496094 C 342.945312 317.019531 340.679688 317.789062 338.597656 318.746094 C 341.78125 313.816406 343.421875 312.402344 345.375 311.882812 C 343.734375 312.527344 340.511719 313.027344 338.140625 312.027344 C 336.730469 315.460938 333.402344 316.4375 330.429688 316.8125 C 327.457031 317.226562 325.273438 318.414062 324.339844 320.054688 C 324.027344 318.558594 324.171875 315.9375 324.546875 315.1875 C 323.257812 315.023438 321.699219 314.980469 319.828125 315.292969 C 321.59375 314.605469 323.195312 309.597656 327.519531 308.992188 C 326.707031 308.453125 326 307.808594 325.398438 306.957031 C 326.417969 307.539062 327.332031 306.894531 329.203125 306.394531 C 330.136719 306.125 331.636719 305.9375 333.007812 305.976562 C 331.53125 304.957031 330.429688 303.085938 330.160156 301.734375 C 328.828125 305.769531 324.421875 306.851562 321.824219 307.039062 C 318.703125 307.246094 317.230469 308.265625 316.648438 309.117188 C 316.648438 307.203125 317.269531 305.644531 317.976562 304.605469 C 316.6875 304.730469 315.503906 304.773438 314.839844 305.042969 C 315.398438 302.046875 316.855469 300.28125 318.394531 299.304688 C 316.5 298.867188 313.882812 295.539062 313.738281 293.167969 C 315.234375 294.894531 321.367188 293.105469 324.359375 296.453125 C 322.46875 294.832031 321.46875 292.792969 321.304688 290.488281 C 321.988281 291.402344 323.464844 291.421875 324.921875 292.253906 C 322.902344 284.933594 317.832031 286.578125 314.839844 284.25 C 311.035156 281.253906 312.574219 276.078125 309.539062 273.621094 C 310.867188 273.621094 311.96875 273.707031 312.863281 273.933594 C 312.21875 272.355469 312.238281 269.234375 312.300781 267.363281 C 313.03125 269.691406 315.609375 269.382812 317.230469 271.648438 C 317.5 271.003906 317.644531 270.359375 317.539062 269.753906 C 318.703125 271.148438 319.785156 272.355469 320.472656 273.644531 C 320.265625 271.191406 321.261719 269.753906 322.011719 269.089844 C 321.949219 269.964844 322.199219 272.085938 323.175781 274.019531 C 324.152344 275.953125 324.527344 278.15625 323.796875 281.710938 C 323.132812 285.082031 324.503906 287.679688 326.230469 290.152344 C 326.417969 288.675781 326.210938 284.375 325.753906 283.023438 C 325.292969 281.671875 325.085938 279.402344 325.542969 276.867188 C 325.816406 277.90625 327.019531 279.402344 328.328125 280.671875 C 328.664062 281.003906 328.890625 281.441406 329.058594 281.960938 C 329.472656 281.046875 329.742188 280.339844 330.054688 279.570312 C 330.472656 278.40625 325.085938 276.449219 325.378906 270.378906 C 321.761719 268.363281 318.496094 265.679688 317.601562 260.835938 C 318 261.230469 318.726562 261.542969 319.597656 261.875 C 317.601562 258.902344 317.082031 255.136719 317.789062 253.265625 C 318.269531 254.824219 319.847656 255.21875 321.554688 256.425781 C 321.96875 253.203125 318.558594 250.875 318.644531 247.777344 C 318.765625 242.871094 321.34375 242.808594 322.238281 239.75 C 322.945312 240.875 323.464844 241.914062 323.839844 243.015625 C 324.421875 240.957031 326.917969 239.417969 326.957031 237.859375 C 328.246094 239.730469 329.203125 241.828125 328.496094 243.949219 C 330.179688 243.453125 332.113281 243.804688 333.195312 244.574219 C 330.035156 245.15625 330.222656 248.960938 328.144531 249.9375 C 326.0625 250.917969 322.175781 253.640625 323.152344 257.757812 C 324.441406 259.171875 325.648438 261.4375 326.335938 265.328125 C 326.957031 265.929688 327.519531 266.679688 327.914062 267.550781 C 328.433594 266.679688 328.910156 265.636719 329.285156 264.472656 C 329.097656 262.851562 326.957031 261.0625 326.375 259.484375 C 325.585938 257.382812 327.457031 254.179688 326.707031 251.332031 C 327.726562 251.726562 329.472656 252.371094 330.699219 253.929688 C 331.65625 251.6875 333.507812 250.273438 333.546875 246.507812 C 334.316406 247.984375 334.960938 249.605469 335.378906 251.207031 C 336.519531 249.648438 338.578125 247.859375 340.988281 247.152344 C 339.492188 249.730469 340.011719 252.269531 339.949219 254.410156 C 339.886719 256.53125 339.824219 260.105469 336.726562 262.476562 C 333.632812 264.890625 332.820312 265.535156 332.15625 271.585938 C 333.464844 268.738281 336.605469 266.53125 336.726562 265.015625 C 337.371094 267.71875 337.894531 269.796875 337.808594 271.648438 C 338.847656 270.421875 340.71875 269.734375 342.921875 269.628906 C 341.363281 271.417969 340.199219 278.46875 336.0625 279.300781 C 331.945312 280.152344 330.285156 284.332031 329.160156 286.035156 C 327.746094 288.179688 327.394531 289.820312 328.808594 292.648438 C 328.746094 290.382812 329.222656 287.929688 329.929688 286.496094 C 331.304688 283.75 334.253906 282.605469 334.441406 280.671875 C 334.835938 282.710938 335.042969 284.332031 334.960938 285.683594 C 337.039062 281.484375 341.425781 282.6875 342.652344 281.460938 C 341.800781 282.5625 340.929688 284.101562 340.511719 286.390625 C 340.136719 288.636719 338.390625 290.757812 335.9375 291.941406 C 334.027344 292.855469 332.363281 293.003906 331.363281 294.976562 C 331.117188 296.140625 332.113281 297.121094 332.113281 298.886719 C 332.21875 298.242188 332.40625 297.640625 332.695312 297.222656 C 333.878906 295.519531 334.648438 294.230469 334.648438 293.273438 C 337.25 295.851562 337.808594 298.386719 336.976562 301.089844 C 336.144531 303.835938 335.523438 306.039062 337.207031 308.203125 C 338.203125 309.054688 339.367188 309.679688 340.449219 310.011719 C 341.820312 308.640625 340.222656 306.976562 338.660156 305.355469 C 337.101562 303.753906 337.25 299.949219 338.535156 298.386719 C 339.824219 296.785156 340.949219 295.144531 340.867188 293.730469 C 341.820312 294.5625 342.859375 296.082031 343.171875 296.910156 C 343.671875 295.664062 344.398438 294.5625 345.375 293.960938 C 345.585938 296.226562 347.058594 297.265625 347.058594 299.71875 C 347.726562 298.242188 348.804688 296.953125 350.304688 296.476562 C 349.972656 297.722656 351.113281 299.613281 351.28125 300.800781 C 351.40625 301.734375 351.28125 302.796875 350.824219 303.960938 C 350.367188 305.1875 349.554688 306.433594 347.664062 307.390625 C 347.058594 307.683594 346.125 307.972656 345.1875 308.410156 C 347.394531 308.121094 351.40625 308.847656 352.320312 310.488281 C 350.675781 309.867188 347.121094 311.175781 345.375 311.882812 Z M 345.375 311.882812 " fill-opacity="1" fill-rule="nonzero"/><path fill="#ce1225" d="M 377.496094 326.1875 C 377.078125 325.816406 376.476562 325.648438 375.457031 325.648438 C 374.460938 325.648438 373.855469 325.835938 373.441406 326.1875 C 369.367188 324.796875 366.726562 325.398438 366.726562 326.667969 L 366.726562 330.578125 C 366.726562 331.242188 368.222656 332.074219 373.730469 330.742188 C 374.148438 330.992188 374.585938 331.199219 375.457031 331.199219 C 376.351562 331.199219 376.851562 330.992188 377.265625 330.703125 L 377.265625 330.722656 C 382.796875 332.074219 384.292969 331.222656 384.292969 330.554688 L 384.292969 326.648438 C 384.292969 325.359375 381.632812 324.734375 377.496094 326.1875 Z M 377.496094 326.1875 " fill-opacity="1" fill-rule="nonzero"/><path fill="#ce1225" d="M 383.875 326.023438 C 385.582031 326.230469 387.535156 326.523438 388.824219 327.167969 C 388.636719 328.019531 388.222656 331.136719 388.222656 331.84375 C 387.246094 331.199219 385.1875 330.515625 383.898438 330.390625 L 383.898438 326.023438 Z M 367.140625 326.023438 C 365.4375 326.230469 363.503906 326.523438 362.195312 327.167969 C 362.402344 328.019531 362.816406 331.136719 362.816406 331.84375 C 363.773438 331.199219 365.851562 330.515625 367.121094 330.390625 L 367.121094 326.023438 Z M 367.140625 326.023438 " fill-opacity="1" fill-rule="nonzero"/><path fill="#ce1225" d="M 375.457031 321.988281 C 387.246094 321.988281 396.722656 322.695312 404.269531 324.316406 C 403.355469 325.023438 402.542969 325.960938 401.941406 326.417969 C 401.253906 327 401.503906 328.621094 403.0625 330.015625 C 404.625 331.347656 408.40625 332.53125 412.167969 330.886719 L 414.332031 329.933594 C 413.269531 330.824219 412.398438 332.011719 412.875 333.113281 C 415.101562 338.082031 423.664062 331.554688 428.78125 337.8125 C 430.152344 336.066406 433.582031 332.425781 434.996094 331.074219 C 432.085938 327.539062 428.03125 328.121094 424.683594 328.394531 C 425.910156 326.375 426.035156 324.835938 423.355469 322.925781 C 422.273438 322.132812 418.511719 322.257812 415.058594 323.820312 C 415.683594 322.195312 415.578125 319.535156 410.234375 317.1875 C 402.085938 313.527344 388.261719 312.777344 375.476562 312.777344 C 362.671875 312.777344 348.828125 313.527344 340.679688 317.1875 C 335.335938 319.535156 335.210938 322.195312 335.875 323.820312 C 332.382812 322.257812 328.664062 322.132812 327.539062 322.925781 C 324.878906 324.835938 325.023438 326.375 326.25 328.394531 C 322.882812 328.121094 318.828125 327.539062 315.917969 331.074219 C 317.332031 332.449219 320.785156 336.066406 322.113281 337.8125 C 327.226562 331.53125 335.8125 338.082031 338.015625 333.113281 C 338.515625 331.992188 337.644531 330.824219 336.605469 329.933594 L 338.746094 330.886719 C 342.507812 332.53125 346.3125 331.347656 347.851562 330.015625 C 349.410156 328.621094 349.660156 327 348.972656 326.417969 C 348.347656 325.960938 347.578125 325.023438 346.625 324.316406 C 354.171875 322.714844 363.648438 321.988281 375.457031 321.988281 Z M 375.457031 321.988281 " fill-opacity="1" fill-rule="nonzero"/></svg>