<svg xmlns="http://www.w3.org/2000/svg" xmlns:xlink="http://www.w3.org/1999/xlink" width="1000" zoomAndPan="magnify" viewBox="0 0 750 549.12" height="722" preserveAspectRatio="xMidYMid meet" version="1.0"><defs><clipPath id="d5705d7193"><path d="M 0.601562 0 L 749.398438 0 L 749.398438 540.632812 L 0.601562 540.632812 Z M 0.601562 0 " clip-rule="nonzero"/></clipPath><clipPath id="e10edcf2c3"><path d="M 0.601562 249 L 749.398438 249 L 749.398438 396 L 0.601562 396 Z M 0.601562 249 " clip-rule="nonzero"/></clipPath><clipPath id="1b9739df4d"><path d="M 0.601562 0 L 749.398438 0 L 749.398438 250 L 0.601562 250 Z M 0.601562 0 " clip-rule="nonzero"/></clipPath></defs><g clip-path="url(#d5705d7193)"><path fill="#ffffff" d="M 0.601562 0 L 749.398438 0 L 749.398438 540.632812 L 0.601562 540.632812 Z M 0.601562 0 " fill-opacity="1" fill-rule="nonzero"/><path fill="#ffffff" d="M 0.601562 0 L 749.398438 0 L 749.398438 540.632812 L 0.601562 540.632812 Z M 0.601562 0 " fill-opacity="1" fill-rule="nonzero"/><path fill="#ed1c23" d="M 749.191406 457.460938 C 749.191406 503.390625 711.960938 540.632812 666.039062 540.632812 L 83.960938 540.632812 C 38.039062 540.632812 0.808594 503.390625 0.808594 457.460938 L 0.808594 83.175781 C 0.808594 37.242188 38.039062 0 83.960938 0 L 666.039062 0 C 711.960938 0 749.191406 37.242188 749.191406 83.175781 Z M 749.191406 457.460938 " fill-opacity="1" fill-rule="nonzero"/></g><g clip-path="url(#e10edcf2c3)"><path fill="#034ea2" d="M 0.808594 249.523438 L 749.191406 249.523438 L 749.191406 395.078125 L 0.808594 395.078125 Z M 0.808594 249.523438 " fill-opacity="1" fill-rule="nonzero"/></g><g clip-path="url(#1b9739df4d)"><path fill="#ffdd00" d="M 749.191406 249.523438 L 749.191406 83.175781 C 749.191406 37.242188 711.960938 0 666.039062 0 L 83.960938 0 C 38.039062 0 0.808594 37.242188 0.808594 83.175781 L 0.808594 249.523438 Z M 749.191406 249.523438 " fill-opacity="1" fill-rule="nonzero"/></g><path fill="#ffdd00" d="M 478.941406 291.109375 C 478.941406 314.066406 460.316406 332.699219 437.363281 332.699219 L 312.636719 332.699219 C 289.683594 332.699219 271.058594 314.066406 271.058594 291.109375 L 271.058594 228.730469 C 271.058594 205.773438 289.683594 187.140625 312.636719 187.140625 L 437.363281 187.140625 C 460.316406 187.140625 478.941406 205.773438 478.941406 228.730469 Z M 478.941406 291.109375 " fill-opacity="1" fill-rule="nonzero"/><path fill="#034ea2" d="M 458.152344 270.316406 C 458.152344 293.273438 439.527344 332.699219 416.578125 332.699219 L 333.421875 332.699219 C 310.472656 332.699219 291.847656 293.273438 291.847656 270.316406 L 291.847656 249.523438 C 291.847656 226.566406 310.472656 207.9375 333.421875 207.9375 L 416.578125 207.9375 C 439.527344 207.9375 458.152344 226.566406 458.152344 249.523438 Z M 458.152344 270.316406 " fill-opacity="1" fill-rule="nonzero"/><path fill="#ed1c23" d="M 437.363281 270.316406 C 437.363281 293.273438 418.738281 332.699219 395.789062 332.699219 L 354.210938 332.699219 C 331.261719 332.699219 312.636719 293.273438 312.636719 270.316406 L 312.636719 249.523438 C 312.636719 226.566406 331.261719 207.9375 354.210938 207.9375 L 395.789062 207.9375 C 418.738281 207.9375 437.363281 226.566406 437.363281 249.523438 Z M 437.363281 270.316406 " fill-opacity="1" fill-rule="nonzero"/><path fill="#6dbe46" d="M 416.015625 189.949219 C 413.25 200.097656 396.039062 207.9375 375 207.9375 C 353.960938 207.9375 336.75 200.097656 333.984375 189.949219 C 308.933594 193.527344 312.636719 200.199219 312.636719 207.9375 C 312.636719 219.414062 329.078125 228.730469 375 228.730469 C 420.921875 228.730469 437.363281 219.414062 437.363281 207.9375 C 437.363281 200.199219 441.066406 193.527344 416.015625 189.949219 Z M 416.015625 189.949219 " fill-opacity="1" fill-rule="nonzero"/><path fill="#a6d388" d="M 395.789062 291.109375 C 395.789062 302.609375 386.476562 311.902344 375 311.902344 C 363.523438 311.902344 354.210938 302.609375 354.210938 291.109375 L 354.210938 228.730469 C 354.210938 217.25 363.523438 207.9375 375 207.9375 C 386.476562 207.9375 395.789062 217.25 395.789062 228.730469 Z M 395.789062 291.109375 " fill-opacity="1" fill-rule="nonzero"/><path fill="#662113" d="M 447.757812 145.554688 C 456.90625 145.554688 465.597656 146.636719 473.660156 148.402344 C 460.710938 126.03125 416.578125 103.96875 375 145.554688 C 333.421875 103.96875 289.289062 126.03125 276.339844 148.402344 C 284.402344 146.636719 293.09375 145.554688 302.242188 145.554688 C 342.425781 145.554688 375 164.1875 375 187.140625 C 375 164.1875 407.554688 145.554688 447.757812 145.554688 Z M 447.757812 145.554688 " fill-opacity="1" fill-rule="nonzero"/><path fill="#8ed2e7" d="M 416.578125 259.921875 C 416.578125 262.304688 416.511719 264.679688 416.375 267.054688 C 416.242188 269.425781 416.042969 271.78125 415.777344 274.117188 C 415.511719 276.457031 415.183594 278.765625 414.785156 281.046875 C 414.390625 283.328125 413.933594 285.570312 413.410156 287.769531 C 412.890625 289.972656 412.308594 292.125 411.667969 294.226562 C 411.027344 296.328125 410.328125 298.371094 409.570312 300.351562 C 408.8125 302.335938 408.003906 304.246094 407.140625 306.089844 C 406.277344 307.933594 405.363281 309.695312 404.398438 311.382812 C 403.4375 313.066406 402.429688 314.664062 401.375 316.179688 C 400.324219 317.691406 399.230469 319.109375 398.097656 320.433594 C 396.964844 321.757812 395.800781 322.980469 394.597656 324.105469 C 393.398438 325.226562 392.167969 326.246094 390.910156 327.15625 C 389.652344 328.070312 388.371094 328.871094 387.070312 329.5625 C 385.765625 330.253906 384.445312 330.835938 383.109375 331.300781 C 381.777344 331.765625 380.429688 332.113281 379.074219 332.347656 C 377.71875 332.582031 376.363281 332.699219 375 332.699219 C 373.636719 332.699219 372.28125 332.582031 370.925781 332.347656 C 369.570312 332.113281 368.222656 331.765625 366.890625 331.300781 C 365.554688 330.835938 364.234375 330.253906 362.929688 329.5625 C 361.628906 328.871094 360.347656 328.070312 359.089844 327.15625 C 357.832031 326.246094 356.601562 325.226562 355.402344 324.105469 C 354.199219 322.980469 353.035156 321.757812 351.902344 320.433594 C 350.769531 319.109375 349.675781 317.691406 348.625 316.179688 C 347.570312 314.664062 346.5625 313.066406 345.601562 311.382812 C 344.636719 309.695312 343.722656 307.933594 342.859375 306.089844 C 341.996094 304.246094 341.1875 302.335938 340.429688 300.351562 C 339.671875 298.371094 338.972656 296.328125 338.332031 294.226562 C 337.691406 292.125 337.109375 289.972656 336.589844 287.769531 C 336.066406 285.570312 335.609375 283.328125 335.214844 281.046875 C 334.816406 278.765625 334.488281 276.457031 334.222656 274.117188 C 333.957031 271.78125 333.757812 269.425781 333.625 267.054688 C 333.488281 264.679688 333.421875 262.304688 333.421875 259.921875 C 333.421875 257.535156 333.488281 255.160156 333.625 252.785156 C 333.757812 250.414062 333.957031 248.058594 334.222656 245.722656 C 334.488281 243.382812 334.816406 241.074219 335.214844 238.792969 C 335.609375 236.511719 336.066406 234.269531 336.589844 232.070312 C 337.109375 229.867188 337.691406 227.714844 338.332031 225.613281 C 338.972656 223.511719 339.671875 221.46875 340.429688 219.488281 C 341.1875 217.503906 341.996094 215.59375 342.859375 213.75 C 343.722656 211.90625 344.636719 210.144531 345.601562 208.457031 C 346.5625 206.773438 347.570312 205.175781 348.625 203.664062 C 349.675781 202.148438 350.769531 200.730469 351.902344 199.40625 C 353.035156 198.082031 354.199219 196.859375 355.402344 195.734375 C 356.601562 194.613281 357.832031 193.59375 359.089844 192.683594 C 360.347656 191.769531 361.628906 190.96875 362.929688 190.277344 C 364.234375 189.585938 365.554688 189.003906 366.890625 188.539062 C 368.222656 188.074219 369.570312 187.726562 370.925781 187.492188 C 372.28125 187.257812 373.636719 187.140625 375 187.140625 C 376.363281 187.140625 377.71875 187.257812 379.074219 187.492188 C 380.429688 187.726562 381.777344 188.074219 383.109375 188.539062 C 384.445312 189.003906 385.765625 189.585938 387.070312 190.277344 C 388.371094 190.96875 389.652344 191.769531 390.910156 192.683594 C 392.167969 193.59375 393.398438 194.613281 394.597656 195.734375 C 395.800781 196.859375 396.964844 198.082031 398.097656 199.40625 C 399.230469 200.730469 400.324219 202.148438 401.375 203.664062 C 402.429688 205.175781 403.4375 206.773438 404.398438 208.457031 C 405.363281 210.144531 406.277344 211.90625 407.140625 213.75 C 408.003906 215.59375 408.8125 217.503906 409.570312 219.488281 C 410.328125 221.46875 411.027344 223.511719 411.667969 225.613281 C 412.308594 227.714844 412.890625 229.867188 413.410156 232.070312 C 413.933594 234.269531 414.390625 236.511719 414.785156 238.792969 C 415.183594 241.074219 415.511719 243.382812 415.777344 245.722656 C 416.042969 248.058594 416.242188 250.414062 416.375 252.785156 C 416.511719 255.160156 416.578125 257.535156 416.578125 259.921875 Z M 416.578125 259.921875 " fill-opacity="1" fill-rule="nonzero"/><path fill="#6dbe46" d="M 364.605469 249.523438 C 353.464844 249.523438 343.046875 252.226562 333.609375 256.695312 C 333.589844 257.777344 333.421875 258.816406 333.421875 259.921875 C 333.421875 300.113281 352.050781 332.699219 375 332.699219 C 395.851562 332.699219 412.9375 305.769531 415.953125 270.753906 C 402.792969 257.652344 384.644531 249.523438 364.605469 249.523438 Z M 364.605469 249.523438 " fill-opacity="1" fill-rule="nonzero"/><path fill="#ffcc4d" d="M 437.363281 353.492188 C 437.363281 354.171875 437.265625 354.851562 437.066406 355.53125 C 436.863281 356.207031 436.566406 356.878906 436.167969 357.546875 C 435.769531 358.214844 435.273438 358.875 434.679688 359.527344 C 434.085938 360.179688 433.398438 360.820312 432.617188 361.449219 C 431.835938 362.078125 430.964844 362.691406 430 363.292969 C 429.039062 363.894531 427.988281 364.476562 426.855469 365.042969 C 425.71875 365.609375 424.503906 366.15625 423.207031 366.683594 C 421.914062 367.207031 420.542969 367.714844 419.097656 368.195312 C 417.65625 368.675781 416.144531 369.132812 414.5625 369.566406 C 412.984375 369.996094 411.347656 370.402344 409.648438 370.78125 C 407.949219 371.160156 406.199219 371.507812 404.398438 371.828125 C 402.597656 372.152344 400.753906 372.441406 398.867188 372.703125 C 396.980469 372.960938 395.058594 373.191406 393.105469 373.390625 C 391.148438 373.585938 389.171875 373.753906 387.167969 373.886719 C 385.164062 374.019531 383.144531 374.117188 381.113281 374.183594 C 379.082031 374.25 377.042969 374.285156 375 374.285156 C 372.957031 374.285156 370.917969 374.25 368.886719 374.183594 C 366.855469 374.117188 364.835938 374.019531 362.832031 373.886719 C 360.828125 373.753906 358.851562 373.585938 356.894531 373.390625 C 354.941406 373.191406 353.019531 372.960938 351.132812 372.703125 C 349.246094 372.441406 347.402344 372.152344 345.601562 371.828125 C 343.800781 371.507812 342.050781 371.160156 340.351562 370.78125 C 338.652344 370.402344 337.015625 369.996094 335.4375 369.566406 C 333.855469 369.132812 332.34375 368.675781 330.902344 368.195312 C 329.457031 367.714844 328.085938 367.207031 326.789062 366.683594 C 325.496094 366.15625 324.28125 365.609375 323.144531 365.042969 C 322.011719 364.476562 320.960938 363.894531 320 363.292969 C 319.035156 362.691406 318.164062 362.078125 317.382812 361.449219 C 316.601562 360.820312 315.914062 360.179688 315.320312 359.527344 C 314.726562 358.875 314.230469 358.214844 313.832031 357.546875 C 313.433594 356.878906 313.136719 356.207031 312.933594 355.53125 C 312.734375 354.851562 312.636719 354.171875 312.636719 353.492188 C 312.636719 352.808594 312.734375 352.128906 312.933594 351.453125 C 313.136719 350.773438 313.433594 350.101562 313.832031 349.433594 C 314.230469 348.765625 314.726562 348.105469 315.320312 347.457031 C 315.914062 346.804688 316.601562 346.164062 317.382812 345.535156 C 318.164062 344.90625 319.035156 344.289062 320 343.6875 C 320.960938 343.089844 322.011719 342.503906 323.144531 341.9375 C 324.28125 341.371094 325.496094 340.828125 326.789062 340.300781 C 328.085938 339.773438 329.457031 339.269531 330.902344 338.789062 C 332.34375 338.304688 333.855469 337.847656 335.4375 337.417969 C 337.015625 336.984375 338.652344 336.582031 340.351562 336.203125 C 342.050781 335.824219 343.800781 335.472656 345.601562 335.152344 C 347.402344 334.832031 349.246094 334.539062 351.132812 334.28125 C 353.019531 334.019531 354.941406 333.789062 356.894531 333.59375 C 358.851562 333.394531 360.828125 333.230469 362.832031 333.097656 C 364.835938 332.964844 366.855469 332.863281 368.886719 332.796875 C 370.917969 332.730469 372.957031 332.699219 375 332.699219 C 377.042969 332.699219 379.082031 332.730469 381.113281 332.796875 C 383.144531 332.863281 385.164062 332.964844 387.167969 333.097656 C 389.171875 333.230469 391.148438 333.394531 393.105469 333.59375 C 395.058594 333.789062 396.980469 334.019531 398.867188 334.28125 C 400.753906 334.539062 402.597656 334.832031 404.398438 335.152344 C 406.199219 335.472656 407.949219 335.824219 409.648438 336.203125 C 411.347656 336.582031 412.984375 336.984375 414.5625 337.417969 C 416.144531 337.847656 417.65625 338.304688 419.097656 338.789062 C 420.542969 339.269531 421.914062 339.773438 423.207031 340.300781 C 424.503906 340.828125 425.71875 341.371094 426.855469 341.9375 C 427.988281 342.503906 429.039062 343.089844 430 343.6875 C 430.964844 344.289062 431.835938 344.90625 432.617188 345.535156 C 433.398438 346.164062 434.085938 346.804688 434.679688 347.453125 C 435.273438 348.105469 435.769531 348.765625 436.167969 349.433594 C 436.566406 350.101562 436.863281 350.773438 437.066406 351.453125 C 437.265625 352.128906 437.363281 352.808594 437.363281 353.492188 Z M 437.363281 353.492188 " fill-opacity="1" fill-rule="nonzero"/><path fill="#034ea2" d="M 416.578125 374.285156 C 416.578125 391.5 397.949219 395.078125 375 395.078125 C 352.050781 395.078125 333.421875 391.5 333.421875 374.285156 C 333.421875 357.066406 352.050781 332.699219 375 332.699219 C 397.949219 332.699219 416.578125 357.066406 416.578125 374.285156 Z M 416.578125 374.285156 " fill-opacity="1" fill-rule="nonzero"/><path fill="#ed1c23" d="M 354.210938 374.285156 C 354.210938 357.066406 363.523438 332.699219 375 332.699219 C 386.476562 332.699219 395.789062 357.066406 395.789062 374.285156 C 395.789062 391.5 386.476562 395.078125 375 395.078125 C 363.523438 395.078125 354.210938 391.5 354.210938 374.285156 Z M 354.210938 374.285156 " fill-opacity="1" fill-rule="nonzero"/><path fill="#ccd6dd" d="M 354.210938 124.761719 C 354.210938 113.285156 363.523438 124.761719 375 124.761719 C 386.476562 124.761719 395.789062 113.285156 395.789062 124.761719 C 395.789062 136.238281 386.476562 145.554688 375 145.554688 C 363.523438 145.554688 354.210938 136.238281 354.210938 124.761719 Z M 354.210938 124.761719 " fill-opacity="1" fill-rule="nonzero"/><path fill="#ffffff" d="M 395.789062 259.921875 C 395.789062 260.261719 395.753906 260.601562 395.6875 260.9375 C 395.621094 261.277344 395.523438 261.613281 395.390625 261.949219 C 395.257812 262.28125 395.089844 262.613281 394.894531 262.9375 C 394.695312 263.265625 394.464844 263.585938 394.207031 263.898438 C 393.945312 264.214844 393.65625 264.519531 393.332031 264.820312 C 393.011719 265.121094 392.664062 265.414062 392.285156 265.695312 C 391.90625 265.980469 391.5 266.253906 391.070312 266.515625 C 390.636719 266.777344 390.179688 267.03125 389.699219 267.273438 C 389.21875 267.511719 388.714844 267.742188 388.1875 267.957031 C 387.660156 268.171875 387.117188 268.375 386.550781 268.566406 C 385.984375 268.753906 385.398438 268.929688 384.800781 269.089844 C 384.199219 269.25 383.585938 269.394531 382.957031 269.523438 C 382.328125 269.65625 381.6875 269.769531 381.035156 269.867188 C 380.382812 269.96875 379.722656 270.050781 379.054688 270.117188 C 378.386719 270.183594 377.714844 270.234375 377.039062 270.265625 C 376.359375 270.300781 375.679688 270.316406 375 270.316406 C 374.320312 270.316406 373.640625 270.300781 372.960938 270.265625 C 372.285156 270.234375 371.613281 270.183594 370.945312 270.117188 C 370.277344 270.050781 369.617188 269.96875 368.964844 269.867188 C 368.3125 269.769531 367.671875 269.65625 367.042969 269.523438 C 366.414062 269.394531 365.800781 269.25 365.199219 269.089844 C 364.601562 268.929688 364.015625 268.753906 363.449219 268.566406 C 362.882812 268.375 362.339844 268.171875 361.8125 267.957031 C 361.285156 267.742188 360.78125 267.511719 360.300781 267.273438 C 359.820312 267.03125 359.363281 266.777344 358.929688 266.515625 C 358.5 266.253906 358.09375 265.980469 357.714844 265.695312 C 357.335938 265.414062 356.988281 265.121094 356.667969 264.820312 C 356.34375 264.519531 356.054688 264.214844 355.792969 263.898438 C 355.535156 263.585938 355.304688 263.265625 355.105469 262.9375 C 354.910156 262.613281 354.742188 262.28125 354.609375 261.949219 C 354.476562 261.613281 354.378906 261.277344 354.3125 260.9375 C 354.246094 260.601562 354.210938 260.261719 354.210938 259.921875 C 354.210938 259.578125 354.246094 259.238281 354.3125 258.902344 C 354.378906 258.5625 354.476562 258.226562 354.609375 257.890625 C 354.742188 257.558594 354.910156 257.226562 355.105469 256.902344 C 355.304688 256.574219 355.535156 256.257812 355.792969 255.941406 C 356.054688 255.625 356.34375 255.320312 356.667969 255.019531 C 356.988281 254.71875 357.335938 254.425781 357.714844 254.144531 C 358.09375 253.859375 358.5 253.585938 358.929688 253.324219 C 359.363281 253.0625 359.820312 252.808594 360.300781 252.566406 C 360.78125 252.328125 361.285156 252.097656 361.8125 251.882812 C 362.339844 251.667969 362.882812 251.464844 363.449219 251.273438 C 364.015625 251.085938 364.601562 250.910156 365.199219 250.75 C 365.800781 250.589844 366.414062 250.445312 367.042969 250.316406 C 367.671875 250.183594 368.3125 250.070312 368.964844 249.972656 C 369.617188 249.871094 370.277344 249.789062 370.945312 249.722656 C 371.613281 249.65625 372.285156 249.605469 372.960938 249.574219 C 373.640625 249.539062 374.320312 249.523438 375 249.523438 C 375.679688 249.523438 376.359375 249.539062 377.039062 249.574219 C 377.714844 249.605469 378.386719 249.65625 379.054688 249.722656 C 379.722656 249.789062 380.382812 249.871094 381.035156 249.972656 C 381.6875 250.070312 382.328125 250.183594 382.957031 250.316406 C 383.585938 250.445312 384.199219 250.589844 384.800781 250.75 C 385.398438 250.910156 385.984375 251.085938 386.550781 251.273438 C 387.117188 251.464844 387.660156 251.667969 388.1875 251.882812 C 388.714844 252.097656 389.21875 252.328125 389.699219 252.566406 C 390.179688 252.808594 390.636719 253.0625 391.070312 253.324219 C 391.5 253.585938 391.90625 253.859375 392.285156 254.144531 C 392.664062 254.425781 393.011719 254.71875 393.332031 255.019531 C 393.65625 255.320312 393.945312 255.625 394.207031 255.941406 C 394.464844 256.257812 394.695312 256.574219 394.894531 256.902344 C 395.089844 257.226562 395.257812 257.558594 395.390625 257.890625 C 395.523438 258.226562 395.621094 258.5625 395.6875 258.902344 C 395.753906 259.238281 395.789062 259.578125 395.789062 259.921875 Z M 395.789062 259.921875 " fill-opacity="1" fill-rule="nonzero"/><path fill="#c1694f" d="M 291.847656 218.332031 C 291.847656 218.671875 291.8125 219.011719 291.746094 219.351562 C 291.679688 219.691406 291.578125 220.027344 291.445312 220.359375 C 291.3125 220.695312 291.148438 221.023438 290.953125 221.351562 C 290.753906 221.675781 290.523438 221.996094 290.265625 222.3125 C 290.003906 222.625 289.710938 222.933594 289.390625 223.234375 C 289.070312 223.535156 288.722656 223.824219 288.34375 224.109375 C 287.964844 224.390625 287.558594 224.664062 287.128906 224.929688 C 286.695312 225.191406 286.238281 225.445312 285.757812 225.683594 C 285.277344 225.925781 284.773438 226.152344 284.246094 226.371094 C 283.71875 226.585938 283.171875 226.789062 282.605469 226.976562 C 282.042969 227.167969 281.457031 227.339844 280.859375 227.5 C 280.257812 227.664062 279.640625 227.808594 279.011719 227.9375 C 278.382812 228.070312 277.742188 228.183594 277.09375 228.28125 C 276.441406 228.378906 275.78125 228.464844 275.113281 228.53125 C 274.445312 228.597656 273.773438 228.644531 273.09375 228.679688 C 272.417969 228.710938 271.738281 228.730469 271.058594 228.730469 C 270.378906 228.730469 269.699219 228.710938 269.019531 228.679688 C 268.34375 228.644531 267.671875 228.597656 267.003906 228.53125 C 266.335938 228.464844 265.675781 228.378906 265.023438 228.28125 C 264.371094 228.183594 263.730469 228.070312 263.101562 227.9375 C 262.472656 227.808594 261.859375 227.664062 261.257812 227.5 C 260.65625 227.339844 260.074219 227.167969 259.507812 226.976562 C 258.941406 226.789062 258.394531 226.585938 257.871094 226.371094 C 257.34375 226.152344 256.839844 225.925781 256.359375 225.683594 C 255.875 225.445312 255.421875 225.191406 254.988281 224.929688 C 254.554688 224.664062 254.152344 224.390625 253.773438 224.109375 C 253.394531 223.824219 253.046875 223.535156 252.722656 223.234375 C 252.402344 222.933594 252.113281 222.625 251.851562 222.3125 C 251.589844 221.996094 251.363281 221.675781 251.164062 221.351562 C 250.96875 221.023438 250.800781 220.695312 250.667969 220.359375 C 250.535156 220.027344 250.4375 219.691406 250.371094 219.351562 C 250.304688 219.011719 250.269531 218.671875 250.269531 218.332031 C 250.269531 217.992188 250.304688 217.652344 250.371094 217.3125 C 250.4375 216.976562 250.535156 216.636719 250.667969 216.304688 C 250.800781 215.96875 250.96875 215.640625 251.164062 215.316406 C 251.363281 214.988281 251.589844 214.667969 251.851562 214.355469 C 252.113281 214.039062 252.402344 213.730469 252.722656 213.433594 C 253.046875 213.132812 253.394531 212.839844 253.773438 212.554688 C 254.152344 212.273438 254.554688 212 254.988281 211.738281 C 255.421875 211.472656 255.875 211.222656 256.359375 210.980469 C 256.839844 210.742188 257.34375 210.511719 257.871094 210.296875 C 258.394531 210.078125 258.941406 209.878906 259.507812 209.6875 C 260.074219 209.5 260.65625 209.324219 261.257812 209.164062 C 261.859375 209.003906 262.472656 208.859375 263.101562 208.726562 C 263.730469 208.597656 264.371094 208.484375 265.023438 208.382812 C 265.675781 208.285156 266.335938 208.203125 267.003906 208.136719 C 267.671875 208.070312 268.34375 208.019531 269.019531 207.984375 C 269.699219 207.953125 270.378906 207.9375 271.058594 207.9375 C 271.738281 207.9375 272.417969 207.953125 273.09375 207.984375 C 273.773438 208.019531 274.445312 208.070312 275.113281 208.136719 C 275.78125 208.203125 276.441406 208.285156 277.09375 208.382812 C 277.742188 208.484375 278.382812 208.597656 279.011719 208.726562 C 279.640625 208.859375 280.257812 209.003906 280.859375 209.164062 C 281.457031 209.324219 282.042969 209.5 282.605469 209.6875 C 283.171875 209.878906 283.71875 210.078125 284.246094 210.296875 C 284.773438 210.511719 285.277344 210.742188 285.757812 210.980469 C 286.238281 211.222656 286.695312 211.472656 287.128906 211.738281 C 287.558594 212 287.964844 212.273438 288.34375 212.554688 C 288.722656 212.839844 289.070312 213.132812 289.390625 213.433594 C 289.710938 213.730469 290.003906 214.039062 290.265625 214.355469 C 290.523438 214.667969 290.753906 214.988281 290.953125 215.316406 C 291.148438 215.640625 291.3125 215.96875 291.445312 216.304688 C 291.578125 216.636719 291.679688 216.976562 291.746094 217.3125 C 291.8125 217.652344 291.847656 217.992188 291.847656 218.332031 Z M 291.847656 218.332031 " fill-opacity="1" fill-rule="nonzero"/><path fill="#c1694f" d="M 312.636719 176.746094 C 312.636719 177.085938 312.601562 177.425781 312.535156 177.765625 C 312.46875 178.105469 312.367188 178.441406 312.234375 178.773438 C 312.101562 179.109375 311.9375 179.4375 311.738281 179.761719 C 311.542969 180.089844 311.3125 180.410156 311.050781 180.722656 C 310.792969 181.039062 310.5 181.347656 310.179688 181.648438 C 309.859375 181.945312 309.507812 182.238281 309.132812 182.523438 C 308.753906 182.804688 308.347656 183.078125 307.914062 183.339844 C 307.484375 183.605469 307.027344 183.855469 306.546875 184.097656 C 306.066406 184.339844 305.5625 184.566406 305.035156 184.78125 C 304.507812 185 303.960938 185.199219 303.394531 185.390625 C 302.828125 185.578125 302.246094 185.753906 301.644531 185.914062 C 301.046875 186.074219 300.429688 186.21875 299.800781 186.351562 C 299.171875 186.480469 298.53125 186.597656 297.882812 186.695312 C 297.230469 186.792969 296.570312 186.875 295.902344 186.941406 C 295.234375 187.007812 294.5625 187.058594 293.882812 187.09375 C 293.207031 187.125 292.527344 187.140625 291.847656 187.140625 C 291.164062 187.140625 290.488281 187.125 289.808594 187.09375 C 289.132812 187.058594 288.457031 187.007812 287.789062 186.941406 C 287.121094 186.875 286.464844 186.792969 285.8125 186.695312 C 285.160156 186.597656 284.519531 186.480469 283.890625 186.351562 C 283.261719 186.21875 282.648438 186.074219 282.046875 185.914062 C 281.445312 185.753906 280.863281 185.578125 280.296875 185.390625 C 279.730469 185.199219 279.183594 185 278.660156 184.78125 C 278.132812 184.566406 277.628906 184.339844 277.148438 184.097656 C 276.664062 183.855469 276.207031 183.605469 275.777344 183.339844 C 275.34375 183.078125 274.941406 182.804688 274.5625 182.523438 C 274.183594 182.238281 273.832031 181.945312 273.511719 181.648438 C 273.191406 181.347656 272.902344 181.039062 272.640625 180.722656 C 272.378906 180.410156 272.152344 180.089844 271.953125 179.761719 C 271.753906 179.4375 271.589844 179.109375 271.457031 178.773438 C 271.324219 178.441406 271.226562 178.101562 271.15625 177.765625 C 271.089844 177.425781 271.058594 177.085938 271.058594 176.746094 C 271.058594 176.40625 271.089844 176.066406 271.15625 175.726562 C 271.226562 175.386719 271.324219 175.050781 271.457031 174.71875 C 271.589844 174.382812 271.753906 174.054688 271.953125 173.726562 C 272.152344 173.402344 272.378906 173.082031 272.640625 172.765625 C 272.902344 172.453125 273.191406 172.144531 273.511719 171.84375 C 273.832031 171.542969 274.183594 171.253906 274.5625 170.96875 C 274.941406 170.6875 275.34375 170.414062 275.777344 170.148438 C 276.207031 169.886719 276.664062 169.632812 277.148438 169.394531 C 277.628906 169.152344 278.132812 168.925781 278.660156 168.707031 C 279.183594 168.492188 279.730469 168.289062 280.296875 168.101562 C 280.863281 167.910156 281.445312 167.738281 282.046875 167.578125 C 282.648438 167.414062 283.261719 167.269531 283.890625 167.140625 C 284.519531 167.011719 285.160156 166.894531 285.8125 166.796875 C 286.464844 166.699219 287.121094 166.613281 287.789062 166.546875 C 288.457031 166.480469 289.132812 166.433594 289.808594 166.398438 C 290.488281 166.367188 291.164062 166.347656 291.847656 166.347656 C 292.527344 166.347656 293.207031 166.367188 293.882812 166.398438 C 294.5625 166.433594 295.234375 166.480469 295.902344 166.546875 C 296.570312 166.613281 297.230469 166.699219 297.882812 166.796875 C 298.53125 166.894531 299.171875 167.011719 299.800781 167.140625 C 300.429688 167.269531 301.046875 167.414062 301.644531 167.578125 C 302.246094 167.738281 302.828125 167.910156 303.394531 168.101562 C 303.960938 168.289062 304.507812 168.492188 305.035156 168.707031 C 305.5625 168.925781 306.066406 169.152344 306.546875 169.394531 C 307.027344 169.632812 307.484375 169.886719 307.914062 170.148438 C 308.347656 170.414062 308.753906 170.6875 309.132812 170.96875 C 309.507812 171.253906 309.859375 171.542969 310.179688 171.84375 C 310.5 172.144531 310.792969 172.453125 311.050781 172.765625 C 311.3125 173.082031 311.542969 173.402344 311.738281 173.726562 C 311.9375 174.054688 312.101562 174.382812 312.234375 174.71875 C 312.367188 175.050781 312.46875 175.386719 312.535156 175.726562 C 312.601562 176.066406 312.636719 176.40625 312.636719 176.746094 Z M 312.636719 176.746094 " fill-opacity="1" fill-rule="nonzero"/><path fill="#c1694f" d="M 499.730469 218.332031 C 499.730469 218.671875 499.695312 219.011719 499.628906 219.351562 C 499.5625 219.691406 499.464844 220.027344 499.332031 220.359375 C 499.199219 220.695312 499.03125 221.023438 498.835938 221.351562 C 498.636719 221.675781 498.410156 221.996094 498.148438 222.3125 C 497.886719 222.625 497.597656 222.933594 497.277344 223.234375 C 496.953125 223.535156 496.605469 223.824219 496.226562 224.109375 C 495.847656 224.390625 495.445312 224.664062 495.011719 224.929688 C 494.578125 225.191406 494.121094 225.445312 493.640625 225.683594 C 493.160156 225.925781 492.65625 226.152344 492.128906 226.371094 C 491.605469 226.585938 491.058594 226.789062 490.492188 226.976562 C 489.925781 227.167969 489.34375 227.339844 488.742188 227.5 C 488.140625 227.664062 487.527344 227.808594 486.898438 227.9375 C 486.269531 228.070312 485.628906 228.183594 484.976562 228.28125 C 484.324219 228.378906 483.664062 228.464844 482.996094 228.53125 C 482.328125 228.597656 481.65625 228.644531 480.980469 228.679688 C 480.300781 228.710938 479.621094 228.730469 478.941406 228.730469 C 478.261719 228.730469 477.582031 228.710938 476.90625 228.679688 C 476.226562 228.644531 475.554688 228.597656 474.886719 228.53125 C 474.21875 228.464844 473.558594 228.378906 472.90625 228.28125 C 472.257812 228.183594 471.617188 228.070312 470.988281 227.9375 C 470.359375 227.808594 469.742188 227.664062 469.140625 227.5 C 468.542969 227.339844 467.957031 227.167969 467.390625 226.976562 C 466.828125 226.789062 466.28125 226.585938 465.753906 226.371094 C 465.226562 226.152344 464.722656 225.925781 464.242188 225.683594 C 463.761719 225.445312 463.304688 225.191406 462.871094 224.929688 C 462.441406 224.664062 462.035156 224.390625 461.65625 224.109375 C 461.277344 223.824219 460.929688 223.535156 460.609375 223.234375 C 460.289062 222.933594 459.996094 222.625 459.734375 222.3125 C 459.476562 221.996094 459.246094 221.675781 459.046875 221.351562 C 458.851562 221.023438 458.6875 220.695312 458.554688 220.359375 C 458.421875 220.027344 458.320312 219.691406 458.253906 219.351562 C 458.1875 219.011719 458.152344 218.671875 458.152344 218.332031 C 458.152344 217.992188 458.1875 217.652344 458.253906 217.3125 C 458.320312 216.976562 458.421875 216.636719 458.554688 216.304688 C 458.6875 215.96875 458.851562 215.640625 459.046875 215.316406 C 459.246094 214.988281 459.476562 214.667969 459.734375 214.355469 C 459.996094 214.039062 460.289062 213.730469 460.609375 213.433594 C 460.929688 213.132812 461.277344 212.839844 461.65625 212.554688 C 462.035156 212.273438 462.441406 212 462.871094 211.738281 C 463.304688 211.472656 463.761719 211.222656 464.242188 210.980469 C 464.722656 210.742188 465.226562 210.511719 465.753906 210.296875 C 466.28125 210.078125 466.828125 209.878906 467.390625 209.6875 C 467.957031 209.5 468.542969 209.324219 469.140625 209.164062 C 469.742188 209.003906 470.359375 208.859375 470.988281 208.726562 C 471.617188 208.597656 472.257812 208.484375 472.90625 208.382812 C 473.558594 208.285156 474.21875 208.203125 474.886719 208.136719 C 475.554688 208.070312 476.226562 208.019531 476.90625 207.984375 C 477.582031 207.953125 478.261719 207.9375 478.941406 207.9375 C 479.621094 207.9375 480.300781 207.953125 480.980469 207.984375 C 481.65625 208.019531 482.328125 208.070312 482.996094 208.136719 C 483.664062 208.203125 484.324219 208.285156 484.976562 208.382812 C 485.628906 208.484375 486.269531 208.597656 486.898438 208.726562 C 487.527344 208.859375 488.140625 209.003906 488.742188 209.164062 C 489.34375 209.324219 489.925781 209.5 490.492188 209.6875 C 491.058594 209.878906 491.605469 210.078125 492.128906 210.296875 C 492.65625 210.511719 493.160156 210.742188 493.640625 210.980469 C 494.121094 211.222656 494.578125 211.472656 495.011719 211.738281 C 495.445312 212 495.847656 212.273438 496.226562 212.554688 C 496.605469 212.839844 496.953125 213.132812 497.277344 213.433594 C 497.597656 213.730469 497.886719 214.039062 498.148438 214.355469 C 498.410156 214.667969 498.636719 214.988281 498.835938 215.316406 C 499.03125 215.640625 499.199219 215.96875 499.332031 216.304688 C 499.464844 216.636719 499.5625 216.976562 499.628906 217.3125 C 499.695312 217.652344 499.730469 217.992188 499.730469 218.332031 Z M 499.730469 218.332031 " fill-opacity="1" fill-rule="nonzero"/><path fill="#c1694f" d="M 478.941406 176.746094 C 478.941406 177.085938 478.910156 177.425781 478.84375 177.765625 C 478.773438 178.105469 478.675781 178.441406 478.542969 178.773438 C 478.410156 179.109375 478.246094 179.4375 478.046875 179.761719 C 477.847656 180.089844 477.621094 180.410156 477.359375 180.722656 C 477.097656 181.039062 476.808594 181.347656 476.488281 181.648438 C 476.167969 181.945312 475.816406 182.238281 475.4375 182.523438 C 475.058594 182.804688 474.65625 183.078125 474.222656 183.339844 C 473.792969 183.605469 473.335938 183.855469 472.851562 184.097656 C 472.371094 184.339844 471.867188 184.566406 471.339844 184.78125 C 470.816406 185 470.269531 185.199219 469.703125 185.390625 C 469.136719 185.578125 468.554688 185.753906 467.953125 185.914062 C 467.351562 186.074219 466.738281 186.21875 466.109375 186.351562 C 465.480469 186.480469 464.839844 186.597656 464.1875 186.695312 C 463.535156 186.792969 462.875 186.875 462.210938 186.941406 C 461.542969 187.007812 460.867188 187.058594 460.191406 187.09375 C 459.511719 187.125 458.835938 187.140625 458.152344 187.140625 C 457.472656 187.140625 456.792969 187.125 456.117188 187.09375 C 455.4375 187.058594 454.765625 187.007812 454.097656 186.941406 C 453.429688 186.875 452.769531 186.792969 452.117188 186.695312 C 451.46875 186.597656 450.828125 186.480469 450.199219 186.351562 C 449.570312 186.21875 448.953125 186.074219 448.355469 185.914062 C 447.753906 185.753906 447.171875 185.578125 446.605469 185.390625 C 446.039062 185.199219 445.492188 185 444.964844 184.78125 C 444.4375 184.566406 443.933594 184.339844 443.453125 184.097656 C 442.972656 183.855469 442.515625 183.605469 442.082031 183.339844 C 441.652344 183.078125 441.246094 182.804688 440.867188 182.523438 C 440.492188 182.238281 440.140625 181.945312 439.820312 181.648438 C 439.5 181.347656 439.207031 181.039062 438.949219 180.722656 C 438.6875 180.410156 438.457031 180.089844 438.261719 179.761719 C 438.0625 179.4375 437.898438 179.109375 437.765625 178.773438 C 437.632812 178.441406 437.53125 178.101562 437.464844 177.765625 C 437.398438 177.425781 437.363281 177.085938 437.363281 176.746094 C 437.363281 176.40625 437.398438 176.066406 437.464844 175.726562 C 437.53125 175.386719 437.632812 175.050781 437.765625 174.71875 C 437.898438 174.382812 438.0625 174.054688 438.261719 173.726562 C 438.457031 173.402344 438.6875 173.082031 438.949219 172.765625 C 439.207031 172.453125 439.5 172.144531 439.820312 171.84375 C 440.140625 171.542969 440.492188 171.253906 440.867188 170.96875 C 441.246094 170.6875 441.652344 170.414062 442.082031 170.148438 C 442.515625 169.886719 442.972656 169.632812 443.453125 169.394531 C 443.933594 169.152344 444.4375 168.925781 444.964844 168.707031 C 445.492188 168.492188 446.039062 168.289062 446.605469 168.101562 C 447.171875 167.910156 447.753906 167.738281 448.355469 167.578125 C 448.953125 167.414062 449.570312 167.269531 450.199219 167.140625 C 450.828125 167.011719 451.46875 166.894531 452.117188 166.796875 C 452.769531 166.699219 453.429688 166.613281 454.097656 166.546875 C 454.765625 166.480469 455.4375 166.433594 456.117188 166.398438 C 456.792969 166.367188 457.472656 166.347656 458.152344 166.347656 C 458.835938 166.347656 459.511719 166.367188 460.191406 166.398438 C 460.867188 166.433594 461.542969 166.480469 462.210938 166.546875 C 462.875 166.613281 463.535156 166.699219 464.1875 166.796875 C 464.839844 166.894531 465.480469 167.011719 466.109375 167.140625 C 466.738281 167.269531 467.351562 167.414062 467.953125 167.578125 C 468.554688 167.738281 469.136719 167.910156 469.703125 168.101562 C 470.269531 168.289062 470.816406 168.492188 471.339844 168.707031 C 471.867188 168.925781 472.371094 169.152344 472.851562 169.394531 C 473.335938 169.632812 473.792969 169.886719 474.222656 170.148438 C 474.65625 170.414062 475.058594 170.6875 475.4375 170.96875 C 475.816406 171.253906 476.167969 171.542969 476.488281 171.84375 C 476.808594 172.144531 477.097656 172.453125 477.359375 172.765625 C 477.621094 173.082031 477.847656 173.402344 478.046875 173.726562 C 478.246094 174.054688 478.410156 174.382812 478.542969 174.71875 C 478.675781 175.050781 478.773438 175.386719 478.84375 175.726562 C 478.910156 176.066406 478.941406 176.40625 478.941406 176.746094 Z M 478.941406 176.746094 " fill-opacity="1" fill-rule="nonzero"/></svg>