<svg xmlns="http://www.w3.org/2000/svg" xmlns:xlink="http://www.w3.org/1999/xlink" width="1000" zoomAndPan="magnify" viewBox="0 0 750 549.12" height="722" preserveAspectRatio="xMidYMid meet" version="1.0"><defs><clipPath id="d41b931d1c"><path d="M 0.601562 0 L 749.398438 0 L 749.398438 540.632812 L 0.601562 540.632812 Z M 0.601562 0 " clip-rule="nonzero"/></clipPath><clipPath id="cd9eaa10cd"><path d="M 0.601562 166 L 749.398438 166 L 749.398438 375 L 0.601562 375 Z M 0.601562 166 " clip-rule="nonzero"/></clipPath><clipPath id="2ac1f236d6"><path d="M 0.601562 0 L 749.398438 0 L 749.398438 167 L 0.601562 167 Z M 0.601562 0 " clip-rule="nonzero"/></clipPath><clipPath id="5e984176f8"><path d="M 0.601562 12 L 230 12 L 230 529 L 0.601562 529 Z M 0.601562 12 " clip-rule="nonzero"/></clipPath></defs><g clip-path="url(#d41b931d1c)"><path fill="#ffffff" d="M 0.601562 0 L 749.398438 0 L 749.398438 540.632812 L 0.601562 540.632812 Z M 0.601562 0 " fill-opacity="1" fill-rule="nonzero"/><path fill="#ffffff" d="M 0.601562 0 L 749.398438 0 L 749.398438 540.632812 L 0.601562 540.632812 Z M 0.601562 0 " fill-opacity="1" fill-rule="nonzero"/><path fill="#e32118" d="M 749.1875 457.460938 C 749.1875 503.390625 711.957031 540.632812 666.035156 540.632812 L 83.964844 540.632812 C 38.042969 540.632812 0.8125 503.390625 0.8125 457.460938 L 0.8125 83.175781 C 0.8125 37.242188 38.042969 0 83.964844 0 L 666.035156 0 C 711.957031 0 749.1875 37.242188 749.1875 83.175781 Z M 749.1875 457.460938 " fill-opacity="1" fill-rule="nonzero"/></g><g clip-path="url(#cd9eaa10cd)"><path fill="#eeeeee" d="M 0.8125 166.347656 L 749.1875 166.347656 L 749.1875 374.285156 L 0.8125 374.285156 Z M 0.8125 166.347656 " fill-opacity="1" fill-rule="nonzero"/></g><g clip-path="url(#2ac1f236d6)"><path fill="#3e9a00" d="M 666.035156 0 L 83.964844 0 C 38.042969 0 0.8125 37.242188 0.8125 83.175781 L 0.8125 166.347656 L 749.1875 166.347656 L 749.1875 83.175781 C 749.1875 37.242188 711.957031 0 666.035156 0 Z M 666.035156 0 " fill-opacity="1" fill-rule="nonzero"/></g><g clip-path="url(#5e984176f8)"><path fill="#0173ce" d="M 153.253906 166.347656 L 40.519531 12.558594 C 16.777344 27.199219 0.8125 53.230469 0.8125 83.175781 L 0.8125 457.460938 C 0.8125 487.402344 16.777344 513.433594 40.519531 528.074219 L 153.253906 374.285156 L 229.484375 270.316406 Z M 153.253906 166.347656 " fill-opacity="1" fill-rule="nonzero"/></g><path fill="#000000" d="M 384.210938 207.9375 L 334.402344 207.9375 L 334.402344 306.707031 C 334.402344 326.855469 345.773438 330.097656 351.613281 330.097656 L 370.78125 330.097656 C 382.796875 330.097656 384.210938 340.058594 384.210938 340.058594 C 384.210938 340.058594 385.621094 330.097656 397.636719 330.097656 L 416.804688 330.097656 C 422.648438 330.097656 434.019531 326.855469 434.019531 306.707031 L 434.019531 207.9375 Z M 384.210938 207.9375 " fill-opacity="1" fill-rule="nonzero"/><path fill="#ffffff" d="M 384.210938 331.242188 C 381.445312 328.308594 377.160156 325.941406 370.78125 325.941406 L 351.613281 325.941406 C 347.707031 325.941406 338.558594 324.066406 338.558594 306.707031 L 338.558594 212.09375 L 429.859375 212.09375 L 429.859375 306.707031 C 429.859375 324.066406 420.734375 325.941406 416.804688 325.941406 L 397.660156 325.941406 C 391.257812 325.941406 386.972656 328.308594 384.210938 331.242188 Z M 384.210938 331.242188 " fill-opacity="1" fill-rule="nonzero"/><path fill="#000000" d="M 311.015625 284.933594 C 311.015625 284.933594 316.191406 294.042969 322.695312 300.195312 C 334.710938 311.570312 315.378906 320.65625 315.378906 320.65625 C 315.378906 320.65625 309.371094 316.75 307.417969 312.214844 C 305.484375 307.683594 312.304688 294.042969 311.015625 284.933594 Z M 311.015625 284.933594 " fill-opacity="1" fill-rule="nonzero"/><path fill="#ffffff" d="M 315.710938 315.75 C 313.945312 314.316406 311.992188 312.339844 311.242188 310.59375 C 310.929688 309.429688 312.074219 304.917969 312.84375 301.902344 C 313.28125 300.28125 313.695312 298.574219 314.089844 296.847656 C 315.796875 299.011719 317.75 301.277344 319.828125 303.253906 C 322.800781 306.0625 322.511719 307.828125 322.425781 308.410156 C 322.011719 311.132812 318.496094 314.023438 315.710938 315.75 Z M 315.710938 315.75 " fill-opacity="1" fill-rule="nonzero"/><path fill="#000000" d="M 316.835938 306.289062 C 316.835938 306.289062 316.855469 322.425781 332.777344 328.769531 C 352.382812 336.585938 365.914062 333.34375 367.535156 333.988281 C 369.160156 334.632812 367.535156 350.558594 367.535156 350.558594 C 367.535156 350.558594 345.855469 354.136719 326.648438 345.027344 C 307.4375 335.921875 308.414062 328.769531 309.414062 326.8125 C 310.410156 324.859375 311.699219 323.464844 312.636719 318.390625 C 313.507812 313.671875 316.835938 306.289062 316.835938 306.289062 Z M 316.835938 306.289062 " fill-opacity="1" fill-rule="nonzero"/><path fill="#ffffff" d="M 356.996094 347.085938 C 349.574219 347.085938 338.558594 346.089844 328.433594 341.285156 C 314.546875 334.714844 312.84375 329.640625 313.15625 328.644531 C 314.527344 326.25 315.691406 324.234375 316.5625 320.035156 C 319.226562 324.796875 323.695312 329.640625 331.242188 332.65625 C 340.636719 336.417969 350.21875 338.292969 359.71875 338.292969 C 361.425781 338.292969 362.902344 338.25 364.105469 338.1875 C 364.128906 340.371094 363.960938 343.636719 363.710938 346.835938 C 362.007812 346.984375 359.722656 347.085938 356.996094 347.085938 Z M 356.996094 347.085938 " fill-opacity="1" fill-rule="nonzero"/><path fill="#000000" d="M 457.425781 284.933594 C 457.425781 284.933594 452.25 294.042969 445.742188 300.195312 C 433.726562 311.570312 453.058594 320.65625 453.058594 320.65625 C 453.058594 320.65625 459.066406 316.75 461.023438 312.214844 C 462.933594 307.683594 456.117188 294.042969 457.425781 284.933594 Z M 457.425781 284.933594 " fill-opacity="1" fill-rule="nonzero"/><path fill="#ffffff" d="M 452.707031 315.75 C 454.472656 314.316406 456.425781 312.339844 457.175781 310.59375 C 457.488281 309.429688 456.34375 304.917969 455.574219 301.902344 C 455.136719 300.28125 454.722656 298.574219 454.328125 296.847656 C 452.625 299.011719 450.667969 301.277344 448.589844 303.253906 C 445.617188 306.0625 445.910156 307.828125 445.992188 308.410156 C 446.40625 311.132812 449.921875 314.023438 452.707031 315.75 Z M 452.707031 315.75 " fill-opacity="1" fill-rule="nonzero"/><path fill="#000000" d="M 451.605469 306.289062 C 451.605469 306.289062 451.582031 322.425781 435.660156 328.769531 C 416.054688 336.585938 402.523438 333.34375 400.902344 333.988281 C 399.28125 334.632812 400.902344 350.558594 400.902344 350.558594 C 400.902344 350.558594 422.585938 354.136719 441.792969 345.027344 C 461 335.921875 460.023438 328.769531 459.027344 326.8125 C 458.007812 324.859375 456.738281 323.464844 455.804688 318.390625 C 454.929688 313.671875 451.605469 306.289062 451.605469 306.289062 Z M 451.605469 306.289062 " fill-opacity="1" fill-rule="nonzero"/><path fill="#ffffff" d="M 411.441406 347.085938 C 418.882812 347.085938 429.878906 346.089844 440.003906 341.285156 C 453.890625 334.714844 455.597656 329.640625 455.285156 328.644531 C 453.910156 326.25 452.746094 324.234375 451.875 320.035156 C 449.214844 324.796875 444.746094 329.640625 437.199219 332.65625 C 427.800781 336.417969 418.21875 338.292969 408.71875 338.292969 C 407.015625 338.292969 405.539062 338.25 404.332031 338.1875 C 404.3125 340.371094 404.476562 343.636719 404.746094 346.835938 C 406.433594 346.984375 408.71875 347.085938 411.441406 347.085938 Z M 411.441406 347.085938 " fill-opacity="1" fill-rule="nonzero"/><path fill="#000000" d="M 410.652344 340.058594 C 410.652344 340.058594 410.402344 347.085938 384.230469 347.085938 C 358.035156 347.085938 357.808594 340.058594 357.808594 340.058594 C 357.808594 340.058594 356.832031 351.246094 357.808594 355.757812 C 358.785156 360.269531 365.605469 362.910156 384.230469 362.910156 C 402.855469 362.910156 409.695312 360.269531 410.652344 355.757812 C 411.628906 351.265625 410.652344 340.058594 410.652344 340.058594 Z M 410.652344 340.058594 " fill-opacity="1" fill-rule="nonzero"/><path fill="#ffffff" d="M 384.210938 358.753906 C 363.277344 358.753906 361.925781 355.28125 361.839844 354.90625 C 361.527344 353.511719 361.46875 350.953125 361.507812 348.273438 C 366.0625 349.996094 373.148438 351.285156 384.210938 351.285156 C 395.246094 351.285156 402.355469 350.019531 406.910156 348.273438 C 406.953125 350.976562 406.890625 353.511719 406.578125 354.90625 C 406.515625 355.28125 405.144531 358.753906 384.210938 358.753906 Z M 384.210938 358.753906 " fill-opacity="1" fill-rule="nonzero"/><path fill="#ffd701" d="M 371.964844 176.246094 L 375.476562 182.339844 L 382.523438 182.339844 L 378.992188 188.429688 L 382.523438 194.542969 L 375.476562 194.542969 L 371.964844 200.636719 L 368.453125 194.542969 L 361.40625 194.542969 L 364.917969 188.429688 L 361.40625 182.339844 L 368.453125 182.339844 Z M 344.128906 179.46875 L 348.910156 184.625 L 355.769531 183.046875 L 353.710938 189.78125 L 358.515625 194.941406 L 351.65625 196.519531 L 349.597656 203.257812 L 344.792969 198.101562 L 337.933594 199.679688 L 339.972656 192.945312 L 335.191406 187.785156 L 342.050781 186.207031 Z M 317.957031 188.429688 L 323.632812 192.609375 L 330.078125 189.742188 L 329.308594 196.769531 L 335.003906 200.90625 L 328.578125 203.757812 L 327.832031 210.765625 L 322.136719 206.605469 L 315.710938 209.453125 L 316.441406 202.46875 L 310.742188 198.308594 L 317.1875 195.460938 Z M 398.242188 176.246094 L 394.726562 182.339844 L 387.679688 182.339844 L 391.214844 188.429688 L 387.679688 194.542969 L 394.726562 194.542969 L 398.242188 200.636719 L 401.773438 194.542969 L 408.824219 194.542969 L 405.308594 188.429688 L 408.824219 182.339844 L 401.773438 182.339844 Z M 426.097656 179.46875 L 421.316406 184.625 L 414.433594 183.046875 L 416.515625 189.78125 L 411.710938 194.941406 L 418.570312 196.519531 L 420.609375 203.257812 L 425.433594 198.101562 L 432.292969 199.679688 L 430.234375 192.945312 L 435.035156 187.785156 L 428.175781 186.207031 Z M 452.269531 188.429688 L 446.574219 192.609375 L 440.148438 189.742188 L 440.917969 196.769531 L 435.203125 200.90625 L 441.648438 203.757812 L 442.394531 210.765625 L 448.089844 206.605469 L 454.515625 209.453125 L 453.789062 202.46875 L 459.460938 198.308594 L 453.039062 195.460938 Z M 452.269531 188.429688 " fill-opacity="1" fill-rule="nonzero"/><path fill="#a36629" d="M 384.210938 324.898438 C 371.734375 324.898438 369.804688 320.347656 374.023438 310.59375 C 378.242188 300.84375 380.507812 287.636719 380.507812 271.648438 C 380.507812 255.679688 374.832031 252.101562 368.242188 245.925781 C 361.675781 239.75 371.613281 242.015625 376.226562 245.925781 C 380.839844 249.835938 382.523438 253.390625 382.523438 253.390625 L 382.523438 238.441406 L 387.679688 240.0625 L 387.679688 251.4375 C 387.679688 251.4375 395.164062 244.949219 400.195312 244.285156 C 405.207031 243.636719 408.136719 247.527344 401.628906 249.480469 C 395.144531 251.4375 387.679688 254.785156 387.679688 271.625 C 387.679688 288.46875 390.257812 306.019531 393.5 312.195312 C 396.765625 318.390625 396.683594 324.898438 384.210938 324.898438 Z M 384.210938 324.898438 " fill-opacity="1" fill-rule="nonzero"/><path fill="#009a3b" d="M 369.804688 260.898438 C 363.191406 264.371094 358.515625 256.675781 358.515625 256.675781 C 358.515625 256.675781 352.507812 260.898438 346.851562 257.964844 C 341.21875 255.035156 342.09375 252.433594 346.851562 249.835938 C 351.613281 247.234375 357.351562 246.589844 357.351562 246.589844 C 357.351562 246.589844 358.828125 239.4375 361.382812 234.574219 C 363.941406 229.707031 368.242188 227.753906 368.242188 227.753906 C 368.242188 227.753906 373.484375 216.378906 382.523438 215.734375 C 391.566406 215.089844 391.566406 224.507812 391.566406 224.507812 C 391.566406 224.507812 397.179688 224.507812 398.261719 227.753906 C 403.25 222.554688 412.023438 223.199219 413.976562 225.484375 C 415.933594 227.753906 413.976562 232.640625 413.976562 232.640625 C 413.976562 232.640625 421.691406 230.371094 423.351562 232.972656 C 425.015625 235.570312 423.351562 238.917969 423.351562 238.917969 C 423.351562 238.917969 429.570312 240.125 426.636719 246.945312 C 423.707031 253.765625 414.621094 251.808594 414.621094 251.808594 C 414.621094 251.808594 410.921875 255.71875 406.929688 255.386719 C 402.9375 255.054688 401.628906 249.523438 401.628906 249.523438 C 401.628906 249.523438 395.433594 251.144531 391.566406 245.613281 C 387.679688 251.457031 380.53125 248.214844 379.550781 245.945312 C 378.574219 253.433594 376.621094 257.320312 369.804688 260.898438 Z M 369.804688 260.898438 " fill-opacity="1" fill-rule="nonzero"/></svg>