<svg xmlns="http://www.w3.org/2000/svg" xmlns:xlink="http://www.w3.org/1999/xlink" width="1000" zoomAndPan="magnify" viewBox="0 0 750 541.499989" height="722" preserveAspectRatio="xMidYMid meet" version="1.0"><defs><clipPath id="a231ddd655"><path d="M 0.347656 0 L 749.652344 0 L 749.652344 541 L 0.347656 541 Z M 0.347656 0 " clip-rule="nonzero"/></clipPath></defs><g clip-path="url(#a231ddd655)"><path fill="#ffffff" d="M 0.347656 0 L 749.652344 0 L 749.652344 541 L 0.347656 541 Z M 0.347656 0 " fill-opacity="1" fill-rule="nonzero"/><path fill="#ffffff" d="M 0.347656 0 L 749.652344 0 L 749.652344 541 L 0.347656 541 Z M 0.347656 0 " fill-opacity="1" fill-rule="nonzero"/><path fill="#4997d0" d="M 666.234375 0 L 499.816406 0 L 499.816406 541 L 666.234375 541 C 712.1875 541 749.445312 503.734375 749.445312 457.769531 L 749.445312 83.230469 C 749.445312 37.265625 712.1875 0 666.234375 0 Z M 83.765625 0 C 37.8125 0 0.554688 37.265625 0.554688 83.230469 L 0.554688 457.769531 C 0.554688 503.734375 37.8125 541 83.765625 541 L 250.183594 541 L 250.183594 0 Z M 83.765625 0 " fill-opacity="1" fill-rule="nonzero"/></g><path fill="#eeeeee" d="M 250.183594 0 L 499.816406 0 L 499.816406 541 L 250.183594 541 Z M 250.183594 0 " fill-opacity="1" fill-rule="nonzero"/><path fill="#437e24" d="M 471.898438 285.816406 C 474.25 280.777344 473.914062 277.574219 471.191406 280.425781 C 468.796875 282.921875 465.304688 283.796875 460.957031 286.875 L 461.308594 285.648438 C 465.117188 278.449219 473.355469 281.921875 478.222656 270.4375 C 479.074219 268.316406 483.421875 266.046875 477.492188 266.402344 C 473.25 266.652344 467.902344 269.167969 464.035156 274.578125 C 466.988281 266.546875 474.101562 270.644531 477.015625 251.292969 C 477.535156 247.738281 477.953125 240.476562 475.601562 246.425781 C 474.644531 248.796875 472.355469 251.167969 469.941406 254 C 470.734375 250.003906 470.460938 246.53125 469.628906 243.886719 C 471.128906 241.578125 472.480469 239.207031 472.855469 236.457031 C 473.5 231.734375 472.375 227.554688 470.585938 232.527344 C 469.964844 234.316406 468.777344 235.480469 467.53125 236.6875 C 467.070312 235.023438 466.636719 234.441406 465.34375 236.6875 C 463.992188 239.019531 463.265625 241.992188 462.847656 245.300781 L 462.808594 245.511719 C 462.496094 243.761719 462.078125 242.035156 461.683594 240.328125 C 462.640625 233.835938 472.648438 234.023438 469.171875 213.050781 C 468.363281 207.972656 467.988281 206.496094 466.199219 212.800781 C 464.535156 218.648438 459.375 219.125 459.125 230.820312 L 458.6875 229.46875 C 457.542969 218.253906 465.21875 208.867188 459.417969 199.253906 C 456.335938 194.136719 454.695312 193.679688 455.027344 197.839844 C 455.421875 202.6875 452.511719 207.828125 453.050781 214.882812 L 452.84375 214.421875 C 451.617188 205.746094 454.734375 203.125 451.21875 197.484375 C 449.390625 194.613281 446.664062 190.828125 447.371094 195.570312 C 447.519531 196.527344 447.601562 197.652344 447.703125 198.816406 C 446.582031 193.90625 442.335938 190.890625 436.972656 189.164062 C 431.894531 187.519531 433.433594 189.933594 435.304688 191.886719 C 437.96875 194.738281 437.28125 198.234375 440.589844 202.542969 C 437.011719 200.816406 433.914062 200.648438 431.851562 198.070312 C 427.796875 193.054688 429.898438 199.460938 430.875 202.355469 C 432.851562 208.015625 436.160156 211.050781 439.988281 212.988281 C 439.613281 213.402344 439.777344 214.859375 440.859375 217.898438 C 442.191406 221.644531 443.835938 224.433594 445.605469 226.679688 C 444.273438 225.847656 443.066406 224.929688 442.171875 223.597656 C 437.90625 217.292969 436.242188 216.585938 437.054688 224.097656 C 437.78125 230.613281 440.546875 234.085938 443.898438 236.375 C 443.941406 237.6875 444.417969 239.515625 445.75 241.433594 C 448.121094 244.863281 450.617188 246.300781 452.925781 247.175781 C 454.070312 249.839844 454.695312 252.3125 455.296875 254.875 C 455.152344 254.769531 455.046875 254.582031 454.882812 254.476562 C 448.496094 249.964844 450.097656 252.5625 450.617188 256.496094 C 453.007812 275.035156 461.789062 268.667969 460 280.632812 C 459.75 281.738281 459.5 282.796875 459.207031 283.859375 C 459.519531 276.972656 456.335938 273.082031 453.714844 270.042969 C 450.097656 265.859375 448.847656 267.066406 450.636719 274.808594 C 451.054688 276.617188 451.46875 278.863281 451.824219 281.238281 L 451.742188 280.988281 C 448.121094 273.683594 447.058594 275.785156 447.394531 281.339844 C 447.808594 286.6875 443.292969 288.8125 446.207031 299.070312 C 447.082031 302.066406 447.515625 307.828125 444.605469 312.242188 L 444.105469 312.90625 C 450.511719 301.066406 442.773438 297.53125 443.480469 293.949219 C 444.335938 289.894531 443.273438 289.1875 441.007812 294.199219 C 438.40625 299.984375 438.945312 304.0625 439.738281 307.515625 C 439.257812 307.789062 438.90625 307.933594 438.28125 308.347656 C 436.222656 309.742188 434.558594 311.097656 433.164062 312.386719 C 433.351562 311.261719 433.664062 310.179688 433.765625 309.058594 C 434.289062 303.75 432.832031 301.148438 430.5625 306.894531 C 427.714844 313.945312 422.597656 313.800781 419.351562 324.390625 C 416.792969 332.945312 414.898438 334.671875 410.925781 336.355469 L 410.34375 336.605469 C 416.355469 331.945312 419.664062 325.683594 420.558594 318.398438 C 421.492188 310.324219 419.496094 311.492188 416.769531 316.359375 C 414.171875 321.042969 409.21875 320.355469 406.078125 330.570312 C 405.101562 333.734375 402.792969 338.582031 396.71875 340.789062 C 404.933594 334.941406 408.535156 325.285156 407.578125 319.503906 C 407.140625 316.632812 405.789062 314.863281 404.496094 319.605469 C 402.957031 325.433594 398.695312 324.019531 395.242188 335.066406 C 393.472656 340.683594 391.933594 341.828125 384.570312 345.160156 L 385.652344 344.949219 C 381.34375 346.699219 377.601562 348.507812 374.480469 350.359375 C 371.546875 348.589844 367.90625 346.863281 363.726562 345.179688 L 364.328125 345.28125 C 357.046875 341.976562 355.507812 340.851562 353.761719 335.296875 C 350.390625 324.371094 346.125 325.785156 344.609375 320.042969 C 343.359375 315.320312 342.027344 317.066406 341.570312 319.898438 C 340.613281 325.597656 344.171875 335.109375 352.199219 340.894531 C 346.273438 338.6875 344.003906 333.941406 343.027344 330.84375 C 339.949219 320.75 335.058594 321.4375 332.480469 316.816406 C 329.796875 311.992188 327.800781 310.847656 328.757812 318.816406 C 329.609375 325.996094 332.875 332.195312 338.804688 336.792969 L 337.554688 336.273438 C 334.121094 334.652344 332.335938 332.671875 329.921875 324.746094 C 326.757812 314.257812 321.683594 314.425781 318.855469 307.476562 C 316.566406 301.816406 315.171875 304.355469 315.710938 309.597656 C 315.816406 310.722656 316.109375 311.804688 316.316406 312.90625 C 314.941406 311.617188 313.300781 310.285156 311.261719 308.910156 C 310.636719 308.496094 310.285156 308.347656 309.804688 308.078125 C 310.574219 304.667969 311.117188 300.609375 308.535156 294.886719 C 306.289062 289.976562 305.25 290.664062 306.058594 294.636719 C 306.789062 298.238281 299.089844 301.710938 305.5625 313.53125 L 305.082031 312.90625 C 302.046875 308.515625 302.523438 302.730469 303.355469 299.695312 C 306.246094 289.582031 301.816406 287.480469 302.191406 282.195312 C 302.566406 276.679688 301.484375 274.621094 297.925781 281.839844 L 297.824219 282.132812 C 298.175781 279.757812 298.59375 277.53125 299.007812 275.742188 C 300.777344 268.085938 299.488281 266.902344 295.972656 271.042969 C 293.371094 274.058594 290.207031 277.90625 290.519531 284.710938 C 290.230469 283.652344 289.980469 282.570312 289.730469 281.464844 C 287.984375 269.6875 296.636719 275.929688 299.027344 257.621094 C 299.527344 253.730469 301.128906 251.148438 294.785156 255.621094 C 294.617188 255.726562 294.515625 255.914062 294.371094 256.019531 C 294.972656 253.480469 295.597656 251.023438 296.761719 248.382812 C 299.050781 247.507812 301.503906 246.09375 303.855469 242.699219 C 305.164062 240.785156 305.644531 238.996094 305.664062 237.6875 C 308.953125 235.417969 311.675781 231.964844 312.382812 225.535156 C 313.214844 218.148438 311.574219 218.835938 307.371094 225.054688 C 306.476562 226.367188 305.289062 227.28125 303.980469 228.09375 C 305.707031 225.867188 307.351562 223.140625 308.660156 219.4375 C 309.699219 216.441406 309.867188 214.984375 309.492188 214.570312 C 313.300781 212.632812 316.585938 209.636719 318.5 204.039062 C 319.476562 201.167969 321.539062 194.863281 317.542969 199.796875 C 315.484375 202.355469 312.445312 202.519531 308.910156 204.226562 C 312.195312 199.984375 311.511719 196.507812 314.132812 193.679688 C 315.960938 191.722656 317.523438 189.351562 312.507812 190.972656 C 307.164062 192.679688 302.980469 195.675781 301.859375 200.523438 C 301.960938 199.378906 302.046875 198.253906 302.191406 197.320312 C 302.898438 192.617188 300.171875 196.382812 298.425781 199.191406 C 294.929688 204.769531 297.96875 207.371094 296.824219 215.902344 L 296.59375 216.421875 C 297.136719 209.429688 294.246094 204.351562 294.617188 199.546875 C 294.953125 195.445312 293.351562 195.90625 290.3125 200.960938 C 284.59375 210.429688 292.121094 219.6875 291.0625 230.738281 L 290.644531 232.046875 C 290.332031 220.582031 285.238281 220.125 283.636719 214.339844 C 281.847656 208.097656 281.511719 209.574219 280.679688 214.589844 C 277.269531 235.3125 287.171875 235.128906 288.085938 241.558594 C 287.691406 243.261719 287.296875 244.96875 286.984375 246.695312 L 286.921875 246.40625 C 286.777344 245.28125 286.464844 244.34375 286.214844 243.347656 L 286.132812 243.117188 C 285.675781 241.308594 285.257812 239.433594 284.445312 238 C 283.175781 235.773438 282.761719 236.355469 282.304688 238 C 281.078125 236.8125 279.910156 235.667969 279.289062 233.878906 C 277.539062 228.945312 276.394531 233.089844 277.039062 237.769531 C 277.414062 240.476562 278.746094 242.824219 280.222656 245.113281 C 279.414062 247.738281 279.140625 251.191406 279.933594 255.144531 C 277.539062 252.335938 275.292969 249.984375 274.355469 247.632812 C 272.007812 241.765625 272.421875 248.921875 272.941406 252.460938 C 275.8125 271.644531 282.867188 267.523438 285.777344 275.515625 C 281.949219 270.125 276.6875 267.628906 272.464844 267.378906 C 266.597656 267.023438 270.882812 269.292969 271.757812 271.375 C 276.5625 282.757812 284.675781 279.324219 288.441406 286.417969 L 288.792969 287.644531 C 284.488281 284.585938 281.078125 283.714844 278.707031 281.238281 C 276 278.429688 275.6875 281.613281 278.019531 286.585938 C 275.480469 286.875 272.777344 287.082031 271.070312 286.523438 C 268.949219 285.816406 268.949219 289 274.835938 291.472656 C 277.519531 292.597656 281.761719 294.347656 285.839844 296.34375 C 288.855469 298.613281 291.875 300.152344 294.472656 302.523438 C 286.382812 296.695312 280.285156 299.507812 275.75 296.863281 C 270.113281 293.597656 273.171875 298.714844 274.730469 300.277344 C 290.625 316.195312 293.121094 304.167969 301.921875 312.613281 C 300.546875 311.992188 299.070312 311.511719 297.40625 311.304688 C 290.355469 310.492188 287.835938 309.453125 291.519531 313.90625 C 295.910156 319.230469 299.507812 321.8125 302.667969 323.226562 C 300.589844 323.207031 298.570312 323.308594 296.71875 323.683594 C 292.183594 324.640625 293.746094 325.472656 296.804688 326.390625 C 300.546875 327.511719 302.917969 330.136719 307.078125 331.839844 L 307.039062 331.839844 C 300.214844 333.964844 299.050781 334.753906 304.230469 337.3125 C 313.070312 341.746094 319.25 341.871094 324.160156 341.058594 C 321.789062 341.808594 319.644531 342.847656 317.8125 344.199219 C 314.070312 346.96875 315.089844 348.007812 318.292969 347.488281 C 324.347656 346.511719 328.109375 348.320312 333.105469 348.320312 C 330.066406 350.546875 327.527344 353.066406 322.972656 354.417969 C 319.914062 355.332031 318.917969 357.039062 323.910156 357.496094 C 342.984375 359.121094 347.832031 347.175781 356.941406 347.300781 C 361.601562 348.738281 365.972656 350.445312 370.109375 353.210938 C 368.863281 354.167969 367.53125 355.144531 366.804688 356.039062 C 367.03125 358.183594 371.941406 357.121094 372.441406 358.308594 C 373.066406 357.644531 373.730469 357.164062 374.375 356.582031 C 375.019531 357.164062 375.664062 357.644531 376.308594 358.308594 C 376.789062 357.121094 380.867188 357.496094 381.09375 355.375 C 380.535156 354.667969 379.429688 353.9375 378.558594 353.210938 C 382.800781 350.359375 387.230469 348.632812 391.996094 347.15625 C 401.210938 347.03125 406.121094 359.121094 425.40625 357.476562 C 430.4375 357.019531 429.460938 355.292969 426.382812 354.355469 C 421.765625 353.003906 419.183594 350.445312 416.105469 348.195312 C 421.160156 348.21875 424.988281 346.386719 431.105469 347.363281 C 434.347656 347.863281 435.367188 346.824219 431.5625 344.015625 C 429.730469 342.640625 427.546875 341.601562 425.15625 340.832031 C 430.125 341.640625 436.386719 341.539062 445.332031 337.042969 C 450.574219 334.464844 449.390625 333.652344 442.523438 331.507812 L 442.484375 331.507812 C 446.683594 329.78125 449.078125 327.140625 452.84375 325.996094 C 455.964844 325.058594 457.523438 324.226562 452.925781 323.269531 C 451.074219 322.875 449.015625 322.769531 446.914062 322.789062 C 450.117188 321.355469 453.777344 318.734375 458.25 313.34375 C 461.914062 308.828125 459.394531 309.910156 452.28125 310.722656 C 450.554688 310.929688 449.035156 311.40625 447.621094 312.074219 C 456.585938 303.4375 459.0625 315.695312 475.207031 299.546875 C 476.746094 298.027344 479.84375 292.804688 474.144531 296.136719 C 469.546875 298.820312 463.328125 295.90625 455.027344 302.023438 C 457.710938 299.507812 460.871094 297.945312 463.992188 295.574219 C 468.089844 293.554688 472.355469 291.808594 475.082031 290.664062 C 481.050781 288.144531 481.050781 284.960938 478.867188 285.667969 C 477.183594 286.3125 474.476562 286.105469 471.898438 285.816406 Z M 327.527344 334.773438 L 329.714844 336.148438 C 327.363281 335.085938 324.636719 334.066406 321.703125 333.171875 C 323.347656 333.234375 325.261719 333.609375 327.738281 335.003906 Z M 353.117188 341.515625 L 352.011719 341.183594 L 352.78125 341.308594 Z M 309.054688 311.53125 C 309.242188 311.824219 309.285156 311.992188 309.492188 312.324219 C 311.28125 315.113281 311.574219 317.984375 313.300781 321.375 C 312.488281 320.648438 311.675781 319.917969 310.886719 319.148438 C 308.679688 316.484375 308.535156 314.113281 309.054688 311.53125 Z M 305.625 218.042969 C 303.292969 221.144531 299.445312 221.621094 295.867188 224.578125 C 297.925781 221 300.609375 217.648438 303.980469 216.753906 C 305.289062 216.398438 306.558594 215.941406 307.808594 215.441406 C 307.203125 216.089844 306.496094 216.898438 305.625 218.042969 Z M 302.085938 312.511719 L 302.421875 312.886719 L 302.171875 312.738281 Z M 325.71875 340.851562 C 329.296875 340.121094 332.273438 339.1875 335.183594 339.351562 L 336.410156 339.976562 C 332.542969 339.789062 328.921875 340.019531 325.71875 340.851562 Z M 449.222656 210.761719 C 449.222656 210.761719 449.203125 210.761719 449.222656 210.761719 C 449.203125 210.761719 449.222656 210.761719 449.222656 210.761719 Z M 443.960938 216.484375 C 443.066406 215.316406 442.359375 214.484375 441.714844 213.839844 C 442.960938 214.359375 444.25 214.796875 445.582031 215.171875 C 448.996094 216.089844 451.71875 219.480469 453.777344 223.078125 C 450.179688 220.105469 446.3125 219.605469 443.960938 216.484375 Z M 427.753906 332.882812 C 424.800781 333.777344 422.054688 334.796875 419.683594 335.855469 L 421.722656 334.566406 L 421.617188 334.691406 C 424.15625 333.320312 426.089844 332.945312 427.753906 332.882812 Z M 440.027344 311.804688 L 440.484375 310.992188 C 441.007812 313.59375 440.882812 315.984375 438.65625 318.671875 C 437.84375 319.460938 437.011719 320.230469 436.160156 320.957031 C 437.925781 317.527344 438.21875 314.632812 440.027344 311.804688 Z M 396.261719 341.121094 L 397.132812 340.976562 L 395.863281 341.371094 C 395.988281 341.308594 396.136719 341.226562 396.261719 341.121094 Z M 412.859375 339.75 L 414.148438 339.101562 C 417.1875 338.957031 420.265625 339.976562 424.050781 340.707031 C 420.722656 339.8125 416.917969 339.582031 412.859375 339.75 Z M 447.183594 312.40625 L 447.496094 312.03125 L 447.433594 312.242188 C 447.332031 312.28125 447.269531 312.367188 447.183594 312.40625 Z M 447.183594 312.40625 " fill-opacity="1" fill-rule="nonzero"/><path fill="#b1b6ba" d="M 345.773438 279.28125 C 345.773438 279.28125 329.898438 293.554688 327.945312 295.492188 C 326.011719 297.425781 324.054688 305.875 324.054688 305.875 L 329.234375 309.097656 L 352.261719 285.441406 Z M 345.773438 279.28125 " fill-opacity="1" fill-rule="nonzero"/><path fill="#6c301e" d="M 323.742188 305.5625 L 328.609375 309.429688 C 328.609375 309.429688 324.386719 313.632812 323.742188 317.859375 C 323.097656 322.082031 311.738281 335.023438 309.472656 338.269531 C 307.203125 341.539062 304.269531 340.851562 302.980469 338.269531 C 301.710938 335.691406 298.800781 333.734375 298.46875 331.800781 C 298.113281 329.863281 305.601562 323.039062 309.160156 319.167969 C 312.695312 315.257812 316.585938 313.65625 318.542969 311.410156 C 320.496094 309.097656 323.742188 305.5625 323.742188 305.5625 Z M 346.769531 282.839844 L 336.929688 293.847656 L 339.550781 296.46875 L 349.019531 285.753906 Z M 346.769531 282.839844 " fill-opacity="1" fill-rule="nonzero"/><path fill="#b1b6ba" d="M 301.359375 186.875 L 332.8125 219.605469 L 340.59375 215.714844 L 338.160156 212.195312 L 332.8125 213.445312 Z M 301.359375 186.875 " fill-opacity="1" fill-rule="nonzero"/><path fill="#fab81b" d="M 340.59375 323.019531 L 344.484375 329.53125 L 348.019531 326.265625 C 348.019531 326.265625 350.890625 331.46875 348.019531 332.425781 C 345.128906 333.421875 342.984375 332.425781 342.984375 332.425781 L 333.125 340.476562 C 333.125 340.476562 329.234375 338.125 325.988281 340.476562 C 325.988281 340.476562 326.65625 335.710938 328.609375 335.710938 C 330.546875 335.710938 337.640625 326.304688 337.640625 326.304688 C 337.640625 326.304688 333.875 325.246094 334.644531 323.039062 C 335.414062 320.792969 340.59375 323.019531 340.59375 323.019531 Z M 340.59375 323.019531 " fill-opacity="1" fill-rule="nonzero"/><path fill="#b1b6ba" d="M 340.59375 325.640625 C 340.59375 325.640625 398.277344 268.253906 422.285156 266.089844 C 422.285156 266.089844 404.125 277.136719 392.785156 286.210938 C 381.429688 295.304688 344.503906 329.550781 344.503906 329.550781 Z M 340.59375 325.640625 " fill-opacity="1" fill-rule="nonzero"/><path fill="#b1b6ba" d="M 406.058594 279.28125 C 406.058594 279.28125 421.953125 293.554688 423.84375 295.492188 C 425.800781 297.425781 427.753906 305.875 427.753906 305.875 L 422.597656 309.097656 L 399.566406 285.441406 Z M 406.058594 279.28125 " fill-opacity="1" fill-rule="nonzero"/><path fill="#6c301e" d="M 428.089844 305.5625 L 423.21875 309.429688 C 423.21875 309.429688 427.441406 313.632812 428.089844 317.859375 C 428.734375 322.082031 440.113281 335.023438 442.359375 338.269531 C 444.625 341.539062 447.558594 340.851562 448.847656 338.269531 C 450.136719 335.691406 453.03125 333.734375 453.363281 331.800781 C 453.738281 329.863281 446.207031 323.039062 442.671875 319.167969 C 439.132812 315.257812 435.242188 313.65625 433.289062 311.410156 C 431.332031 309.097656 428.089844 305.5625 428.089844 305.5625 Z M 405.039062 282.839844 L 414.878906 293.847656 L 412.277344 296.46875 L 402.8125 285.753906 Z M 405.039062 282.839844 " fill-opacity="1" fill-rule="nonzero"/><path fill="#b1b6ba" d="M 391.328125 234.378906 L 387.667969 244.742188 L 418.976562 213.445312 L 414.171875 212.570312 Z M 391.328125 234.378906 " fill-opacity="1" fill-rule="nonzero"/><path fill="#b1b6ba" d="M 450.429688 186.875 L 418.976562 219.605469 L 411.21875 215.714844 L 418.976562 213.445312 Z M 450.429688 186.875 " fill-opacity="1" fill-rule="nonzero"/><path fill="#fab81b" d="M 411.21875 323.019531 L 407.367188 329.53125 L 403.832031 326.265625 C 403.832031 326.265625 400.941406 331.46875 403.832031 332.425781 C 406.683594 333.421875 408.867188 332.425781 408.867188 332.425781 L 418.707031 340.476562 C 418.707031 340.476562 422.617188 338.125 425.820312 340.476562 C 425.820312 340.476562 425.175781 335.710938 423.21875 335.710938 C 421.265625 335.710938 414.191406 326.304688 414.191406 326.304688 C 414.191406 326.304688 417.9375 325.246094 417.167969 323.039062 C 416.417969 320.792969 411.21875 323.019531 411.21875 323.019531 Z M 411.21875 323.019531 " fill-opacity="1" fill-rule="nonzero"/><path fill="#b1b6ba" d="M 411.21875 325.640625 C 411.21875 325.640625 353.53125 268.253906 329.546875 266.089844 C 329.546875 266.089844 347.726562 277.136719 359.042969 286.210938 C 370.402344 295.304688 407.347656 329.550781 407.347656 329.550781 Z M 411.21875 325.640625 " fill-opacity="1" fill-rule="nonzero"/><path fill="#f9f0aa" d="M 341.03125 211.488281 C 350.453125 210.949219 377.640625 211.824219 387.710938 211.488281 C 397.738281 211.175781 395.46875 216.359375 396.113281 219.292969 C 396.757812 222.207031 390.644531 225.453125 390.644531 225.453125 C 390.644531 225.453125 397.09375 229.34375 405.539062 252.042969 C 413.941406 274.746094 411.988281 285.085938 400.671875 285.773438 C 389.355469 286.417969 360.167969 288.375 350.410156 288.375 C 340.695312 288.375 339.074219 284.816406 339.074219 279.613281 C 339.074219 274.433594 346.855469 266.628906 354.632812 271.0625 C 354.632812 271.0625 354.632812 267.609375 350.097656 254.644531 C 345.5625 241.679688 335.828125 227.742188 334.871094 221.582031 C 333.875 215.378906 336.160156 211.78125 341.03125 211.488281 Z M 341.03125 211.488281 " fill-opacity="1" fill-rule="nonzero"/><path fill="#437e24" d="M 369.550781 189.121094 C 365.660156 185.542969 371.066406 181.652344 375.019531 181.984375 C 378.933594 182.316406 380.886719 184.5625 376.683594 189.121094 C 376.683594 189.121094 388.042969 195.28125 397.09375 203.707031 C 406.164062 212.132812 424.800781 234.878906 426.589844 259.472656 C 428.859375 291.246094 411.363281 307.765625 404.851562 319.105469 C 398.382812 330.46875 383.820312 358.996094 383.820312 358.996094 C 383.820312 358.996094 383.488281 344.410156 402.625 317.816406 C 402.625 317.816406 387.730469 344.410156 364.703125 349.277344 C 364.703125 349.277344 393.515625 328.96875 401.605469 312.738281 C 409.699219 296.550781 421.515625 272.1875 419.601562 255.332031 C 417.644531 238.457031 414.609375 224.140625 392.246094 213.089844 C 392.246094 213.089844 378.078125 212.300781 371.839844 207.265625 C 361.769531 199.171875 369.550781 189.121094 369.550781 189.121094 Z M 369.550781 189.121094 " fill-opacity="1" fill-rule="nonzero"/><path fill="#e2cf81" d="M 390.621094 225.453125 C 390.621094 226.429688 394.824219 231.695312 394.261719 231.695312 L 344.730469 231.695312 C 344.191406 231.695312 341.402344 228.261719 341.402344 227.28125 L 337.617188 222.851562 C 340.570312 223.996094 344.171875 222.851562 344.710938 222.851562 L 394.222656 222.851562 C 394.804688 222.851562 390.621094 224.453125 390.621094 225.453125 Z M 354.65625 282.839844 C 354.65625 283.816406 352.574219 287.023438 353.136719 287.023438 L 402.667969 287.023438 C 403.1875 287.023438 407.765625 283.589844 407.765625 282.609375 L 409.761719 278.199219 C 406.808594 279.34375 403.207031 278.199219 402.667969 278.199219 L 353.136719 278.199219 C 352.597656 278.199219 354.65625 281.839844 354.65625 282.839844 Z M 354.65625 282.839844 " fill-opacity="1" fill-rule="nonzero"/></svg>