<svg xmlns="http://www.w3.org/2000/svg" xmlns:xlink="http://www.w3.org/1999/xlink" width="1000" zoomAndPan="magnify" viewBox="0 0 750 549.12" height="722" preserveAspectRatio="xMidYMid meet" version="1.0"><defs><clipPath id="abcbe2f508"><path d="M 0.601562 0 L 749.398438 0 L 749.398438 540.632812 L 0.601562 540.632812 Z M 0.601562 0 " clip-rule="nonzero"/></clipPath><clipPath id="01a6af40fd"><path d="M 0.601562 187 L 749.398438 187 L 749.398438 354 L 0.601562 354 Z M 0.601562 187 " clip-rule="nonzero"/></clipPath><clipPath id="1dad0477a5"><path d="M 0.601562 0 L 749.398438 0 L 749.398438 540.632812 L 0.601562 540.632812 Z M 0.601562 0 " clip-rule="nonzero"/></clipPath></defs><g clip-path="url(#abcbe2f508)"><path fill="#ffffff" d="M 0.601562 0 L 749.398438 0 L 749.398438 540.632812 L 0.601562 540.632812 Z M 0.601562 0 " fill-opacity="1" fill-rule="nonzero"/><path fill="#ffffff" d="M 0.601562 0 L 749.398438 0 L 749.398438 540.632812 L 0.601562 540.632812 Z M 0.601562 0 " fill-opacity="1" fill-rule="nonzero"/></g><g clip-path="url(#01a6af40fd)"><path fill="#eeeeee" d="M 0.808594 187.140625 L 749.191406 187.140625 L 749.191406 353.492188 L 0.808594 353.492188 Z M 0.808594 187.140625 " fill-opacity="1" fill-rule="nonzero"/></g><g clip-path="url(#1dad0477a5)"><path fill="#0156a3" d="M 666.039062 0 L 83.960938 0 C 38.039062 0 0.808594 37.242188 0.808594 83.175781 L 0.808594 187.140625 L 749.191406 187.140625 L 749.191406 83.175781 C 749.191406 37.242188 711.960938 0 666.039062 0 Z M 0.808594 457.460938 C 0.808594 503.390625 38.039062 540.632812 83.960938 540.632812 L 666.039062 540.632812 C 711.960938 540.632812 749.191406 503.390625 749.191406 457.460938 L 749.191406 353.492188 L 0.808594 353.492188 Z M 0.808594 457.460938 " fill-opacity="1" fill-rule="nonzero"/></g><path fill="#2657a7" d="M 380.507812 265.328125 L 375.332031 249.398438 L 370.15625 265.328125 L 353.402344 265.328125 L 366.953125 275.160156 L 361.777344 291.109375 L 375.332031 281.253906 L 388.886719 291.109375 L 383.710938 275.160156 L 397.265625 265.328125 Z M 491.351562 316.894531 L 486.175781 332.824219 L 499.730469 322.988281 L 513.285156 332.824219 L 508.109375 316.894531 L 521.664062 307.058594 L 504.90625 307.058594 L 499.730469 291.109375 L 494.554688 307.058594 L 477.796875 307.058594 Z M 504.90625 223.738281 L 499.730469 207.8125 L 494.554688 223.738281 L 477.796875 223.738281 L 491.351562 233.574219 L 486.175781 249.523438 L 499.730469 239.667969 L 513.285156 249.523438 L 508.109375 233.574219 L 521.664062 223.738281 Z M 240.75 316.894531 L 235.570312 332.824219 L 249.125 322.988281 L 262.679688 332.824219 L 257.503906 316.894531 L 271.058594 307.058594 L 254.300781 307.058594 L 249.125 291.109375 L 243.949219 307.058594 L 227.195312 307.058594 Z M 254.300781 223.738281 L 249.125 207.8125 L 243.949219 223.738281 L 227.195312 223.738281 L 240.75 233.574219 L 235.570312 249.523438 L 249.125 239.667969 L 262.679688 249.523438 L 257.503906 233.574219 L 271.058594 223.738281 Z M 254.300781 223.738281 " fill-opacity="1" fill-rule="nonzero"/></svg>