<svg xmlns="http://www.w3.org/2000/svg" xmlns:xlink="http://www.w3.org/1999/xlink" width="1000" zoomAndPan="magnify" viewBox="0 0 750 549.12" height="722" preserveAspectRatio="xMidYMid meet" version="1.0"><defs><clipPath id="9ca784840e"><path d="M 0.601562 0 L 749.398438 0 L 749.398438 540.632812 L 0.601562 540.632812 Z M 0.601562 0 " clip-rule="nonzero"/></clipPath><clipPath id="28093755d5"><path d="M 0.601562 0 L 230 0 L 230 540.632812 L 0.601562 540.632812 Z M 0.601562 0 " clip-rule="nonzero"/></clipPath><clipPath id="80278f7411"><path d="M 520 0 L 749.398438 0 L 749.398438 540.632812 L 520 540.632812 Z M 520 0 " clip-rule="nonzero"/></clipPath><clipPath id="43fbf4c1a6"><path d="M 229 0 L 521 0 L 521 540.632812 L 229 540.632812 Z M 229 0 " clip-rule="nonzero"/></clipPath></defs><g clip-path="url(#9ca784840e)"><path fill="#ffffff" d="M 0.601562 0 L 749.398438 0 L 749.398438 540.632812 L 0.601562 540.632812 Z M 0.601562 0 " fill-opacity="1" fill-rule="nonzero"/><path fill="#ffffff" d="M 0.601562 0 L 749.398438 0 L 749.398438 540.632812 L 0.601562 540.632812 Z M 0.601562 0 " fill-opacity="1" fill-rule="nonzero"/></g><g clip-path="url(#28093755d5)"><path fill="#006847" d="M 83.964844 0 C 38.042969 0 0.8125 37.242188 0.8125 83.175781 L 0.8125 457.460938 C 0.8125 503.390625 38.042969 540.632812 83.964844 540.632812 L 229.484375 540.632812 L 229.484375 0 Z M 83.964844 0 " fill-opacity="1" fill-rule="nonzero"/></g><g clip-path="url(#80278f7411)"><path fill="#ce1126" d="M 666.035156 0 L 520.515625 0 L 520.515625 540.632812 L 666.035156 540.632812 C 711.957031 540.632812 749.1875 503.390625 749.1875 457.460938 L 749.1875 83.175781 C 749.1875 37.242188 711.957031 0 666.035156 0 Z M 666.035156 0 " fill-opacity="1" fill-rule="nonzero"/></g><g clip-path="url(#43fbf4c1a6)"><path fill="#eeeeee" d="M 229.484375 0 L 520.515625 0 L 520.515625 540.632812 L 229.484375 540.632812 Z M 229.484375 0 " fill-opacity="1" fill-rule="nonzero"/></g><path fill="#a6d388" d="M 478.941406 270.316406 C 478.941406 327.75 432.417969 374.285156 375 374.285156 C 317.605469 374.285156 271.058594 327.75 271.058594 270.316406 L 250.269531 270.316406 C 250.269531 339.207031 306.109375 395.078125 375 395.078125 C 443.890625 395.078125 499.730469 339.207031 499.730469 270.316406 Z M 478.941406 270.316406 " fill-opacity="1" fill-rule="nonzero"/><path fill="#5c913b" d="M 282.347656 317.496094 C 280.433594 313.753906 276.566406 311.675781 272.617188 311.863281 C 271.183594 311.902344 269.707031 312.277344 268.355469 312.964844 C 263.222656 315.5625 261.207031 321.84375 263.804688 326.957031 C 265.675781 330.640625 267.734375 334.234375 269.957031 337.6875 L 269.957031 337.707031 L 270.039062 337.832031 L 270.039062 337.855469 L 270.207031 338.082031 L 270.207031 338.105469 L 270.289062 338.269531 L 270.371094 338.375 L 270.371094 338.394531 L 270.433594 338.5 L 270.433594 338.539062 L 270.496094 338.644531 L 270.519531 338.6875 L 270.582031 338.789062 L 270.601562 338.832031 L 270.664062 338.914062 L 270.707031 338.976562 L 270.746094 339.039062 L 270.769531 339.101562 L 270.832031 339.207031 L 270.851562 339.226562 L 270.894531 339.289062 L 270.957031 339.414062 L 270.976562 339.457031 L 271.039062 339.558594 L 271.058594 339.601562 L 271.203125 339.808594 L 271.203125 339.828125 L 271.308594 339.976562 L 271.308594 339.996094 C 272.390625 341.597656 273.492188 343.136719 274.65625 344.695312 C 276.777344 347.566406 280.101562 348.980469 283.40625 348.855469 C 285.402344 348.769531 287.417969 348.105469 289.144531 346.796875 C 293.761719 343.386719 294.714844 336.855469 291.285156 332.261719 C 288 327.5625 284.945312 322.613281 282.347656 317.496094 Z M 272.015625 284.601562 C 271.578125 281.359375 271.265625 278.050781 271.121094 274.683594 C 271.015625 272.1875 271.015625 269.734375 271.058594 267.28125 C 271.226562 261.5625 266.714844 256.757812 260.976562 256.59375 L 260.226562 256.613281 C 254.824219 256.84375 250.4375 261.210938 250.292969 266.699219 C 250.25 268.859375 250.230469 271.003906 250.269531 273.164062 L 250.269531 275.035156 L 250.292969 275.140625 L 250.292969 275.722656 L 250.3125 275.785156 L 250.292969 275.828125 L 250.292969 275.890625 L 250.3125 275.929688 L 250.3125 276.535156 L 250.332031 276.597656 L 250.332031 276.824219 L 250.355469 277.21875 L 250.375 277.40625 L 250.375 277.636719 C 250.5625 280.964844 250.894531 284.269531 251.332031 287.554688 C 252.078125 292.898438 256.757812 296.703125 262.035156 296.496094 C 262.371094 296.476562 262.703125 296.453125 263.015625 296.390625 C 268.855469 295.558594 272.804688 290.300781 272.015625 284.601562 Z M 382.066406 374.015625 L 381.941406 374.035156 L 379.367188 374.203125 C 374.4375 374.390625 369.449219 374.265625 364.605469 373.765625 C 364.105469 373.703125 363.628906 373.703125 363.128906 373.722656 C 358.035156 373.929688 353.753906 377.882812 353.234375 383.082031 C 352.671875 388.777344 356.832031 393.871094 362.527344 394.453125 L 365.125 394.683594 L 365.207031 394.703125 L 365.25 394.683594 L 365.3125 394.703125 L 365.355469 394.703125 L 365.480469 394.726562 L 365.605469 394.726562 L 365.667969 394.746094 L 365.6875 394.746094 L 365.8125 394.726562 L 365.875 394.746094 L 365.976562 394.746094 L 366.101562 394.765625 L 366.207031 394.789062 L 366.476562 394.789062 L 366.601562 394.808594 L 366.871094 394.808594 C 370.03125 395.015625 373.210938 395.121094 376.414062 395.058594 L 377.222656 395.058594 L 377.371094 395.035156 L 377.496094 395.058594 L 377.804688 395.058594 L 377.910156 395.035156 L 378.304688 395.035156 L 378.429688 395.015625 L 378.449219 395.015625 L 378.554688 395.035156 L 378.574219 395.015625 L 378.699219 395.035156 L 378.722656 395.035156 L 378.824219 395.015625 L 378.992188 395.015625 L 379.117188 394.996094 L 379.242188 394.996094 L 379.261719 395.015625 L 379.386719 394.996094 L 379.53125 394.996094 L 379.636719 394.972656 L 380.050781 394.972656 L 380.15625 394.953125 L 380.238281 394.953125 L 380.320312 394.933594 L 380.40625 394.953125 L 380.507812 394.953125 L 380.59375 394.933594 L 380.695312 394.933594 C 381.570312 394.910156 382.460938 394.828125 383.335938 394.789062 C 388.929688 394.328125 393.128906 389.484375 392.753906 383.851562 C 392.609375 378.195312 387.722656 373.804688 382.066406 374.015625 Z M 331.367188 364.699219 C 326.148438 362.285156 321.074219 359.398438 316.316406 356.152344 C 314.402344 354.820312 312.179688 354.261719 310.015625 354.34375 C 306.855469 354.46875 303.78125 356.007812 301.847656 358.855469 C 298.625 363.574219 299.808594 370.0625 304.546875 373.285156 L 304.570312 373.308594 L 304.695312 373.371094 L 304.820312 373.496094 L 304.945312 373.578125 L 305.070312 373.683594 C 310.597656 377.445312 316.460938 380.75 322.570312 383.578125 C 324.109375 384.308594 325.753906 384.597656 327.351562 384.535156 C 331.136719 384.371094 334.671875 382.1875 336.355469 378.527344 C 338.828125 373.308594 336.5625 367.109375 331.367188 364.699219 Z M 435.929688 356.421875 C 434.164062 356.507812 432.375 357.046875 430.773438 358.085938 C 425.929688 361.164062 420.777344 363.886719 415.515625 366.132812 C 410.214844 368.335938 407.71875 374.429688 409.964844 379.753906 C 411.710938 383.851562 415.765625 386.242188 419.945312 386.09375 C 421.171875 386.054688 422.355469 385.761719 423.539062 385.304688 L 426.324219 384.058594 L 426.367188 384.058594 L 426.492188 383.976562 L 426.535156 383.953125 L 426.617188 383.914062 L 426.699219 383.914062 L 426.785156 383.871094 L 426.824219 383.828125 L 426.949219 383.808594 L 426.992188 383.765625 L 427.054688 383.726562 L 427.15625 383.683594 L 427.21875 383.664062 L 427.324219 383.621094 L 427.367188 383.601562 L 427.46875 383.558594 L 427.511719 383.539062 C 427.574219 383.496094 427.574219 383.476562 427.613281 383.476562 L 427.65625 383.453125 L 427.78125 383.390625 L 427.824219 383.390625 L 428.113281 383.246094 L 428.21875 383.183594 L 428.382812 383.101562 L 428.40625 383.082031 L 428.550781 383.058594 L 428.695312 382.976562 L 428.738281 382.957031 L 428.820312 382.894531 L 428.863281 382.894531 L 428.988281 382.808594 L 429.152344 382.769531 L 429.277344 382.683594 L 429.300781 382.683594 L 429.445312 382.601562 L 429.464844 382.582031 L 429.757812 382.457031 L 429.902344 382.394531 L 430.191406 382.226562 L 430.359375 382.164062 L 430.484375 382.101562 L 430.503906 382.101562 L 430.796875 381.9375 L 430.796875 381.917969 L 430.921875 381.875 L 430.941406 381.875 L 431.398438 381.625 L 431.542969 381.582031 L 431.835938 381.417969 L 431.980469 381.332031 L 432 381.332031 C 432.023438 381.3125 432.0625 381.292969 432.148438 381.292969 C 432.1875 381.230469 432.230469 381.210938 432.273438 381.1875 L 432.5625 381.042969 L 432.5625 381.023438 L 432.855469 380.898438 L 432.875 380.898438 L 433.019531 380.8125 L 433.039062 380.792969 L 433.144531 380.730469 L 433.164062 380.730469 L 433.3125 380.648438 L 433.4375 380.585938 L 433.476562 380.585938 L 433.601562 380.503906 L 433.601562 380.480469 L 433.746094 380.417969 L 433.769531 380.398438 L 433.894531 380.335938 L 433.894531 380.316406 L 434.019531 380.273438 L 434.058594 380.253906 L 434.140625 380.191406 L 434.203125 380.167969 L 434.308594 380.105469 L 434.351562 380.085938 L 434.453125 380.023438 L 434.496094 380.003906 L 434.621094 379.960938 C 434.601562 379.941406 434.621094 379.941406 434.640625 379.941406 L 434.765625 379.878906 L 434.808594 379.859375 L 434.890625 379.796875 L 434.933594 379.773438 L 435.097656 379.691406 C 435.097656 379.648438 435.140625 379.648438 435.183594 379.628906 L 435.246094 379.609375 L 435.328125 379.566406 L 435.390625 379.523438 L 435.472656 379.484375 L 435.597656 379.398438 L 435.660156 379.335938 L 435.765625 379.316406 L 435.847656 379.296875 L 435.890625 379.253906 L 435.972656 379.210938 L 436.054688 379.152344 L 436.097656 379.128906 L 436.179688 379.089844 L 436.261719 379.027344 L 436.324219 378.984375 C 436.367188 379.003906 436.386719 378.984375 436.429688 378.964844 L 436.472656 378.921875 L 436.554688 378.878906 L 436.617188 378.839844 L 436.679688 378.796875 L 436.761719 378.753906 L 436.84375 378.691406 L 436.886719 378.671875 C 436.929688 378.652344 437.011719 378.652344 437.054688 378.609375 C 437.011719 378.589844 437.011719 378.589844 437.054688 378.589844 L 437.136719 378.546875 L 437.28125 378.445312 L 437.324219 378.421875 L 437.46875 378.359375 L 437.46875 378.339844 L 437.71875 378.214844 L 437.882812 378.109375 C 438.007812 378.027344 438.132812 377.945312 438.300781 377.882812 L 438.320312 377.882812 C 439.628906 377.09375 440.980469 376.28125 442.269531 375.449219 C 447.09375 372.328125 448.527344 365.945312 445.429688 361.101562 C 443.039062 358.003906 439.507812 356.277344 435.929688 356.421875 Z M 489.375 260.398438 L 488.878906 260.417969 C 483.347656 260.648438 478.941406 265.179688 478.921875 270.773438 C 478.921875 276.535156 478.402344 282.355469 477.421875 288.011719 C 476.445312 293.648438 480.269531 299.054688 485.90625 300.011719 C 486.652344 300.136719 487.382812 300.195312 488.109375 300.175781 C 492.890625 299.96875 497.089844 296.453125 497.941406 291.503906 L 497.941406 291.402344 L 497.960938 291.359375 L 497.984375 291.316406 L 497.960938 291.277344 L 497.984375 291.234375 L 497.984375 291.195312 L 498.003906 291.152344 L 498.003906 291.089844 L 498.023438 291.046875 L 498.023438 290.859375 C 498.066406 290.839844 498.066406 290.796875 498.066406 290.777344 L 498.066406 290.652344 C 498.503906 287.96875 498.875 285.265625 499.148438 282.523438 L 499.125 282.5 L 499.148438 282.4375 L 499.148438 282.417969 L 499.167969 282.335938 L 499.167969 282.105469 L 499.210938 282.042969 L 499.210938 282.023438 L 499.1875 281.960938 L 499.1875 281.917969 L 499.210938 281.855469 L 499.210938 281.773438 L 499.25 281.753906 L 499.210938 281.691406 L 499.210938 281.609375 C 499.25 281.585938 499.25 281.566406 499.25 281.546875 L 499.25 281.148438 L 499.292969 281.085938 L 499.292969 281.066406 C 499.5625 277.675781 499.730469 274.246094 499.730469 270.773438 C 499.730469 265.097656 495.113281 260.417969 489.375 260.398438 Z M 480.167969 316.457031 C 478.421875 315.5 476.53125 315.085938 474.699219 315.167969 C 471.1875 315.3125 467.859375 317.246094 466.03125 320.535156 C 463.246094 325.566406 460.023438 330.429688 456.40625 334.921875 C 452.832031 339.433594 453.601562 345.964844 458.070312 349.519531 C 460.148438 351.164062 462.582031 351.871094 464.992188 351.765625 C 467.902344 351.640625 470.730469 350.308594 472.683594 347.855469 C 475.09375 344.820312 477.402344 341.640625 479.542969 338.394531 C 479.585938 338.25 479.6875 338.105469 479.773438 337.980469 L 479.792969 337.957031 L 479.875 337.832031 L 479.875 337.8125 L 479.960938 337.667969 C 480 337.625 480.042969 337.585938 480.042969 337.542969 L 480.0625 337.5625 L 480.148438 337.4375 L 480.148438 337.417969 C 480.1875 337.375 480.210938 337.3125 480.210938 337.273438 L 480.25 337.25 L 480.332031 337.125 L 480.332031 337.105469 C 480.375 337.085938 480.375 337.042969 480.394531 337 L 480.417969 336.980469 L 480.5 336.855469 L 480.519531 336.816406 L 480.5625 336.710938 L 480.625 336.667969 L 480.667969 336.566406 L 480.707031 336.566406 L 480.75 336.441406 L 480.769531 336.398438 L 480.851562 336.316406 L 480.875 336.273438 C 480.894531 336.230469 480.894531 336.191406 480.9375 336.171875 L 480.957031 336.109375 L 481.039062 336.046875 C 481.039062 336.023438 481.039062 336.003906 481.082031 335.984375 L 481.082031 335.898438 L 481.144531 335.859375 L 481.207031 335.753906 L 481.226562 335.710938 L 481.289062 335.585938 L 481.332031 335.546875 L 481.375 335.464844 L 481.414062 335.402344 C 481.414062 335.378906 481.414062 335.359375 481.457031 335.339844 C 481.457031 335.316406 481.457031 335.296875 481.496094 335.277344 L 481.558594 335.171875 L 481.582031 335.109375 L 481.621094 335.046875 L 481.664062 334.984375 C 481.707031 334.964844 481.707031 334.941406 481.707031 334.921875 C 481.746094 334.902344 481.746094 334.878906 481.746094 334.839844 L 481.789062 334.777344 L 481.851562 334.695312 L 481.914062 334.609375 L 481.914062 334.546875 L 481.957031 334.484375 L 482.019531 334.402344 L 482.082031 334.339844 L 482.082031 334.277344 L 482.164062 334.171875 L 482.164062 334.113281 C 482.203125 334.089844 482.226562 334.070312 482.226562 334.027344 L 482.265625 333.988281 L 482.308594 333.925781 L 482.371094 333.820312 L 482.414062 333.757812 L 482.414062 333.714844 L 482.496094 333.613281 C 482.496094 333.589844 482.496094 333.570312 482.539062 333.550781 L 482.558594 333.488281 L 482.621094 333.40625 L 482.664062 333.320312 L 482.703125 333.257812 C 482.726562 333.238281 482.703125 333.195312 482.746094 333.175781 C 482.746094 333.15625 482.746094 333.132812 482.785156 333.132812 L 482.828125 333.03125 L 482.871094 332.988281 L 482.910156 332.863281 L 482.953125 332.84375 L 482.996094 332.761719 L 483.035156 332.71875 L 483.078125 332.613281 L 483.121094 332.574219 L 483.160156 332.449219 C 483.203125 332.425781 483.160156 332.40625 483.160156 332.40625 L 483.246094 332.300781 L 483.265625 332.261719 L 483.347656 332.15625 L 483.347656 332.136719 L 483.410156 332.011719 L 483.453125 331.96875 L 483.492188 331.84375 L 483.492188 331.824219 L 483.597656 331.71875 L 483.660156 331.59375 L 483.660156 331.574219 L 483.742188 331.429688 L 483.785156 331.410156 L 484.304688 330.429688 C 486.988281 325.566406 485.199219 319.242188 480.167969 316.457031 Z M 480.167969 316.457031 " fill-opacity="1" fill-rule="nonzero"/><path fill="#55acee" d="M 437.363281 332.699219 C 437.363281 333.378906 437.265625 334.058594 437.0625 334.734375 C 436.863281 335.414062 436.566406 336.085938 436.167969 336.753906 C 435.769531 337.421875 435.273438 338.082031 434.679688 338.734375 C 434.085938 339.386719 433.398438 340.027344 432.617188 340.65625 C 431.835938 341.285156 430.964844 341.898438 430 342.5 C 429.039062 343.101562 427.988281 343.683594 426.855469 344.25 C 425.71875 344.816406 424.503906 345.363281 423.207031 345.890625 C 421.914062 346.414062 420.542969 346.917969 419.097656 347.402344 C 417.652344 347.882812 416.140625 348.339844 414.5625 348.769531 C 412.984375 349.203125 411.347656 349.609375 409.648438 349.988281 C 407.949219 350.363281 406.199219 350.714844 404.398438 351.035156 C 402.597656 351.355469 400.753906 351.648438 398.867188 351.910156 C 396.980469 352.167969 395.058594 352.398438 393.101562 352.597656 C 391.148438 352.792969 389.171875 352.957031 387.167969 353.089844 C 385.164062 353.222656 383.144531 353.324219 381.113281 353.390625 C 379.082031 353.457031 377.042969 353.492188 375 353.492188 C 372.957031 353.492188 370.917969 353.457031 368.886719 353.390625 C 366.855469 353.324219 364.835938 353.222656 362.832031 353.089844 C 360.828125 352.957031 358.851562 352.792969 356.898438 352.597656 C 354.941406 352.398438 353.019531 352.167969 351.132812 351.910156 C 349.246094 351.648438 347.402344 351.355469 345.601562 351.035156 C 343.800781 350.714844 342.050781 350.363281 340.351562 349.988281 C 338.652344 349.609375 337.015625 349.203125 335.4375 348.769531 C 333.855469 348.339844 332.347656 347.882812 330.902344 347.402344 C 329.457031 346.917969 328.085938 346.414062 326.792969 345.890625 C 325.496094 345.363281 324.28125 344.816406 323.144531 344.25 C 322.011719 343.683594 320.960938 343.101562 320 342.5 C 319.035156 341.898438 318.164062 341.285156 317.382812 340.65625 C 316.601562 340.027344 315.914062 339.386719 315.320312 338.734375 C 314.726562 338.082031 314.230469 337.421875 313.832031 336.753906 C 313.433594 336.085938 313.136719 335.414062 312.9375 334.734375 C 312.734375 334.058594 312.636719 333.378906 312.636719 332.699219 C 312.636719 332.015625 312.734375 331.335938 312.9375 330.660156 C 313.136719 329.980469 313.433594 329.308594 313.832031 328.640625 C 314.230469 327.972656 314.726562 327.3125 315.320312 326.660156 C 315.914062 326.011719 316.601562 325.371094 317.382812 324.738281 C 318.164062 324.109375 319.035156 323.496094 320 322.894531 C 320.960938 322.296875 322.011719 321.710938 323.144531 321.144531 C 324.28125 320.578125 325.496094 320.03125 326.792969 319.507812 C 328.085938 318.980469 329.457031 318.476562 330.902344 317.996094 C 332.347656 317.511719 333.855469 317.054688 335.4375 316.625 C 337.015625 316.191406 338.652344 315.785156 340.351562 315.410156 C 342.050781 315.03125 343.800781 314.679688 345.601562 314.359375 C 347.402344 314.039062 349.246094 313.746094 351.132812 313.488281 C 353.019531 313.226562 354.941406 312.996094 356.898438 312.800781 C 358.851562 312.601562 360.828125 312.4375 362.832031 312.304688 C 364.835938 312.171875 366.855469 312.070312 368.886719 312.003906 C 370.917969 311.9375 372.957031 311.902344 375 311.902344 C 377.042969 311.902344 379.082031 311.9375 381.113281 312.003906 C 383.144531 312.070312 385.164062 312.171875 387.167969 312.304688 C 389.171875 312.4375 391.148438 312.601562 393.101562 312.800781 C 395.058594 312.996094 396.980469 313.226562 398.867188 313.488281 C 400.753906 313.746094 402.597656 314.039062 404.398438 314.359375 C 406.199219 314.679688 407.949219 315.03125 409.648438 315.410156 C 411.347656 315.785156 412.984375 316.191406 414.5625 316.625 C 416.140625 317.054688 417.652344 317.511719 419.097656 317.996094 C 420.542969 318.476562 421.914062 318.980469 423.207031 319.507812 C 424.503906 320.03125 425.71875 320.578125 426.855469 321.144531 C 427.988281 321.710938 429.039062 322.296875 430 322.894531 C 430.964844 323.496094 431.835938 324.109375 432.617188 324.738281 C 433.398438 325.371094 434.085938 326.011719 434.679688 326.660156 C 435.273438 327.3125 435.769531 327.972656 436.167969 328.640625 C 436.566406 329.308594 436.863281 329.980469 437.0625 330.660156 C 437.265625 331.335938 437.363281 332.015625 437.363281 332.699219 Z M 437.363281 332.699219 " fill-opacity="1" fill-rule="nonzero"/><path fill="#ffcc4d" d="M 416.578125 332.699219 C 416.578125 333.378906 416.527344 334.058594 416.425781 334.734375 C 416.324219 335.414062 416.175781 336.085938 415.976562 336.753906 C 415.777344 337.421875 415.53125 338.082031 415.234375 338.734375 C 414.9375 339.386719 414.59375 340.027344 414.203125 340.65625 C 413.8125 341.285156 413.375 341.898438 412.894531 342.5 C 412.414062 343.101562 411.886719 343.683594 411.320312 344.25 C 410.753906 344.816406 410.144531 345.363281 409.5 345.890625 C 408.851562 346.414062 408.164062 346.917969 407.441406 347.402344 C 406.722656 347.882812 405.964844 348.339844 405.175781 348.769531 C 404.386719 349.203125 403.566406 349.609375 402.71875 349.988281 C 401.867188 350.363281 400.992188 350.714844 400.09375 351.035156 C 399.191406 351.355469 398.269531 351.648438 397.328125 351.910156 C 396.382812 352.167969 395.421875 352.398438 394.445312 352.597656 C 393.46875 352.792969 392.480469 352.957031 391.476562 353.089844 C 390.476562 353.222656 389.46875 353.324219 388.449219 353.390625 C 387.433594 353.457031 386.414062 353.492188 385.394531 353.492188 C 384.371094 353.492188 383.355469 353.457031 382.335938 353.390625 C 381.320312 353.324219 380.3125 353.222656 379.3125 353.089844 C 378.308594 352.957031 377.320312 352.792969 376.34375 352.597656 C 375.363281 352.398438 374.40625 352.167969 373.460938 351.910156 C 372.519531 351.648438 371.59375 351.355469 370.695312 351.035156 C 369.792969 350.714844 368.917969 350.363281 368.070312 349.988281 C 367.222656 349.609375 366.402344 349.203125 365.613281 348.769531 C 364.824219 348.339844 364.066406 347.882812 363.34375 347.402344 C 362.621094 346.917969 361.9375 346.414062 361.289062 345.890625 C 360.640625 345.363281 360.035156 344.816406 359.46875 344.25 C 358.898438 343.683594 358.375 343.101562 357.894531 342.5 C 357.414062 341.898438 356.976562 341.285156 356.585938 340.65625 C 356.195312 340.027344 355.851562 339.386719 355.554688 338.734375 C 355.257812 338.082031 355.011719 337.421875 354.8125 336.753906 C 354.613281 336.085938 354.460938 335.414062 354.363281 334.734375 C 354.261719 334.058594 354.210938 333.378906 354.210938 332.699219 C 354.210938 332.015625 354.261719 331.335938 354.363281 330.660156 C 354.460938 329.980469 354.613281 329.308594 354.8125 328.640625 C 355.011719 327.972656 355.257812 327.3125 355.554688 326.660156 C 355.851562 326.011719 356.195312 325.371094 356.585938 324.738281 C 356.976562 324.109375 357.414062 323.496094 357.894531 322.894531 C 358.375 322.296875 358.898438 321.710938 359.46875 321.144531 C 360.035156 320.578125 360.640625 320.03125 361.289062 319.507812 C 361.9375 318.980469 362.621094 318.476562 363.34375 317.996094 C 364.066406 317.511719 364.824219 317.054688 365.613281 316.625 C 366.402344 316.191406 367.222656 315.785156 368.070312 315.410156 C 368.917969 315.03125 369.792969 314.679688 370.695312 314.359375 C 371.59375 314.039062 372.519531 313.746094 373.460938 313.488281 C 374.40625 313.226562 375.363281 312.996094 376.34375 312.800781 C 377.320312 312.601562 378.308594 312.4375 379.3125 312.304688 C 380.3125 312.171875 381.320312 312.070312 382.335938 312.003906 C 383.355469 311.9375 384.371094 311.902344 385.394531 311.902344 C 386.414062 311.902344 387.433594 311.9375 388.449219 312.003906 C 389.46875 312.070312 390.476562 312.171875 391.476562 312.304688 C 392.480469 312.4375 393.46875 312.601562 394.445312 312.800781 C 395.421875 312.996094 396.382812 313.226562 397.328125 313.488281 C 398.269531 313.746094 399.191406 314.039062 400.09375 314.359375 C 400.992188 314.679688 401.867188 315.03125 402.71875 315.410156 C 403.566406 315.785156 404.386719 316.191406 405.175781 316.625 C 405.964844 317.054688 406.722656 317.511719 407.441406 317.996094 C 408.164062 318.476562 408.851562 318.980469 409.5 319.507812 C 410.144531 320.03125 410.753906 320.578125 411.320312 321.144531 C 411.886719 321.710938 412.414062 322.296875 412.894531 322.894531 C 413.375 323.496094 413.8125 324.109375 414.203125 324.738281 C 414.59375 325.371094 414.9375 326.011719 415.234375 326.660156 C 415.53125 327.3125 415.777344 327.972656 415.976562 328.640625 C 416.175781 329.308594 416.324219 329.980469 416.425781 330.660156 C 416.527344 331.335938 416.578125 332.015625 416.578125 332.699219 Z M 416.578125 332.699219 " fill-opacity="1" fill-rule="nonzero"/><path fill="#5c913b" d="M 398.21875 338.394531 C 396.535156 338.394531 394.832031 337.980469 393.253906 337.125 C 388.199219 334.382812 386.328125 328.0625 389.074219 323.027344 C 392.398438 316.914062 395.890625 311.363281 399.507812 306.496094 C 396.621094 306.621094 393.625 306.683594 390.570312 306.683594 C 384.832031 306.683594 379.59375 302.007812 379.59375 296.265625 C 379.59375 290.527344 383.648438 285.871094 389.40625 285.871094 L 391.109375 285.890625 C 397.265625 285.890625 403.582031 285.515625 409.238281 284.996094 C 412.523438 284.644531 415.660156 285.972656 417.761719 288.242188 C 418.050781 288.011719 418.34375 287.785156 418.65625 287.597656 C 420.734375 286.222656 422.667969 285.121094 424.476562 284.25 C 425.703125 283.292969 427.199219 282.605469 428.863281 282.292969 L 429.609375 282.148438 C 433.519531 280.878906 436.261719 280.714844 437.363281 280.714844 C 440.667969 280.714844 443.765625 282.273438 445.722656 284.933594 C 447.675781 287.597656 448.257812 291.007812 447.28125 294.167969 C 445.574219 299.699219 441.773438 300.945312 435.097656 302.277344 C 433.851562 302.753906 432.148438 303.585938 430.152344 304.9375 C 426.242188 307.496094 421.171875 307.101562 417.699219 304.230469 C 420.546875 307.910156 420.671875 313.191406 417.65625 317 C 414.125 321.511719 410.652344 326.875 407.347656 332.96875 C 405.476562 336.441406 401.898438 338.394531 398.21875 338.394531 Z M 368.703125 305.355469 C 368.265625 305.355469 367.785156 305.332031 367.328125 305.269531 C 359.554688 304.230469 352.175781 302.691406 345.375 300.675781 C 339.867188 299.03125 336.730469 293.253906 338.371094 287.742188 L 338.496094 287.324219 L 338.246094 287.804688 C 335.441406 292.816406 329.101562 294.625 324.089844 291.796875 C 317.023438 287.847656 310.679688 283.085938 305.234375 277.636719 C 301.179688 273.582031 301.179688 266.988281 305.234375 262.933594 C 309.289062 258.878906 315.878906 258.878906 319.933594 262.933594 C 324.027344 267.03125 328.828125 270.628906 334.234375 273.644531 C 338.683594 276.140625 340.59375 281.421875 338.996094 286.058594 C 341.175781 281.628906 346.355469 279.277344 351.261719 280.734375 C 356.996094 282.4375 363.296875 283.75 369.96875 284.644531 C 375.664062 285.390625 379.675781 290.609375 378.929688 296.308594 C 378.328125 301.546875 373.835938 305.355469 368.703125 305.355469 Z M 317.726562 256.71875 C 308.871094 256.71875 297.417969 253.285156 290.476562 245.09375 C 279.832031 232.535156 273.574219 216.417969 274.53125 204.070312 C 274.78125 200.761719 271.558594 198.101562 268.398438 197.269531 C 266.589844 196.789062 263.410156 196.5 261.914062 199.722656 C 260.6875 202.34375 257.609375 203.445312 255.011719 202.257812 C 252.410156 201.054688 251.269531 197.953125 252.472656 195.355469 C 255.71875 188.308594 262.992188 185.167969 271.015625 187.203125 C 278.460938 189.136719 285.589844 195.835938 284.882812 204.878906 C 284.136719 214.484375 289.582031 227.9375 298.394531 238.355469 C 303.03125 243.847656 311.097656 246.070312 316.585938 246.28125 C 321.054688 246.507812 323.320312 245.488281 323.796875 245.050781 C 322.632812 242.285156 307.230469 234.175781 300.660156 230.726562 C 295.070312 227.792969 293.40625 223.761719 292.992188 220.910156 C 291.597656 211.449219 301.304688 201.863281 310.703125 192.632812 C 314.007812 189.367188 317.144531 186.289062 318.851562 184.023438 C 320.785156 181.464844 320.472656 179.761719 320.097656 178.699219 C 318.664062 174.8125 312.449219 170.964844 304.964844 169.300781 C 298.042969 167.761719 293.363281 164.414062 291.078125 159.339844 C 288.0625 152.667969 289.664062 143.933594 295.941406 132.621094 C 297.335938 130.085938 300.515625 129.210938 303.011719 130.605469 C 305.527344 131.996094 306.417969 135.160156 305.027344 137.675781 C 299.101562 148.320312 299.683594 153.144531 300.558594 155.078125 C 301.429688 156.992188 303.65625 158.34375 307.210938 159.132812 C 316.003906 161.089844 326.585938 166.308594 329.828125 175.082031 C 331.675781 180.09375 330.742188 185.5 327.167969 190.261719 C 325.003906 193.152344 321.59375 196.5 318 200.054688 C 312.636719 205.335938 302.636719 215.171875 303.28125 219.414062 C 303.40625 220.289062 304.546875 221.058594 305.503906 221.535156 C 321.117188 229.726562 331.492188 235.652344 333.609375 242.910156 C 334.359375 245.46875 334.046875 248.046875 332.738281 250.375 C 330.722656 253.890625 326.523438 256.050781 320.578125 256.59375 C 319.683594 256.675781 318.707031 256.71875 317.726562 256.71875 Z M 317.726562 256.71875 " fill-opacity="1" fill-rule="nonzero"/><path fill="#ffcc4d" d="M 416.578125 270.316406 C 416.578125 270.996094 416.558594 271.675781 416.527344 272.355469 C 416.492188 273.03125 416.441406 273.707031 416.375 274.375 C 416.308594 275.042969 416.226562 275.703125 416.128906 276.351562 C 416.03125 277.003906 415.914062 277.644531 415.785156 278.273438 C 415.65625 278.902344 415.507812 279.519531 415.347656 280.117188 C 415.1875 280.71875 415.015625 281.304688 414.824219 281.867188 C 414.636719 282.433594 414.433594 282.980469 414.21875 283.507812 C 414 284.035156 413.773438 284.539062 413.53125 285.019531 C 413.292969 285.5 413.039062 285.957031 412.777344 286.390625 C 412.511719 286.824219 412.238281 287.226562 411.957031 287.605469 C 411.675781 287.984375 411.382812 288.335938 411.082031 288.65625 C 410.78125 288.976562 410.472656 289.265625 410.160156 289.527344 C 409.84375 289.789062 409.523438 290.015625 409.199219 290.214844 C 408.875 290.414062 408.542969 290.578125 408.210938 290.710938 C 407.875 290.84375 407.539062 290.945312 407.199219 291.011719 C 406.863281 291.078125 406.523438 291.109375 406.183594 291.109375 C 405.84375 291.109375 405.503906 291.078125 405.164062 291.011719 C 404.824219 290.945312 404.488281 290.84375 404.15625 290.710938 C 403.820312 290.578125 403.492188 290.414062 403.164062 290.214844 C 402.839844 290.015625 402.519531 289.789062 402.203125 289.527344 C 401.890625 289.265625 401.582031 288.976562 401.28125 288.65625 C 400.980469 288.335938 400.691406 287.984375 400.40625 287.605469 C 400.125 287.226562 399.851562 286.824219 399.589844 286.390625 C 399.324219 285.957031 399.074219 285.5 398.832031 285.019531 C 398.589844 284.539062 398.363281 284.035156 398.148438 283.507812 C 397.929688 282.980469 397.730469 282.433594 397.539062 281.867188 C 397.351562 281.304688 397.175781 280.71875 397.015625 280.117188 C 396.855469 279.519531 396.710938 278.902344 396.578125 278.273438 C 396.449219 277.644531 396.335938 277.003906 396.234375 276.351562 C 396.136719 275.703125 396.054688 275.042969 395.988281 274.375 C 395.921875 273.707031 395.871094 273.03125 395.839844 272.355469 C 395.804688 271.675781 395.789062 270.996094 395.789062 270.316406 C 395.789062 269.636719 395.804688 268.957031 395.839844 268.277344 C 395.871094 267.601562 395.921875 266.929688 395.988281 266.261719 C 396.054688 265.59375 396.136719 264.933594 396.234375 264.28125 C 396.335938 263.628906 396.449219 262.988281 396.578125 262.359375 C 396.710938 261.730469 396.855469 261.117188 397.015625 260.515625 C 397.175781 259.914062 397.351562 259.332031 397.539062 258.765625 C 397.730469 258.199219 397.929688 257.652344 398.148438 257.125 C 398.363281 256.597656 398.589844 256.09375 398.832031 255.613281 C 399.074219 255.132812 399.324219 254.675781 399.589844 254.242188 C 399.851562 253.8125 400.125 253.40625 400.40625 253.027344 C 400.691406 252.648438 400.980469 252.300781 401.28125 251.976562 C 401.582031 251.65625 401.890625 251.367188 402.203125 251.105469 C 402.519531 250.84375 402.839844 250.617188 403.164062 250.417969 C 403.492188 250.222656 403.820312 250.054688 404.15625 249.921875 C 404.488281 249.789062 404.824219 249.691406 405.164062 249.625 C 405.503906 249.554688 405.84375 249.523438 406.183594 249.523438 C 406.523438 249.523438 406.863281 249.554688 407.199219 249.625 C 407.539062 249.691406 407.875 249.789062 408.210938 249.921875 C 408.542969 250.054688 408.875 250.222656 409.199219 250.417969 C 409.523438 250.617188 409.84375 250.84375 410.160156 251.105469 C 410.472656 251.367188 410.78125 251.65625 411.082031 251.976562 C 411.382812 252.300781 411.675781 252.648438 411.957031 253.027344 C 412.238281 253.40625 412.511719 253.8125 412.777344 254.242188 C 413.039062 254.675781 413.292969 255.132812 413.53125 255.613281 C 413.773438 256.09375 414 256.597656 414.21875 257.125 C 414.433594 257.652344 414.636719 258.199219 414.824219 258.765625 C 415.015625 259.332031 415.1875 259.914062 415.347656 260.515625 C 415.507812 261.117188 415.65625 261.730469 415.785156 262.359375 C 415.914062 262.988281 416.03125 263.628906 416.128906 264.28125 C 416.226562 264.933594 416.308594 265.59375 416.375 266.261719 C 416.441406 266.929688 416.492188 267.601562 416.527344 268.277344 C 416.558594 268.957031 416.578125 269.636719 416.578125 270.316406 Z M 416.578125 270.316406 " fill-opacity="1" fill-rule="nonzero"/><path fill="#ffcc4d" d="M 360.28125 253.433594 C 360.28125 259.421875 353.109375 264.265625 344.253906 264.265625 C 335.417969 264.265625 328.226562 259.421875 328.226562 253.433594 C 328.226562 247.445312 335.398438 242.597656 344.253906 242.597656 C 353.089844 242.597656 360.28125 247.445312 360.28125 253.433594 Z M 335.605469 157.21875 C 336.644531 161.628906 330.886719 166.785156 322.738281 168.71875 C 314.589844 170.652344 307.148438 168.636719 306.085938 164.226562 C 305.046875 159.796875 310.804688 154.640625 318.933594 152.707031 C 327.105469 150.796875 334.566406 152.792969 335.605469 157.21875 Z M 335.605469 157.21875 " fill-opacity="1" fill-rule="nonzero"/><path fill="#c1694f" d="M 469.234375 269.382812 C 471.105469 270.835938 474.285156 254.222656 473.804688 249.046875 C 473.804688 248.691406 473.203125 237.691406 475.53125 229.832031 C 476.964844 227.171875 477.050781 207.3125 474.84375 202.09375 C 476.59375 201.949219 478.691406 201.386719 478.941406 199.265625 C 470.875 202.238281 468.984375 182.277344 461.230469 170.796875 C 453.703125 159.300781 444.371094 152.605469 434.621094 145.617188 C 435.347656 143.664062 436.511719 141.832031 437.988281 140.003906 C 426.035156 145.992188 407.410156 124.304688 379.886719 125.925781 C 373.710938 126.527344 370.78125 126.902344 369.199219 130.6875 C 364.066406 131.105469 358.847656 132.269531 358.847656 139.027344 C 358.847656 140.648438 360.324219 143.601562 363.609375 143.621094 C 368.097656 144.929688 371.757812 143.914062 374.8125 150.191406 L 375.625 156.679688 C 375.625 156.679688 371.613281 151.542969 369.40625 150.734375 L 370.757812 147.96875 C 368.679688 146.761719 365 147.738281 365 147.738281 C 365 147.738281 356.996094 143.996094 350.574219 144.992188 L 349.328125 139.796875 C 348.203125 142.996094 345.6875 142.832031 345.335938 145.847656 C 344.628906 143.683594 343.691406 141 343.027344 138.839844 C 340.761719 141.917969 341.425781 145.242188 340.617188 148.445312 C 339.742188 149.195312 337.957031 149.214844 337.5 147.15625 C 337.269531 144.621094 336.957031 144.390625 336.957031 141.375 C 335.335938 144.222656 333.382812 145.617188 332.738281 150.503906 L 331.011719 145.097656 C 331.074219 151.480469 325.585938 155.285156 320.390625 159.796875 C 318.914062 162.503906 320.617188 162.523438 320.742188 163.914062 L 323.488281 165.289062 L 328.414062 164.933594 C 329.222656 165.953125 328.558594 166.035156 330.699219 166.679688 C 336.4375 168.28125 343.589844 161.398438 349.203125 172.234375 C 346.625 174.394531 344.027344 179.449219 344.855469 180.40625 C 345.898438 180.40625 342.777344 181.859375 346.976562 180.53125 C 342.613281 184.773438 339.660156 190.367188 339.660156 190.699219 C 339.160156 191.902344 341.40625 190.53125 340.949219 192.714844 L 341.988281 192.589844 C 332.03125 203.363281 341.65625 214.945312 340.59375 221.160156 C 342.257812 223.84375 342.464844 221.097656 344.546875 220.828125 C 346.292969 228.480469 351.324219 233.117188 354.398438 239.167969 L 347.914062 239.230469 C 348.058594 242.101562 350.65625 244.824219 352.714844 247.339844 L 348.371094 248.710938 C 345.273438 250.292969 343.234375 251.976562 341.054688 254.410156 C 339.617188 257.902344 347.976562 258.734375 352.007812 259.359375 L 351.863281 263.578125 C 358.160156 264.183594 365.4375 262.3125 365.4375 261.957031 L 367.015625 260.730469 L 370.570312 262.683594 C 371.757812 262.683594 373.605469 257.945312 372.753906 254.304688 C 375.042969 257.03125 377.203125 261.417969 379.492188 264.160156 L 381.632812 263.871094 C 383.585938 266.96875 386.265625 270.046875 388.222656 273.144531 L 390.402344 273.976562 C 391.671875 273.539062 392.753906 273.394531 393.4375 270.898438 L 394.4375 272.644531 L 397.886719 270.273438 L 400.300781 269.796875 L 402.109375 272.75 C 403.167969 272.355469 404.207031 270.046875 404.269531 267.59375 C 405.351562 269.734375 405.640625 269.566406 406.433594 270.128906 L 408.03125 266.761719 L 416.660156 274.828125 L 423.1875 275.203125 C 425.515625 276.785156 431.898438 277.78125 432.976562 275.222656 C 438.21875 277.46875 444.390625 274.933594 444.078125 272.4375 C 448.902344 274.351562 456.324219 273.0625 456.324219 272.75 C 457.21875 272.644531 459.503906 270.398438 457.34375 268.714844 C 441.398438 257.613281 417.761719 239.230469 408.636719 234.800781 C 408.636719 231.515625 406.160156 219.683594 403.5 216.441406 L 405.664062 212.824219 C 411.878906 218.625 414.125 218.0625 417.429688 218.976562 C 420.960938 221.785156 422.1875 226.046875 425.722656 229.9375 L 428.882812 230.519531 C 426.699219 224.964844 423.976562 219.582031 417.367188 212.363281 C 420.777344 214.070312 426.429688 218.625 430.214844 221.929688 C 432.707031 226.109375 433.4375 229.4375 435.722656 234.675781 C 437.386719 235.738281 439.089844 239.625 438.863281 236.402344 C 438.464844 230.351562 434.203125 220.765625 434.203125 220.078125 C 440.980469 225.445312 440.898438 233.804688 442.957031 238.898438 C 444.683594 241.476562 445.554688 244.929688 446.304688 244.117188 L 444.308594 228.398438 L 443.144531 222.636719 C 448.152344 225.527344 449.941406 236.546875 452.289062 249.773438 C 452.289062 251.871094 453.144531 254.179688 453.019531 255.53125 C 454.097656 256.863281 455.324219 260.542969 455.304688 258.359375 C 455.304688 258.359375 455.304688 236.859375 453.828125 231.933594 C 453.453125 229.289062 454.453125 225.007812 454.453125 225.007812 C 456.28125 233.929688 458.234375 243.597656 460.085938 252.496094 L 460.085938 259.046875 L 462.832031 261.8125 C 463.351562 256.40625 463.972656 251.042969 464.515625 245.675781 L 462.457031 226.441406 L 462.457031 220.953125 C 462.414062 219.019531 464.222656 219.371094 465.367188 221.578125 C 465.636719 226.296875 465.636719 229.976562 465.824219 234.675781 C 466.632812 240.042969 467.195312 243.972656 467.589844 250.8125 C 467.820312 256.34375 468.070312 269.609375 469.234375 269.382812 Z M 469.234375 269.382812 " fill-opacity="1" fill-rule="nonzero"/></svg>