<svg xmlns="http://www.w3.org/2000/svg" xmlns:xlink="http://www.w3.org/1999/xlink" width="1000" zoomAndPan="magnify" viewBox="0 0 750 549.12" height="722" preserveAspectRatio="xMidYMid meet" version="1.0"><defs><clipPath id="65e2fb4109"><path d="M 0.601562 0 L 749.398438 0 L 749.398438 540.632812 L 0.601562 540.632812 Z M 0.601562 0 " clip-rule="nonzero"/></clipPath><clipPath id="dc7a33164e"><path d="M 0.601562 166 L 749.398438 166 L 749.398438 375 L 0.601562 375 Z M 0.601562 166 " clip-rule="nonzero"/></clipPath></defs><g clip-path="url(#65e2fb4109)"><path fill="#ffffff" d="M 0.601562 0 L 749.398438 0 L 749.398438 540.632812 L 0.601562 540.632812 Z M 0.601562 0 " fill-opacity="1" fill-rule="nonzero"/><path fill="#ffffff" d="M 0.601562 0 L 749.398438 0 L 749.398438 540.632812 L 0.601562 540.632812 Z M 0.601562 0 " fill-opacity="1" fill-rule="nonzero"/><path fill="#265fb5" d="M 749.191406 457.460938 C 749.191406 503.390625 711.960938 540.632812 666.039062 540.632812 L 83.960938 540.632812 C 38.039062 540.632812 0.808594 503.390625 0.808594 457.460938 L 0.808594 83.175781 C 0.808594 37.242188 38.039062 0 83.960938 0 L 666.039062 0 C 711.960938 0 749.191406 37.242188 749.191406 83.175781 Z M 749.191406 457.460938 " fill-opacity="1" fill-rule="nonzero"/></g><g clip-path="url(#dc7a33164e)"><path fill="#eeeeee" d="M 0.808594 166.347656 L 749.191406 166.347656 L 749.191406 374.285156 L 0.808594 374.285156 Z M 0.808594 166.347656 " fill-opacity="1" fill-rule="nonzero"/></g><path fill="#a9bf4c" d="M 469.734375 270.316406 C 469.734375 322.652344 427.324219 365.074219 375 365.074219 C 322.675781 365.074219 280.265625 322.652344 280.265625 270.316406 C 280.265625 217.980469 322.695312 175.558594 375 175.558594 C 427.304688 175.558594 469.734375 217.980469 469.734375 270.316406 Z M 469.734375 270.316406 " fill-opacity="1" fill-rule="nonzero"/><path fill="#eeeeee" d="M 458.152344 270.316406 C 458.152344 271.679688 458.121094 273.039062 458.054688 274.398438 C 457.988281 275.757812 457.886719 277.113281 457.753906 278.46875 C 457.621094 279.824219 457.453125 281.175781 457.253906 282.519531 C 457.054688 283.867188 456.820312 285.207031 456.554688 286.542969 C 456.289062 287.878906 455.992188 289.207031 455.660156 290.527344 C 455.332031 291.847656 454.96875 293.160156 454.574219 294.460938 C 454.179688 295.761719 453.75 297.054688 453.292969 298.335938 C 452.835938 299.617188 452.34375 300.886719 451.824219 302.144531 C 451.304688 303.402344 450.75 304.648438 450.167969 305.878906 C 449.589844 307.109375 448.976562 308.324219 448.335938 309.523438 C 447.695312 310.726562 447.023438 311.910156 446.324219 313.078125 C 445.625 314.246094 444.894531 315.394531 444.140625 316.527344 C 443.382812 317.65625 442.601562 318.769531 441.789062 319.863281 C 440.980469 320.957031 440.140625 322.03125 439.277344 323.082031 C 438.414062 324.132812 437.527344 325.164062 436.613281 326.171875 C 435.699219 327.183594 434.761719 328.167969 433.796875 329.128906 C 432.835938 330.09375 431.851562 331.03125 430.84375 331.945312 C 429.835938 332.859375 428.804688 333.746094 427.753906 334.613281 C 426.699219 335.476562 425.628906 336.3125 424.535156 337.125 C 423.441406 337.933594 422.328125 338.71875 421.199219 339.472656 C 420.066406 340.230469 418.917969 340.957031 417.75 341.65625 C 416.582031 342.359375 415.398438 343.027344 414.199219 343.671875 C 413 344.3125 411.78125 344.921875 410.550781 345.503906 C 409.324219 346.085938 408.078125 346.640625 406.820312 347.160156 C 405.5625 347.679688 404.292969 348.171875 403.011719 348.628906 C 401.730469 349.085938 400.441406 349.515625 399.136719 349.910156 C 397.835938 350.304688 396.523438 350.667969 395.203125 351 C 393.882812 351.328125 392.558594 351.628906 391.222656 351.894531 C 389.886719 352.160156 388.546875 352.390625 387.199219 352.589844 C 385.855469 352.789062 384.503906 352.957031 383.152344 353.089844 C 381.796875 353.222656 380.4375 353.324219 379.082031 353.390625 C 377.722656 353.457031 376.359375 353.492188 375 353.492188 C 373.640625 353.492188 372.277344 353.457031 370.917969 353.390625 C 369.5625 353.324219 368.203125 353.222656 366.847656 353.089844 C 365.496094 352.957031 364.144531 352.789062 362.796875 352.589844 C 361.453125 352.390625 360.113281 352.160156 358.777344 351.894531 C 357.441406 351.628906 356.117188 351.328125 354.796875 351 C 353.476562 350.667969 352.164062 350.304688 350.863281 349.910156 C 349.558594 349.515625 348.269531 349.085938 346.988281 348.628906 C 345.703125 348.171875 344.4375 347.679688 343.179688 347.160156 C 341.921875 346.640625 340.675781 346.085938 339.445312 345.503906 C 338.21875 344.921875 337 344.3125 335.800781 343.671875 C 334.601562 343.027344 333.417969 342.359375 332.25 341.65625 C 331.082031 340.957031 329.933594 340.230469 328.800781 339.472656 C 327.671875 338.71875 326.558594 337.933594 325.464844 337.121094 C 324.371094 336.3125 323.300781 335.476562 322.246094 334.613281 C 321.195312 333.746094 320.164062 332.859375 319.15625 331.945312 C 318.148438 331.03125 317.164062 330.09375 316.203125 329.128906 C 315.238281 328.167969 314.300781 327.183594 313.386719 326.171875 C 312.472656 325.164062 311.585938 324.132812 310.722656 323.082031 C 309.859375 322.03125 309.019531 320.957031 308.210938 319.863281 C 307.398438 318.769531 306.617188 317.65625 305.859375 316.527344 C 305.105469 315.394531 304.375 314.246094 303.675781 313.078125 C 302.976562 311.910156 302.304688 310.726562 301.664062 309.523438 C 301.023438 308.324219 300.410156 307.109375 299.828125 305.878906 C 299.25 304.648438 298.695312 303.402344 298.175781 302.144531 C 297.65625 300.886719 297.164062 299.617188 296.707031 298.335938 C 296.25 297.054688 295.820312 295.761719 295.425781 294.460938 C 295.03125 293.160156 294.667969 291.847656 294.339844 290.527344 C 294.007812 289.207031 293.710938 287.878906 293.445312 286.542969 C 293.179688 285.207031 292.945312 283.867188 292.746094 282.519531 C 292.546875 281.175781 292.378906 279.824219 292.246094 278.46875 C 292.113281 277.113281 292.011719 275.757812 291.945312 274.398438 C 291.878906 273.039062 291.847656 271.679688 291.847656 270.316406 C 291.847656 268.957031 291.878906 267.59375 291.945312 266.234375 C 292.011719 264.875 292.113281 263.519531 292.246094 262.164062 C 292.378906 260.808594 292.546875 259.460938 292.746094 258.113281 C 292.945312 256.765625 293.179688 255.425781 293.445312 254.089844 C 293.710938 252.753906 294.007812 251.425781 294.339844 250.105469 C 294.667969 248.785156 295.03125 247.476562 295.425781 246.171875 C 295.820312 244.871094 296.25 243.578125 296.707031 242.296875 C 297.164062 241.015625 297.65625 239.746094 298.175781 238.488281 C 298.695312 237.230469 299.25 235.984375 299.828125 234.753906 C 300.410156 233.523438 301.023438 232.308594 301.664062 231.109375 C 302.304688 229.90625 302.976562 228.722656 303.675781 227.554688 C 304.375 226.390625 305.105469 225.238281 305.859375 224.109375 C 306.617188 222.976562 307.398438 221.863281 308.210938 220.769531 C 309.019531 219.675781 309.859375 218.605469 310.722656 217.550781 C 311.585938 216.5 312.472656 215.46875 313.386719 214.460938 C 314.300781 213.453125 315.238281 212.464844 316.203125 211.503906 C 317.164062 210.542969 318.148438 209.601562 319.15625 208.6875 C 320.164062 207.773438 321.195312 206.886719 322.246094 206.023438 C 323.300781 205.160156 324.371094 204.320312 325.464844 203.511719 C 326.558594 202.699219 327.671875 201.914062 328.800781 201.160156 C 329.933594 200.402344 331.082031 199.675781 332.25 198.976562 C 333.417969 198.277344 334.601562 197.605469 335.800781 196.964844 C 337 196.320312 338.21875 195.710938 339.445312 195.128906 C 340.675781 194.546875 341.921875 193.996094 343.179688 193.472656 C 344.4375 192.953125 345.703125 192.464844 346.988281 192.003906 C 348.269531 191.546875 349.558594 191.117188 350.863281 190.722656 C 352.164062 190.328125 353.476562 189.964844 354.796875 189.636719 C 356.117188 189.304688 357.441406 189.007812 358.777344 188.742188 C 360.113281 188.476562 361.453125 188.242188 362.796875 188.042969 C 364.144531 187.84375 365.496094 187.675781 366.847656 187.542969 C 368.203125 187.410156 369.5625 187.308594 370.917969 187.242188 C 372.277344 187.175781 373.640625 187.140625 375 187.140625 C 376.359375 187.140625 377.722656 187.175781 379.082031 187.242188 C 380.4375 187.308594 381.796875 187.410156 383.152344 187.542969 C 384.503906 187.675781 385.855469 187.84375 387.203125 188.042969 C 388.546875 188.242188 389.886719 188.476562 391.222656 188.742188 C 392.558594 189.007812 393.882812 189.304688 395.203125 189.636719 C 396.523438 189.964844 397.835938 190.328125 399.136719 190.722656 C 400.441406 191.117188 401.730469 191.546875 403.011719 192.003906 C 404.292969 192.464844 405.5625 192.953125 406.820312 193.472656 C 408.078125 193.996094 409.324219 194.546875 410.550781 195.128906 C 411.78125 195.710938 413 196.320312 414.199219 196.964844 C 415.398438 197.605469 416.582031 198.277344 417.75 198.976562 C 418.917969 199.675781 420.066406 200.402344 421.199219 201.160156 C 422.328125 201.914062 423.441406 202.699219 424.535156 203.511719 C 425.628906 204.320312 426.699219 205.160156 427.753906 206.023438 C 428.804688 206.886719 429.835938 207.773438 430.84375 208.6875 C 431.851562 209.601562 432.835938 210.542969 433.796875 211.503906 C 434.761719 212.464844 435.699219 213.453125 436.613281 214.460938 C 437.527344 215.46875 438.414062 216.5 439.277344 217.550781 C 440.140625 218.605469 440.980469 219.675781 441.789062 220.769531 C 442.601562 221.863281 443.382812 222.976562 444.140625 224.109375 C 444.894531 225.238281 445.625 226.390625 446.324219 227.554688 C 447.023438 228.722656 447.695312 229.90625 448.335938 231.109375 C 448.976562 232.308594 449.589844 233.523438 450.167969 234.753906 C 450.75 235.984375 451.304688 237.230469 451.824219 238.488281 C 452.34375 239.746094 452.835938 241.015625 453.292969 242.296875 C 453.75 243.578125 454.179688 244.871094 454.574219 246.171875 C 454.96875 247.476562 455.332031 248.785156 455.660156 250.105469 C 455.992188 251.425781 456.289062 252.753906 456.554688 254.089844 C 456.820312 255.425781 457.054688 256.765625 457.253906 258.113281 C 457.453125 259.460938 457.621094 260.808594 457.753906 262.164062 C 457.886719 263.519531 457.988281 264.875 458.054688 266.234375 C 458.121094 267.59375 458.152344 268.957031 458.152344 270.316406 Z M 458.152344 270.316406 " fill-opacity="1" fill-rule="nonzero"/><path fill="#265fb5" d="M 307.605469 315.128906 L 374.707031 198.871094 L 441.8125 315.128906 Z M 307.605469 315.128906 " fill-opacity="1" fill-rule="nonzero"/><path fill="#55acee" d="M 315.046875 310.613281 L 374.707031 207.292969 L 434.351562 310.613281 Z M 315.046875 310.613281 " fill-opacity="1" fill-rule="nonzero"/><path fill="#bbddf5" d="M 315.046875 310.613281 L 329.453125 285.683594 L 419.300781 284.558594 L 434.351562 310.613281 Z M 315.046875 310.613281 " fill-opacity="1" fill-rule="nonzero"/><path fill="#5c913b" d="M 326.605469 294.355469 L 349.015625 276.160156 L 358.765625 287.203125 L 367.203125 278.09375 L 374.355469 285.246094 L 381.175781 277.78125 L 389.300781 285.246094 L 396.765625 277.449219 L 403.585938 285.246094 L 410.070312 278.09375 L 420.796875 291.421875 L 422.75 295.332031 C 422.75 295.332031 411.378906 297.597656 395.789062 296.308594 C 380.195312 295.019531 371.089844 298.574219 358.765625 300.21875 C 346.414062 301.839844 324.339844 298.597656 324.339844 298.597656 Z M 326.605469 294.355469 " fill-opacity="1" fill-rule="nonzero"/><path fill="#e2f09f" d="M 348.683594 280.070312 L 363.628906 296.308594 L 356.164062 296.953125 L 347.726562 284.621094 Z M 366.558594 281.359375 L 378.574219 292.085938 L 373.046875 293.066406 L 367.203125 284.933594 Z M 381.820312 280.714844 L 392.210938 290.464844 L 389.613281 292.085938 L 381.175781 282.980469 Z M 395.457031 280.714844 L 391.234375 284.621094 L 393.191406 286.890625 Z M 408.449219 281.046875 L 403.585938 287.203125 L 405.207031 290.132812 L 408.78125 283.3125 Z M 408.449219 281.046875 " fill-opacity="1" fill-rule="nonzero"/><path fill="#bbddf5" d="M 375.644531 237.671875 L 377.039062 256.988281 L 388.074219 241.121094 L 379.78125 258.382812 L 397.035156 250.085938 L 381.175781 261.148438 L 400.507812 262.519531 L 381.175781 263.890625 L 397.035156 274.953125 L 379.78125 266.65625 L 388.074219 283.914062 L 377.039062 268.050781 L 375.644531 287.367188 L 374.273438 268.050781 L 363.234375 283.914062 L 371.507812 266.65625 L 354.253906 274.953125 L 370.136719 263.890625 L 350.800781 262.519531 L 370.136719 261.148438 L 354.253906 250.085938 L 371.507812 258.382812 L 363.234375 241.121094 L 374.273438 256.988281 Z M 375.644531 237.671875 " fill-opacity="1" fill-rule="nonzero"/><path fill="#dd2e44" d="M 375 253.746094 L 371.089844 257.652344 C 371.089844 257.652344 372.070312 263.496094 371.734375 264.472656 C 371.425781 265.449219 375 270.316406 375 270.316406 L 379.863281 264.472656 L 378.574219 256.675781 Z M 375 253.746094 " fill-opacity="1" fill-rule="nonzero"/><path fill="#226699" d="M 376.953125 246.925781 C 392.878906 246.925781 401.960938 254.722656 401.960938 254.722656 L 396.121094 244.324219 C 396.121094 244.324219 386.703125 237.171875 375.664062 237.171875 C 364.625 237.171875 352.277344 245.945312 352.277344 245.945312 L 346.75 256.988281 C 346.75 256.988281 361.03125 246.925781 376.953125 246.925781 Z M 376.953125 246.925781 " fill-opacity="1" fill-rule="nonzero"/><path fill="#ffcc4d" d="M 376.953125 246.925781 C 392.878906 246.925781 401.960938 254.722656 401.960938 254.722656 L 397.742188 247.257812 C 397.742188 247.257812 386.371094 240.4375 375.332031 240.4375 C 364.292969 240.4375 350.636719 249.210938 350.636719 249.210938 L 346.726562 257.007812 C 346.75 256.988281 361.03125 246.925781 376.953125 246.925781 Z M 376.953125 246.925781 " fill-opacity="1" fill-rule="nonzero"/><path fill="#dd2e44" d="M 376.953125 246.925781 C 392.878906 246.925781 401.960938 254.722656 401.960938 254.722656 L 399.03125 249.855469 C 399.03125 249.855469 390.257812 243.679688 375.3125 244.324219 C 364.273438 244.324219 348.992188 252.457031 348.992188 252.457031 L 346.726562 257.007812 C 346.75 256.988281 361.03125 246.925781 376.953125 246.925781 Z M 376.953125 246.925781 " fill-opacity="1" fill-rule="nonzero"/><path fill="#eeeeee" d="M 366.414062 348.230469 L 387.121094 348.230469 L 387.121094 368.089844 L 366.414062 368.089844 Z M 363.109375 194.253906 L 348.222656 194.253906 L 340.78125 176.058594 L 355.667969 174.394531 Z M 397.035156 202.53125 L 387.121094 199.222656 L 392.089844 175.207031 L 411.109375 176.871094 Z M 307.667969 304.355469 L 278.707031 310.96875 L 277.875 291.109375 L 306.835938 286.972656 Z M 315.128906 325.046875 L 291.117188 334.984375 L 285.320312 319.265625 L 307.667969 311.800781 Z M 474.847656 306.851562 L 448.363281 299.386719 L 448.363281 285.328125 L 478.152344 281.171875 Z M 461.605469 334.152344 L 436.78125 322.570312 L 445.035156 307.664062 L 472.371094 315.9375 Z M 461.605469 334.152344 " fill-opacity="1" fill-rule="nonzero"/></svg>