<svg xmlns="http://www.w3.org/2000/svg" xmlns:xlink="http://www.w3.org/1999/xlink" width="1000" zoomAndPan="magnify" viewBox="0 0 750 549.12" height="722" preserveAspectRatio="xMidYMid meet" version="1.0"><defs><clipPath id="6a0409270a"><path d="M 0.601562 0 L 749.398438 0 L 749.398438 540.632812 L 0.601562 540.632812 Z M 0.601562 0 " clip-rule="nonzero"/></clipPath><clipPath id="3b872a9f1d"><path d="M 0.601562 270 L 375 270 L 375 540.632812 L 0.601562 540.632812 Z M 0.601562 270 " clip-rule="nonzero"/></clipPath><clipPath id="a3f7f59851"><path d="M 375 0 L 749.398438 0 L 749.398438 271 L 375 271 Z M 375 0 " clip-rule="nonzero"/></clipPath></defs><g clip-path="url(#6a0409270a)"><path fill="#ffffff" d="M 0.601562 0 L 749.398438 0 L 749.398438 540.632812 L 0.601562 540.632812 Z M 0.601562 0 " fill-opacity="1" fill-rule="nonzero"/><path fill="#ffffff" d="M 0.601562 0 L 749.398438 0 L 749.398438 540.632812 L 0.601562 540.632812 Z M 0.601562 0 " fill-opacity="1" fill-rule="nonzero"/><path fill="#eeeeee" d="M 375 270.316406 L 375 0 L 83.964844 0 C 38.042969 0 0.8125 37.242188 0.8125 83.175781 L 0.8125 270.316406 Z M 375 270.316406 L 375 540.632812 L 666.035156 540.632812 C 711.957031 540.632812 749.1875 503.390625 749.1875 457.460938 L 749.1875 270.316406 Z M 375 270.316406 " fill-opacity="1" fill-rule="nonzero"/></g><g clip-path="url(#3b872a9f1d)"><path fill="#005293" d="M 375 270.316406 L 375 540.632812 L 83.964844 540.632812 C 38.042969 540.632812 0.8125 503.390625 0.8125 457.460938 L 0.8125 270.316406 Z M 375 270.316406 " fill-opacity="1" fill-rule="nonzero"/></g><g clip-path="url(#a3f7f59851)"><path fill="#d21034" d="M 375 270.316406 L 375 0 L 666.035156 0 C 711.957031 0 749.1875 37.242188 749.1875 83.175781 L 749.1875 270.316406 Z M 375 270.316406 " fill-opacity="1" fill-rule="nonzero"/></g><path fill="#005293" d="M 201.917969 115.882812 L 187.90625 72.777344 L 173.894531 115.882812 L 128.597656 115.882812 L 165.246094 142.519531 L 151.257812 185.625 L 187.90625 158.988281 L 224.554688 185.625 L 210.566406 142.519531 L 247.214844 115.882812 Z M 201.917969 115.882812 " fill-opacity="1" fill-rule="nonzero"/><path fill="#d21034" d="M 539.433594 412.835938 L 525.445312 455.941406 L 562.09375 429.304688 L 598.742188 455.941406 L 584.753906 412.835938 L 621.402344 386.199219 L 576.105469 386.199219 L 562.09375 343.09375 L 548.082031 386.199219 L 502.785156 386.199219 Z M 539.433594 412.835938 " fill-opacity="1" fill-rule="nonzero"/></svg>