<svg xmlns="http://www.w3.org/2000/svg" xmlns:xlink="http://www.w3.org/1999/xlink" width="1000" zoomAndPan="magnify" viewBox="0 0 750 549.12" height="722" preserveAspectRatio="xMidYMid meet" version="1.0"><defs><clipPath id="bdcc25d911"><path d="M 0.601562 0 L 749.398438 0 L 749.398438 540.632812 L 0.601562 540.632812 Z M 0.601562 0 " clip-rule="nonzero"/></clipPath><clipPath id="f69b4afac6"><path d="M 29 0 L 749.398438 0 L 749.398438 104 L 29 104 Z M 29 0 " clip-rule="nonzero"/></clipPath><clipPath id="12bda285f7"><path d="M 144 103 L 749.398438 103 L 749.398438 208 L 144 208 Z M 144 103 " clip-rule="nonzero"/></clipPath><clipPath id="7db7afa10e"><path d="M 288 207 L 749.398438 207 L 749.398438 333 L 288 333 Z M 288 207 " clip-rule="nonzero"/></clipPath><clipPath id="7d16049eda"><path d="M 144 332 L 749.398438 332 L 749.398438 437 L 144 437 Z M 144 332 " clip-rule="nonzero"/></clipPath><clipPath id="6578e833f3"><path d="M 29 436 L 749.398438 436 L 749.398438 540.632812 L 29 540.632812 Z M 29 436 " clip-rule="nonzero"/></clipPath><clipPath id="cb9b170228"><path d="M 0.601562 20 L 375 20 L 375 521 L 0.601562 521 Z M 0.601562 20 " clip-rule="nonzero"/></clipPath></defs><g clip-path="url(#bdcc25d911)"><path fill="#ffffff" d="M 0.601562 0 L 749.398438 0 L 749.398438 540.632812 L 0.601562 540.632812 Z M 0.601562 0 " fill-opacity="1" fill-rule="nonzero"/><path fill="#ffffff" d="M 0.601562 0 L 749.398438 0 L 749.398438 540.632812 L 0.601562 540.632812 Z M 0.601562 0 " fill-opacity="1" fill-rule="nonzero"/></g><g clip-path="url(#f69b4afac6)"><path fill="#ea0b19" d="M 666.035156 0 L 83.964844 0 C 63.011719 0 43.925781 7.796875 29.3125 20.585938 L 144.730469 103.96875 L 749.1875 103.96875 L 749.1875 83.175781 C 749.1875 37.242188 711.957031 0 666.035156 0 Z M 666.035156 0 " fill-opacity="1" fill-rule="nonzero"/></g><g clip-path="url(#12bda285f7)"><path fill="#eeeeee" d="M 288.644531 207.9375 L 749.1875 207.9375 L 749.1875 103.96875 L 144.730469 103.96875 Z M 288.644531 207.9375 " fill-opacity="1" fill-rule="nonzero"/></g><g clip-path="url(#7db7afa10e)"><path fill="#ea0b19" d="M 375 270.316406 L 288.644531 332.699219 L 749.1875 332.699219 L 749.1875 207.9375 L 288.644531 207.9375 Z M 375 270.316406 " fill-opacity="1" fill-rule="nonzero"/></g><g clip-path="url(#7d16049eda)"><path fill="#eeeeee" d="M 144.730469 436.664062 L 749.1875 436.664062 L 749.1875 332.699219 L 288.644531 332.699219 Z M 144.730469 436.664062 " fill-opacity="1" fill-rule="nonzero"/></g><g clip-path="url(#6578e833f3)"><path fill="#ea0b19" d="M 29.3125 520.046875 C 43.925781 532.835938 63.011719 540.632812 83.964844 540.632812 L 666.035156 540.632812 C 711.957031 540.632812 749.1875 503.390625 749.1875 457.460938 L 749.1875 436.664062 L 144.730469 436.664062 Z M 29.3125 520.046875 " fill-opacity="1" fill-rule="nonzero"/></g><g clip-path="url(#cb9b170228)"><path fill="#0f55ec" d="M 288.644531 332.699219 L 375 270.316406 L 288.644531 207.9375 L 144.730469 103.96875 L 29.3125 20.585938 C 11.871094 35.847656 0.8125 58.203125 0.8125 83.175781 L 0.8125 457.460938 C 0.8125 482.433594 11.871094 504.785156 29.3125 520.046875 L 144.730469 436.664062 Z M 288.644531 332.699219 " fill-opacity="1" fill-rule="nonzero"/></g><path fill="#ffffff" d="M 171.003906 287.742188 L 219.089844 252.914062 L 159.65625 252.914062 L 141.195312 196.230469 L 122.695312 252.914062 L 63.175781 252.914062 L 111.300781 287.785156 L 92.800781 344.40625 L 141.132812 309.386719 L 189.464844 344.40625 Z M 171.003906 287.742188 " fill-opacity="1" fill-rule="nonzero"/></svg>