<svg xmlns="http://www.w3.org/2000/svg" xmlns:xlink="http://www.w3.org/1999/xlink" width="1000" zoomAndPan="magnify" viewBox="0 0 750 549.12" height="722" preserveAspectRatio="xMidYMid meet" version="1.0"><defs><clipPath id="0b1567c283"><path d="M 0.601562 0 L 749.398438 0 L 749.398438 540.632812 L 0.601562 540.632812 Z M 0.601562 0 " clip-rule="nonzero"/></clipPath><clipPath id="dbd2ed4dae"><path d="M 0.601562 374 L 749.398438 374 L 749.398438 540.632812 L 0.601562 540.632812 Z M 0.601562 374 " clip-rule="nonzero"/></clipPath><clipPath id="0f2d0550f1"><path d="M 0.601562 166 L 749.398438 166 L 749.398438 375 L 0.601562 375 Z M 0.601562 166 " clip-rule="nonzero"/></clipPath><clipPath id="fc893f0c90"><path d="M 0.601562 0 L 749.398438 0 L 749.398438 167 L 0.601562 167 Z M 0.601562 0 " clip-rule="nonzero"/></clipPath></defs><g clip-path="url(#0b1567c283)"><path fill="#ffffff" d="M 0.601562 0 L 749.398438 0 L 749.398438 540.632812 L 0.601562 540.632812 Z M 0.601562 0 " fill-opacity="1" fill-rule="nonzero"/><path fill="#ffffff" d="M 0.601562 0 L 749.398438 0 L 749.398438 540.632812 L 0.601562 540.632812 Z M 0.601562 0 " fill-opacity="1" fill-rule="nonzero"/></g><g clip-path="url(#dbd2ed4dae)"><path fill="#0038a8" d="M 0.8125 457.460938 C 0.8125 503.390625 38.042969 540.632812 83.964844 540.632812 L 666.035156 540.632812 C 711.957031 540.632812 749.1875 503.390625 749.1875 457.460938 L 749.1875 374.285156 L 0.8125 374.285156 Z M 0.8125 457.460938 " fill-opacity="1" fill-rule="nonzero"/></g><g clip-path="url(#0f2d0550f1)"><path fill="#eeeeee" d="M 0.8125 166.347656 L 749.1875 166.347656 L 749.1875 374.285156 L 0.8125 374.285156 Z M 0.8125 166.347656 " fill-opacity="1" fill-rule="nonzero"/></g><g clip-path="url(#fc893f0c90)"><path fill="#d52b1e" d="M 666.035156 0 L 83.964844 0 C 38.042969 0 0.8125 37.242188 0.8125 83.175781 L 0.8125 166.347656 L 749.1875 166.347656 L 749.1875 83.175781 C 749.1875 37.242188 711.957031 0 666.035156 0 Z M 666.035156 0 " fill-opacity="1" fill-rule="nonzero"/></g><path fill="#000000" d="M 458.152344 270.316406 C 458.152344 316.25 420.921875 353.492188 375 353.492188 C 329.078125 353.492188 291.847656 316.25 291.847656 270.316406 C 291.847656 224.382812 329.078125 187.140625 375 187.140625 C 420.921875 187.140625 458.152344 224.382812 458.152344 270.316406 Z M 458.152344 270.316406 " fill-opacity="1" fill-rule="nonzero"/><path fill="#eeeeee" d="M 452.957031 270.316406 C 452.957031 313.378906 418.03125 348.292969 375 348.292969 C 331.96875 348.292969 297.042969 313.359375 297.042969 270.316406 C 297.042969 227.273438 331.949219 192.339844 375 192.339844 C 418.050781 192.339844 452.957031 227.253906 452.957031 270.316406 Z M 452.957031 270.316406 " fill-opacity="1" fill-rule="nonzero"/><path fill="#000000" d="M 442.5625 270.316406 C 442.5625 307.640625 412.316406 337.894531 375 337.894531 C 337.683594 337.894531 307.4375 307.640625 307.4375 270.316406 C 307.4375 232.992188 337.683594 202.738281 375 202.738281 C 412.316406 202.738281 442.5625 232.992188 442.5625 270.316406 Z M 442.5625 270.316406 " fill-opacity="1" fill-rule="nonzero"/><path fill="#eeeeee" d="M 439.984375 270.316406 C 439.984375 306.207031 410.878906 335.316406 375 335.316406 C 339.121094 335.316406 310.058594 306.207031 310.058594 270.316406 C 310.058594 234.425781 339.140625 205.359375 375 205.359375 C 410.878906 205.359375 439.984375 234.449219 439.984375 270.316406 Z M 439.984375 270.316406 " fill-opacity="1" fill-rule="nonzero"/><path fill="#99aab5" d="M 440.109375 269.902344 C 440.109375 233.929688 410.964844 204.773438 375 204.773438 C 339.035156 204.773438 309.890625 233.929688 309.890625 269.902344 C 309.890625 281.816406 313.09375 293.003906 318.683594 302.609375 L 375.0625 271.605469 L 431.335938 302.609375 C 436.90625 292.980469 440.109375 281.816406 440.109375 269.902344 Z M 440.109375 269.902344 " fill-opacity="1" fill-rule="nonzero"/><path fill="#000000" d="M 426.96875 270.316406 C 426.96875 299.03125 403.707031 322.300781 375 322.300781 C 346.292969 322.300781 323.03125 299.03125 323.03125 270.316406 C 323.03125 241.601562 346.3125 218.332031 375 218.332031 C 403.6875 218.332031 426.96875 241.601562 426.96875 270.316406 Z M 426.96875 270.316406 " fill-opacity="1" fill-rule="nonzero"/><path fill="#eeeeee" d="M 424.890625 270.316406 C 424.890625 271.953125 424.8125 273.582031 424.652344 275.207031 C 424.492188 276.835938 424.25 278.449219 423.933594 280.050781 C 423.613281 281.65625 423.21875 283.238281 422.742188 284.804688 C 422.269531 286.367188 421.71875 287.90625 421.09375 289.414062 C 420.46875 290.925781 419.769531 292.398438 419 293.839844 C 418.230469 295.28125 417.390625 296.683594 416.484375 298.042969 C 415.574219 299.402344 414.601562 300.710938 413.566406 301.976562 C 412.53125 303.238281 411.433594 304.449219 410.277344 305.605469 C 409.125 306.761719 407.914062 307.855469 406.652344 308.894531 C 405.386719 309.929688 404.078125 310.902344 402.71875 311.8125 C 401.359375 312.71875 399.960938 313.558594 398.519531 314.328125 C 397.078125 315.097656 395.601562 315.796875 394.09375 316.421875 C 392.582031 317.046875 391.046875 317.597656 389.484375 318.074219 C 387.917969 318.546875 386.335938 318.945312 384.734375 319.261719 C 383.128906 319.582031 381.515625 319.820312 379.890625 319.980469 C 378.265625 320.140625 376.632812 320.222656 375 320.222656 C 373.367188 320.222656 371.734375 320.140625 370.109375 319.980469 C 368.484375 319.820312 366.871094 319.582031 365.265625 319.261719 C 363.664062 318.945312 362.082031 318.546875 360.515625 318.074219 C 358.953125 317.597656 357.417969 317.046875 355.90625 316.421875 C 354.398438 315.796875 352.921875 315.097656 351.480469 314.328125 C 350.039062 313.558594 348.640625 312.71875 347.28125 311.8125 C 345.921875 310.902344 344.613281 309.929688 343.347656 308.894531 C 342.085938 307.855469 340.875 306.761719 339.722656 305.605469 C 338.566406 304.449219 337.46875 303.238281 336.433594 301.976562 C 335.398438 300.710938 334.425781 299.402344 333.515625 298.042969 C 332.609375 296.683594 331.769531 295.28125 331 293.839844 C 330.230469 292.398438 329.53125 290.925781 328.90625 289.414062 C 328.28125 287.90625 327.730469 286.367188 327.257812 284.804688 C 326.78125 283.238281 326.386719 281.65625 326.066406 280.050781 C 325.75 278.449219 325.507812 276.835938 325.347656 275.207031 C 325.1875 273.582031 325.109375 271.953125 325.109375 270.316406 C 325.109375 268.683594 325.1875 267.050781 325.347656 265.425781 C 325.507812 263.796875 325.75 262.183594 326.066406 260.582031 C 326.386719 258.976562 326.78125 257.394531 327.257812 255.832031 C 327.730469 254.265625 328.28125 252.730469 328.90625 251.21875 C 329.53125 249.710938 330.230469 248.234375 331 246.792969 C 331.769531 245.351562 332.609375 243.949219 333.515625 242.589844 C 334.425781 241.230469 335.398438 239.921875 336.433594 238.65625 C 337.46875 237.394531 338.566406 236.183594 339.722656 235.027344 C 340.875 233.875 342.085938 232.777344 343.347656 231.738281 C 344.613281 230.703125 345.921875 229.730469 347.28125 228.824219 C 348.640625 227.914062 350.039062 227.074219 351.480469 226.304688 C 352.921875 225.535156 354.398438 224.835938 355.90625 224.210938 C 357.417969 223.585938 358.953125 223.035156 360.515625 222.5625 C 362.082031 222.085938 363.664062 221.691406 365.265625 221.371094 C 366.871094 221.050781 368.484375 220.8125 370.109375 220.652344 C 371.734375 220.492188 373.367188 220.414062 375 220.414062 C 376.632812 220.414062 378.265625 220.492188 379.890625 220.652344 C 381.515625 220.8125 383.128906 221.050781 384.734375 221.371094 C 386.335938 221.691406 387.917969 222.085938 389.484375 222.5625 C 391.046875 223.035156 392.582031 223.585938 394.09375 224.210938 C 395.601562 224.835938 397.078125 225.535156 398.519531 226.304688 C 399.960938 227.074219 401.359375 227.914062 402.71875 228.824219 C 404.078125 229.730469 405.386719 230.703125 406.652344 231.738281 C 407.914062 232.777344 409.125 233.875 410.277344 235.027344 C 411.433594 236.183594 412.53125 237.394531 413.566406 238.65625 C 414.601562 239.921875 415.574219 241.230469 416.484375 242.589844 C 417.390625 243.949219 418.230469 245.351562 419 246.792969 C 419.769531 248.234375 420.46875 249.710938 421.09375 251.21875 C 421.71875 252.730469 422.269531 254.265625 422.742188 255.832031 C 423.21875 257.394531 423.613281 258.976562 423.933594 260.582031 C 424.25 262.183594 424.492188 263.796875 424.652344 265.425781 C 424.8125 267.050781 424.890625 268.683594 424.890625 270.316406 Z M 424.890625 270.316406 " fill-opacity="1" fill-rule="nonzero"/><path fill="#ffac33" d="M 375 253.308594 L 378.824219 265.054688 L 391.171875 265.054688 L 381.175781 272.332031 L 384.976562 284.082031 L 375 276.824219 L 365.023438 284.082031 L 368.824219 272.332031 L 358.828125 265.054688 L 371.175781 265.054688 Z M 375 253.308594 " fill-opacity="1" fill-rule="nonzero"/><path fill="#007127" d="M 385.332031 239.480469 C 385.332031 239.480469 391.566406 238.023438 395.226562 237.648438 C 398.886719 237.277344 402.171875 245.71875 406.554688 247.171875 C 411.003906 248.671875 410.964844 253.039062 412.792969 258.171875 C 414.621094 263.308594 413.519531 264.390625 413.519531 270.253906 C 413.519531 276.117188 416.804688 279.050781 416.078125 283.4375 C 415.351562 287.824219 411.691406 288.925781 409.507812 291.859375 C 407.324219 294.8125 409.132812 298.449219 406.929688 300.65625 C 404.746094 302.839844 397.410156 302.484375 394.851562 304.6875 C 392.296875 306.871094 387.535156 310.179688 384.230469 308.347656 C 380.945312 306.519531 373.980469 305.789062 373.980469 305.789062 C 373.980469 305.789062 375.8125 299.199219 380.945312 296.996094 C 386.078125 294.8125 388.261719 295.164062 393.023438 293.710938 C 397.785156 292.234375 397.410156 290.027344 400.714844 287.117188 C 404 284.1875 404.375 280.152344 406.203125 277.21875 C 408.054688 274.289062 408.40625 272.085938 407.679688 268.050781 C 406.929688 264.015625 405.453125 259.628906 404 255.949219 C 402.542969 252.289062 399.238281 247.902344 397.035156 245.324219 C 394.851562 242.765625 385.332031 239.480469 385.332031 239.480469 Z M 385.332031 239.480469 " fill-opacity="1" fill-rule="nonzero"/><path fill="#007127" d="M 362.632812 241.664062 C 362.632812 241.664062 366.269531 233.699219 362.632812 233.242188 C 347.976562 231.410156 345.042969 244.59375 340.65625 246.050781 C 336.230469 247.546875 335.523438 254.847656 333.714844 259.960938 C 331.886719 265.097656 332.613281 266.179688 332.613281 272.0625 C 332.613281 277.925781 332.71875 279.007812 333.464844 283.417969 C 334.191406 287.804688 335.191406 291.109375 337.375 294.042969 C 339.578125 296.972656 340.410156 298.429688 342.613281 300.613281 C 344.792969 302.796875 349.097656 305.019531 351.65625 307.203125 C 354.210938 309.386719 362.007812 310.136719 365.3125 308.308594 C 368.597656 306.476562 374.355469 305.75 374.355469 305.75 C 374.355469 305.75 371.902344 301.339844 366.789062 299.15625 C 361.652344 296.972656 361.300781 295.144531 356.539062 293.667969 C 351.78125 292.191406 352.152344 289.988281 348.847656 287.078125 C 345.5625 284.144531 345.191406 280.109375 343.359375 277.179688 C 341.53125 274.246094 342.507812 273.519531 343.257812 269.484375 C 343.984375 265.449219 345.4375 262.164062 346.914062 258.507812 C 348.371094 254.847656 352.050781 250.085938 354.234375 247.527344 C 356.414062 244.96875 362.632812 241.664062 362.632812 241.664062 Z M 362.632812 241.664062 " fill-opacity="1" fill-rule="nonzero"/><path fill="#007127" d="M 363.003906 309.054688 L 367.765625 312.339844 L 373.980469 307.953125 L 379.84375 311.988281 L 387.535156 309.054688 L 379.84375 314.566406 L 374.355469 310.15625 L 368.492188 314.191406 L 362.632812 310.886719 Z M 363.003906 309.054688 " fill-opacity="1" fill-rule="nonzero"/></svg>