<svg xmlns="http://www.w3.org/2000/svg" xmlns:xlink="http://www.w3.org/1999/xlink" width="1000" zoomAndPan="magnify" viewBox="0 0 750 549.12" height="722" preserveAspectRatio="xMidYMid meet" version="1.0"><defs><clipPath id="ce1fd42b97"><path d="M 0.601562 0 L 749.398438 0 L 749.398438 540.632812 L 0.601562 540.632812 Z M 0.601562 0 " clip-rule="nonzero"/></clipPath><clipPath id="deb9df69b2"><path d="M 0.601562 166 L 749.398438 166 L 749.398438 375 L 0.601562 375 Z M 0.601562 166 " clip-rule="nonzero"/></clipPath></defs><g clip-path="url(#ce1fd42b97)"><path fill="#ffffff" d="M 0.601562 0 L 749.398438 0 L 749.398438 540.632812 L 0.601562 540.632812 Z M 0.601562 0 " fill-opacity="1" fill-rule="nonzero"/><path fill="#ffffff" d="M 0.601562 0 L 749.398438 0 L 749.398438 540.632812 L 0.601562 540.632812 Z M 0.601562 0 " fill-opacity="1" fill-rule="nonzero"/><path fill="#0f47af" d="M 749.191406 457.460938 C 749.191406 503.390625 711.960938 540.632812 666.039062 540.632812 L 83.960938 540.632812 C 38.039062 540.632812 0.808594 503.390625 0.808594 457.460938 L 0.808594 83.175781 C 0.808594 37.242188 38.039062 0 83.960938 0 L 666.039062 0 C 711.960938 0 749.191406 37.242188 749.191406 83.175781 Z M 749.191406 457.460938 " fill-opacity="1" fill-rule="nonzero"/></g><g clip-path="url(#deb9df69b2)"><path fill="#eeeeee" d="M 0.808594 166.347656 L 749.191406 166.347656 L 749.191406 374.285156 L 0.808594 374.285156 Z M 0.808594 166.347656 " fill-opacity="1" fill-rule="nonzero"/></g><path fill="#1f601a" d="M 363.816406 338.875 C 368.929688 322.988281 351.15625 320.035156 351.15625 320.035156 C 351.15625 320.035156 352.445312 329.140625 341.738281 329.453125 C 345.3125 336.605469 342.070312 342.449219 337.519531 342.78125 C 344.980469 349.582031 360.574219 348.9375 363.816406 338.875 Z M 337.414062 329.246094 C 347.246094 317.226562 332.820312 308.617188 332.820312 308.617188 C 332.820312 308.617188 330.84375 316.9375 321.449219 313.589844 C 322.136719 320.96875 317.3125 324.960938 313.257812 323.695312 C 317.4375 332.179688 331.179688 336.898438 337.414062 329.246094 Z M 318.808594 312.714844 C 330.535156 306.433594 321.96875 294.894531 321.96875 294.894531 C 321.96875 294.894531 317.664062 300.800781 311.347656 295.101562 C 309.453125 301.152344 304.359375 302.714844 301.554688 300.40625 C 302.074219 308.472656 311.367188 316.6875 318.808594 312.714844 Z M 311.617188 291.734375 C 323.964844 289.21875 319.328125 276.429688 319.328125 276.429688 C 319.328125 276.429688 313.820312 280.628906 309.621094 273.746094 C 306.253906 278.71875 301.199219 278.757812 299.289062 275.910156 C 297.582031 283.355469 303.777344 293.335938 311.617188 291.734375 Z M 308.707031 273.746094 C 320.035156 273.664062 318.164062 261.5625 318.164062 261.5625 C 318.164062 261.5625 312.574219 264.328125 310.058594 257.507812 C 306.210938 261.3125 301.761719 260.460938 300.578125 257.613281 C 297.792969 263.890625 301.511719 273.789062 308.707031 273.746094 Z M 311.386719 256.59375 C 320.222656 259.628906 321.617188 248.359375 321.617188 248.359375 C 321.617188 248.359375 316.605469 249.273438 316.273438 242.535156 C 312.386719 244.867188 309.121094 242.890625 308.871094 240.019531 C 305.191406 244.84375 305.753906 254.660156 311.386719 256.59375 Z M 318.183594 242.390625 C 322.59375 244.96875 327.539062 236.402344 327.539062 236.402344 C 327.539062 236.402344 323.714844 235.03125 324.691406 228.730469 C 321.28125 230.269531 318.953125 229.332031 319.285156 226.648438 C 315.566406 230.539062 314.027344 239.980469 318.183594 242.390625 Z M 382.960938 338.875 C 377.847656 322.988281 395.621094 320.035156 395.621094 320.035156 C 395.621094 320.035156 394.332031 329.140625 405.039062 329.453125 C 401.464844 336.605469 404.707031 342.449219 409.257812 342.78125 C 401.796875 349.582031 386.203125 348.9375 382.960938 338.875 Z M 409.34375 329.246094 C 399.507812 317.226562 413.9375 308.617188 413.9375 308.617188 C 413.9375 308.617188 415.933594 316.9375 425.308594 313.589844 C 424.644531 320.96875 429.445312 324.960938 433.519531 323.695312 C 429.320312 332.175781 415.601562 336.898438 409.34375 329.246094 Z M 427.96875 312.714844 C 416.265625 306.433594 424.828125 294.894531 424.828125 294.894531 C 424.828125 294.894531 429.132812 300.800781 435.433594 295.101562 C 437.34375 301.152344 442.4375 302.714844 445.222656 300.40625 C 444.703125 308.472656 435.410156 316.6875 427.96875 312.714844 Z M 435.160156 291.734375 C 422.8125 289.21875 427.46875 276.429688 427.46875 276.429688 C 427.46875 276.429688 432.980469 280.628906 437.179688 273.746094 C 440.546875 278.71875 445.578125 278.757812 447.488281 275.910156 C 449.171875 283.355469 443 293.335938 435.160156 291.734375 Z M 438.050781 273.746094 C 426.722656 273.664062 428.59375 261.5625 428.59375 261.5625 C 428.59375 261.5625 434.207031 264.328125 436.699219 257.507812 C 440.523438 261.3125 444.996094 260.460938 446.179688 257.613281 C 448.984375 263.890625 445.242188 273.789062 438.050781 273.746094 Z M 435.371094 256.59375 C 426.535156 259.628906 425.140625 248.359375 425.140625 248.359375 C 425.140625 248.359375 430.171875 249.273438 430.503906 242.535156 C 434.414062 244.867188 437.65625 242.890625 437.90625 240.019531 C 441.585938 244.84375 441.023438 254.660156 435.371094 256.59375 Z M 428.59375 242.390625 C 424.164062 244.96875 419.238281 236.402344 419.238281 236.402344 C 419.238281 236.402344 423.082031 235.03125 422.105469 228.730469 C 425.496094 230.269531 427.824219 229.332031 427.511719 226.648438 C 431.191406 230.539062 432.730469 239.980469 428.59375 242.390625 Z M 428.59375 242.390625 " fill-opacity="1" fill-rule="nonzero"/><path fill="#06209f" d="M 381.359375 338.957031 C 381.359375 339.503906 381.308594 340.042969 381.203125 340.578125 C 381.09375 341.113281 380.9375 341.636719 380.726562 342.140625 C 380.519531 342.644531 380.261719 343.125 379.960938 343.578125 C 379.65625 344.03125 379.3125 344.453125 378.925781 344.835938 C 378.539062 345.222656 378.121094 345.570312 377.664062 345.871094 C 377.210938 346.175781 376.730469 346.433594 376.226562 346.640625 C 375.722656 346.851562 375.203125 347.007812 374.667969 347.113281 C 374.132812 347.21875 373.59375 347.273438 373.046875 347.273438 C 372.5 347.273438 371.960938 347.21875 371.421875 347.113281 C 370.886719 347.007812 370.367188 346.851562 369.863281 346.640625 C 369.359375 346.433594 368.878906 346.175781 368.425781 345.871094 C 367.972656 345.570312 367.550781 345.222656 367.167969 344.835938 C 366.78125 344.453125 366.433594 344.03125 366.132812 343.578125 C 365.828125 343.125 365.574219 342.644531 365.363281 342.140625 C 365.15625 341.636719 364.996094 341.113281 364.890625 340.578125 C 364.785156 340.042969 364.730469 339.503906 364.730469 338.957031 C 364.730469 338.410156 364.785156 337.871094 364.890625 337.332031 C 364.996094 336.796875 365.15625 336.277344 365.363281 335.773438 C 365.574219 335.269531 365.828125 334.789062 366.132812 334.335938 C 366.433594 333.882812 366.78125 333.460938 367.164062 333.074219 C 367.550781 332.6875 367.972656 332.34375 368.425781 332.039062 C 368.878906 331.738281 369.359375 331.480469 369.863281 331.273438 C 370.367188 331.0625 370.886719 330.90625 371.421875 330.800781 C 371.960938 330.691406 372.5 330.640625 373.046875 330.640625 C 373.59375 330.640625 374.132812 330.691406 374.667969 330.800781 C 375.203125 330.90625 375.722656 331.0625 376.226562 331.273438 C 376.730469 331.480469 377.210938 331.738281 377.664062 332.039062 C 378.121094 332.34375 378.539062 332.6875 378.925781 333.074219 C 379.3125 333.460938 379.65625 333.882812 379.960938 334.335938 C 380.261719 334.789062 380.519531 335.269531 380.726562 335.773438 C 380.9375 336.277344 381.09375 336.796875 381.203125 337.332031 C 381.308594 337.871094 381.359375 338.410156 381.359375 338.957031 Z M 381.359375 338.957031 " fill-opacity="1" fill-rule="nonzero"/><path fill="#06209f" d="M 371.277344 265.617188 L 332.632812 224.175781 C 332.632812 224.175781 326.148438 271.9375 344.980469 284.601562 C 363.816406 297.285156 371.277344 265.617188 371.277344 265.617188 Z M 371.277344 265.617188 " fill-opacity="1" fill-rule="nonzero"/><path fill="#ffffff" d="M 351.175781 244.097656 L 342.570312 234.863281 C 342.570312 234.863281 338.140625 271.9375 356.976562 284.621094 C 347.890625 266.09375 351.175781 244.097656 351.175781 244.097656 Z M 351.175781 244.097656 " fill-opacity="1" fill-rule="nonzero"/><path fill="#06209f" d="M 371.277344 282.835938 L 318.289062 252.789062 C 318.289062 252.789062 315.691406 283.644531 324.984375 298.597656 C 334.253906 313.546875 368.328125 314.523438 373.046875 299.886719 C 377.785156 285.265625 371.277344 282.835938 371.277344 282.835938 Z M 371.277344 282.835938 " fill-opacity="1" fill-rule="nonzero"/><path fill="#ffffff" d="M 337.457031 263.640625 L 327.539062 258.007812 C 327.539062 258.007812 321.636719 320.035156 368.640625 305.789062 C 337.496094 304.335938 337.457031 263.640625 337.457031 263.640625 Z M 337.457031 263.640625 " fill-opacity="1" fill-rule="nonzero"/><path fill="#06209f" d="M 374.769531 265.617188 L 413.417969 224.175781 C 413.417969 224.175781 419.902344 271.9375 401.070312 284.601562 C 382.253906 297.285156 374.769531 265.617188 374.769531 265.617188 Z M 374.769531 265.617188 " fill-opacity="1" fill-rule="nonzero"/><path fill="#ffffff" d="M 394.875 244.097656 L 403.480469 234.863281 C 403.480469 234.863281 407.90625 271.9375 389.074219 284.621094 C 398.160156 266.09375 394.875 244.097656 394.875 244.097656 Z M 394.875 244.097656 " fill-opacity="1" fill-rule="nonzero"/><path fill="#06209f" d="M 374.769531 282.835938 L 427.761719 252.789062 C 427.761719 252.789062 430.359375 283.644531 421.085938 298.597656 C 411.816406 313.546875 377.742188 314.523438 373.023438 299.886719 C 368.285156 285.265625 374.769531 282.835938 374.769531 282.835938 Z M 374.769531 282.835938 " fill-opacity="1" fill-rule="nonzero"/><path fill="#ffffff" d="M 408.59375 263.640625 L 418.550781 258.007812 C 418.550781 258.007812 424.433594 320.035156 377.410156 305.789062 C 408.550781 304.335938 408.59375 263.640625 408.59375 263.640625 Z M 408.59375 263.640625 " fill-opacity="1" fill-rule="nonzero"/><path fill="#ffcc01" d="M 371.277344 214.113281 L 319.847656 302.796875 L 422.730469 302.796875 Z M 371.277344 214.113281 " fill-opacity="1" fill-rule="nonzero"/><path fill="#ffffff" d="M 327.0625 298.636719 L 371.277344 222.386719 L 415.496094 298.636719 Z M 327.0625 298.636719 " fill-opacity="1" fill-rule="nonzero"/><path fill="#017e93" d="M 339.722656 276.804688 L 327.0625 298.636719 L 415.496094 298.636719 L 402.835938 276.804688 Z M 339.722656 276.804688 " fill-opacity="1" fill-rule="nonzero"/><path fill="#ffcc01" d="M 335.5625 287.597656 C 335.5625 287.597656 349.867188 267.386719 355.375 267.386719 C 360.90625 267.386719 363.503906 273.726562 363.503906 273.726562 C 363.503906 273.726562 365.664062 270.316406 368.640625 270.316406 C 371.613281 270.316406 373.046875 273.746094 373.046875 273.746094 C 373.046875 273.746094 375.1875 270.398438 376.476562 271.023438 C 377.765625 271.625 382.027344 276.824219 382.027344 276.824219 C 382.027344 276.824219 383.292969 274.578125 386.226562 273.746094 C 389.15625 272.914062 391.089844 276.824219 391.089844 276.824219 C 391.089844 276.824219 393.960938 270.671875 394.625 273.746094 C 395.308594 276.824219 405.914062 287.617188 405.914062 287.617188 L 335.5625 287.617188 Z M 335.5625 287.597656 " fill-opacity="1" fill-rule="nonzero"/><path fill="#e60000" d="M 376.496094 254.429688 C 376.496094 254.953125 376.398438 255.453125 376.199219 255.933594 C 376 256.414062 375.714844 256.839844 375.347656 257.210938 C 374.976562 257.578125 374.550781 257.863281 374.070312 258.0625 C 373.589844 258.261719 373.089844 258.359375 372.566406 258.359375 C 372.046875 258.359375 371.546875 258.261719 371.0625 258.0625 C 370.582031 257.863281 370.15625 257.578125 369.789062 257.210938 C 369.421875 256.839844 369.136719 256.414062 368.9375 255.933594 C 368.738281 255.453125 368.640625 254.953125 368.640625 254.429688 C 368.640625 253.910156 368.738281 253.40625 368.9375 252.925781 C 369.136719 252.445312 369.421875 252.019531 369.789062 251.652344 C 370.15625 251.28125 370.582031 251 371.0625 250.800781 C 371.546875 250.601562 372.046875 250.5 372.566406 250.5 C 373.089844 250.5 373.589844 250.601562 374.070312 250.800781 C 374.550781 251 374.976562 251.28125 375.347656 251.652344 C 375.714844 252.019531 376 252.445312 376.199219 252.925781 C 376.398438 253.40625 376.496094 253.910156 376.496094 254.429688 Z M 376.496094 254.429688 " fill-opacity="1" fill-rule="nonzero"/><path fill="#ffcc01" d="M 291.886719 233.71875 C 286.585938 244.199219 283.300781 255.742188 282.347656 268.050781 L 292.699219 268.320312 C 293.613281 257.507812 296.542969 247.382812 301.242188 238.167969 Z M 390.714844 195.085938 C 403.875 197.851562 415.640625 204.007812 425.640625 212.261719 L 432.8125 204.753906 C 421.441406 195.25 408.03125 188.140625 393.003906 184.980469 Z M 441.378906 228.957031 C 450.398438 242.121094 455.722656 258.027344 455.722656 275.203125 C 455.722656 278.324219 455.160156 281.296875 454.808594 284.332031 L 464.992188 286.203125 C 465.449219 282.542969 466.117188 278.96875 466.117188 275.203125 C 466.117188 255.90625 460.171875 238.046875 450.046875 223.238281 Z M 338.058594 348.480469 C 313.445312 336.417969 296.023438 312.484375 292.925781 284.0625 L 282.65625 285.226562 C 286.171875 317.371094 305.921875 344.382812 333.777344 357.960938 Z M 310.285156 224.238281 C 325.292969 205.542969 348.058594 193.316406 373.898438 193.316406 C 374.4375 193.316406 374.9375 193.464844 375.476562 193.484375 L 376.121094 183.148438 C 375.375 183.128906 374.667969 182.921875 373.898438 182.921875 C 344.523438 182.921875 318.683594 196.894531 301.78125 218.292969 Z M 451.648438 299.53125 C 444.785156 321.46875 429.175781 339.371094 408.65625 349.0625 L 412.875 358.542969 C 436.015625 347.667969 453.664062 327.539062 461.457031 302.839844 Z M 451.648438 299.53125 " fill-opacity="1" fill-rule="nonzero"/></svg>