<svg xmlns="http://www.w3.org/2000/svg" xmlns:xlink="http://www.w3.org/1999/xlink" width="1000" zoomAndPan="magnify" viewBox="0 0 750 541.499989" height="722" preserveAspectRatio="xMidYMid meet" version="1.0"><defs><clipPath id="c96be3c4a1"><path d="M 0.347656 0 L 749.652344 0 L 749.652344 541 L 0.347656 541 Z M 0.347656 0 " clip-rule="nonzero"/></clipPath><clipPath id="b21da5dd5c"><path d="M 0.347656 374 L 749.652344 374 L 749.652344 541 L 0.347656 541 Z M 0.347656 374 " clip-rule="nonzero"/></clipPath><clipPath id="dcc4303d58"><path d="M 0.347656 166 L 749.652344 166 L 749.652344 375 L 0.347656 375 Z M 0.347656 166 " clip-rule="nonzero"/></clipPath><clipPath id="864cd4553d"><path d="M 0.347656 0 L 749.652344 0 L 749.652344 167 L 0.347656 167 Z M 0.347656 0 " clip-rule="nonzero"/></clipPath></defs><g clip-path="url(#c96be3c4a1)"><path fill="#ffffff" d="M 0.347656 0 L 749.652344 0 L 749.652344 541 L 0.347656 541 Z M 0.347656 0 " fill-opacity="1" fill-rule="nonzero"/><path fill="#ffffff" d="M 0.347656 0 L 749.652344 0 L 749.652344 541 L 0.347656 541 Z M 0.347656 0 " fill-opacity="1" fill-rule="nonzero"/></g><g clip-path="url(#b21da5dd5c)"><path fill="#cf142b" d="M 0.554688 457.769531 C 0.554688 503.734375 37.8125 541 83.765625 541 L 666.234375 541 C 712.1875 541 749.445312 503.734375 749.445312 457.769531 L 749.445312 374.539062 L 0.554688 374.539062 Z M 0.554688 457.769531 " fill-opacity="1" fill-rule="nonzero"/></g><g clip-path="url(#dcc4303d58)"><path fill="#00247d" d="M 0.554688 374.539062 L 749.445312 374.539062 L 749.445312 166.460938 L 0.554688 166.460938 Z M 527.191406 300.671875 L 532.785156 316.070312 L 549.160156 315.507812 L 536.261719 325.597656 L 541.855469 340.996094 L 528.273438 331.839844 L 515.375 341.933594 L 519.890625 326.183594 L 506.304688 317.027344 L 522.675781 316.464844 Z M 501.894531 266.027344 L 517.082031 259.886719 L 508.40625 273.765625 L 518.933594 286.3125 L 503.039062 282.359375 L 494.363281 296.238281 L 493.21875 279.90625 L 477.328125 275.953125 L 492.511719 269.8125 L 491.371094 253.480469 Z M 441.566406 221.394531 L 455.753906 229.59375 L 467.925781 218.625 L 464.511719 234.648438 L 478.699219 242.847656 L 462.414062 244.554688 L 459 260.574219 L 452.34375 245.613281 L 436.054688 247.320312 L 448.226562 236.355469 Z M 399.921875 211.136719 L 407.617188 196.675781 L 409.90625 212.882812 L 426.027344 215.734375 L 411.320312 222.914062 L 413.609375 239.121094 L 402.230469 227.34375 L 387.480469 234.523438 L 395.179688 220.0625 L 383.800781 208.285156 Z M 340.113281 212.882812 L 342.402344 196.675781 L 350.097656 211.136719 L 366.222656 208.285156 L 354.84375 220.0625 L 362.539062 234.523438 L 347.832031 227.34375 L 336.453125 239.121094 L 338.742188 222.914062 L 324.035156 215.734375 Z M 282.097656 218.625 L 294.265625 229.59375 L 308.433594 221.394531 L 301.773438 236.355469 L 313.945312 247.320312 L 297.65625 245.613281 L 291 260.574219 L 287.585938 244.554688 L 271.300781 242.847656 L 285.488281 234.648438 Z M 232.917969 259.886719 L 248.105469 266.027344 L 258.628906 253.480469 L 257.488281 269.8125 L 272.671875 275.953125 L 256.78125 279.90625 L 255.636719 296.238281 L 246.960938 282.359375 L 231.066406 286.3125 L 241.59375 273.765625 Z M 217.191406 316.046875 L 222.789062 300.652344 L 227.300781 316.402344 L 243.671875 316.964844 L 230.089844 326.121094 L 234.605469 341.871094 L 221.707031 331.777344 L 208.121094 340.933594 L 213.71875 325.535156 L 200.820312 315.445312 Z M 217.191406 316.046875 " fill-opacity="1" fill-rule="nonzero"/></g><g clip-path="url(#864cd4553d)"><path fill="#ffcc00" d="M 666.234375 0 L 83.765625 0 C 37.8125 0 0.554688 37.265625 0.554688 83.230469 L 0.554688 166.460938 L 749.445312 166.460938 L 749.445312 83.230469 C 749.445312 37.265625 712.1875 0 666.234375 0 Z M 666.234375 0 " fill-opacity="1" fill-rule="nonzero"/></g><path fill="#ffffff" d="M 387.480469 234.523438 L 402.1875 227.34375 L 413.566406 239.121094 L 411.28125 222.914062 L 426.007812 215.734375 L 409.886719 212.882812 L 407.597656 196.675781 L 399.921875 211.136719 L 383.777344 208.285156 L 395.15625 220.0625 Z M 452.34375 245.59375 L 459 260.554688 L 462.390625 244.554688 L 478.679688 242.824219 L 464.511719 234.648438 L 467.902344 218.625 L 455.734375 229.570312 L 441.566406 221.394531 L 448.226562 236.355469 L 436.054688 247.320312 Z M 477.328125 275.953125 L 493.21875 279.90625 L 494.363281 296.238281 L 503.039062 282.359375 L 518.910156 286.3125 L 508.386719 273.765625 L 517.082031 259.886719 L 501.894531 266.027344 L 491.371094 253.480469 L 492.511719 269.8125 Z M 519.890625 326.140625 L 515.375 341.871094 L 528.292969 331.800781 L 541.855469 340.957031 L 536.261719 325.558594 L 549.160156 315.488281 L 532.808594 316.046875 L 527.191406 300.671875 L 522.675781 316.402344 L 506.328125 316.984375 Z M 336.433594 239.121094 L 347.8125 227.34375 L 362.519531 234.523438 L 354.84375 220.0625 L 366.222656 208.285156 L 350.078125 211.136719 L 342.402344 196.675781 L 340.113281 212.882812 L 323.992188 215.734375 L 338.71875 222.914062 Z M 287.609375 244.554688 L 291 260.554688 L 297.65625 245.59375 L 313.945312 247.320312 L 301.773438 236.355469 L 308.433594 221.394531 L 294.265625 229.570312 L 282.097656 218.625 L 285.488281 234.648438 L 271.320312 242.824219 Z M 246.960938 282.359375 L 255.636719 296.238281 L 256.78125 279.90625 L 272.671875 275.953125 L 257.488281 269.8125 L 258.628906 253.480469 L 248.105469 266.027344 L 232.917969 259.886719 L 241.613281 273.765625 L 231.089844 286.3125 Z M 208.144531 340.957031 L 221.707031 331.800781 L 234.625 341.871094 L 230.109375 326.140625 L 243.671875 316.984375 L 227.324219 316.402344 L 222.808594 300.671875 L 217.191406 316.046875 L 200.839844 315.488281 L 213.738281 325.558594 Z M 208.144531 340.957031 " fill-opacity="1" fill-rule="nonzero"/></svg>