<svg xmlns="http://www.w3.org/2000/svg" xmlns:xlink="http://www.w3.org/1999/xlink" width="500" zoomAndPan="magnify" viewBox="0 0 375 374.999991" height="500" preserveAspectRatio="xMidYMid meet" version="1.0"><defs><clipPath id="fb80375e72"><path d="M 0 17.578125 L 373 17.578125 L 373 357.328125 L 0 357.328125 Z M 0 17.578125 " clip-rule="nonzero"/></clipPath></defs><g clip-path="url(#fb80375e72)"><path fill="#000000" d="M 67.980469 276.949219 L 67.980469 303.769531 C 67.980469 304.167969 68.863281 304.730469 69.828125 304.730469 L 100.351562 304.730469 C 101.234375 304.730469 102.199219 304.167969 102.199219 303.769531 L 102.199219 276.949219 C 102.199219 276.546875 101.3125 275.984375 100.351562 275.984375 L 69.828125 275.984375 C 68.863281 275.984375 67.980469 276.546875 67.980469 276.949219 Z M 56.734375 303.769531 L 56.734375 276.949219 C 56.734375 270.042969 62.839844 264.742188 69.828125 264.742188 L 100.351562 264.742188 C 107.257812 264.742188 113.441406 269.960938 113.441406 276.949219 L 113.441406 303.769531 C 113.441406 310.671875 107.339844 315.972656 100.351562 315.972656 L 69.828125 315.972656 C 62.839844 315.972656 56.734375 310.753906 56.734375 303.769531 Z M 169.988281 250.691406 L 214.808594 251.574219 L 203.242188 231.496094 L 191.675781 211.421875 Z M 192.480469 262.332031 L 160.753906 261.769531 C 155.933594 261.851562 153.605469 257.03125 155.613281 253.5 L 186.617188 197.449219 C 187.179688 196.40625 187.980469 195.683594 189.027344 195.121094 L 295.855469 133.453125 L 295.855469 46.003906 C 295.855469 36.527344 288.0625 28.738281 278.585938 28.738281 L 28.542969 28.738281 C 19.0625 28.820312 11.351562 36.527344 11.351562 46.003906 L 11.351562 328.980469 C 11.351562 338.457031 19.144531 346.167969 28.621094 346.167969 L 278.746094 346.167969 C 288.222656 346.167969 296.015625 338.378906 296.015625 328.980469 L 296.015625 222.746094 L 227.421875 262.171875 C 226.457031 262.734375 225.332031 262.976562 224.207031 262.894531 Z M 199.148438 202.109375 L 226.617188 249.804688 L 327.019531 191.828125 L 299.550781 144.132812 Z M 309.269531 138.511719 L 336.738281 186.128906 L 352.964844 176.734375 C 360.914062 172.15625 362.761719 163.164062 360.675781 154.25 C 359.792969 150.476562 358.265625 146.621094 356.257812 143.085938 C 350.074219 132.328125 337.542969 122.128906 325.492188 129.113281 Z M 307.179688 126.867188 L 320.03125 119.480469 C 338.023438 108.878906 356.820312 121.488281 366.136719 137.546875 C 368.707031 141.882812 370.714844 147.101562 371.839844 151.839844 C 374.890625 165.332031 371.839844 178.980469 358.828125 186.449219 L 307.339844 216.160156 L 307.339844 328.902344 C 307.339844 344.558594 294.488281 357.328125 278.828125 357.328125 L 28.542969 357.328125 C 12.878906 357.328125 0.109375 344.558594 0.109375 328.902344 L 0.109375 46.003906 C 0.109375 30.347656 12.878906 17.578125 28.542969 17.578125 L 278.664062 17.578125 C 294.328125 17.578125 307.179688 30.347656 307.179688 46.003906 Z M 67.980469 136.179688 L 67.980469 163 C 67.980469 163.402344 68.863281 163.964844 69.828125 163.964844 L 100.351562 163.964844 C 101.234375 163.964844 102.199219 163.402344 102.199219 163 L 102.199219 136.179688 C 102.199219 135.78125 101.3125 135.21875 100.351562 135.21875 L 69.828125 135.21875 C 68.863281 135.21875 67.980469 135.78125 67.980469 136.179688 Z M 56.734375 163 L 56.734375 136.179688 C 56.734375 129.277344 62.839844 123.976562 69.828125 123.976562 L 100.351562 123.976562 C 107.257812 123.976562 113.441406 129.195312 113.441406 136.179688 L 113.441406 163 C 113.441406 169.90625 107.339844 175.207031 100.351562 175.207031 L 69.828125 175.207031 C 62.839844 175.207031 56.734375 169.988281 56.734375 163 Z M 67.980469 65.757812 L 67.980469 92.578125 C 67.980469 92.980469 68.863281 93.542969 69.828125 93.542969 L 100.351562 93.542969 C 101.234375 93.542969 102.199219 92.980469 102.199219 92.578125 L 102.199219 65.757812 C 102.199219 65.355469 101.3125 64.792969 100.351562 64.792969 L 69.828125 64.792969 C 68.863281 64.875 67.980469 65.355469 67.980469 65.757812 Z M 56.734375 92.578125 L 56.734375 65.757812 C 56.734375 58.851562 62.839844 53.550781 69.828125 53.550781 L 100.351562 53.550781 C 107.257812 53.550781 113.441406 58.773438 113.441406 65.757812 L 113.441406 92.578125 C 113.441406 99.566406 107.339844 104.785156 100.351562 104.785156 L 69.828125 104.785156 C 62.839844 104.785156 56.734375 99.566406 56.734375 92.578125 Z M 67.980469 206.523438 L 67.980469 233.34375 C 67.980469 233.746094 68.863281 234.308594 69.828125 234.308594 L 100.351562 234.308594 C 101.234375 234.308594 102.199219 233.746094 102.199219 233.34375 L 102.199219 206.523438 C 102.199219 206.121094 101.3125 205.5625 100.351562 205.5625 L 69.828125 205.5625 C 68.863281 205.5625 67.980469 206.121094 67.980469 206.523438 Z M 56.734375 233.425781 L 56.734375 206.605469 C 56.734375 199.699219 62.839844 194.398438 69.828125 194.398438 L 100.351562 194.398438 C 107.257812 194.398438 113.441406 199.617188 113.441406 206.605469 L 113.441406 233.425781 C 113.441406 240.332031 107.339844 245.628906 100.351562 245.628906 L 69.828125 245.628906 C 62.839844 245.550781 56.734375 240.332031 56.734375 233.425781 Z M 143.324219 84.546875 C 140.191406 84.546875 137.699219 82.058594 137.699219 78.925781 C 137.699219 75.796875 140.191406 73.304688 143.324219 73.304688 L 246.699219 73.304688 C 249.832031 73.304688 252.320312 75.796875 252.320312 78.925781 C 252.320312 82.058594 249.832031 84.546875 246.699219 84.546875 Z M 143.324219 301.921875 C 140.191406 301.921875 137.699219 299.433594 137.699219 296.300781 C 137.699219 293.167969 140.191406 290.679688 143.324219 290.679688 L 222.761719 290.679688 C 225.894531 290.679688 228.382812 293.167969 228.382812 296.300781 C 228.382812 299.433594 225.894531 301.921875 222.761719 301.921875 Z M 143.324219 171.511719 C 140.191406 171.511719 137.699219 169.023438 137.699219 165.890625 C 137.699219 162.761719 140.191406 160.273438 143.324219 160.273438 L 186.457031 160.273438 C 189.589844 160.273438 192.078125 162.761719 192.078125 165.890625 C 192.078125 169.023438 189.589844 171.511719 186.457031 171.511719 Z M 143.324219 127.992188 C 140.191406 127.992188 137.699219 125.5 137.699219 122.371094 C 137.699219 119.238281 140.191406 116.75 143.324219 116.75 L 203.242188 116.75 C 206.375 116.75 208.867188 119.238281 208.867188 122.371094 C 208.867188 125.5 206.375 127.992188 203.242188 127.992188 Z M 143.324219 127.992188 " fill-opacity="1" fill-rule="nonzero"/></g></svg>