<svg xmlns="http://www.w3.org/2000/svg" xmlns:xlink="http://www.w3.org/1999/xlink" width="1024" zoomAndPan="magnify" viewBox="0 0 768 767.999994" height="1024" preserveAspectRatio="xMidYMid meet" version="1.0"><path fill="#475dd7" d="M 691.164062 307.199219 L 460.476562 307.199219 L 460.476562 76.824219 C 460.476562 34.441406 426.070312 0.0234375 383.679688 0.0234375 C 341.296875 0.0234375 306.878906 34.441406 306.878906 76.824219 L 306.878906 307.210938 L 76.824219 307.199219 C 34.429688 307.199219 0.0234375 341.605469 0.0234375 383.988281 C 0.0234375 426.382812 34.429688 460.789062 76.824219 460.789062 L 306.902344 460.789062 L 306.902344 691.175781 C 306.902344 733.570312 341.308594 767.976562 383.703125 767.976562 C 426.082031 767.976562 460.488281 733.570312 460.488281 691.175781 L 460.488281 460.789062 L 691.164062 460.789062 C 733.558594 460.789062 767.964844 426.382812 767.964844 383.988281 C 767.964844 341.605469 733.558594 307.199219 691.164062 307.199219 Z M 691.164062 307.199219 " fill-opacity="1" fill-rule="evenodd"/></svg>