<svg xmlns="http://www.w3.org/2000/svg" xmlns:xlink="http://www.w3.org/1999/xlink" width="1024" zoomAndPan="magnify" viewBox="0 0 768 767.999994" height="1024" preserveAspectRatio="xMidYMid meet" version="1.0"><defs><clipPath id="faad019fb3"><path d="M 0 8.160156 L 752 8.160156 L 752 759.660156 L 0 759.660156 Z M 0 8.160156 " clip-rule="nonzero"/></clipPath></defs><g clip-path="url(#faad019fb3)"><path fill="#475dd7" d="M 696.09375 270.488281 C 675.519531 275.238281 662.699219 295.765625 667.441406 316.339844 C 672.539062 338.378906 675.113281 361.144531 675.113281 383.996094 C 675.113281 549.066406 540.820312 683.363281 375.75 683.363281 C 210.679688 683.363281 76.382812 549.066406 76.382812 383.996094 C 76.382812 218.925781 210.679688 84.632812 375.75 84.632812 C 415.582031 84.632812 454.238281 92.3125 490.660156 107.46875 C 510.160156 115.5625 532.527344 106.347656 540.648438 86.863281 C 548.757812 67.371094 539.527344 44.988281 520.035156 36.875 C 474.265625 17.828125 425.71875 8.167969 375.75 8.167969 C 168.511719 8.167969 -0.0820312 176.761719 -0.0820312 383.996094 C -0.0820312 591.226562 168.511719 759.828125 375.75 759.828125 C 582.976562 759.828125 751.578125 591.226562 751.578125 383.996094 C 751.578125 355.359375 748.335938 326.816406 741.949219 299.132812 C 737.195312 278.566406 716.675781 265.726562 696.09375 270.488281 " fill-opacity="1" fill-rule="nonzero"/></g><path fill="#475dd7" d="M 752.449219 68.472656 C 737.28125 53.785156 713.085938 54.15625 698.382812 69.328125 L 304.539062 475.804688 L 207.945312 380.445312 C 192.921875 365.609375 168.714844 365.765625 153.878906 380.789062 C 139.042969 395.8125 139.199219 420.027344 154.222656 434.855469 L 278.28125 557.320312 C 285.433594 564.398438 295.089844 568.351562 305.140625 568.351562 C 305.28125 568.351562 305.421875 568.351562 305.5625 568.34375 C 315.765625 568.234375 325.496094 564.050781 332.597656 556.726562 L 753.300781 122.53125 C 767.996094 107.375 767.605469 83.167969 752.449219 68.472656 " fill-opacity="1" fill-rule="nonzero"/></svg>