<svg xmlns="http://www.w3.org/2000/svg" xmlns:xlink="http://www.w3.org/1999/xlink" width="1024" zoomAndPan="magnify" viewBox="0 0 768 767.999994" height="1024" preserveAspectRatio="xMidYMid meet" version="1.0"><path fill="#475dd7" d="M 460.730469 153.589844 C 471.957031 153.589844 483.1875 157.894531 491.792969 166.496094 C 509 183.707031 509 211.414062 491.792969 228.621094 L 336.4375 383.976562 L 491.792969 539.328125 C 509 556.539062 509 584.246094 491.792969 601.453125 C 474.582031 618.664062 446.875 618.664062 429.667969 601.453125 L 243.289062 415.078125 C 234.675781 406.464844 230.375 395.21875 230.386719 383.976562 C 230.375 372.734375 234.675781 361.488281 243.289062 352.871094 L 429.667969 166.496094 C 438.269531 157.894531 449.5 153.589844 460.730469 153.589844 Z M 460.730469 153.589844 " fill-opacity="1" fill-rule="nonzero"/><path fill="#475dd7" d="M 383.972656 0 C 172.257812 0 0 172.257812 0 383.972656 C 0 595.6875 172.257812 767.949219 383.972656 767.949219 C 595.6875 767.949219 767.949219 595.6875 767.949219 383.972656 C 767.949219 172.257812 595.6875 0 383.972656 0 Z M 383.972656 80.484375 C 551.910156 80.484375 687.46875 216.03125 687.46875 383.972656 C 687.46875 551.910156 551.910156 687.46875 383.972656 687.46875 C 216.03125 687.46875 80.484375 551.910156 80.484375 383.972656 C 80.484375 216.03125 216.03125 80.484375 383.972656 80.484375 Z M 383.972656 80.484375 " fill-opacity="1" fill-rule="nonzero"/></svg>