<svg xmlns="http://www.w3.org/2000/svg" xmlns:xlink="http://www.w3.org/1999/xlink" width="1024" zoomAndPan="magnify" viewBox="0 0 768 767.999994" height="1024" preserveAspectRatio="xMidYMid meet" version="1.0"><defs><clipPath id="313d04489b"><rect x="0" width="768" y="0" height="768"/></clipPath></defs><g transform="matrix(1, 0, 0, 1, 0, -0.000000000000057351)"><g clip-path="url(#313d04489b)"><path fill="#475dd7" d="M 307.269531 153.589844 C 296.042969 153.589844 284.8125 157.894531 276.207031 166.496094 C 259 183.707031 259 211.414062 276.207031 228.621094 L 431.5625 383.976562 L 276.207031 539.328125 C 259 556.539062 259 584.246094 276.207031 601.453125 C 293.417969 618.664062 321.125 618.664062 338.332031 601.453125 L 524.710938 415.078125 C 533.324219 406.464844 537.625 395.21875 537.613281 383.976562 C 537.625 372.734375 533.324219 361.488281 524.710938 352.871094 L 338.332031 166.496094 C 329.730469 157.894531 318.5 153.589844 307.269531 153.589844 Z M 307.269531 153.589844 " fill-opacity="1" fill-rule="nonzero"/><path fill="#475dd7" d="M 384.027344 0 C 595.742188 0 768 172.257812 768 383.972656 C 768 595.6875 595.742188 767.949219 384.027344 767.949219 C 172.3125 767.949219 0.0507812 595.6875 0.0507812 383.972656 C 0.0507812 172.257812 172.3125 0 384.027344 0 Z M 384.027344 80.484375 C 216.089844 80.484375 80.53125 216.03125 80.53125 383.972656 C 80.53125 551.910156 216.089844 687.46875 384.027344 687.46875 C 551.96875 687.46875 687.515625 551.910156 687.515625 383.972656 C 687.515625 216.03125 551.96875 80.484375 384.027344 80.484375 Z M 384.027344 80.484375 " fill-opacity="1" fill-rule="nonzero"/></g></g></svg>