<svg xmlns="http://www.w3.org/2000/svg" xmlns:xlink="http://www.w3.org/1999/xlink" width="1024" zoomAndPan="magnify" viewBox="0 0 768 767.999994" height="1024" preserveAspectRatio="xMidYMid meet" version="1.0"><path fill="#475dd7" d="M 384 0 C 377.714844 0 371.433594 0.152344 365.15625 0.460938 C 358.882812 0.769531 352.617188 1.234375 346.363281 1.847656 C 340.105469 2.464844 333.871094 3.234375 327.65625 4.15625 C 321.4375 5.078125 315.25 6.152344 309.085938 7.378906 C 302.921875 8.605469 296.792969 9.980469 290.695312 11.507812 C 284.597656 13.035156 278.542969 14.710938 272.53125 16.535156 C 266.515625 18.359375 260.550781 20.328125 254.632812 22.445312 C 248.71875 24.5625 242.855469 26.824219 237.050781 29.230469 C 231.242188 31.636719 225.5 34.179688 219.820312 36.867188 C 214.136719 39.554688 208.527344 42.378906 202.984375 45.34375 C 197.441406 48.304688 191.976562 51.402344 186.585938 54.632812 C 181.195312 57.863281 175.886719 61.222656 170.660156 64.714844 C 165.4375 68.207031 160.300781 71.824219 155.25 75.566406 C 150.203125 79.3125 145.25 83.175781 140.394531 87.164062 C 135.535156 91.152344 130.777344 95.253906 126.121094 99.476562 C 121.464844 103.695312 116.914062 108.027344 112.472656 112.472656 C 108.027344 116.914062 103.695312 121.464844 99.476562 126.121094 C 95.253906 130.777344 91.152344 135.535156 87.164062 140.394531 C 83.175781 145.25 79.3125 150.203125 75.566406 155.25 C 71.824219 160.300781 68.207031 165.4375 64.714844 170.660156 C 61.222656 175.886719 57.863281 181.195312 54.632812 186.585938 C 51.402344 191.976562 48.304688 197.441406 45.34375 202.984375 C 42.378906 208.527344 39.554688 214.136719 36.867188 219.820312 C 34.179688 225.5 31.636719 231.242188 29.230469 237.050781 C 26.824219 242.855469 24.5625 248.71875 22.445312 254.632812 C 20.328125 260.550781 18.359375 266.515625 16.535156 272.53125 C 14.710938 278.542969 13.035156 284.597656 11.507812 290.695312 C 9.980469 296.792969 8.605469 302.921875 7.378906 309.085938 C 6.152344 315.25 5.078125 321.4375 4.15625 327.65625 C 3.234375 333.871094 2.464844 340.105469 1.847656 346.363281 C 1.234375 352.617188 0.769531 358.882812 0.460938 365.15625 C 0.152344 371.433594 0 377.714844 0 384 C 0 390.285156 0.152344 396.566406 0.460938 402.84375 C 0.769531 409.117188 1.234375 415.382812 1.847656 421.636719 C 2.464844 427.894531 3.234375 434.128906 4.15625 440.34375 C 5.078125 446.5625 6.152344 452.75 7.378906 458.914062 C 8.605469 465.078125 9.980469 471.207031 11.507812 477.304688 C 13.035156 483.398438 14.710938 489.457031 16.535156 495.46875 C 18.359375 501.484375 20.328125 507.449219 22.445312 513.367188 C 24.5625 519.28125 26.824219 525.144531 29.230469 530.949219 C 31.636719 536.757812 34.179688 542.5 36.867188 548.179688 C 39.554688 553.863281 42.378906 559.472656 45.34375 565.015625 C 48.304688 570.558594 51.402344 576.023438 54.632812 581.414062 C 57.863281 586.804688 61.222656 592.113281 64.714844 597.339844 C 68.207031 602.5625 71.824219 607.699219 75.566406 612.75 C 79.3125 617.796875 83.175781 622.75 87.164062 627.605469 C 91.152344 632.464844 95.253906 637.222656 99.476562 641.878906 C 103.695312 646.535156 108.027344 651.085938 112.472656 655.527344 C 116.914062 659.972656 121.464844 664.304688 126.121094 668.523438 C 130.777344 672.746094 135.535156 676.847656 140.394531 680.835938 C 145.25 684.824219 150.203125 688.6875 155.25 692.429688 C 160.300781 696.175781 165.4375 699.792969 170.660156 703.285156 C 175.886719 706.777344 181.195312 710.136719 186.585938 713.367188 C 191.976562 716.597656 197.441406 719.695312 202.984375 722.65625 C 208.527344 725.621094 214.136719 728.445312 219.820312 731.132812 C 225.5 733.820312 231.242188 736.363281 237.050781 738.769531 C 242.855469 741.175781 248.71875 743.4375 254.632812 745.554688 C 260.550781 747.671875 266.515625 749.640625 272.53125 751.464844 C 278.542969 753.289062 284.597656 754.964844 290.695312 756.492188 C 296.792969 758.019531 302.921875 759.394531 309.085938 760.621094 C 315.25 761.847656 321.4375 762.921875 327.65625 763.84375 C 333.871094 764.765625 340.105469 765.535156 346.363281 766.152344 C 352.617188 766.765625 358.882812 767.230469 365.15625 767.539062 C 371.433594 767.847656 377.714844 768 384 768 C 390.285156 768 396.566406 767.847656 402.84375 767.539062 C 409.117188 767.230469 415.382812 766.765625 421.636719 766.152344 C 427.894531 765.535156 434.128906 764.765625 440.34375 763.84375 C 446.5625 762.921875 452.75 761.847656 458.914062 760.621094 C 465.078125 759.394531 471.207031 758.019531 477.304688 756.492188 C 483.398438 754.964844 489.457031 753.289062 495.46875 751.464844 C 501.484375 749.640625 507.449219 747.671875 513.367188 745.554688 C 519.28125 743.4375 525.144531 741.175781 530.949219 738.769531 C 536.757812 736.363281 542.5 733.820312 548.179688 731.132812 C 553.863281 728.445312 559.472656 725.621094 565.015625 722.65625 C 570.558594 719.695312 576.023438 716.597656 581.414062 713.367188 C 586.804688 710.136719 592.113281 706.777344 597.339844 703.285156 C 602.5625 699.792969 607.699219 696.175781 612.75 692.429688 C 617.796875 688.6875 622.75 684.824219 627.605469 680.835938 C 632.464844 676.847656 637.222656 672.746094 641.878906 668.523438 C 646.535156 664.304688 651.085938 659.972656 655.527344 655.527344 C 659.972656 651.085938 664.304688 646.535156 668.523438 641.878906 C 672.746094 637.222656 676.847656 632.464844 680.835938 627.605469 C 684.824219 622.75 688.6875 617.796875 692.429688 612.75 C 696.175781 607.699219 699.792969 602.5625 703.285156 597.339844 C 706.777344 592.113281 710.136719 586.804688 713.367188 581.414062 C 716.597656 576.023438 719.695312 570.558594 722.65625 565.015625 C 725.621094 559.472656 728.445312 553.863281 731.132812 548.179688 C 733.820312 542.5 736.363281 536.757812 738.769531 530.949219 C 741.175781 525.144531 743.4375 519.28125 745.554688 513.367188 C 747.671875 507.449219 749.640625 501.484375 751.464844 495.46875 C 753.289062 489.457031 754.964844 483.402344 756.492188 477.304688 C 758.019531 471.207031 759.394531 465.078125 760.621094 458.914062 C 761.847656 452.75 762.921875 446.5625 763.84375 440.34375 C 764.765625 434.128906 765.535156 427.894531 766.152344 421.636719 C 766.765625 415.382812 767.230469 409.117188 767.539062 402.84375 C 767.84375 396.566406 768 390.285156 768 384 C 768 377.714844 767.84375 371.433594 767.539062 365.15625 C 767.230469 358.882812 766.765625 352.617188 766.152344 346.363281 C 765.535156 340.105469 764.765625 333.871094 763.84375 327.65625 C 762.921875 321.4375 761.847656 315.25 760.621094 309.085938 C 759.394531 302.921875 758.019531 296.792969 756.492188 290.695312 C 754.964844 284.597656 753.289062 278.542969 751.464844 272.53125 C 749.640625 266.515625 747.671875 260.550781 745.554688 254.632812 C 743.4375 248.71875 741.175781 242.855469 738.769531 237.050781 C 736.363281 231.242188 733.820312 225.5 731.132812 219.820312 C 728.445312 214.136719 725.621094 208.527344 722.65625 202.984375 C 719.695312 197.441406 716.597656 191.976562 713.367188 186.585938 C 710.136719 181.195312 706.777344 175.886719 703.285156 170.660156 C 699.792969 165.4375 696.175781 160.300781 692.429688 155.25 C 688.6875 150.203125 684.824219 145.25 680.835938 140.394531 C 676.847656 135.535156 672.746094 130.777344 668.523438 126.121094 C 664.304688 121.464844 659.972656 116.914062 655.527344 112.472656 C 651.085938 108.027344 646.535156 103.695312 641.878906 99.476562 C 637.222656 95.253906 632.464844 91.152344 627.605469 87.164062 C 622.75 83.175781 617.796875 79.3125 612.75 75.566406 C 607.699219 71.824219 602.5625 68.207031 597.339844 64.714844 C 592.113281 61.222656 586.804688 57.863281 581.414062 54.632812 C 576.023438 51.402344 570.558594 48.304688 565.015625 45.34375 C 559.472656 42.378906 553.863281 39.554688 548.179688 36.867188 C 542.5 34.179688 536.757812 31.636719 530.949219 29.230469 C 525.144531 26.824219 519.28125 24.5625 513.367188 22.445312 C 507.449219 20.328125 501.484375 18.359375 495.46875 16.535156 C 489.457031 14.710938 483.402344 13.035156 477.304688 11.507812 C 471.207031 9.980469 465.078125 8.605469 458.914062 7.378906 C 452.75 6.152344 446.5625 5.078125 440.34375 4.15625 C 434.128906 3.234375 427.894531 2.464844 421.636719 1.847656 C 415.382812 1.234375 409.117188 0.769531 402.84375 0.460938 C 396.566406 0.152344 390.285156 0 384 0 Z M 384 691.199219 C 378.972656 691.199219 373.949219 691.078125 368.925781 690.828125 C 363.90625 690.582031 358.890625 690.214844 353.890625 689.71875 C 348.886719 689.226562 343.898438 688.613281 338.925781 687.875 C 333.949219 687.136719 329 686.277344 324.066406 685.296875 C 319.136719 684.316406 314.234375 683.214844 309.355469 681.992188 C 304.480469 680.773438 299.636719 679.429688 294.824219 677.972656 C 290.011719 676.511719 285.242188 674.9375 280.507812 673.242188 C 275.773438 671.546875 271.085938 669.738281 266.441406 667.816406 C 261.792969 665.890625 257.199219 663.855469 252.65625 661.707031 C 248.109375 659.554688 243.621094 657.296875 239.1875 654.925781 C 234.753906 652.554688 230.378906 650.078125 226.066406 647.492188 C 221.753906 644.910156 217.507812 642.21875 213.328125 639.425781 C 209.148438 636.632812 205.039062 633.738281 201 630.746094 C 196.964844 627.75 193 624.65625 189.113281 621.46875 C 185.226562 618.28125 181.421875 614.996094 177.695312 611.621094 C 173.972656 608.242188 170.332031 604.777344 166.777344 601.222656 C 163.222656 597.667969 159.757812 594.027344 156.378906 590.304688 C 153.003906 586.578125 149.71875 582.773438 146.53125 578.886719 C 143.339844 575 140.25 571.035156 137.253906 567 C 134.257812 562.960938 131.367188 558.851562 128.574219 554.671875 C 125.78125 550.492188 123.089844 546.246094 120.503906 541.933594 C 117.921875 537.621094 115.445312 533.246094 113.074219 528.8125 C 110.703125 524.378906 108.445312 519.890625 106.292969 515.34375 C 104.144531 510.800781 102.109375 506.207031 100.183594 501.558594 C 98.261719 496.914062 96.453125 492.226562 94.757812 487.492188 C 93.0625 482.757812 91.488281 477.988281 90.027344 473.175781 C 88.570312 468.363281 87.226562 463.519531 86.007812 458.644531 C 84.785156 453.765625 83.683594 448.863281 82.703125 443.933594 C 81.722656 439 80.863281 434.046875 80.125 429.074219 C 79.386719 424.101562 78.773438 419.113281 78.277344 414.109375 C 77.785156 409.109375 77.417969 404.09375 77.171875 399.074219 C 76.921875 394.050781 76.800781 389.027344 76.800781 384 C 76.800781 378.972656 76.921875 373.949219 77.171875 368.925781 C 77.417969 363.90625 77.785156 358.890625 78.277344 353.890625 C 78.773438 348.886719 79.386719 343.898438 80.125 338.925781 C 80.863281 333.953125 81.722656 329 82.703125 324.066406 C 83.683594 319.136719 84.785156 314.234375 86.007812 309.355469 C 87.226562 304.480469 88.570312 299.636719 90.027344 294.824219 C 91.488281 290.011719 93.0625 285.242188 94.757812 280.507812 C 96.453125 275.773438 98.261719 271.085938 100.183594 266.441406 C 102.109375 261.792969 104.144531 257.199219 106.292969 252.65625 C 108.445312 248.109375 110.703125 243.621094 113.074219 239.1875 C 115.445312 234.753906 117.921875 230.378906 120.503906 226.066406 C 123.089844 221.753906 125.78125 217.507812 128.574219 213.328125 C 131.367188 209.148438 134.257812 205.039062 137.253906 201 C 140.25 196.964844 143.339844 193 146.53125 189.113281 C 149.71875 185.226562 153.003906 181.421875 156.378906 177.695312 C 159.757812 173.972656 163.222656 170.332031 166.777344 166.777344 C 170.332031 163.222656 173.972656 159.757812 177.695312 156.378906 C 181.421875 153.003906 185.226562 149.71875 189.113281 146.53125 C 193 143.339844 196.964844 140.25 201 137.253906 C 205.039062 134.257812 209.148438 131.367188 213.328125 128.574219 C 217.507812 125.78125 221.753906 123.089844 226.066406 120.503906 C 230.378906 117.921875 234.753906 115.445312 239.1875 113.074219 C 243.621094 110.703125 248.109375 108.445312 252.65625 106.292969 C 257.199219 104.144531 261.792969 102.109375 266.441406 100.183594 C 271.085938 98.261719 275.773438 96.453125 280.507812 94.757812 C 285.242188 93.0625 290.011719 91.488281 294.824219 90.027344 C 299.636719 88.570312 304.480469 87.226562 309.355469 86.007812 C 314.234375 84.785156 319.136719 83.683594 324.066406 82.703125 C 329 81.722656 333.949219 80.863281 338.925781 80.125 C 343.898438 79.386719 348.886719 78.773438 353.890625 78.28125 C 358.890625 77.785156 363.90625 77.417969 368.925781 77.171875 C 373.949219 76.921875 378.972656 76.800781 384 76.800781 C 389.027344 76.800781 394.050781 76.921875 399.074219 77.171875 C 404.09375 77.417969 409.109375 77.785156 414.109375 78.277344 C 419.113281 78.773438 424.101562 79.386719 429.074219 80.125 C 434.046875 80.863281 439 81.722656 443.933594 82.703125 C 448.863281 83.683594 453.765625 84.785156 458.644531 86.007812 C 463.519531 87.226562 468.363281 88.570312 473.175781 90.027344 C 477.988281 91.488281 482.757812 93.0625 487.492188 94.757812 C 492.226562 96.453125 496.914062 98.261719 501.558594 100.183594 C 506.207031 102.109375 510.800781 104.144531 515.34375 106.292969 C 519.890625 108.445312 524.378906 110.703125 528.8125 113.074219 C 533.246094 115.445312 537.621094 117.921875 541.933594 120.503906 C 546.246094 123.089844 550.492188 125.78125 554.671875 128.574219 C 558.851562 131.367188 562.960938 134.257812 567 137.253906 C 571.035156 140.25 575 143.339844 578.886719 146.53125 C 582.773438 149.71875 586.578125 153.003906 590.304688 156.378906 C 594.027344 159.757812 597.667969 163.222656 601.222656 166.777344 C 604.777344 170.332031 608.242188 173.972656 611.621094 177.695312 C 614.996094 181.421875 618.28125 185.226562 621.46875 189.113281 C 624.65625 193 627.75 196.964844 630.746094 201 C 633.738281 205.039062 636.632812 209.148438 639.425781 213.328125 C 642.21875 217.507812 644.910156 221.753906 647.492188 226.066406 C 650.078125 230.378906 652.554688 234.753906 654.925781 239.1875 C 657.296875 243.621094 659.554688 248.109375 661.707031 252.65625 C 663.855469 257.199219 665.890625 261.792969 667.816406 266.441406 C 669.738281 271.085938 671.546875 275.773438 673.242188 280.507812 C 674.9375 285.242188 676.511719 290.011719 677.972656 294.824219 C 679.429688 299.636719 680.773438 304.480469 681.992188 309.355469 C 683.214844 314.234375 684.316406 319.136719 685.296875 324.066406 C 686.277344 329 687.136719 333.953125 687.875 338.925781 C 688.613281 343.898438 689.226562 348.886719 689.71875 353.890625 C 690.214844 358.890625 690.582031 363.90625 690.828125 368.925781 C 691.078125 373.949219 691.199219 378.972656 691.199219 384 C 691.199219 389.027344 691.078125 394.050781 690.828125 399.074219 C 690.582031 404.09375 690.214844 409.109375 689.71875 414.109375 C 689.226562 419.113281 688.613281 424.101562 687.875 429.074219 C 687.136719 434.046875 686.277344 439 685.296875 443.933594 C 684.316406 448.863281 683.214844 453.765625 681.992188 458.644531 C 680.773438 463.519531 679.429688 468.363281 677.972656 473.175781 C 676.511719 477.988281 674.9375 482.757812 673.242188 487.492188 C 671.546875 492.226562 669.738281 496.914062 667.816406 501.558594 C 665.890625 506.207031 663.855469 510.800781 661.707031 515.34375 C 659.554688 519.890625 657.296875 524.378906 654.925781 528.8125 C 652.554688 533.246094 650.078125 537.621094 647.492188 541.933594 C 644.910156 546.246094 642.21875 550.492188 639.425781 554.671875 C 636.632812 558.851562 633.738281 562.960938 630.746094 567 C 627.75 571.035156 624.65625 575 621.46875 578.886719 C 618.28125 582.773438 614.996094 586.578125 611.621094 590.304688 C 608.242188 594.027344 604.777344 597.667969 601.222656 601.222656 C 597.667969 604.777344 594.027344 608.242188 590.304688 611.621094 C 586.578125 614.996094 582.773438 618.28125 578.886719 621.46875 C 575 624.65625 571.035156 627.75 567 630.746094 C 562.960938 633.738281 558.851562 636.632812 554.671875 639.425781 C 550.492188 642.21875 546.246094 644.910156 541.933594 647.492188 C 537.621094 650.078125 533.246094 652.554688 528.8125 654.925781 C 524.378906 657.296875 519.890625 659.554688 515.34375 661.707031 C 510.800781 663.855469 506.207031 665.890625 501.558594 667.816406 C 496.914062 669.738281 492.226562 671.546875 487.492188 673.242188 C 482.757812 674.9375 477.988281 676.511719 473.175781 677.972656 C 468.363281 679.429688 463.519531 680.773438 458.644531 681.992188 C 453.765625 683.214844 448.863281 684.316406 443.933594 685.296875 C 439 686.277344 434.046875 687.136719 429.074219 687.875 C 424.101562 688.613281 419.113281 689.226562 414.109375 689.71875 C 409.109375 690.214844 404.09375 690.582031 399.074219 690.828125 C 394.050781 691.078125 389.027344 691.199219 384 691.199219 Z M 384 691.199219 " fill-opacity="1" fill-rule="nonzero"/><path fill="#475dd7" d="M 576 384 L 422.398438 384 L 422.398438 230.398438 C 422.398438 229.140625 422.339844 227.886719 422.214844 226.636719 C 422.089844 225.382812 421.90625 224.140625 421.660156 222.910156 C 421.417969 221.675781 421.113281 220.457031 420.746094 219.253906 C 420.382812 218.050781 419.957031 216.867188 419.476562 215.703125 C 418.996094 214.542969 418.457031 213.40625 417.867188 212.296875 C 417.273438 211.1875 416.625 210.113281 415.929688 209.066406 C 415.230469 208.019531 414.480469 207.011719 413.683594 206.039062 C 412.886719 205.066406 412.042969 204.136719 411.152344 203.246094 C 410.261719 202.359375 409.332031 201.515625 408.359375 200.714844 C 407.386719 199.917969 406.378906 199.171875 405.332031 198.472656 C 404.289062 197.773438 403.210938 197.128906 402.101562 196.535156 C 400.992188 195.941406 399.855469 195.402344 398.695312 194.921875 C 397.53125 194.441406 396.351562 194.019531 395.148438 193.652344 C 393.941406 193.289062 392.726562 192.984375 391.492188 192.738281 C 390.257812 192.492188 389.015625 192.308594 387.765625 192.183594 C 386.511719 192.0625 385.257812 192 384 192 C 382.742188 192 381.488281 192.0625 380.234375 192.183594 C 378.984375 192.308594 377.742188 192.492188 376.507812 192.738281 C 375.273438 192.984375 374.054688 193.289062 372.851562 193.652344 C 371.648438 194.019531 370.46875 194.441406 369.304688 194.921875 C 368.144531 195.402344 367.007812 195.941406 365.898438 196.535156 C 364.789062 197.128906 363.710938 197.773438 362.667969 198.472656 C 361.621094 199.171875 360.613281 199.917969 359.640625 200.714844 C 358.667969 201.515625 357.738281 202.359375 356.847656 203.246094 C 355.957031 204.136719 355.113281 205.066406 354.316406 206.039062 C 353.519531 207.011719 352.769531 208.019531 352.070312 209.066406 C 351.371094 210.113281 350.726562 211.1875 350.132812 212.296875 C 349.542969 213.40625 349.003906 214.542969 348.523438 215.703125 C 348.042969 216.867188 347.617188 218.050781 347.253906 219.253906 C 346.886719 220.457031 346.582031 221.675781 346.335938 222.910156 C 346.09375 224.140625 345.90625 225.382812 345.785156 226.636719 C 345.660156 227.886719 345.601562 229.140625 345.601562 230.398438 L 345.601562 422.398438 C 345.601562 423.65625 345.660156 424.914062 345.785156 426.164062 C 345.90625 427.414062 346.09375 428.65625 346.335938 429.890625 C 346.582031 431.125 346.886719 432.34375 347.253906 433.546875 C 347.617188 434.75 348.042969 435.933594 348.523438 437.09375 C 349.003906 438.257812 349.542969 439.390625 350.132812 440.5 C 350.726562 441.609375 351.371094 442.6875 352.070312 443.734375 C 352.769531 444.78125 353.519531 445.789062 354.316406 446.761719 C 355.113281 447.734375 355.957031 448.664062 356.847656 449.554688 C 357.738281 450.441406 358.667969 451.285156 359.640625 452.082031 C 360.613281 452.882812 361.621094 453.628906 362.667969 454.328125 C 363.710938 455.027344 364.789062 455.671875 365.898438 456.265625 C 367.007812 456.859375 368.144531 457.394531 369.304688 457.875 C 370.46875 458.359375 371.648438 458.78125 372.851562 459.144531 C 374.054688 459.511719 375.273438 459.816406 376.507812 460.0625 C 377.742188 460.308594 378.984375 460.492188 380.234375 460.613281 C 381.488281 460.738281 382.742188 460.800781 384 460.800781 L 576 460.800781 C 577.257812 460.800781 578.511719 460.738281 579.765625 460.613281 C 581.015625 460.492188 582.257812 460.308594 583.492188 460.0625 C 584.726562 459.816406 585.945312 459.511719 587.148438 459.144531 C 588.351562 458.78125 589.53125 458.359375 590.695312 457.875 C 591.855469 457.394531 592.992188 456.859375 594.101562 456.265625 C 595.210938 455.671875 596.289062 455.027344 597.332031 454.328125 C 598.378906 453.628906 599.386719 452.882812 600.359375 452.082031 C 601.332031 451.285156 602.261719 450.441406 603.152344 449.554688 C 604.042969 448.664062 604.886719 447.734375 605.683594 446.761719 C 606.480469 445.789062 607.230469 444.78125 607.929688 443.734375 C 608.628906 442.6875 609.273438 441.609375 609.867188 440.5 C 610.457031 439.390625 610.996094 438.257812 611.476562 437.09375 C 611.957031 435.933594 612.382812 434.75 612.746094 433.546875 C 613.113281 432.34375 613.417969 431.125 613.660156 429.890625 C 613.90625 428.65625 614.089844 427.414062 614.214844 426.164062 C 614.339844 424.914062 614.398438 423.65625 614.398438 422.398438 C 614.398438 421.140625 614.339844 419.886719 614.214844 418.636719 C 614.089844 417.382812 613.90625 416.140625 613.660156 414.910156 C 613.417969 413.675781 613.113281 412.457031 612.746094 411.253906 C 612.382812 410.050781 611.957031 408.867188 611.476562 407.703125 C 610.996094 406.542969 610.457031 405.40625 609.867188 404.296875 C 609.273438 403.1875 608.628906 402.113281 607.929688 401.066406 C 607.230469 400.019531 606.480469 399.011719 605.683594 398.039062 C 604.886719 397.066406 604.042969 396.136719 603.152344 395.246094 C 602.261719 394.359375 601.332031 393.515625 600.359375 392.714844 C 599.386719 391.917969 598.378906 391.171875 597.332031 390.472656 C 596.289062 389.773438 595.210938 389.128906 594.101562 388.535156 C 592.992188 387.941406 591.855469 387.402344 590.695312 386.921875 C 589.53125 386.441406 588.351562 386.019531 587.148438 385.652344 C 585.945312 385.289062 584.726562 384.984375 583.492188 384.738281 C 582.257812 384.492188 581.015625 384.308594 579.765625 384.183594 C 578.511719 384.0625 577.257812 384 576 384 Z M 576 384 " fill-opacity="1" fill-rule="nonzero"/></svg>