<svg xmlns="http://www.w3.org/2000/svg" xmlns:xlink="http://www.w3.org/1999/xlink" width="1024" zoomAndPan="magnify" viewBox="0 0 768 767.999994" height="1024" preserveAspectRatio="xMidYMid meet" version="1.0"><defs><clipPath id="77a3a634ad"><path d="M 3 76.800781 L 758 76.800781 L 758 665 L 3 665 Z M 3 76.800781 " clip-rule="nonzero"/></clipPath></defs><g clip-path="url(#77a3a634ad)"><path fill="#475dd7" d="M 365.109375 396.402344 L 271.460938 490.050781 C 268.585938 492.714844 267.476562 493.117188 265.390625 493.820312 C 255.996094 496.992188 244.5 488.988281 244.699219 478.664062 C 244.773438 474.660156 246.539062 470.847656 249.289062 467.878906 L 356.347656 360.820312 C 362.695312 354.542969 371.386719 350.894531 380.355469 350.714844 C 380.789062 350.710938 380.789062 350.710938 381.222656 350.714844 C 390.132812 350.890625 398.867188 354.523438 405.230469 360.820312 L 512.289062 467.878906 C 514.957031 470.757812 515.355469 471.863281 516.058594 473.949219 C 519.234375 483.355469 511.304688 494.839844 500.902344 494.640625 C 496.898438 494.566406 493.082031 492.800781 490.117188 490.050781 L 396.46875 396.402344 L 396.46875 649.554688 C 396.292969 653.777344 395.710938 654.925781 394.578125 657.015625 C 390.066406 665.355469 377.21875 667.578125 370.171875 661.089844 C 366.988281 658.160156 365.289062 653.910156 365.109375 649.554688 Z M 292.570312 580.152344 L 144.8125 580.152344 C 74.957031 579.921875 8.878906 522.707031 4.152344 448.214844 C 0.515625 390.878906 35.210938 332.886719 89.183594 309.644531 C 102.289062 304 116.285156 300.414062 130.449219 298.941406 L 130.886719 298.898438 C 130.996094 297.972656 131.113281 297.050781 131.230469 296.128906 C 143.085938 205.121094 209.328125 121.1875 299.460938 90.34375 C 325.324219 81.492188 352.710938 77.019531 380.007812 76.886719 C 380.527344 76.886719 381.050781 76.886719 381.570312 76.886719 C 458.285156 77.257812 534.003906 114.796875 580.675781 175.71875 C 607.84375 211.183594 625.234375 253.917969 630.632812 298.398438 C 630.632812 298.398438 628.226562 298.582031 633.785156 299.238281 C 689.316406 306.105469 738.882812 348.144531 753.269531 403.972656 C 767.503906 459.230469 744.777344 521.90625 696.957031 555.089844 C 673.644531 571.269531 645.402344 580.058594 616.765625 580.152344 L 469.007812 580.152344 C 464.773438 579.480469 463.394531 579.773438 459.792969 577.15625 C 451.746094 571.3125 451.625 557.722656 459.792969 551.789062 C 463.394531 549.171875 464.773438 549.464844 469.007812 548.792969 L 616.71875 548.792969 C 671.660156 548.613281 723.644531 502.660156 726.242188 444.128906 C 727.761719 409.882812 712.140625 375.3125 685.414062 353.773438 C 666.1875 338.28125 641.902344 329.652344 616.730469 329.574219 C 616.730469 329.574219 613.699219 329.503906 611.660156 328.871094 C 601.179688 325.628906 600.722656 311.027344 599.074219 298.8125 C 588.796875 222.652344 535.742188 153.683594 463.488281 124.316406 C 399.8125 98.4375 323.882812 104.621094 264.929688 141.183594 C 205.410156 178.09375 165.386719 244.019531 160.933594 314.878906 L 159.929688 319.488281 C 157.539062 323.710938 154.414062 327.480469 149.917969 328.871094 C 145.699219 330.175781 141.390625 329.539062 137.089844 329.839844 C 98.300781 332.546875 61.925781 357.652344 45.464844 392.894531 C 31.496094 422.792969 32.066406 459.039062 46.914062 488.457031 C 65.097656 524.488281 104.589844 548.664062 144.863281 548.792969 L 292.570312 548.792969 C 296.804688 549.464844 298.183594 549.171875 301.785156 551.789062 C 309.691406 557.53125 309.902344 571.257812 301.785156 577.15625 C 298.183594 579.773438 296.804688 579.480469 292.570312 580.152344 Z M 292.570312 580.152344 " fill-opacity="1" fill-rule="evenodd"/></g></svg>