<svg xmlns="http://www.w3.org/2000/svg" xmlns:xlink="http://www.w3.org/1999/xlink" width="1024" zoomAndPan="magnify" viewBox="0 0 768 767.999994" height="1024" preserveAspectRatio="xMidYMid meet" version="1.0"><path fill="#475dd7" d="M 384 11.265625 C 486.910156 11.265625 580.097656 52.992188 647.425781 120.574219 C 715.007812 187.902344 756.734375 281.089844 756.734375 384 C 756.734375 486.910156 715.007812 580.097656 647.425781 647.425781 C 580.097656 715.007812 486.910156 756.734375 384 756.734375 C 281.089844 756.734375 187.902344 715.007812 120.574219 647.425781 C 52.992188 580.097656 11.265625 486.910156 11.265625 384 C 11.265625 281.089844 52.992188 187.902344 120.574219 120.574219 C 187.902344 52.992188 281.089844 11.265625 384 11.265625 Z M 628.480469 139.519531 C 566.015625 77.054688 479.488281 38.398438 384 38.398438 C 288.511719 38.398438 201.984375 77.054688 139.519531 139.519531 C 77.054688 201.984375 38.398438 288.511719 38.398438 384 C 38.398438 479.488281 77.054688 566.015625 139.519531 628.480469 C 201.984375 690.945312 288.511719 729.601562 384 729.601562 C 479.488281 729.601562 566.015625 690.945312 628.480469 628.480469 C 690.945312 566.015625 729.601562 479.488281 729.601562 384 C 729.601562 288.511719 690.945312 201.984375 628.480469 139.519531 Z M 628.480469 139.519531 " fill-opacity="1" fill-rule="nonzero"/><path fill="#475dd7" d="M 384 0 C 489.984375 0 585.984375 43.007812 655.617188 112.382812 C 724.992188 182.015625 768 278.015625 768 384 C 768 489.984375 724.992188 585.984375 655.617188 655.617188 C 585.984375 724.992188 489.984375 768 384 768 C 278.015625 768 182.015625 724.992188 112.382812 655.617188 C 43.007812 585.984375 0 489.984375 0 384 C 0 278.015625 43.007812 182.015625 112.382812 112.382812 C 182.015625 43.007812 278.015625 0 384 0 Z M 635.902344 132.097656 C 571.390625 67.585938 482.304688 27.648438 384 27.648438 C 285.695312 27.648438 196.609375 67.585938 132.097656 132.097656 C 67.585938 196.609375 27.648438 285.695312 27.648438 384 C 27.648438 482.304688 67.585938 571.390625 132.097656 635.902344 C 196.609375 700.414062 285.695312 740.351562 384 740.351562 C 482.304688 740.351562 571.390625 700.414062 635.902344 635.902344 C 700.414062 571.390625 740.351562 482.304688 740.351562 384 C 740.351562 285.695312 700.414062 196.609375 635.902344 132.097656 Z M 635.902344 132.097656 " fill-opacity="1" fill-rule="nonzero"/><path fill="#475dd7" d="M 505.601562 556.800781 L 262.398438 556.800781 C 266.753906 575.742188 281.855469 588.800781 300.03125 588.800781 L 467.96875 588.800781 C 486.144531 588.800781 501.246094 575.742188 505.601562 556.800781 Z M 260.609375 543.230469 L 507.390625 543.230469 L 531.457031 251.390625 L 236.542969 251.390625 Z M 520.449219 550.398438 C 520.449219 550.65625 520.449219 550.65625 520.449219 550.910156 C 517.632812 580.351562 495.359375 602.367188 467.96875 602.367188 L 300.03125 602.367188 C 272.640625 602.367188 250.113281 580.351562 247.550781 550.910156 L 247.550781 550.398438 L 222.976562 251.390625 L 220.671875 251.390625 C 205.824219 251.390625 193.792969 239.359375 193.792969 224.511719 C 193.792969 209.921875 205.824219 197.886719 220.671875 197.886719 L 321.023438 197.886719 L 321.023438 195.070312 C 321.023438 178.945312 334.335938 165.632812 350.71875 165.632812 L 417.28125 165.632812 C 433.664062 165.632812 446.976562 178.945312 446.976562 195.070312 L 446.976562 197.886719 L 547.328125 197.886719 C 562.175781 197.886719 574.207031 209.921875 574.207031 224.511719 C 574.207031 239.359375 562.175781 251.390625 547.328125 251.390625 L 545.023438 251.390625 Z M 228.863281 237.824219 C 229.121094 237.824219 229.375 237.824219 229.375 237.824219 L 547.328125 237.824219 C 554.75 237.824219 560.640625 231.9375 560.640625 224.511719 C 560.640625 217.34375 554.75 211.457031 547.328125 211.457031 L 220.671875 211.457031 C 213.246094 211.457031 207.359375 217.34375 207.359375 224.511719 C 207.359375 231.9375 213.246094 237.824219 220.671875 237.824219 Z M 334.847656 197.886719 L 433.152344 197.886719 L 433.152344 195.070312 C 433.152344 186.367188 425.984375 179.199219 417.28125 179.199219 L 350.71875 179.199219 C 342.015625 179.199219 334.847656 186.367188 334.847656 195.070312 Z M 384 511.742188 C 372.992188 511.742188 364.03125 502.785156 364.03125 491.777344 L 364.03125 306.175781 C 364.03125 295.167969 372.992188 286.207031 384 286.207031 C 395.007812 286.207031 403.96875 295.167969 403.96875 306.175781 L 403.96875 491.777344 C 403.96875 502.785156 395.007812 511.742188 384 511.742188 Z M 384 299.777344 C 380.414062 299.777344 377.601562 302.59375 377.601562 306.175781 L 377.601562 491.777344 C 377.601562 495.359375 380.414062 498.175781 384 498.175781 C 387.582031 498.175781 390.398438 495.359375 390.398438 491.777344 L 390.398438 306.175781 C 390.398438 302.59375 387.582031 299.777344 384 299.777344 Z M 457.214844 511.230469 C 456.703125 511.230469 455.9375 511.230469 455.425781 511.230469 C 450.046875 510.71875 445.183594 508.160156 441.855469 504.0625 C 438.527344 499.96875 436.992188 494.847656 437.761719 489.472656 L 460.800781 304.640625 C 462.078125 293.886719 471.808594 285.695312 482.816406 286.71875 C 488.191406 287.230469 493.054688 289.792969 496.382812 293.886719 C 499.710938 297.984375 501.246094 303.105469 500.480469 308.480469 L 477.441406 493.3125 C 476.160156 503.550781 467.457031 511.230469 457.214844 511.230469 Z M 481.28125 300.289062 C 477.953125 300.289062 474.878906 302.847656 474.367188 306.175781 L 451.328125 491.007812 C 451.070312 492.800781 451.582031 494.335938 452.609375 495.617188 C 453.632812 496.640625 454.910156 497.40625 456.703125 497.664062 C 460.03125 497.921875 463.617188 495.105469 463.871094 491.777344 L 486.910156 306.945312 C 487.167969 305.152344 486.910156 303.617188 485.886719 302.335938 C 484.863281 301.054688 483.328125 300.542969 481.792969 300.289062 C 481.535156 300.289062 481.28125 300.289062 481.28125 300.289062 Z M 310.785156 511.230469 C 300.542969 511.230469 291.839844 503.550781 290.558594 493.3125 L 267.519531 308.480469 C 266.753906 303.105469 268.289062 297.984375 271.617188 293.886719 C 274.945312 289.792969 279.808594 287.230469 285.183594 286.71875 C 296.191406 285.695312 305.921875 293.886719 307.199219 304.640625 L 330.238281 489.472656 C 331.007812 494.847656 329.472656 499.96875 326.144531 504.0625 C 322.816406 508.160156 317.953125 510.71875 312.574219 511.230469 C 312.0625 511.230469 311.296875 511.230469 310.785156 511.230469 Z M 286.71875 300.289062 C 286.71875 300.289062 286.464844 300.289062 286.207031 300.289062 C 284.671875 300.542969 283.136719 301.054688 282.113281 302.335938 C 281.089844 303.617188 280.832031 305.152344 281.089844 306.945312 L 304.128906 491.777344 C 304.382812 495.105469 307.710938 497.921875 311.296875 497.664062 C 313.089844 497.40625 314.367188 496.894531 315.390625 495.617188 C 316.414062 494.335938 316.929688 492.800781 316.671875 491.007812 L 293.632812 306.175781 C 293.121094 302.847656 290.046875 300.289062 286.71875 300.289062 Z M 286.71875 300.289062 " fill-opacity="1" fill-rule="evenodd"/></svg>