<svg xmlns="http://www.w3.org/2000/svg" xmlns:xlink="http://www.w3.org/1999/xlink" width="1024" zoomAndPan="magnify" viewBox="0 0 768 767.999994" height="1024" preserveAspectRatio="xMidYMid meet" version="1.0"><defs><clipPath id="2b8d361090"><path d="M 0 29.761719 L 768 29.761719 L 768 738.511719 L 0 738.511719 Z M 0 29.761719 " clip-rule="nonzero"/></clipPath></defs><g clip-path="url(#2b8d361090)"><path fill="#f0f0f0" d="M 744.359375 130.097656 C 729.4375 115.382812 709.625 107.292969 688.578125 107.292969 C 667.292969 107.292969 647.316406 115.558594 632.332031 130.5625 L 509.894531 253.128906 L 509.894531 95.25 C 509.894531 59.089844 480.5 29.679688 444.386719 29.679688 L 65.574219 29.679688 C 29.445312 29.679688 0.0664062 59.089844 0.0664062 95.25 L 0.0664062 672.5625 C 0.0664062 708.722656 29.460938 738.132812 65.574219 738.132812 L 352.03125 738.132812 C 353.34375 738.132812 354.6875 738.070312 355.980469 737.941406 C 359.929688 737.542969 363.769531 736.566406 367.367188 735.046875 C 367.960938 734.804688 368.535156 734.535156 369.125 734.246094 C 369.734375 733.957031 370.34375 733.65625 371 733.304688 C 371.652344 732.933594 372.292969 732.566406 372.933594 732.167969 L 373.316406 731.945312 L 374.230469 731.335938 C 374.898438 730.886719 375.554688 730.410156 376.082031 729.992188 C 376.484375 729.6875 376.882812 729.386719 377.363281 728.984375 C 377.875 728.554688 378.386719 728.105469 378.929688 727.59375 L 379.824219 726.777344 L 498.808594 603.957031 C 505.960938 596.535156 509.910156 586.78125 509.910156 576.480469 L 509.910156 467.203125 L 515.632812 465.90625 C 516.113281 465.796875 516.578125 465.667969 517.042969 465.539062 C 518.066406 465.269531 519.058594 464.949219 519.984375 464.613281 C 520.480469 464.4375 520.945312 464.261719 521.214844 464.148438 C 524.445312 462.871094 527.46875 461.191406 530.1875 459.160156 C 530.523438 458.917969 530.828125 458.679688 530.972656 458.566406 C 531.722656 457.976562 532.472656 457.351562 533.195312 456.695312 L 533.753906 456.25 L 534.457031 455.527344 L 534.714844 455.289062 L 535.335938 454.617188 L 725.519531 262.628906 L 725.777344 262.402344 L 726.59375 261.539062 L 745.03125 242.925781 C 760.03125 227.78125 768.21875 207.707031 768.09375 186.375 C 767.980469 165.007812 759.535156 145.035156 744.359375 130.097656 Z M 744.359375 130.097656 " fill-opacity="1" fill-rule="evenodd"/></g><path fill="#fffffe" d="M 737.625 136.925781 C 724.496094 124.003906 707.082031 116.871094 688.578125 116.871094 C 669.851562 116.871094 652.289062 124.132812 639.128906 137.324219 L 500.296875 276.285156 L 500.296875 95.234375 C 500.296875 64.367188 475.222656 39.257812 444.386719 39.257812 L 65.574219 39.257812 C 34.738281 39.257812 9.664062 64.367188 9.664062 95.234375 L 9.664062 672.546875 C 9.664062 703.414062 34.738281 728.519531 65.574219 728.519531 L 352.03125 728.519531 C 353.023438 728.519531 354.03125 728.472656 355.039062 728.378906 C 358.027344 728.074219 360.9375 727.339844 363.671875 726.171875 C 364.105469 725.996094 364.535156 725.785156 364.96875 725.578125 C 365.433594 725.355469 365.894531 725.132812 366.375 724.875 C 366.902344 724.585938 367.433594 724.265625 367.945312 723.949219 L 368.214844 723.789062 L 368.839844 723.371094 C 369.335938 723.035156 369.832031 722.667969 370.292969 722.300781 C 370.582031 722.09375 370.871094 721.851562 371.175781 721.597656 C 371.574219 721.261719 371.941406 720.925781 372.359375 720.542969 C 372.515625 720.398438 373.09375 719.871094 373.09375 719.871094 L 491.871094 597.253906 C 497.292969 591.640625 500.28125 584.238281 500.28125 576.449219 L 500.28125 459.511719 L 513.410156 456.535156 C 513.746094 456.457031 514.097656 456.359375 514.433594 456.265625 C 515.234375 456.058594 516.003906 455.800781 516.769531 455.527344 C 517.121094 455.402344 517.457031 455.289062 517.679688 455.191406 C 520.128906 454.234375 522.429688 452.9375 524.476562 451.417969 C 524.703125 451.257812 524.910156 451.082031 525.070312 450.972656 C 525.710938 450.476562 526.316406 449.949219 526.925781 449.402344 L 527.261719 449.117188 L 527.804688 448.554688 L 527.996094 448.378906 L 528.445312 447.902344 L 718.949219 255.574219 L 719.125 255.414062 L 719.699219 254.808594 L 738.203125 236.128906 C 751.394531 222.820312 758.59375 205.148438 758.480469 186.390625 C 758.402344 167.648438 750.980469 150.070312 737.625 136.925781 Z M 737.625 136.925781 " fill-opacity="1" fill-rule="evenodd"/><path fill="#475dd7" d="M 352.046875 709.332031 L 65.589844 709.332031 C 45.328125 709.332031 28.871094 692.824219 28.871094 672.546875 L 28.871094 95.234375 C 28.871094 74.953125 45.34375 58.449219 65.589844 58.449219 L 444.402344 58.449219 C 464.632812 58.449219 481.121094 74.953125 481.121094 95.234375 L 481.121094 348.667969 C 481.121094 354.617188 476.292969 359.429688 470.359375 359.429688 C 464.410156 359.429688 459.597656 354.617188 459.597656 348.667969 L 459.597656 95.25 C 459.597656 86.835938 452.769531 80.007812 444.402344 80.007812 L 65.605469 80.007812 C 57.226562 80.007812 50.410156 86.851562 50.410156 95.265625 L 50.410156 672.578125 C 50.410156 680.992188 57.226562 687.835938 65.605469 687.835938 L 347.488281 687.835938 L 459.597656 572.113281 L 459.597656 435.601562 C 459.597656 429.652344 464.410156 424.839844 470.359375 424.839844 C 476.308594 424.839844 481.121094 429.652344 481.121094 435.601562 L 481.121094 576.480469 C 481.121094 579.261719 480.035156 581.964844 478.101562 583.964844 L 359.789062 706.101562 C 357.742188 708.148438 354.957031 709.332031 352.046875 709.332031 Z M 352.046875 709.332031 " fill-opacity="1" fill-rule="evenodd"/><path fill="#475dd7" d="M 352.046875 709.332031 C 346.113281 709.332031 341.285156 704.515625 341.285156 698.566406 L 341.285156 576.160156 C 341.285156 570.210938 346.097656 565.398438 352.046875 565.398438 L 470.34375 565.398438 C 476.292969 565.398438 481.105469 570.210938 481.105469 576.160156 C 481.105469 582.109375 476.292969 586.921875 470.34375 586.921875 L 362.808594 586.921875 L 362.808594 698.566406 C 362.808594 704.515625 357.980469 709.332031 352.046875 709.332031 Z M 352.046875 709.332031 " fill-opacity="1" fill-rule="evenodd"/><path fill="#475dd7" d="M 456.636719 377.613281 L 442.566406 430.835938 L 501.242188 417.53125 L 709.304688 207.46875 C 714.820312 201.902344 717.84375 194.5 717.796875 186.664062 C 717.746094 178.792969 714.644531 171.4375 709.046875 165.9375 C 697.660156 154.742188 679.238281 154.804688 667.945312 166.113281 Z M 427.613281 456.023438 C 424.71875 456.023438 421.917969 454.855469 419.855469 452.730469 C 417.25 450.011719 416.242188 446.140625 417.199219 442.496094 L 436.550781 369.296875 C 437.03125 367.457031 437.992188 365.796875 439.335938 364.453125 L 652.691406 150.886719 C 672.3125 131.234375 704.363281 131.105469 724.144531 150.597656 C 733.851562 160.148438 739.226562 172.910156 739.304688 186.519531 C 739.386719 200.144531 734.15625 212.96875 724.59375 222.628906 L 514.324219 434.914062 C 512.882812 436.371094 511.042969 437.394531 509.046875 437.839844 L 429.976562 455.753906 C 429.210938 455.929688 428.410156 456.023438 427.613281 456.023438 Z M 427.613281 456.023438 " fill-opacity="1" fill-rule="evenodd"/><path fill="#475dd7" d="M 698.09375 244.859375 C 695.40625 244.859375 692.703125 243.867188 690.625 241.851562 L 633.066406 186.277344 C 628.78125 182.136719 628.667969 175.339844 632.78125 171.054688 C 636.921875 166.785156 643.71875 166.65625 648.003906 170.765625 L 705.578125 226.355469 C 709.847656 230.5 709.976562 237.296875 705.847656 241.582031 C 703.722656 243.773438 700.90625 244.859375 698.09375 244.859375 Z M 698.09375 244.859375 " fill-opacity="1" fill-rule="evenodd"/><path fill="#475dd7" d="M 506.679688 438.113281 C 504.054688 438.113281 501.433594 437.152344 499.355469 435.234375 L 439.671875 379.949219 C 435.304688 375.917969 435.046875 369.105469 439.078125 364.738281 C 443.109375 360.375 449.921875 360.117188 454.289062 364.148438 L 514.003906 419.417969 C 518.371094 423.464844 518.625 430.261719 514.59375 434.644531 C 512.453125 436.945312 509.574219 438.113281 506.679688 438.113281 Z M 506.679688 438.113281 " fill-opacity="1" fill-rule="evenodd"/><path fill="#475dd7" d="M 385.472656 168.113281 L 120.425781 168.113281 C 114.476562 168.113281 109.664062 163.296875 109.664062 157.347656 C 109.664062 151.398438 114.476562 146.585938 120.425781 146.585938 L 385.472656 146.585938 C 391.421875 146.585938 396.234375 151.414062 396.234375 157.347656 C 396.234375 163.296875 391.40625 168.113281 385.472656 168.113281 Z M 385.472656 168.113281 " fill-opacity="1" fill-rule="evenodd"/><path fill="#475dd7" d="M 385.472656 247.113281 L 120.425781 247.113281 C 114.476562 247.113281 109.664062 242.300781 109.664062 236.351562 C 109.664062 230.402344 114.476562 225.589844 120.425781 225.589844 L 385.472656 225.589844 C 391.421875 225.589844 396.234375 230.402344 396.234375 236.351562 C 396.234375 242.300781 391.40625 247.113281 385.472656 247.113281 Z M 385.472656 247.113281 " fill-opacity="1" fill-rule="evenodd"/><path fill="#475dd7" d="M 385.472656 323.175781 L 120.425781 323.175781 C 114.476562 323.175781 109.664062 318.359375 109.664062 312.410156 C 109.664062 306.460938 114.476562 301.648438 120.425781 301.648438 L 385.472656 301.648438 C 391.421875 301.648438 396.234375 306.480469 396.234375 312.410156 C 396.234375 318.359375 391.40625 323.175781 385.472656 323.175781 Z M 385.472656 323.175781 " fill-opacity="1" fill-rule="evenodd"/><path fill="#475dd7" d="M 385.472656 402.179688 L 120.425781 402.179688 C 114.476562 402.179688 109.664062 397.363281 109.664062 391.429688 C 109.664062 385.464844 114.476562 380.667969 120.425781 380.667969 L 385.472656 380.667969 C 391.421875 380.667969 396.234375 385.480469 396.234375 391.429688 C 396.234375 397.363281 391.40625 402.179688 385.472656 402.179688 Z M 385.472656 402.179688 " fill-opacity="1" fill-rule="evenodd"/><path fill="#475dd7" d="M 304.214844 481.179688 L 120.425781 481.179688 C 114.476562 481.179688 109.664062 476.367188 109.664062 470.417969 C 109.664062 464.46875 114.476562 459.65625 120.425781 459.65625 L 304.199219 459.65625 C 310.148438 459.65625 314.960938 464.484375 314.960938 470.417969 C 314.976562 476.367188 310.148438 481.179688 304.214844 481.179688 Z M 304.214844 481.179688 " fill-opacity="1" fill-rule="evenodd"/></svg>