<svg xmlns="http://www.w3.org/2000/svg" xmlns:xlink="http://www.w3.org/1999/xlink" width="1024" zoomAndPan="magnify" viewBox="0 0 768 767.999994" height="1024" preserveAspectRatio="xMidYMid meet" version="1.0"><defs><clipPath id="dc2fa12d40"><path d="M 151 0 L 626.101562 0 L 626.101562 768 L 151 768 Z M 151 0 " clip-rule="nonzero"/></clipPath></defs><g clip-path="url(#dc2fa12d40)"><path fill="#475dd7" d="M 341.898438 97.242188 C 341.886719 100.355469 341.722656 103.460938 341.410156 106.558594 C 341.09375 109.65625 340.632812 112.730469 340.019531 115.78125 C 339.40625 118.835938 338.644531 121.851562 337.742188 124.828125 C 336.835938 127.804688 335.785156 130.734375 334.59375 133.609375 C 333.40625 136.484375 332.078125 139.296875 330.613281 142.042969 C 329.148438 144.792969 327.554688 147.460938 325.832031 150.054688 C 324.105469 152.644531 322.261719 155.148438 320.292969 157.558594 C 318.328125 159.972656 316.246094 162.285156 314.054688 164.496094 C 312.964844 165.609375 311.84375 166.695312 310.699219 167.753906 C 309.550781 168.816406 308.378906 169.84375 307.179688 170.847656 C 305.984375 171.847656 304.761719 172.816406 303.515625 173.757812 C 302.269531 174.699219 301 175.605469 299.710938 176.484375 C 298.417969 177.359375 297.105469 178.203125 295.773438 179.015625 C 294.441406 179.828125 293.089844 180.605469 291.714844 181.351562 C 290.34375 182.097656 288.957031 182.804688 287.546875 183.480469 C 286.140625 184.15625 284.71875 184.796875 283.277344 185.402344 C 281.839844 186.007812 280.386719 186.574219 278.917969 187.105469 C 277.453125 187.640625 275.972656 188.136719 274.480469 188.59375 C 272.988281 189.054688 271.484375 189.472656 269.972656 189.859375 C 268.460938 190.242188 266.9375 190.589844 265.410156 190.898438 C 263.878906 191.207031 262.34375 191.476562 260.796875 191.707031 C 259.253906 191.941406 257.707031 192.132812 256.152344 192.289062 C 254.601562 192.441406 253.042969 192.558594 251.484375 192.636719 C 249.925781 192.714844 248.367188 192.753906 246.804688 192.753906 C 245.246094 192.753906 243.683594 192.714844 242.125 192.636719 C 240.566406 192.558594 239.011719 192.441406 237.457031 192.289062 C 235.90625 192.132812 234.355469 191.941406 232.8125 191.707031 C 231.269531 191.476562 229.730469 191.207031 228.203125 190.898438 C 226.671875 190.589844 225.152344 190.242188 223.636719 189.859375 C 222.125 189.472656 220.621094 189.054688 219.128906 188.59375 C 217.636719 188.136719 216.160156 187.640625 214.691406 187.105469 C 213.222656 186.574219 211.769531 186.007812 210.332031 185.402344 C 208.894531 184.796875 207.46875 184.15625 206.0625 183.480469 C 204.65625 182.804688 203.265625 182.097656 201.894531 181.351562 C 200.523438 180.605469 199.171875 179.828125 197.835938 179.015625 C 196.503906 178.203125 195.191406 177.359375 193.902344 176.484375 C 192.609375 175.605469 191.339844 174.699219 190.09375 173.757812 C 188.847656 172.816406 187.628906 171.847656 186.429688 170.847656 C 185.230469 169.84375 184.058594 168.816406 182.914062 167.753906 C 181.765625 166.695312 180.648438 165.609375 179.554688 164.496094 C 178.453125 163.378906 177.378906 162.238281 176.332031 161.070312 C 175.289062 159.902344 174.269531 158.710938 173.28125 157.492188 C 172.296875 156.273438 171.335938 155.035156 170.410156 153.769531 C 169.480469 152.503906 168.585938 151.21875 167.722656 149.910156 C 166.855469 148.605469 166.023438 147.277344 165.222656 145.929688 C 164.421875 144.578125 163.65625 143.214844 162.921875 141.828125 C 162.1875 140.441406 161.488281 139.039062 160.824219 137.621094 C 160.160156 136.199219 159.527344 134.765625 158.933594 133.316406 C 158.339844 131.863281 157.777344 130.398438 157.253906 128.921875 C 156.730469 127.445312 156.242188 125.957031 155.789062 124.453125 C 155.339844 122.953125 154.925781 121.441406 154.546875 119.917969 C 154.167969 118.398438 153.828125 116.867188 153.523438 115.332031 C 153.222656 113.792969 152.953125 112.246094 152.726562 110.695312 C 152.5 109.144531 152.308594 107.589844 152.15625 106.027344 C 152.003906 104.46875 151.890625 102.90625 151.8125 101.339844 C 151.734375 99.773438 151.699219 98.207031 151.699219 96.640625 C 151.699219 95.070312 151.734375 93.503906 151.8125 91.9375 C 151.890625 90.371094 152.003906 88.808594 152.15625 87.25 C 152.308594 85.6875 152.5 84.132812 152.726562 82.582031 C 152.953125 81.03125 153.222656 79.484375 153.523438 77.949219 C 153.828125 76.410156 154.167969 74.878906 154.546875 73.359375 C 154.925781 71.835938 155.339844 70.324219 155.789062 68.824219 C 156.242188 67.320312 156.730469 65.832031 157.253906 64.355469 C 157.777344 62.878906 158.339844 61.414062 158.933594 59.964844 C 159.527344 58.511719 160.160156 57.078125 160.824219 55.65625 C 161.488281 54.238281 162.1875 52.835938 162.921875 51.449219 C 163.65625 50.066406 164.421875 48.699219 165.222656 47.351562 C 166.023438 46 166.855469 44.671875 167.722656 43.367188 C 168.585938 42.058594 169.480469 40.773438 170.410156 39.507812 C 171.335938 38.246094 172.296875 37.003906 173.28125 35.785156 C 174.269531 34.570312 175.289062 33.375 176.332031 32.207031 C 177.378906 31.039062 178.453125 29.898438 179.554688 28.78125 C 180.648438 27.667969 181.765625 26.582031 182.914062 25.523438 C 184.058594 24.460938 185.230469 23.433594 186.429688 22.433594 C 187.628906 21.429688 188.847656 20.460938 190.09375 19.519531 C 191.339844 18.578125 192.609375 17.671875 193.902344 16.792969 C 195.191406 15.917969 196.503906 15.074219 197.835938 14.261719 C 199.171875 13.449219 200.523438 12.671875 201.894531 11.925781 C 203.265625 11.179688 204.65625 10.472656 206.0625 9.796875 C 207.46875 9.121094 208.894531 8.480469 210.332031 7.875 C 211.769531 7.269531 213.222656 6.703125 214.691406 6.171875 C 216.160156 5.636719 217.636719 5.140625 219.128906 4.683594 C 220.621094 4.226562 222.125 3.804688 223.636719 3.417969 C 225.152344 3.035156 226.671875 2.6875 228.203125 2.378906 C 229.730469 2.070312 231.269531 1.800781 232.8125 1.570312 C 234.355469 1.339844 235.90625 1.144531 237.457031 0.988281 C 239.011719 0.835938 240.566406 0.71875 242.125 0.640625 C 243.683594 0.5625 245.246094 0.523438 246.804688 0.523438 C 248.367188 0.523438 249.925781 0.5625 251.484375 0.640625 C 253.042969 0.71875 254.601562 0.835938 256.152344 0.988281 C 257.707031 1.144531 259.253906 1.335938 260.796875 1.570312 C 262.34375 1.800781 263.878906 2.070312 265.410156 2.378906 C 266.9375 2.6875 268.460938 3.035156 269.972656 3.417969 C 271.484375 3.804688 272.988281 4.226562 274.480469 4.683594 C 275.972656 5.140625 277.453125 5.636719 278.917969 6.171875 C 280.386719 6.703125 281.839844 7.269531 283.277344 7.875 C 284.71875 8.480469 286.140625 9.121094 287.546875 9.796875 C 288.957031 10.472656 290.34375 11.179688 291.714844 11.925781 C 293.089844 12.671875 294.441406 13.449219 295.773438 14.261719 C 297.105469 15.074219 298.417969 15.917969 299.710938 16.792969 C 301 17.671875 302.269531 18.578125 303.515625 19.519531 C 304.761719 20.460938 305.984375 21.429688 307.179688 22.433594 C 308.378906 23.433594 309.550781 24.460938 310.699219 25.523438 C 311.84375 26.582031 312.964844 27.667969 314.054688 28.78125 C 316.265625 31.023438 318.359375 33.363281 320.34375 35.804688 C 322.324219 38.25 324.179688 40.785156 325.914062 43.410156 C 327.648438 46.035156 329.25 48.738281 330.71875 51.519531 C 332.1875 54.300781 333.515625 57.148438 334.707031 60.058594 C 335.898438 62.96875 336.945312 65.933594 337.847656 68.945312 C 338.75 71.960938 339.5 75.011719 340.105469 78.097656 C 340.707031 81.183594 341.160156 84.292969 341.457031 87.425781 C 341.757812 90.554688 341.90625 93.695312 341.898438 96.839844 Z M 627.039062 97.242188 C 627.042969 98.808594 627.011719 100.367188 626.9375 101.929688 C 626.867188 103.492188 626.753906 105.050781 626.605469 106.605469 C 626.457031 108.160156 626.269531 109.710938 626.046875 111.257812 C 625.820312 112.804688 625.558594 114.347656 625.257812 115.878906 C 624.957031 117.414062 624.617188 118.9375 624.242188 120.457031 C 623.867188 121.972656 623.457031 123.480469 623.003906 124.976562 C 622.554688 126.472656 622.070312 127.957031 621.546875 129.429688 C 621.027344 130.90625 620.46875 132.363281 619.875 133.808594 C 619.28125 135.253906 618.648438 136.683594 617.984375 138.101562 C 617.320312 139.515625 616.625 140.910156 615.890625 142.292969 C 615.15625 143.671875 614.390625 145.035156 613.589844 146.378906 C 612.792969 147.71875 611.960938 149.042969 611.09375 150.34375 C 610.230469 151.644531 609.335938 152.925781 608.40625 154.183594 C 607.480469 155.441406 606.523438 156.675781 605.535156 157.886719 C 604.546875 159.097656 603.527344 160.285156 602.480469 161.445312 C 601.4375 162.605469 600.363281 163.742188 599.261719 164.847656 C 598.15625 165.957031 597.027344 167.039062 595.875 168.089844 C 594.71875 169.144531 593.539062 170.167969 592.332031 171.160156 C 591.128906 172.15625 589.898438 173.121094 588.648438 174.054688 C 587.394531 174.992188 586.121094 175.894531 584.820312 176.765625 C 583.523438 177.636719 582.207031 178.476562 580.871094 179.285156 C 579.53125 180.089844 578.171875 180.867188 576.796875 181.605469 C 575.421875 182.347656 574.027344 183.054688 572.617188 183.726562 C 571.207031 184.398438 569.777344 185.035156 568.335938 185.636719 C 566.894531 186.238281 565.4375 186.804688 563.96875 187.335938 C 562.5 187.867188 561.015625 188.359375 559.523438 188.820312 C 558.027344 189.277344 556.523438 189.699219 555.007812 190.082031 C 553.492188 190.464844 551.96875 190.8125 550.4375 191.121094 C 548.90625 191.429688 547.367188 191.703125 545.820312 191.9375 C 544.277344 192.167969 542.726562 192.363281 541.171875 192.523438 C 539.617188 192.679688 538.058594 192.800781 536.5 192.878906 C 534.9375 192.960938 533.375 193.003906 531.8125 193.007812 C 528.691406 193.011719 525.578125 192.863281 522.472656 192.558594 C 519.367188 192.253906 516.28125 191.796875 513.222656 191.183594 C 510.160156 190.574219 507.136719 189.8125 504.152344 188.898438 C 501.167969 187.988281 498.238281 186.929688 495.355469 185.726562 C 492.476562 184.523438 489.664062 183.179688 486.917969 181.695312 C 484.171875 180.210938 481.507812 178.59375 478.921875 176.847656 C 476.335938 175.097656 473.84375 173.226562 471.445312 171.230469 C 469.046875 169.234375 466.75 167.121094 464.5625 164.898438 C 463.460938 163.78125 462.386719 162.640625 461.339844 161.472656 C 460.296875 160.304688 459.277344 159.113281 458.289062 157.894531 C 457.300781 156.675781 456.34375 155.4375 455.417969 154.171875 C 454.488281 152.910156 453.59375 151.625 452.726562 150.316406 C 451.863281 149.007812 451.03125 147.679688 450.230469 146.332031 C 449.429688 144.984375 448.664062 143.617188 447.929688 142.230469 C 447.195312 140.84375 446.496094 139.441406 445.832031 138.023438 C 445.167969 136.601562 444.535156 135.167969 443.941406 133.71875 C 443.34375 132.269531 442.785156 130.804688 442.261719 129.324219 C 441.738281 127.847656 441.25 126.359375 440.796875 124.859375 C 440.347656 123.355469 439.929688 121.84375 439.554688 120.324219 C 439.175781 118.800781 438.835938 117.273438 438.53125 115.734375 C 438.226562 114.195312 437.960938 112.652344 437.734375 111.101562 C 437.503906 109.546875 437.316406 107.992188 437.164062 106.433594 C 437.011719 104.871094 436.894531 103.308594 436.820312 101.742188 C 436.742188 100.175781 436.707031 98.609375 436.707031 97.042969 C 436.707031 95.472656 436.742188 93.90625 436.820312 92.339844 C 436.894531 90.777344 437.011719 89.210938 437.164062 87.652344 C 437.316406 86.09375 437.503906 84.535156 437.734375 82.984375 C 437.960938 81.433594 438.226562 79.890625 438.53125 78.351562 C 438.835938 76.8125 439.175781 75.28125 439.554688 73.761719 C 439.929688 72.238281 440.347656 70.726562 440.796875 69.226562 C 441.25 67.726562 441.738281 66.234375 442.261719 64.757812 C 442.785156 63.28125 443.34375 61.816406 443.941406 60.367188 C 444.535156 58.917969 445.167969 57.480469 445.832031 56.0625 C 446.496094 54.640625 447.195312 53.238281 447.929688 51.855469 C 448.664062 50.46875 449.429688 49.101562 450.230469 47.753906 C 451.03125 46.40625 451.863281 45.078125 452.726562 43.769531 C 453.59375 42.460938 454.488281 41.175781 455.417969 39.910156 C 456.34375 38.648438 457.300781 37.40625 458.289062 36.191406 C 459.277344 34.972656 460.296875 33.78125 461.339844 32.613281 C 462.386719 31.445312 463.460938 30.300781 464.5625 29.1875 C 465.65625 28.070312 466.773438 26.984375 467.921875 25.925781 C 469.066406 24.867188 470.238281 23.835938 471.4375 22.835938 C 472.632812 21.835938 473.855469 20.863281 475.101562 19.921875 C 476.347656 18.984375 477.617188 18.074219 478.90625 17.199219 C 480.199219 16.320312 481.511719 15.476562 482.84375 14.664062 C 484.175781 13.851562 485.53125 13.074219 486.902344 12.328125 C 488.273438 11.585938 489.664062 10.875 491.070312 10.199219 C 492.476562 9.523438 493.902344 8.882812 495.339844 8.28125 C 496.777344 7.675781 498.230469 7.105469 499.699219 6.574219 C 501.167969 6.042969 502.644531 5.546875 504.136719 5.085938 C 505.628906 4.628906 507.132812 4.207031 508.644531 3.824219 C 510.15625 3.4375 511.679688 3.09375 513.210938 2.785156 C 514.738281 2.476562 516.277344 2.207031 517.820312 1.972656 C 519.363281 1.742188 520.910156 1.546875 522.464844 1.394531 C 524.019531 1.238281 525.574219 1.121094 527.132812 1.042969 C 528.691406 0.964844 530.25 0.925781 531.8125 0.925781 C 533.375 0.925781 534.933594 0.964844 536.492188 1.042969 C 538.050781 1.121094 539.609375 1.238281 541.160156 1.394531 C 542.714844 1.546875 544.261719 1.742188 545.804688 1.972656 C 547.347656 2.207031 548.886719 2.476562 550.417969 2.785156 C 551.945312 3.09375 553.46875 3.4375 554.980469 3.824219 C 556.492188 4.207031 557.996094 4.628906 559.488281 5.085938 C 560.980469 5.546875 562.460938 6.042969 563.925781 6.574219 C 565.394531 7.105469 566.847656 7.675781 568.285156 8.28125 C 569.726562 8.882812 571.148438 9.523438 572.554688 10.199219 C 573.960938 10.875 575.351562 11.585938 576.722656 12.328125 C 578.09375 13.074219 579.449219 13.851562 580.78125 14.664062 C 582.113281 15.476562 583.425781 16.320312 584.71875 17.199219 C 586.007812 18.074219 587.277344 18.984375 588.523438 19.921875 C 589.769531 20.863281 590.992188 21.835938 592.1875 22.835938 C 593.386719 23.835938 594.558594 24.867188 595.703125 25.925781 C 596.851562 26.984375 597.972656 28.070312 599.0625 29.1875 C 601.273438 31.425781 603.367188 33.765625 605.347656 36.210938 C 607.332031 38.652344 609.1875 41.1875 610.921875 43.8125 C 612.652344 46.4375 614.253906 49.140625 615.726562 51.921875 C 617.195312 54.703125 618.523438 57.550781 619.714844 60.460938 C 620.90625 63.375 621.953125 66.335938 622.855469 69.347656 C 623.753906 72.363281 624.507812 75.414062 625.113281 78.5 C 625.714844 81.589844 626.167969 84.699219 626.464844 87.828125 C 626.765625 90.960938 626.910156 94.097656 626.90625 97.242188 Z M 341.898438 384.671875 C 341.90625 387.816406 341.757812 390.957031 341.457031 394.089844 C 341.160156 397.21875 340.707031 400.328125 340.105469 403.414062 C 339.5 406.503906 338.75 409.554688 337.847656 412.566406 C 336.945312 415.582031 335.898438 418.542969 334.707031 421.453125 C 333.515625 424.367188 332.1875 427.210938 330.71875 429.996094 C 329.25 432.777344 327.648438 435.480469 325.914062 438.105469 C 324.179688 440.730469 322.324219 443.261719 320.34375 445.707031 C 318.359375 448.148438 316.265625 450.492188 314.054688 452.730469 C 312.964844 453.84375 311.84375 454.933594 310.699219 455.992188 C 309.550781 457.050781 308.378906 458.082031 307.179688 459.082031 C 305.984375 460.082031 304.761719 461.054688 303.515625 461.992188 C 302.269531 462.933594 301 463.84375 299.710938 464.71875 C 298.417969 465.597656 297.105469 466.441406 295.773438 467.253906 C 294.441406 468.0625 293.089844 468.84375 291.714844 469.585938 C 290.34375 470.332031 288.957031 471.042969 287.546875 471.71875 C 286.140625 472.390625 284.71875 473.03125 283.277344 473.636719 C 281.839844 474.242188 280.386719 474.808594 278.917969 475.34375 C 277.453125 475.875 275.972656 476.371094 274.480469 476.828125 C 272.988281 477.289062 271.488281 477.710938 269.972656 478.09375 C 268.460938 478.476562 266.9375 478.824219 265.410156 479.132812 C 263.878906 479.441406 262.34375 479.710938 260.796875 479.941406 C 259.253906 480.175781 257.707031 480.367188 256.152344 480.523438 C 254.601562 480.679688 253.042969 480.796875 251.484375 480.871094 C 249.925781 480.949219 248.367188 480.988281 246.804688 480.988281 C 245.246094 480.988281 243.683594 480.949219 242.125 480.871094 C 240.566406 480.796875 239.011719 480.679688 237.457031 480.523438 C 235.90625 480.367188 234.355469 480.175781 232.8125 479.941406 C 231.269531 479.710938 229.730469 479.441406 228.203125 479.132812 C 226.671875 478.824219 225.152344 478.476562 223.636719 478.09375 C 222.125 477.710938 220.621094 477.289062 219.128906 476.828125 C 217.636719 476.371094 216.160156 475.875 214.691406 475.34375 C 213.222656 474.808594 211.769531 474.242188 210.332031 473.636719 C 208.894531 473.03125 207.46875 472.390625 206.0625 471.71875 C 204.65625 471.042969 203.265625 470.332031 201.894531 469.585938 C 200.523438 468.84375 199.171875 468.0625 197.835938 467.253906 C 196.503906 466.441406 195.191406 465.597656 193.902344 464.71875 C 192.609375 463.84375 191.339844 462.933594 190.09375 461.992188 C 188.847656 461.054688 187.628906 460.082031 186.429688 459.082031 C 185.230469 458.082031 184.058594 457.050781 182.914062 455.992188 C 181.765625 454.933594 180.648438 453.84375 179.554688 452.730469 C 178.453125 451.613281 177.382812 450.46875 176.339844 449.296875 C 175.292969 448.128906 174.277344 446.933594 173.292969 445.714844 C 172.304688 444.492188 171.347656 443.25 170.421875 441.984375 C 169.496094 440.71875 168.601562 439.429688 167.738281 438.121094 C 166.875 436.8125 166.042969 435.480469 165.242188 434.132812 C 164.445312 432.78125 163.679688 431.414062 162.945312 430.027344 C 162.214844 428.640625 161.515625 427.234375 160.851562 425.816406 C 160.1875 424.394531 159.558594 422.957031 158.964844 421.503906 C 158.367188 420.054688 157.808594 418.589844 157.285156 417.109375 C 156.765625 415.632812 156.277344 414.140625 155.824219 412.636719 C 155.375 411.136719 154.960938 409.625 154.582031 408.101562 C 154.207031 406.578125 153.867188 405.046875 153.5625 403.507812 C 153.261719 401.96875 152.996094 400.425781 152.765625 398.871094 C 152.539062 397.320312 152.347656 395.761719 152.199219 394.203125 C 152.046875 392.640625 151.929688 391.078125 151.855469 389.511719 C 151.777344 387.945312 151.742188 386.375 151.742188 384.808594 C 151.742188 383.238281 151.777344 381.671875 151.855469 380.105469 C 151.929688 378.539062 152.046875 376.972656 152.199219 375.410156 C 152.347656 373.851562 152.539062 372.292969 152.765625 370.742188 C 152.996094 369.191406 153.261719 367.644531 153.5625 366.105469 C 153.867188 364.566406 154.207031 363.035156 154.582031 361.511719 C 154.960938 359.992188 155.375 358.476562 155.824219 356.976562 C 156.277344 355.472656 156.765625 353.984375 157.285156 352.503906 C 157.808594 351.023438 158.367188 349.558594 158.964844 348.109375 C 159.558594 346.65625 160.1875 345.21875 160.851562 343.800781 C 161.515625 342.378906 162.214844 340.972656 162.945312 339.585938 C 163.679688 338.199219 164.445312 336.832031 165.242188 335.480469 C 166.042969 334.132812 166.875 332.800781 167.738281 331.492188 C 168.601562 330.183594 169.496094 328.894531 170.421875 327.628906 C 171.347656 326.363281 172.304688 325.121094 173.292969 323.902344 C 174.277344 322.679688 175.292969 321.488281 176.339844 320.316406 C 177.382812 319.144531 178.453125 318.003906 179.554688 316.882812 C 180.648438 315.769531 181.765625 314.683594 182.914062 313.621094 C 184.058594 312.5625 185.230469 311.535156 186.429688 310.53125 C 187.628906 309.53125 188.847656 308.5625 190.09375 307.621094 C 191.339844 306.679688 192.609375 305.773438 193.902344 304.894531 C 195.191406 304.019531 196.503906 303.171875 197.835938 302.363281 C 199.171875 301.550781 200.523438 300.773438 201.894531 300.027344 C 203.265625 299.28125 204.65625 298.574219 206.0625 297.898438 C 207.46875 297.222656 208.894531 296.582031 210.332031 295.976562 C 211.769531 295.371094 213.222656 294.804688 214.691406 294.269531 C 216.160156 293.738281 217.636719 293.242188 219.128906 292.785156 C 220.621094 292.324219 222.125 291.902344 223.636719 291.519531 C 225.152344 291.136719 226.671875 290.789062 228.203125 290.480469 C 229.730469 290.171875 231.269531 289.902344 232.8125 289.671875 C 234.355469 289.4375 235.90625 289.246094 237.457031 289.089844 C 239.011719 288.933594 240.566406 288.820312 242.125 288.742188 C 243.683594 288.664062 245.246094 288.625 246.804688 288.625 C 248.367188 288.625 249.925781 288.664062 251.484375 288.742188 C 253.042969 288.820312 254.601562 288.933594 256.152344 289.089844 C 257.707031 289.246094 259.253906 289.4375 260.796875 289.671875 C 262.34375 289.902344 263.878906 290.171875 265.410156 290.480469 C 266.9375 290.789062 268.460938 291.136719 269.972656 291.519531 C 271.484375 291.902344 272.988281 292.324219 274.480469 292.785156 C 275.972656 293.242188 277.453125 293.738281 278.917969 294.269531 C 280.386719 294.804688 281.839844 295.371094 283.277344 295.976562 C 284.71875 296.582031 286.140625 297.222656 287.546875 297.898438 C 288.957031 298.574219 290.34375 299.28125 291.714844 300.027344 C 293.089844 300.773438 294.441406 301.550781 295.773438 302.363281 C 297.105469 303.171875 298.417969 304.019531 299.710938 304.894531 C 301 305.773438 302.269531 306.679688 303.515625 307.621094 C 304.761719 308.5625 305.984375 309.53125 307.179688 310.53125 C 308.378906 311.535156 309.550781 312.5625 310.699219 313.621094 C 311.84375 314.683594 312.964844 315.769531 314.054688 316.882812 C 316.246094 319.097656 318.320312 321.410156 320.285156 323.824219 C 322.25 326.238281 324.09375 328.742188 325.816406 331.332031 C 327.539062 333.925781 329.132812 336.597656 330.59375 339.34375 C 332.058594 342.089844 333.382812 344.902344 334.574219 347.777344 C 335.765625 350.652344 336.8125 353.578125 337.722656 356.558594 C 338.628906 359.535156 339.386719 362.550781 340.003906 365.601562 C 340.617188 368.652344 341.082031 371.726562 341.398438 374.820312 C 341.714844 377.917969 341.882812 381.023438 341.898438 384.132812 Z M 627.039062 384.671875 C 627.054688 386.238281 627.027344 387.804688 626.964844 389.371094 C 626.898438 390.9375 626.796875 392.5 626.65625 394.058594 C 626.515625 395.621094 626.335938 397.175781 626.117188 398.726562 C 625.898438 400.28125 625.640625 401.824219 625.347656 403.363281 C 625.054688 404.902344 624.722656 406.433594 624.351562 407.957031 C 623.980469 409.480469 623.574219 410.992188 623.128906 412.496094 C 622.6875 413.996094 622.203125 415.488281 621.6875 416.964844 C 621.167969 418.445312 620.613281 419.910156 620.023438 421.363281 C 619.433594 422.8125 618.808594 424.25 618.144531 425.667969 C 617.484375 427.089844 616.789062 428.492188 616.058594 429.878906 C 615.328125 431.265625 614.5625 432.632812 613.765625 433.980469 C 612.96875 435.328125 612.136719 436.65625 611.273438 437.964844 C 610.410156 439.273438 609.511719 440.558594 608.585938 441.820312 C 607.660156 443.085938 606.703125 444.324219 605.714844 445.539062 C 604.726562 446.757812 603.707031 447.945312 602.660156 449.113281 C 601.613281 450.277344 600.539062 451.417969 599.433594 452.53125 C 598.332031 453.644531 597.203125 454.726562 596.046875 455.785156 C 594.886719 456.839844 593.707031 457.867188 592.5 458.867188 C 591.289062 459.867188 590.058594 460.832031 588.804688 461.773438 C 587.550781 462.710938 586.269531 463.617188 584.972656 464.488281 C 583.671875 465.363281 582.351562 466.207031 581.007812 467.015625 C 579.667969 467.824219 578.304688 468.601562 576.925781 469.34375 C 575.546875 470.085938 574.148438 470.792969 572.734375 471.46875 C 571.320312 472.140625 569.886719 472.777344 568.441406 473.382812 C 566.996094 473.984375 565.535156 474.550781 564.0625 475.082031 C 562.585938 475.609375 561.101562 476.105469 559.601562 476.5625 C 558.101562 477.019531 556.59375 477.441406 555.074219 477.820312 C 553.554688 478.203125 552.027344 478.550781 550.488281 478.855469 C 548.953125 479.164062 547.410156 479.433594 545.859375 479.664062 C 544.3125 479.894531 542.757812 480.089844 541.195312 480.242188 C 539.636719 480.398438 538.074219 480.511719 536.511719 480.589844 C 534.945312 480.667969 533.378906 480.707031 531.8125 480.707031 C 528.695312 480.707031 525.585938 480.550781 522.484375 480.246094 C 519.378906 479.9375 516.300781 479.480469 513.242188 478.871094 C 510.1875 478.257812 507.167969 477.5 504.183594 476.589844 C 501.203125 475.683594 498.273438 474.628906 495.394531 473.433594 C 492.515625 472.234375 489.703125 470.898438 486.957031 469.425781 C 484.210938 467.949219 481.542969 466.34375 478.953125 464.605469 C 476.367188 462.867188 473.871094 461.007812 471.464844 459.023438 C 469.0625 457.039062 466.761719 454.941406 464.5625 452.730469 C 463.460938 451.613281 462.390625 450.46875 461.34375 449.296875 C 460.300781 448.128906 459.285156 446.933594 458.296875 445.710938 C 457.3125 444.492188 456.355469 443.25 455.429688 441.984375 C 454.503906 440.71875 453.609375 439.429688 452.746094 438.121094 C 451.882812 436.8125 451.050781 435.480469 450.25 434.132812 C 449.453125 432.78125 448.6875 431.414062 447.953125 430.027344 C 447.222656 428.640625 446.523438 427.234375 445.859375 425.816406 C 445.195312 424.394531 444.566406 422.957031 443.972656 421.503906 C 443.375 420.054688 442.816406 418.589844 442.292969 417.109375 C 441.769531 415.632812 441.285156 414.140625 440.832031 412.636719 C 440.382812 411.136719 439.96875 409.625 439.589844 408.101562 C 439.214844 406.578125 438.875 405.046875 438.570312 403.507812 C 438.269531 401.96875 438.003906 400.421875 437.773438 398.871094 C 437.546875 397.320312 437.355469 395.761719 437.203125 394.203125 C 437.050781 392.640625 436.9375 391.078125 436.863281 389.511719 C 436.785156 387.941406 436.746094 386.375 436.746094 384.808594 C 436.746094 383.238281 436.785156 381.671875 436.863281 380.105469 C 436.9375 378.539062 437.050781 376.972656 437.203125 375.410156 C 437.355469 373.851562 437.546875 372.292969 437.773438 370.742188 C 438.003906 369.191406 438.269531 367.644531 438.570312 366.105469 C 438.875 364.566406 439.214844 363.035156 439.589844 361.511719 C 439.96875 359.992188 440.382812 358.476562 440.832031 356.976562 C 441.285156 355.472656 441.769531 353.984375 442.292969 352.503906 C 442.816406 351.023438 443.375 349.558594 443.972656 348.109375 C 444.566406 346.65625 445.195312 345.21875 445.859375 343.800781 C 446.523438 342.378906 447.222656 340.972656 447.953125 339.585938 C 448.6875 338.199219 449.453125 336.832031 450.25 335.480469 C 451.050781 334.132812 451.882812 332.800781 452.746094 331.492188 C 453.609375 330.183594 454.503906 328.894531 455.429688 327.628906 C 456.355469 326.363281 457.3125 325.121094 458.296875 323.902344 C 459.285156 322.679688 460.300781 321.488281 461.34375 320.316406 C 462.390625 319.144531 463.460938 318.003906 464.5625 316.882812 C 465.65625 315.769531 466.773438 314.683594 467.921875 313.621094 C 469.066406 312.5625 470.238281 311.535156 471.4375 310.53125 C 472.632812 309.53125 473.855469 308.5625 475.101562 307.621094 C 476.347656 306.679688 477.617188 305.773438 478.90625 304.894531 C 480.199219 304.019531 481.511719 303.171875 482.84375 302.363281 C 484.175781 301.550781 485.53125 300.773438 486.902344 300.027344 C 488.273438 299.28125 489.664062 298.574219 491.070312 297.898438 C 492.476562 297.222656 493.902344 296.582031 495.339844 295.976562 C 496.777344 295.371094 498.230469 294.804688 499.699219 294.269531 C 501.167969 293.738281 502.644531 293.242188 504.136719 292.785156 C 505.628906 292.324219 507.132812 291.902344 508.644531 291.519531 C 510.15625 291.136719 511.679688 290.789062 513.210938 290.480469 C 514.738281 290.171875 516.277344 289.902344 517.820312 289.671875 C 519.363281 289.4375 520.910156 289.246094 522.464844 289.089844 C 524.019531 288.933594 525.574219 288.820312 527.132812 288.742188 C 528.691406 288.664062 530.253906 288.625 531.8125 288.625 C 533.375 288.625 534.933594 288.664062 536.492188 288.742188 C 538.050781 288.820312 539.609375 288.933594 541.160156 289.089844 C 542.714844 289.246094 544.261719 289.4375 545.804688 289.671875 C 547.347656 289.902344 548.886719 290.171875 550.417969 290.480469 C 551.945312 290.789062 553.46875 291.136719 554.980469 291.519531 C 556.492188 291.902344 557.996094 292.324219 559.488281 292.785156 C 560.980469 293.242188 562.460938 293.738281 563.925781 294.269531 C 565.394531 294.804688 566.847656 295.371094 568.285156 295.976562 C 569.726562 296.582031 571.148438 297.222656 572.554688 297.898438 C 573.960938 298.574219 575.351562 299.28125 576.722656 300.027344 C 578.09375 300.773438 579.449219 301.550781 580.78125 302.363281 C 582.113281 303.171875 583.425781 304.019531 584.71875 304.894531 C 586.007812 305.773438 587.277344 306.679688 588.523438 307.621094 C 589.769531 308.5625 590.992188 309.53125 592.1875 310.53125 C 593.386719 311.535156 594.558594 312.5625 595.703125 313.621094 C 596.851562 314.683594 597.972656 315.769531 599.0625 316.882812 C 601.253906 319.097656 603.328125 321.410156 605.292969 323.824219 C 607.257812 326.238281 609.101562 328.742188 610.824219 331.332031 C 612.546875 333.925781 614.136719 336.597656 615.601562 339.34375 C 617.066406 342.089844 618.390625 344.902344 619.582031 347.777344 C 620.773438 350.652344 621.820312 353.578125 622.726562 356.558594 C 623.636719 359.535156 624.394531 362.550781 625.011719 365.601562 C 625.625 368.652344 626.089844 371.726562 626.40625 374.820312 C 626.722656 377.917969 626.890625 381.023438 626.90625 384.132812 Z M 341.898438 672.101562 C 341.894531 675.246094 341.742188 678.382812 341.4375 681.511719 C 341.128906 684.640625 340.671875 687.75 340.066406 690.832031 C 339.457031 693.917969 338.703125 696.96875 337.796875 699.980469 C 336.894531 702.992188 335.847656 705.953125 334.65625 708.863281 C 333.46875 711.773438 332.136719 714.617188 330.671875 717.398438 C 329.207031 720.183594 327.605469 722.886719 325.878906 725.511719 C 324.148438 728.136719 322.296875 730.675781 320.324219 733.121094 C 318.347656 735.570312 316.257812 737.914062 314.054688 740.160156 C 312.964844 741.273438 311.84375 742.359375 310.699219 743.417969 C 309.550781 744.480469 308.378906 745.507812 307.179688 746.511719 C 305.984375 747.511719 304.761719 748.480469 303.515625 749.421875 C 302.269531 750.363281 301 751.269531 299.710938 752.148438 C 298.417969 753.023438 297.105469 753.867188 295.773438 754.679688 C 294.441406 755.492188 293.089844 756.269531 291.714844 757.015625 C 290.34375 757.757812 288.957031 758.46875 287.546875 759.144531 C 286.140625 759.820312 284.71875 760.460938 283.277344 761.066406 C 281.839844 761.671875 280.386719 762.238281 278.917969 762.769531 C 277.453125 763.304688 275.972656 763.800781 274.480469 764.257812 C 272.988281 764.714844 271.488281 765.136719 269.972656 765.523438 C 268.460938 765.90625 266.9375 766.253906 265.410156 766.5625 C 263.878906 766.871094 262.34375 767.140625 260.796875 767.371094 C 259.253906 767.601562 257.707031 767.796875 256.152344 767.953125 C 254.601562 768.105469 253.042969 768.222656 251.484375 768.300781 C 249.925781 768.378906 248.367188 768.417969 246.804688 768.417969 C 245.246094 768.417969 243.683594 768.378906 242.125 768.300781 C 240.566406 768.222656 239.011719 768.105469 237.457031 767.953125 C 235.90625 767.796875 234.355469 767.601562 232.8125 767.371094 C 231.269531 767.140625 229.730469 766.871094 228.203125 766.5625 C 226.671875 766.253906 225.152344 765.90625 223.636719 765.523438 C 222.125 765.136719 220.621094 764.714844 219.128906 764.257812 C 217.636719 763.800781 216.160156 763.304688 214.691406 762.769531 C 213.222656 762.238281 211.769531 761.671875 210.332031 761.066406 C 208.894531 760.460938 207.46875 759.820312 206.0625 759.144531 C 204.65625 758.46875 203.265625 757.757812 201.894531 757.015625 C 200.523438 756.269531 199.171875 755.492188 197.835938 754.679688 C 196.503906 753.867188 195.191406 753.023438 193.902344 752.148438 C 192.609375 751.269531 191.339844 750.363281 190.09375 749.421875 C 188.847656 748.480469 187.628906 747.511719 186.429688 746.511719 C 185.230469 745.507812 184.058594 744.480469 182.914062 743.417969 C 181.765625 742.359375 180.648438 741.273438 179.554688 740.160156 C 177.351562 737.914062 175.265625 735.570312 173.289062 733.121094 C 171.3125 730.675781 169.460938 728.136719 167.734375 725.511719 C 166.003906 722.886719 164.40625 720.183594 162.941406 717.398438 C 161.472656 714.617188 160.144531 711.773438 158.953125 708.863281 C 157.761719 705.953125 156.714844 702.992188 155.8125 699.980469 C 154.910156 696.96875 154.152344 693.917969 153.546875 690.832031 C 152.9375 687.75 152.480469 684.640625 152.175781 681.511719 C 151.871094 678.382812 151.714844 675.246094 151.714844 672.101562 C 151.726562 668.988281 151.886719 665.882812 152.203125 662.785156 C 152.515625 659.6875 152.980469 656.613281 153.59375 653.5625 C 154.207031 650.511719 154.964844 647.496094 155.871094 644.515625 C 156.777344 641.539062 157.824219 638.613281 159.015625 635.734375 C 160.207031 632.859375 161.535156 630.046875 163 627.300781 C 164.460938 624.554688 166.058594 621.882812 167.78125 619.292969 C 169.503906 616.699219 171.347656 614.199219 173.316406 611.785156 C 175.285156 609.371094 177.363281 607.0625 179.554688 604.851562 C 180.648438 603.734375 181.765625 602.648438 182.914062 601.589844 C 184.058594 600.53125 185.230469 599.5 186.429688 598.5 C 187.628906 597.496094 188.847656 596.527344 190.09375 595.585938 C 191.339844 594.648438 192.609375 593.738281 193.902344 592.863281 C 195.191406 591.984375 196.503906 591.140625 197.835938 590.328125 C 199.171875 589.515625 200.523438 588.738281 201.894531 587.992188 C 203.265625 587.25 204.65625 586.539062 206.0625 585.863281 C 207.46875 585.1875 208.894531 584.546875 210.332031 583.941406 C 211.769531 583.339844 213.222656 582.769531 214.691406 582.238281 C 216.160156 581.707031 217.636719 581.210938 219.128906 580.75 C 220.621094 580.292969 222.125 579.871094 223.636719 579.488281 C 225.152344 579.101562 226.671875 578.757812 228.203125 578.449219 C 229.730469 578.140625 231.269531 577.871094 232.8125 577.636719 C 234.355469 577.40625 235.90625 577.210938 237.457031 577.058594 C 239.011719 576.902344 240.566406 576.785156 242.125 576.707031 C 243.683594 576.628906 245.246094 576.589844 246.804688 576.589844 C 248.367188 576.589844 249.925781 576.628906 251.484375 576.707031 C 253.042969 576.785156 254.601562 576.902344 256.152344 577.058594 C 257.707031 577.210938 259.253906 577.40625 260.796875 577.636719 C 262.34375 577.871094 263.878906 578.140625 265.410156 578.449219 C 266.9375 578.757812 268.460938 579.101562 269.972656 579.488281 C 271.484375 579.871094 272.988281 580.292969 274.480469 580.75 C 275.972656 581.210938 277.453125 581.707031 278.917969 582.238281 C 280.386719 582.769531 281.839844 583.339844 283.277344 583.941406 C 284.71875 584.546875 286.140625 585.1875 287.546875 585.863281 C 288.957031 586.539062 290.34375 587.25 291.714844 587.992188 C 293.089844 588.738281 294.441406 589.515625 295.773438 590.328125 C 297.105469 591.140625 298.417969 591.984375 299.710938 592.863281 C 301 593.738281 302.269531 594.648438 303.515625 595.585938 C 304.761719 596.527344 305.984375 597.496094 307.179688 598.5 C 308.378906 599.5 309.550781 600.53125 310.699219 601.589844 C 311.84375 602.648438 312.964844 603.734375 314.054688 604.851562 C 316.246094 607.0625 318.328125 609.371094 320.292969 611.785156 C 322.261719 614.199219 324.105469 616.699219 325.832031 619.292969 C 327.554688 621.882812 329.148438 624.554688 330.613281 627.300781 C 332.078125 630.046875 333.40625 632.859375 334.59375 635.734375 C 335.785156 638.613281 336.835938 641.539062 337.742188 644.515625 C 338.644531 647.496094 339.40625 650.511719 340.019531 653.5625 C 340.632812 656.613281 341.09375 659.6875 341.410156 662.785156 C 341.722656 665.882812 341.886719 668.988281 341.898438 672.101562 Z M 627.039062 672.101562 C 627.039062 675.246094 626.882812 678.382812 626.578125 681.511719 C 626.269531 684.640625 625.8125 687.75 625.207031 690.832031 C 624.597656 693.917969 623.84375 696.96875 622.941406 699.980469 C 622.035156 702.992188 620.988281 705.953125 619.800781 708.863281 C 618.609375 711.773438 617.28125 714.617188 615.8125 717.398438 C 614.347656 720.179688 612.75 722.886719 611.019531 725.511719 C 609.292969 728.136719 607.4375 730.675781 605.464844 733.121094 C 603.488281 735.570312 601.398438 737.914062 599.199219 740.160156 C 598.105469 741.273438 596.984375 742.359375 595.839844 743.417969 C 594.691406 744.480469 593.519531 745.507812 592.324219 746.511719 C 591.125 747.511719 589.902344 748.480469 588.65625 749.421875 C 587.410156 750.363281 586.144531 751.269531 584.851562 752.148438 C 583.5625 753.023438 582.25 753.867188 580.914062 754.679688 C 579.582031 755.492188 578.230469 756.269531 576.859375 757.015625 C 575.488281 757.757812 574.097656 758.46875 572.691406 759.144531 C 571.28125 759.820312 569.859375 760.460938 568.421875 761.066406 C 566.980469 761.671875 565.527344 762.238281 564.0625 762.769531 C 562.59375 763.304688 561.113281 763.800781 559.621094 764.257812 C 558.128906 764.714844 556.628906 765.136719 555.117188 765.523438 C 553.601562 765.90625 552.082031 766.253906 550.550781 766.5625 C 549.019531 766.871094 547.484375 767.140625 545.941406 767.371094 C 544.398438 767.601562 542.847656 767.796875 541.296875 767.953125 C 539.742188 768.105469 538.1875 768.222656 536.628906 768.300781 C 535.066406 768.378906 533.507812 768.417969 531.949219 768.417969 C 530.386719 768.417969 528.828125 768.378906 527.269531 768.300781 C 525.707031 768.222656 524.152344 768.105469 522.597656 767.953125 C 521.046875 767.796875 519.496094 767.601562 517.953125 767.371094 C 516.410156 767.140625 514.875 766.871094 513.34375 766.5625 C 511.8125 766.253906 510.292969 765.90625 508.78125 765.523438 C 507.265625 765.136719 505.765625 764.714844 504.273438 764.257812 C 502.78125 763.800781 501.300781 763.304688 499.832031 762.769531 C 498.367188 762.238281 496.914062 761.671875 495.472656 761.066406 C 494.035156 760.460938 492.613281 759.820312 491.203125 759.144531 C 489.796875 758.46875 488.410156 757.757812 487.035156 757.015625 C 485.664062 756.269531 484.3125 755.492188 482.980469 754.679688 C 481.644531 753.867188 480.332031 753.023438 479.042969 752.148438 C 477.75 751.269531 476.484375 750.363281 475.238281 749.421875 C 473.992188 748.480469 472.769531 747.511719 471.570312 746.511719 C 470.375 745.507812 469.203125 744.480469 468.054688 743.417969 C 466.910156 742.359375 465.789062 741.273438 464.695312 740.160156 C 462.496094 737.914062 460.40625 735.570312 458.429688 733.121094 C 456.457031 730.675781 454.605469 728.136719 452.875 725.511719 C 451.144531 722.886719 449.546875 720.179688 448.082031 717.398438 C 446.613281 714.617188 445.285156 711.773438 444.09375 708.863281 C 442.90625 705.953125 441.859375 702.992188 440.953125 699.980469 C 440.050781 696.96875 439.296875 693.917969 438.6875 690.832031 C 438.082031 687.75 437.625 684.640625 437.316406 681.511719 C 437.011719 678.382812 436.855469 675.246094 436.855469 672.101562 C 436.867188 668.988281 437.03125 665.882812 437.34375 662.785156 C 437.65625 659.6875 438.121094 656.613281 438.734375 653.5625 C 439.347656 650.511719 440.105469 647.496094 441.011719 644.515625 C 441.917969 641.539062 442.96875 638.613281 444.15625 635.734375 C 445.347656 632.859375 446.675781 630.046875 448.140625 627.300781 C 449.605469 624.554688 451.199219 621.882812 452.921875 619.292969 C 454.644531 616.699219 456.492188 614.199219 458.457031 611.785156 C 460.425781 609.371094 462.503906 607.0625 464.695312 604.851562 C 465.789062 603.734375 466.910156 602.648438 468.054688 601.589844 C 469.203125 600.53125 470.375 599.5 471.570312 598.5 C 472.769531 597.496094 473.992188 596.527344 475.238281 595.585938 C 476.484375 594.648438 477.75 593.738281 479.042969 592.863281 C 480.332031 591.984375 481.644531 591.140625 482.980469 590.328125 C 484.3125 589.515625 485.664062 588.738281 487.035156 587.992188 C 488.410156 587.25 489.796875 586.539062 491.203125 585.863281 C 492.613281 585.1875 494.035156 584.546875 495.472656 583.941406 C 496.914062 583.339844 498.367188 582.769531 499.832031 582.238281 C 501.300781 581.707031 502.78125 581.210938 504.273438 580.75 C 505.765625 580.292969 507.265625 579.871094 508.78125 579.488281 C 510.292969 579.101562 511.8125 578.757812 513.34375 578.449219 C 514.875 578.140625 516.410156 577.871094 517.953125 577.636719 C 519.496094 577.40625 521.046875 577.210938 522.597656 577.058594 C 524.152344 576.902344 525.707031 576.785156 527.265625 576.707031 C 528.828125 576.628906 530.386719 576.589844 531.949219 576.589844 C 533.507812 576.589844 535.066406 576.628906 536.628906 576.707031 C 538.1875 576.785156 539.742188 576.902344 541.296875 577.058594 C 542.847656 577.210938 544.398438 577.40625 545.941406 577.636719 C 547.484375 577.871094 549.019531 578.140625 550.550781 578.449219 C 552.082031 578.757812 553.601562 579.101562 555.113281 579.488281 C 556.628906 579.871094 558.128906 580.292969 559.621094 580.75 C 561.113281 581.210938 562.59375 581.707031 564.0625 582.238281 C 565.527344 582.769531 566.980469 583.339844 568.421875 583.941406 C 569.859375 584.546875 571.28125 585.1875 572.691406 585.863281 C 574.097656 586.539062 575.488281 587.25 576.859375 587.992188 C 578.230469 588.738281 579.582031 589.515625 580.914062 590.328125 C 582.25 591.140625 583.5625 591.984375 584.851562 592.863281 C 586.144531 593.738281 587.410156 594.648438 588.65625 595.585938 C 589.902344 596.527344 591.125 597.496094 592.324219 598.5 C 593.519531 599.5 594.691406 600.53125 595.839844 601.589844 C 596.984375 602.648438 598.105469 603.734375 599.199219 604.851562 C 601.390625 607.0625 603.46875 609.371094 605.4375 611.785156 C 607.402344 614.199219 609.25 616.699219 610.972656 619.292969 C 612.695312 621.882812 614.289062 624.554688 615.753906 627.300781 C 617.21875 630.046875 618.546875 632.859375 619.738281 635.734375 C 620.925781 638.613281 621.976562 641.539062 622.882812 644.515625 C 623.789062 647.496094 624.546875 650.511719 625.160156 653.5625 C 625.773438 656.613281 626.238281 659.6875 626.550781 662.785156 C 626.863281 665.882812 627.027344 668.988281 627.039062 672.101562 Z M 627.039062 672.101562 " fill-opacity="1" fill-rule="nonzero"/></g></svg>