<svg xmlns="http://www.w3.org/2000/svg" xmlns:xlink="http://www.w3.org/1999/xlink" width="1024" zoomAndPan="magnify" viewBox="0 0 768 767.999994" height="1024" preserveAspectRatio="xMidYMid meet" version="1.0"><defs><clipPath id="1621a33661"><path d="M 4.800781 1 L 763 1 L 763 766 L 4.800781 766 Z M 4.800781 1 " clip-rule="nonzero"/></clipPath></defs><g clip-path="url(#1621a33661)"><path fill="#475dd7" d="M 263.328125 137.101562 L 572.945312 137.101562 L 572.945312 123.183594 C 572.957031 118.71875 572.53125 114.292969 571.664062 109.914062 C 570.800781 105.53125 569.515625 101.273438 567.808594 97.148438 C 566.101562 93.019531 564.011719 89.097656 561.527344 85.382812 C 559.046875 81.667969 556.226562 78.234375 553.066406 75.078125 C 549.921875 71.972656 546.507812 69.195312 542.828125 66.746094 C 539.148438 64.296875 535.269531 62.222656 531.191406 60.519531 C 527.113281 58.816406 522.910156 57.515625 518.578125 56.621094 C 514.25 55.726562 509.875 55.253906 505.457031 55.199219 L 139.679688 55.199219 C 137.007812 55.234375 134.339844 55.402344 131.683594 55.695312 C 129.023438 55.992188 126.386719 56.414062 123.769531 56.964844 C 121.15625 57.515625 118.570312 58.195312 116.019531 58.996094 C 113.46875 59.796875 110.964844 60.722656 108.5 61.769531 C 106.039062 62.8125 103.636719 63.976562 101.289062 65.253906 C 98.941406 66.535156 96.660156 67.925781 94.445312 69.425781 C 92.230469 70.925781 90.097656 72.53125 88.039062 74.238281 C 85.980469 75.945312 84.011719 77.75 82.128906 79.648438 C 78.378906 83.472656 75.023438 87.617188 72.070312 92.082031 C 69.113281 96.550781 66.609375 101.257812 64.558594 106.203125 C 62.503906 111.152344 60.941406 116.246094 59.871094 121.496094 C 58.796875 126.742188 58.230469 132.042969 58.175781 137.398438 L 58.175781 506.15625 C 58.1875 510.613281 58.632812 515.027344 59.507812 519.394531 C 60.382812 523.761719 61.671875 528.007812 63.378906 532.125 C 65.082031 536.238281 67.167969 540.152344 69.640625 543.863281 C 72.109375 547.570312 74.914062 551.003906 78.054688 554.164062 C 81.183594 557.332031 84.597656 560.160156 88.292969 562.648438 C 91.988281 565.132812 95.890625 567.230469 100.003906 568.9375 C 104.117188 570.644531 108.359375 571.929688 112.730469 572.789062 C 117.097656 573.648438 121.511719 574.066406 125.964844 574.042969 L 139.480469 574.042969 L 139.480469 261.84375 C 139.46875 257.761719 139.660156 253.691406 140.046875 249.632812 C 140.4375 245.570312 141.027344 241.539062 141.8125 237.535156 C 142.597656 233.53125 143.578125 229.574219 144.753906 225.667969 C 145.925781 221.761719 147.289062 217.921875 148.84375 214.148438 C 150.394531 210.375 152.128906 206.6875 154.046875 203.085938 C 155.960938 199.484375 158.046875 195.984375 160.308594 192.585938 C 162.566406 189.1875 164.988281 185.910156 167.570312 182.753906 C 170.152344 179.59375 172.882812 176.570312 175.761719 173.679688 C 178.601562 170.785156 181.582031 168.039062 184.695312 165.441406 C 187.8125 162.84375 191.046875 160.40625 194.40625 158.128906 C 197.761719 155.855469 201.226562 153.753906 204.792969 151.820312 C 208.359375 149.890625 212.015625 148.144531 215.757812 146.578125 C 219.496094 145.011719 223.308594 143.632812 227.1875 142.445312 C 231.066406 141.261719 234.992188 140.269531 238.96875 139.472656 C 242.945312 138.679688 246.953125 138.082031 250.992188 137.683594 C 255.027344 137.289062 259.074219 137.09375 263.128906 137.101562 Z M 586.761719 424.054688 C 587.660156 424.054688 588.558594 424.101562 589.453125 424.1875 C 590.347656 424.277344 591.234375 424.410156 592.113281 424.582031 C 592.996094 424.757812 593.867188 424.976562 594.726562 425.238281 C 595.585938 425.5 596.429688 425.800781 597.261719 426.144531 C 598.089844 426.488281 598.902344 426.871094 599.695312 427.296875 C 600.488281 427.71875 601.257812 428.179688 602.003906 428.679688 C 602.75 429.179688 603.472656 429.714844 604.167969 430.285156 C 604.859375 430.855469 605.527344 431.457031 606.160156 432.089844 C 606.796875 432.726562 607.398438 433.390625 607.96875 434.085938 C 608.539062 434.78125 609.074219 435.5 609.574219 436.25 C 610.070312 436.996094 610.53125 437.765625 610.957031 438.558594 C 611.378906 439.351562 611.765625 440.160156 612.109375 440.992188 C 612.453125 441.820312 612.753906 442.667969 613.015625 443.527344 C 613.277344 444.386719 613.492188 445.257812 613.667969 446.136719 C 613.84375 447.019531 613.976562 447.90625 614.0625 448.800781 C 614.152344 449.695312 614.195312 450.589844 614.195312 451.488281 C 614.195312 452.386719 614.152344 453.285156 614.0625 454.179688 C 613.976562 455.074219 613.84375 455.960938 613.667969 456.839844 C 613.492188 457.722656 613.277344 458.59375 613.015625 459.453125 C 612.753906 460.3125 612.453125 461.15625 612.109375 461.988281 C 611.765625 462.816406 611.378906 463.628906 610.957031 464.421875 C 610.535156 465.214844 610.070312 465.984375 609.574219 466.730469 C 609.074219 467.476562 608.539062 468.199219 607.96875 468.894531 C 607.398438 469.585938 606.796875 470.253906 606.160156 470.886719 C 605.527344 471.523438 604.859375 472.125 604.167969 472.695312 C 603.472656 473.265625 602.75 473.800781 602.003906 474.300781 C 601.257812 474.800781 600.488281 475.261719 599.695312 475.683594 C 598.902344 476.105469 598.089844 476.492188 597.261719 476.835938 C 596.429688 477.179688 595.585938 477.480469 594.726562 477.742188 C 593.867188 478.003906 592.996094 478.21875 592.113281 478.394531 C 591.234375 478.570312 590.347656 478.703125 589.453125 478.789062 C 588.558594 478.878906 587.660156 478.921875 586.761719 478.921875 L 478.320312 478.921875 L 478.320312 588.257812 C 478.320312 589.144531 478.277344 590.027344 478.191406 590.910156 C 478.105469 591.789062 477.976562 592.664062 477.800781 593.53125 C 477.628906 594.402344 477.414062 595.257812 477.15625 596.105469 C 476.902344 596.953125 476.601562 597.785156 476.265625 598.605469 C 475.925781 599.421875 475.546875 600.222656 475.128906 601.003906 C 474.710938 601.785156 474.257812 602.542969 473.765625 603.277344 C 473.273438 604.015625 472.746094 604.726562 472.183594 605.410156 C 471.625 606.09375 471.03125 606.75 470.402344 607.375 C 469.777344 608 469.121094 608.59375 468.4375 609.15625 C 467.753906 609.71875 467.042969 610.246094 466.304688 610.738281 C 465.570312 611.230469 464.8125 611.683594 464.03125 612.101562 C 463.25 612.519531 462.449219 612.898438 461.632812 613.234375 C 460.8125 613.574219 459.980469 613.871094 459.132812 614.128906 C 458.285156 614.386719 457.429688 614.601562 456.5625 614.773438 C 455.691406 614.949219 454.816406 615.078125 453.9375 615.164062 C 453.054688 615.25 452.171875 615.292969 451.285156 615.292969 C 450.402344 615.292969 449.515625 615.25 448.636719 615.164062 C 447.753906 615.078125 446.878906 614.949219 446.011719 614.773438 C 445.144531 614.601562 444.285156 614.386719 443.4375 614.128906 C 442.589844 613.871094 441.757812 613.574219 440.941406 613.234375 C 440.121094 612.898438 439.324219 612.519531 438.542969 612.101562 C 437.761719 611.683594 437.003906 611.230469 436.265625 610.738281 C 435.53125 610.246094 434.820312 609.71875 434.136719 609.15625 C 433.449219 608.59375 432.796875 608 432.167969 607.375 C 431.542969 606.75 430.949219 606.09375 430.386719 605.410156 C 429.824219 604.726562 429.300781 604.015625 428.808594 603.277344 C 428.316406 602.542969 427.859375 601.785156 427.441406 601.003906 C 427.027344 600.222656 426.648438 599.421875 426.308594 598.605469 C 425.96875 597.785156 425.671875 596.953125 425.414062 596.105469 C 425.15625 595.257812 424.941406 594.402344 424.769531 593.53125 C 424.597656 592.664062 424.46875 591.789062 424.378906 590.910156 C 424.292969 590.027344 424.25 589.144531 424.25 588.257812 L 424.25 478.921875 L 315.710938 478.921875 C 314.8125 478.921875 313.914062 478.878906 313.019531 478.789062 C 312.128906 478.703125 311.238281 478.570312 310.359375 478.394531 C 309.476562 478.21875 308.605469 478.003906 307.746094 477.742188 C 306.886719 477.480469 306.042969 477.179688 305.210938 476.835938 C 304.382812 476.492188 303.570312 476.105469 302.777344 475.683594 C 301.984375 475.261719 301.214844 474.796875 300.46875 474.300781 C 299.722656 473.800781 299 473.265625 298.308594 472.695312 C 297.613281 472.125 296.949219 471.523438 296.3125 470.886719 C 295.675781 470.253906 295.074219 469.585938 294.503906 468.894531 C 293.933594 468.199219 293.398438 467.476562 292.898438 466.730469 C 292.402344 465.984375 291.941406 465.214844 291.515625 464.421875 C 291.09375 463.628906 290.710938 462.816406 290.363281 461.988281 C 290.019531 461.15625 289.71875 460.3125 289.457031 459.453125 C 289.199219 458.59375 288.980469 457.722656 288.804688 456.839844 C 288.628906 455.960938 288.496094 455.074219 288.410156 454.179688 C 288.320312 453.285156 288.277344 452.386719 288.277344 451.488281 C 288.277344 450.589844 288.320312 449.695312 288.410156 448.800781 C 288.496094 447.90625 288.628906 447.019531 288.804688 446.136719 C 288.980469 445.257812 289.199219 444.386719 289.457031 443.527344 C 289.71875 442.667969 290.019531 441.820312 290.363281 440.992188 C 290.710938 440.160156 291.09375 439.351562 291.515625 438.558594 C 291.941406 437.765625 292.402344 436.996094 292.898438 436.25 C 293.398438 435.5 293.933594 434.78125 294.503906 434.085938 C 295.074219 433.390625 295.675781 432.726562 296.3125 432.089844 C 296.949219 431.457031 297.613281 430.855469 298.308594 430.285156 C 299 429.714844 299.722656 429.179688 300.46875 428.679688 C 301.214844 428.179688 301.984375 427.71875 302.777344 427.296875 C 303.570312 426.871094 304.382812 426.488281 305.210938 426.144531 C 306.042969 425.800781 306.886719 425.5 307.746094 425.238281 C 308.605469 424.976562 309.476562 424.757812 310.359375 424.582031 C 311.238281 424.410156 312.128906 424.277344 313.019531 424.1875 C 313.914062 424.101562 314.8125 424.054688 315.710938 424.054688 L 424.25 424.054688 L 424.25 314.722656 C 424.25 313.835938 424.292969 312.949219 424.378906 312.070312 C 424.464844 311.1875 424.59375 310.3125 424.765625 309.441406 C 424.9375 308.570312 425.148438 307.714844 425.40625 306.863281 C 425.664062 306.015625 425.960938 305.183594 426.296875 304.363281 C 426.636719 303.542969 427.015625 302.742188 427.429688 301.960938 C 427.847656 301.179688 428.300781 300.421875 428.792969 299.683594 C 429.285156 298.945312 429.8125 298.234375 430.375 297.550781 C 430.9375 296.863281 431.53125 296.207031 432.15625 295.578125 C 432.78125 294.953125 433.4375 294.359375 434.121094 293.796875 C 434.808594 293.234375 435.519531 292.703125 436.253906 292.210938 C 436.992188 291.71875 437.75 291.265625 438.53125 290.847656 C 439.3125 290.429688 440.113281 290.050781 440.929688 289.710938 C 441.75 289.371094 442.582031 289.070312 443.429688 288.8125 C 444.28125 288.558594 445.136719 288.339844 446.007812 288.167969 C 446.875 287.996094 447.753906 287.867188 448.632812 287.777344 C 449.515625 287.691406 450.398438 287.648438 451.285156 287.648438 C 452.171875 287.648438 453.054688 287.691406 453.9375 287.777344 C 454.820312 287.867188 455.695312 287.996094 456.566406 288.167969 C 457.433594 288.339844 458.292969 288.558594 459.140625 288.8125 C 459.988281 289.070312 460.824219 289.371094 461.640625 289.710938 C 462.460938 290.050781 463.257812 290.429688 464.042969 290.847656 C 464.824219 291.265625 465.582031 291.71875 466.316406 292.210938 C 467.054688 292.703125 467.765625 293.234375 468.449219 293.796875 C 469.136719 294.359375 469.789062 294.953125 470.417969 295.578125 C 471.042969 296.207031 471.636719 296.863281 472.199219 297.546875 C 472.761719 298.234375 473.285156 298.945312 473.777344 299.683594 C 474.269531 300.421875 474.726562 301.179688 475.140625 301.960938 C 475.558594 302.742188 475.9375 303.542969 476.273438 304.363281 C 476.613281 305.183594 476.910156 306.015625 477.167969 306.863281 C 477.421875 307.714844 477.636719 308.570312 477.808594 309.441406 C 477.980469 310.3125 478.109375 311.1875 478.195312 312.070312 C 478.28125 312.949219 478.324219 313.835938 478.320312 314.722656 L 478.320312 424.054688 Z M 627.117188 137.101562 L 639.144531 137.101562 C 643.210938 137.09375 647.269531 137.289062 651.316406 137.683594 C 655.363281 138.082031 659.382812 138.675781 663.371094 139.472656 C 667.359375 140.265625 671.300781 141.257812 675.191406 142.445312 C 679.082031 143.632812 682.902344 145.007812 686.65625 146.574219 C 690.410156 148.140625 694.078125 149.886719 697.65625 151.816406 C 701.238281 153.75 704.710938 155.851562 708.082031 158.125 C 711.453125 160.402344 714.703125 162.839844 717.832031 165.4375 C 720.960938 168.035156 723.957031 170.78125 726.8125 173.679688 C 729.675781 176.578125 732.390625 179.609375 734.957031 182.773438 C 737.527344 185.941406 739.933594 189.222656 742.179688 192.621094 C 744.425781 196.023438 746.5 199.523438 748.40625 203.128906 C 750.308594 206.730469 752.035156 210.417969 753.578125 214.191406 C 755.121094 217.960938 756.476562 221.800781 757.644531 225.703125 C 758.8125 229.609375 759.789062 233.558594 760.570312 237.558594 C 761.351562 241.558594 761.9375 245.585938 762.324219 249.644531 C 762.710938 253.699219 762.902344 257.765625 762.890625 261.84375 L 762.890625 641.433594 C 762.898438 645.507812 762.703125 649.566406 762.3125 653.621094 C 761.921875 657.671875 761.332031 661.695312 760.550781 665.691406 C 759.765625 669.683594 758.789062 673.632812 757.621094 677.53125 C 756.449219 681.429688 755.09375 685.265625 753.550781 689.03125 C 752.007812 692.796875 750.285156 696.480469 748.382812 700.082031 C 746.476562 703.679688 744.40625 707.175781 742.160156 710.574219 C 739.917969 713.96875 737.511719 717.25 734.949219 720.410156 C 732.382812 723.574219 729.671875 726.601562 726.8125 729.5 C 723.945312 732.378906 720.945312 735.113281 717.8125 737.695312 C 714.675781 740.28125 711.421875 742.703125 708.046875 744.964844 C 704.671875 747.226562 701.195312 749.316406 697.613281 751.238281 C 694.03125 753.15625 690.367188 754.894531 686.613281 756.453125 C 682.863281 758.007812 679.042969 759.378906 675.152344 760.558594 C 671.265625 761.738281 667.332031 762.722656 663.347656 763.515625 C 659.359375 764.304688 655.347656 764.898438 651.304688 765.292969 C 647.261719 765.6875 643.207031 765.882812 639.144531 765.878906 L 263.328125 765.878906 C 259.277344 765.882812 255.234375 765.6875 251.203125 765.292969 C 247.171875 764.898438 243.167969 764.304688 239.195312 763.511719 C 235.222656 762.71875 231.296875 761.734375 227.421875 760.554688 C 223.546875 759.375 219.738281 758.003906 215.996094 756.449219 C 212.257812 754.890625 208.601562 753.152344 205.035156 751.234375 C 201.46875 749.3125 198.003906 747.222656 194.640625 744.960938 C 191.28125 742.699219 188.039062 740.277344 184.917969 737.691406 C 181.796875 735.109375 178.808594 732.378906 175.960938 729.5 C 173.085938 726.613281 170.359375 723.589844 167.777344 720.433594 C 165.199219 717.277344 162.78125 714.003906 160.523438 710.609375 C 158.269531 707.214844 156.183594 703.71875 154.269531 700.121094 C 152.355469 696.523438 150.621094 692.839844 149.070312 689.074219 C 147.515625 685.304688 146.152344 681.46875 144.976562 677.566406 C 143.800781 673.664062 142.820312 669.714844 142.03125 665.714844 C 141.242188 661.71875 140.652344 657.691406 140.257812 653.632812 C 139.867188 649.578125 139.671875 645.511719 139.679688 641.433594 L 139.679688 628.910156 L 126.164062 628.910156 C 122.160156 628.914062 118.164062 628.71875 114.179688 628.324219 C 110.195312 627.929688 106.242188 627.335938 102.316406 626.550781 C 98.390625 625.761719 94.511719 624.785156 90.683594 623.613281 C 86.855469 622.441406 83.09375 621.082031 79.398438 619.539062 C 75.707031 617.992188 72.097656 616.269531 68.574219 614.367188 C 65.050781 612.464844 61.632812 610.390625 58.316406 608.148438 C 55 605.90625 51.800781 603.507812 48.722656 600.945312 C 45.640625 598.386719 42.699219 595.683594 39.886719 592.832031 C 37.070312 589.980469 34.398438 587.003906 31.871094 583.890625 C 29.34375 580.78125 26.976562 577.554688 24.765625 574.214844 C 22.554688 570.871094 20.515625 567.429688 18.640625 563.886719 C 16.769531 560.34375 15.070312 556.71875 13.554688 553.011719 C 12.035156 549.304688 10.703125 545.53125 9.554688 541.691406 C 8.40625 537.851562 7.445312 533.964844 6.679688 530.035156 C 5.910156 526.101562 5.335938 522.140625 4.957031 518.152344 C 4.574219 514.164062 4.390625 510.164062 4.402344 506.15625 L 4.402344 137.101562 C 4.394531 132.640625 4.609375 128.191406 5.039062 123.753906 C 5.46875 119.316406 6.117188 114.910156 6.980469 110.535156 C 7.847656 106.164062 8.921875 101.839844 10.210938 97.570312 C 11.5 93.304688 12.996094 89.109375 14.699219 84.988281 C 16.398438 80.867188 18.296875 76.835938 20.394531 72.902344 C 22.492188 68.96875 24.777344 65.144531 27.25 61.433594 C 29.722656 57.722656 32.375 54.144531 35.199219 50.695312 C 38.023438 47.246094 41.011719 43.941406 44.160156 40.785156 C 47.289062 37.632812 50.5625 34.640625 53.984375 31.808594 C 57.410156 28.980469 60.964844 26.324219 64.652344 23.847656 C 68.335938 21.371094 72.136719 19.082031 76.050781 16.984375 C 79.964844 14.882812 83.972656 12.984375 88.074219 11.28125 C 92.175781 9.578125 96.355469 8.082031 100.605469 6.796875 C 104.855469 5.507812 109.160156 4.433594 113.515625 3.574219 C 117.875 2.710938 122.261719 2.070312 126.683594 1.644531 C 131.105469 1.21875 135.535156 1.011719 139.976562 1.027344 L 505.65625 1.027344 C 509.640625 1.027344 513.617188 1.222656 517.582031 1.613281 C 521.546875 2.003906 525.480469 2.59375 529.390625 3.375 C 533.296875 4.15625 537.15625 5.132812 540.964844 6.296875 C 544.777344 7.460938 548.519531 8.8125 552.195312 10.347656 C 555.875 11.882812 559.464844 13.597656 562.972656 15.492188 C 566.476562 17.382812 569.882812 19.445312 573.183594 21.671875 C 576.488281 23.902344 579.671875 26.292969 582.738281 28.835938 C 585.804688 31.382812 588.734375 34.074219 591.535156 36.910156 C 594.34375 39.738281 597.011719 42.695312 599.535156 45.78125 C 602.058594 48.867188 604.425781 52.070312 606.636719 55.386719 C 608.851562 58.703125 610.894531 62.117188 612.777344 65.632812 C 614.65625 69.148438 616.359375 72.746094 617.890625 76.429688 C 619.421875 80.109375 620.769531 83.855469 621.9375 87.667969 C 623.101562 91.480469 624.082031 95.339844 624.871094 99.25 C 625.664062 103.15625 626.261719 107.09375 626.671875 111.058594 C 627.078125 115.023438 627.292969 119 627.316406 122.988281 L 627.316406 124.378906 Z M 639.144531 191.867188 L 263.328125 191.867188 C 258.785156 191.863281 254.285156 192.304688 249.828125 193.199219 C 245.371094 194.09375 241.050781 195.417969 236.859375 197.175781 C 232.667969 198.933594 228.695312 201.089844 224.933594 203.644531 C 221.175781 206.195312 217.703125 209.097656 214.523438 212.34375 C 211.296875 215.613281 208.421875 219.171875 205.90625 223.015625 C 203.386719 226.863281 201.277344 230.917969 199.570312 235.183594 C 197.863281 239.453125 196.59375 243.847656 195.765625 248.367188 C 194.9375 252.886719 194.5625 257.445312 194.644531 262.042969 L 194.644531 641.433594 C 194.644531 642.574219 194.675781 643.710938 194.730469 644.847656 C 194.785156 645.988281 194.871094 647.121094 194.980469 648.253906 C 195.09375 649.386719 195.230469 650.519531 195.398438 651.644531 C 195.566406 652.769531 195.761719 653.890625 195.984375 655.007812 C 196.207031 656.125 196.453125 657.238281 196.730469 658.339844 C 197.007812 659.445312 197.3125 660.542969 197.640625 661.632812 C 197.972656 662.722656 198.328125 663.804688 198.714844 664.875 C 199.097656 665.945312 199.507812 667.007812 199.941406 668.0625 C 200.378906 669.113281 200.839844 670.152344 201.328125 671.183594 C 201.8125 672.210938 202.324219 673.230469 202.863281 674.234375 C 203.398438 675.238281 203.960938 676.226562 204.542969 677.203125 C 205.128906 678.183594 205.738281 679.144531 206.371094 680.089844 C 207.003906 681.035156 207.660156 681.96875 208.339844 682.882812 C 209.015625 683.796875 209.71875 684.695312 210.4375 685.574219 C 211.160156 686.453125 211.90625 687.316406 212.671875 688.160156 C 213.433594 689.003906 214.21875 689.828125 215.023438 690.632812 C 215.828125 691.4375 216.65625 692.222656 217.5 692.988281 C 218.339844 693.753906 219.203125 694.496094 220.082031 695.21875 C 220.964844 695.941406 221.863281 696.640625 222.777344 697.320312 C 223.691406 698 224.621094 698.652344 225.566406 699.285156 C 226.515625 699.917969 227.476562 700.527344 228.453125 701.113281 C 229.429688 701.699219 230.421875 702.261719 231.425781 702.796875 C 232.429688 703.332031 233.445312 703.84375 234.476562 704.332031 C 235.503906 704.820312 236.546875 705.28125 237.597656 705.714844 C 238.648438 706.152344 239.710938 706.5625 240.785156 706.945312 C 241.855469 707.328125 242.9375 707.6875 244.027344 708.015625 C 245.117188 708.347656 246.210938 708.652344 247.316406 708.925781 C 248.421875 709.203125 249.53125 709.453125 250.648438 709.675781 C 251.765625 709.898438 252.886719 710.09375 254.015625 710.257812 C 255.140625 710.425781 256.269531 710.566406 257.402344 710.675781 C 258.535156 710.789062 259.671875 710.871094 260.808594 710.929688 C 261.945312 710.984375 263.085938 711.011719 264.222656 711.011719 L 639.144531 711.011719 C 643.753906 711.015625 648.324219 710.574219 652.84375 709.679688 C 657.367188 708.789062 661.761719 707.460938 666.023438 705.707031 C 670.289062 703.949219 674.339844 701.796875 678.179688 699.242188 C 682.019531 696.691406 685.574219 693.789062 688.84375 690.535156 C 692.019531 687.230469 694.851562 683.648438 697.339844 679.792969 C 699.828125 675.941406 701.921875 671.882812 703.625 667.625 C 705.328125 663.367188 706.609375 658.984375 707.464844 654.476562 C 708.324219 649.972656 708.742188 645.425781 708.722656 640.839844 L 708.722656 261.84375 C 708.757812 257.253906 708.351562 252.703125 707.5 248.195312 C 706.652344 243.683594 705.375 239.300781 703.667969 235.039062 C 701.964844 230.777344 699.867188 226.722656 697.371094 222.871094 C 694.875 219.019531 692.035156 215.441406 688.84375 212.144531 C 685.585938 208.875 682.039062 205.960938 678.203125 203.394531 C 674.367188 200.832031 670.316406 198.671875 666.050781 196.914062 C 661.785156 195.15625 657.386719 193.835938 652.859375 192.953125 C 648.328125 192.070312 643.757812 191.640625 639.144531 191.667969 Z M 639.144531 191.867188 " fill-opacity="1" fill-rule="nonzero"/></g></svg>