<svg xmlns="http://www.w3.org/2000/svg" xmlns:xlink="http://www.w3.org/1999/xlink" width="1024" zoomAndPan="magnify" viewBox="0 0 768 767.999994" height="1024" preserveAspectRatio="xMidYMid meet" version="1.0"><defs><clipPath id="f70b86f0fb"><path d="M 18.152344 0 L 750 0 L 750 768 L 18.152344 768 Z M 18.152344 0 " clip-rule="nonzero"/></clipPath></defs><g clip-path="url(#f70b86f0fb)"><path fill="#475dd7" d="M 18.28125 36.570312 C 18.28125 16.375 34.652344 0 54.851562 0 L 713.136719 0 C 733.335938 0 749.707031 16.375 749.707031 36.570312 L 749.707031 146.285156 C 749.707031 156.960938 745.042969 167.105469 736.9375 174.054688 L 493.707031 382.535156 L 493.707031 658.285156 C 493.707031 672.140625 485.882812 684.800781 473.492188 690.996094 L 327.207031 764.136719 C 315.960938 769.761719 302.617188 769.214844 291.867188 762.6875 C 281.121094 756.160156 274.480469 744.574219 274.285156 732 L 268.824219 382.515625 L 30.742188 173.785156 C 22.820312 166.839844 18.28125 156.820312 18.28125 146.285156 Z M 91.421875 73.144531 L 91.421875 129.710938 L 329.246094 338.214844 C 337.019531 345.027344 341.542969 354.808594 341.703125 365.144531 L 346.507812 672.710938 L 420.566406 635.683594 L 420.566406 365.714844 C 420.566406 355.039062 425.234375 344.894531 433.335938 337.945312 L 676.566406 129.464844 L 676.566406 73.144531 Z M 91.421875 73.144531 " fill-opacity="1" fill-rule="evenodd"/></g></svg>