<svg xmlns="http://www.w3.org/2000/svg" xmlns:xlink="http://www.w3.org/1999/xlink" width="1024" zoomAndPan="magnify" viewBox="0 0 768 767.999994" height="1024" preserveAspectRatio="xMidYMid meet" version="1.0"><path fill="#4caf50" d="M 573.921875 344.0625 L 509.921875 232.0625 C 509.601562 231.417969 509.234375 230.800781 508.824219 230.210938 C 508.410156 229.621094 507.957031 229.066406 507.464844 228.542969 C 506.972656 228.019531 506.441406 227.535156 505.875 227.089844 C 505.308594 226.644531 504.714844 226.242188 504.089844 225.886719 C 503.464844 225.527344 502.816406 225.21875 502.148438 224.957031 C 501.476562 224.695312 500.792969 224.484375 500.089844 224.328125 C 499.386719 224.167969 498.679688 224.058594 497.960938 224.003906 C 497.242188 223.949219 496.527344 223.949219 495.808594 224 C 494.378906 224.015625 492.972656 224.21875 491.597656 224.609375 C 490.222656 225 488.921875 225.566406 487.699219 226.308594 C 486.476562 227.046875 485.371094 227.933594 484.382812 228.972656 C 483.398438 230.007812 482.566406 231.15625 481.886719 232.417969 L 369.886719 440.417969 C 369.246094 441.613281 368.761719 442.867188 368.4375 444.1875 C 368.113281 445.503906 367.960938 446.84375 367.976562 448.199219 C 367.992188 449.558594 368.179688 450.890625 368.535156 452.203125 C 368.890625 453.511719 369.40625 454.757812 370.078125 455.9375 L 434.078125 567.9375 C 434.78125 569.164062 435.628906 570.277344 436.625 571.28125 C 437.621094 572.28125 438.730469 573.136719 439.953125 573.84375 C 441.175781 574.554688 442.46875 575.089844 443.832031 575.457031 C 445.199219 575.820312 446.585938 576.003906 448 576 L 448.191406 576 C 449.621094 575.984375 451.027344 575.78125 452.402344 575.390625 C 453.777344 575 455.078125 574.433594 456.300781 573.691406 C 457.527344 572.953125 458.628906 572.066406 459.617188 571.027344 C 460.601562 569.992188 461.433594 568.84375 462.113281 567.585938 L 574.113281 359.585938 C 574.753906 358.390625 575.238281 357.132812 575.5625 355.8125 C 575.886719 354.496094 576.039062 353.15625 576.023438 351.800781 C 576.007812 350.441406 575.820312 349.109375 575.464844 347.796875 C 575.109375 346.488281 574.59375 345.242188 573.921875 344.0625 Z M 573.921875 344.0625 " fill-opacity="1" fill-rule="nonzero"/><path fill="#ffc107" d="M 752 448 L 560 448 C 558.515625 448 557.058594 448.203125 555.632812 448.609375 C 554.203125 449.011719 552.859375 449.605469 551.59375 450.386719 C 550.332031 451.164062 549.199219 452.105469 548.195312 453.199219 C 547.195312 454.292969 546.359375 455.503906 545.695312 456.832031 L 497.695312 552.832031 C 497.390625 553.4375 497.128906 554.0625 496.902344 554.703125 C 496.675781 555.347656 496.492188 556 496.351562 556.664062 C 496.210938 557.328125 496.113281 557.996094 496.054688 558.675781 C 496 559.351562 495.984375 560.03125 496.015625 560.707031 C 496.046875 561.386719 496.121094 562.0625 496.234375 562.730469 C 496.351562 563.398438 496.507812 564.058594 496.710938 564.707031 C 496.910156 565.359375 497.148438 565.992188 497.429688 566.609375 C 497.710938 567.230469 498.03125 567.828125 498.386719 568.40625 C 498.742188 568.984375 499.136719 569.535156 499.5625 570.066406 C 499.988281 570.59375 500.449219 571.089844 500.941406 571.5625 C 501.429688 572.03125 501.949219 572.46875 502.496094 572.871094 C 503.042969 573.273438 503.613281 573.640625 504.207031 573.972656 C 504.800781 574.304688 505.410156 574.597656 506.042969 574.847656 C 506.671875 575.101562 507.316406 575.3125 507.972656 575.484375 C 508.628906 575.65625 509.296875 575.785156 509.96875 575.871094 C 510.644531 575.957031 511.320312 576 512 576 L 704 576 C 705.484375 576 706.941406 575.796875 708.367188 575.390625 C 709.796875 574.988281 711.140625 574.394531 712.40625 573.613281 C 713.667969 572.835938 714.800781 571.898438 715.804688 570.800781 C 716.804688 569.707031 717.640625 568.496094 718.304688 567.167969 L 766.304688 471.167969 C 766.609375 470.5625 766.871094 469.9375 767.097656 469.296875 C 767.324219 468.65625 767.507812 468 767.648438 467.335938 C 767.789062 466.671875 767.886719 466.003906 767.945312 465.324219 C 768 464.648438 768.015625 463.96875 767.984375 463.292969 C 767.953125 462.613281 767.878906 461.9375 767.765625 461.269531 C 767.648438 460.601562 767.492188 459.941406 767.289062 459.292969 C 767.089844 458.640625 766.851562 458.007812 766.570312 457.390625 C 766.289062 456.769531 765.96875 456.171875 765.613281 455.59375 C 765.257812 455.015625 764.863281 454.464844 764.4375 453.933594 C 764.011719 453.40625 763.550781 452.910156 763.058594 452.4375 C 762.570312 451.96875 762.050781 451.53125 761.503906 451.128906 C 760.957031 450.726562 760.386719 450.359375 759.792969 450.027344 C 759.199219 449.695312 758.589844 449.402344 757.957031 449.152344 C 757.328125 448.898438 756.683594 448.6875 756.027344 448.515625 C 755.371094 448.34375 754.703125 448.214844 754.03125 448.128906 C 753.355469 448.042969 752.679688 448 752 448 Z M 752 448 " fill-opacity="1" fill-rule="nonzero"/><path fill="#2196f3" d="M 642.273438 408.222656 C 642.984375 409.410156 643.832031 410.484375 644.820312 411.453125 C 645.8125 412.417969 646.90625 413.242188 648.109375 413.921875 C 649.3125 414.601562 650.582031 415.121094 651.921875 415.472656 C 653.257812 415.824219 654.617188 416 656 416 L 752 416 C 753.414062 416 754.804688 415.816406 756.171875 415.445312 C 757.539062 415.078125 758.835938 414.539062 760.058594 413.824219 C 761.28125 413.113281 762.390625 412.253906 763.382812 411.246094 C 764.378906 410.238281 765.226562 409.121094 765.921875 407.890625 C 766.621094 406.65625 767.148438 405.355469 767.5 403.984375 C 767.851562 402.613281 768.019531 401.222656 768.003906 399.804688 C 767.984375 398.390625 767.785156 397.003906 767.398438 395.640625 C 767.011719 394.277344 766.457031 392.988281 765.726562 391.777344 L 669.726562 231.777344 C 669.015625 230.589844 668.167969 229.515625 667.179688 228.546875 C 666.1875 227.582031 665.09375 226.757812 663.890625 226.078125 C 662.6875 225.398438 661.417969 224.878906 660.078125 224.527344 C 658.742188 224.175781 657.382812 224 656 224 L 560 224 C 558.585938 224 557.195312 224.183594 555.828125 224.554688 C 554.460938 224.921875 553.164062 225.460938 551.941406 226.175781 C 550.71875 226.886719 549.609375 227.746094 548.617188 228.753906 C 547.621094 229.761719 546.773438 230.878906 546.078125 232.113281 C 545.378906 233.34375 544.851562 234.644531 544.5 236.015625 C 544.148438 237.386719 543.980469 238.777344 543.996094 240.195312 C 544.015625 241.609375 544.214844 242.996094 544.601562 244.359375 C 544.988281 245.722656 545.542969 247.011719 546.273438 248.222656 Z M 642.273438 408.222656 " fill-opacity="1" fill-rule="nonzero"/><path fill="#b0bec5" d="M 512 608 C 509.050781 608 506.125 607.726562 503.222656 607.179688 C 500.324219 606.636719 497.496094 605.828125 494.746094 604.757812 C 491.996094 603.6875 489.371094 602.375 486.863281 600.816406 C 484.355469 599.257812 482.015625 597.480469 479.839844 595.488281 C 477.722656 597.425781 475.449219 599.15625 473.019531 600.683594 C 470.589844 602.210938 468.039062 603.511719 465.375 604.578125 C 462.710938 605.648438 459.976562 606.46875 457.164062 607.042969 C 454.351562 607.617188 451.507812 607.9375 448.640625 608 C 446.515625 608.015625 444.398438 607.894531 442.289062 607.632812 C 440.179688 607.371094 438.097656 606.972656 436.039062 606.4375 C 433.984375 605.902344 431.972656 605.234375 430.003906 604.433594 C 428.035156 603.632812 426.128906 602.707031 424.28125 601.652344 C 422.433594 600.601562 420.664062 599.433594 418.972656 598.148438 C 417.28125 596.863281 415.679688 595.472656 414.167969 593.976562 C 412.660156 592.480469 411.253906 590.894531 409.953125 589.210938 C 408.652344 587.53125 407.46875 585.773438 406.398438 583.9375 L 342.398438 471.9375 C 341.386719 470.175781 340.492188 468.359375 339.710938 466.484375 C 338.929688 464.609375 338.269531 462.691406 337.734375 460.734375 C 337.195312 458.773438 336.789062 456.789062 336.503906 454.777344 C 336.222656 452.765625 336.066406 450.746094 336.042969 448.714844 C 336.015625 446.683594 336.121094 444.660156 336.355469 442.644531 C 336.585938 440.625 336.949219 438.628906 337.4375 436.660156 C 337.921875 434.6875 338.535156 432.753906 339.269531 430.863281 C 340.003906 428.96875 340.855469 427.128906 341.824219 425.34375 L 453.824219 217.34375 C 454.828125 215.464844 455.953125 213.664062 457.199219 211.9375 C 458.441406 210.210938 459.796875 208.570312 461.257812 207.023438 C 462.722656 205.476562 464.28125 204.03125 465.933594 202.691406 C 467.589844 201.351562 469.324219 200.128906 471.144531 199.019531 C 472.960938 197.910156 474.84375 196.925781 476.792969 196.066406 C 478.742188 195.210938 480.738281 194.484375 482.78125 193.890625 C 484.828125 193.296875 486.902344 192.84375 489.007812 192.527344 C 491.113281 192.210938 493.230469 192.035156 495.359375 192 C 498.367188 191.9375 501.351562 192.164062 504.3125 192.679688 C 507.277344 193.191406 510.164062 193.984375 512.972656 195.050781 C 515.78125 196.121094 518.464844 197.449219 521.019531 199.035156 C 523.574219 200.621094 525.953125 202.4375 528.160156 204.480469 C 532.855469 200.390625 538.136719 197.296875 544 195.199219 L 544 144 C 544 142.691406 543.96875 141.382812 543.902344 140.074219 C 543.839844 138.765625 543.742188 137.460938 543.613281 136.160156 C 543.488281 134.855469 543.328125 133.558594 543.132812 132.261719 C 542.941406 130.964844 542.71875 129.675781 542.460938 128.394531 C 542.207031 127.109375 541.921875 125.832031 541.601562 124.5625 C 541.285156 123.292969 540.933594 122.03125 540.554688 120.777344 C 540.175781 119.523438 539.765625 118.28125 539.324219 117.050781 C 538.882812 115.816406 538.410156 114.59375 537.910156 113.386719 C 537.410156 112.175781 536.878906 110.980469 536.320312 109.796875 C 535.757812 108.613281 535.171875 107.441406 534.554688 106.289062 C 533.9375 105.132812 533.292969 103.996094 532.617188 102.871094 C 531.945312 101.75 531.246094 100.644531 530.515625 99.554688 C 529.789062 98.464844 529.035156 97.394531 528.257812 96.34375 C 527.476562 95.292969 526.671875 94.261719 525.839844 93.25 C 525.011719 92.238281 524.15625 91.246094 523.277344 90.273438 C 522.398438 89.304688 521.496094 88.355469 520.570312 87.429688 C 519.644531 86.503906 518.695312 85.601562 517.726562 84.722656 C 516.753906 83.84375 515.761719 82.988281 514.75 82.160156 C 513.738281 81.328125 512.707031 80.523438 511.65625 79.742188 C 510.605469 78.964844 509.535156 78.210938 508.445312 77.484375 C 507.355469 76.753906 506.25 76.054688 505.128906 75.382812 C 504.003906 74.707031 502.867188 74.0625 501.710938 73.445312 C 500.558594 72.828125 499.386719 72.242188 498.203125 71.679688 C 497.019531 71.121094 495.824219 70.589844 494.613281 70.089844 C 493.40625 69.589844 492.183594 69.117188 490.949219 68.675781 C 489.71875 68.234375 488.476562 67.824219 487.222656 67.445312 C 485.96875 67.066406 484.707031 66.714844 483.4375 66.398438 C 482.167969 66.078125 480.890625 65.792969 479.605469 65.539062 C 478.324219 65.28125 477.035156 65.058594 475.738281 64.867188 C 474.445312 64.671875 473.144531 64.511719 471.839844 64.386719 C 470.539062 64.257812 469.234375 64.160156 467.925781 64.097656 C 466.617188 64.03125 465.308594 64 464 64 L 432 64 C 431.476562 64 430.953125 64.027344 430.433594 64.078125 C 429.910156 64.128906 429.390625 64.207031 428.878906 64.308594 C 428.363281 64.410156 427.855469 64.535156 427.355469 64.6875 C 426.855469 64.839844 426.359375 65.015625 425.878906 65.21875 C 425.394531 65.417969 424.917969 65.640625 424.457031 65.890625 C 423.996094 66.136719 423.546875 66.40625 423.109375 66.695312 C 422.675781 66.988281 422.253906 67.300781 421.851562 67.632812 C 421.445312 67.964844 421.058594 68.316406 420.6875 68.6875 C 420.316406 69.058594 419.964844 69.445312 419.632812 69.851562 C 419.300781 70.253906 418.988281 70.675781 418.695312 71.109375 C 418.40625 71.546875 418.136719 71.996094 417.890625 72.457031 C 417.640625 72.917969 417.417969 73.394531 417.21875 73.878906 C 417.015625 74.359375 416.839844 74.855469 416.6875 75.355469 C 416.535156 75.855469 416.410156 76.363281 416.308594 76.878906 C 416.207031 77.390625 416.128906 77.910156 416.078125 78.433594 C 416.027344 78.953125 416 79.476562 416 80 L 416 216.960938 C 415.988281 217.785156 415.917969 218.605469 415.78125 219.421875 C 415.648438 220.238281 415.453125 221.039062 415.199219 221.824219 C 414.941406 222.609375 414.628906 223.371094 414.257812 224.113281 C 413.886719 224.851562 413.464844 225.558594 412.988281 226.230469 C 412.511719 226.90625 411.984375 227.542969 411.410156 228.136719 C 410.839844 228.730469 410.222656 229.28125 409.566406 229.785156 C 408.910156 230.285156 408.222656 230.738281 407.496094 231.136719 C 406.773438 231.535156 406.023438 231.875 405.246094 232.160156 L 352.449219 249.535156 C 351.273438 249.945312 350.121094 250.398438 348.980469 250.894531 C 347.84375 251.394531 346.726562 251.933594 345.628906 252.515625 C 344.535156 253.101562 343.460938 253.726562 342.414062 254.390625 C 341.363281 255.058594 340.34375 255.765625 339.351562 256.507812 C 338.355469 257.253906 337.394531 258.035156 336.460938 258.855469 C 335.527344 259.675781 334.625 260.527344 333.757812 261.417969 C 332.890625 262.304688 332.058594 263.226562 331.261719 264.179688 C 330.464844 265.132812 329.703125 266.113281 328.984375 267.125 C 328.261719 268.136719 327.582031 269.175781 326.941406 270.238281 C 326.300781 271.300781 325.699219 272.386719 325.140625 273.5 C 324.585938 274.609375 324.070312 275.738281 323.601562 276.886719 C 323.128906 278.035156 322.703125 279.203125 322.324219 280.386719 C 321.945312 281.566406 321.609375 282.761719 321.320312 283.96875 C 321.03125 285.179688 320.792969 286.394531 320.597656 287.621094 C 320.402344 288.847656 320.253906 290.082031 320.15625 291.320312 C 320.054688 292.558594 320.003906 293.796875 320 295.039062 L 320 688 C 320 688.523438 320.027344 689.046875 320.078125 689.566406 C 320.128906 690.089844 320.207031 690.609375 320.308594 691.121094 C 320.410156 691.636719 320.535156 692.144531 320.6875 692.644531 C 320.839844 693.144531 321.015625 693.640625 321.21875 694.121094 C 321.417969 694.605469 321.640625 695.082031 321.890625 695.542969 C 322.136719 696.003906 322.40625 696.453125 322.695312 696.890625 C 322.988281 697.324219 323.300781 697.746094 323.632812 698.148438 C 323.964844 698.554688 324.316406 698.941406 324.6875 699.3125 C 325.058594 699.683594 325.445312 700.035156 325.851562 700.367188 C 326.253906 700.699219 326.675781 701.011719 327.109375 701.304688 C 327.546875 701.59375 327.996094 701.863281 328.457031 702.109375 C 328.917969 702.359375 329.394531 702.582031 329.878906 702.78125 C 330.359375 702.984375 330.855469 703.160156 331.355469 703.3125 C 331.855469 703.464844 332.363281 703.589844 332.878906 703.691406 C 333.390625 703.792969 333.910156 703.871094 334.433594 703.921875 C 334.953125 703.972656 335.476562 704 336 704 L 464 704 C 465.308594 704 466.617188 703.96875 467.925781 703.902344 C 469.234375 703.839844 470.539062 703.742188 471.839844 703.613281 C 473.144531 703.488281 474.441406 703.328125 475.738281 703.132812 C 477.035156 702.941406 478.324219 702.71875 479.605469 702.460938 C 480.890625 702.207031 482.167969 701.921875 483.4375 701.601562 C 484.707031 701.285156 485.96875 700.933594 487.222656 700.554688 C 488.476562 700.175781 489.71875 699.765625 490.953125 699.324219 C 492.183594 698.882812 493.40625 698.410156 494.613281 697.910156 C 495.824219 697.410156 497.019531 696.878906 498.203125 696.320312 C 499.386719 695.757812 500.558594 695.171875 501.710938 694.554688 C 502.867188 693.9375 504.003906 693.292969 505.128906 692.617188 C 506.25 691.945312 507.355469 691.246094 508.445312 690.515625 C 509.535156 689.789062 510.605469 689.035156 511.65625 688.257812 C 512.707031 687.476562 513.738281 686.671875 514.75 685.839844 C 515.761719 685.011719 516.753906 684.15625 517.726562 683.277344 C 518.695312 682.398438 519.644531 681.496094 520.570312 680.570312 C 521.496094 679.644531 522.398438 678.695312 523.277344 677.726562 C 524.15625 676.753906 525.011719 675.761719 525.839844 674.75 C 526.671875 673.738281 527.476562 672.707031 528.257812 671.65625 C 529.035156 670.605469 529.789062 669.535156 530.515625 668.445312 C 531.246094 667.355469 531.945312 666.25 532.617188 665.128906 C 533.292969 664.003906 533.9375 662.867188 534.554688 661.710938 C 535.171875 660.558594 535.757812 659.386719 536.320312 658.203125 C 536.878906 657.019531 537.410156 655.824219 537.910156 654.613281 C 538.410156 653.40625 538.882812 652.183594 539.324219 650.949219 C 539.765625 649.71875 540.175781 648.476562 540.554688 647.222656 C 540.933594 645.96875 541.285156 644.707031 541.601562 643.4375 C 541.921875 642.167969 542.207031 640.890625 542.460938 639.605469 C 542.71875 638.324219 542.941406 637.035156 543.132812 635.738281 C 543.328125 634.441406 543.488281 633.144531 543.613281 631.839844 C 543.742188 630.539062 543.839844 629.234375 543.902344 627.925781 C 543.96875 626.617188 544 625.308594 544 624 L 544 608 Z M 512 608 " fill-opacity="1" fill-rule="nonzero"/><path fill="#cfd8dc" d="M 400 0 C 377.988281 -0.0195312 356.085938 1.550781 334.304688 4.722656 C 312.519531 7.890625 291.078125 12.621094 269.984375 18.910156 L 57.089844 82.910156 C 55.039062 83.523438 53.019531 84.21875 51.027344 84.992188 C 49.035156 85.765625 47.078125 86.617188 45.152344 87.550781 C 43.230469 88.480469 41.34375 89.488281 39.5 90.570312 C 37.65625 91.652344 35.859375 92.804688 34.109375 94.03125 C 32.359375 95.257812 30.660156 96.550781 29.011719 97.914062 C 27.367188 99.277344 25.777344 100.703125 24.242188 102.191406 C 22.710938 103.683594 21.238281 105.230469 19.832031 106.839844 C 18.421875 108.445312 17.082031 110.105469 15.804688 111.824219 C 14.527344 113.539062 13.324219 115.300781 12.191406 117.113281 C 11.054688 118.925781 9.996094 120.777344 9.011719 122.675781 C 8.023438 124.574219 7.117188 126.503906 6.285156 128.476562 C 5.457031 130.445312 4.707031 132.445312 4.035156 134.472656 C 3.363281 136.503906 2.777344 138.558594 2.269531 140.632812 C 1.765625 142.710938 1.34375 144.804688 1.003906 146.914062 C 0.667969 149.027344 0.414062 151.148438 0.246094 153.277344 C 0.078125 155.410156 -0.00390625 157.542969 0 159.679688 L 0 611.519531 C -0.0078125 613.546875 0.0664062 615.570312 0.210938 617.59375 C 0.359375 619.617188 0.585938 621.628906 0.886719 623.632812 C 1.1875 625.640625 1.5625 627.628906 2.015625 629.605469 C 2.46875 631.582031 2.996094 633.539062 3.59375 635.472656 C 4.195312 637.410156 4.871094 639.320312 5.617188 641.207031 C 6.363281 643.089844 7.179688 644.945312 8.066406 646.769531 C 8.953125 648.589844 9.910156 650.378906 10.929688 652.128906 C 11.953125 653.878906 13.042969 655.585938 14.195312 657.253906 C 15.347656 658.921875 16.5625 660.542969 17.839844 662.117188 C 19.113281 663.695312 20.449219 665.21875 21.839844 666.691406 C 23.234375 668.167969 24.679688 669.585938 26.179688 670.949219 C 27.679688 672.3125 29.226562 673.617188 30.828125 674.863281 C 32.425781 676.109375 34.070312 677.292969 35.761719 678.414062 C 37.449219 679.535156 39.179688 680.589844 40.949219 681.582031 C 42.71875 682.570312 44.519531 683.492188 46.359375 684.34375 C 48.199219 685.195312 50.070312 685.976562 51.96875 686.6875 L 236.351562 755.808594 C 247.175781 759.835938 258.265625 762.875 269.632812 764.921875 C 280.996094 766.972656 292.453125 767.996094 304 768 C 305.570312 768 307.140625 767.921875 308.703125 767.769531 C 310.269531 767.613281 311.824219 767.382812 313.363281 767.078125 C 314.90625 766.769531 316.429688 766.390625 317.933594 765.933594 C 319.4375 765.476562 320.917969 764.949219 322.367188 764.347656 C 323.820312 763.746094 325.242188 763.074219 326.628906 762.332031 C 328.011719 761.589844 329.359375 760.785156 330.667969 759.910156 C 331.972656 759.039062 333.234375 758.101562 334.449219 757.105469 C 335.667969 756.105469 336.828125 755.050781 337.941406 753.941406 C 339.054688 752.828125 340.105469 751.667969 341.105469 750.449219 C 342.101562 749.234375 343.039062 747.972656 343.910156 746.667969 C 344.785156 745.359375 345.589844 744.011719 346.332031 742.628906 C 347.074219 741.242188 347.746094 739.820312 348.347656 738.367188 C 348.949219 736.917969 349.476562 735.4375 349.933594 733.933594 C 350.390625 732.429688 350.769531 730.90625 351.078125 729.363281 C 351.382812 727.824219 351.613281 726.269531 351.769531 724.703125 C 351.921875 723.140625 352 721.570312 352 720 L 352 295.039062 C 352.011719 294.214844 352.082031 293.394531 352.21875 292.578125 C 352.351562 291.761719 352.546875 290.960938 352.800781 290.175781 C 353.058594 289.390625 353.371094 288.628906 353.742188 287.886719 C 354.113281 287.148438 354.535156 286.441406 355.011719 285.769531 C 355.488281 285.09375 356.015625 284.457031 356.589844 283.863281 C 357.160156 283.269531 357.777344 282.71875 358.433594 282.214844 C 359.089844 281.714844 359.777344 281.261719 360.503906 280.863281 C 361.226562 280.464844 361.976562 280.125 362.753906 279.839844 L 415.550781 262.464844 C 416.726562 262.054688 417.878906 261.601562 419.015625 261.101562 C 420.15625 260.605469 421.273438 260.066406 422.367188 259.480469 C 423.464844 258.898438 424.535156 258.269531 425.582031 257.605469 C 426.632812 256.9375 427.652344 256.230469 428.644531 255.488281 C 429.640625 254.742188 430.601562 253.960938 431.535156 253.140625 C 432.46875 252.320312 433.371094 251.46875 434.238281 250.578125 C 435.105469 249.691406 435.9375 248.769531 436.734375 247.816406 C 437.53125 246.863281 438.289062 245.882812 439.011719 244.871094 C 439.730469 243.859375 440.414062 242.820312 441.054688 241.757812 C 441.695312 240.695312 442.292969 239.609375 442.851562 238.5 C 443.410156 237.390625 443.921875 236.257812 444.394531 235.109375 C 444.863281 233.960938 445.289062 232.792969 445.671875 231.613281 C 446.050781 230.429688 446.386719 229.234375 446.675781 228.027344 C 446.964844 226.820312 447.207031 225.601562 447.398438 224.375 C 447.59375 223.148438 447.742188 221.917969 447.84375 220.679688 C 447.941406 219.441406 447.996094 218.203125 448 216.960938 L 448 48 C 448 46.429688 447.921875 44.859375 447.769531 43.296875 C 447.613281 41.730469 447.382812 40.175781 447.078125 38.636719 C 446.769531 37.09375 446.390625 35.570312 445.933594 34.066406 C 445.476562 32.5625 444.949219 31.082031 444.347656 29.632812 C 443.746094 28.179688 443.074219 26.757812 442.332031 25.371094 C 441.589844 23.988281 440.785156 22.640625 439.910156 21.332031 C 439.039062 20.027344 438.101562 18.765625 437.105469 17.550781 C 436.105469 16.332031 435.050781 15.171875 433.941406 14.058594 C 432.828125 12.949219 431.667969 11.894531 430.449219 10.894531 C 429.234375 9.898438 427.972656 8.960938 426.667969 8.089844 C 425.359375 7.214844 424.011719 6.410156 422.628906 5.667969 C 421.242188 4.925781 419.820312 4.253906 418.367188 3.652344 C 416.917969 3.050781 415.4375 2.523438 413.933594 2.066406 C 412.429688 1.609375 410.90625 1.230469 409.363281 0.921875 C 407.824219 0.617188 406.269531 0.386719 404.703125 0.230469 C 403.140625 0.078125 401.570312 0 400 0 Z M 400 0 " fill-opacity="1" fill-rule="nonzero"/></svg>