<svg xmlns="http://www.w3.org/2000/svg" xmlns:xlink="http://www.w3.org/1999/xlink" width="1024" zoomAndPan="magnify" viewBox="0 0 768 767.999994" height="1024" preserveAspectRatio="xMidYMid meet" version="1.0"><path fill="#475dd7" d="M 401.796875 164.933594 C 392.113281 155.25 375.886719 155.25 366.203125 164.933594 L 195.613281 335.523438 C 180.273438 350.863281 190.773438 378.339844 213.410156 378.339844 L 234.410156 378.339844 L 234.410156 547.296875 C 234.410156 557.796875 243.339844 566.726562 253.839844 566.726562 L 331.433594 566.726562 C 337.089844 566.726562 341.183594 562.636719 341.183594 556.976562 L 341.183594 466.433594 C 341.183594 460.839844 345.203125 456.75 350.863281 456.75 L 417.136719 456.75 C 422.796875 456.75 426.886719 460.839844 426.886719 466.433594 L 426.886719 556.976562 C 426.886719 562.636719 430.910156 566.726562 436.566406 566.726562 L 514.160156 566.726562 C 524.660156 566.726562 533.589844 557.796875 533.589844 547.296875 L 533.589844 378.339844 L 554.589844 378.339844 C 576.410156 378.339844 587.726562 351.683594 572.316406 335.523438 L 401.796875 164.933594 " fill-opacity="1" fill-rule="nonzero"/><path fill="#475dd7" d="M 384 709.773438 C 204.546875 709.773438 58.226562 563.453125 58.226562 384 C 58.226562 204.546875 204.546875 58.226562 384 58.226562 C 563.453125 58.226562 709.773438 204.546875 709.773438 384 C 709.773438 563.453125 563.453125 709.773438 384 709.773438 Z M 384 0 C 172.160156 0 0 172.160156 0 384 C 0 595.839844 172.160156 768 384 768 C 595.839844 768 768 595.839844 768 384 C 768 172.160156 595.839844 0 384 0 " fill-opacity="1" fill-rule="nonzero"/></svg>