<svg xmlns="http://www.w3.org/2000/svg" xmlns:xlink="http://www.w3.org/1999/xlink" width="1024" zoomAndPan="magnify" viewBox="0 0 768 767.999994" height="1024" preserveAspectRatio="xMidYMid meet" version="1.0"><path fill="#475dd7" d="M 18.285156 600.136719 C 17.085938 600.152344 15.898438 600.042969 14.722656 599.808594 C 13.546875 599.574219 12.40625 599.222656 11.304688 598.75 C 10.203125 598.277344 9.160156 597.695312 8.179688 597.003906 C 7.199219 596.3125 6.300781 595.53125 5.484375 594.652344 C 5.058594 594.226562 4.652344 593.785156 4.269531 593.320312 C 3.886719 592.855469 3.527344 592.375 3.191406 591.875 C 2.855469 591.375 2.542969 590.859375 2.257812 590.328125 C 1.972656 589.800781 1.714844 589.257812 1.484375 588.699219 C 1.25 588.144531 1.046875 587.578125 0.871094 587.003906 C 0.695312 586.425781 0.550781 585.84375 0.433594 585.253906 C 0.3125 584.664062 0.226562 584.070312 0.164062 583.46875 C 0.105469 582.871094 0.078125 582.269531 0.078125 581.667969 C 0.078125 581.066406 0.105469 580.464844 0.164062 579.867188 C 0.226562 579.269531 0.3125 578.671875 0.433594 578.082031 C 0.550781 577.492188 0.695312 576.910156 0.871094 576.332031 C 1.046875 575.757812 1.25 575.191406 1.484375 574.636719 C 1.714844 574.082031 1.972656 573.539062 2.257812 573.007812 C 2.542969 572.476562 2.855469 571.960938 3.191406 571.460938 C 3.527344 570.964844 3.886719 570.480469 4.269531 570.019531 C 4.652344 569.554688 5.058594 569.109375 5.484375 568.6875 L 230.398438 349.257812 C 230.820312 348.84375 231.261719 348.449219 231.722656 348.078125 C 232.183594 347.707031 232.660156 347.359375 233.15625 347.035156 C 233.648438 346.710938 234.15625 346.410156 234.679688 346.136719 C 235.203125 345.859375 235.738281 345.609375 236.285156 345.386719 C 236.835938 345.164062 237.390625 344.96875 237.957031 344.796875 C 238.523438 344.628906 239.097656 344.488281 239.675781 344.371094 C 240.257812 344.257812 240.84375 344.171875 241.429688 344.117188 C 242.019531 344.058594 242.609375 344.03125 243.199219 344.03125 C 243.792969 344.03125 244.382812 344.058594 244.96875 344.117188 C 245.558594 344.171875 246.140625 344.257812 246.722656 344.371094 C 247.300781 344.488281 247.875 344.628906 248.441406 344.796875 C 249.007812 344.96875 249.566406 345.164062 250.113281 345.386719 C 250.660156 345.609375 251.195312 345.859375 251.71875 346.136719 C 252.242188 346.410156 252.75 346.710938 253.246094 347.035156 C 253.738281 347.359375 254.214844 347.707031 254.675781 348.078125 C 255.136719 348.449219 255.578125 348.84375 256 349.257812 L 342.675781 434.46875 L 556.617188 237.714844 C 557.464844 236.957031 558.375 236.28125 559.34375 235.6875 C 560.316406 235.097656 561.332031 234.597656 562.394531 234.191406 C 563.457031 233.785156 564.550781 233.480469 565.667969 233.273438 C 566.785156 233.066406 567.914062 232.964844 569.050781 232.964844 C 570.1875 232.964844 571.316406 233.066406 572.433594 233.273438 C 573.554688 233.480469 574.644531 233.785156 575.707031 234.191406 C 576.769531 234.597656 577.785156 235.097656 578.757812 235.6875 C 579.726562 236.28125 580.636719 236.957031 581.484375 237.714844 L 759.953125 403.382812 C 760.738281 404.222656 761.4375 405.125 762.050781 406.09375 C 762.664062 407.066406 763.183594 408.082031 763.605469 409.152344 C 764.027344 410.21875 764.347656 411.316406 764.5625 412.441406 C 764.777344 413.570312 764.886719 414.707031 764.886719 415.855469 C 764.890625 417.003906 764.785156 418.140625 764.570312 419.269531 C 764.359375 420.398438 764.042969 421.496094 763.621094 422.5625 C 763.203125 423.632812 762.6875 424.652344 762.074219 425.625 C 761.460938 426.59375 760.765625 427.5 759.984375 428.339844 C 759.199219 429.179688 758.347656 429.941406 757.421875 430.621094 C 756.496094 431.296875 755.515625 431.886719 754.480469 432.378906 C 753.441406 432.875 752.371094 433.265625 751.261719 433.558594 C 750.148438 433.851562 749.023438 434.039062 747.878906 434.117188 C 746.730469 434.199219 745.589844 434.171875 744.449219 434.035156 C 743.308594 433.902344 742.191406 433.660156 741.097656 433.3125 C 740.003906 432.96875 738.949219 432.523438 737.941406 431.980469 C 736.929688 431.4375 735.976562 430.804688 735.085938 430.078125 L 570.148438 276.113281 L 355.839844 473.234375 C 354.988281 474.019531 354.070312 474.714844 353.085938 475.328125 C 352.101562 475.941406 351.074219 476.457031 349.992188 476.878906 C 348.914062 477.296875 347.804688 477.613281 346.667969 477.828125 C 345.527344 478.042969 344.382812 478.148438 343.222656 478.148438 C 342.066406 478.148438 340.917969 478.042969 339.777344 477.828125 C 338.640625 477.613281 337.53125 477.296875 336.453125 476.878906 C 335.375 476.457031 334.34375 475.941406 333.359375 475.328125 C 332.375 474.714844 331.457031 474.019531 330.605469 473.234375 L 244.296875 385.828125 L 32.183594 593.554688 C 31.332031 594.574219 30.382812 595.492188 29.335938 596.304688 C 28.285156 597.117188 27.160156 597.808594 25.960938 598.378906 C 24.761719 598.945312 23.511719 599.378906 22.21875 599.675781 C 20.925781 599.972656 19.613281 600.125 18.285156 600.136719 Z M 18.285156 600.136719 " fill-opacity="1" fill-rule="nonzero"/><path fill="#475dd7" d="M 201.144531 268.433594 C 199.839844 268.441406 198.539062 268.414062 197.242188 268.355469 C 195.941406 268.296875 194.644531 268.207031 193.347656 268.085938 C 192.050781 267.964844 190.761719 267.8125 189.472656 267.625 C 188.183594 267.441406 186.902344 267.222656 185.625 266.976562 C 184.347656 266.726562 183.074219 266.445312 181.8125 266.136719 C 180.546875 265.824219 179.292969 265.484375 178.046875 265.109375 C 176.800781 264.738281 175.5625 264.335938 174.335938 263.902344 C 173.109375 263.46875 171.894531 263.003906 170.6875 262.511719 C 169.484375 262.015625 168.292969 261.492188 167.117188 260.941406 C 165.9375 260.390625 164.773438 259.808594 163.621094 259.199219 C 162.472656 258.589844 161.339844 257.953125 160.21875 257.289062 C 159.101562 256.625 158 255.929688 156.914062 255.210938 C 155.832031 254.492188 154.765625 253.746094 153.71875 252.976562 C 152.667969 252.203125 151.640625 251.40625 150.632812 250.585938 C 149.625 249.761719 148.636719 248.917969 147.667969 248.046875 C 146.703125 247.175781 145.757812 246.28125 144.835938 245.363281 C 143.910156 244.445312 143.011719 243.507812 142.132812 242.542969 C 141.257812 241.582031 140.40625 240.601562 139.578125 239.597656 C 138.75 238.59375 137.945312 237.570312 137.167969 236.527344 C 136.390625 235.484375 135.636719 234.421875 134.910156 233.34375 C 134.183594 232.261719 133.484375 231.164062 132.8125 230.050781 C 132.140625 228.9375 131.5 227.804688 130.882812 226.660156 C 130.265625 225.511719 129.679688 224.351562 129.117188 223.175781 C 128.558594 222.003906 128.03125 220.816406 127.527344 219.613281 C 127.027344 218.414062 126.558594 217.199219 126.117188 215.976562 C 125.675781 214.75 125.265625 213.515625 124.882812 212.273438 C 124.503906 211.027344 124.152344 209.773438 123.835938 208.511719 C 123.515625 207.25 123.230469 205.980469 122.972656 204.707031 C 122.714844 203.429688 122.492188 202.148438 122.296875 200.863281 C 122.105469 199.574219 121.945312 198.285156 121.8125 196.988281 C 121.683594 195.695312 121.585938 194.398438 121.519531 193.097656 C 121.453125 191.796875 121.421875 190.5 121.417969 189.195312 C 121.417969 187.894531 121.445312 186.59375 121.507812 185.296875 C 121.570312 183.996094 121.664062 182.699219 121.789062 181.402344 C 121.914062 180.105469 122.074219 178.816406 122.261719 177.527344 C 122.453125 176.242188 122.671875 174.957031 122.925781 173.683594 C 123.175781 172.40625 123.460938 171.136719 123.777344 169.875 C 124.089844 168.609375 124.4375 167.355469 124.8125 166.109375 C 125.191406 164.867188 125.597656 163.628906 126.035156 162.402344 C 126.472656 161.179688 126.9375 159.964844 127.4375 158.761719 C 127.933594 157.558594 128.460938 156.371094 129.015625 155.191406 C 129.570312 154.015625 130.15625 152.851562 130.765625 151.707031 C 131.378906 150.558594 132.019531 149.425781 132.6875 148.308594 C 133.359375 147.191406 134.054688 146.09375 134.777344 145.011719 C 135.5 143.929688 136.246094 142.863281 137.023438 141.820312 C 137.796875 140.773438 138.597656 139.746094 139.421875 138.742188 C 140.246094 137.734375 141.097656 136.75 141.972656 135.785156 C 142.84375 134.820312 143.742188 133.878906 144.660156 132.960938 C 145.582031 132.039062 146.523438 131.140625 147.488281 130.269531 C 148.453125 129.394531 149.4375 128.542969 150.445312 127.71875 C 151.449219 126.894531 152.476562 126.09375 153.523438 125.320312 C 154.566406 124.542969 155.632812 123.796875 156.714844 123.074219 C 157.796875 122.351562 158.894531 121.65625 160.011719 120.984375 C 161.128906 120.316406 162.261719 119.675781 163.40625 119.0625 C 164.554688 118.453125 165.71875 117.867188 166.894531 117.3125 C 168.070312 116.757812 169.261719 116.230469 170.464844 115.734375 C 171.667969 115.234375 172.882812 114.769531 174.105469 114.332031 C 175.332031 113.894531 176.566406 113.488281 177.8125 113.109375 C 179.058594 112.734375 180.3125 112.386719 181.574219 112.074219 C 182.839844 111.757812 184.109375 111.476562 185.386719 111.222656 C 186.660156 110.96875 187.945312 110.75 189.230469 110.558594 C 190.519531 110.371094 191.808594 110.210938 193.105469 110.085938 C 194.402344 109.960938 195.699219 109.867188 196.996094 109.804688 C 198.296875 109.742188 199.597656 109.714844 200.898438 109.714844 C 202.199219 109.71875 203.5 109.75 204.800781 109.816406 C 206.101562 109.882812 207.398438 109.980469 208.691406 110.109375 C 209.988281 110.242188 211.277344 110.402344 212.566406 110.59375 C 213.851562 110.789062 215.132812 111.011719 216.410156 111.269531 C 217.683594 111.527344 218.953125 111.8125 220.214844 112.132812 C 221.476562 112.453125 222.730469 112.800781 223.976562 113.179688 C 225.21875 113.5625 226.453125 113.972656 227.679688 114.414062 C 228.902344 114.855469 230.113281 115.324219 231.316406 115.824219 C 232.515625 116.328125 233.707031 116.855469 234.878906 117.417969 C 236.054688 117.976562 237.214844 118.5625 238.363281 119.179688 C 239.507812 119.796875 240.636719 120.441406 241.753906 121.113281 C 242.867188 121.785156 243.964844 122.480469 245.042969 123.207031 C 246.125 123.933594 247.1875 124.6875 248.230469 125.464844 C 249.273438 126.242188 250.296875 127.046875 251.300781 127.875 C 252.304688 128.703125 253.285156 129.554688 254.246094 130.433594 C 255.207031 131.308594 256.148438 132.207031 257.066406 133.132812 C 257.984375 134.054688 258.878906 135 259.746094 135.964844 C 260.617188 136.933594 261.464844 137.921875 262.289062 138.929688 C 263.109375 139.9375 263.90625 140.964844 264.679688 142.015625 C 265.449219 143.0625 266.195312 144.128906 266.914062 145.214844 C 267.632812 146.296875 268.328125 147.398438 268.992188 148.515625 C 269.65625 149.636719 270.292969 150.769531 270.902344 151.921875 C 271.511719 153.070312 272.09375 154.234375 272.644531 155.414062 C 273.195312 156.589844 273.71875 157.78125 274.210938 158.988281 C 274.707031 160.191406 275.167969 161.40625 275.601562 162.632812 C 276.035156 163.859375 276.441406 165.097656 276.8125 166.34375 C 277.183594 167.589844 277.527344 168.847656 277.839844 170.109375 C 278.148438 171.375 278.429688 172.644531 278.675781 173.921875 C 278.925781 175.199219 279.144531 176.480469 279.328125 177.769531 C 279.515625 179.058594 279.667969 180.347656 279.789062 181.644531 C 279.910156 182.941406 280 184.238281 280.058594 185.539062 C 280.117188 186.839844 280.144531 188.140625 280.136719 189.441406 C 280.132812 190.730469 280.09375 192.019531 280.023438 193.3125 C 279.957031 194.601562 279.855469 195.886719 279.722656 197.171875 C 279.59375 198.457031 279.429688 199.738281 279.234375 201.011719 C 279.039062 202.289062 278.816406 203.558594 278.558594 204.824219 C 278.304688 206.089844 278.015625 207.351562 277.699219 208.601562 C 277.378906 209.851562 277.03125 211.097656 276.652344 212.332031 C 276.277344 213.566406 275.867188 214.789062 275.429688 216.003906 C 274.992188 217.21875 274.523438 218.421875 274.027344 219.613281 C 273.53125 220.804688 273.003906 221.984375 272.449219 223.148438 C 271.894531 224.316406 271.3125 225.46875 270.703125 226.605469 C 270.09375 227.742188 269.453125 228.867188 268.789062 229.972656 C 268.125 231.078125 267.429688 232.167969 266.710938 233.242188 C 265.992188 234.3125 265.25 235.367188 264.480469 236.40625 C 263.710938 237.441406 262.914062 238.457031 262.09375 239.457031 C 261.277344 240.453125 260.433594 241.429688 259.566406 242.386719 C 258.695312 243.34375 257.808594 244.277344 256.894531 245.191406 C 255.980469 246.105469 255.046875 246.996094 254.089844 247.863281 C 253.132812 248.730469 252.15625 249.574219 251.160156 250.390625 C 250.160156 251.210938 249.144531 252.007812 248.109375 252.777344 C 247.070312 253.546875 246.015625 254.292969 244.945312 255.011719 C 243.871094 255.726562 242.78125 256.421875 241.675781 257.085938 C 240.566406 257.75 239.445312 258.390625 238.308594 259 C 237.171875 259.609375 236.019531 260.191406 234.851562 260.746094 C 233.6875 261.300781 232.507812 261.828125 231.316406 262.324219 C 230.125 262.820312 228.921875 263.289062 227.707031 263.726562 C 226.492188 264.164062 225.265625 264.574219 224.03125 264.953125 C 222.796875 265.328125 221.554688 265.679688 220.304688 265.996094 C 219.050781 266.3125 217.792969 266.601562 216.527344 266.855469 C 215.261719 267.113281 213.992188 267.335938 212.714844 267.53125 C 211.4375 267.726562 210.160156 267.890625 208.875 268.019531 C 207.589844 268.152344 206.304688 268.253906 205.011719 268.320312 C 203.722656 268.390625 202.433594 268.429688 201.144531 268.433594 Z M 201.144531 146.652344 C 199.738281 146.640625 198.339844 146.695312 196.941406 146.824219 C 195.542969 146.949219 194.152344 147.140625 192.773438 147.40625 C 191.394531 147.667969 190.03125 147.996094 188.683594 148.394531 C 187.339844 148.789062 186.015625 149.253906 184.714844 149.78125 C 183.410156 150.308594 182.140625 150.898438 180.894531 151.550781 C 179.652344 152.203125 178.445312 152.914062 177.273438 153.683594 C 176.097656 154.457031 174.964844 155.28125 173.875 156.164062 C 172.78125 157.046875 171.738281 157.980469 170.738281 158.96875 C 169.738281 159.953125 168.789062 160.984375 167.890625 162.066406 C 166.992188 163.144531 166.148438 164.265625 165.363281 165.425781 C 164.574219 166.589844 163.84375 167.785156 163.175781 169.019531 C 162.503906 170.253906 161.898438 171.515625 161.351562 172.8125 C 160.804688 174.105469 160.324219 175.421875 159.910156 176.761719 C 159.492188 178.101562 159.144531 179.460938 158.863281 180.835938 C 158.578125 182.210938 158.367188 183.597656 158.21875 184.992188 C 158.074219 186.390625 157.996094 187.789062 157.988281 189.195312 C 157.980469 190.597656 158.042969 192 158.171875 193.398438 C 158.300781 194.792969 158.5 196.183594 158.765625 197.5625 C 159.03125 198.941406 159.367188 200.300781 159.765625 201.648438 C 160.167969 202.992188 160.632812 204.316406 161.164062 205.613281 C 161.695312 206.914062 162.289062 208.183594 162.945312 209.425781 C 163.601562 210.667969 164.316406 211.875 165.089844 213.046875 C 165.863281 214.214844 166.695312 215.347656 167.582031 216.433594 C 168.464844 217.523438 169.402344 218.566406 170.390625 219.5625 C 171.378906 220.5625 172.414062 221.507812 173.496094 222.402344 C 174.578125 223.296875 175.699219 224.136719 176.863281 224.921875 C 178.03125 225.707031 179.230469 226.433594 180.464844 227.097656 C 181.699219 227.765625 182.964844 228.371094 184.261719 228.910156 C 185.554688 229.453125 186.875 229.929688 188.21875 230.34375 C 189.558594 230.753906 190.917969 231.097656 192.292969 231.378906 C 193.671875 231.65625 195.054688 231.867188 196.453125 232.007812 C 197.851562 232.148438 199.25 232.222656 200.652344 232.226562 C 202.058594 232.230469 203.457031 232.167969 204.855469 232.03125 C 206.253906 231.898438 207.640625 231.695312 209.019531 231.425781 C 210.398438 231.15625 211.757812 230.816406 213.101562 230.414062 C 214.445312 230.007812 215.769531 229.539062 217.066406 229.003906 C 218.363281 228.472656 219.632812 227.875 220.871094 227.214844 C 222.113281 226.554688 223.316406 225.835938 224.484375 225.058594 C 225.652344 224.28125 226.78125 223.449219 227.867188 222.558594 C 228.953125 221.671875 229.996094 220.730469 230.988281 219.738281 C 231.984375 218.746094 232.925781 217.710938 233.820312 216.625 C 234.710938 215.542969 235.546875 214.417969 236.328125 213.25 C 237.109375 212.082031 237.832031 210.882812 238.496094 209.644531 C 239.15625 208.40625 239.757812 207.140625 240.296875 205.84375 C 240.835938 204.546875 241.308594 203.226562 241.714844 201.882812 C 242.125 200.539062 242.464844 199.179688 242.742188 197.800781 C 243.015625 196.425781 243.222656 195.039062 243.359375 193.640625 C 243.496094 192.246094 243.566406 190.84375 243.566406 189.441406 C 243.566406 188.046875 243.496094 186.65625 243.363281 185.269531 C 243.226562 183.882812 243.023438 182.503906 242.753906 181.136719 C 242.480469 179.769531 242.144531 178.417969 241.742188 177.085938 C 241.339844 175.75 240.875 174.4375 240.34375 173.148438 C 239.8125 171.859375 239.222656 170.601562 238.566406 169.371094 C 237.914062 168.140625 237.203125 166.941406 236.429688 165.78125 C 235.660156 164.621094 234.835938 163.5 233.953125 162.417969 C 233.074219 161.335938 232.144531 160.300781 231.164062 159.3125 C 230.179688 158.324219 229.152344 157.382812 228.082031 156.492188 C 227.007812 155.605469 225.894531 154.769531 224.738281 153.988281 C 223.585938 153.207031 222.394531 152.484375 221.167969 151.820312 C 219.945312 151.15625 218.6875 150.554688 217.40625 150.011719 C 216.121094 149.472656 214.8125 148.992188 213.480469 148.578125 C 212.152344 148.164062 210.804688 147.816406 209.4375 147.535156 C 208.074219 147.253906 206.699219 147.039062 205.3125 146.890625 C 203.925781 146.742188 202.535156 146.664062 201.144531 146.652344 Z M 201.144531 146.652344 " fill-opacity="1" fill-rule="nonzero"/><path fill="#475dd7" d="M 640 768.730469 L 128 768.730469 C 125.929688 768.714844 123.859375 768.644531 121.789062 768.527344 C 119.71875 768.410156 117.65625 768.242188 115.59375 768.023438 C 113.535156 767.804688 111.480469 767.535156 109.433594 767.21875 C 107.386719 766.898438 105.347656 766.53125 103.316406 766.113281 C 101.289062 765.695312 99.269531 765.230469 97.261719 764.714844 C 95.257812 764.199219 93.261719 763.636719 91.285156 763.023438 C 89.304688 762.414062 87.339844 761.753906 85.390625 761.046875 C 83.445312 760.339844 81.515625 759.582031 79.605469 758.78125 C 77.695312 757.980469 75.804688 757.132812 73.933594 756.242188 C 72.0625 755.347656 70.21875 754.410156 68.394531 753.429688 C 66.570312 752.445312 64.769531 751.417969 62.996094 750.347656 C 61.21875 749.28125 59.472656 748.167969 57.753906 747.011719 C 56.03125 745.855469 54.339844 744.660156 52.679688 743.425781 C 51.015625 742.1875 49.386719 740.910156 47.785156 739.59375 C 46.183594 738.277344 44.617188 736.925781 43.082031 735.53125 C 41.546875 734.140625 40.046875 732.710938 38.582031 731.246094 C 37.117188 729.78125 35.6875 728.28125 34.296875 726.746094 C 32.902344 725.210938 31.550781 723.644531 30.234375 722.042969 C 28.917969 720.445312 27.640625 718.8125 26.402344 717.148438 C 25.167969 715.488281 23.972656 713.796875 22.816406 712.074219 C 21.660156 710.355469 20.550781 708.609375 19.480469 706.832031 C 18.410156 705.058594 17.382812 703.261719 16.398438 701.4375 C 15.417969 699.613281 14.480469 697.765625 13.585938 695.894531 C 12.695312 694.023438 11.847656 692.132812 11.046875 690.222656 C 10.246094 688.3125 9.492188 686.382812 8.785156 684.4375 C 8.074219 682.488281 7.417969 680.523438 6.804688 678.546875 C 6.191406 676.566406 5.628906 674.574219 5.113281 672.566406 C 4.597656 670.558594 4.132812 668.539062 3.714844 666.511719 C 3.296875 664.480469 2.929688 662.441406 2.609375 660.394531 C 2.292969 658.347656 2.023438 656.292969 1.804688 654.234375 C 1.585938 652.171875 1.417969 650.109375 1.300781 648.039062 C 1.183594 645.972656 1.113281 643.902344 1.097656 641.828125 L 1.097656 129.828125 C 1.113281 127.757812 1.183594 125.6875 1.300781 123.617188 C 1.417969 121.550781 1.585938 119.484375 1.804688 117.425781 C 2.023438 115.363281 2.292969 113.308594 2.609375 111.261719 C 2.929688 109.214844 3.296875 107.175781 3.714844 105.144531 C 4.132812 103.117188 4.597656 101.097656 5.113281 99.089844 C 5.628906 97.085938 6.191406 95.089844 6.804688 93.113281 C 7.417969 91.132812 8.074219 89.167969 8.785156 87.222656 C 9.492188 85.273438 10.246094 83.34375 11.046875 81.433594 C 11.847656 79.523438 12.695312 77.632812 13.585938 75.761719 C 14.480469 73.894531 15.417969 72.046875 16.398438 70.222656 C 17.382812 68.398438 18.410156 66.597656 19.480469 64.824219 C 20.550781 63.050781 21.660156 61.300781 22.816406 59.582031 C 23.972656 57.859375 25.167969 56.167969 26.402344 54.507812 C 27.640625 52.84375 28.917969 51.214844 30.234375 49.613281 C 31.550781 48.011719 32.90625 46.445312 34.296875 44.910156 C 35.6875 43.375 37.117188 41.875 38.582031 40.410156 C 40.046875 38.945312 41.546875 37.515625 43.082031 36.125 C 44.617188 34.734375 46.183594 33.378906 47.785156 32.0625 C 49.386719 30.746094 51.015625 29.46875 52.679688 28.234375 C 54.339844 26.996094 56.03125 25.800781 57.753906 24.644531 C 59.472656 23.488281 61.21875 22.378906 62.996094 21.308594 C 64.769531 20.238281 66.570312 19.210938 68.394531 18.230469 C 70.21875 17.246094 72.0625 16.308594 73.933594 15.414062 C 75.804688 14.523438 77.695312 13.675781 79.605469 12.875 C 81.515625 12.074219 83.445312 11.320312 85.390625 10.613281 C 87.339844 9.90625 89.304688 9.246094 91.28125 8.632812 C 93.261719 8.019531 95.257812 7.457031 97.261719 6.941406 C 99.269531 6.425781 101.289062 5.960938 103.316406 5.542969 C 105.347656 5.125 107.386719 4.757812 109.433594 4.441406 C 111.480469 4.121094 113.535156 3.851562 115.59375 3.632812 C 117.65625 3.417969 119.71875 3.246094 121.789062 3.128906 C 123.859375 3.011719 125.929688 2.945312 128 2.925781 L 640 2.925781 C 642.09375 2.925781 644.1875 2.976562 646.28125 3.078125 C 648.371094 3.183594 650.460938 3.335938 652.546875 3.542969 C 654.632812 3.746094 656.710938 4.003906 658.78125 4.3125 C 660.855469 4.617188 662.917969 4.976562 664.972656 5.386719 C 667.027344 5.792969 669.070312 6.253906 671.101562 6.761719 C 673.132812 7.269531 675.152344 7.828125 677.15625 8.4375 C 679.160156 9.046875 681.148438 9.703125 683.121094 10.40625 C 685.09375 11.113281 687.046875 11.867188 688.984375 12.667969 C 690.917969 13.472656 692.832031 14.320312 694.726562 15.214844 C 696.621094 16.109375 698.492188 17.050781 700.339844 18.039062 C 702.1875 19.027344 704.007812 20.058594 705.804688 21.136719 C 707.601562 22.214844 709.371094 23.332031 711.113281 24.496094 C 712.855469 25.660156 714.566406 26.867188 716.25 28.113281 C 717.933594 29.363281 719.582031 30.652344 721.203125 31.980469 C 722.820312 33.308594 724.40625 34.675781 725.960938 36.085938 C 727.511719 37.492188 729.027344 38.933594 730.507812 40.417969 C 731.992188 41.898438 733.433594 43.414062 734.839844 44.964844 C 736.25 46.519531 737.617188 48.105469 738.945312 49.722656 C 740.273438 51.34375 741.5625 52.992188 742.808594 54.675781 C 744.058594 56.359375 745.265625 58.070312 746.429688 59.8125 C 747.59375 61.554688 748.710938 63.324219 749.789062 65.121094 C 750.867188 66.917969 751.898438 68.738281 752.886719 70.585938 C 753.875 72.433594 754.816406 74.304688 755.710938 76.199219 C 756.605469 78.09375 757.453125 80.007812 758.257812 81.941406 C 759.058594 83.878906 759.8125 85.832031 760.515625 87.804688 C 761.222656 89.777344 761.878906 91.765625 762.488281 93.769531 C 763.097656 95.773438 763.65625 97.792969 764.164062 99.824219 C 764.671875 101.855469 765.132812 103.898438 765.539062 105.953125 C 765.949219 108.007812 766.308594 110.070312 766.613281 112.144531 C 766.921875 114.214844 767.179688 116.292969 767.382812 118.378906 C 767.589844 120.464844 767.742188 122.554688 767.847656 124.644531 C 767.949219 126.738281 768 128.832031 768 130.925781 L 768 641.828125 C 767.980469 643.910156 767.914062 645.992188 767.792969 648.074219 C 767.675781 650.152344 767.503906 652.230469 767.285156 654.300781 C 767.0625 656.371094 766.792969 658.4375 766.46875 660.496094 C 766.148438 662.554688 765.777344 664.605469 765.355469 666.644531 C 764.933594 668.683594 764.460938 670.714844 763.941406 672.730469 C 763.417969 674.75 762.851562 676.75 762.230469 678.742188 C 761.613281 680.730469 760.945312 682.703125 760.230469 684.660156 C 759.515625 686.617188 758.753906 688.554688 757.945312 690.476562 C 757.132812 692.394531 756.277344 694.292969 755.375 696.171875 C 754.472656 698.050781 753.523438 699.902344 752.53125 701.734375 C 751.539062 703.566406 750.503906 705.375 749.421875 707.15625 C 748.339844 708.933594 747.214844 710.6875 746.050781 712.414062 C 744.882812 714.140625 743.675781 715.835938 742.425781 717.503906 C 741.175781 719.171875 739.886719 720.808594 738.554688 722.410156 C 737.226562 724.015625 735.859375 725.585938 734.453125 727.125 C 733.046875 728.660156 731.601562 730.164062 730.125 731.628906 C 728.644531 733.097656 727.128906 734.527344 725.582031 735.917969 C 724.03125 737.3125 722.449219 738.667969 720.832031 739.980469 C 719.21875 741.296875 717.570312 742.574219 715.894531 743.808594 C 714.214844 745.042969 712.507812 746.238281 710.773438 747.390625 C 709.035156 748.539062 707.273438 749.648438 705.484375 750.714844 C 703.691406 751.78125 701.878906 752.804688 700.039062 753.78125 C 698.199219 754.757812 696.335938 755.6875 694.449219 756.574219 C 692.5625 757.460938 690.65625 758.300781 688.730469 759.09375 C 686.804688 759.886719 684.859375 760.632812 682.898438 761.332031 C 680.933594 762.027344 678.957031 762.679688 676.960938 763.28125 C 674.964844 763.882812 672.957031 764.433594 670.9375 764.9375 C 668.914062 765.441406 666.882812 765.894531 664.835938 766.300781 C 662.792969 766.703125 660.742188 767.058594 658.679688 767.363281 C 656.617188 767.664062 654.550781 767.917969 652.476562 768.121094 C 650.40625 768.324219 648.328125 768.476562 646.246094 768.578125 C 644.164062 768.679688 642.082031 768.730469 640 768.730469 Z M 128 39.496094 C 126.503906 39.496094 125.007812 39.535156 123.515625 39.605469 C 122.019531 39.679688 120.527344 39.789062 119.039062 39.9375 C 117.550781 40.085938 116.066406 40.265625 114.585938 40.488281 C 113.105469 40.707031 111.628906 40.960938 110.164062 41.253906 C 108.695312 41.546875 107.234375 41.875 105.785156 42.238281 C 104.332031 42.601562 102.890625 43 101.460938 43.433594 C 100.027344 43.867188 98.609375 44.335938 97.199219 44.839844 C 95.789062 45.347656 94.394531 45.882812 93.011719 46.457031 C 91.628906 47.03125 90.261719 47.636719 88.910156 48.273438 C 87.558594 48.914062 86.21875 49.585938 84.902344 50.292969 C 83.582031 51 82.28125 51.734375 80.996094 52.503906 C 79.714844 53.273438 78.449219 54.074219 77.203125 54.90625 C 75.960938 55.738281 74.738281 56.597656 73.535156 57.488281 C 72.335938 58.382812 71.15625 59.300781 70 60.25 C 68.839844 61.199219 67.710938 62.175781 66.601562 63.183594 C 65.492188 64.1875 64.410156 65.21875 63.351562 66.277344 C 62.292969 67.335938 61.261719 68.417969 60.257812 69.527344 C 59.25 70.632812 58.273438 71.765625 57.324219 72.925781 C 56.375 74.082031 55.457031 75.261719 54.5625 76.460938 C 53.671875 77.664062 52.8125 78.886719 51.980469 80.128906 C 51.148438 81.375 50.347656 82.636719 49.578125 83.921875 C 48.808594 85.207031 48.074219 86.507812 47.367188 87.828125 C 46.660156 89.144531 45.988281 90.480469 45.347656 91.835938 C 44.710938 93.1875 44.105469 94.554688 43.53125 95.9375 C 42.957031 97.320312 42.421875 98.714844 41.914062 100.125 C 41.410156 101.53125 40.941406 102.953125 40.507812 104.386719 C 40.074219 105.816406 39.675781 107.257812 39.3125 108.710938 C 38.949219 110.160156 38.621094 111.621094 38.328125 113.089844 C 38.035156 114.554688 37.78125 116.03125 37.5625 117.511719 C 37.339844 118.992188 37.160156 120.476562 37.011719 121.964844 C 36.863281 123.453125 36.753906 124.945312 36.679688 126.441406 C 36.609375 127.933594 36.570312 129.429688 36.570312 130.925781 L 36.570312 641.828125 C 36.570312 643.324219 36.609375 644.820312 36.679688 646.316406 C 36.753906 647.808594 36.863281 649.300781 37.011719 650.789062 C 37.160156 652.277344 37.339844 653.765625 37.5625 655.242188 C 37.78125 656.722656 38.035156 658.199219 38.328125 659.664062 C 38.621094 661.132812 38.949219 662.59375 39.3125 664.042969 C 39.675781 665.496094 40.074219 666.9375 40.507812 668.367188 C 40.941406 669.800781 41.410156 671.222656 41.914062 672.628906 C 42.421875 674.039062 42.957031 675.433594 43.53125 676.816406 C 44.105469 678.199219 44.710938 679.566406 45.347656 680.917969 C 45.988281 682.273438 46.660156 683.609375 47.367188 684.925781 C 48.074219 686.246094 48.808594 687.546875 49.578125 688.832031 C 50.347656 690.117188 51.148438 691.378906 51.980469 692.625 C 52.8125 693.867188 53.671875 695.089844 54.5625 696.292969 C 55.457031 697.496094 56.375 698.671875 57.324219 699.832031 C 58.273438 700.988281 59.25 702.121094 60.257812 703.226562 C 61.261719 704.335938 62.292969 705.421875 63.351562 706.476562 C 64.410156 707.535156 65.492188 708.566406 66.601562 709.574219 C 67.710938 710.578125 68.839844 711.554688 70 712.503906 C 71.15625 713.453125 72.335938 714.375 73.535156 715.265625 C 74.738281 716.15625 75.960938 717.015625 77.203125 717.847656 C 78.449219 718.679688 79.710938 719.480469 80.996094 720.25 C 82.28125 721.019531 83.582031 721.757812 84.902344 722.460938 C 86.21875 723.167969 87.554688 723.839844 88.910156 724.480469 C 90.261719 725.117188 91.628906 725.726562 93.011719 726.296875 C 94.394531 726.871094 95.789062 727.410156 97.199219 727.914062 C 98.609375 728.417969 100.027344 728.886719 101.460938 729.320312 C 102.890625 729.753906 104.332031 730.152344 105.785156 730.515625 C 107.234375 730.878906 108.695312 731.207031 110.164062 731.5 C 111.628906 731.792969 113.105469 732.046875 114.585938 732.265625 C 116.066406 732.488281 117.550781 732.671875 119.039062 732.816406 C 120.527344 732.964844 122.019531 733.074219 123.515625 733.148438 C 125.007812 733.21875 126.503906 733.257812 128 733.257812 L 640 733.257812 C 641.496094 733.257812 642.992188 733.21875 644.484375 733.148438 C 645.980469 733.074219 647.472656 732.964844 648.960938 732.816406 C 650.449219 732.671875 651.933594 732.488281 653.414062 732.265625 C 654.894531 732.046875 656.371094 731.792969 657.835938 731.5 C 659.304688 731.207031 660.765625 730.878906 662.214844 730.515625 C 663.667969 730.152344 665.109375 729.753906 666.539062 729.320312 C 667.972656 728.886719 669.390625 728.417969 670.800781 727.914062 C 672.210938 727.410156 673.605469 726.871094 674.988281 726.296875 C 676.371094 725.726562 677.738281 725.117188 679.089844 724.480469 C 680.441406 723.839844 681.78125 723.167969 683.097656 722.460938 C 684.417969 721.757812 685.71875 721.019531 687.003906 720.25 C 688.285156 719.480469 689.550781 718.679688 690.792969 717.847656 C 692.039062 717.015625 693.261719 716.15625 694.464844 715.265625 C 695.664062 714.375 696.84375 713.453125 698 712.503906 C 699.15625 711.554688 700.289062 710.578125 701.398438 709.574219 C 702.507812 708.566406 703.589844 707.535156 704.648438 706.476562 C 705.707031 705.421875 706.738281 704.335938 707.742188 703.226562 C 708.75 702.121094 709.726562 700.988281 710.675781 699.832031 C 711.625 698.671875 712.542969 697.496094 713.4375 696.292969 C 714.328125 695.089844 715.1875 693.867188 716.019531 692.625 C 716.851562 691.378906 717.652344 690.117188 718.421875 688.832031 C 719.191406 687.546875 719.925781 686.246094 720.632812 684.925781 C 721.339844 683.609375 722.011719 682.273438 722.648438 680.917969 C 723.289062 679.566406 723.894531 678.199219 724.46875 676.816406 C 725.042969 675.433594 725.578125 674.039062 726.082031 672.628906 C 726.589844 671.222656 727.058594 669.800781 727.492188 668.367188 C 727.925781 666.9375 728.324219 665.496094 728.6875 664.042969 C 729.050781 662.59375 729.378906 661.132812 729.671875 659.664062 C 729.964844 658.199219 730.21875 656.722656 730.4375 655.242188 C 730.660156 653.765625 730.839844 652.277344 730.988281 650.789062 C 731.136719 649.300781 731.246094 647.808594 731.320312 646.316406 C 731.390625 644.820312 731.429688 643.324219 731.429688 641.828125 L 731.429688 129.828125 C 731.429688 128.332031 731.390625 126.835938 731.320312 125.34375 C 731.246094 123.847656 731.136719 122.355469 730.988281 120.867188 C 730.839844 119.378906 730.660156 117.894531 730.4375 116.414062 C 730.21875 114.933594 729.964844 113.460938 729.671875 111.992188 C 729.378906 110.523438 729.050781 109.066406 728.6875 107.613281 C 728.324219 106.160156 727.925781 104.71875 727.492188 103.289062 C 727.058594 101.855469 726.589844 100.4375 726.082031 99.027344 C 725.578125 97.617188 725.042969 96.222656 724.46875 94.839844 C 723.894531 93.457031 723.289062 92.089844 722.648438 90.738281 C 722.011719 89.386719 721.339844 88.050781 720.632812 86.730469 C 719.925781 85.410156 719.191406 84.109375 718.421875 82.824219 C 717.652344 81.542969 716.851562 80.277344 716.019531 79.035156 C 715.1875 77.789062 714.328125 76.566406 713.4375 75.363281 C 712.542969 74.164062 711.625 72.984375 710.675781 71.828125 C 709.726562 70.671875 708.75 69.539062 707.742188 68.429688 C 706.738281 67.320312 705.707031 66.238281 704.648438 65.179688 C 703.589844 64.121094 702.507812 63.089844 701.398438 62.085938 C 700.289062 61.078125 699.160156 60.101562 698 59.152344 C 696.84375 58.203125 695.664062 57.285156 694.464844 56.390625 C 693.261719 55.5 692.039062 54.640625 690.792969 53.808594 C 689.550781 52.976562 688.285156 52.175781 687.003906 51.40625 C 685.71875 50.636719 684.417969 49.902344 683.097656 49.195312 C 681.78125 48.492188 680.441406 47.816406 679.089844 47.179688 C 677.738281 46.539062 676.371094 45.933594 674.988281 45.359375 C 673.605469 44.785156 672.210938 44.25 670.800781 43.746094 C 669.390625 43.242188 667.972656 42.769531 666.539062 42.335938 C 665.109375 41.902344 663.667969 41.503906 662.214844 41.140625 C 660.765625 40.777344 659.304688 40.449219 657.835938 40.15625 C 656.371094 39.863281 654.894531 39.609375 653.414062 39.390625 C 651.933594 39.171875 650.449219 38.988281 648.960938 38.839844 C 647.472656 38.695312 645.980469 38.582031 644.484375 38.511719 C 642.992188 38.4375 641.496094 38.398438 640 38.398438 Z M 128 39.496094 " fill-opacity="1" fill-rule="nonzero"/></svg>