<svg xmlns="http://www.w3.org/2000/svg" xmlns:xlink="http://www.w3.org/1999/xlink" width="1024" zoomAndPan="magnify" viewBox="0 0 768 767.999994" height="1024" preserveAspectRatio="xMidYMid meet" version="1.0"><path fill="#475dd7" d="M 384.488281 0.285156 C 172.636719 0.285156 0.273438 172.628906 0.273438 384.488281 C 0.273438 596.339844 172.636719 768.695312 384.488281 768.695312 C 596.359375 768.695312 768.695312 596.339844 768.695312 384.488281 C 768.695312 172.628906 596.359375 0.285156 384.488281 0.285156 M 384.488281 707.019531 C 206.65625 707.019531 61.976562 562.332031 61.976562 384.488281 C 61.976562 206.644531 206.65625 61.96875 384.488281 61.96875 C 562.332031 61.96875 707 206.644531 707 384.488281 C 707 562.332031 562.332031 707.019531 384.488281 707.019531 M 378.382812 508.328125 C 364.6875 508.328125 353.007812 513.171875 343.339844 522.816406 C 333.683594 532.484375 328.851562 544.164062 328.851562 557.84375 C 328.851562 571.539062 333.683594 583.21875 343.339844 592.886719 C 353.007812 602.542969 364.6875 607.375 378.382812 607.375 C 392.070312 607.375 403.761719 602.542969 413.4375 592.886719 C 423.085938 583.21875 427.917969 571.539062 427.917969 557.84375 C 427.917969 544.164062 423.085938 532.484375 413.4375 522.816406 C 403.773438 513.171875 392.082031 508.328125 378.382812 508.328125 M 486.992188 189.886719 C 472.472656 180.25 456.054688 173.136719 437.75 168.511719 C 419.445312 163.890625 400.640625 161.582031 381.359375 161.582031 C 362.886719 161.582031 345.207031 164.585938 328.324219 170.625 C 311.445312 176.640625 296.46875 184.769531 283.417969 194.992188 C 270.347656 205.238281 259.898438 217.074219 252.070312 230.535156 C 244.242188 243.980469 240.320312 258.136719 240.320312 273.007812 C 240.320312 285.058594 244.234375 294.199219 252.070312 300.441406 C 259.898438 306.660156 269.054688 309.78125 279.503906 309.78125 C 289.140625 309.78125 296.683594 307.765625 302.101562 303.746094 C 307.542969 299.734375 312.050781 294.824219 315.671875 288.984375 C 319.292969 283.152344 322.492188 276.84375 325.308594 270.003906 C 328.125 263.175781 331.824219 256.835938 336.460938 251.015625 C 341.101562 245.191406 347.105469 240.28125 354.5625 236.25 C 361.988281 232.230469 372.121094 230.222656 384.988281 230.222656 C 403.078125 230.222656 417.234375 234.742188 427.476562 243.792969 C 437.722656 252.832031 442.855469 265.601562 442.855469 282.054688 C 442.855469 292.113281 440.253906 300.957031 435.097656 308.578125 C 429.921875 316.21875 423.425781 323.558594 415.589844 330.59375 C 407.753906 337.617188 399.332031 344.445312 390.289062 351.089844 C 381.25 357.710938 372.796875 364.84375 364.960938 372.484375 C 357.132812 380.117188 350.609375 388.460938 345.394531 397.511719 C 340.160156 406.550781 337.566406 417.097656 337.566406 429.152344 C 337.566406 438.777344 340.765625 447.925781 347.203125 456.5625 C 353.621094 465.222656 363.269531 469.535156 376.144531 469.535156 C 386.183594 469.535156 393.726562 467.914062 398.753906 464.703125 C 403.761719 461.503906 407.675781 457.386719 410.503906 452.347656 C 413.292969 447.328125 415.621094 441.800781 417.421875 435.765625 C 419.238281 429.757812 421.949219 424.121094 425.558594 418.886719 C 428.769531 414.066406 433.699219 409.25 440.351562 404.429688 C 446.984375 399.605469 454.324219 394.273438 462.367188 388.453125 C 470.40625 382.628906 478.761719 376.191406 487.421875 369.160156 C 496.058594 362.144531 503.914062 354.394531 510.941406 345.960938 C 517.972656 337.507812 523.707031 328.078125 528.140625 317.628906 C 532.550781 307.179688 534.792969 295.332031 534.792969 282.054688 C 534.792969 260.757812 530.457031 242.484375 521.78125 227.238281 C 513.09375 211.96875 501.488281 199.523438 486.992188 189.886719 " fill-opacity="1" fill-rule="nonzero"/></svg>