<svg xmlns="http://www.w3.org/2000/svg" xmlns:xlink="http://www.w3.org/1999/xlink" width="1024" zoomAndPan="magnify" viewBox="0 0 768 767.999994" height="1024" preserveAspectRatio="xMidYMid meet" version="1.0"><path fill="#475dd7" d="M 335.9375 699.242188 L 487.410156 547.949219 C 491.679688 543.679688 495.726562 539.210938 499.554688 534.542969 C 503.378906 529.878906 506.972656 525.035156 510.324219 520.015625 C 513.679688 514.996094 516.777344 509.828125 519.625 504.503906 C 522.472656 499.179688 525.054688 493.730469 527.367188 488.15625 C 529.679688 482.582031 531.714844 476.90625 533.472656 471.132812 C 535.230469 465.355469 536.699219 459.511719 537.882812 453.589844 C 539.070312 447.671875 539.960938 441.710938 540.5625 435.703125 C 541.160156 429.699219 541.464844 423.675781 541.476562 417.640625 C 541.507812 397.679688 538.425781 378.207031 532.234375 359.230469 C 530.003906 352.488281 527.382812 345.894531 524.375 339.460938 C 521.367188 333.023438 517.988281 326.785156 514.246094 320.746094 C 510.503906 314.707031 506.417969 308.910156 501.992188 303.351562 C 497.566406 297.792969 492.828125 292.515625 487.78125 287.515625 C 479.152344 278.851562 469.75 271.128906 459.574219 264.34375 C 449.402344 257.5625 438.65625 251.851562 427.339844 247.21875 L 375.585938 298.976562 C 372.761719 301.855469 370.171875 304.9375 367.820312 308.214844 C 369.765625 308.398438 371.703125 308.628906 373.632812 308.914062 C 375.5625 309.195312 377.484375 309.53125 379.398438 309.917969 C 381.308594 310.304688 383.210938 310.738281 385.101562 311.226562 C 386.988281 311.714844 388.863281 312.25 390.726562 312.835938 C 392.585938 313.425781 394.429688 314.058594 396.257812 314.746094 C 398.085938 315.429688 399.890625 316.164062 401.679688 316.945312 C 403.46875 317.726562 405.234375 318.554688 406.976562 319.429688 C 408.722656 320.304688 410.441406 321.226562 412.136719 322.191406 C 413.832031 323.160156 415.5 324.167969 417.140625 325.226562 C 418.78125 326.28125 420.394531 327.378906 421.976562 328.519531 C 423.558594 329.660156 425.109375 330.84375 426.628906 332.066406 C 428.148438 333.292969 429.632812 334.554688 431.085938 335.859375 C 432.539062 337.160156 433.957031 338.503906 435.335938 339.878906 C 436.71875 341.257812 438.0625 342.671875 439.367188 344.121094 C 440.671875 345.574219 441.941406 347.054688 443.167969 348.574219 C 444.394531 350.089844 445.578125 351.640625 446.722656 353.21875 C 447.867188 354.800781 448.96875 356.410156 450.027344 358.050781 C 451.085938 359.6875 452.101562 361.355469 453.070312 363.046875 C 454.042969 364.738281 454.964844 366.457031 455.84375 368.199219 C 456.722656 369.941406 457.554688 371.707031 458.339844 373.492188 C 459.125 375.277344 459.859375 377.085938 460.550781 378.910156 C 461.238281 380.738281 461.878906 382.578125 462.46875 384.4375 C 463.058594 386.296875 463.597656 388.171875 464.089844 390.0625 C 464.582031 391.949219 465.019531 393.851562 465.410156 395.761719 C 465.800781 397.671875 466.136719 399.59375 466.425781 401.523438 C 466.714844 403.453125 466.949219 405.390625 467.132812 407.332031 C 467.316406 409.277344 467.449219 411.222656 467.53125 413.171875 C 467.613281 415.121094 467.640625 417.070312 467.617188 419.023438 C 467.59375 420.972656 467.519531 422.921875 467.394531 424.871094 C 467.265625 426.816406 467.085938 428.757812 466.859375 430.695312 C 466.628906 432.632812 466.347656 434.5625 466.011719 436.488281 C 465.679688 438.410156 465.296875 440.320312 464.863281 442.222656 C 463.761719 447.273438 462.304688 452.214844 460.488281 457.054688 C 458.675781 461.894531 456.527344 466.578125 454.039062 471.105469 C 451.550781 475.636719 448.753906 479.960938 445.640625 484.089844 C 442.53125 488.214844 439.140625 492.097656 435.472656 495.734375 L 283.722656 646.929688 C 278.613281 652.046875 273.054688 656.617188 267.054688 660.644531 C 261.050781 664.671875 254.714844 668.078125 248.046875 670.867188 C 245.128906 672.082031 242.167969 673.164062 239.15625 674.125 C 236.148438 675.082031 233.101562 675.90625 230.023438 676.601562 C 226.941406 677.296875 223.835938 677.859375 220.707031 678.289062 C 217.578125 678.71875 214.433594 679.011719 211.28125 679.167969 C 208.125 679.328125 204.96875 679.351562 201.8125 679.238281 C 198.65625 679.125 195.511719 678.875 192.375 678.492188 C 189.242188 678.109375 186.128906 677.589844 183.039062 676.941406 C 179.949219 676.289062 176.890625 675.503906 173.867188 674.589844 C 170.84375 673.675781 167.867188 672.636719 164.933594 671.464844 C 162 670.292969 159.121094 669 156.296875 667.582031 C 153.476562 666.164062 150.71875 664.625 148.03125 662.972656 C 145.339844 661.316406 142.726562 659.550781 140.1875 657.667969 C 137.648438 655.789062 135.195312 653.804688 132.828125 651.710938 C 130.460938 649.621094 128.1875 647.433594 126.011719 645.144531 C 123.832031 642.859375 121.753906 640.484375 119.777344 638.019531 C 117.804688 635.554688 115.9375 633.007812 114.183594 630.382812 C 112.429688 627.757812 110.789062 625.0625 109.265625 622.292969 C 107.742188 619.527344 106.339844 616.703125 105.058594 613.8125 C 103.777344 610.925781 102.621094 607.988281 101.59375 605.003906 C 100.566406 602.015625 99.667969 598.992188 98.898438 595.929688 C 98.132812 592.863281 97.496094 589.773438 96.996094 586.65625 C 96.492188 583.535156 96.125 580.402344 95.894531 577.253906 C 95.660156 574.101562 95.5625 570.949219 95.601562 567.789062 C 95.640625 564.632812 95.816406 561.480469 96.125 558.339844 C 96.4375 555.195312 96.878906 552.070312 97.457031 548.964844 C 98.039062 545.859375 98.746094 542.785156 99.589844 539.742188 C 100.433594 536.699219 101.40625 533.695312 102.507812 530.734375 C 103.609375 527.777344 104.835938 524.867188 106.1875 522.011719 C 107.539062 519.160156 109.007812 516.367188 110.601562 513.636719 C 112.191406 510.910156 113.898438 508.253906 115.71875 505.671875 C 117.535156 503.09375 119.464844 500.59375 121.5 498.179688 C 123.535156 495.761719 125.667969 493.4375 127.902344 491.207031 L 210.523438 408.675781 C 208.28125 400.527344 206.507812 392.273438 205.210938 383.921875 C 203.914062 375.566406 203.097656 367.167969 202.761719 358.722656 C 202.429688 350.273438 202.578125 341.835938 203.210938 333.40625 C 203.84375 324.976562 204.957031 316.609375 206.550781 308.308594 L 75.6875 438.988281 C 73.652344 441.140625 71.675781 443.335938 69.746094 445.582031 C 67.820312 447.828125 65.949219 450.121094 64.132812 452.457031 C 62.316406 454.792969 60.558594 457.171875 58.855469 459.589844 C 57.15625 462.011719 55.511719 464.472656 53.929688 466.972656 C 52.347656 469.472656 50.824219 472.007812 49.363281 474.582031 C 47.902344 477.15625 46.507812 479.761719 45.171875 482.402344 C 43.835938 485.042969 42.566406 487.714844 41.359375 490.417969 C 40.152344 493.121094 39.011719 495.847656 37.9375 498.605469 C 36.863281 501.363281 35.855469 504.144531 34.917969 506.949219 C 33.976562 509.753906 33.105469 512.582031 32.300781 515.429688 C 31.496094 518.277344 30.761719 521.144531 30.09375 524.027344 C 29.429688 526.910156 28.832031 529.804688 28.308594 532.71875 C 27.78125 535.628906 27.324219 538.550781 26.941406 541.484375 C 26.554688 544.421875 26.242188 547.363281 25.996094 550.308594 C 25.753906 553.257812 25.582031 556.210938 25.480469 559.167969 C 25.378906 562.125 25.347656 565.085938 25.390625 568.042969 C 25.433594 571.003906 25.546875 573.957031 25.730469 576.910156 C 25.914062 579.863281 26.167969 582.8125 26.496094 585.753906 C 26.820312 588.695312 27.21875 591.625 27.6875 594.546875 C 28.152344 597.46875 28.691406 600.378906 29.300781 603.273438 C 29.90625 606.167969 30.582031 609.046875 31.332031 611.910156 C 32.078125 614.773438 32.890625 617.617188 33.777344 620.441406 C 34.660156 623.265625 35.613281 626.066406 36.628906 628.84375 C 37.648438 631.625 38.734375 634.375 39.886719 637.101562 C 41.039062 639.828125 42.253906 642.523438 43.535156 645.191406 C 44.816406 647.855469 46.160156 650.492188 47.570312 653.09375 C 48.980469 655.695312 50.449219 658.261719 51.980469 660.792969 C 53.515625 663.324219 55.105469 665.816406 56.757812 668.273438 C 58.410156 670.726562 60.121094 673.140625 61.890625 675.511719 C 63.660156 677.882812 65.484375 680.210938 67.367188 682.496094 C 69.246094 684.78125 71.183594 687.019531 73.171875 689.207031 C 75.160156 691.398438 77.203125 693.539062 79.292969 695.632812 C 81.386719 697.726562 83.527344 699.765625 85.71875 701.753906 C 87.910156 703.742188 90.148438 705.679688 92.429688 707.558594 C 94.714844 709.441406 97.042969 711.265625 99.414062 713.035156 C 101.785156 714.804688 104.199219 716.515625 106.65625 718.167969 C 109.109375 719.820312 111.601562 721.414062 114.132812 722.945312 C 116.664062 724.476562 119.230469 725.949219 121.832031 727.355469 C 124.433594 728.765625 127.070312 730.109375 129.738281 731.390625 C 132.402344 732.671875 135.101562 733.890625 137.824219 735.042969 C 140.550781 736.191406 143.304688 737.277344 146.082031 738.296875 C 148.859375 739.316406 151.660156 740.265625 154.484375 741.152344 C 157.308594 742.035156 160.152344 742.847656 163.015625 743.597656 C 165.878906 744.34375 168.757812 745.019531 171.652344 745.628906 C 174.550781 746.234375 177.457031 746.773438 180.378906 747.242188 C 183.300781 747.707031 186.234375 748.105469 189.175781 748.433594 C 192.117188 748.757812 195.0625 749.011719 198.015625 749.195312 C 200.96875 749.382812 203.925781 749.496094 206.882812 749.535156 C 209.84375 749.578125 212.800781 749.546875 215.757812 749.445312 C 218.714844 749.34375 221.667969 749.171875 224.617188 748.929688 C 227.566406 748.6875 230.507812 748.371094 233.441406 747.988281 C 236.375 747.601562 239.296875 747.144531 242.207031 746.621094 C 245.121094 746.09375 248.019531 745.496094 250.902344 744.832031 C 253.785156 744.164062 256.648438 743.429688 259.496094 742.625 C 262.34375 741.824219 265.171875 740.949219 267.976562 740.011719 C 270.78125 739.070312 273.5625 738.0625 276.320312 736.988281 C 279.078125 735.914062 281.808594 734.773438 284.507812 733.566406 C 287.210938 732.359375 289.882812 731.089844 292.523438 729.753906 C 295.164062 728.421875 297.769531 727.023438 300.34375 725.5625 C 302.917969 724.101562 305.453125 722.578125 307.953125 720.996094 C 310.453125 719.414062 312.914062 717.773438 315.335938 716.070312 C 317.757812 714.367188 320.136719 712.609375 322.472656 710.792969 C 324.808594 708.976562 327.097656 707.105469 329.34375 705.179688 C 331.589844 703.253906 333.789062 701.273438 335.9375 699.242188 Z M 335.9375 699.242188 " fill-opacity="1" fill-rule="nonzero"/><path fill="#475dd7" d="M 761.0625 198.054688 C 761.054688 193.539062 760.882812 189.027344 760.542969 184.523438 C 760.203125 180.019531 759.699219 175.535156 759.027344 171.070312 C 758.359375 166.601562 757.527344 162.167969 756.53125 157.761719 C 755.535156 153.355469 754.378906 148.992188 753.0625 144.675781 C 751.742188 140.355469 750.269531 136.089844 748.640625 131.875 C 747.007812 127.664062 745.226562 123.519531 743.289062 119.4375 C 741.355469 115.359375 739.273438 111.355469 737.042969 107.425781 C 734.8125 103.5 732.441406 99.660156 729.929688 95.90625 C 727.414062 92.152344 724.769531 88.5 721.988281 84.941406 C 719.207031 81.382812 716.296875 77.929688 713.261719 74.585938 C 710.226562 71.242188 707.070312 68.015625 703.800781 64.902344 C 700.527344 61.789062 697.144531 58.800781 693.652344 55.9375 C 690.160156 53.074219 686.566406 50.34375 682.871094 47.746094 C 679.179688 45.144531 675.394531 42.6875 671.519531 40.367188 C 667.644531 38.042969 663.691406 35.871094 659.65625 33.839844 C 655.621094 31.808594 651.519531 29.929688 647.347656 28.203125 C 643.171875 26.476562 638.941406 24.902344 634.65625 23.484375 C 630.367188 22.070312 626.03125 20.8125 621.652344 19.714844 C 617.269531 18.617188 612.855469 17.679688 608.40625 16.90625 C 603.957031 16.132812 599.484375 15.527344 594.988281 15.082031 C 590.496094 14.636719 585.992188 14.359375 581.476562 14.246094 C 576.960938 14.132812 572.449219 14.1875 567.9375 14.40625 C 563.425781 14.625 558.929688 15.007812 554.445312 15.558594 C 549.964844 16.109375 545.507812 16.824219 541.078125 17.699219 C 536.648438 18.578125 532.253906 19.617188 527.902344 20.816406 C 523.546875 22.019531 519.242188 23.378906 514.988281 24.894531 C 510.734375 26.414062 506.542969 28.085938 502.414062 29.910156 C 498.28125 31.734375 494.222656 33.710938 490.238281 35.835938 C 486.253906 37.960938 482.351562 40.226562 478.53125 42.636719 C 474.714844 45.050781 470.988281 47.597656 467.359375 50.28125 C 463.726562 52.96875 460.199219 55.785156 456.773438 58.726562 C 453.351562 61.671875 450.039062 64.738281 446.839844 67.929688 L 295.367188 219.03125 C 284.757812 229.527344 275.515625 241.109375 267.640625 253.78125 C 265.917969 256.617188 264.273438 259.496094 262.707031 262.417969 C 261.140625 265.339844 259.65625 268.304688 258.25 271.308594 C 256.84375 274.308594 255.519531 277.347656 254.277344 280.425781 C 253.035156 283.5 251.878906 286.605469 250.804688 289.742188 C 249.730469 292.878906 248.742188 296.042969 247.835938 299.234375 C 246.933594 302.425781 246.117188 305.636719 245.386719 308.871094 C 244.660156 312.109375 244.015625 315.359375 243.460938 318.628906 C 242.90625 321.898438 242.441406 325.179688 242.066406 328.476562 C 241.6875 331.769531 241.402344 335.074219 241.203125 338.382812 C 241.003906 341.691406 240.894531 345.007812 240.875 348.320312 C 240.855469 351.636719 240.925781 354.953125 241.085938 358.265625 C 241.246094 361.578125 241.492188 364.882812 241.832031 368.179688 C 242.167969 371.480469 242.597656 374.765625 243.113281 378.042969 C 243.628906 381.320312 244.230469 384.578125 244.921875 387.820312 C 245.613281 391.066406 246.394531 394.289062 247.257812 397.488281 C 248.125 400.691406 249.074219 403.863281 250.113281 407.015625 C 251.148438 410.164062 252.273438 413.285156 253.476562 416.375 C 254.683594 419.460938 255.972656 422.515625 257.339844 425.535156 C 258.710938 428.554688 260.164062 431.535156 261.695312 434.476562 C 263.226562 437.417969 264.835938 440.316406 266.523438 443.171875 C 268.210938 446.023438 269.976562 448.832031 271.816406 451.589844 C 273.65625 454.351562 275.570312 457.058594 277.554688 459.714844 C 279.539062 462.367188 281.597656 464.96875 283.722656 467.511719 C 285.847656 470.058594 288.042969 472.542969 290.304688 474.96875 C 292.5625 477.394531 294.886719 479.757812 297.277344 482.058594 C 299.664062 484.359375 302.113281 486.59375 304.621094 488.761719 C 307.132812 490.933594 309.695312 493.03125 312.320312 495.0625 C 314.941406 497.089844 317.617188 499.046875 320.34375 500.933594 C 323.074219 502.820312 325.851562 504.628906 328.675781 506.363281 C 331.5 508.101562 334.371094 509.757812 337.289062 511.339844 C 340.203125 512.917969 343.160156 514.417969 346.15625 515.839844 C 349.152344 517.261719 352.183594 518.597656 355.253906 519.855469 L 407.101562 468.101562 C 409.898438 465.21875 412.453125 462.140625 414.769531 458.859375 C 412.847656 458.671875 410.929688 458.433594 409.019531 458.144531 C 407.109375 457.859375 405.210938 457.519531 403.316406 457.132812 C 401.425781 456.742188 399.542969 456.304688 397.675781 455.816406 C 395.804688 455.328125 393.949219 454.792969 392.109375 454.207031 C 390.269531 453.621094 388.445312 452.988281 386.636719 452.308594 C 384.828125 451.625 383.039062 450.898438 381.269531 450.121094 C 379.5 449.347656 377.753906 448.523438 376.027344 447.65625 C 374.300781 446.789062 372.601562 445.878906 370.921875 444.917969 C 369.242188 443.960938 367.59375 442.960938 365.96875 441.917969 C 364.34375 440.871094 362.746094 439.785156 361.179688 438.65625 C 359.609375 437.527344 358.074219 436.359375 356.566406 435.148438 C 355.058594 433.941406 353.585938 432.691406 352.144531 431.40625 C 350.707031 430.117188 349.300781 428.792969 347.929688 427.433594 C 346.558594 426.070312 345.226562 424.675781 343.929688 423.242188 C 342.628906 421.8125 341.371094 420.347656 340.152344 418.847656 C 338.933594 417.351562 337.753906 415.820312 336.613281 414.261719 C 335.472656 412.699219 334.375 411.113281 333.320312 409.496094 C 332.265625 407.875 331.253906 406.230469 330.285156 404.558594 C 329.316406 402.890625 328.390625 401.195312 327.511719 399.472656 C 326.632812 397.753906 325.796875 396.011719 325.011719 394.246094 C 324.222656 392.484375 323.480469 390.699219 322.789062 388.898438 C 322.09375 387.09375 321.449219 385.273438 320.851562 383.4375 C 320.25 381.601562 319.703125 379.75 319.203125 377.882812 C 318.703125 376.015625 318.25 374.140625 317.851562 372.25 C 317.449219 370.359375 317.097656 368.460938 316.796875 366.554688 C 316.496094 364.644531 316.242188 362.730469 316.042969 360.808594 C 315.84375 358.886719 315.691406 356.960938 315.59375 355.03125 C 315.496094 353.101562 315.445312 351.171875 315.449219 349.242188 C 315.453125 347.308594 315.507812 345.378906 315.609375 343.449219 C 315.714844 341.519531 315.871094 339.59375 316.078125 337.675781 C 316.28125 335.753906 316.539062 333.839844 316.84375 331.933594 C 317.152344 330.023438 317.507812 328.125 317.914062 326.238281 C 318.050781 325.09375 318.328125 323.984375 318.746094 322.910156 C 319.925781 318.054688 321.429688 313.300781 323.257812 308.652344 C 325.085938 304 327.222656 299.496094 329.667969 295.140625 C 332.113281 290.78125 334.84375 286.609375 337.859375 282.625 C 340.871094 278.640625 344.144531 274.878906 347.675781 271.339844 L 498.964844 120.144531 C 501.507812 117.578125 504.167969 115.144531 506.953125 112.84375 C 509.734375 110.542969 512.625 108.386719 515.625 106.371094 C 518.621094 104.355469 521.710938 102.496094 524.894531 100.785156 C 528.074219 99.078125 531.335938 97.53125 534.671875 96.148438 C 538.007812 94.761719 541.402344 93.546875 544.859375 92.496094 C 548.3125 91.449219 551.8125 90.574219 555.355469 89.875 C 558.898438 89.171875 562.46875 88.648438 566.0625 88.300781 C 569.660156 87.957031 573.261719 87.789062 576.875 87.796875 C 579.578125 87.796875 582.28125 87.894531 584.980469 88.09375 C 587.679688 88.289062 590.367188 88.585938 593.042969 88.984375 C 595.71875 89.378906 598.378906 89.871094 601.019531 90.464844 C 603.660156 91.058594 606.273438 91.746094 608.863281 92.53125 C 611.453125 93.316406 614.011719 94.195312 616.535156 95.167969 C 619.058594 96.140625 621.546875 97.207031 623.992188 98.363281 C 626.4375 99.519531 628.839844 100.765625 631.191406 102.097656 C 633.546875 103.433594 635.847656 104.851562 638.097656 106.355469 C 640.347656 107.859375 642.539062 109.445312 644.671875 111.109375 C 646.804688 112.773438 648.875 114.515625 650.878906 116.332031 C 652.882812 118.152344 654.816406 120.039062 656.683594 122 C 658.546875 123.960938 660.339844 125.988281 662.054688 128.078125 C 663.769531 130.171875 665.40625 132.324219 666.960938 134.539062 C 668.519531 136.75 669.992188 139.019531 671.382812 141.339844 C 672.773438 143.664062 674.074219 146.03125 675.289062 148.449219 C 676.503906 150.867188 677.628906 153.328125 678.660156 155.828125 C 679.695312 158.328125 680.636719 160.863281 681.480469 163.433594 C 682.328125 166.003906 683.078125 168.601562 683.734375 171.226562 C 684.390625 173.855469 684.945312 176.5 685.40625 179.167969 C 685.867188 181.832031 686.226562 184.511719 686.488281 187.207031 C 686.75 189.898438 686.914062 192.597656 686.976562 195.304688 C 687.039062 198.007812 687.003906 200.710938 686.867188 203.414062 C 686.730469 206.117188 686.496094 208.8125 686.160156 211.496094 C 685.824219 214.179688 685.390625 216.851562 684.859375 219.503906 C 684.328125 222.15625 683.699219 224.785156 682.972656 227.394531 C 682.246094 230 681.425781 232.578125 680.511719 235.125 C 679.59375 237.667969 678.585938 240.179688 677.484375 242.648438 C 676.382812 245.121094 675.195312 247.550781 673.914062 249.933594 C 672.632812 252.316406 671.269531 254.652344 669.816406 256.933594 C 668.363281 259.21875 666.828125 261.445312 665.214844 263.617188 C 663.597656 265.785156 661.902344 267.894531 660.132812 269.9375 C 658.359375 271.984375 656.515625 273.960938 654.597656 275.871094 L 572.160156 358.308594 C 577.511719 377.691406 580.222656 397.4375 580.292969 417.546875 C 580.152344 431.46875 578.796875 445.269531 576.226562 458.953125 L 707 328.085938 C 711.277344 323.839844 715.335938 319.390625 719.171875 314.742188 C 723.011719 310.097656 726.609375 305.269531 729.972656 300.265625 C 733.335938 295.261719 736.441406 290.105469 739.292969 284.792969 C 742.144531 279.484375 744.726562 274.046875 747.042969 268.480469 C 749.355469 262.914062 751.390625 257.246094 753.144531 251.480469 C 754.898438 245.710938 756.363281 239.871094 757.542969 233.960938 C 758.71875 228.050781 759.601562 222.09375 760.191406 216.09375 C 760.777344 210.09375 761.070312 204.082031 761.0625 198.054688 Z M 761.0625 198.054688 " fill-opacity="1" fill-rule="nonzero"/></svg>