<svg xmlns="http://www.w3.org/2000/svg" xmlns:xlink="http://www.w3.org/1999/xlink" width="1024" zoomAndPan="magnify" viewBox="0 0 768 767.999994" height="1024" preserveAspectRatio="xMidYMid meet" version="1.0"><path fill="#475dd7" d="M 268.800781 537.601562 L 345.601562 537.601562 L 345.601562 230.398438 L 268.800781 230.398438 Z M 384 0 C 171.839844 0 0 171.839844 0 384 C 0 596.160156 171.839844 768 384 768 C 596.160156 768 768 596.160156 768 384 C 768 171.839844 596.160156 0 384 0 Z M 384 691.199219 C 214.65625 691.199219 76.800781 553.34375 76.800781 384 C 76.800781 214.65625 214.65625 76.800781 384 76.800781 C 553.34375 76.800781 691.199219 214.65625 691.199219 384 C 691.199219 553.34375 553.34375 691.199219 384 691.199219 Z M 422.398438 537.601562 L 499.199219 537.601562 L 499.199219 230.398438 L 422.398438 230.398438 Z M 422.398438 537.601562 " fill-opacity="1" fill-rule="nonzero"/></svg>