<svg xmlns="http://www.w3.org/2000/svg" xmlns:xlink="http://www.w3.org/1999/xlink" width="1024" zoomAndPan="magnify" viewBox="0 0 768 767.999994" height="1024" preserveAspectRatio="xMidYMid meet" version="1.0"><path fill="#475dd7" d="M 384 0 C 172.226562 0 0.078125 172.304688 0.078125 384.078125 C 0.078125 595.847656 172.226562 768 384 768 C 595.773438 768 767.921875 595.847656 767.921875 384.078125 C 767.921875 172.304688 595.773438 0 384 0 Z M 384 705.804688 C 206.628906 705.804688 62.273438 561.449219 62.273438 384.078125 C 62.273438 206.703125 206.628906 62.347656 384 62.347656 C 561.371094 62.347656 705.726562 206.703125 705.726562 384.078125 C 705.726562 561.449219 561.371094 705.804688 384 705.804688 Z M 384 705.804688 " fill-opacity="1" fill-rule="nonzero"/><path fill="#475dd7" d="M 554.921875 372.558594 L 282.796875 215.457031 C 274.042969 210.390625 262.988281 216.6875 262.988281 226.820312 L 262.988281 541.179688 C 262.988281 551.3125 274.042969 557.609375 282.796875 552.542969 L 555.078125 395.441406 C 563.828125 390.375 563.828125 377.625 554.921875 372.558594 Z M 554.921875 372.558594 " fill-opacity="1" fill-rule="nonzero"/></svg>