<svg xmlns="http://www.w3.org/2000/svg" xmlns:xlink="http://www.w3.org/1999/xlink" width="1024" zoomAndPan="magnify" viewBox="0 0 768 767.999994" height="1024" preserveAspectRatio="xMidYMid meet" version="1.0"><defs><clipPath id="c995691ce6"><path d="M 64.125 64.125 L 703.875 64.125 L 703.875 703.875 L 64.125 703.875 Z M 64.125 64.125 " clip-rule="nonzero"/></clipPath><clipPath id="60747d80fc"><path d="M 384 64.125 C 207.339844 64.125 64.125 207.339844 64.125 384 C 64.125 560.660156 207.339844 703.875 384 703.875 C 560.660156 703.875 703.875 560.660156 703.875 384 C 703.875 207.339844 560.660156 64.125 384 64.125 Z M 384 64.125 " clip-rule="nonzero"/></clipPath></defs><g clip-path="url(#c995691ce6)"><g clip-path="url(#60747d80fc)"><path stroke-linecap="butt" transform="matrix(0.75, 0, 0, 0.75, 64.125, 64.125017)" fill="none" stroke-linejoin="miter" d="M 426.500021 -0.0000224362 C 190.953135 -0.0000224362 0.000000230469 190.953112 0.000000230469 426.499999 C 0.000000230469 662.052094 190.953135 853.00002 426.500021 853.00002 C 662.046908 853.00002 853.000042 662.052094 853.000042 426.499999 C 853.000042 190.953112 662.046908 -0.0000224362 426.500021 -0.0000224362 Z M 426.500021 -0.0000224362 " stroke="#475dd7" stroke-width="170" stroke-opacity="1" stroke-miterlimit="4"/></g></g></svg>