<svg xmlns="http://www.w3.org/2000/svg" xmlns:xlink="http://www.w3.org/1999/xlink" width="1024" zoomAndPan="magnify" viewBox="0 0 768 767.999994" height="1024" preserveAspectRatio="xMidYMid meet" version="1.0"><path fill="#475dd7" d="M 94.179688 448.851562 C 105.023438 446.027344 116.105469 452.53125 118.925781 463.375 C 205.808594 767.972656 644.300781 711.890625 651.730469 394.957031 C 653.496094 183.222656 411.863281 51.316406 234.894531 166.988281 L 254.585938 194.929688 C 258.648438 200.691406 254.949219 208.6875 247.929688 209.320312 L 128.101562 220.175781 C 121.082031 220.808594 116.003906 213.609375 118.964844 207.210938 L 169.480469 98.011719 C 172.4375 91.613281 181.210938 90.820312 185.273438 96.582031 L 211.472656 133.753906 C 418.816406 0.0703125 691.6875 148.128906 692.3125 394.960938 C 694.117188 564.453125 550.46875 708.113281 380.972656 706.300781 C 242.019531 708.03125 113.226562 608.285156 79.65625 473.597656 C 76.832031 462.753906 83.335938 451.671875 94.179688 448.851562 Z M 94.179688 448.851562 " fill-opacity="1" fill-rule="nonzero"/><path fill="#475dd7" d="M 323.359375 437.007812 L 358.746094 433.339844 C 359.757812 441.347656 362.746094 447.683594 367.71875 452.359375 C 372.6875 457.035156 378.417969 459.375 384.90625 459.375 C 392.316406 459.375 398.59375 456.363281 403.734375 450.339844 C 408.871094 444.316406 411.441406 435.238281 411.441406 423.105469 C 411.441406 411.730469 408.894531 403.203125 403.796875 397.515625 C 398.699219 391.828125 392.066406 388.984375 383.894531 388.984375 C 373.699219 388.984375 364.558594 393.492188 356.472656 402.507812 L 327.65625 398.335938 L 345.855469 301.914062 L 439.75 301.914062 L 439.75 335.152344 L 372.773438 335.152344 L 367.210938 366.617188 C 375.128906 362.65625 383.21875 360.675781 391.476562 360.675781 C 407.230469 360.675781 420.582031 366.40625 431.535156 377.863281 C 442.488281 389.324219 447.964844 404.191406 447.964844 422.472656 C 447.964844 437.722656 443.542969 451.328125 434.695312 463.292969 C 422.648438 479.636719 405.921875 487.808594 384.527344 487.808594 C 367.421875 487.808594 353.480469 483.21875 342.695312 474.035156 C 331.910156 464.851562 325.464844 452.507812 323.359375 437.007812 Z M 323.359375 437.007812 " fill-opacity="1" fill-rule="nonzero"/></svg>