<svg xmlns="http://www.w3.org/2000/svg" xmlns:xlink="http://www.w3.org/1999/xlink" width="1024" zoomAndPan="magnify" viewBox="0 0 768 767.999994" height="1024" preserveAspectRatio="xMidYMid meet" version="1.0"><defs><clipPath id="758fbed13c"><path d="M 28.320312 2 L 739.320312 2 L 739.320312 767 L 28.320312 767 Z M 28.320312 2 " clip-rule="nonzero"/></clipPath></defs><path fill="#475dd7" d="M 306.929688 569.488281 L 535.34375 411.523438 L 306.929688 253.542969 Z M 306.929688 569.488281 " fill-opacity="1" fill-rule="nonzero"/><g clip-path="url(#758fbed13c)"><path fill="#475dd7" d="M 697.542969 244.511719 C 687.878906 226.367188 665.351562 219.523438 647.203125 229.191406 C 629.078125 238.859375 622.199219 261.40625 631.886719 279.53125 C 653.410156 319.835938 664.734375 365.464844 664.757812 411.503906 C 664.757812 566.375 538.785156 692.367188 383.914062 692.367188 C 229.042969 692.367188 103.09375 566.375 103.09375 411.503906 C 103.09375 270.601562 207.519531 153.925781 342.972656 134 L 342.972656 173.730469 C 342.972656 183.972656 350.058594 187.84375 358.703125 182.394531 L 483.589844 103.402344 C 492.234375 97.933594 492.234375 88.964844 483.589844 83.515625 L 358.703125 4.527344 C 350.058594 -0.941406 342.972656 2.949219 342.972656 13.1875 L 342.972656 58.820312 C 166.335938 79.214844 28.667969 229.5 28.667969 411.503906 C 28.667969 607.417969 188.042969 766.769531 383.933594 766.769531 C 579.824219 766.769531 739.199219 607.417969 739.199219 411.503906 C 739.160156 353.300781 724.761719 295.566406 697.542969 244.511719 Z M 697.542969 244.511719 " fill-opacity="1" fill-rule="nonzero"/></g></svg>