<svg xmlns="http://www.w3.org/2000/svg" xmlns:xlink="http://www.w3.org/1999/xlink" width="1024" zoomAndPan="magnify" viewBox="0 0 768 767.999994" height="1024" preserveAspectRatio="xMidYMid meet" version="1.0"><path fill="#475dd7" d="M 494.585938 234.753906 C 493.507812 235.828125 492.273438 236.78125 490.886719 237.566406 C 482.582031 242.289062 472.015625 239.375 467.292969 231.070312 C 459.644531 217.601562 450.148438 205.164062 439.078125 194.097656 C 432.320312 187.339844 432.320312 176.382812 439.078125 169.625 C 445.839844 162.867188 456.792969 162.867188 463.554688 169.625 C 476.8125 182.886719 488.199219 197.800781 497.382812 213.96875 C 501.316406 220.894531 499.957031 229.382812 494.585938 234.753906 " fill-opacity="1" fill-rule="nonzero"/><path fill="#475dd7" d="M 408.054688 155.480469 C 403.089844 160.445312 395.378906 162.074219 388.621094 158.984375 C 348.242188 140.542969 301.023438 138.410156 259.058594 153.144531 C 250.039062 156.308594 240.160156 151.566406 236.996094 142.546875 C 233.832031 133.53125 238.578125 123.652344 247.589844 120.488281 C 298.660156 102.554688 353.851562 105.050781 403.003906 127.503906 C 411.695312 131.476562 415.523438 141.746094 411.550781 150.4375 C 410.667969 152.367188 409.46875 154.066406 408.054688 155.480469 " fill-opacity="1" fill-rule="nonzero"/><path fill="#475dd7" d="M 316.59375 547.316406 C 254.957031 547.316406 197.015625 523.320312 153.441406 479.738281 C 109.859375 436.15625 85.863281 378.21875 85.863281 316.59375 C 85.863281 254.957031 109.859375 197.015625 153.441406 153.441406 C 197.015625 109.859375 254.957031 85.863281 316.59375 85.863281 C 378.21875 85.863281 436.160156 109.859375 479.738281 153.441406 C 523.320312 197.015625 547.316406 254.957031 547.316406 316.59375 C 547.316406 378.21875 523.320312 436.15625 479.738281 479.738281 C 436.160156 523.320312 378.21875 547.316406 316.59375 547.316406 Z M 744.140625 668.617188 L 545.953125 491.472656 C 632.386719 378.402344 623.917969 216.042969 520.527344 112.652344 C 407.894531 0.0195312 225.285156 0.0195312 112.652344 112.652344 C 0.0195312 225.285156 0.0195312 407.894531 112.652344 520.527344 C 216.042969 623.917969 378.402344 632.386719 491.472656 545.953125 L 668.617188 744.140625 C 689.089844 767.039062 724.597656 768.035156 746.320312 746.316406 C 768.035156 724.597656 767.042969 689.089844 744.140625 668.617188 " fill-opacity="1" fill-rule="nonzero"/></svg>