<svg xmlns="http://www.w3.org/2000/svg" xmlns:xlink="http://www.w3.org/1999/xlink" width="1024" zoomAndPan="magnify" viewBox="0 0 768 767.999994" height="1024" preserveAspectRatio="xMidYMid meet" version="1.0"><defs><g/><clipPath id="22c3fe5d8d"><path d="M 3 27 L 768 27 L 768 409.484375 L 3 409.484375 Z M 3 27 " clip-rule="nonzero"/></clipPath><clipPath id="c8ebdcfba3"><path d="M 1 0.121094 L 765 0.121094 L 765 382.484375 L 1 382.484375 Z M 1 0.121094 " clip-rule="nonzero"/></clipPath><clipPath id="ee9bb1828b"><rect x="0" width="765" y="0" height="383"/></clipPath><clipPath id="5ff900a56c"><path d="M 356.800781 382.34375 L 411.199219 382.34375 L 411.199219 436.742188 L 356.800781 436.742188 Z M 356.800781 382.34375 " clip-rule="nonzero"/></clipPath><clipPath id="a9b2966ce3"><path d="M 384 382.34375 C 368.976562 382.34375 356.800781 394.519531 356.800781 409.542969 C 356.800781 424.566406 368.976562 436.742188 384 436.742188 C 399.023438 436.742188 411.199219 424.566406 411.199219 409.542969 C 411.199219 394.519531 399.023438 382.34375 384 382.34375 Z M 384 382.34375 " clip-rule="nonzero"/></clipPath><clipPath id="9af0cc55d8"><path d="M 0.800781 0.34375 L 55.199219 0.34375 L 55.199219 54.742188 L 0.800781 54.742188 Z M 0.800781 0.34375 " clip-rule="nonzero"/></clipPath><clipPath id="68a80e77fb"><path d="M 28 0.34375 C 12.976562 0.34375 0.800781 12.519531 0.800781 27.542969 C 0.800781 42.566406 12.976562 54.742188 28 54.742188 C 43.023438 54.742188 55.199219 42.566406 55.199219 27.542969 C 55.199219 12.519531 43.023438 0.34375 28 0.34375 Z M 28 0.34375 " clip-rule="nonzero"/></clipPath><clipPath id="8614bfcbca"><rect x="0" width="56" y="0" height="55"/></clipPath><clipPath id="04d26230e4"><path d="M 195 183 L 384 183 L 384 412 L 195 412 Z M 195 183 " clip-rule="nonzero"/></clipPath><clipPath id="4e170b47ed"><path d="M 180.460938 196.160156 L 211.40625 170.816406 L 397.230469 397.714844 L 366.285156 423.058594 Z M 180.460938 196.160156 " clip-rule="nonzero"/></clipPath><clipPath id="beb37f002a"><path d="M 343.199219 331.742188 C 373.03125 368.167969 390.289062 403.371094 381.742188 410.367188 C 373.195312 417.367188 342.085938 393.511719 312.253906 357.085938 C 282.421875 320.660156 195.933594 183.488281 195.933594 183.488281 C 195.933594 183.488281 313.371094 295.316406 343.199219 331.742188 Z M 343.199219 331.742188 " clip-rule="nonzero"/></clipPath><clipPath id="75316919df"><path d="M 0.839844 0.359375 L 189 0.359375 L 189 229 L 0.839844 229 Z M 0.839844 0.359375 " clip-rule="nonzero"/></clipPath><clipPath id="af214a42c1"><path d="M -14.539062 13.160156 L 16.40625 -12.183594 L 202.230469 214.714844 L 171.285156 240.058594 Z M -14.539062 13.160156 " clip-rule="nonzero"/></clipPath><clipPath id="d283126558"><path d="M 148.199219 148.742188 C 178.03125 185.167969 195.289062 220.371094 186.742188 227.367188 C 178.195312 234.367188 147.085938 210.511719 117.253906 174.085938 C 87.421875 137.660156 0.933594 0.488281 0.933594 0.488281 C 0.933594 0.488281 118.371094 112.316406 148.199219 148.742188 Z M 148.199219 148.742188 " clip-rule="nonzero"/></clipPath><clipPath id="d15155859e"><rect x="0" width="189" y="0" height="229"/></clipPath></defs><g fill="#475dd7" fill-opacity="1"><g transform="translate(76.799999, 693.103354)"><g><path d="M 35.5 2 C 28 2 21.875 -0.207031 17.125 -4.625 C 12.375 -9.039062 10 -14.5 10 -21 C 10 -27.664062 12.375 -33.25 17.125 -37.75 C 21.875 -42.25 28 -44.5 35.5 -44.5 C 42.832031 -44.5 48.875 -42.25 53.625 -37.75 C 58.375 -33.25 60.75 -27.664062 60.75 -21 C 60.75 -14.5 58.375 -9.039062 53.625 -4.625 C 48.875 -0.207031 42.832031 2 35.5 2 Z M 35.5 2 "/></g></g></g><g fill="#475dd7" fill-opacity="1"><g transform="translate(147.299183, 693.103354)"><g><path d="M 101.5 -133.25 C 100.164062 -139.414062 97.832031 -144.039062 94.5 -147.125 C 91.164062 -150.207031 86.414062 -151.75 80.25 -151.75 C 70.75 -151.75 63.914062 -147.625 59.75 -139.375 C 55.582031 -131.125 53.414062 -118.082031 53.25 -100.25 C 56.914062 -106.082031 62.207031 -110.664062 69.125 -114 C 76.039062 -117.332031 83.664062 -119 92 -119 C 108.332031 -119 121.457031 -113.832031 131.375 -103.5 C 141.289062 -93.164062 146.25 -78.75 146.25 -60.25 C 146.25 -48.082031 143.789062 -37.414062 138.875 -28.25 C 133.957031 -19.082031 126.789062 -11.914062 117.375 -6.75 C 107.957031 -1.582031 96.832031 1 84 1 C 58.332031 1 40.5 -7.039062 30.5 -23.125 C 20.5 -39.207031 15.5 -62.332031 15.5 -92.5 C 15.5 -124.164062 20.789062 -147.707031 31.375 -163.125 C 41.957031 -178.539062 58.914062 -186.25 82.25 -186.25 C 94.75 -186.25 105.289062 -183.789062 113.875 -178.875 C 122.457031 -173.957031 128.957031 -167.5 133.375 -159.5 C 137.789062 -151.5 140.414062 -142.75 141.25 -133.25 Z M 81.75 -85.25 C 74.582031 -85.25 68.625 -83.125 63.875 -78.875 C 59.125 -74.625 56.75 -68.582031 56.75 -60.75 C 56.75 -52.75 58.957031 -46.5 63.375 -42 C 67.789062 -37.5 74.082031 -35.25 82.25 -35.25 C 89.582031 -35.25 95.375 -37.457031 99.625 -41.875 C 103.875 -46.289062 106 -52.332031 106 -60 C 106 -67.832031 103.914062 -74 99.75 -78.5 C 95.582031 -83 89.582031 -85.25 81.75 -85.25 Z M 81.75 -85.25 "/></g></g></g><g fill="#475dd7" fill-opacity="1"><g transform="translate(306.547298, 693.103354)"><g><path d="M 11.25 -93.75 C 11.25 -122.414062 16.789062 -145 27.875 -161.5 C 38.957031 -178 56.832031 -186.25 81.5 -186.25 C 106.164062 -186.25 124.039062 -178 135.125 -161.5 C 146.207031 -145 151.75 -122.414062 151.75 -93.75 C 151.75 -64.75 146.207031 -42 135.125 -25.5 C 124.039062 -9 106.164062 -0.75 81.5 -0.75 C 56.832031 -0.75 38.957031 -9 27.875 -25.5 C 16.789062 -42 11.25 -64.75 11.25 -93.75 Z M 109.75 -93.75 C 109.75 -110.582031 107.914062 -123.539062 104.25 -132.625 C 100.582031 -141.707031 93 -146.25 81.5 -146.25 C 70 -146.25 62.414062 -141.707031 58.75 -132.625 C 55.082031 -123.539062 53.25 -110.582031 53.25 -93.75 C 53.25 -82.414062 53.914062 -73.039062 55.25 -65.625 C 56.582031 -58.207031 59.289062 -52.207031 63.375 -47.625 C 67.457031 -43.039062 73.5 -40.75 81.5 -40.75 C 89.5 -40.75 95.539062 -43.039062 99.625 -47.625 C 103.707031 -52.207031 106.414062 -58.207031 107.75 -65.625 C 109.082031 -73.039062 109.75 -82.414062 109.75 -93.75 Z M 109.75 -93.75 "/></g></g></g><g fill="#475dd7" fill-opacity="1"><g transform="translate(469.545375, 693.103354)"><g><path d="M 98 0 L 71.25 -38.75 L 48.75 0 L 2.5 0 L 48.5 -71.25 L 1.25 -139.5 L 49.25 -139.5 L 76 -101 L 98.5 -139.5 L 144.75 -139.5 L 98 -69.25 L 146 0 Z M 98 0 "/></g></g></g><g clip-path="url(#22c3fe5d8d)"><g transform="matrix(1, 0, 0, 1, 3, 27)"><g clip-path="url(#ee9bb1828b)"><g clip-path="url(#c8ebdcfba3)"><path fill="#475dd7" d="M 765 382.433594 C 749.574219 38.203125 336.175781 -131.976562 96.234375 122.265625 C 31.835938 192.453125 -2.945312 288.121094 2.027344 382.433594 C 6.109375 290.789062 47.734375 202.144531 115.414062 141.433594 C 211.824219 52.203125 361.589844 28.617188 479.054688 86.292969 C 553.792969 121.75 613.242188 187.574219 640.027344 264.980469 C 653.335938 302.933594 658.800781 343.003906 656.5625 382.433594 C 656.5625 382.433594 765 382.433594 765 382.433594 Z M 765 382.433594 " fill-opacity="1" fill-rule="nonzero"/></g></g></g></g><g clip-path="url(#5ff900a56c)"><g clip-path="url(#a9b2966ce3)"><g transform="matrix(1, 0, 0, 1, 356, 382)"><g clip-path="url(#8614bfcbca)"><g clip-path="url(#9af0cc55d8)"><g clip-path="url(#68a80e77fb)"><path fill="#475dd7" d="M 0.800781 0.34375 L 55.199219 0.34375 L 55.199219 54.742188 L 0.800781 54.742188 Z M 0.800781 0.34375 " fill-opacity="1" fill-rule="nonzero"/></g></g></g></g></g></g><g clip-path="url(#04d26230e4)"><g clip-path="url(#4e170b47ed)"><g clip-path="url(#beb37f002a)"><g transform="matrix(1, 0, 0, 1, 195, 183)"><g clip-path="url(#d15155859e)"><g clip-path="url(#75316919df)"><g clip-path="url(#af214a42c1)"><g clip-path="url(#d283126558)"><path fill="#475dd7" d="M -14.539062 13.160156 L 16.40625 -12.183594 L 202.230469 214.714844 L 171.285156 240.058594 Z M -14.539062 13.160156 " fill-opacity="1" fill-rule="nonzero"/></g></g></g></g></g></g></g></g></svg>