<svg xmlns="http://www.w3.org/2000/svg" xmlns:xlink="http://www.w3.org/1999/xlink" width="1024" zoomAndPan="magnify" viewBox="0 0 768 767.999994" height="1024" preserveAspectRatio="xMidYMid meet" version="1.0"><path fill="#475dd7" d="M 722.539062 233.832031 L 604.371094 253.21875 C 604.371094 253.21875 580.160156 197.195312 492.183594 139.355469 C 484.886719 134.542969 477.253906 130.335938 469.289062 126.730469 C 464.9375 124.777344 459.640625 122.519531 453.457031 120.121094 C 311.75 65.332031 151.140625 118.03125 66.433594 244.242188 C 38.117188 286.4375 12.625 340.414062 11.921875 398.898438 C 11.921875 398.898438 -0.015625 327.851562 39.550781 239.070312 C 110.046875 80.859375 280.121094 -10.703125 451 17.582031 C 485.589844 23.351562 518.910156 33.355469 550.957031 47.59375 C 550.957031 47.59375 656.164062 91.347656 722.539062 233.832031 Z M 722.539062 233.832031 " fill-opacity="1" fill-rule="nonzero"/><path fill="#475dd7" d="M 453.945312 405.964844 L 453.945312 405.8125 C 453.507812 407.03125 453.039062 408.234375 452.535156 409.425781 C 452.03125 410.621094 451.5 411.796875 450.933594 412.960938 C 450.367188 414.125 449.773438 415.273438 449.144531 416.40625 C 448.519531 417.539062 447.863281 418.652344 447.179688 419.75 C 446.492188 420.847656 445.777344 421.925781 445.035156 422.984375 C 444.292969 424.042969 443.523438 425.082031 442.722656 426.101562 C 441.925781 427.117188 441.101562 428.113281 440.25 429.089844 C 439.398438 430.0625 438.519531 431.015625 437.617188 431.941406 C 436.714844 432.867188 435.789062 433.773438 434.839844 434.648438 C 433.890625 435.527344 432.917969 436.378906 431.921875 437.207031 C 430.925781 438.03125 429.910156 438.832031 428.871094 439.605469 C 427.832031 440.375 426.773438 441.121094 425.695312 441.835938 C 424.617188 442.550781 423.523438 443.238281 422.410156 443.894531 C 421.292969 444.554688 420.164062 445.179688 419.015625 445.777344 C 417.867188 446.375 416.703125 446.941406 415.527344 447.476562 C 414.347656 448.011719 413.15625 448.515625 411.953125 448.988281 C 410.746094 449.460938 409.53125 449.898438 408.304688 450.304688 C 407.074219 450.714844 405.835938 451.085938 404.589844 451.429688 C 403.339844 451.769531 402.085938 452.078125 400.820312 452.351562 C 399.554688 452.625 398.285156 452.867188 397.007812 453.074219 C 395.730469 453.277344 394.449219 453.453125 393.160156 453.589844 C 391.875 453.726562 390.585938 453.832031 389.292969 453.902344 C 388.003906 453.972656 386.710938 454.007812 385.414062 454.007812 C 384.121094 454.007812 382.828125 453.972656 381.535156 453.90625 C 380.246094 453.835938 378.957031 453.734375 377.667969 453.597656 C 376.382812 453.460938 375.101562 453.289062 373.824219 453.085938 C 372.546875 452.878906 371.273438 452.640625 370.007812 452.367188 C 368.746094 452.09375 367.488281 451.789062 366.238281 451.449219 C 364.992188 451.109375 363.753906 450.738281 362.523438 450.332031 C 361.296875 449.925781 360.078125 449.488281 358.875 449.015625 C 357.667969 448.546875 356.476562 448.042969 355.296875 447.511719 C 354.117188 446.976562 352.957031 446.410156 351.808594 445.816406 C 350.660156 445.21875 349.527344 444.59375 348.410156 443.9375 C 347.296875 443.28125 346.199219 442.59375 345.121094 441.878906 C 344.042969 441.164062 342.984375 440.421875 341.945312 439.652344 C 340.90625 438.878906 339.886719 438.082031 338.890625 437.257812 C 337.894531 436.433594 336.921875 435.582031 335.96875 434.703125 C 335.019531 433.828125 334.09375 432.925781 333.1875 431.996094 C 332.285156 431.070312 331.410156 430.121094 330.554688 429.148438 C 329.703125 428.175781 328.878906 427.179688 328.078125 426.164062 C 327.277344 425.144531 326.507812 424.105469 325.761719 423.046875 C 325.019531 421.992188 324.300781 420.914062 323.617188 419.816406 C 322.929688 418.71875 322.273438 417.605469 321.644531 416.472656 C 321.015625 415.34375 320.417969 414.195312 319.851562 413.03125 C 319.285156 411.867188 318.75 410.691406 318.246094 409.5 C 317.746094 408.308594 317.273438 407.105469 316.832031 405.886719 C 316.394531 404.667969 315.988281 403.441406 315.613281 402.203125 C 315.238281 400.964844 314.898438 399.71875 314.589844 398.460938 C 314.28125 397.203125 314.007812 395.941406 313.769531 394.667969 C 313.527344 393.398438 313.320312 392.121094 313.148438 390.835938 C 312.976562 389.554688 312.839844 388.269531 312.734375 386.980469 C 312.628906 385.691406 312.5625 384.398438 312.527344 383.105469 C 312.492188 381.8125 312.492188 380.519531 312.523438 379.226562 C 312.558594 377.933594 312.625 376.640625 312.730469 375.351562 C 312.832031 374.0625 312.96875 372.773438 313.140625 371.492188 C 313.3125 370.210938 313.515625 368.933594 313.753906 367.660156 C 313.992188 366.390625 314.265625 365.125 314.574219 363.867188 C 314.878906 362.609375 315.21875 361.363281 315.59375 360.125 C 315.964844 358.886719 316.371094 357.65625 316.808594 356.441406 C 317.246094 355.222656 317.71875 354.015625 318.21875 352.824219 C 318.722656 351.632812 319.257812 350.453125 319.820312 349.292969 C 320.386719 348.128906 320.984375 346.980469 321.609375 345.847656 C 322.234375 344.714844 322.890625 343.601562 323.578125 342.503906 C 324.265625 341.40625 324.976562 340.328125 325.722656 339.269531 C 326.464844 338.210938 327.234375 337.171875 328.035156 336.152344 C 328.832031 335.136719 329.65625 334.140625 330.507812 333.164062 C 331.359375 332.191406 332.238281 331.238281 333.140625 330.3125 C 334.042969 329.386719 334.96875 328.484375 335.917969 327.605469 C 336.867188 326.726562 337.839844 325.875 338.835938 325.046875 C 339.832031 324.222656 340.851562 323.421875 341.886719 322.652344 C 342.925781 321.878906 343.984375 321.132812 345.0625 320.417969 C 346.140625 319.703125 347.238281 319.015625 348.351562 318.359375 C 349.464844 317.703125 350.597656 317.074219 351.746094 316.476562 C 352.890625 315.878906 354.054688 315.3125 355.234375 314.777344 C 356.410156 314.242188 357.601562 313.742188 358.808594 313.269531 C 360.011719 312.796875 361.230469 312.359375 362.457031 311.949219 C 363.683594 311.542969 364.921875 311.171875 366.171875 310.828125 C 367.417969 310.488281 368.675781 310.179688 369.941406 309.90625 C 371.203125 309.632812 372.476562 309.390625 373.753906 309.1875 C 375.03125 308.980469 376.3125 308.808594 377.597656 308.667969 C 378.886719 308.53125 380.175781 308.425781 381.464844 308.359375 C 382.757812 308.289062 384.050781 308.253906 385.34375 308.253906 C 386.640625 308.253906 387.933594 308.285156 389.222656 308.355469 C 390.515625 308.421875 391.804688 308.527344 393.089844 308.664062 C 394.378906 308.800781 395.660156 308.972656 396.9375 309.175781 C 398.214844 309.382812 399.484375 309.621094 400.75 309.894531 C 402.015625 310.167969 403.273438 310.472656 404.519531 310.8125 C 405.769531 311.152344 407.007812 311.527344 408.234375 311.929688 C 409.464844 312.335938 410.679688 312.773438 411.886719 313.246094 C 413.09375 313.714844 414.285156 314.21875 415.460938 314.753906 C 416.640625 315.289062 417.804688 315.851562 418.953125 316.449219 C 420.101562 317.042969 421.234375 317.671875 422.347656 318.328125 C 423.460938 318.984375 424.558594 319.667969 425.636719 320.382812 C 426.714844 321.097656 427.773438 321.84375 428.8125 322.613281 C 429.851562 323.382812 430.871094 324.183594 431.867188 325.007812 C 432.863281 325.832031 433.835938 326.683594 434.789062 327.5625 L 434.789062 327.441406 L 767.9375 264.546875 Z M 453.945312 405.964844 " fill-opacity="1" fill-rule="nonzero"/><path fill="#475dd7" d="M 151.117188 762.972656 C 149.890625 762.972656 148.664062 762.910156 147.445312 762.792969 C 146.222656 762.671875 145.011719 762.492188 143.808594 762.253906 C 142.605469 762.011719 141.414062 761.714844 140.242188 761.359375 C 139.066406 761.003906 137.914062 760.589844 136.777344 760.121094 C 135.644531 759.652344 134.539062 759.125 133.457031 758.546875 C 132.375 757.96875 131.320312 757.339844 130.300781 756.65625 C 129.28125 755.976562 128.296875 755.246094 127.347656 754.46875 C 126.398438 753.6875 125.492188 752.867188 124.625 752 C 123.757812 751.128906 122.933594 750.222656 122.15625 749.273438 C 121.375 748.324219 120.644531 747.339844 119.964844 746.320312 C 119.28125 745.300781 118.652344 744.25 118.074219 743.167969 C 117.496094 742.085938 116.972656 740.976562 116.503906 739.84375 C 116.03125 738.710938 115.621094 737.554688 115.265625 736.382812 C 114.90625 735.207031 114.609375 734.019531 114.371094 732.816406 C 114.132812 731.613281 113.953125 730.398438 113.832031 729.179688 C 113.710938 727.957031 113.652344 726.734375 113.652344 725.503906 L 113.652344 516.21875 L 102.671875 527.195312 C 101.800781 528.039062 100.886719 528.839844 99.9375 529.59375 C 98.988281 530.347656 98.003906 531.054688 96.984375 531.714844 C 95.964844 532.371094 94.914062 532.980469 93.835938 533.535156 C 92.757812 534.09375 91.65625 534.597656 90.53125 535.046875 C 89.402344 535.496094 88.257812 535.890625 87.089844 536.230469 C 85.925781 536.566406 84.746094 536.847656 83.554688 537.070312 C 82.363281 537.296875 81.160156 537.460938 79.953125 537.566406 C 78.742188 537.675781 77.53125 537.722656 76.320312 537.714844 C 75.105469 537.703125 73.894531 537.632812 72.6875 537.503906 C 71.480469 537.378906 70.285156 537.191406 69.097656 536.945312 C 67.90625 536.703125 66.734375 536.398438 65.574219 536.042969 C 64.414062 535.683594 63.277344 535.269531 62.15625 534.800781 C 61.039062 534.332031 59.945312 533.808594 58.875 533.234375 C 57.808594 532.65625 56.769531 532.03125 55.761719 531.355469 C 54.753906 530.679688 53.78125 529.953125 52.84375 529.183594 C 51.90625 528.414062 51.011719 527.597656 50.152344 526.742188 C 49.292969 525.882812 48.480469 524.984375 47.707031 524.046875 C 46.9375 523.109375 46.214844 522.136719 45.539062 521.132812 C 44.859375 520.125 44.234375 519.085938 43.660156 518.015625 C 43.085938 516.949219 42.5625 515.855469 42.09375 514.734375 C 41.625 513.617188 41.210938 512.476562 40.851562 511.320312 C 40.492188 510.160156 40.191406 508.984375 39.945312 507.796875 C 39.703125 506.609375 39.515625 505.410156 39.386719 504.203125 C 39.257812 502.996094 39.191406 501.785156 39.179688 500.574219 C 39.167969 499.359375 39.21875 498.148438 39.324219 496.941406 C 39.429688 495.730469 39.597656 494.53125 39.820312 493.339844 C 40.042969 492.144531 40.324219 490.964844 40.664062 489.800781 C 41.003906 488.636719 41.398438 487.488281 41.847656 486.363281 C 42.296875 485.234375 42.800781 484.132812 43.355469 483.054688 C 43.914062 481.976562 44.519531 480.929688 45.179688 479.910156 C 45.839844 478.890625 46.546875 477.90625 47.300781 476.953125 C 48.054688 476.003906 48.851562 475.09375 49.695312 474.21875 L 124.628906 399.289062 C 125.929688 397.984375 127.320312 396.785156 128.800781 395.6875 C 130.28125 394.589844 131.835938 393.609375 133.457031 392.738281 C 135.082031 391.871094 136.761719 391.128906 138.496094 390.507812 C 140.230469 389.886719 142.003906 389.394531 143.808594 389.035156 C 145.617188 388.679688 147.441406 388.453125 149.28125 388.363281 C 151.121094 388.273438 152.957031 388.316406 154.789062 388.5 C 156.621094 388.679688 158.433594 388.992188 160.21875 389.441406 C 162.007812 389.886719 163.75 390.464844 165.453125 391.167969 C 167.15625 391.875 168.796875 392.699219 170.375 393.648438 C 171.957031 394.59375 173.457031 395.652344 174.882812 396.820312 C 176.308594 397.988281 177.636719 399.253906 178.875 400.621094 C 180.113281 401.984375 181.242188 403.433594 182.265625 404.964844 C 183.289062 406.496094 184.195312 408.09375 184.984375 409.761719 C 185.769531 411.425781 186.433594 413.140625 186.96875 414.902344 C 187.503906 416.664062 187.90625 418.457031 188.175781 420.28125 C 188.445312 422.101562 188.582031 423.933594 188.582031 425.777344 L 188.582031 725.503906 C 188.582031 726.734375 188.523438 727.957031 188.402344 729.179688 C 188.28125 730.398438 188.101562 731.613281 187.863281 732.816406 C 187.625 734.019531 187.324219 735.207031 186.96875 736.382812 C 186.613281 737.554688 186.199219 738.710938 185.730469 739.84375 C 185.261719 740.976562 184.738281 742.085938 184.160156 743.167969 C 183.582031 744.25 182.949219 745.300781 182.269531 746.320312 C 181.585938 747.339844 180.855469 748.324219 180.078125 749.273438 C 179.300781 750.222656 178.476562 751.128906 177.609375 752 C 176.742188 752.867188 175.832031 753.6875 174.886719 754.46875 C 173.9375 755.246094 172.953125 755.976562 171.933594 756.65625 C 170.910156 757.339844 169.859375 757.96875 168.777344 758.546875 C 167.695312 759.125 166.589844 759.652344 165.453125 760.121094 C 164.320312 760.589844 163.167969 761.003906 161.992188 761.359375 C 160.820312 761.714844 159.628906 762.011719 158.425781 762.253906 C 157.222656 762.492188 156.011719 762.671875 154.789062 762.792969 C 153.566406 762.910156 152.34375 762.972656 151.117188 762.972656 Z M 151.117188 762.972656 " fill-opacity="1" fill-rule="nonzero"/><path fill="#475dd7" d="M 300.980469 762.972656 C 299.140625 762.972656 297.308594 762.835938 295.484375 762.566406 C 293.664062 762.292969 291.871094 761.890625 290.109375 761.355469 C 288.34375 760.820312 286.632812 760.160156 284.964844 759.371094 C 283.300781 758.585938 281.703125 757.679688 280.171875 756.65625 C 278.640625 755.632812 277.191406 754.5 275.828125 753.265625 C 274.460938 752.027344 273.195312 750.695312 272.027344 749.273438 C 270.859375 747.847656 269.800781 746.347656 268.851562 744.765625 C 267.90625 743.183594 267.078125 741.542969 266.375 739.84375 C 265.671875 738.140625 265.09375 736.394531 264.644531 734.609375 C 264.199219 732.820312 263.882812 731.011719 263.703125 729.179688 C 263.523438 727.34375 263.476562 725.507812 263.570312 723.667969 C 263.660156 721.828125 263.882812 720.003906 264.242188 718.199219 C 264.601562 716.390625 265.09375 714.621094 265.710938 712.886719 C 266.332031 711.152344 267.078125 709.472656 267.945312 707.847656 C 268.8125 706.222656 269.796875 704.671875 270.894531 703.191406 C 271.992188 701.710938 273.191406 700.320312 274.492188 699.015625 L 424.359375 549.152344 C 425.230469 548.308594 426.140625 547.511719 427.09375 546.757812 C 428.042969 546 429.027344 545.296875 430.046875 544.636719 C 431.066406 543.976562 432.113281 543.371094 433.191406 542.8125 C 434.269531 542.257812 435.375 541.753906 436.5 541.304688 C 437.628906 540.851562 438.773438 540.460938 439.941406 540.121094 C 441.105469 539.78125 442.285156 539.5 443.476562 539.277344 C 444.667969 539.054688 445.871094 538.886719 447.078125 538.78125 C 448.289062 538.675781 449.5 538.625 450.710938 538.636719 C 451.925781 538.648438 453.136719 538.714844 454.34375 538.84375 C 455.546875 538.972656 456.746094 539.160156 457.933594 539.402344 C 459.125 539.648438 460.296875 539.949219 461.457031 540.308594 C 462.617188 540.667969 463.753906 541.082031 464.875 541.550781 C 465.992188 542.019531 467.085938 542.542969 468.15625 543.117188 C 469.222656 543.691406 470.261719 544.316406 471.269531 544.996094 C 472.277344 545.671875 473.25 546.394531 474.1875 547.164062 C 475.125 547.9375 476.019531 548.75 476.878906 549.609375 C 477.738281 550.464844 478.550781 551.363281 479.324219 552.300781 C 480.09375 553.238281 480.816406 554.210938 481.492188 555.21875 C 482.167969 556.226562 482.796875 557.265625 483.371094 558.332031 C 483.945312 559.402344 484.46875 560.496094 484.9375 561.613281 C 485.40625 562.730469 485.820312 563.871094 486.179688 565.03125 C 486.539062 566.191406 486.839844 567.363281 487.085938 568.550781 C 487.328125 569.742188 487.515625 570.9375 487.644531 572.144531 C 487.769531 573.351562 487.839844 574.5625 487.851562 575.777344 C 487.863281 576.988281 487.8125 578.199219 487.707031 579.410156 C 487.597656 580.617188 487.433594 581.820312 487.210938 583.011719 C 486.984375 584.203125 486.707031 585.382812 486.367188 586.546875 C 486.027344 587.714844 485.632812 588.859375 485.183594 589.988281 C 484.734375 591.113281 484.230469 592.214844 483.675781 593.292969 C 483.117188 594.371094 482.511719 595.421875 481.851562 596.441406 C 481.191406 597.460938 480.484375 598.445312 479.730469 599.394531 C 478.976562 600.34375 478.179688 601.257812 477.335938 602.128906 L 327.46875 751.996094 C 325.734375 753.738281 323.84375 755.292969 321.796875 756.664062 C 319.753906 758.03125 317.59375 759.1875 315.324219 760.128906 C 313.050781 761.070312 310.707031 761.78125 308.292969 762.257812 C 305.878906 762.738281 303.441406 762.976562 300.980469 762.972656 Z M 300.980469 762.972656 " fill-opacity="1" fill-rule="nonzero"/><path fill="#475dd7" d="M 450.847656 762.972656 C 448.386719 762.976562 445.949219 762.738281 443.535156 762.257812 C 441.121094 761.78125 438.777344 761.070312 436.507812 760.128906 C 434.234375 759.1875 432.074219 758.03125 430.03125 756.664062 C 427.984375 755.292969 426.09375 753.738281 424.359375 751.996094 L 274.492188 602.128906 C 273.648438 601.257812 272.851562 600.34375 272.097656 599.394531 C 271.34375 598.445312 270.636719 597.460938 269.976562 596.441406 C 269.320312 595.421875 268.710938 594.371094 268.152344 593.292969 C 267.597656 592.214844 267.09375 591.113281 266.644531 589.988281 C 266.195312 588.859375 265.800781 587.714844 265.460938 586.546875 C 265.125 585.382812 264.84375 584.203125 264.617188 583.011719 C 264.394531 581.820312 264.230469 580.617188 264.121094 579.410156 C 264.015625 578.199219 263.96875 576.988281 263.976562 575.777344 C 263.988281 574.5625 264.058594 573.351562 264.1875 572.144531 C 264.3125 570.9375 264.5 569.742188 264.746094 568.554688 C 264.988281 567.363281 265.289062 566.191406 265.648438 565.03125 C 266.007812 563.871094 266.421875 562.734375 266.890625 561.613281 C 267.359375 560.496094 267.882812 559.402344 268.457031 558.332031 C 269.035156 557.265625 269.660156 556.226562 270.335938 555.21875 C 271.011719 554.210938 271.734375 553.238281 272.507812 552.300781 C 273.277344 551.363281 274.09375 550.46875 274.949219 549.609375 C 275.808594 548.75 276.707031 547.9375 277.644531 547.164062 C 278.578125 546.394531 279.550781 545.671875 280.558594 544.996094 C 281.566406 544.320312 282.605469 543.691406 283.671875 543.117188 C 284.742188 542.542969 285.835938 542.019531 286.953125 541.550781 C 288.074219 541.082031 289.210938 540.667969 290.371094 540.308594 C 291.53125 539.949219 292.707031 539.648438 293.894531 539.402344 C 295.082031 539.160156 296.28125 538.972656 297.488281 538.84375 C 298.691406 538.71875 299.902344 538.648438 301.117188 538.636719 C 302.332031 538.625 303.542969 538.675781 304.75 538.78125 C 305.957031 538.890625 307.160156 539.054688 308.351562 539.277344 C 309.542969 539.5 310.722656 539.78125 311.890625 540.121094 C 313.054688 540.460938 314.199219 540.855469 315.328125 541.304688 C 316.453125 541.753906 317.558594 542.257812 318.636719 542.8125 C 319.714844 543.371094 320.761719 543.976562 321.78125 544.636719 C 322.800781 545.296875 323.785156 546 324.734375 546.757812 C 325.6875 547.511719 326.597656 548.308594 327.46875 549.152344 L 477.335938 699.015625 C 478.636719 700.320312 479.835938 701.710938 480.933594 703.191406 C 482.03125 704.671875 483.015625 706.222656 483.882812 707.847656 C 484.75 709.472656 485.496094 711.152344 486.117188 712.886719 C 486.734375 714.621094 487.226562 716.390625 487.585938 718.199219 C 487.945312 720.003906 488.167969 721.828125 488.257812 723.667969 C 488.351562 725.507812 488.304688 727.34375 488.125 729.179688 C 487.945312 731.011719 487.628906 732.820312 487.183594 734.609375 C 486.734375 736.394531 486.160156 738.140625 485.453125 739.84375 C 484.75 741.542969 483.921875 743.183594 482.976562 744.765625 C 482.027344 746.34375 480.972656 747.847656 479.800781 749.273438 C 478.632812 750.695312 477.367188 752.027344 476.003906 753.265625 C 474.636719 754.5 473.1875 755.632812 471.65625 756.65625 C 470.125 757.679688 468.527344 758.585938 466.863281 759.371094 C 465.195312 760.160156 463.484375 760.820312 461.71875 761.355469 C 459.957031 761.890625 458.164062 762.292969 456.34375 762.566406 C 454.519531 762.835938 452.6875 762.972656 450.847656 762.972656 Z M 450.847656 762.972656 " fill-opacity="1" fill-rule="nonzero"/></svg>