<svg xmlns="http://www.w3.org/2000/svg" xmlns:xlink="http://www.w3.org/1999/xlink" width="1024" zoomAndPan="magnify" viewBox="0 0 768 767.999994" height="1024" preserveAspectRatio="xMidYMid meet" version="1.0"><path fill="#7880bf" d="M 383.980469 0 C 171.921875 0 0 171.921875 0 384 C 0 596.078125 171.921875 768.003906 383.980469 768.003906 C 596.035156 768.003906 767.984375 596.082031 767.984375 384 C 767.984375 171.917969 596.082031 0 383.980469 0 Z M 635.527344 344.082031 L 533.316406 443.730469 C 532.074219 444.9375 530.996094 446.28125 530.082031 447.75 C 529.167969 449.222656 528.445312 450.78125 527.910156 452.429688 C 527.375 454.074219 527.042969 455.761719 526.921875 457.492188 C 526.796875 459.21875 526.878906 460.9375 527.175781 462.644531 L 551.308594 603.351562 C 554.300781 620.804688 535.984375 634.109375 520.308594 625.871094 L 393.945312 559.441406 C 392.410156 558.632812 390.804688 558.023438 389.125 557.605469 C 387.441406 557.191406 385.734375 556.984375 384.003906 556.984375 C 382.269531 556.984375 380.5625 557.191406 378.882812 557.605469 C 377.199219 558.023438 375.59375 558.632812 374.058594 559.441406 L 247.695312 625.871094 C 232.023438 634.109375 213.703125 620.804688 216.699219 603.351562 L 240.832031 462.644531 C 241.125 460.9375 241.207031 459.21875 241.082031 457.492188 C 240.957031 455.761719 240.628906 454.074219 240.09375 452.429688 C 239.558594 450.78125 238.835938 449.222656 237.921875 447.75 C 237.007812 446.28125 235.929688 444.941406 234.6875 443.730469 L 132.457031 344.082031 C 119.773438 331.722656 126.769531 310.1875 144.296875 307.640625 L 285.558594 287.109375 C 287.273438 286.863281 288.933594 286.410156 290.539062 285.761719 C 292.140625 285.109375 293.644531 284.273438 295.046875 283.253906 C 296.449219 282.238281 297.707031 281.066406 298.824219 279.742188 C 299.9375 278.417969 300.878906 276.980469 301.648438 275.425781 L 364.84375 147.402344 C 372.679688 131.535156 395.320312 131.535156 403.15625 147.402344 L 466.34375 275.425781 C 467.109375 276.976562 468.050781 278.417969 469.167969 279.742188 C 470.28125 281.066406 471.539062 282.234375 472.941406 283.253906 C 474.34375 284.269531 475.84375 285.105469 477.449219 285.757812 C 479.050781 286.410156 480.710938 286.863281 482.425781 287.109375 L 623.691406 307.640625 C 641.230469 310.1875 648.226562 331.722656 635.546875 344.082031 Z M 635.527344 344.082031 " fill-opacity="1" fill-rule="nonzero"/><path fill="#febb30" d="M 403.15625 147.402344 L 466.34375 275.425781 C 467.109375 276.976562 468.050781 278.417969 469.167969 279.742188 C 470.28125 281.066406 471.539062 282.234375 472.941406 283.253906 C 474.34375 284.269531 475.84375 285.105469 477.449219 285.757812 C 479.050781 286.410156 480.710938 286.863281 482.425781 287.109375 L 623.691406 307.640625 C 641.210938 310.199219 648.207031 331.722656 635.527344 344.082031 L 533.316406 443.730469 C 532.074219 444.9375 530.996094 446.28125 530.082031 447.75 C 529.167969 449.222656 528.445312 450.78125 527.910156 452.429688 C 527.375 454.074219 527.042969 455.761719 526.921875 457.492188 C 526.796875 459.21875 526.878906 460.9375 527.175781 462.644531 L 551.308594 603.351562 C 554.300781 620.804688 535.984375 634.109375 520.308594 625.871094 L 393.945312 559.441406 C 392.410156 558.632812 390.804688 558.023438 389.125 557.605469 C 387.441406 557.191406 385.734375 556.984375 384.003906 556.984375 C 382.269531 556.984375 380.5625 557.191406 378.882812 557.605469 C 377.199219 558.023438 375.59375 558.632812 374.058594 559.441406 L 247.695312 625.871094 C 232.023438 634.109375 213.703125 620.804688 216.699219 603.351562 L 240.832031 462.644531 C 241.125 460.9375 241.207031 459.21875 241.082031 457.492188 C 240.957031 455.761719 240.628906 454.074219 240.09375 452.429688 C 239.558594 450.78125 238.835938 449.222656 237.921875 447.75 C 237.007812 446.28125 235.929688 444.941406 234.6875 443.730469 L 132.457031 344.082031 C 119.773438 331.722656 126.769531 310.1875 144.296875 307.640625 L 285.558594 287.109375 C 287.273438 286.863281 288.933594 286.410156 290.539062 285.761719 C 292.140625 285.109375 293.644531 284.273438 295.046875 283.253906 C 296.449219 282.238281 297.707031 281.066406 298.824219 279.742188 C 299.9375 278.417969 300.878906 276.980469 301.648438 275.425781 L 364.84375 147.402344 C 372.679688 131.523438 395.320312 131.523438 403.15625 147.402344 Z M 403.15625 147.402344 " fill-opacity="1" fill-rule="nonzero"/></svg>