<svg xmlns="http://www.w3.org/2000/svg" xmlns:xlink="http://www.w3.org/1999/xlink" width="1024" zoomAndPan="magnify" viewBox="0 0 768 767.999994" height="1024" preserveAspectRatio="xMidYMid meet" version="1.0"><defs><clipPath id="053b1294aa"><path d="M 0 42.71875 L 146 42.71875 L 146 194 L 0 194 Z M 0 42.71875 " clip-rule="nonzero"/></clipPath><clipPath id="f54fcad7a7"><path d="M 622 42.71875 L 768 42.71875 L 768 194 L 622 194 Z M 622 42.71875 " clip-rule="nonzero"/></clipPath><clipPath id="be0396d47a"><path d="M 0 574 L 146 574 L 146 725.21875 L 0 725.21875 Z M 0 574 " clip-rule="nonzero"/></clipPath><clipPath id="2db91cf043"><path d="M 622 574 L 768 574 L 768 725.21875 L 622 725.21875 Z M 622 574 " clip-rule="nonzero"/></clipPath></defs><path fill="#475dd7" d="M 300.3125 597.945312 C 280.0625 597.945312 284.5625 568.699219 284.5625 553.402344 C 284.5625 548.453125 288.164062 544.402344 293.113281 544.402344 C 332.257812 542.152344 347.554688 532.253906 347.554688 507.957031 L 347.554688 226.296875 C 302.109375 226.296875 282.761719 221.347656 282.3125 300.085938 C 282.3125 312.683594 262.964844 309.085938 244.519531 309.085938 C 239.570312 309.085938 235.519531 305.035156 235.519531 300.085938 L 235.519531 178.601562 C 235.519531 173.652344 239.570312 169.601562 244.519531 169.601562 L 523.929688 169.601562 C 528.878906 169.601562 532.929688 173.652344 532.929688 178.601562 L 532.929688 300.085938 C 532.929688 312.683594 513.582031 309.085938 495.136719 309.085938 C 490.1875 309.085938 486.136719 305.035156 486.136719 300.085938 C 485.6875 221.347656 466.339844 226.296875 420.894531 226.296875 L 420.894531 507.957031 C 420.894531 532.253906 436.191406 542.152344 475.335938 544.402344 C 487.484375 544.851562 483.4375 561.949219 483.886719 577.699219 C 484.335938 586.695312 480.285156 598.394531 467.6875 598.394531 Z M 300.3125 597.945312 " fill-opacity="1" fill-rule="evenodd"/><g clip-path="url(#053b1294aa)"><path fill="#475dd7" d="M 122.136719 193.449219 L 23.597656 193.449219 C 11 193.449219 0.203125 183.101562 0.203125 170.054688 L 0.203125 66.117188 C 0.203125 53.070312 11 42.71875 23.597656 42.71875 L 122.136719 42.71875 C 134.734375 42.71875 145.53125 53.070312 145.53125 66.117188 L 145.53125 170.054688 C 145.53125 183.101562 134.734375 193.449219 122.136719 193.449219 Z M 122.136719 193.449219 " fill-opacity="1" fill-rule="evenodd"/></g><g clip-path="url(#f54fcad7a7)"><path fill="#475dd7" d="M 744.402344 193.449219 L 646.316406 193.449219 C 633.265625 193.449219 622.917969 183.101562 622.917969 170.054688 L 622.917969 66.117188 C 622.917969 53.070312 633.265625 42.71875 646.316406 42.71875 L 744.402344 42.71875 C 757.449219 42.71875 767.796875 53.070312 767.796875 66.117188 L 767.796875 170.054688 C 767.796875 183.101562 757.449219 193.449219 744.402344 193.449219 Z M 744.402344 193.449219 " fill-opacity="1" fill-rule="evenodd"/></g><g clip-path="url(#be0396d47a)"><path fill="#475dd7" d="M 122.136719 725.277344 L 23.597656 725.277344 C 11 725.277344 0.203125 714.480469 0.203125 701.882812 L 0.203125 597.945312 C 0.203125 584.898438 11 574.546875 23.597656 574.546875 L 122.136719 574.546875 C 134.734375 574.546875 145.53125 584.898438 145.53125 597.945312 L 145.53125 701.882812 C 145.53125 714.480469 134.734375 725.277344 122.136719 725.277344 Z M 122.136719 725.277344 " fill-opacity="1" fill-rule="evenodd"/></g><g clip-path="url(#2db91cf043)"><path fill="#475dd7" d="M 744.402344 725.277344 L 646.316406 725.277344 C 633.265625 725.277344 622.917969 714.480469 622.917969 701.882812 L 622.917969 597.945312 C 622.917969 584.898438 633.265625 574.546875 646.316406 574.546875 L 744.402344 574.546875 C 757.449219 574.546875 767.796875 584.898438 767.796875 597.945312 L 767.796875 701.882812 C 767.796875 714.480469 757.449219 725.277344 744.402344 725.277344 Z M 744.402344 725.277344 " fill-opacity="1" fill-rule="evenodd"/></g><path fill="#475dd7" d="M 631.917969 136.308594 L 136.53125 136.308594 C 112.6875 136.308594 112.6875 100.3125 136.53125 100.3125 L 631.917969 100.3125 C 655.3125 100.3125 655.3125 136.308594 631.917969 136.308594 Z M 73.089844 601.09375 C 63.191406 601.09375 55.09375 593.445312 55.09375 583.097656 L 55.09375 184.449219 C 55.09375 161.054688 91.089844 161.054688 91.089844 184.449219 L 91.089844 583.097656 C 91.089844 593.445312 82.992188 601.09375 73.089844 601.09375 Z M 631.917969 667.6875 L 136.53125 667.6875 C 112.6875 667.6875 112.6875 631.691406 136.53125 631.691406 L 631.917969 631.691406 C 655.3125 631.691406 655.3125 667.6875 631.917969 667.6875 Z M 695.359375 601.09375 C 685.460938 601.09375 677.359375 592.996094 677.359375 583.097656 L 677.359375 184.449219 C 677.359375 161.054688 713.355469 161.054688 713.355469 184.449219 L 713.355469 583.097656 C 713.355469 592.996094 705.257812 601.09375 695.359375 601.09375 Z M 695.359375 601.09375 " fill-opacity="1" fill-rule="evenodd"/></svg>