<svg xmlns="http://www.w3.org/2000/svg" xmlns:xlink="http://www.w3.org/1999/xlink" width="1024" zoomAndPan="magnify" viewBox="0 0 768 767.999994" height="1024" preserveAspectRatio="xMidYMid meet" version="1.0"><path fill="#475dd7" d="M 329.675781 55.734375 C 328.121094 55.140625 326.535156 54.667969 324.910156 54.3125 C 323.285156 53.960938 321.640625 53.730469 319.980469 53.621094 C 318.324219 53.515625 316.664062 53.53125 315.007812 53.675781 C 313.351562 53.820312 311.714844 54.085938 310.097656 54.476562 C 308.480469 54.863281 306.902344 55.371094 305.363281 56 C 303.820312 56.628906 302.335938 57.367188 300.90625 58.21875 C 299.480469 59.066406 298.121094 60.019531 296.835938 61.074219 C 295.550781 62.132812 294.351562 63.277344 293.238281 64.511719 L 153.953125 219.203125 L 36.195312 219.203125 C 35.109375 219.203125 34.027344 219.253906 32.949219 219.363281 C 31.871094 219.46875 30.796875 219.628906 29.734375 219.839844 C 28.667969 220.050781 27.617188 220.3125 26.582031 220.628906 C 25.542969 220.945312 24.523438 221.308594 23.519531 221.722656 C 22.515625 222.140625 21.539062 222.601562 20.582031 223.113281 C 19.625 223.625 18.695312 224.183594 17.792969 224.785156 C 16.890625 225.386719 16.019531 226.035156 15.183594 226.722656 C 14.34375 227.410156 13.539062 228.136719 12.773438 228.90625 C 12.007812 229.671875 11.277344 230.472656 10.589844 231.3125 C 9.902344 232.152344 9.257812 233.023438 8.652344 233.925781 C 8.050781 234.824219 7.492188 235.753906 6.984375 236.710938 C 6.472656 237.667969 6.007812 238.648438 5.59375 239.652344 C 5.175781 240.652344 4.8125 241.671875 4.496094 242.710938 C 4.183594 243.75 3.917969 244.800781 3.707031 245.863281 C 3.496094 246.929688 3.335938 248 3.230469 249.082031 C 3.125 250.160156 3.070312 251.242188 3.070312 252.328125 L 3.070312 533.882812 C 3.070312 534.96875 3.125 536.050781 3.230469 537.128906 C 3.335938 538.210938 3.496094 539.28125 3.707031 540.34375 C 3.917969 541.410156 4.183594 542.460938 4.496094 543.5 C 4.8125 544.535156 5.175781 545.554688 5.59375 546.558594 C 6.007812 547.5625 6.472656 548.539062 6.984375 549.496094 C 7.492188 550.453125 8.050781 551.382812 8.652344 552.285156 C 9.257812 553.1875 9.902344 554.058594 10.589844 554.894531 C 11.277344 555.734375 12.007812 556.539062 12.773438 557.304688 C 13.539062 558.070312 14.34375 558.800781 15.183594 559.488281 C 16.019531 560.175781 16.890625 560.820312 17.792969 561.425781 C 18.695312 562.027344 19.625 562.585938 20.582031 563.097656 C 21.539062 563.605469 22.515625 564.070312 23.519531 564.484375 C 24.523438 564.902344 25.542969 565.265625 26.582031 565.582031 C 27.617188 565.894531 28.667969 566.160156 29.734375 566.371094 C 30.796875 566.582031 31.871094 566.742188 32.949219 566.847656 C 34.027344 566.953125 35.109375 567.007812 36.195312 567.007812 L 154.945312 567.007812 L 294.234375 706.292969 C 295.382812 707.453125 296.609375 708.519531 297.917969 709.5 C 299.226562 710.476562 300.597656 711.351562 302.035156 712.125 C 303.472656 712.902344 304.957031 713.566406 306.492188 714.121094 C 308.027344 714.675781 309.597656 715.113281 311.195312 715.4375 C 312.796875 715.761719 314.410156 715.964844 316.042969 716.046875 C 317.671875 716.132812 319.300781 716.097656 320.921875 715.941406 C 322.546875 715.785156 324.152344 715.507812 325.738281 715.117188 C 327.320312 714.722656 328.867188 714.214844 330.378906 713.59375 C 331.886719 712.96875 333.339844 712.238281 334.742188 711.402344 C 336.144531 710.566406 337.476562 709.628906 338.738281 708.59375 C 340 707.5625 341.179688 706.441406 342.277344 705.230469 C 343.375 704.023438 344.378906 702.738281 345.285156 701.382812 C 346.191406 700.027344 346.996094 698.609375 347.695312 697.132812 C 348.390625 695.660156 348.976562 694.140625 349.453125 692.578125 C 349.925781 691.015625 350.28125 689.425781 350.519531 687.8125 C 350.757812 686.199219 350.878906 684.574219 350.875 682.941406 L 350.875 86.707031 C 350.878906 85.039062 350.757812 83.382812 350.511719 81.734375 C 350.265625 80.089844 349.894531 78.46875 349.40625 76.878906 C 348.914062 75.285156 348.308594 73.738281 347.582031 72.238281 C 346.859375 70.738281 346.027344 69.300781 345.085938 67.929688 C 344.144531 66.554688 343.105469 65.257812 341.96875 64.039062 C 340.832031 62.820312 339.613281 61.695312 338.304688 60.664062 C 337 59.628906 335.625 58.699219 334.175781 57.871094 C 332.730469 57.046875 331.230469 56.335938 329.675781 55.734375 Z M 284.628906 602.945312 L 192.046875 510.363281 C 190.507812 508.839844 188.835938 507.476562 187.03125 506.28125 C 185.226562 505.082031 183.324219 504.074219 181.320312 503.25 C 179.316406 502.425781 177.253906 501.804688 175.128906 501.382812 C 173.003906 500.964844 170.859375 500.757812 168.691406 500.757812 L 69.320312 500.757812 L 69.320312 285.449219 L 168.691406 285.449219 C 171.019531 285.457031 173.316406 285.222656 175.59375 284.742188 C 177.867188 284.265625 180.070312 283.554688 182.195312 282.613281 C 184.320312 281.671875 186.324219 280.519531 188.207031 279.15625 C 190.09375 277.792969 191.8125 276.246094 193.371094 274.519531 L 284.628906 172.996094 L 284.628906 603.609375 Z M 284.628906 602.945312 " fill-opacity="1" fill-rule="nonzero"/><path fill="#475dd7" d="M 542.003906 152.953125 C 541.234375 152.1875 540.425781 151.460938 539.585938 150.773438 C 538.742188 150.089844 537.871094 149.445312 536.964844 148.84375 C 536.0625 148.242188 535.128906 147.6875 534.171875 147.179688 C 533.210938 146.667969 532.230469 146.207031 531.222656 145.796875 C 530.21875 145.382812 529.199219 145.019531 528.15625 144.707031 C 527.117188 144.394531 526.0625 144.132812 524.996094 143.925781 C 523.933594 143.71875 522.859375 143.5625 521.777344 143.457031 C 520.695312 143.355469 519.613281 143.304688 518.527344 143.308594 C 517.441406 143.3125 516.355469 143.367188 515.277344 143.476562 C 514.195312 143.589844 513.125 143.75 512.058594 143.964844 C 510.996094 144.179688 509.941406 144.449219 508.90625 144.765625 C 507.867188 145.085938 506.847656 145.453125 505.84375 145.875 C 504.84375 146.292969 503.863281 146.757812 502.90625 147.273438 C 501.949219 147.789062 501.023438 148.351562 500.121094 148.957031 C 499.21875 149.5625 498.351562 150.210938 497.515625 150.90625 C 496.675781 151.597656 495.875 152.328125 495.109375 153.097656 C 494.34375 153.871094 493.621094 154.675781 492.933594 155.515625 C 492.246094 156.359375 491.605469 157.234375 491.003906 158.136719 C 490.402344 159.042969 489.851562 159.976562 489.339844 160.9375 C 488.832031 161.894531 488.371094 162.878906 487.960938 163.882812 C 487.550781 164.886719 487.1875 165.910156 486.875 166.953125 C 486.566406 167.992188 486.304688 169.046875 486.097656 170.109375 C 485.890625 171.175781 485.734375 172.25 485.632812 173.332031 C 485.53125 174.414062 485.480469 175.496094 485.484375 176.582031 C 485.488281 177.667969 485.546875 178.753906 485.660156 179.832031 C 485.769531 180.914062 485.933594 181.984375 486.148438 183.050781 C 486.367188 184.113281 486.632812 185.164062 486.953125 186.203125 C 487.273438 187.242188 487.640625 188.261719 488.0625 189.261719 C 488.480469 190.265625 488.949219 191.242188 489.464844 192.199219 C 489.980469 193.15625 490.542969 194.082031 491.152344 194.984375 C 491.757812 195.882812 492.410156 196.753906 493.101562 197.589844 C 493.792969 198.425781 494.527344 199.226562 495.296875 199.992188 C 498.351562 203.015625 501.332031 206.117188 504.234375 209.289062 C 507.136719 212.464844 509.960938 215.707031 512.703125 219.019531 C 515.445312 222.332031 518.105469 225.710938 520.679688 229.15625 C 523.257812 232.601562 525.746094 236.105469 528.148438 239.675781 C 530.550781 243.242188 532.863281 246.867188 535.085938 250.546875 C 537.308594 254.230469 539.441406 257.964844 541.480469 261.75 C 543.519531 265.535156 545.460938 269.371094 547.3125 273.253906 C 549.160156 277.136719 550.914062 281.0625 552.570312 285.035156 C 554.226562 289.003906 555.78125 293.011719 557.238281 297.058594 C 558.695312 301.105469 560.054688 305.183594 561.308594 309.296875 C 562.566406 313.410156 563.71875 317.550781 564.769531 321.722656 C 565.820312 325.894531 566.769531 330.085938 567.613281 334.304688 C 568.457031 338.519531 569.195312 342.757812 569.832031 347.011719 C 570.46875 351.265625 570.996094 355.53125 571.421875 359.8125 C 571.84375 364.089844 572.164062 368.378906 572.375 372.675781 C 572.589844 376.96875 572.695312 381.269531 572.695312 385.570312 C 572.695312 389.871094 572.589844 394.167969 572.375 398.464844 C 572.164062 402.757812 571.84375 407.046875 571.421875 411.328125 C 570.996094 415.605469 570.46875 419.875 569.832031 424.128906 C 569.195312 428.382812 568.457031 432.617188 567.613281 436.835938 C 566.769531 441.050781 565.820312 445.246094 564.769531 449.414062 C 563.71875 453.585938 562.566406 457.726562 561.308594 461.839844 C 560.054688 465.953125 558.695312 470.035156 557.238281 474.082031 C 555.78125 478.128906 554.226562 482.136719 552.570312 486.105469 C 550.914062 490.074219 549.160156 494 547.3125 497.882812 C 545.460938 501.765625 543.519531 505.601562 541.480469 509.386719 C 539.441406 513.175781 537.308594 516.910156 535.085938 520.589844 C 532.863281 524.273438 530.550781 527.898438 528.148438 531.464844 C 525.746094 535.03125 523.257812 538.539062 520.679688 541.980469 C 518.105469 545.425781 515.445312 548.804688 512.703125 552.117188 C 509.960938 555.429688 507.136719 558.675781 504.234375 561.847656 C 501.332031 565.019531 498.351562 568.121094 495.296875 571.148438 C 494.316406 571.851562 493.378906 572.605469 492.484375 573.410156 C 491.585938 574.21875 490.734375 575.070312 489.929688 575.96875 C 489.128906 576.867188 488.375 577.808594 487.675781 578.789062 C 486.972656 579.769531 486.328125 580.789062 485.738281 581.839844 C 485.148438 582.890625 484.617188 583.972656 484.144531 585.082031 C 483.671875 586.191406 483.261719 587.324219 482.914062 588.476562 C 482.5625 589.632812 482.277344 590.800781 482.058594 591.988281 C 481.835938 593.171875 481.683594 594.367188 481.59375 595.570312 C 481.5 596.773438 481.476562 597.976562 481.519531 599.179688 C 481.558594 600.386719 481.667969 601.585938 481.839844 602.78125 C 482.011719 603.972656 482.246094 605.152344 482.546875 606.320312 C 482.847656 607.488281 483.214844 608.636719 483.640625 609.765625 C 484.066406 610.894531 484.554688 611.996094 485.101562 613.070312 C 485.648438 614.144531 486.25 615.1875 486.910156 616.195312 C 487.570312 617.203125 488.285156 618.175781 489.050781 619.105469 C 489.820312 620.035156 490.632812 620.921875 491.496094 621.765625 C 492.359375 622.605469 493.265625 623.398438 494.21875 624.140625 C 495.167969 624.882812 496.15625 625.574219 497.179688 626.207031 C 498.203125 626.84375 499.261719 627.421875 500.351562 627.941406 C 501.4375 628.460938 502.550781 628.917969 503.691406 629.316406 C 504.828125 629.714844 505.984375 630.050781 507.160156 630.320312 C 508.335938 630.59375 509.519531 630.800781 510.71875 630.941406 C 511.917969 631.085938 513.117188 631.160156 514.324219 631.171875 C 515.53125 631.183594 516.734375 631.128906 517.933594 631.007812 C 519.132812 630.886719 520.320312 630.703125 521.5 630.453125 C 522.679688 630.203125 523.84375 629.886719 524.988281 629.511719 C 526.136719 629.132812 527.257812 628.695312 528.355469 628.195312 C 529.453125 627.695312 530.519531 627.136719 531.554688 626.519531 C 532.589844 625.902344 533.589844 625.230469 534.554688 624.507812 C 535.515625 623.78125 536.4375 623.003906 537.316406 622.179688 C 538.195312 621.351562 539.027344 620.480469 539.808594 619.5625 C 540.59375 618.648438 541.324219 617.691406 542.003906 616.691406 C 545.804688 612.902344 549.511719 609.019531 553.121094 605.046875 C 556.734375 601.074219 560.242188 597.015625 563.65625 592.871094 C 567.066406 588.722656 570.375 584.496094 573.578125 580.1875 C 576.78125 575.878906 579.875 571.496094 582.863281 567.035156 C 585.851562 562.574219 588.726562 558.042969 591.492188 553.441406 C 594.257812 548.839844 596.90625 544.171875 599.441406 539.4375 C 601.976562 534.707031 604.394531 529.914062 606.691406 525.0625 C 608.992188 520.210938 611.171875 515.308594 613.230469 510.347656 C 615.289062 505.390625 617.222656 500.382812 619.035156 495.332031 C 620.847656 490.277344 622.53125 485.179688 624.09375 480.046875 C 625.65625 474.910156 627.089844 469.738281 628.394531 464.527344 C 629.703125 459.320312 630.882812 454.085938 631.929688 448.820312 C 632.980469 443.554688 633.898438 438.269531 634.6875 432.957031 C 635.476562 427.648438 636.136719 422.320312 636.664062 416.976562 C 637.191406 411.636719 637.585938 406.28125 637.851562 400.921875 C 638.113281 395.558594 638.246094 390.191406 638.246094 384.824219 C 638.246094 379.453125 638.113281 374.089844 637.851562 368.726562 C 637.585938 363.363281 637.191406 358.011719 636.664062 352.671875 C 636.136719 347.328125 635.476562 342 634.6875 336.691406 C 633.898438 331.378906 632.980469 326.09375 631.929688 320.828125 C 630.882812 315.5625 629.703125 310.324219 628.394531 305.117188 C 627.089844 299.910156 625.65625 294.738281 624.09375 289.601562 C 622.53125 284.464844 620.847656 279.371094 619.035156 274.316406 C 617.222656 269.261719 615.289062 264.257812 613.230469 259.296875 C 611.171875 254.339844 608.992188 249.433594 606.691406 244.582031 C 604.394531 239.734375 601.976562 234.941406 599.441406 230.207031 C 596.90625 225.476562 594.257812 220.808594 591.492188 216.207031 C 588.726562 211.605469 585.851562 207.074219 582.863281 202.613281 C 579.875 198.152344 576.78125 193.765625 573.578125 189.457031 C 570.375 185.148438 567.066406 180.921875 563.65625 176.777344 C 560.242188 172.632812 556.734375 168.574219 553.121094 164.601562 C 549.511719 160.625 545.804688 156.746094 542.003906 152.953125 Z M 542.003906 152.953125 " fill-opacity="1" fill-rule="nonzero"/><path fill="#475dd7" d="M 631.105469 63.851562 C 630.355469 63.023438 629.5625 62.234375 628.730469 61.488281 C 627.894531 60.738281 627.027344 60.035156 626.125 59.375 C 625.21875 58.71875 624.285156 58.105469 623.320312 57.539062 C 622.351562 56.976562 621.359375 56.460938 620.34375 55.996094 C 619.324219 55.53125 618.285156 55.121094 617.226562 54.761719 C 616.167969 54.402344 615.089844 54.097656 614 53.847656 C 612.910156 53.597656 611.808594 53.40625 610.699219 53.265625 C 609.589844 53.128906 608.476562 53.046875 607.355469 53.019531 C 606.238281 52.996094 605.121094 53.023438 604.003906 53.113281 C 602.890625 53.199219 601.78125 53.34375 600.679688 53.542969 C 599.578125 53.746094 598.492188 54 597.417969 54.308594 C 596.339844 54.621094 595.285156 54.984375 594.246094 55.402344 C 593.207031 55.816406 592.195312 56.285156 591.203125 56.808594 C 590.214844 57.328125 589.25 57.894531 588.316406 58.511719 C 587.386719 59.132812 586.484375 59.792969 585.621094 60.503906 C 584.753906 61.210938 583.925781 61.960938 583.136719 62.753906 C 582.347656 63.546875 581.597656 64.378906 580.894531 65.246094 C 580.1875 66.113281 579.527344 67.015625 578.914062 67.953125 C 578.300781 68.886719 577.734375 69.851562 577.21875 70.84375 C 576.699219 71.835938 576.234375 72.851562 575.820312 73.890625 C 575.410156 74.929688 575.046875 75.988281 574.742188 77.066406 C 574.433594 78.140625 574.183594 79.230469 573.988281 80.332031 C 573.792969 81.433594 573.652344 82.542969 573.570312 83.65625 C 573.484375 84.773438 573.457031 85.890625 573.488281 87.007812 C 573.515625 88.128906 573.601562 89.242188 573.746094 90.351562 C 573.886719 91.460938 574.085938 92.5625 574.339844 93.652344 C 574.59375 94.742188 574.902344 95.8125 575.265625 96.871094 C 575.628906 97.929688 576.042969 98.96875 576.511719 99.984375 C 576.976562 101 577.496094 101.992188 578.0625 102.957031 C 578.632812 103.917969 579.246094 104.851562 579.910156 105.753906 C 580.574219 106.65625 581.28125 107.519531 582.03125 108.351562 C 582.78125 109.179688 583.570312 109.972656 584.402344 110.722656 C 588.914062 115.191406 593.3125 119.769531 597.597656 124.453125 C 601.878906 129.140625 606.046875 133.929688 610.097656 138.824219 C 614.144531 143.714844 618.070312 148.703125 621.871094 153.789062 C 625.675781 158.875 629.347656 164.054688 632.894531 169.320312 C 636.441406 174.589844 639.855469 179.941406 643.136719 185.378906 C 646.417969 190.8125 649.566406 196.328125 652.574219 201.917969 C 655.585938 207.511719 658.453125 213.171875 661.183594 218.90625 C 663.914062 224.640625 666.503906 230.4375 668.945312 236.296875 C 671.390625 242.160156 673.6875 248.078125 675.839844 254.050781 C 677.988281 260.027344 679.992188 266.050781 681.847656 272.125 C 683.699219 278.199219 685.402344 284.3125 686.957031 290.472656 C 688.507812 296.628906 689.90625 302.820312 691.152344 309.046875 C 692.398438 315.273438 693.492188 321.527344 694.429688 327.808594 C 695.363281 334.089844 696.148438 340.390625 696.773438 346.710938 C 697.398438 353.027344 697.867188 359.359375 698.183594 365.703125 C 698.496094 372.042969 698.652344 378.390625 698.652344 384.742188 C 698.652344 391.089844 698.496094 397.4375 698.183594 403.78125 C 697.867188 410.121094 697.398438 416.453125 696.773438 422.773438 C 696.148438 429.09375 695.363281 435.390625 694.429688 441.671875 C 693.492188 447.953125 692.398438 454.207031 691.152344 460.433594 C 689.90625 466.660156 688.507812 472.851562 686.957031 479.011719 C 685.402344 485.167969 683.699219 491.285156 681.847656 497.355469 C 679.992188 503.429688 677.988281 509.453125 675.839844 515.429688 C 673.6875 521.402344 671.390625 527.320312 668.945312 533.183594 C 666.503906 539.042969 663.914062 544.839844 661.183594 550.574219 C 658.453125 556.308594 655.585938 561.972656 652.574219 567.5625 C 649.566406 573.152344 646.417969 578.667969 643.136719 584.105469 C 639.855469 589.539062 636.441406 594.894531 632.894531 600.160156 C 629.347656 605.429688 625.675781 610.605469 621.871094 615.691406 C 618.070312 620.777344 614.144531 625.765625 610.097656 630.660156 C 606.046875 635.550781 601.878906 640.339844 597.597656 645.027344 C 593.3125 649.714844 588.914062 654.292969 584.402344 658.761719 C 583.632812 659.527344 582.898438 660.328125 582.207031 661.164062 C 581.515625 662 580.867188 662.867188 580.261719 663.769531 C 579.65625 664.667969 579.09375 665.597656 578.582031 666.550781 C 578.066406 667.507812 577.597656 668.488281 577.179688 669.488281 C 576.761719 670.488281 576.390625 671.507812 576.074219 672.546875 C 575.753906 673.585938 575.488281 674.636719 575.269531 675.699219 C 575.054688 676.761719 574.894531 677.835938 574.78125 678.914062 C 574.671875 679.992188 574.617188 681.078125 574.613281 682.164062 C 574.609375 683.246094 574.65625 684.332031 574.757812 685.410156 C 574.863281 686.492188 575.015625 687.566406 575.226562 688.628906 C 575.433594 689.695312 575.691406 690.75 576.003906 691.789062 C 576.316406 692.828125 576.675781 693.851562 577.089844 694.855469 C 577.5 695.859375 577.960938 696.839844 578.46875 697.800781 C 578.976562 698.757812 579.53125 699.691406 580.132812 700.59375 C 580.730469 701.5 581.375 702.371094 582.058594 703.214844 C 582.746094 704.054688 583.472656 704.863281 584.234375 705.632812 C 585 706.402344 585.800781 707.132812 586.636719 707.824219 C 587.476562 708.515625 588.34375 709.164062 589.242188 709.769531 C 590.144531 710.378906 591.070312 710.9375 592.027344 711.453125 C 592.984375 711.96875 593.960938 712.433594 594.960938 712.855469 C 595.964844 713.273438 596.984375 713.640625 598.019531 713.960938 C 599.058594 714.28125 600.109375 714.546875 601.171875 714.761719 C 602.238281 714.976562 603.308594 715.140625 604.390625 715.25 C 605.46875 715.359375 606.550781 715.417969 607.636719 715.421875 C 608.722656 715.425781 609.804688 715.375 610.886719 715.273438 C 611.964844 715.171875 613.039062 715.015625 614.105469 714.808594 C 615.171875 714.601562 616.222656 714.339844 617.261719 714.027344 C 618.304688 713.71875 619.324219 713.355469 620.328125 712.945312 C 621.332031 712.53125 622.316406 712.070312 623.273438 711.5625 C 624.234375 711.054688 625.164062 710.5 626.070312 709.902344 C 626.972656 709.300781 627.847656 708.660156 628.6875 707.972656 C 629.53125 707.289062 630.335938 706.5625 631.105469 705.796875 C 636.386719 700.5625 641.539062 695.199219 646.554688 689.707031 C 651.570312 684.214844 656.449219 678.605469 661.191406 672.875 C 665.929688 667.140625 670.527344 661.296875 674.976562 655.339844 C 679.429688 649.378906 683.730469 643.316406 687.882812 637.144531 C 692.035156 630.972656 696.03125 624.703125 699.875 618.335938 C 703.71875 611.96875 707.402344 605.507812 710.925781 598.960938 C 714.449219 592.410156 717.808594 585.777344 721.003906 579.0625 C 724.203125 572.34375 727.230469 565.554688 730.089844 558.6875 C 732.953125 551.824219 735.640625 544.890625 738.160156 537.894531 C 740.679688 530.894531 743.023438 523.839844 745.195312 516.726562 C 747.367188 509.613281 749.359375 502.449219 751.175781 495.238281 C 752.992188 488.023438 754.632812 480.773438 756.089844 473.480469 C 757.550781 466.183594 758.828125 458.859375 759.925781 451.503906 C 761.023438 444.148438 761.9375 436.769531 762.667969 429.367188 C 763.402344 421.964844 763.953125 414.550781 764.320312 407.125 C 764.6875 399.695312 764.871094 392.261719 764.871094 384.824219 C 764.871094 377.386719 764.6875 369.953125 764.320312 362.523438 C 763.953125 355.097656 763.402344 347.679688 762.667969 340.28125 C 761.9375 332.878906 761.023438 325.5 759.925781 318.144531 C 758.828125 310.785156 757.550781 303.460938 756.089844 296.167969 C 754.632812 288.875 752.992188 281.621094 751.175781 274.410156 C 749.359375 267.199219 747.367188 260.035156 745.195312 252.921875 C 743.023438 245.808594 740.679688 238.75 738.160156 231.753906 C 735.640625 224.753906 732.953125 217.824219 730.089844 210.957031 C 727.230469 204.09375 724.203125 197.300781 721.003906 190.585938 C 717.808594 183.871094 714.449219 177.238281 710.925781 170.6875 C 707.402344 164.136719 703.71875 157.679688 699.875 151.3125 C 696.03125 144.941406 692.035156 138.671875 687.882812 132.503906 C 683.730469 126.332031 679.429688 120.265625 674.976562 114.308594 C 670.527344 108.351562 665.929688 102.503906 661.191406 96.773438 C 656.449219 91.042969 651.570312 85.429688 646.554688 79.941406 C 641.539062 74.449219 636.386719 69.085938 631.105469 63.851562 Z M 631.105469 63.851562 " fill-opacity="1" fill-rule="nonzero"/><path fill="#475dd7" d="M 448.59375 245.039062 C 447.820312 244.273438 447.015625 243.550781 446.175781 242.863281 C 445.332031 242.179688 444.460938 241.535156 443.554688 240.933594 C 442.652344 240.335938 441.71875 239.78125 440.757812 239.273438 C 439.800781 238.765625 438.820312 238.304688 437.816406 237.894531 C 436.808594 237.480469 435.789062 237.121094 434.75 236.808594 C 433.707031 236.496094 432.65625 236.238281 431.589844 236.027344 C 430.523438 235.820312 429.453125 235.664062 428.371094 235.5625 C 427.292969 235.460938 426.207031 235.410156 425.121094 235.414062 C 424.039062 235.417969 422.953125 235.476562 421.875 235.585938 C 420.792969 235.695312 419.722656 235.859375 418.660156 236.074219 C 417.59375 236.289062 416.542969 236.558594 415.507812 236.875 C 414.46875 237.195312 413.449219 237.5625 412.449219 237.984375 C 411.445312 238.402344 410.46875 238.867188 409.511719 239.382812 C 408.558594 239.898438 407.628906 240.460938 406.730469 241.066406 C 405.828125 241.671875 404.960938 242.320312 404.125 243.011719 C 403.285156 243.703125 402.484375 244.433594 401.722656 245.207031 C 400.957031 245.976562 400.230469 246.78125 399.546875 247.621094 C 398.859375 248.464844 398.21875 249.335938 397.617188 250.242188 C 397.019531 251.148438 396.464844 252.078125 395.957031 253.039062 C 395.445312 253.996094 394.988281 254.976562 394.574219 255.984375 C 394.164062 256.988281 393.800781 258.007812 393.488281 259.050781 C 393.179688 260.089844 392.917969 261.140625 392.710938 262.207031 C 392.503906 263.273438 392.347656 264.34375 392.246094 265.425781 C 392.140625 266.507812 392.09375 267.589844 392.097656 268.675781 C 392.101562 269.761719 392.15625 270.84375 392.269531 271.921875 C 392.378906 273.003906 392.542969 274.074219 392.757812 275.136719 C 392.972656 276.203125 393.238281 277.253906 393.558594 278.289062 C 393.875 279.328125 394.246094 280.347656 394.664062 281.347656 C 395.082031 282.351562 395.550781 283.328125 396.066406 284.285156 C 396.582031 285.238281 397.140625 286.167969 397.746094 287.066406 C 398.355469 287.96875 399.003906 288.835938 399.695312 289.671875 C 400.386719 290.511719 401.117188 291.3125 401.886719 292.074219 C 403.414062 293.589844 404.90625 295.140625 406.355469 296.730469 C 407.808594 298.316406 409.21875 299.9375 410.589844 301.597656 C 411.964844 303.253906 413.292969 304.945312 414.582031 306.667969 C 415.871094 308.390625 417.113281 310.144531 418.316406 311.929688 C 419.515625 313.710938 420.671875 315.527344 421.785156 317.367188 C 422.898438 319.210938 423.964844 321.078125 424.984375 322.972656 C 426.003906 324.867188 426.972656 326.785156 427.898438 328.726562 C 428.824219 330.667969 429.699219 332.632812 430.527344 334.617188 C 431.355469 336.605469 432.132812 338.609375 432.863281 340.632812 C 433.59375 342.65625 434.269531 344.699219 434.898438 346.753906 C 435.527344 348.8125 436.105469 350.882812 436.628906 352.96875 C 437.15625 355.054688 437.628906 357.15625 438.050781 359.265625 C 438.472656 361.375 438.84375 363.492188 439.160156 365.621094 C 439.480469 367.746094 439.742188 369.882812 439.957031 372.023438 C 440.167969 374.164062 440.328125 376.308594 440.433594 378.457031 C 440.539062 380.605469 440.59375 382.753906 440.59375 384.90625 C 440.59375 387.058594 440.539062 389.207031 440.433594 391.355469 C 440.328125 393.503906 440.167969 395.648438 439.957031 397.789062 C 439.742188 399.929688 439.480469 402.066406 439.160156 404.195312 C 438.84375 406.320312 438.472656 408.441406 438.050781 410.550781 C 437.628906 412.660156 437.15625 414.757812 436.628906 416.84375 C 436.105469 418.929688 435.527344 421 434.898438 423.058594 C 434.269531 425.117188 433.59375 427.15625 432.863281 429.179688 C 432.136719 431.203125 431.355469 433.210938 430.527344 435.195312 C 429.699219 437.179688 428.824219 439.144531 427.898438 441.085938 C 426.972656 443.027344 426.003906 444.949219 424.984375 446.839844 C 423.964844 448.734375 422.898438 450.605469 421.785156 452.445312 C 420.671875 454.289062 419.515625 456.101562 418.316406 457.886719 C 417.113281 459.667969 415.871094 461.421875 414.582031 463.144531 C 413.292969 464.871094 411.964844 466.558594 410.589844 468.21875 C 409.21875 469.875 407.808594 471.496094 406.355469 473.085938 C 404.90625 474.671875 403.414062 476.222656 401.886719 477.738281 C 401.117188 478.5 400.382812 479.300781 399.691406 480.140625 C 399 480.976562 398.351562 481.84375 397.742188 482.746094 C 397.136719 483.644531 396.574219 484.574219 396.058594 485.527344 C 395.542969 486.484375 395.078125 487.460938 394.65625 488.464844 C 394.238281 489.464844 393.867188 490.484375 393.550781 491.523438 C 393.230469 492.5625 392.964844 493.613281 392.746094 494.675781 C 392.53125 495.742188 392.367188 496.8125 392.257812 497.894531 C 392.148438 498.972656 392.089844 500.054688 392.085938 501.140625 C 392.082031 502.226562 392.128906 503.3125 392.234375 504.390625 C 392.335938 505.472656 392.492188 506.546875 392.699219 507.613281 C 392.90625 508.675781 393.164062 509.730469 393.476562 510.769531 C 393.789062 511.8125 394.148438 512.832031 394.5625 513.839844 C 394.972656 514.84375 395.433594 515.824219 395.941406 516.785156 C 396.449219 517.742188 397.003906 518.675781 397.605469 519.582031 C 398.203125 520.484375 398.847656 521.359375 399.535156 522.199219 C 400.21875 523.042969 400.945312 523.847656 401.710938 524.621094 C 402.476562 525.390625 403.277344 526.121094 404.113281 526.8125 C 404.949219 527.503906 405.820312 528.152344 406.71875 528.761719 C 407.621094 529.367188 408.546875 529.925781 409.503906 530.441406 C 410.460938 530.957031 411.4375 531.425781 412.441406 531.84375 C 413.441406 532.261719 414.460938 532.632812 415.5 532.949219 C 416.539062 533.269531 417.589844 533.535156 418.652344 533.75 C 419.71875 533.964844 420.789062 534.128906 421.871094 534.238281 C 422.949219 534.347656 424.035156 534.40625 425.117188 534.410156 C 426.203125 534.414062 427.289062 534.363281 428.371094 534.261719 C 429.449219 534.15625 430.523438 534 431.589844 533.792969 C 432.65625 533.585938 433.707031 533.324219 434.746094 533.011719 C 435.789062 532.703125 436.808594 532.339844 437.8125 531.925781 C 438.820312 531.515625 439.800781 531.054688 440.761719 530.546875 C 441.71875 530.035156 442.652344 529.480469 443.554688 528.882812 C 444.460938 528.28125 445.332031 527.636719 446.175781 526.949219 C 447.015625 526.265625 447.820312 525.539062 448.59375 524.773438 C 450.894531 522.492188 453.140625 520.15625 455.324219 517.761719 C 457.511719 515.371094 459.636719 512.925781 461.703125 510.429688 C 463.769531 507.929688 465.773438 505.382812 467.714844 502.789062 C 469.652344 500.191406 471.527344 497.546875 473.339844 494.859375 C 475.148438 492.171875 476.890625 489.4375 478.566406 486.664062 C 480.238281 483.890625 481.84375 481.074219 483.382812 478.21875 C 484.917969 475.367188 486.382812 472.476562 487.773438 469.550781 C 489.167969 466.621094 490.488281 463.664062 491.734375 460.671875 C 492.980469 457.679688 494.15625 454.660156 495.253906 451.609375 C 496.351562 448.5625 497.371094 445.484375 498.316406 442.386719 C 499.265625 439.285156 500.132812 436.164062 500.925781 433.023438 C 501.71875 429.878906 502.429688 426.71875 503.066406 423.539062 C 503.703125 420.363281 504.257812 417.171875 504.738281 413.964844 C 505.214844 410.757812 505.613281 407.542969 505.933594 404.316406 C 506.253906 401.09375 506.492188 397.859375 506.652344 394.625 C 506.8125 391.386719 506.894531 388.148438 506.894531 384.90625 C 506.894531 381.664062 506.8125 378.425781 506.652344 375.1875 C 506.492188 371.953125 506.253906 368.71875 505.933594 365.496094 C 505.613281 362.269531 505.214844 359.054688 504.738281 355.847656 C 504.257812 352.644531 503.703125 349.449219 503.066406 346.273438 C 502.429688 343.09375 501.71875 339.933594 500.925781 336.792969 C 500.132812 333.648438 499.265625 330.527344 498.316406 327.425781 C 497.371094 324.328125 496.351562 321.253906 495.253906 318.203125 C 494.15625 315.152344 492.980469 312.132812 491.734375 309.140625 C 490.488281 306.148438 489.167969 303.191406 487.773438 300.261719 C 486.382812 297.335938 484.917969 294.445312 483.382812 291.59375 C 481.84375 288.738281 480.238281 285.925781 478.566406 283.148438 C 476.890625 280.375 475.148438 277.640625 473.339844 274.953125 C 471.527344 272.265625 469.652344 269.621094 467.714844 267.027344 C 465.773438 264.429688 463.769531 261.882812 461.703125 259.386719 C 459.636719 256.886719 457.511719 254.441406 455.324219 252.050781 C 453.140625 249.65625 450.894531 247.320312 448.59375 245.039062 Z M 448.59375 245.039062 " fill-opacity="1" fill-rule="nonzero"/></svg>