<svg xmlns="http://www.w3.org/2000/svg" xmlns:xlink="http://www.w3.org/1999/xlink" width="1024" zoomAndPan="magnify" viewBox="0 0 768 767.999994" height="1024" preserveAspectRatio="xMidYMid meet" version="1.0"><path fill="#475dd7" d="M 576 384 C 576 308.691406 532.480469 243.625 469.332031 212.265625 L 469.332031 306.558594 L 574.078125 411.308594 C 575.359375 402.347656 576 393.171875 576 384 Z M 682.667969 384 C 682.667969 424.105469 673.921875 461.867188 659.625 496.640625 L 724.265625 561.28125 C 752 508.160156 768 448 768 384 C 768 201.386719 640.214844 48.640625 469.332031 9.8125 L 469.332031 97.921875 C 592.640625 134.613281 682.667969 248.746094 682.667969 384 Z M 54.398438 0 L 0 54.398438 L 201.601562 256 L 0 256 L 0 512 L 170.667969 512 L 384 725.332031 L 384 438.398438 L 565.546875 619.945312 C 536.960938 641.921875 504.746094 659.625 469.332031 670.292969 L 469.332031 758.398438 C 528 744.960938 581.546875 718.078125 626.558594 681.171875 L 713.601562 768 L 768 713.601562 Z M 384 42.667969 L 294.828125 131.839844 L 384 221.011719 Z M 384 42.667969 " fill-opacity="1" fill-rule="nonzero"/></svg>