<svg xmlns="http://www.w3.org/2000/svg" xmlns:xlink="http://www.w3.org/1999/xlink" width="1024" zoomAndPan="magnify" viewBox="0 0 768 767.999994" height="1024" preserveAspectRatio="xMidYMid meet" version="1.0"><path fill="#ea1f37" d="M 384.019531 767.984375 C 332.191406 767.984375 281.898438 757.824219 234.542969 737.792969 C 228.859375 735.386719 223.238281 732.839844 217.675781 730.160156 C 212.117188 727.480469 206.625 724.671875 201.199219 721.726562 C 195.773438 718.785156 190.421875 715.710938 185.144531 712.511719 C 179.867188 709.3125 174.667969 705.984375 169.550781 702.535156 C 164.433594 699.085938 159.402344 695.511719 154.453125 691.820312 C 149.507812 688.128906 144.652344 684.320312 139.890625 680.394531 C 135.125 676.46875 130.460938 672.429688 125.890625 668.28125 C 121.320312 664.128906 116.855469 659.875 112.492188 655.507812 C 108.125 651.144531 103.867188 646.675781 99.71875 642.109375 C 95.570312 637.539062 91.53125 632.875 87.605469 628.109375 C 83.679688 623.347656 79.871094 618.492188 76.179688 613.546875 C 72.488281 608.597656 68.914062 603.566406 65.464844 598.449219 C 62.015625 593.332031 58.6875 588.132812 55.488281 582.855469 C 52.289062 577.578125 49.214844 572.226562 46.273438 566.800781 C 43.328125 561.375 40.519531 555.882812 37.839844 550.324219 C 35.160156 544.761719 32.613281 539.140625 30.207031 533.457031 C 10.175781 486.101562 0.015625 435.808594 0.015625 383.980469 C 0.015625 332.148438 10.175781 281.859375 30.207031 234.5 C 32.613281 228.816406 35.160156 223.195312 37.839844 217.636719 C 40.519531 212.074219 43.328125 206.582031 46.273438 201.15625 C 49.214844 195.730469 52.289062 190.378906 55.488281 185.101562 C 58.6875 179.824219 62.015625 174.625 65.464844 169.507812 C 68.914062 164.390625 72.488281 159.359375 76.179688 154.414062 C 79.871094 149.464844 83.679688 144.609375 87.605469 139.847656 C 91.53125 135.085938 95.570312 130.417969 99.71875 125.847656 C 103.867188 121.28125 108.125 116.8125 112.492188 112.449219 C 116.855469 108.085938 121.320312 103.828125 125.890625 99.675781 C 130.460938 95.527344 135.125 91.488281 139.890625 87.5625 C 144.652344 83.636719 149.507812 79.828125 154.453125 76.136719 C 159.398438 72.445312 164.433594 68.875 169.550781 65.421875 C 174.667969 61.972656 179.867188 58.648438 185.144531 55.445312 C 190.421875 52.246094 195.773438 49.175781 201.199219 46.230469 C 206.625 43.289062 212.117188 40.476562 217.675781 37.796875 C 223.238281 35.117188 228.859375 32.574219 234.542969 30.164062 C 281.898438 10.132812 332.191406 -0.0195312 384.019531 -0.0195312 C 435.851562 -0.0195312 486.144531 10.132812 533.5 30.164062 C 539.183594 32.574219 544.804688 35.117188 550.363281 37.796875 C 555.925781 40.476562 561.417969 43.289062 566.84375 46.230469 C 572.269531 49.175781 577.621094 52.246094 582.898438 55.445312 C 588.175781 58.648438 593.375 61.972656 598.492188 65.421875 C 603.609375 68.875 608.640625 72.445312 613.585938 76.136719 C 618.535156 79.828125 623.386719 83.636719 628.152344 87.5625 C 632.914062 91.488281 637.582031 95.527344 642.148438 99.675781 C 646.71875 103.828125 651.1875 108.085938 655.550781 112.449219 C 659.914062 116.8125 664.171875 121.28125 668.324219 125.847656 C 672.472656 130.417969 676.511719 135.085938 680.4375 139.847656 C 684.363281 144.609375 688.171875 149.464844 691.863281 154.414062 C 695.554688 159.359375 699.125 164.390625 702.578125 169.507812 C 706.027344 174.625 709.351562 179.824219 712.554688 185.101562 C 715.753906 190.378906 718.824219 195.730469 721.769531 201.15625 C 724.710938 206.582031 727.523438 212.074219 730.203125 217.636719 C 732.882812 223.195312 735.425781 228.816406 737.835938 234.5 C 757.867188 281.859375 768.019531 332.148438 768.019531 383.980469 C 768.019531 435.808594 757.867188 486.101562 737.835938 533.457031 C 735.425781 539.140625 732.882812 544.761719 730.203125 550.324219 C 727.523438 555.882812 724.710938 561.375 721.769531 566.800781 C 718.824219 572.226562 715.753906 577.578125 712.554688 582.855469 C 709.351562 588.132812 706.027344 593.332031 702.578125 598.449219 C 699.125 603.566406 695.554688 608.597656 691.863281 613.546875 C 688.171875 618.492188 684.363281 623.347656 680.4375 628.109375 C 676.511719 632.875 672.472656 637.539062 668.324219 642.109375 C 664.171875 646.675781 659.914062 651.144531 655.550781 655.507812 C 651.1875 659.875 646.71875 664.128906 642.148438 668.28125 C 637.582031 672.429688 632.914062 676.46875 628.152344 680.394531 C 623.386719 684.320312 618.535156 688.128906 613.585938 691.820312 C 608.640625 695.511719 603.609375 699.085938 598.492188 702.535156 C 593.375 705.984375 588.175781 709.3125 582.898438 712.511719 C 577.621094 715.710938 572.269531 718.785156 566.84375 721.726562 C 561.417969 724.671875 555.925781 727.480469 550.363281 730.160156 C 544.804688 732.839844 539.183594 735.386719 533.5 737.792969 C 486.144531 757.824219 435.851562 767.984375 384.019531 767.984375 Z M 384.019531 50.1875 C 379.253906 50.191406 374.492188 50.296875 369.730469 50.507812 C 364.96875 50.714844 360.210938 51.023438 355.464844 51.433594 C 350.714844 51.847656 345.980469 52.359375 341.253906 52.972656 C 336.527344 53.589844 331.816406 54.304688 327.121094 55.121094 C 322.421875 55.9375 317.746094 56.851562 313.089844 57.867188 C 308.433594 58.886719 303.800781 60 299.191406 61.214844 C 294.585938 62.429688 290.003906 63.742188 285.453125 65.152344 C 280.898438 66.566406 276.378906 68.074219 271.890625 69.675781 C 267.402344 71.28125 262.953125 72.980469 258.535156 74.777344 C 254.121094 76.570312 249.746094 78.460938 245.410156 80.441406 C 241.078125 82.425781 236.789062 84.5 232.542969 86.664062 C 228.296875 88.832031 224.101562 91.085938 219.953125 93.433594 C 215.800781 95.777344 211.707031 98.210938 207.660156 100.734375 C 203.617188 103.253906 199.628906 105.863281 195.695312 108.554688 C 191.761719 111.246094 187.886719 114.019531 184.074219 116.878906 C 180.257812 119.738281 176.507812 122.675781 172.820312 125.695312 C 169.132812 128.710938 165.511719 131.808594 161.953125 134.980469 C 158.398438 138.15625 154.910156 141.40625 151.496094 144.726562 C 148.078125 148.050781 144.734375 151.445312 141.464844 154.910156 C 138.191406 158.378906 134.996094 161.914062 131.875 165.515625 C 128.757812 169.117188 125.714844 172.785156 122.753906 176.519531 C 119.789062 180.253906 116.910156 184.046875 114.109375 187.90625 C 111.308594 191.761719 108.589844 195.675781 105.957031 199.648438 C 103.324219 203.621094 100.78125 207.648438 98.320312 211.730469 C 95.859375 215.8125 93.488281 219.945312 91.203125 224.128906 C 88.921875 228.3125 86.726562 232.542969 84.625 236.820312 C 82.523438 241.101562 80.515625 245.421875 78.597656 249.785156 C 76.679688 254.148438 74.859375 258.550781 73.128906 262.992188 C 71.402344 267.433594 69.769531 271.910156 68.230469 276.421875 C 66.695312 280.933594 65.253906 285.476562 63.914062 290.046875 C 62.570312 294.621094 61.328125 299.222656 60.179688 303.847656 C 59.035156 308.472656 57.992188 313.125 57.042969 317.792969 C 56.097656 322.464844 55.253906 327.15625 54.507812 331.863281 C 53.761719 336.570312 53.117188 341.292969 52.574219 346.027344 C 52.03125 350.761719 51.589844 355.503906 51.25 360.257812 C 50.910156 365.015625 50.671875 369.773438 50.535156 374.535156 C 50.398438 379.300781 50.363281 384.066406 50.429688 388.832031 C 50.5 393.597656 50.667969 398.359375 50.941406 403.117188 C 51.210938 407.875 51.585938 412.625 52.0625 417.367188 C 52.535156 422.109375 53.113281 426.839844 53.789062 431.558594 C 54.46875 436.277344 55.246094 440.976562 56.125 445.660156 C 57.003906 450.347656 57.984375 455.007812 59.0625 459.652344 C 60.140625 464.292969 61.316406 468.910156 62.59375 473.503906 C 63.871094 478.097656 65.246094 482.660156 66.714844 487.191406 C 68.1875 491.726562 69.757812 496.222656 71.421875 500.691406 C 73.085938 505.15625 74.84375 509.585938 76.699219 513.976562 C 78.554688 518.367188 80.5 522.714844 82.539062 527.023438 C 84.582031 531.328125 86.710938 535.589844 88.933594 539.808594 C 91.15625 544.023438 93.46875 548.191406 95.871094 552.308594 C 98.273438 556.421875 100.761719 560.488281 103.335938 564.496094 C 105.910156 568.507812 108.570312 572.460938 111.316406 576.359375 C 114.0625 580.253906 116.886719 584.089844 119.796875 587.867188 C 122.707031 591.640625 125.695312 595.351562 128.761719 599 C 131.828125 602.648438 134.972656 606.230469 138.195312 609.742188 C 141.414062 613.253906 144.710938 616.695312 148.078125 620.070312 C 151.449219 623.441406 154.886719 626.738281 158.394531 629.964844 C 161.90625 633.1875 165.484375 636.335938 169.128906 639.40625 C 172.773438 642.476562 176.480469 645.46875 180.253906 648.382812 C 184.027344 651.296875 187.859375 654.125 191.753906 656.875 C 195.648438 659.621094 199.597656 662.285156 203.605469 664.863281 C 207.613281 667.445312 211.675781 669.9375 215.789062 672.339844 C 219.90625 674.746094 224.070312 677.0625 228.28125 679.289062 C 232.496094 681.515625 236.757812 683.652344 241.0625 685.695312 C 245.367188 687.742188 249.714844 689.691406 254.101562 691.550781 C 259.128906 693.628906 264.203125 695.582031 269.324219 697.414062 C 274.445312 699.242188 279.605469 700.949219 284.808594 702.527344 C 290.015625 704.105469 295.253906 705.554688 300.527344 706.875 C 305.804688 708.199219 311.109375 709.390625 316.441406 710.453125 C 321.773438 711.515625 327.128906 712.449219 332.507812 713.25 C 337.886719 714.050781 343.285156 714.71875 348.695312 715.257812 C 354.105469 715.792969 359.527344 716.199219 364.957031 716.472656 C 370.390625 716.742188 375.824219 716.882812 381.261719 716.890625 C 386.699219 716.898438 392.136719 716.773438 397.566406 716.511719 C 403 716.253906 408.421875 715.863281 413.835938 715.339844 C 419.25 714.816406 424.644531 714.160156 430.027344 713.375 C 435.40625 712.585938 440.765625 711.667969 446.101562 710.621094 C 451.4375 709.570312 456.746094 708.394531 462.023438 707.085938 C 467.300781 705.777344 472.542969 704.339844 477.753906 702.773438 C 482.960938 701.210938 488.128906 699.519531 493.253906 697.703125 C 498.378906 695.886719 503.457031 693.945312 508.488281 691.878906 C 513.519531 689.816406 518.496094 687.628906 523.417969 685.320312 C 528.34375 683.011719 533.207031 680.585938 538.015625 678.039062 C 542.820312 675.492188 547.558594 672.832031 552.234375 670.054688 C 556.910156 667.277344 561.515625 664.386719 566.046875 661.382812 C 570.582031 658.378906 575.039062 655.269531 579.421875 652.046875 C 583.804688 648.828125 588.105469 645.503906 592.324219 642.074219 C 596.542969 638.640625 600.679688 635.109375 604.726562 631.476562 C 608.773438 627.84375 612.726562 624.117188 616.59375 620.289062 C 620.457031 616.464844 624.226562 612.546875 627.898438 608.535156 C 631.574219 604.527344 635.144531 600.429688 638.621094 596.246094 C 642.09375 592.0625 645.460938 587.792969 648.726562 583.445312 C 651.992188 579.097656 655.148438 574.667969 658.195312 570.167969 C 661.246094 565.664062 664.179688 561.085938 667.007812 556.441406 C 669.832031 551.792969 672.539062 547.082031 675.136719 542.300781 C 677.730469 537.523438 680.207031 532.683594 682.5625 527.78125 C 684.921875 522.882812 687.160156 517.925781 689.277344 512.917969 C 691.390625 507.910156 693.382812 502.851562 695.253906 497.742188 C 697.121094 492.636719 698.863281 487.488281 700.480469 482.292969 C 702.097656 477.101562 703.589844 471.875 704.949219 466.609375 C 706.3125 461.34375 707.542969 456.050781 708.648438 450.722656 C 709.75 445.398438 710.722656 440.050781 711.566406 434.679688 C 712.40625 429.304688 713.117188 423.914062 713.695312 418.507812 C 714.273438 413.101562 714.71875 407.683594 715.035156 402.253906 C 715.347656 396.824219 715.527344 391.390625 715.574219 385.953125 C 715.625 380.515625 715.539062 375.078125 715.320312 369.644531 C 715.105469 364.210938 714.753906 358.785156 714.273438 353.371094 C 713.789062 347.953125 713.175781 342.550781 712.429688 337.164062 C 711.683594 331.777344 710.804688 326.414062 709.796875 321.070312 C 708.789062 315.726562 707.648438 310.410156 706.378906 305.121094 C 705.113281 299.832031 703.714844 294.578125 702.191406 289.359375 C 700.664062 284.140625 699.015625 278.960938 697.234375 273.820312 C 695.457031 268.683594 693.554688 263.589844 691.527344 258.542969 C 689.5 253.496094 687.351562 248.503906 685.082031 243.5625 C 682.808594 238.621094 680.421875 233.738281 677.910156 228.914062 C 675.402344 224.089844 672.773438 219.328125 670.03125 214.632812 C 667.289062 209.9375 664.4375 205.308594 661.46875 200.753906 C 658.5 196.195312 655.421875 191.714844 652.234375 187.308594 C 649.046875 182.902344 645.753906 178.578125 642.355469 174.332031 C 638.957031 170.085938 635.457031 165.925781 631.855469 161.851562 C 628.253906 157.777344 624.554688 153.792969 620.757812 149.898438 C 616.960938 146.007812 613.074219 142.207031 609.089844 138.503906 C 605.109375 134.800781 601.039062 131.195312 596.878906 127.691406 C 592.722656 124.1875 588.480469 120.785156 584.15625 117.488281 C 579.832031 114.191406 575.429688 111 570.949219 107.917969 C 566.46875 104.835938 561.917969 101.863281 557.292969 99.003906 C 552.667969 96.144531 547.972656 93.398438 543.214844 90.769531 C 538.457031 88.136719 533.632812 85.625 528.753906 83.230469 C 523.871094 80.835938 518.933594 78.558594 513.9375 76.40625 C 503.6875 72.070312 493.25 68.257812 482.617188 64.972656 C 471.984375 61.6875 461.210938 58.945312 450.300781 56.742188 C 439.394531 54.542969 428.402344 52.894531 417.328125 51.796875 C 406.25 50.703125 395.148438 50.167969 384.019531 50.1875 Z M 384.019531 50.1875 " fill-opacity="1" fill-rule="nonzero"/><path fill="#ea1f37" d="M 490.347656 345.835938 L 522.789062 313.398438 C 530.5625 305.621094 538.335938 297.84375 546.113281 290.070312 C 549.789062 286.394531 553.472656 282.734375 557.136719 279.042969 C 557.300781 278.886719 557.457031 278.726562 557.617188 278.5625 C 559.847656 276.527344 561.769531 274.238281 563.386719 271.6875 C 565.003906 269.140625 566.257812 266.425781 567.152344 263.542969 C 568.480469 260.941406 569.457031 258.210938 570.078125 255.359375 C 570.699219 252.503906 570.945312 249.617188 570.816406 246.695312 C 570.945312 243.777344 570.699219 240.890625 570.078125 238.035156 C 569.457031 235.183594 568.480469 232.453125 567.152344 229.851562 C 566.261719 226.96875 565.003906 224.25 563.386719 221.703125 C 561.769531 219.152344 559.847656 216.863281 557.617188 214.828125 L 547.992188 207.492188 C 544.601562 205.566406 541.015625 204.109375 537.242188 203.117188 C 533.472656 202.125 529.632812 201.628906 525.734375 201.632812 L 514.296875 203.101562 C 510.429688 204.109375 506.765625 205.605469 503.296875 207.59375 C 499.832031 209.582031 496.6875 211.988281 493.863281 214.816406 L 486.246094 222.472656 L 465.660156 243.0625 L 435.136719 273.605469 C 422.722656 286.015625 410.308594 298.429688 397.898438 310.84375 L 384.019531 324.683594 L 379.6875 320.351562 L 341.429688 282.097656 L 308.992188 249.667969 L 285.667969 226.34375 C 281.992188 222.671875 278.328125 218.980469 274.644531 215.320312 L 274.160156 214.839844 C 272.125 212.609375 269.832031 210.6875 267.285156 209.070312 C 264.738281 207.453125 262.019531 206.195312 259.136719 205.304688 C 256.535156 203.972656 253.808594 203 250.953125 202.378906 C 248.097656 201.757812 245.210938 201.511719 242.292969 201.636719 C 239.371094 201.507812 236.484375 201.753906 233.628906 202.371094 C 230.773438 202.992188 228.042969 203.964844 225.441406 205.289062 C 222.558594 206.183594 219.84375 207.441406 217.296875 209.058594 C 214.746094 210.675781 212.457031 212.597656 210.421875 214.828125 L 203.085938 224.449219 C 201.160156 227.84375 199.703125 231.425781 198.707031 235.199219 C 197.714844 238.972656 197.222656 242.808594 197.226562 246.710938 C 197.714844 250.515625 198.203125 254.328125 198.691406 258.140625 C 199.703125 262.007812 201.203125 265.675781 203.195312 269.144531 C 205.183594 272.609375 207.597656 275.753906 210.429688 278.578125 L 238.648438 306.796875 L 269.191406 337.34375 L 320.308594 388.460938 L 315.945312 392.765625 L 245.253906 463.457031 L 221.929688 486.785156 C 218.253906 490.457031 214.566406 494.117188 210.90625 497.808594 L 210.425781 498.289062 C 208.433594 500.453125 206.644531 502.777344 205.058594 505.253906 C 203.476562 507.734375 202.121094 510.332031 200.996094 513.050781 C 199.871094 515.769531 198.988281 518.566406 198.355469 521.4375 C 197.722656 524.3125 197.34375 527.21875 197.222656 530.15625 C 197.347656 533.097656 197.722656 536.003906 198.355469 538.875 C 198.992188 541.75 199.871094 544.542969 200.996094 547.261719 C 202.121094 549.980469 203.476562 552.582031 205.0625 555.058594 C 206.644531 557.539062 208.433594 559.863281 210.425781 562.027344 L 220.046875 569.363281 C 223.441406 571.285156 227.023438 572.742188 230.796875 573.738281 C 234.570312 574.730469 238.40625 575.222656 242.308594 575.21875 L 253.742188 573.75 C 257.609375 572.742188 261.277344 571.246094 264.742188 569.257812 C 268.210938 567.273438 271.355469 564.863281 274.179688 562.035156 L 281.8125 554.402344 L 302.398438 533.8125 C 312.574219 523.644531 322.753906 513.460938 332.941406 503.269531 C 345.355469 490.859375 357.769531 478.445312 370.179688 466.03125 L 384.019531 452.179688 L 388.355469 456.515625 L 426.609375 494.765625 L 459.050781 527.210938 L 482.375 550.53125 C 486.050781 554.207031 489.710938 557.898438 493.398438 561.558594 L 493.878906 562.039062 C 496.042969 564.03125 498.367188 565.820312 500.847656 567.402344 C 503.328125 568.988281 505.925781 570.34375 508.644531 571.46875 C 511.363281 572.59375 514.15625 573.472656 517.03125 574.105469 C 519.90625 574.742188 522.8125 575.117188 525.75 575.242188 C 528.691406 575.117188 531.597656 574.742188 534.46875 574.109375 C 537.34375 573.472656 540.136719 572.59375 542.855469 571.46875 C 545.574219 570.34375 548.171875 568.988281 550.652344 567.402344 C 553.128906 565.820312 555.453125 564.03125 557.617188 562.039062 L 564.953125 552.417969 C 566.875 549.023438 568.335938 545.441406 569.328125 541.667969 C 570.320312 537.894531 570.816406 534.058594 570.808594 530.15625 C 570.324219 526.347656 569.835938 522.539062 569.34375 518.726562 C 568.335938 514.859375 566.839844 511.191406 564.851562 507.726562 C 562.867188 504.257812 560.457031 501.113281 557.628906 498.289062 L 549.996094 490.652344 L 461.628906 402.285156 L 447.75 388.410156 L 452.089844 384.070312 Z M 490.347656 345.835938 " fill-opacity="1" fill-rule="nonzero"/></svg>