<svg xmlns="http://www.w3.org/2000/svg" xmlns:xlink="http://www.w3.org/1999/xlink" width="1024" zoomAndPan="magnify" viewBox="0 0 768 767.999994" height="1024" preserveAspectRatio="xMidYMid meet" version="1.0"><path fill="#475dd7" d="M 578.832031 188.726562 C 559.796875 169.6875 528.910156 169.6875 509.875 188.726562 L 383.832031 314.769531 L 257.789062 188.726562 C 238.75 169.6875 207.867188 169.6875 188.828125 188.726562 C 169.789062 207.765625 169.789062 238.648438 188.828125 257.6875 L 314.871094 383.726562 L 188.828125 509.769531 C 169.789062 528.808594 169.789062 559.691406 188.828125 578.730469 C 207.867188 597.769531 238.75 597.769531 257.789062 578.730469 L 383.832031 452.6875 L 509.875 578.730469 C 528.910156 597.769531 559.796875 597.769531 578.832031 578.730469 C 597.871094 559.691406 597.871094 528.808594 578.832031 509.769531 L 452.789062 383.730469 L 578.832031 257.6875 C 597.871094 238.648438 597.871094 207.765625 578.832031 188.726562 Z M 578.832031 188.726562 " fill-opacity="1" fill-rule="nonzero"/><path fill="#475dd7" d="M 383.796875 -0.167969 C 172.097656 -0.167969 -0.136719 172.0625 -0.136719 383.761719 C -0.136719 595.464844 172.097656 767.695312 383.796875 767.695312 C 595.496094 767.695312 767.726562 595.464844 767.726562 383.761719 C 767.726562 172.0625 595.496094 -0.167969 383.796875 -0.167969 Z M 383.796875 693.03125 C 213.261719 693.03125 74.527344 554.296875 74.527344 383.761719 C 74.527344 213.226562 213.261719 74.492188 383.796875 74.492188 C 554.332031 74.492188 693.066406 213.226562 693.066406 383.761719 C 693.066406 554.296875 554.332031 693.03125 383.796875 693.03125 Z M 383.796875 693.03125 " fill-opacity="1" fill-rule="nonzero"/></svg>