<svg xmlns="http://www.w3.org/2000/svg" xmlns:xlink="http://www.w3.org/1999/xlink" width="500" zoomAndPan="magnify" viewBox="0 0 375 374.999991" height="500" preserveAspectRatio="xMidYMid meet" version="1.0"><defs><clipPath id="056a843d99"><path d="M 0 21.328125 L 375 21.328125 L 375 353.578125 L 0 353.578125 Z M 0 21.328125 " clip-rule="nonzero"/></clipPath><clipPath id="13ccf04cdb"><path d="M 77.492188 134.292969 L 223.742188 134.292969 L 223.742188 224 L 77.492188 224 Z M 77.492188 134.292969 " clip-rule="nonzero"/></clipPath></defs><rect x="-37.5" width="450" fill="#ffffff" y="-37.499999" height="449.999989" fill-opacity="1"/><rect x="-37.5" width="450" fill="#ffffff" y="-37.499999" height="449.999989" fill-opacity="1"/><g clip-path="url(#056a843d99)"><path fill="#000000" d="M 374.742188 289.242188 C 373.503906 283.695312 370.523438 278.632812 366.65625 274.449219 C 360.34375 267.726562 351.15625 263.699219 341.898438 263.675781 C 337.285156 263.6875 332.53125 264.554688 328.273438 266.328125 C 323.117188 268.410156 318.722656 271.648438 315.246094 275.617188 C 312.316406 273.511719 308.972656 271.925781 305.871094 270.128906 C 301.925781 267.847656 298.0625 265.367188 293.785156 263.769531 C 295.785156 260.535156 296.289062 256.644531 296.53125 252.90625 C 296.980469 242.804688 292.742188 232.546875 285.050781 225.886719 C 280.1875 221.472656 274.167969 218.734375 267.863281 217.660156 C 267.996094 216.730469 268.070312 215.789062 268.160156 214.886719 C 268.453125 211.832031 268.65625 208.777344 268.742188 205.726562 C 268.917969 196.890625 268.585938 187.128906 268.714844 178.242188 C 268.761719 172.128906 268.691406 166.023438 268.132812 159.921875 C 267.984375 159.019531 267.949219 158.074219 267.882812 157.136719 C 276.089844 155.550781 283.691406 150.957031 288.742188 144.285156 C 293.828125 138.003906 295.421875 129.738281 293.203125 122.136719 L 293.09375 122.136719 C 293.703125 121.113281 294.101562 120.027344 294.433594 118.921875 C 294.960938 116.710938 294.972656 114.417969 294.59375 112.175781 C 293.355469 106.628906 290.375 101.566406 286.507812 97.382812 C 280.195312 90.660156 271.007812 86.632812 261.75 86.609375 C 257.136719 86.621094 252.382812 87.488281 248.125 89.261719 C 242.640625 91.476562 238.023438 94.996094 234.453125 99.316406 C 233.722656 98.742188 232.953125 98.214844 232.222656 97.691406 C 229.722656 95.914062 227.179688 94.207031 224.578125 92.605469 C 217.011719 88.039062 208.386719 83.445312 200.753906 78.886719 C 195.480469 75.789062 190.15625 72.796875 184.589844 70.234375 C 183.269531 69.730469 181.980469 68.945312 180.632812 68.417969 C 181.386719 64.621094 181.226562 60.660156 180.121094 56.867188 L 180.011719 56.867188 C 180.621094 55.84375 181.019531 54.757812 181.351562 53.652344 C 181.878906 51.441406 181.890625 49.148438 181.511719 46.90625 C 180.273438 41.359375 177.292969 36.296875 173.425781 32.113281 C 167.113281 25.390625 157.925781 21.363281 148.667969 21.339844 C 144.054688 21.351562 139.300781 22.21875 135.042969 23.992188 C 117.476562 31.089844 108.738281 51.503906 115.21875 69.097656 C 114.367188 69.445312 113.539062 69.84375 112.730469 70.207031 C 109.9375 71.480469 107.1875 72.832031 104.503906 74.285156 C 96.761719 78.550781 88.46875 83.71875 80.707031 88.050781 C 75.386719 91.066406 70.128906 94.179688 65.125 97.71875 C 63.351562 99.164062 60.953125 100.164062 59.792969 102.226562 C 59.378906 103.03125 59.058594 104.003906 59.027344 105.476562 C 59.003906 105.859375 59.035156 106.226562 59.101562 106.582031 C 58.347656 107.1875 57.859375 108.132812 57.949219 109.230469 C 57.964844 113.734375 58.234375 117.75 58.046875 122.113281 C 57.613281 128.492188 54.488281 134.734375 49.519531 138.671875 C 41.714844 145.238281 29.566406 145.410156 21.714844 138.808594 C 13.71875 132.261719 11.648438 120.339844 16.707031 111.402344 C 19.097656 106.953125 23.101562 103.339844 27.835938 101.308594 C 30.199219 100.28125 32.757812 99.597656 35.410156 99.429688 C 38.585938 99.230469 41.296875 98.820312 44.574219 97.582031 C 46.5625 96.851562 47.335938 94.296875 46.066406 92.59375 C 43.503906 89.164062 39.398438 87.703125 35.324219 87.605469 C 22.777344 87.097656 10.367188 94.109375 4.316406 105.226562 C -6.132812 124.171875 3.214844 148.355469 23.535156 155.617188 C 25.457031 156.335938 27.445312 156.855469 29.460938 157.210938 C 29.332031 158.121094 29.261719 159.039062 29.171875 159.921875 C 28.882812 162.976562 28.675781 166.03125 28.59375 169.082031 C 28.417969 177.917969 28.75 187.679688 28.617188 196.566406 C 28.570312 202.679688 28.640625 208.785156 29.203125 214.886719 C 29.351562 215.792969 29.386719 216.738281 29.449219 217.679688 C 26.875 218.113281 24.339844 218.8125 21.960938 219.800781 C 3.925781 227.085938 -4.808594 248.40625 2.679688 266.304688 C 7.890625 279.402344 21.46875 288.558594 35.585938 288.292969 C 45.921875 288.238281 56.058594 283.238281 62.367188 275.085938 C 63.238281 275.8125 64.1875 276.457031 65.082031 277.101562 C 67.582031 278.878906 70.125 280.585938 72.730469 282.1875 C 80.300781 286.757812 88.929688 291.355469 96.566406 295.914062 C 101.84375 299.011719 107.171875 302.007812 112.738281 304.574219 C 113.59375 304.898438 114.433594 305.339844 115.285156 305.757812 C 112.3125 313.898438 112.222656 323.117188 115.761719 331.574219 C 120.972656 344.671875 134.550781 353.824219 148.667969 353.5625 C 159.117188 353.507812 169.371094 348.40625 175.660156 340.09375 C 180.746094 333.8125 182.339844 325.546875 180.121094 317.945312 L 180.011719 317.945312 C 180.621094 316.917969 181.019531 315.835938 181.351562 314.730469 C 181.878906 312.519531 181.890625 310.226562 181.511719 307.984375 C 181.371094 307.351562 181.199219 306.726562 181.015625 306.109375 C 182.257812 305.703125 183.453125 305.121094 184.605469 304.601562 C 187.394531 303.328125 190.144531 301.980469 192.832031 300.523438 C 200.574219 296.257812 208.863281 291.089844 216.628906 286.757812 C 221.949219 283.742188 227.203125 280.628906 232.207031 277.09375 C 232.921875 276.507812 233.734375 275.996094 234.53125 275.460938 C 237.941406 279.394531 242.367188 282.644531 247.78125 284.792969 C 255.03125 287.65625 264.171875 288.320312 270.421875 282.90625 C 272.363281 281.242188 271.402344 277.902344 268.871094 277.492188 C 264.09375 276.296875 260.71875 275.722656 256.460938 274.472656 C 250.375 272.679688 245.183594 268.066406 242.480469 262.484375 C 235.191406 247.976562 245.917969 230.503906 262.320312 231.042969 C 272.484375 231.175781 281.621094 239.070312 283.667969 249.003906 C 284.238281 251.507812 284.425781 254.15625 284.105469 256.726562 C 283.933594 258.019531 283.816406 259.324219 283.8125 260.757812 C 283.84375 262.402344 283.824219 264.8125 284.527344 266.777344 C 284.839844 267.347656 285.199219 267.769531 285.589844 268.066406 C 285.074219 269.339844 284.8125 270.710938 284.949219 272 C 285.035156 272.621094 285.257812 273 285.554688 273.246094 C 287.253906 274.824219 289.078125 276.289062 291.011719 277.539062 C 293.582031 279.191406 296.300781 280.589844 298.933594 282.144531 C 301.570312 283.683594 304.113281 285.386719 306.839844 286.773438 C 307.332031 286.996094 307.839844 287.234375 308.355469 287.46875 C 305.539062 295.5 305.519531 304.53125 308.992188 312.828125 C 314.203125 325.929688 327.78125 335.082031 341.898438 334.820312 C 352.347656 334.761719 362.601562 329.660156 368.890625 321.351562 C 373.976562 315.070312 375.570312 306.804688 373.351562 299.199219 L 373.242188 299.199219 C 373.851562 298.175781 374.25 297.09375 374.582031 295.988281 C 375.109375 293.777344 375.121094 291.484375 374.742188 289.242188 Z M 239.859375 224.671875 C 226.859375 234.71875 223.320312 251.269531 228.316406 264.882812 C 227.484375 265.292969 226.664062 265.722656 225.824219 266.042969 C 217.769531 269.71875 209.441406 274.875 201.738281 279.300781 C 193.769531 283.839844 185.636719 288.105469 178.191406 293.5 C 178.191406 293.5 176.328125 294.847656 176.328125 294.847656 C 176.007812 295.070312 175.707031 295.304688 175.414062 295.550781 C 174.78125 294.738281 174.125 293.945312 173.425781 293.191406 C 167.113281 286.46875 157.925781 282.441406 148.667969 282.417969 C 144.054688 282.429688 139.300781 283.296875 135.042969 285.070312 C 129.566406 287.285156 124.953125 290.796875 121.382812 295.109375 C 120.609375 294.589844 119.820312 294.09375 119.121094 293.523438 C 111.902344 288.386719 103.269531 283.75 95.578125 279.292969 C 87.660156 274.660156 79.890625 269.75 71.492188 265.996094 L 69.390625 265.054688 C 68.777344 264.765625 68.152344 264.53125 67.523438 264.355469 C 68.304688 260.519531 68.160156 256.515625 67.039062 252.675781 L 66.929688 252.675781 C 67.539062 251.648438 67.9375 250.566406 68.269531 249.460938 C 68.796875 247.25 68.808594 244.957031 68.429688 242.714844 C 67.191406 237.167969 64.210938 232.105469 60.34375 227.921875 C 55.433594 222.695312 48.78125 219.105469 41.714844 217.753906 C 41.78125 216.789062 41.816406 215.820312 41.964844 214.886719 C 42.808594 206.074219 42.507812 196.285156 42.523438 187.40625 C 42.578125 178.238281 42.945312 169.0625 41.996094 159.921875 L 41.761719 157.632812 C 41.75 157.496094 41.726562 157.363281 41.710938 157.226562 C 47.886719 156.15625 53.777344 153.492188 58.539062 149.359375 C 64.832031 143.980469 68.984375 136.246094 70.074219 128.167969 C 70.953125 122.300781 70.269531 115.730469 67.011719 110.769531 C 68.554688 110.261719 70.007812 109.339844 71.507812 108.769531 C 79.5625 105.089844 87.890625 99.933594 95.59375 95.507812 C 103.5625 90.96875 111.695312 86.703125 119.140625 81.308594 C 119.140625 81.308594 121.007812 79.960938 121.007812 79.960938 C 121.113281 79.886719 121.210938 79.804688 121.316406 79.730469 C 128 87.679688 138.183594 92.679688 148.667969 92.484375 C 158.984375 92.429688 169.101562 87.449219 175.410156 79.324219 C 176.34375 79.984375 177.347656 80.582031 178.207031 81.285156 C 185.421875 86.417969 194.050781 91.050781 201.738281 95.507812 C 209.652344 100.136719 217.417969 105.042969 225.8125 108.792969 L 227.914062 109.734375 C 228.066406 109.808594 228.21875 109.867188 228.375 109.933594 C 225.394531 118.078125 225.304688 127.304688 228.84375 135.765625 C 233.289062 146.945312 243.832031 155.246094 255.605469 157.273438 C 255.546875 158.167969 255.507812 159.0625 255.367188 159.921875 C 254.527344 168.734375 254.828125 178.523438 254.808594 187.40625 C 254.757812 196.570312 254.386719 205.746094 255.335938 214.886719 L 255.570312 217.175781 C 255.585938 217.339844 255.609375 217.5 255.628906 217.664062 C 249.9375 218.632812 244.464844 220.964844 239.859375 224.671875 Z M 239.859375 224.671875 " fill-opacity="1" fill-rule="nonzero"/></g><g clip-path="url(#13ccf04cdb)"><path fill="#000000" d="M 77.683594 222.496094 L 111.566406 134.292969 L 124.136719 134.292969 L 160.238281 222.496094 L 146.929688 222.496094 L 136.640625 195.777344 L 99.757812 195.777344 L 90.085938 222.496094 Z M 103.125 186.269531 L 133.046875 186.269531 L 123.828125 161.851562 C 121.035156 154.441406 118.941406 148.339844 117.582031 143.554688 C 116.453125 149.226562 114.871094 154.828125 112.820312 160.414062 Z M 209.871094 214.609375 C 205.847656 218.019531 201.988281 220.421875 198.289062 221.839844 C 194.574219 223.234375 190.589844 223.933594 186.339844 223.933594 C 179.316406 223.933594 173.933594 222.230469 170.15625 218.800781 C 166.398438 215.371094 164.507812 210.976562 164.507812 205.65625 C 164.507812 202.515625 165.207031 199.660156 166.644531 197.074219 C 168.0625 194.484375 169.929688 192.410156 172.230469 190.851562 C 174.550781 189.289062 177.136719 188.097656 180.035156 187.296875 C 182.148438 186.742188 185.351562 186.1875 189.644531 185.675781 C 198.394531 184.628906 204.839844 183.394531 208.96875 181.9375 C 209.011719 180.460938 209.03125 179.515625 209.03125 179.125 C 209.03125 174.710938 208.003906 171.585938 205.949219 169.800781 C 203.199219 167.335938 199.070312 166.125 193.628906 166.125 C 188.535156 166.125 184.777344 167.007812 182.335938 168.796875 C 179.910156 170.582031 178.125 173.746094 176.953125 178.28125 L 166.378906 176.824219 C 167.34375 172.304688 168.925781 168.628906 171.121094 165.855469 C 173.316406 163.066406 176.523438 160.910156 180.691406 159.410156 C 184.859375 157.910156 189.683594 157.152344 195.191406 157.152344 C 200.652344 157.152344 205.066406 157.808594 208.476562 159.082031 C 211.886719 160.375 214.390625 161.976562 216.011719 163.929688 C 217.613281 165.878906 218.722656 168.320312 219.382812 171.300781 C 219.730469 173.148438 219.914062 176.472656 219.914062 181.28125 L 219.914062 195.71875 C 219.914062 205.800781 220.140625 212.167969 220.613281 214.816406 C 221.0625 217.484375 221.988281 220.050781 223.34375 222.496094 L 212.027344 222.496094 C 210.917969 220.257812 210.179688 217.628906 209.871094 214.609375 Z M 208.96875 190.417969 C 205.027344 192.039062 199.132812 193.398438 191.289062 194.527344 C 186.832031 195.164062 183.667969 195.882812 181.839844 196.683594 C 179.992188 197.484375 178.554688 198.652344 177.570312 200.214844 C 176.5625 201.753906 176.050781 203.460938 176.050781 205.347656 C 176.050781 208.242188 177.160156 210.644531 179.335938 212.578125 C 181.511719 214.488281 184.714844 215.453125 188.925781 215.453125 C 193.09375 215.453125 196.8125 214.550781 200.058594 212.722656 C 203.300781 210.894531 205.703125 208.386719 207.222656 205.226562 C 208.394531 202.78125 208.96875 199.167969 208.96875 194.402344 L 208.96875 190.417969 " fill-opacity="1" fill-rule="nonzero"/></g></svg>