<svg xmlns="http://www.w3.org/2000/svg" xmlns:xlink="http://www.w3.org/1999/xlink" width="500" zoomAndPan="magnify" viewBox="0 0 375 374.999991" height="500" preserveAspectRatio="xMidYMid meet" version="1.0"><path stroke-linecap="butt" transform="matrix(7.5, 0, 0, 7.5, 0.0000045, -0.000000000000042633)" fill="none" stroke-linejoin="round" d="M 48.000003 37.000002 L 2 37.000002 C 1.447916 37.000002 0.999999 36.552086 0.999999 36.000002 L 0.999999 14.000001 C 0.999999 13.447918 1.447916 13.000001 2 13.000001 L 48.000003 13.000001 C 48.552086 13.000001 49.000003 13.447918 49.000003 14.000001 L 49.000003 36.000002 C 49.000003 36.552086 48.552086 37.000002 48.000003 37.000002 Z M 48.000003 37.000002 " stroke="#000000" stroke-width="2" stroke-opacity="1" stroke-miterlimit="10"/><path fill="#000000" d="M 82.46875 220.867188 L 61.027344 157.453125 L 76.011719 157.453125 L 90.425781 205.925781 L 91.214844 205.925781 L 105.367188 157.453125 L 119.648438 157.453125 L 98.511719 220.867188 Z M 82.46875 220.867188 " fill-opacity="1" fill-rule="nonzero"/><path fill="#000000" d="M 176.96875 220.867188 L 134.953125 220.867188 L 134.953125 157.453125 L 176.96875 157.453125 L 176.96875 168.796875 L 148.230469 168.796875 L 148.230469 183.609375 L 175.34375 183.609375 L 175.34375 194.109375 L 148.230469 194.109375 L 148.230469 209.535156 L 176.96875 209.535156 Z M 176.96875 220.867188 " fill-opacity="1" fill-rule="nonzero"/><path fill="#000000" d="M 208.71875 220.867188 L 195.441406 220.867188 L 195.441406 157.453125 L 222.074219 157.453125 C 236.003906 157.453125 244.574219 165.1875 244.574219 177.800781 C 244.574219 185.886719 240.359375 192.921875 233.0625 195.816406 L 246.421875 220.867188 L 231.390625 220.867188 L 219.570312 197.886719 L 208.71875 197.886719 Z M 208.71875 187.6875 L 220.363281 187.6875 C 227.046875 187.6875 230.953125 184.085938 230.953125 177.976562 C 230.953125 171.953125 226.824219 168.171875 220.230469 168.171875 L 208.71875 168.171875 Z M 208.71875 187.6875 " fill-opacity="1" fill-rule="nonzero"/><path fill="#000000" d="M 262.433594 220.867188 L 262.433594 157.453125 L 290.160156 157.453125 C 302.46875 157.453125 309.800781 163.476562 309.800781 173.273438 C 309.800781 179.992188 304.835938 185.84375 298.335938 186.808594 L 298.335938 187.597656 C 306.726562 188.210938 312.839844 194.542969 312.839844 202.71875 C 312.839844 213.832031 304.449219 220.867188 290.910156 220.867188 Z M 275.699219 183.734375 L 285.675781 183.734375 C 292.835938 183.734375 296.753906 180.789062 296.753906 175.695312 C 296.753906 170.640625 293.109375 167.609375 286.777344 167.609375 L 275.699219 167.609375 Z M 287.519531 210.71875 C 295.171875 210.71875 299.296875 207.511719 299.296875 201.578125 C 299.296875 195.78125 295.035156 192.699219 287.210938 192.699219 L 275.699219 192.699219 L 275.699219 210.710938 L 287.519531 210.710938 Z M 287.519531 210.71875 " fill-opacity="1" fill-rule="nonzero"/></svg>