<svg xmlns="http://www.w3.org/2000/svg" xmlns:xlink="http://www.w3.org/1999/xlink" width="500" zoomAndPan="magnify" viewBox="0 0 375 374.999991" height="500" preserveAspectRatio="xMidYMid meet" version="1.0"><defs><clipPath id="341cbdfe79"><path d="M 3 34 L 300 34 L 300 368.8125 L 3 368.8125 Z M 3 34 " clip-rule="nonzero"/></clipPath></defs><rect x="-37.5" width="450" fill="#ffffff" y="-37.499999" height="449.999989" fill-opacity="1"/><rect x="-37.5" width="450" fill="#ffffff" y="-37.499999" height="449.999989" fill-opacity="1"/><g clip-path="url(#341cbdfe79)"><path fill="#000000" d="M 270.835938 166.132812 L 270.835938 162.597656 C 272.960938 158.550781 276.617188 148.828125 274.070312 133.007812 C 272.070312 120.605469 269.039062 112.808594 266.984375 108.613281 C 269.902344 102.167969 273.054688 88.578125 260.390625 71.058594 C 210.585938 16.722656 16.066406 6.828125 3.691406 151.808594 C 0.136719 198.167969 20.042969 245.835938 55.71875 276.269531 C 55.875 276.414062 71.09375 291.585938 52.367188 360.621094 C 51.828125 362.597656 52.246094 364.703125 53.484375 366.328125 C 54.726562 367.953125 56.648438 368.90625 58.691406 368.90625 L 187.882812 368.90625 C 190 368.90625 191.980469 367.882812 193.214844 366.164062 C 194.445312 364.441406 194.769531 362.230469 194.089844 360.226562 C 189.375 345.324219 184.636719 324.753906 190.019531 320.308594 C 208.972656 323.757812 228.71875 324.578125 233.242188 324.730469 C 243.730469 326.871094 264.402344 322.574219 263.902344 301.855469 C 263.902344 283.8125 272.707031 271.300781 272.777344 271.199219 C 275.054688 268.207031 274.101562 263.535156 270.824219 261.6875 C 270.824219 261.6875 258.875 254.601562 258.875 254.601562 L 271.488281 249.617188 C 274.789062 248.3125 276.445312 244.582031 275.234375 241.246094 C 270.585938 227.199219 279.113281 227 290.363281 222.523438 C 299.023438 219.597656 302.402344 208.003906 296.71875 200.835938 C 296.71875 200.835938 270.835938 166.132812 270.835938 166.132812 Z M 286.386719 209.605469 C 283.296875 211.816406 278.507812 212.621094 273.574219 214.945312 C 261.65625 219.726562 260.046875 231 261.339844 239.515625 L 241.609375 247.3125 C 236.621094 249.089844 236.042969 256.523438 240.671875 259.0625 C 240.671875 259.0625 258.53125 269.652344 258.53125 269.652344 C 255.195312 276.214844 250.792969 287.578125 250.792969 301.859375 C 250.792969 307.148438 248.734375 308.878906 248.0625 309.449219 C 243.742188 312.777344 237.105469 312.011719 234.082031 311.625 C 219.78125 311.1875 179.703125 308.085938 166.121094 299.066406 C 163.101562 297.054688 159.03125 297.882812 157.035156 300.90625 C 155.03125 303.925781 155.855469 307.996094 158.875 310 C 163.347656 312.972656 169.515625 315.355469 176.40625 317.257812 C 172.566406 327.875 176.089844 345.039062 179.03125 355.78125 L 67.171875 355.78125 C 84.609375 285.628906 67.527344 268.695312 64.144531 266.21875 C 31.679688 238.519531 13.523438 195.066406 16.765625 152.8125 C 29.152344 18.609375 207.441406 36.171875 249.769531 78.757812 C 261.246094 94.628906 254.542969 104.269531 254.328125 104.574219 C 252.566406 106.820312 252.503906 110.019531 254.109375 112.382812 C 254.148438 112.449219 258.542969 119.074219 261.125 135.097656 C 263.648438 154.832031 258.597656 153.988281 257.726562 160.816406 C 257.976562 163.773438 256.902344 169.855469 259.027344 172.234375 C 259.027344 172.234375 286.214844 208.6875 286.214844 208.6875 C 286.476562 209.039062 286.449219 209.378906 286.386719 209.605469 Z M 286.386719 209.605469 " fill-opacity="1" fill-rule="nonzero"/></g><path fill="#000000" d="M 305.695312 238.148438 C 302.691406 240.171875 301.890625 244.25 303.914062 247.253906 C 310.308594 256.535156 310.308594 269.871094 303.914062 279.148438 C 299.167969 286.257812 309.949219 293.589844 314.792969 286.472656 C 324.152344 272.890625 324.15625 253.511719 314.792969 239.929688 C 312.777344 236.925781 308.699219 236.121094 305.695312 238.148438 Z M 305.695312 238.148438 " fill-opacity="1" fill-rule="nonzero"/><path fill="#000000" d="M 334.746094 226.625 C 329.949219 219.539062 319.105469 226.792969 323.871094 233.953125 C 335.636719 251.046875 335.636719 275.355469 323.871094 292.453125 C 320.875 296.621094 324.242188 302.824219 329.304688 302.679688 C 331.414062 302.679688 333.484375 301.664062 334.746094 299.777344 C 349.480469 278.371094 349.484375 248.035156 334.746094 226.625 Z M 334.746094 226.625 " fill-opacity="1" fill-rule="nonzero"/><path fill="#000000" d="M 355.28125 212.921875 C 350.503906 205.820312 339.640625 213.015625 344.371094 220.203125 C 361.53125 245.363281 361.53125 281.039062 344.371094 306.203125 C 341.40625 310.371094 344.765625 316.554688 349.820312 316.40625 C 351.9375 316.40625 354.019531 315.378906 355.28125 313.484375 C 375.363281 284.023438 375.367188 242.382812 355.28125 212.921875 Z M 355.28125 212.921875 " fill-opacity="1" fill-rule="nonzero"/></svg>