<svg xmlns="http://www.w3.org/2000/svg" xmlns:xlink="http://www.w3.org/1999/xlink" width="500" zoomAndPan="magnify" viewBox="0 0 375 374.999991" height="500" preserveAspectRatio="xMidYMid meet" version="1.0"><path fill="#000000" d="M 187.5 0 C 84.113281 0 0 84.113281 0 187.5 C 0 290.886719 84.113281 375 187.5 375 C 290.886719 375 375 290.886719 375 187.5 C 375 84.113281 290.886719 0 187.5 0 Z M 187.5 351.5625 C 97.035156 351.5625 23.4375 277.964844 23.4375 187.5 C 23.4375 97.035156 97.035156 23.4375 187.5 23.4375 C 277.964844 23.4375 351.5625 97.035156 351.5625 187.5 C 351.5625 277.964844 277.964844 351.5625 187.5 351.5625 Z M 264.464844 244.796875 C 262.164062 247.886719 258.632812 249.519531 255.054688 249.519531 C 252.621094 249.519531 250.167969 248.761719 248.066406 247.199219 L 180.5 196.898438 C 177.53125 194.6875 175.78125 191.203125 175.78125 187.5 L 175.78125 80.273438 C 175.78125 73.800781 181.027344 68.554688 187.5 68.554688 C 193.972656 68.554688 199.21875 73.800781 199.21875 80.273438 L 199.21875 181.613281 L 262.0625 228.398438 C 267.253906 232.261719 268.328125 239.605469 264.464844 244.796875 Z M 264.464844 244.796875 " fill-opacity="1" fill-rule="nonzero"/></svg>